<svg width="143" height="50" viewBox="0 0 143 50" fill="none" xmlns="http://www.w3.org/2000/svg">
<circle cx="25" cy="25" r="25" fill="#FB8B6D"/>
<g clip-path="url(#clip0_43_16986)">
<path d="M5 5H45V45H5V5Z" fill="url(#paint0_linear_43_16986)"/>
<path d="M5 5H45V45H5V5Z" fill="url(#paint1_linear_43_16986)"/>
<path d="M25 16.4287C20.2664 16.4287 16.4286 20.2665 16.4286 25.0001C16.4286 29.7337 20.2664 33.5715 25 33.5715C29.7336 33.5715 33.5714 29.7337 33.5714 25.0001L33.5707 24.8787L36.2472 22.9594C36.3664 23.6215 36.4286 24.3037 36.4286 25.0001C36.4286 31.3122 31.3122 36.4287 25 36.4287C18.6879 36.4287 13.5714 31.3122 13.5714 25.0001C13.5714 18.688 18.6879 13.5715 25 13.5715C27.725 13.5715 30.2272 14.5251 32.1914 16.1172L29.7522 17.8658C28.3456 16.9263 26.6915 16.426 25 16.4287Z" fill="white"/>
<path d="M35.47 20.4115L25.0307 27.8958L25.015 27.8744L25.0007 27.8958L20.7343 24.8372V21.2972L25.0157 24.3665L33.985 17.9365C34.5826 18.6954 35.0816 19.5271 35.47 20.4115Z" fill="white"/>
</g>
<circle cx="56" cy="25" r="25" fill="#FB8B6D"/>
<g clip-path="url(#clip1_43_16986)">
<path d="M36 5H76V45H36V5Z" fill="#0079C2"/>
<path d="M61.5771 14.6421C61.0071 12.2557 59.5793 10.3136 59.3821 10C59.0707 10.445 57.9321 12.1607 57.3521 14.0579C56.72 16.1821 56.6264 18.065 56.845 19.9121C57.0614 21.7657 57.8807 23.6707 57.8807 23.6707C58.315 24.6636 58.9664 25.7364 59.3914 26.2621C60.0128 25.4886 61.4421 23.1821 61.8878 20.175C62.1357 18.4964 62.1464 17.0286 61.5771 14.6421ZM59.3821 25.6636C59.1021 25.16 58.6671 24.2036 58.6257 22.715C58.615 21.2843 59.2157 20.0507 59.3914 19.795C59.5478 20.0507 60.065 21.1236 60.1271 22.5907C60.1548 23.6629 59.8978 24.7232 59.3821 25.6636ZM61.4121 18.6929C61.3907 19.6057 61.2764 20.5693 61.1321 21.1457C61.1836 20.1529 61.0593 18.7586 60.8214 17.6643C60.5828 16.5764 59.9093 14.7514 59.3714 13.9121C58.875 14.715 58.2628 16.2914 57.9421 17.6564C57.6207 19.0214 57.6107 20.6779 57.6107 21.175C57.525 20.7586 57.3121 19.2621 57.3721 17.7657C57.4221 16.5329 57.725 15.255 57.89 14.6714C58.5221 12.7229 59.2371 11.4743 59.3714 11.2771C59.5057 11.4743 60.4064 13.0143 60.8728 14.6271C61.2475 15.9493 61.4292 17.3187 61.4121 18.6929Z" fill="white"/>
<path d="M60.3493 27.143H56.0157V29.598C56.0193 29.598 56.0229 29.5908 56.0264 29.5908C57.0472 28.6122 58.7029 28.6122 59.725 29.5908C60.7457 30.5615 60.7457 32.1451 59.725 33.123C59.72 33.1301 59.7157 33.1301 59.7107 33.1372C59.7057 33.1372 59.7 33.1451 59.6957 33.1522C58.6772 34.1165 57.3457 34.598 56.0157 34.598C54.6786 34.598 53.3414 34.1158 52.3222 33.138C50.5243 31.423 50.3114 28.7587 51.6822 26.8165C51.8664 26.5544 52.0793 26.3058 52.3222 26.0722C53.3414 25.0944 54.6629 24.613 56 24.613V17.9272C50.8629 17.9272 46.7143 21.9051 46.7143 26.8172C46.7143 31.7294 50.8786 35.7144 56.0157 35.7144C58.6943 35.7144 61.4457 34.6265 63.1429 32.8972V27.143H60.3493Z" fill="white"/>
</g>
<circle cx="87" cy="25" r="25" fill="#FB8B6D"/>
<g clip-path="url(#clip2_43_16986)">
<path d="M67 5H107V45H67V5Z" fill="#FC3F1D"/>
<path d="M89.1429 33.5072V37.1429H85.5714V31.0215L77.7143 15.7144H81.7857L88.2286 27.6715C89.3286 29.9715 89.1429 30.7572 89.1429 33.5072ZM96.2857 15.7144L91.6714 25.7144H87.7L92.3429 15.7144H96.2857Z" fill="white"/>
</g>
<circle cx="118" cy="25" r="25" fill="#FB8B6D"/>
<g clip-path="url(#clip3_43_16986)">
<path d="M98 5H138V45H98V5Z" fill="#2C499A"/>
<path d="M105.143 34.2856L110.567 14.2856L117.974 20.6449L125.433 14.2856L130.857 34.2856H128.249L124.024 18.6449L117.974 23.7735L111.976 18.6449L107.75 34.2856H105.143ZM108.533 34.2856L112.393 20.0806L117.974 24.8499L123.607 20.0806L127.467 34.2856H124.754L122.043 24.3885L117.975 27.9778L113.906 24.3885L111.246 34.2856H108.533ZM112.028 34.2856L114.323 25.7728L116.566 27.6699L115.784 30.4914L121.416 25.9778L122.146 28.3885L119.695 30.3885L123.868 34.2856H120.373L117.974 31.6706L114.74 34.2856H112.028Z" fill="white"/>
</g>
<defs>
<linearGradient id="paint0_linear_43_16986" x1="25" y1="5" x2="25" y2="45" gradientUnits="userSpaceOnUse">
<stop stop-color="#0E8FE2"/>
<stop offset="1" stop-color="#2EAE4C"/>
</linearGradient>
<linearGradient id="paint1_linear_43_16986" x1="12.9" y1="42.0971" x2="38.1" y2="22.085" gradientUnits="userSpaceOnUse">
<stop stop-color="#EFE436"/>
<stop offset="1" stop-color="white" stop-opacity="0"/>
</linearGradient>
<clipPath id="clip0_43_16986">
<rect x="5" y="5" width="40" height="40" rx="20" fill="white"/>
</clipPath>
<clipPath id="clip1_43_16986">
<rect x="36" y="5" width="40" height="40" rx="20" fill="white"/>
</clipPath>
<clipPath id="clip2_43_16986">
<rect x="67" y="5" width="40" height="40" rx="20" fill="white"/>
</clipPath>
<clipPath id="clip3_43_16986">
<rect x="98" y="5" width="40" height="40" rx="20" fill="white"/>
</clipPath>
</defs>
</svg>
