<svg width="38" height="38" viewBox="0 0 38 38" fill="none" xmlns="http://www.w3.org/2000/svg">
<circle cx="19" cy="19" r="19" fill="#F3F3F3"/>
<g clip-path="url(#clip0_43_17316)">
<path d="M11.5 19.8333C11.5 19.6123 11.5878 19.4004 11.7441 19.2441C11.9004 19.0878 12.1123 19 12.3333 19H15.6667C15.8877 19 16.0996 19.0878 16.2559 19.2441C16.4122 19.4004 16.5 19.6123 16.5 19.8333V24.8333C16.5 25.0543 16.4122 25.2663 16.2559 25.4226C16.0996 25.5789 15.8877 25.6667 15.6667 25.6667H12.3333C12.1123 25.6667 11.9004 25.5789 11.7441 25.4226C11.5878 25.2663 11.5 25.0543 11.5 24.8333V19.8333Z" stroke="url(#paint0_linear_43_17316)" stroke-width="1.5" stroke-linecap="round" stroke-linejoin="round"/>
<path d="M16.5 16.5C16.5 16.279 16.5878 16.067 16.7441 15.9107C16.9004 15.7545 17.1123 15.6667 17.3333 15.6667H20.6667C20.8877 15.6667 21.0996 15.7545 21.2559 15.9107C21.4122 16.067 21.5 16.279 21.5 16.5V24.8333C21.5 25.0544 21.4122 25.2663 21.2559 25.4226C21.0996 25.5789 20.8877 25.6667 20.6667 25.6667H17.3333C17.1123 25.6667 16.9004 25.5789 16.7441 25.4226C16.5878 25.2663 16.5 25.0544 16.5 24.8333V16.5Z" stroke="url(#paint1_linear_43_17316)" stroke-width="1.5" stroke-linecap="round" stroke-linejoin="round"/>
<path d="M21.5 13.1667C21.5 12.9456 21.5878 12.7337 21.7441 12.5774C21.9004 12.4211 22.1123 12.3333 22.3333 12.3333H25.6667C25.8877 12.3333 26.0996 12.4211 26.2559 12.5774C26.4122 12.7337 26.5 12.9456 26.5 13.1667V24.8333C26.5 25.0543 26.4122 25.2663 26.2559 25.4226C26.0996 25.5789 25.8877 25.6667 25.6667 25.6667H22.3333C22.1123 25.6667 21.9004 25.5789 21.7441 25.4226C21.5878 25.2663 21.5 25.0543 21.5 24.8333V13.1667Z" stroke="url(#paint2_linear_43_17316)" stroke-width="1.5" stroke-linecap="round" stroke-linejoin="round"/>
<path d="M12.3333 25.6667H24" stroke="url(#paint3_linear_43_17316)" stroke-width="1.5" stroke-linecap="round" stroke-linejoin="round"/>
</g>
<defs>
<linearGradient id="paint0_linear_43_17316" x1="14" y1="19" x2="14" y2="23.1188" gradientUnits="userSpaceOnUse">
<stop stop-color="#E5ADFF"/>
<stop offset="1" stop-color="#FCB8E1"/>
</linearGradient>
<linearGradient id="paint1_linear_43_17316" x1="19" y1="15.6667" x2="19" y2="21.8448" gradientUnits="userSpaceOnUse">
<stop stop-color="#E5ADFF"/>
<stop offset="1" stop-color="#FCB8E1"/>
</linearGradient>
<linearGradient id="paint2_linear_43_17316" x1="24" y1="12.3333" x2="24" y2="20.5709" gradientUnits="userSpaceOnUse">
<stop stop-color="#E5ADFF"/>
<stop offset="1" stop-color="#FCB8E1"/>
</linearGradient>
<linearGradient id="paint3_linear_43_17316" x1="18.1667" y1="25.6667" x2="18.1667" y2="26.2845" gradientUnits="userSpaceOnUse">
<stop stop-color="#E5ADFF"/>
<stop offset="1" stop-color="#FCB8E1"/>
</linearGradient>
<clipPath id="clip0_43_17316">
<rect width="20" height="20" fill="white" transform="translate(9 9)"/>
</clipPath>
</defs>
</svg>
