<svg width="50" height="50" viewBox="0 0 50 50" fill="none" xmlns="http://www.w3.org/2000/svg">
<g clip-path="url(#clip0_44_182)">
<path d="M0 0H50V50H0V0Z" fill="#F0F3FA"/>
<path d="M39.0072 22.9589H25.0001V28.0857H33.0751C31.8947 31.4116 28.7304 33.5714 25.0001 33.5714C23.8744 33.5715 22.7598 33.3499 21.7198 32.9192C20.6798 32.4885 19.7348 31.8571 18.9389 31.0612C18.1429 30.2652 17.5116 29.3203 17.0809 28.2803C16.6502 27.2403 16.4285 26.1257 16.4286 25C16.4286 20.2652 20.2652 16.4286 25.0001 16.4286C27.0982 16.427 29.1232 17.1999 30.6867 18.5991L34.7269 14.5589C32.1769 12.1821 28.7644 10.7143 25.0001 10.7143C17.1099 10.7143 10.7144 17.1098 10.7144 25C10.7144 32.8902 17.1099 39.2857 25.0001 39.2857C32.8902 39.2857 39.2858 32.8902 39.2858 25C39.2858 24.2277 39.1885 23.8661 39.0072 22.9589Z" fill="#FFC107"/>
<path d="M12.3608 18.3509L17.0573 21.7938C18.3251 18.65 21.4001 16.4286 25.0001 16.4286C27.0983 16.427 29.1232 17.1999 30.6867 18.5991L34.7269 14.5589C32.1769 12.1821 28.7644 10.7143 25.0001 10.7143C19.5117 10.7143 14.7546 13.8116 12.3608 18.3509Z" fill="#FF3D00"/>
<path d="M25.0001 39.2857C28.6885 39.2857 32.0429 37.8741 34.5787 35.5777L30.1563 31.8366C28.6736 32.9633 26.8623 33.5727 25.0001 33.5714C21.2831 33.5714 18.1304 31.2027 16.942 27.8964L12.2822 31.4848C14.6456 36.1098 19.4474 39.2857 25.0001 39.2857Z" fill="#4CAF50"/>
<path d="M39.0071 22.9589H25V28.0857H33.075C32.508 29.6839 31.4786 30.8313 30.1536 31.8357H30.1563L34.5786 35.5768C34.2661 35.8607 39.2857 32.1429 39.2857 25C39.2857 24.0429 39.1884 23.8661 39.0071 22.9589Z" fill="#1976D2"/>
</g>
<defs>
<clipPath id="clip0_44_182">
<rect width="50" height="50" rx="25" fill="white"/>
</clipPath>
</defs>
</svg>
