<svg width="133" height="174" viewBox="0 0 133 174" fill="none" xmlns="http://www.w3.org/2000/svg">
<g filter="url(#filter0_d_105_2949)">
<path d="M2 4.46305C2 3.10275 3.10275 2 4.46305 2H73.4286C74.7889 2 75.8916 3.10275 75.8916 4.46305V99.5369C75.8916 100.897 74.7889 102 73.4286 102H4.46306C3.10275 102 2 100.897 2 99.5369V4.46305Z" fill="white"/>
<rect x="6.9261" y="85.2513" width="22.0499" height="7.47586" rx="3" fill="#292929"/>
<path d="M24.086 90.3544C24.0271 90.3544 23.982 90.3405 23.9508 90.3128C23.9231 90.2816 23.9092 90.2383 23.9092 90.1828V87.962C23.9092 87.9065 23.9231 87.8649 23.9508 87.8371C23.9786 87.8094 24.0184 87.7955 24.0704 87.7955C24.119 87.7955 24.1571 87.8094 24.1849 87.8371C24.2126 87.8649 24.2265 87.9065 24.2265 87.962V88.7629H25.0326C25.3481 88.7629 25.5874 88.8323 25.7504 88.9709C25.9168 89.1096 26 89.3038 26 89.5535C26 89.7199 25.9619 89.8638 25.8856 89.9851C25.8128 90.1065 25.7053 90.1984 25.5631 90.2608C25.421 90.3232 25.2441 90.3544 25.0326 90.3544H24.086ZM24.2265 90.11H25.0222C25.2303 90.11 25.3915 90.0649 25.5059 89.9747C25.6238 89.8846 25.6827 89.7459 25.6827 89.5587C25.6827 89.368 25.6238 89.2275 25.5059 89.1374C25.3915 89.0472 25.2303 89.0022 25.0222 89.0022H24.2265V90.11Z" fill="white"/>
<path d="M22.3507 90.3857C22.3021 90.3857 22.264 90.3718 22.2362 90.3441C22.2085 90.3164 22.1946 90.2765 22.1946 90.2245V88.0973H21.3729C21.2689 88.0973 21.2169 88.0522 21.2169 87.9621C21.2169 87.9239 21.2307 87.8927 21.2585 87.8684C21.2862 87.8442 21.3243 87.832 21.3729 87.832H23.3337C23.4342 87.832 23.4845 87.8754 23.4845 87.9621C23.4845 88.0037 23.4706 88.0366 23.4429 88.0609C23.4186 88.0851 23.3822 88.0973 23.3337 88.0973H22.5119V90.2245C22.5119 90.2765 22.498 90.3164 22.4703 90.3441C22.446 90.3718 22.4061 90.3857 22.3507 90.3857Z" fill="white"/>
<path d="M18.8234 90.3856C18.7957 90.3856 18.7696 90.3804 18.7454 90.37C18.7246 90.3596 18.7072 90.3423 18.6934 90.318C18.683 90.2903 18.6778 90.2556 18.6778 90.214V87.9568C18.6778 87.9048 18.6899 87.8649 18.7142 87.8371C18.7419 87.8094 18.7801 87.7955 18.8286 87.7955C18.8737 87.7955 18.9083 87.8094 18.9326 87.8371C18.9569 87.8649 18.969 87.9048 18.969 87.9568V90.0736H18.8442L20.4617 87.8996C20.486 87.8683 20.512 87.8441 20.5397 87.8267C20.5674 87.8059 20.6039 87.7955 20.6489 87.7955C20.6801 87.7955 20.7061 87.8025 20.7269 87.8163C20.7477 87.8267 20.7634 87.8441 20.7738 87.8683C20.7876 87.8926 20.7946 87.9256 20.7946 87.9672V90.2296C20.7946 90.2781 20.7807 90.3163 20.7529 90.344C20.7287 90.3717 20.694 90.3856 20.6489 90.3856C20.6004 90.3856 20.564 90.3717 20.5397 90.344C20.5154 90.3163 20.5033 90.2781 20.5033 90.2296V88.1128H20.6281L19.0054 90.2868C18.9846 90.3145 18.9604 90.3371 18.9326 90.3544C18.9049 90.3752 18.8685 90.3856 18.8234 90.3856Z" fill="white"/>
<path d="M15.8525 90.3857C15.8005 90.3857 15.7606 90.3718 15.7329 90.3441C15.7051 90.3164 15.6913 90.2765 15.6913 90.2245V88.0141C15.6913 87.9551 15.7069 87.91 15.7381 87.8788C15.7693 87.8476 15.8144 87.832 15.8733 87.832H17.6208C17.6798 87.832 17.7248 87.8476 17.7561 87.8788C17.7873 87.91 17.8029 87.9551 17.8029 88.0141V90.2245C17.8029 90.2765 17.789 90.3164 17.7613 90.3441C17.7335 90.3718 17.6936 90.3857 17.6416 90.3857C17.5931 90.3857 17.5549 90.3718 17.5272 90.3441C17.4995 90.3164 17.4856 90.2765 17.4856 90.2245V88.0921H16.0085V90.2245C16.0085 90.2765 15.9947 90.3164 15.9669 90.3441C15.9426 90.3718 15.9045 90.3857 15.8525 90.3857Z" fill="white"/>
<path d="M13.535 91.3218C13.4934 91.3218 13.4604 91.3097 13.4362 91.2854C13.4119 91.2646 13.398 91.2351 13.3945 91.197C13.3945 91.1623 13.4015 91.1259 13.4153 91.0877L13.7742 90.2712V90.4168L12.7548 88.0348C12.7375 87.9932 12.7306 87.955 12.734 87.9204C12.741 87.8822 12.7566 87.8527 12.7808 87.8319C12.8086 87.8077 12.8467 87.7955 12.8953 87.7955C12.9403 87.7955 12.9733 87.8059 12.9941 87.8267C13.0183 87.8475 13.0391 87.8805 13.0565 87.9256L13.9823 90.1672H13.8522L14.778 87.9256C14.7988 87.877 14.8213 87.8441 14.8456 87.8267C14.8699 87.8059 14.9046 87.7955 14.9496 87.7955C14.9947 87.7955 15.0276 87.8077 15.0484 87.8319C15.0727 87.8527 15.0866 87.8805 15.0901 87.9152C15.0935 87.9498 15.0866 87.988 15.0693 88.0296L13.7118 91.197C13.691 91.2455 13.6667 91.2784 13.639 91.2958C13.6147 91.3131 13.58 91.3218 13.535 91.3218Z" fill="white"/>
<path d="M10.0582 90.3856C10.0096 90.3856 9.97148 90.3718 9.94374 90.344C9.916 90.3128 9.90213 90.2712 9.90213 90.2192V86.8178C9.90213 86.7658 9.916 86.7259 9.94374 86.6982C9.97148 86.6704 10.0096 86.6566 10.0582 86.6566C10.1102 86.6566 10.15 86.6704 10.1778 86.6982C10.2055 86.7259 10.2194 86.7658 10.2194 86.8178V88.3573H10.9891L10.8695 88.4353L12.0085 86.7398C12.0328 86.7051 12.0605 86.6826 12.0917 86.6722C12.1229 86.6583 12.1541 86.6548 12.1854 86.6618C12.2166 86.6687 12.2426 86.6843 12.2634 86.7086C12.2842 86.7294 12.2963 86.7554 12.2998 86.7866C12.3067 86.8178 12.298 86.8525 12.2738 86.8906L11.192 88.4821L11.0827 88.3677C11.2839 88.3885 11.4572 88.4613 11.6028 88.5861C11.7519 88.7075 11.8802 88.8774 11.9877 89.0958L12.5182 90.1672C12.539 90.2053 12.5442 90.2418 12.5338 90.2764C12.5269 90.3076 12.5095 90.3319 12.4818 90.3492C12.4575 90.3666 12.4281 90.377 12.3934 90.3804C12.3622 90.3839 12.331 90.377 12.2998 90.3596C12.2686 90.3458 12.2443 90.3198 12.227 90.2816L11.7381 89.2726C11.6271 89.0438 11.5023 88.8808 11.3636 88.7837C11.2284 88.6867 11.0619 88.6381 10.8643 88.6381H10.2194V90.2192C10.2194 90.2712 10.2055 90.3128 10.1778 90.344C10.1535 90.3718 10.1136 90.3856 10.0582 90.3856Z" fill="white"/>
<path fill-rule="evenodd" clip-rule="evenodd" d="M64.4802 56.8747L66.596 62.067L69.2825 58.0214L69.6929 58.2939L66.4912 63.1153L64.1909 57.4702L61.0338 58.3757L56.8532 62.8197L50.9711 63.8467L49.1195 61.0585L47.5968 63.2424L45.6313 65.2157L43.3064 68.3277L43.1192 68.2265C42.5841 67.9373 41.7805 67.4781 41.1085 67.0401C40.7734 66.8217 40.4647 66.6045 40.2374 66.4136C40.1243 66.3186 40.0243 66.2243 39.9504 66.1348C39.9134 66.0899 39.8784 66.0409 39.8518 65.9889C39.8261 65.9386 39.8006 65.871 39.8006 65.7932C39.8006 65.7374 39.7721 65.5995 39.7043 65.3803C39.6401 65.1727 39.5502 64.9212 39.4488 64.6556C39.3335 64.3533 39.2048 64.0368 39.0854 63.7525L38.2972 65.9283L35.7426 68.4929L35.6372 68.0694C35.3916 67.0833 34.8049 64.8261 34.4157 63.654C34.2354 63.1109 34.0096 63.0175 33.8744 63.0095C33.707 62.9996 33.513 63.1044 33.372 63.2381L29.16 70.2027L26.0616 70.7683V67.271C26.0616 67.0077 25.9866 66.6019 25.8846 66.1841C25.815 65.8987 25.7355 65.6188 25.6667 65.3937L22.9973 66.6118L21.6281 63.6335L20.4067 65.8816L19.4336 70.0337L18.4528 74.7107L17.974 74.7247C17.7278 73.8182 17.1902 71.8725 16.9966 71.2895C16.9182 71.0534 16.7299 70.8214 16.5029 70.6205C16.4188 70.5461 16.3326 70.4788 16.25 70.4198V74.9065H14.7454L14.2784 78.188L12.8486 80.7717L10.8944 78.2493L9.73338 76.3843H8.556L7.14989 79.4428L6.70232 79.2371L8.24029 75.8917H10.007L11.2993 77.9676L12.7799 79.8786L13.8035 78.0288L14.2853 74.6426C14.286 74.2276 14.311 73.6312 14.3868 73.1786C14.4237 72.9589 14.4783 72.7326 14.5717 72.5845C14.618 72.5111 14.7057 72.4061 14.8517 72.384C15.0047 72.3609 15.1236 72.4424 15.1968 72.5159C15.3428 72.6624 15.4167 72.8576 15.4529 73.0488C15.4895 73.2419 15.4917 73.453 15.4765 73.6564C15.4567 73.9204 15.4061 74.1876 15.3495 74.4139H15.7574V69.5811L16.1142 69.7602C16.2953 69.8511 16.5709 70.0229 16.8293 70.2516C17.0847 70.4776 17.3462 70.7792 17.4641 71.1343C17.6058 71.5611 17.9215 72.6793 18.1797 73.6126L18.9532 69.9241L19.9422 65.7047L21.6648 62.5341L23.2397 65.9597L25.9646 64.7163L26.051 64.9766C26.1346 65.2284 26.2592 65.6412 26.3632 66.0673C26.4657 66.4869 26.5542 66.9432 26.5542 67.271V70.1775L28.8533 69.758L32.982 62.931L33.0029 62.91C33.1878 62.7244 33.5228 62.4953 33.9034 62.5177C34.3243 62.5426 34.671 62.8597 34.8832 63.4988C35.2299 64.543 35.7261 66.4169 36.0087 67.5278L37.8712 65.658L39.0427 62.4237L39.2908 62.9841C39.4556 63.3563 39.7027 63.9392 39.909 64.48C40.0121 64.7501 40.1062 65.0127 40.1749 65.2347C40.2363 65.4333 40.2873 65.6288 40.2928 65.7689C40.2988 65.7796 40.3103 65.7969 40.3303 65.8212C40.3769 65.8776 40.4513 65.9499 40.5542 66.0364C40.7588 66.2082 41.0481 66.4128 41.3775 66.6274C41.9609 67.0077 42.6501 67.4068 43.1669 67.6913L45.2576 64.8928L47.2174 62.9252L49.1295 60.1829L51.2034 63.3061L56.6068 62.3626L60.7678 57.9396L64.4802 56.8747ZM14.778 74.6142L14.7886 74.5825C14.8657 74.3502 14.9585 73.9764 14.9852 73.6196C14.9986 73.4412 14.9947 73.2767 14.9689 73.1404C14.9584 73.0851 14.945 73.0378 14.9295 72.9978C14.9101 73.0657 14.8906 73.1531 14.8727 73.26C14.805 73.6638 14.7798 74.2122 14.778 74.6142Z" fill="#00CF6C"/>
<path d="M21.7044 15.1598C21.7044 18.0748 19.3414 20.4378 16.4264 20.4378C13.5115 20.4378 11.1485 18.0748 11.1485 15.1598C11.1485 12.2449 13.5115 9.88184 16.4264 9.88184C19.3414 9.88184 21.7044 12.2449 21.7044 15.1598Z" fill="white"/>
<g clip-path="url(#clip0_105_2949)">
<path d="M12.204 10.9373H20.6488V19.3821H12.204V10.9373Z" fill="#F8F9FD"/>
<path d="M12.204 13.7523H20.6488V19.3821H12.204V13.7523Z" fill="#1E88E5"/>
<path d="M12.204 16.5671H20.6488V19.3821H12.204V16.5671Z" fill="#EF5350"/>
</g>
<path d="M17.482 19.382C17.482 22.2969 15.119 24.66 12.2041 24.66C9.28912 24.66 6.92609 22.2969 6.92609 19.382C6.92609 16.467 9.28912 14.104 12.2041 14.104C15.119 14.104 17.482 16.467 17.482 19.382Z" fill="white"/>
<g clip-path="url(#clip1_105_2949)">
<path d="M7.98161 15.1599H16.4264V23.6046H7.98161V15.1599Z" fill="#EF5350"/>
<path d="M11.0968 17.9279L9.14981 19.3682L9.89107 17.0365L10.637 19.3822L8.68535 17.9419H11.0968V17.9279ZM11.7771 16.6658L12.5183 16.9802L11.7348 17.1585L12.2603 16.5673L12.1899 17.3555L11.7771 16.6658ZM12.6685 17.5056L13.2314 18.0733L12.4386 17.9466L13.1611 17.6042L12.7857 18.3126L12.6685 17.5056ZM12.828 18.6785L13.1048 19.4292L12.4386 18.96H13.2408L12.6075 19.4292L12.828 18.6785ZM12.2368 19.6168L12.1993 20.4331L11.7583 19.7482L12.5089 20.0297L11.7348 20.2408L12.2368 19.6168Z" fill="#FFEB3B"/>
</g>
<path d="M57.7605 20.2266C57.6659 20.2266 57.592 20.2 57.5388 20.1468C57.4856 20.0936 57.459 20.0167 57.459 19.9162V14.2857C57.459 14.1852 57.4856 14.1083 57.5388 14.0551C57.592 14.0019 57.6659 13.9753 57.7605 13.9753H59.8442C60.2758 13.9753 60.6393 14.0404 60.9349 14.1704C61.2304 14.2946 61.458 14.4778 61.6176 14.7202C61.7772 14.9625 61.857 15.2611 61.857 15.6157C61.857 16.0059 61.7388 16.331 61.5024 16.5911C61.2718 16.8512 60.9585 17.0226 60.5625 17.1054V16.9813C61.0058 17.0285 61.3546 17.1881 61.6088 17.4601C61.8689 17.7261 61.9989 18.0808 61.9989 18.5241C61.9989 19.0798 61.8216 19.5024 61.4669 19.7921C61.1122 20.0817 60.6098 20.2266 59.9595 20.2266H57.7605ZM57.991 19.7655H59.9152C60.4295 19.7655 60.8137 19.665 61.0679 19.464C61.3221 19.2571 61.4492 18.9468 61.4492 18.533C61.4492 18.1074 61.3221 17.7941 61.0679 17.5931C60.8137 17.3921 60.4295 17.2916 59.9152 17.2916H57.991V19.7655ZM57.991 16.8305H59.7822C60.2787 16.8305 60.657 16.73 60.9171 16.529C61.1772 16.3221 61.3073 16.0236 61.3073 15.6335C61.3073 15.2433 61.1772 14.9478 60.9171 14.7468C60.657 14.5399 60.2787 14.4364 59.7822 14.4364H57.991V16.8305Z" fill="#292929"/>
<path d="M53.4366 20.2975C53.0406 20.2975 52.6888 20.2443 52.3815 20.1379C52.0741 20.0315 51.8169 19.8719 51.61 19.6591C51.409 19.4463 51.2553 19.1832 51.1489 18.8699C51.0484 18.5566 50.9982 18.196 50.9982 17.7881V14.197C50.9982 14.1024 51.0218 14.0344 51.0691 13.9931C51.1164 13.9458 51.1814 13.9221 51.2642 13.9221C51.3529 13.9221 51.4209 13.9458 51.4681 13.9931C51.5154 14.0344 51.5391 14.1024 51.5391 14.197V17.7438C51.5391 18.4354 51.6987 18.9527 52.0179 19.2955C52.343 19.6325 52.8159 19.8009 53.4366 19.8009C54.0632 19.8009 54.5361 19.6325 54.8553 19.2955C55.1746 18.9527 55.3342 18.4354 55.3342 17.7438V14.197C55.3342 14.1024 55.3578 14.0344 55.4051 13.9931C55.4524 13.9458 55.5204 13.9221 55.609 13.9221C55.6918 13.9221 55.7568 13.9458 55.8041 13.9931C55.8514 14.0344 55.875 14.1024 55.875 14.197V17.7881C55.875 18.332 55.7834 18.7931 55.6002 19.1714C55.4169 19.5438 55.142 19.8246 54.7755 20.0137C54.4149 20.2029 53.9686 20.2975 53.4366 20.2975Z" fill="#292929"/>
<path d="M45.4463 20.2798C45.3635 20.2798 45.2985 20.2561 45.2512 20.2088C45.2039 20.1556 45.1803 20.0847 45.1803 19.996V14.2591C45.1803 14.1645 45.2039 14.0936 45.2512 14.0463C45.3044 13.999 45.3724 13.9753 45.4552 13.9753H47.5389C48.201 13.9753 48.7094 14.129 49.064 14.4364C49.4187 14.7438 49.5961 15.1813 49.5961 15.7487C49.5961 16.1152 49.5163 16.4315 49.3567 16.6975C49.197 16.9576 48.9606 17.1556 48.6473 17.2916C48.3399 17.4276 47.9704 17.4955 47.5389 17.4955L47.6365 17.3803H47.7606C47.9852 17.3803 48.1803 17.4394 48.3458 17.5576C48.5172 17.6758 48.6709 17.868 48.8069 18.134L49.7468 19.8808C49.7882 19.9458 49.8059 20.0108 49.8 20.0758C49.8 20.1349 49.7793 20.1852 49.7379 20.2266C49.6966 20.262 49.6434 20.2798 49.5783 20.2798C49.5015 20.2798 49.4365 20.262 49.3833 20.2266C49.336 20.1911 49.2946 20.1409 49.2591 20.0758L48.266 18.2226C48.1123 17.9389 47.9409 17.7527 47.7517 17.664C47.5626 17.5694 47.3084 17.5221 46.9892 17.5221H45.7212V19.996C45.7212 20.0847 45.6975 20.1556 45.6502 20.2088C45.6089 20.2561 45.5409 20.2798 45.4463 20.2798ZM45.7212 17.0611H47.468C47.9941 17.0611 48.3872 16.9517 48.6473 16.733C48.9133 16.5083 49.0463 16.1803 49.0463 15.7487C49.0463 15.3231 48.9133 15.001 48.6473 14.7822C48.3872 14.5576 47.9941 14.4453 47.468 14.4453H45.7212V17.0611Z" fill="#292929"/>
<path d="M41.6978 20.2798C41.6091 20.2798 41.5412 20.2561 41.4939 20.2088C41.4466 20.1556 41.4229 20.0817 41.4229 19.9871V16.9812L41.5559 17.4068L39.286 14.3123C39.2387 14.2472 39.215 14.1852 39.215 14.1261C39.221 14.061 39.2446 14.0108 39.286 13.9753C39.3333 13.9399 39.3894 13.9221 39.4545 13.9221C39.5195 13.9221 39.5756 13.9369 39.6229 13.9665C39.6761 13.9901 39.7234 14.0344 39.7648 14.0995L41.7865 16.866H41.6269L43.6574 14.0995C43.7047 14.0344 43.749 13.9901 43.7904 13.9665C43.8377 13.9369 43.8939 13.9221 43.9589 13.9221C44.0239 13.9221 44.0771 13.9399 44.1185 13.9753C44.1599 14.0108 44.1806 14.061 44.1806 14.1261C44.1865 14.1852 44.1628 14.2502 44.1096 14.3211L41.8485 17.4068L41.9727 16.9812V19.9871C41.9727 20.1822 41.8811 20.2798 41.6978 20.2798Z" fill="#292929"/>
<path d="M33.6437 20.2798C33.5609 20.2798 33.4959 20.2561 33.4486 20.2088C33.4072 20.1615 33.3865 20.0935 33.3865 20.0049V14.2059C33.3865 14.1113 33.4072 14.0403 33.4486 13.9931C33.49 13.9458 33.5461 13.9221 33.6171 13.9221C33.6939 13.9221 33.7501 13.9339 33.7855 13.9576C33.821 13.9812 33.8594 14.0256 33.9008 14.0906L37.9796 19.5793H37.7757V14.1881C37.7757 14.0995 37.7964 14.0344 37.8378 13.9931C37.885 13.9458 37.9501 13.9221 38.0328 13.9221C38.1097 13.9221 38.1688 13.9458 38.2102 13.9931C38.2575 14.0344 38.2811 14.0995 38.2811 14.1881V20.0049C38.2811 20.0935 38.2604 20.1615 38.219 20.2088C38.1836 20.2561 38.1304 20.2798 38.0594 20.2798C37.9944 20.2798 37.9412 20.265 37.8998 20.2354C37.8584 20.2118 37.8141 20.1704 37.7668 20.1113L33.6969 14.6226H33.8919V20.0049C33.8919 20.0935 33.8683 20.1615 33.821 20.2088C33.7796 20.2561 33.7205 20.2798 33.6437 20.2798Z" fill="#292929"/>
<path d="M30.0532 20.2976C29.4561 20.2976 28.9448 20.1705 28.5192 19.9163C28.0936 19.6562 27.7655 19.2867 27.5349 18.8079C27.3103 18.3291 27.198 17.7587 27.198 17.0966C27.198 16.6 27.2601 16.1567 27.3842 15.7665C27.5143 15.3705 27.7005 15.0365 27.9428 14.7646C28.1911 14.4867 28.4926 14.2739 28.8473 14.1262C29.2079 13.9784 29.6098 13.9045 30.0532 13.9045C30.4433 13.9045 30.8069 13.9606 31.1438 14.073C31.4808 14.1853 31.7704 14.3508 32.0128 14.5695C32.0719 14.6227 32.1103 14.6789 32.128 14.738C32.1458 14.7971 32.1458 14.8532 32.128 14.9065C32.1162 14.9537 32.0896 14.9951 32.0482 15.0306C32.0069 15.0601 31.9566 15.0749 31.8975 15.0749C31.8443 15.069 31.7852 15.0395 31.7202 14.9863C31.4955 14.7912 31.2443 14.6464 30.9665 14.5518C30.6945 14.4572 30.3931 14.4099 30.062 14.4099C29.5714 14.4099 29.1546 14.5163 28.8118 14.7291C28.4748 14.936 28.2177 15.2404 28.0404 15.6424C27.8689 16.0444 27.7832 16.5291 27.7832 17.0966C27.7832 17.67 27.8689 18.1577 28.0404 18.5597C28.2177 18.9616 28.4748 19.269 28.8118 19.4818C29.1546 19.6887 29.5714 19.7922 30.062 19.7922C30.3872 19.7922 30.6886 19.7449 30.9665 19.6503C31.2443 19.5498 31.4985 19.402 31.729 19.2069C31.7941 19.1537 31.8532 19.1271 31.9064 19.1271C31.9655 19.1271 32.0128 19.1449 32.0482 19.1803C32.0896 19.2099 32.1192 19.2513 32.1369 19.3045C32.1546 19.3518 32.1546 19.402 32.1369 19.4552C32.1251 19.5084 32.0926 19.5587 32.0394 19.606C31.7852 19.8365 31.4896 20.0109 31.1527 20.1291C30.8216 20.2414 30.4551 20.2976 30.0532 20.2976Z" fill="#292929"/>
<path d="M39.53 40.9163C39.4565 40.9163 39.399 40.8956 39.3576 40.8542C39.3162 40.8128 39.2955 40.7531 39.2955 40.6749V36.2956C39.2955 36.2174 39.3162 36.1576 39.3576 36.1163C39.399 36.0749 39.4565 36.0542 39.53 36.0542H41.1507C41.4864 36.0542 41.7691 36.1048 41.999 36.2059C42.2289 36.3025 42.4059 36.445 42.53 36.6335C42.6542 36.822 42.7162 37.0542 42.7162 37.3301C42.7162 37.6335 42.6243 37.8864 42.4404 38.0887C42.2611 38.291 42.0174 38.4243 41.7093 38.4887V38.3921C42.0542 38.4289 42.3254 38.5531 42.5231 38.7645C42.7254 38.9714 42.8266 39.2473 42.8266 39.5921C42.8266 40.0243 42.6886 40.3531 42.4128 40.5783C42.1369 40.8036 41.7461 40.9163 41.2404 40.9163H39.53ZM39.7093 40.5576H41.2059C41.6059 40.5576 41.9047 40.4795 42.1024 40.3232C42.3001 40.1622 42.399 39.9209 42.399 39.599C42.399 39.268 42.3001 39.0243 42.1024 38.868C41.9047 38.7117 41.6059 38.6335 41.2059 38.6335H39.7093V40.5576ZM39.7093 38.2749H41.1024C41.4887 38.2749 41.7829 38.1967 41.9852 38.0404C42.1875 37.8795 42.2886 37.6473 42.2886 37.3439C42.2886 37.0404 42.1875 36.8105 41.9852 36.6542C41.7829 36.4933 41.4887 36.4128 41.1024 36.4128H39.7093V38.2749Z" fill="#292929"/>
<path d="M36.167 40.9715C35.859 40.9715 35.5854 40.9301 35.3463 40.8474C35.1073 40.7646 34.9073 40.6405 34.7463 40.4749C34.59 40.3094 34.4705 40.1048 34.3877 39.8612C34.3096 39.6175 34.2705 39.337 34.2705 39.0198V36.2267C34.2705 36.1531 34.2889 36.1002 34.3257 36.0681C34.3624 36.0313 34.413 36.0129 34.4774 36.0129C34.5463 36.0129 34.5992 36.0313 34.636 36.0681C34.6728 36.1002 34.6912 36.1531 34.6912 36.2267V38.9853C34.6912 39.5232 34.8153 39.9255 35.0636 40.1922C35.3165 40.4543 35.6843 40.5853 36.167 40.5853C36.6544 40.5853 37.0222 40.4543 37.2705 40.1922C37.5188 39.9255 37.6429 39.5232 37.6429 38.9853V36.2267C37.6429 36.1531 37.6613 36.1002 37.6981 36.0681C37.7348 36.0313 37.7877 36.0129 37.8567 36.0129C37.9211 36.0129 37.9716 36.0313 38.0084 36.0681C38.0452 36.1002 38.0636 36.1531 38.0636 36.2267V39.0198C38.0636 39.4428 37.9923 39.8014 37.8498 40.0956C37.7073 40.3853 37.4935 40.6037 37.2084 40.7508C36.9279 40.8979 36.5808 40.9715 36.167 40.9715Z" fill="#292929"/>
<path d="M29.9523 40.9576C29.888 40.9576 29.8374 40.9393 29.8006 40.9025C29.7638 40.8611 29.7454 40.8059 29.7454 40.737V36.2749C29.7454 36.2013 29.7638 36.1462 29.8006 36.1094C29.842 36.0726 29.8948 36.0542 29.9592 36.0542H31.5799C32.0948 36.0542 32.4902 36.1737 32.7661 36.4128C33.042 36.6519 33.1799 36.9921 33.1799 37.4335C33.1799 37.7186 33.1178 37.9645 32.9937 38.1714C32.8696 38.3737 32.6857 38.5278 32.442 38.6335C32.2029 38.7393 31.9155 38.7921 31.5799 38.7921L31.6558 38.7025H31.7523C31.927 38.7025 32.0788 38.7485 32.2075 38.8404C32.3408 38.9324 32.4604 39.0818 32.5661 39.2887L33.2971 40.6473C33.3293 40.6979 33.3431 40.7485 33.3385 40.799C33.3385 40.845 33.3224 40.8841 33.2902 40.9163C33.2581 40.9439 33.2167 40.9576 33.1661 40.9576C33.1063 40.9576 33.0558 40.9439 33.0144 40.9163C32.9776 40.8887 32.9454 40.8496 32.9178 40.799L32.1454 39.3576C32.0259 39.137 31.8925 38.9921 31.7454 38.9232C31.5983 38.8496 31.4006 38.8128 31.1523 38.8128H30.1661V40.737C30.1661 40.8059 30.1477 40.8611 30.1109 40.9025C30.0788 40.9393 30.0259 40.9576 29.9523 40.9576ZM30.1661 38.4542H31.5247C31.9339 38.4542 32.2397 38.3691 32.442 38.199C32.6489 38.0243 32.7523 37.7691 32.7523 37.4335C32.7523 37.1025 32.6489 36.8519 32.442 36.6818C32.2397 36.5071 31.9339 36.4197 31.5247 36.4197H30.1661V38.4542Z" fill="#292929"/>
<path d="M27.0033 40.9714C26.7274 40.9714 26.4561 40.9301 26.1895 40.8473C25.9228 40.7645 25.6906 40.6404 25.4929 40.4749C25.447 40.4427 25.4171 40.4059 25.4033 40.3645C25.3941 40.3232 25.3941 40.2841 25.4033 40.2473C25.4125 40.2105 25.4309 40.1783 25.4584 40.1507C25.486 40.1232 25.5205 40.1094 25.5619 40.1094C25.6033 40.1048 25.6493 40.1209 25.6998 40.1576C25.9067 40.3048 26.1159 40.4128 26.3274 40.4818C26.5435 40.5507 26.7688 40.5852 27.0033 40.5852C27.2516 40.5852 27.4607 40.5484 27.6309 40.4749C27.801 40.3967 27.9297 40.2841 28.0171 40.137C28.109 39.9898 28.155 39.8082 28.155 39.5921C28.155 39.2795 28.0516 39.0427 27.8447 38.8818C27.6424 38.7163 27.3481 38.6335 26.9619 38.6335H26.4447C26.3803 38.6335 26.3297 38.6174 26.2929 38.5852C26.2561 38.5484 26.2378 38.5025 26.2378 38.4473C26.2378 38.3875 26.2561 38.3416 26.2929 38.3094C26.3297 38.2772 26.3803 38.2611 26.4447 38.2611H26.9274C27.1527 38.2611 27.3458 38.2197 27.5067 38.137C27.6676 38.0542 27.7918 37.9393 27.8791 37.7921C27.9711 37.6404 28.0171 37.4588 28.0171 37.2473C28.0171 36.9714 27.9274 36.7599 27.7481 36.6128C27.5734 36.4611 27.3182 36.3852 26.9826 36.3852C26.7573 36.3852 26.5458 36.422 26.3481 36.4956C26.1504 36.5645 25.9619 36.6772 25.7826 36.8335C25.7412 36.8703 25.6998 36.891 25.6584 36.8956C25.6171 36.8956 25.5803 36.8841 25.5481 36.8611C25.5205 36.8381 25.4998 36.8082 25.486 36.7714C25.4722 36.7301 25.4722 36.6887 25.486 36.6473C25.4998 36.6013 25.5297 36.5599 25.5757 36.5232C25.755 36.353 25.9688 36.2243 26.2171 36.137C26.4699 36.045 26.7297 35.999 26.9964 35.999C27.2998 35.999 27.5596 36.0473 27.7757 36.1439C27.9918 36.2404 28.1573 36.3806 28.2722 36.5645C28.3918 36.7484 28.4515 36.9691 28.4515 37.2266C28.4515 37.4289 28.4125 37.6128 28.3343 37.7783C28.2607 37.9439 28.155 38.0841 28.0171 38.199C27.8791 38.314 27.7136 38.3967 27.5205 38.4473V38.3714C27.8561 38.4312 28.1159 38.5714 28.2998 38.7921C28.4883 39.0082 28.5826 39.2818 28.5826 39.6128C28.5826 39.8887 28.5182 40.1301 28.3895 40.337C28.2653 40.5393 28.086 40.6956 27.8516 40.8059C27.6171 40.9163 27.3343 40.9714 27.0033 40.9714Z" fill="#292929"/>
<path d="M23.7439 40.9577C23.675 40.9577 23.6221 40.9393 23.5853 40.9025C23.5485 40.8658 23.5301 40.8129 23.5301 40.7439V39.8198H21.4267C21.3577 39.8198 21.3025 39.8037 21.2612 39.7715C21.2244 39.7347 21.206 39.6841 21.206 39.6198C21.206 39.583 21.2129 39.5462 21.2267 39.5094C21.2451 39.4681 21.2727 39.4198 21.3094 39.3646L23.5094 36.1508C23.5416 36.1048 23.5761 36.0703 23.6129 36.0474C23.6543 36.0244 23.7002 36.0129 23.7508 36.0129C23.8106 36.0129 23.8589 36.0313 23.8956 36.0681C23.937 36.1002 23.9577 36.1531 23.9577 36.2267V39.4474H24.537C24.606 39.4474 24.6566 39.4635 24.6888 39.4956C24.7255 39.5278 24.7439 39.5738 24.7439 39.6336C24.7439 39.6933 24.7255 39.7393 24.6888 39.7715C24.6566 39.8037 24.606 39.8198 24.537 39.8198H23.9577V40.7439C23.9577 40.8129 23.9393 40.8658 23.9025 40.9025C23.8658 40.9393 23.8129 40.9577 23.7439 40.9577ZM23.5301 39.4474V36.537H23.6819L21.606 39.5646V39.4474H23.5301Z" fill="#292929"/>
<path d="M18.7742 40.9714C18.2271 40.9714 17.811 40.7599 17.5259 40.337C17.2455 39.9094 17.1052 39.2933 17.1052 38.4887C17.1052 37.9416 17.1673 37.4841 17.2914 37.1163C17.4202 36.7484 17.6087 36.4703 17.857 36.2818C18.1052 36.0933 18.411 35.999 18.7742 35.999C19.3259 35.999 19.742 36.2082 20.0225 36.6266C20.3029 37.045 20.4432 37.6634 20.4432 38.4818C20.4432 39.0197 20.3788 39.4749 20.2501 39.8473C20.1259 40.2197 19.9397 40.5002 19.6914 40.6887C19.4432 40.8772 19.1374 40.9714 18.7742 40.9714ZM18.7742 40.5921C19.1926 40.5921 19.5029 40.4197 19.7052 40.0749C19.9075 39.7301 20.0087 39.199 20.0087 38.4818C20.0087 37.7553 19.9075 37.2243 19.7052 36.8887C19.5075 36.5484 19.1972 36.3783 18.7742 36.3783C18.3558 36.3783 18.0455 36.5484 17.8432 36.8887C17.6409 37.2289 17.5397 37.7599 17.5397 38.4818C17.5397 39.199 17.6409 39.7301 17.8432 40.0749C18.0455 40.4197 18.3558 40.5921 18.7742 40.5921Z" fill="#292929"/>
<path d="M15.9966 41.537C15.9552 41.5876 15.9139 41.6152 15.8725 41.6198C15.8311 41.629 15.7943 41.6221 15.7621 41.5991C15.7346 41.5761 15.7185 41.5439 15.7139 41.5026C15.7139 41.4612 15.7346 41.4129 15.7759 41.3577C15.8357 41.275 15.8794 41.1876 15.907 41.0957C15.9346 41.0037 15.9483 40.9186 15.9483 40.8405L15.9759 40.937C15.8748 40.937 15.792 40.9071 15.7277 40.8474C15.6679 40.7876 15.638 40.7117 15.638 40.6198C15.638 40.5278 15.6656 40.452 15.7208 40.3922C15.7759 40.3324 15.8518 40.3026 15.9483 40.3026C16.0449 40.3026 16.1208 40.337 16.1759 40.406C16.2357 40.4704 16.2656 40.5692 16.2656 40.7026C16.2656 40.7853 16.2564 40.875 16.238 40.9715C16.2242 41.0727 16.1966 41.1715 16.1552 41.2681C16.1139 41.3646 16.061 41.4543 15.9966 41.537Z" fill="#292929"/>
<path d="M11.9372 40.9163C11.8544 40.9163 11.7924 40.8979 11.751 40.8611C11.7142 40.8197 11.6958 40.7668 11.6958 40.7025C11.6958 40.6657 11.705 40.6289 11.7234 40.5921C11.7418 40.5553 11.7671 40.5209 11.7993 40.4887L13.4131 38.7439C13.6613 38.4772 13.8407 38.2312 13.951 38.0059C14.0613 37.776 14.1165 37.5416 14.1165 37.3025C14.1165 37.0036 14.0269 36.776 13.8475 36.6197C13.6682 36.4634 13.4062 36.3852 13.0613 36.3852C12.8315 36.3852 12.6177 36.4243 12.42 36.5025C12.2269 36.576 12.0407 36.6864 11.8613 36.8335C11.8154 36.8703 11.7717 36.8887 11.7303 36.8887C11.6935 36.8887 11.6613 36.8772 11.6338 36.8542C11.6062 36.8266 11.5855 36.7944 11.5717 36.7576C11.5625 36.7163 11.5625 36.6749 11.5717 36.6335C11.5855 36.5921 11.6108 36.5553 11.6475 36.5232C11.8269 36.3668 12.0429 36.2404 12.2958 36.1439C12.5487 36.0473 12.8108 35.999 13.082 35.999C13.3947 35.999 13.659 36.0496 13.8751 36.1507C14.0958 36.2473 14.2636 36.3921 14.3786 36.5852C14.4935 36.7783 14.551 37.0105 14.551 37.2818C14.551 37.4749 14.5188 37.6657 14.4544 37.8542C14.3901 38.0427 14.2935 38.2335 14.1648 38.4266C14.0407 38.6197 13.8797 38.822 13.682 39.0335L12.1303 40.6749V40.5439H14.5924C14.6567 40.5439 14.705 40.5599 14.7372 40.5921C14.774 40.6197 14.7924 40.6634 14.7924 40.7232C14.7924 40.7875 14.774 40.8358 14.7372 40.868C14.705 40.9002 14.6567 40.9163 14.5924 40.9163H11.9372Z" fill="#292929"/>
<path d="M7.98818 40.9163C7.92841 40.9163 7.88013 40.9002 7.84335 40.8681C7.80657 40.8313 7.78818 40.783 7.78818 40.7232C7.78818 40.6635 7.80657 40.6198 7.84335 40.5922C7.88013 40.56 7.92841 40.5439 7.98818 40.5439H8.9468V36.3922H9.18818L8.18818 37.0749C8.1422 37.1071 8.09852 37.1232 8.05714 37.1232C8.01576 37.1186 7.98128 37.1025 7.95369 37.0749C7.92611 37.0474 7.90542 37.0152 7.89163 36.9784C7.88243 36.9416 7.88473 36.9025 7.89852 36.8612C7.91232 36.8198 7.9422 36.7853 7.98818 36.7577L8.9399 36.0956C8.98588 36.0681 9.02726 36.0474 9.06404 36.0336C9.10082 36.0198 9.1422 36.0129 9.18818 36.0129C9.23875 36.0129 9.28013 36.029 9.31232 36.0612C9.3491 36.0887 9.36749 36.137 9.36749 36.206V40.5439H10.2571C10.3215 40.5439 10.3698 40.56 10.402 40.5922C10.4388 40.6198 10.4571 40.6635 10.4571 40.7232C10.4571 40.7876 10.4388 40.8359 10.402 40.8681C10.3698 40.9002 10.3215 40.9163 10.2571 40.9163H7.98818Z" fill="#292929"/>
<path d="M26.955 50.8031C26.9274 50.8536 26.8952 50.8858 26.8584 50.8996C26.8217 50.918 26.7849 50.9226 26.7481 50.9134C26.7113 50.9042 26.6791 50.8858 26.6516 50.8582C26.6286 50.8306 26.6148 50.7962 26.6102 50.7548C26.6056 50.7134 26.6171 50.6697 26.6447 50.6237L29.355 45.8858C29.3826 45.8352 29.4148 45.8031 29.4516 45.7893C29.4883 45.7709 29.5251 45.7663 29.5619 45.7755C29.5987 45.7847 29.6286 45.8054 29.6515 45.8375C29.6791 45.8651 29.6952 45.8996 29.6998 45.941C29.7044 45.9824 29.6929 46.026 29.6653 46.072L26.955 50.8031ZM26.5412 48.8237C26.1872 48.8237 25.9067 48.695 25.6998 48.4375C25.4975 48.1755 25.3964 47.8077 25.3964 47.3341C25.3964 47.0214 25.4424 46.7548 25.5343 46.5341C25.6263 46.3134 25.7573 46.1456 25.9274 46.0306C26.1021 45.9111 26.3067 45.8513 26.5412 45.8513C26.8952 45.8513 27.1757 45.9824 27.3826 46.2444C27.5895 46.5019 27.6929 46.8651 27.6929 47.3341C27.6929 47.6513 27.647 47.9203 27.555 48.141C27.463 48.3617 27.332 48.5318 27.1619 48.6513C26.9918 48.7663 26.7849 48.8237 26.5412 48.8237ZM26.5412 48.4996C26.7021 48.4996 26.8401 48.4559 26.955 48.3686C27.0699 48.2766 27.1573 48.1456 27.2171 47.9755C27.2768 47.8008 27.3067 47.587 27.3067 47.3341C27.3067 46.9571 27.2378 46.672 27.0998 46.4789C26.9665 46.2812 26.7803 46.1824 26.5412 46.1824C26.3849 46.1824 26.2493 46.226 26.1343 46.3134C26.0194 46.4008 25.932 46.5295 25.8722 46.6996C25.8125 46.8697 25.7826 47.0812 25.7826 47.3341C25.7826 47.7203 25.8493 48.0123 25.9826 48.21C26.1205 48.4031 26.3067 48.4996 26.5412 48.4996ZM29.7688 50.8237C29.4148 50.8237 29.1343 50.695 28.9274 50.4375C28.7251 50.1801 28.624 49.8123 28.624 49.3341C28.624 49.0214 28.6699 48.7548 28.7619 48.5341C28.8538 48.3134 28.9849 48.1456 29.155 48.0306C29.3297 47.9111 29.5343 47.8513 29.7688 47.8513C30.1274 47.8513 30.4079 47.9824 30.6102 48.2444C30.8171 48.5019 30.9205 48.8651 30.9205 49.3341C30.9205 49.6513 30.8745 49.9226 30.7826 50.1479C30.6906 50.3686 30.5596 50.5364 30.3895 50.6513C30.2194 50.7663 30.0125 50.8237 29.7688 50.8237ZM29.7688 50.4996C29.9297 50.4996 30.0676 50.4559 30.1826 50.3686C30.2975 50.2812 30.3849 50.1502 30.4447 49.9755C30.5044 49.8008 30.5343 49.587 30.5343 49.3341C30.5343 48.9571 30.4653 48.672 30.3274 48.4789C30.1941 48.2812 30.0079 48.1824 29.7688 48.1824C29.6125 48.1824 29.4768 48.226 29.3619 48.3134C29.247 48.4008 29.1596 48.5295 29.0998 48.6996C29.0401 48.8697 29.0102 49.0812 29.0102 49.3341C29.0102 49.7203 29.0768 50.0123 29.2102 50.21C29.3481 50.4031 29.5343 50.4996 29.7688 50.4996Z" fill="#A6A6A6"/>
<path d="M22.5922 50.8237C22.3761 50.8237 22.1531 50.7778 21.9232 50.6858C21.6933 50.5938 21.4956 50.4628 21.3301 50.2927C21.2933 50.2605 21.2703 50.2237 21.2611 50.1824C21.2519 50.141 21.2542 50.1019 21.268 50.0651C21.2818 50.0283 21.3025 49.9984 21.3301 49.9755C21.3577 49.9479 21.3922 49.9364 21.4336 49.941C21.4749 49.941 21.5163 49.9594 21.5577 49.9961C21.714 50.1479 21.8818 50.2605 22.0611 50.3341C22.2404 50.403 22.4198 50.4375 22.5991 50.4375C22.9163 50.4375 23.1853 50.3594 23.406 50.203C23.6267 50.0421 23.7945 49.803 23.9094 49.4858C24.0244 49.164 24.0818 48.764 24.0818 48.2858V47.5892H24.1301C24.1071 47.8605 24.0313 48.0973 23.9025 48.2996C23.7738 48.5019 23.606 48.6582 23.3991 48.7686C23.1968 48.8743 22.9669 48.9272 22.7094 48.9272C22.4198 48.9272 22.1623 48.8628 21.937 48.7341C21.7163 48.6053 21.5416 48.426 21.4129 48.1961C21.2887 47.9617 21.2267 47.6973 21.2267 47.403C21.2267 47.0996 21.291 46.8306 21.4198 46.5961C21.5531 46.3617 21.7324 46.1801 21.9577 46.0513C22.1876 45.918 22.4496 45.8513 22.7439 45.8513C23.1209 45.8513 23.4404 45.9433 23.7025 46.1272C23.9646 46.3111 24.1623 46.5801 24.2956 46.9341C24.4336 47.2835 24.5025 47.7065 24.5025 48.203C24.5025 48.626 24.4588 49.0007 24.3715 49.3272C24.2887 49.6536 24.1646 49.9272 23.9991 50.1479C23.8335 50.3686 23.6313 50.5364 23.3922 50.6513C23.1577 50.7663 22.891 50.8237 22.5922 50.8237ZM22.7784 48.5479C23.0037 48.5479 23.1991 48.4996 23.3646 48.403C23.5347 48.3019 23.668 48.164 23.7646 47.9892C23.8611 47.8145 23.9094 47.6145 23.9094 47.3892C23.9094 47.1594 23.8611 46.9571 23.7646 46.7824C23.668 46.6076 23.5347 46.472 23.3646 46.3755C23.1991 46.2743 23.0037 46.2237 22.7784 46.2237C22.5577 46.2237 22.3623 46.2743 22.1922 46.3755C22.0267 46.472 21.8956 46.6076 21.7991 46.7824C21.7025 46.9571 21.6542 47.1594 21.6542 47.3892C21.6542 47.6145 21.7025 47.8145 21.7991 47.9892C21.8956 48.164 22.0267 48.3019 22.1922 48.403C22.3623 48.4996 22.5577 48.5479 22.7784 48.5479Z" fill="#A6A6A6"/>
<path d="M19.6087 50.8099C19.5397 50.8099 19.4868 50.7915 19.4501 50.7548C19.4133 50.718 19.3949 50.6651 19.3949 50.5961V49.672H17.2914C17.2225 49.672 17.1673 49.6559 17.1259 49.6237C17.0891 49.587 17.0707 49.5364 17.0707 49.472C17.0707 49.4352 17.0776 49.3984 17.0914 49.3617C17.1098 49.3203 17.1374 49.272 17.1742 49.2168L19.3742 46.003C19.4064 45.9571 19.4409 45.9226 19.4776 45.8996C19.519 45.8766 19.565 45.8651 19.6156 45.8651C19.6753 45.8651 19.7236 45.8835 19.7604 45.9203C19.8018 45.9525 19.8225 46.0053 19.8225 46.0789V49.2996H20.4018C20.4707 49.2996 20.5213 49.3157 20.5535 49.3479C20.5903 49.3801 20.6087 49.426 20.6087 49.4858C20.6087 49.5456 20.5903 49.5915 20.5535 49.6237C20.5213 49.6559 20.4707 49.672 20.4018 49.672H19.8225V50.5961C19.8225 50.6651 19.8041 50.718 19.7673 50.7548C19.7305 50.7915 19.6776 50.8099 19.6087 50.8099ZM19.3949 49.2996V46.3893H19.5466L17.4707 49.4168V49.2996H19.3949Z" fill="#A6A6A6"/>
<path d="M15.9966 51.3893C15.9552 51.4399 15.9139 51.4675 15.8725 51.4721C15.8311 51.4813 15.7943 51.4744 15.7621 51.4514C15.7346 51.4284 15.7185 51.3962 15.7139 51.3548C15.7139 51.3135 15.7346 51.2652 15.7759 51.21C15.8357 51.1273 15.8794 51.0399 15.907 50.9479C15.9346 50.856 15.9483 50.7709 15.9483 50.6928L15.9759 50.7893C15.8748 50.7893 15.792 50.7594 15.7277 50.6997C15.6679 50.6399 15.638 50.564 15.638 50.4721C15.638 50.3801 15.6656 50.3043 15.7208 50.2445C15.7759 50.1847 15.8518 50.1548 15.9483 50.1548C16.0449 50.1548 16.1208 50.1893 16.1759 50.2583C16.2357 50.3227 16.2656 50.4215 16.2656 50.5548C16.2656 50.6376 16.2564 50.7273 16.238 50.8238C16.2242 50.925 16.1966 51.0238 16.1552 51.1204C16.1139 51.2169 16.061 51.3066 15.9966 51.3893Z" fill="#A6A6A6"/>
<path d="M13.1303 50.8237C12.5832 50.8237 12.1671 50.6122 11.8821 50.1892C11.6016 49.7617 11.4614 49.1456 11.4614 48.341C11.4614 47.7938 11.5234 47.3364 11.6476 46.9686C11.7763 46.6007 11.9648 46.3226 12.2131 46.1341C12.4614 45.9456 12.7671 45.8513 13.1303 45.8513C13.6821 45.8513 14.0981 46.0605 14.3786 46.4789C14.6591 46.8973 14.7993 47.5157 14.7993 48.3341C14.7993 48.872 14.7349 49.3272 14.6062 49.6996C14.4821 50.072 14.2958 50.3525 14.0476 50.541C13.7993 50.7295 13.4935 50.8237 13.1303 50.8237ZM13.1303 50.4444C13.5487 50.4444 13.8591 50.272 14.0614 49.9272C14.2637 49.5824 14.3648 49.0513 14.3648 48.3341C14.3648 47.6076 14.2637 47.0766 14.0614 46.741C13.8637 46.4007 13.5533 46.2306 13.1303 46.2306C12.7119 46.2306 12.4016 46.4007 12.1993 46.741C11.997 47.0812 11.8958 47.6122 11.8958 48.3341C11.8958 49.0513 11.997 49.5824 12.1993 49.9272C12.4016 50.272 12.7119 50.4444 13.1303 50.4444Z" fill="#A6A6A6"/>
<path d="M8.9951 50.5341C8.93533 50.5341 8.88936 50.518 8.85717 50.4858C8.82959 50.4536 8.81579 50.41 8.81579 50.3548V48.9617H7.45028C7.3951 48.9617 7.35143 48.9479 7.31924 48.9203C7.28706 48.8881 7.27097 48.8444 7.27097 48.7893C7.27097 48.7341 7.28706 48.6927 7.31924 48.6651C7.35143 48.6329 7.3951 48.6169 7.45028 48.6169H8.81579V47.2651C8.81579 47.21 8.82959 47.1663 8.85717 47.1341C8.88936 47.1019 8.93533 47.0858 8.9951 47.0858C9.05487 47.0858 9.09855 47.1019 9.12614 47.1341C9.15832 47.1663 9.17441 47.21 9.17441 47.2651V48.6169H10.5399C10.5997 48.6169 10.6434 48.6329 10.671 48.6651C10.7031 48.6927 10.7192 48.7341 10.7192 48.7893C10.7192 48.849 10.7031 48.8927 10.671 48.9203C10.6434 48.9479 10.5997 48.9617 10.5399 48.9617H9.17441V50.3548C9.17441 50.41 9.15832 50.4536 9.12614 50.4858C9.09855 50.518 9.05487 50.5341 8.9951 50.5341Z" fill="#A6A6A6"/>
<path fill-rule="evenodd" clip-rule="evenodd" d="M70.9655 29.5862H6.9261V29.0936H70.9655V29.5862Z" fill="#292929"/>
</g>
<g filter="url(#filter1_d_105_2949)">
<path d="M53 70.4631C53 69.1027 54.1027 68 55.4631 68H124.429C125.789 68 126.892 69.1027 126.892 70.4631V165.537C126.892 166.897 125.789 168 124.429 168H55.4631C54.1027 168 53 166.897 53 165.537V70.4631Z" fill="white"/>
<rect x="57.9261" y="151.251" width="22.0499" height="7.47586" rx="3" fill="#292929"/>
<path d="M74.7914 156.289C74.7353 156.289 74.6924 156.276 74.6627 156.249C74.6362 156.22 74.623 156.178 74.623 156.125V154.011C74.623 153.959 74.6362 153.919 74.6627 153.893C74.6891 153.866 74.727 153.853 74.7765 153.853C74.8227 153.853 74.8591 153.866 74.8855 153.893C74.9119 153.919 74.9251 153.959 74.9251 154.011V154.774H75.6925C75.9929 154.774 76.2206 154.84 76.3758 154.972C76.5342 155.104 76.6134 155.289 76.6134 155.526C76.6134 155.685 76.5771 155.822 76.5045 155.937C76.4352 156.053 76.3328 156.14 76.1975 156.2C76.0622 156.259 75.8938 156.289 75.6925 156.289H74.7914ZM74.9251 156.056H75.6826C75.8806 156.056 76.0341 156.013 76.1431 155.927C76.2553 155.842 76.3114 155.71 76.3114 155.531C76.3114 155.35 76.2553 155.216 76.1431 155.13C76.0341 155.044 75.8806 155.002 75.6826 155.002H74.9251V156.056Z" fill="white"/>
<path d="M73.1394 156.319C73.0932 156.319 73.0568 156.305 73.0304 156.279C73.004 156.253 72.9908 156.215 72.9908 156.165V154.14H72.2085C72.1095 154.14 72.06 154.097 72.06 154.011C72.06 153.975 72.0732 153.945 72.0996 153.922C72.126 153.899 72.1623 153.888 72.2085 153.888H74.0751C74.1709 153.888 74.2187 153.929 74.2187 154.011C74.2187 154.051 74.2055 154.082 74.1791 154.105C74.156 154.129 74.1213 154.14 74.0751 154.14H73.2929V156.165C73.2929 156.215 73.2796 156.253 73.2532 156.279C73.2301 156.305 73.1922 156.319 73.1394 156.319Z" fill="white"/>
<path d="M69.7815 156.319C69.7551 156.319 69.7303 156.314 69.7072 156.304C69.6874 156.294 69.6709 156.277 69.6577 156.254C69.6478 156.228 69.6429 156.195 69.6429 156.155V154.006C69.6429 153.957 69.6544 153.919 69.6775 153.893C69.7039 153.866 69.7402 153.853 69.7865 153.853C69.8294 153.853 69.8624 153.866 69.8855 153.893C69.9086 153.919 69.9201 153.957 69.9201 154.006V156.022H69.8013L71.3411 153.952C71.3642 153.922 71.389 153.899 71.4154 153.883C71.4418 153.863 71.4764 153.853 71.5194 153.853C71.5491 153.853 71.5738 153.86 71.5936 153.873C71.6134 153.883 71.6283 153.899 71.6382 153.922C71.6514 153.945 71.658 153.977 71.658 154.016V156.17C71.658 156.216 71.6448 156.253 71.6184 156.279C71.5953 156.305 71.5623 156.319 71.5194 156.319C71.4731 156.319 71.4385 156.305 71.4154 156.279C71.3923 156.253 71.3807 156.216 71.3807 156.17V154.155H71.4996L69.9548 156.225C69.935 156.251 69.9119 156.272 69.8855 156.289C69.8591 156.309 69.8244 156.319 69.7815 156.319Z" fill="white"/>
<path d="M66.9533 156.319C66.9038 156.319 66.8658 156.305 66.8394 156.279C66.813 156.253 66.7998 156.215 66.7998 156.165V154.061C66.7998 154.005 66.8147 153.962 66.8444 153.932C66.8741 153.902 66.917 153.888 66.9731 153.888H68.6367C68.6928 153.888 68.7357 153.902 68.7654 153.932C68.7951 153.962 68.81 154.005 68.81 154.061V156.165C68.81 156.215 68.7968 156.253 68.7704 156.279C68.744 156.305 68.706 156.319 68.6565 156.319C68.6103 156.319 68.574 156.305 68.5476 156.279C68.5212 156.253 68.508 156.215 68.508 156.165V154.135H67.1018V156.165C67.1018 156.215 67.0886 156.253 67.0622 156.279C67.0391 156.305 67.0028 156.319 66.9533 156.319Z" fill="white"/>
<path d="M64.7471 157.21C64.7075 157.21 64.6761 157.198 64.653 157.175C64.6299 157.155 64.6167 157.127 64.6134 157.091C64.6134 157.058 64.62 157.023 64.6332 156.987L64.9749 156.21V156.348L64.0044 154.081C63.9879 154.041 63.9813 154.005 63.9846 153.972C63.9912 153.935 64.0061 153.907 64.0292 153.888C64.0556 153.864 64.0919 153.853 64.1381 153.853C64.181 153.853 64.2124 153.863 64.2322 153.883C64.2553 153.902 64.2751 153.934 64.2916 153.977L65.1729 156.111H65.0491L65.9304 153.977C65.9502 153.93 65.9717 153.899 65.9948 153.883C66.0179 153.863 66.0509 153.853 66.0938 153.853C66.1367 153.853 66.1681 153.864 66.1879 153.888C66.211 153.907 66.2242 153.934 66.2275 153.967C66.2308 154 66.2242 154.036 66.2077 154.076L64.9154 157.091C64.8956 157.137 64.8725 157.169 64.8461 157.185C64.823 157.202 64.79 157.21 64.7471 157.21Z" fill="white"/>
<path d="M61.4373 156.319C61.3911 156.319 61.3548 156.305 61.3284 156.279C61.3019 156.249 61.2887 156.21 61.2887 156.16V152.922C61.2887 152.873 61.3019 152.835 61.3284 152.808C61.3548 152.782 61.3911 152.769 61.4373 152.769C61.4868 152.769 61.5247 152.782 61.5512 152.808C61.5776 152.835 61.5908 152.873 61.5908 152.922V154.388H62.3235L62.2097 154.462L63.294 152.848C63.3171 152.815 63.3435 152.793 63.3732 152.783C63.4029 152.77 63.4326 152.767 63.4623 152.774C63.492 152.78 63.5168 152.795 63.5366 152.818C63.5564 152.838 63.5679 152.863 63.5712 152.892C63.5778 152.922 63.5696 152.955 63.5465 152.991L62.5166 154.506L62.4127 154.398C62.6041 154.417 62.7691 154.487 62.9078 154.605C63.0497 154.721 63.1718 154.883 63.2742 155.091L63.7792 156.111C63.799 156.147 63.8039 156.182 63.794 156.215C63.7874 156.244 63.7709 156.267 63.7445 156.284C63.7214 156.3 63.6934 156.31 63.6603 156.314C63.6306 156.317 63.6009 156.31 63.5712 156.294C63.5415 156.281 63.5184 156.256 63.5019 156.22L63.0365 155.259C62.9309 155.041 62.812 154.886 62.68 154.794C62.5513 154.701 62.3929 154.655 62.2047 154.655H61.5908V156.16C61.5908 156.21 61.5776 156.249 61.5512 156.279C61.528 156.305 61.4901 156.319 61.4373 156.319Z" fill="white"/>
<path fill-rule="evenodd" clip-rule="evenodd" d="M115.518 116.006L112.017 133.28L107.645 128.856L101.971 129.847L100.12 127.058L98.5968 129.242L96.2737 131.575L94.4396 119.404C94.4221 119.433 94.4035 119.466 94.3841 119.502C94.2244 119.803 94.0443 120.275 93.8525 120.874C93.4705 122.069 93.0583 123.716 92.6777 125.376C92.2974 127.035 91.9502 128.7 91.6979 129.927C91.6548 130.136 91.6145 130.333 91.5773 130.514C91.5054 130.865 91.4449 131.16 91.3982 131.383C91.3628 131.552 91.3346 131.682 91.3152 131.765C91.3061 131.803 91.2967 131.841 91.288 131.867C91.2867 131.871 91.2847 131.877 91.282 131.884C91.2801 131.889 91.2779 131.894 91.2752 131.9C91.2723 131.906 91.266 131.92 91.2562 131.935C91.2519 131.941 91.2234 131.987 91.1655 132.018C91.1327 132.033 91.0521 132.048 91.0058 132.044C90.9609 132.032 90.8898 131.99 90.8637 131.965C90.8209 131.916 90.8095 131.865 90.8072 131.854L90.807 131.854C90.8004 131.824 90.8006 131.798 90.8006 131.793C90.8006 131.737 90.7721 131.599 90.7043 131.38C90.6401 131.173 90.5502 130.921 90.4488 130.656C90.3335 130.353 90.2048 130.037 90.0854 129.752L89.2972 131.928L86.7426 134.493L86.6372 134.069C86.3916 133.083 85.8049 130.826 85.4157 129.654C85.2354 129.111 85.0096 129.017 84.8744 129.009C84.707 129 84.513 129.104 84.372 129.238L80.16 136.203L77.0616 136.768V133.271C77.0616 133.008 76.9866 132.602 76.8846 132.184C76.815 131.899 76.7355 131.619 76.6667 131.394L73.9973 132.612L72.6281 129.634L71.4067 131.882L70.3005 136.601L68.8165 134.3C68.7841 134.602 68.7539 134.99 68.7242 135.389C68.7191 135.457 68.714 135.526 68.7089 135.595C68.6754 136.049 68.6421 136.499 68.6068 136.822C68.5871 137.002 68.5648 137.164 68.5365 137.264C68.5293 137.289 68.5185 137.322 68.5019 137.355C68.4935 137.371 68.4798 137.394 68.4586 137.418C68.4383 137.441 68.3992 137.478 68.3378 137.496C68.1777 137.545 68.0757 137.432 68.0506 137.398C68.0209 137.358 68.005 137.315 67.9966 137.289C67.9182 137.053 67.7299 136.821 67.5029 136.62C67.4188 136.546 67.3326 136.479 67.25 136.42V138.683L67.5317 144.096L67.0544 144.193L65.7615 140.664L65.7886 140.583C65.7985 140.553 65.8097 140.49 65.8154 140.387C65.821 140.288 65.821 140.166 65.8161 140.026C65.8065 139.745 65.7782 139.405 65.7433 139.053C65.7193 138.81 65.6918 138.559 65.6656 138.319C65.652 138.195 65.6387 138.074 65.6264 137.958C65.5588 138.122 65.4868 138.308 65.4143 138.505C65.2636 138.914 65.114 139.366 65.0026 139.763C64.8917 140.159 64.8266 140.474 64.8228 140.645L65.2959 144.156L63.8486 146.772L61.8944 144.249L60.7334 142.384H59.556L58.1499 145.443L57.7023 145.237L59.2403 141.892H61.007L62.2993 143.968L63.7799 145.879L64.786 144.06L64.33 140.677V140.66C64.33 140.417 64.4153 140.033 64.5282 139.63C64.6439 139.218 64.7978 138.754 64.952 138.335C65.1055 137.917 65.2624 137.536 65.385 137.291C65.4159 137.229 65.4461 137.173 65.4748 137.125C65.5013 137.082 65.5346 137.032 65.5736 136.993C65.5917 136.975 65.6272 136.942 65.6789 136.921C65.7397 136.896 65.8382 136.884 65.93 136.947C66.0042 136.998 66.0297 137.071 66.0387 137.102C66.0495 137.138 66.0528 137.174 66.054 137.201C66.0639 137.431 66.1051 137.807 66.1522 138.237C66.1789 138.481 66.2076 138.742 66.2335 139.004C66.2687 139.359 66.2982 139.712 66.3084 140.009C66.3136 140.157 66.314 140.295 66.3073 140.415C66.3028 140.495 66.2947 140.575 66.2799 140.647L66.9548 142.489L66.7574 138.696V135.581L67.1142 135.76C67.2953 135.851 67.5709 136.023 67.8293 136.252C67.9344 136.345 68.0406 136.45 68.1374 136.568C68.1644 136.28 68.1906 135.925 68.2176 135.559C68.2227 135.491 68.2278 135.422 68.2329 135.352C68.2718 134.831 68.3129 134.307 68.3604 133.97C68.3724 133.885 68.3853 133.808 68.3996 133.744C68.4121 133.687 68.4308 133.615 68.4628 133.557C68.4754 133.535 68.516 133.464 68.6021 133.428C68.6532 133.406 68.7127 133.4 68.7719 133.415C68.8268 133.43 68.8656 133.459 68.8894 133.482C68.9329 133.523 68.9559 133.572 68.9673 133.598C68.9757 133.618 68.9832 133.639 68.9899 133.66L70.0857 135.359L70.9422 131.705L72.6648 128.534L74.2397 131.96L76.9646 130.716L77.051 130.977C77.1346 131.228 77.2592 131.641 77.3632 132.067C77.4657 132.487 77.5542 132.943 77.5542 133.271V136.177L79.8533 135.758L83.982 128.931L84.0029 128.91C84.1878 128.724 84.5228 128.495 84.9034 128.518C85.3243 128.543 85.671 128.86 85.8832 129.499C86.2299 130.543 86.7261 132.417 87.0087 133.528L88.8712 131.658L90.0427 128.424L90.2908 128.984C90.4556 129.356 90.7027 129.939 90.909 130.48C90.9477 130.581 90.985 130.681 91.0202 130.779C91.0433 130.666 91.0681 130.545 91.0944 130.417C91.1317 130.235 91.1721 130.038 91.2153 129.828C91.4679 128.6 91.816 126.931 92.1975 125.266C92.5787 123.604 92.9947 121.939 93.3833 120.724C93.5769 120.119 93.7677 119.612 93.9491 119.271C94.0381 119.104 94.1358 118.954 94.2453 118.856C94.3012 118.805 94.3729 118.756 94.4607 118.734C94.5557 118.71 94.6541 118.721 94.7427 118.769L94.8509 118.827L96.6151 130.534L98.2174 128.925L100.129 126.183L102.203 129.306L107.815 128.326L111.717 132.276L115.32 114.503L115.805 114.517L117.697 127.915L120.282 124.021L120.693 124.294L117.39 129.267L115.518 116.006ZM65.5616 137.22C65.5616 137.22 65.5617 137.22 65.5617 137.221L65.5616 137.22ZM68.5151 133.794C68.515 133.794 68.5148 133.793 68.5147 133.793C68.5142 133.792 68.514 133.791 68.514 133.791C68.514 133.792 68.5144 133.792 68.5151 133.794Z" fill="#00CF6C"/>
<path d="M109.228 86.2266C109.133 86.2266 109.06 86.2 109.006 86.1468C108.953 86.0936 108.927 86.0167 108.927 85.9162V80.2857C108.927 80.1852 108.953 80.1083 109.006 80.0551C109.06 80.0019 109.133 79.9753 109.228 79.9753H110.939C111.933 79.9753 112.698 80.2414 113.236 80.7734C113.78 81.3054 114.052 82.0798 114.052 83.0965C114.052 83.6049 113.981 84.0542 113.839 84.4443C113.703 84.8345 113.502 85.1625 113.236 85.4285C112.97 85.6886 112.645 85.8867 112.261 86.0226C111.876 86.1586 111.436 86.2266 110.939 86.2266H109.228ZM109.467 85.7478H110.895C111.327 85.7478 111.702 85.6916 112.021 85.5793C112.346 85.467 112.615 85.3015 112.828 85.0827C113.041 84.864 113.2 84.5891 113.307 84.2581C113.413 83.9212 113.466 83.534 113.466 83.0965C113.466 82.2157 113.251 81.5566 112.819 81.1192C112.394 80.6758 111.752 80.4542 110.895 80.4542H109.467V85.7478Z" fill="#292929"/>
<path d="M102.306 86.2798C102.229 86.2798 102.167 86.262 102.12 86.2266C102.078 86.197 102.055 86.1527 102.049 86.0935C102.049 86.0344 102.063 85.9694 102.093 85.8985L104.585 80.1704C104.626 80.0817 104.676 80.0197 104.735 79.9842C104.794 79.9428 104.854 79.9221 104.913 79.9221C104.984 79.9221 105.046 79.9428 105.099 79.9842C105.158 80.0197 105.205 80.0817 105.241 80.1704L107.732 85.8985C107.768 85.9694 107.783 86.0344 107.777 86.0935C107.777 86.1527 107.756 86.197 107.715 86.2266C107.679 86.262 107.623 86.2798 107.546 86.2798C107.463 86.2798 107.395 86.2591 107.342 86.2177C107.295 86.1704 107.254 86.1083 107.218 86.0315L106.535 84.4266L106.828 84.5596H102.989L103.29 84.4266L102.607 86.0315C102.572 86.1201 102.527 86.1852 102.474 86.2266C102.427 86.262 102.371 86.2798 102.306 86.2798ZM104.904 80.6492L103.396 84.196L103.192 84.0896H106.624L106.438 84.196L104.922 80.6492H104.904Z" fill="#292929"/>
<path d="M99.3587 86.2975C98.7616 86.2975 98.2503 86.1704 97.8247 85.9162C97.3991 85.6561 97.071 85.2867 96.8404 84.8079C96.6158 84.3291 96.5035 83.7586 96.5035 83.0965C96.5035 82.6 96.5656 82.1566 96.6897 81.7665C96.8197 81.3704 97.006 81.0364 97.2483 80.7645C97.4966 80.4867 97.7981 80.2739 98.1528 80.1261C98.5133 79.9783 98.9153 79.9044 99.3587 79.9044C99.7488 79.9044 100.112 79.9606 100.449 80.0729C100.786 80.1852 101.076 80.3507 101.318 80.5694C101.377 80.6226 101.416 80.6788 101.434 80.7379C101.451 80.797 101.451 80.8532 101.434 80.9064C101.422 80.9537 101.395 80.9951 101.354 81.0305C101.312 81.0601 101.262 81.0749 101.203 81.0749C101.15 81.069 101.091 81.0394 101.026 80.9862C100.801 80.7911 100.55 80.6463 100.272 80.5517C100 80.4571 99.6986 80.4098 99.3675 80.4098C98.8769 80.4098 98.4601 80.5162 98.1173 80.7291C97.7803 80.9359 97.5232 81.2404 97.3459 81.6424C97.1744 82.0443 97.0887 82.5291 97.0887 83.0965C97.0887 83.6699 97.1744 84.1576 97.3459 84.5596C97.5232 84.9616 97.7803 85.269 98.1173 85.4818C98.4601 85.6887 98.8769 85.7921 99.3675 85.7921C99.6927 85.7921 99.9941 85.7448 100.272 85.6502C100.55 85.5497 100.804 85.402 101.035 85.2069C101.1 85.1537 101.159 85.1271 101.212 85.1271C101.271 85.1271 101.318 85.1448 101.354 85.1803C101.395 85.2098 101.425 85.2512 101.442 85.3044C101.46 85.3517 101.46 85.402 101.442 85.4552C101.431 85.5084 101.398 85.5586 101.345 85.6059C101.091 85.8364 100.795 86.0108 100.458 86.1291C100.127 86.2414 99.7606 86.2975 99.3587 86.2975Z" fill="#292929"/>
<path d="M90.5503 86.2266C90.4557 86.2266 90.3818 86.2 90.3286 86.1468C90.2754 86.0936 90.2488 86.0167 90.2488 85.9162V80.2857C90.2488 80.1852 90.2754 80.1083 90.3286 80.0551C90.3818 80.0019 90.4557 79.9753 90.5503 79.9753H92.2616C93.2547 79.9753 94.0202 80.2414 94.5581 80.7734C95.102 81.3054 95.3739 82.0798 95.3739 83.0965C95.3739 83.6049 95.303 84.0542 95.1611 84.4443C95.0251 84.8345 94.8241 85.1625 94.5581 85.4285C94.2921 85.6886 93.967 85.8867 93.5828 86.0226C93.1985 86.1586 92.7581 86.2266 92.2616 86.2266H90.5503ZM90.7897 85.7478H92.2173C92.6488 85.7478 93.0241 85.6916 93.3434 85.5793C93.6685 85.467 93.9374 85.3015 94.1503 85.0827C94.3631 84.864 94.5227 84.5891 94.6291 84.2581C94.7355 83.9212 94.7887 83.534 94.7887 83.0965C94.7887 82.2157 94.5729 81.5566 94.1414 81.1192C93.7158 80.6758 93.0744 80.4542 92.2173 80.4542H90.7897V85.7478Z" fill="#292929"/>
<path d="M86.8135 86.2975C86.5297 86.2975 86.2549 86.2739 85.9889 86.2266C85.7228 86.1793 85.4746 86.1084 85.244 86.0138C85.0194 85.9133 84.8155 85.7921 84.6322 85.6502C84.5731 85.6089 84.5317 85.5616 84.5081 85.5084C84.4903 85.4492 84.4874 85.396 84.4992 85.3488C84.5169 85.2956 84.5435 85.2512 84.579 85.2158C84.6204 85.1803 84.6677 85.1625 84.7209 85.1625C84.7741 85.1566 84.8302 85.1744 84.8894 85.2158C85.1613 85.4167 85.448 85.5645 85.7495 85.6591C86.0568 85.7537 86.4115 85.801 86.8135 85.801C87.3751 85.801 87.7948 85.6916 88.0726 85.4729C88.3563 85.2542 88.4982 84.9675 88.4982 84.6128C88.4982 84.3172 88.3948 84.0867 88.1879 83.9212C87.9869 83.7557 87.6529 83.6256 87.1859 83.531L86.2903 83.3448C85.7288 83.2325 85.312 83.0433 85.0401 82.7773C84.7682 82.5113 84.6322 82.1566 84.6322 81.7133C84.6322 81.4414 84.6854 81.196 84.7918 80.9773C84.8982 80.7527 85.049 80.5606 85.244 80.401C85.4391 80.2414 85.6696 80.1202 85.9357 80.0374C86.2076 79.9488 86.5061 79.9044 86.8312 79.9044C87.2155 79.9044 87.5672 79.9576 87.8864 80.064C88.2115 80.1704 88.5071 80.3389 88.7731 80.5694C88.8263 80.6108 88.8618 80.6611 88.8795 80.7202C88.8972 80.7734 88.8972 80.8266 88.8795 80.8798C88.8618 80.9271 88.8352 80.9655 88.7997 80.9951C88.7642 81.0246 88.7199 81.0424 88.6667 81.0483C88.6135 81.0483 88.5573 81.0246 88.4982 80.9773C88.2499 80.7763 87.9898 80.6315 87.7179 80.5428C87.4519 80.4483 87.1563 80.401 86.8312 80.401C86.5002 80.401 86.2105 80.4542 85.9623 80.5606C85.7199 80.667 85.5307 80.8177 85.3948 81.0128C85.2588 81.2079 85.1908 81.4384 85.1908 81.7044C85.1908 82.0118 85.2854 82.2571 85.4746 82.4404C85.6637 82.6236 85.9682 82.7566 86.3879 82.8394L87.2923 83.0256C87.8894 83.1497 88.3327 83.3359 88.6224 83.5842C88.912 83.8266 89.0568 84.1606 89.0568 84.5862C89.0568 84.8404 89.0036 85.0739 88.8972 85.2867C88.7967 85.4936 88.649 85.6739 88.4539 85.8276C88.2588 85.9813 88.0224 86.0995 87.7445 86.1823C87.4726 86.2591 87.1623 86.2975 86.8135 86.2975Z" fill="#292929"/>
<path d="M80.8404 86.2975C80.4443 86.2975 80.0926 86.2443 79.7852 86.1379C79.4778 86.0315 79.2207 85.8719 79.0138 85.6591C78.8128 85.4463 78.6591 85.1832 78.5527 84.8699C78.4522 84.5566 78.402 84.196 78.402 83.7881V80.197C78.402 80.1024 78.4256 80.0344 78.4729 79.9931C78.5202 79.9458 78.5852 79.9221 78.668 79.9221C78.7567 79.9221 78.8246 79.9458 78.8719 79.9931C78.9192 80.0344 78.9429 80.1024 78.9429 80.197V83.7438C78.9429 84.4354 79.1025 84.9527 79.4217 85.2955C79.7468 85.6325 80.2197 85.8009 80.8404 85.8009C81.467 85.8009 81.9399 85.6325 82.2591 85.2955C82.5783 84.9527 82.7379 84.4354 82.7379 83.7438V80.197C82.7379 80.1024 82.7616 80.0344 82.8089 79.9931C82.8562 79.9458 82.9241 79.9221 83.0128 79.9221C83.0956 79.9221 83.1606 79.9458 83.2079 79.9931C83.2552 80.0344 83.2788 80.1024 83.2788 80.197V83.7881C83.2788 84.332 83.1872 84.7931 83.0039 85.1714C82.8207 85.5438 82.5458 85.8246 82.1793 86.0137C81.8187 86.2029 81.3724 86.2975 80.8404 86.2975Z" fill="#292929"/>
<path d="M90.4492 106.916C90.3756 106.916 90.3181 106.896 90.2768 106.854C90.2354 106.813 90.2147 106.753 90.2147 106.675V102.296C90.2147 102.217 90.2354 102.158 90.2768 102.116C90.3181 102.075 90.3756 102.054 90.4492 102.054H91.7802C92.5526 102.054 93.148 102.261 93.5664 102.675C93.9894 103.089 94.2009 103.691 94.2009 104.482C94.2009 104.877 94.1457 105.227 94.0354 105.53C93.9296 105.834 93.7733 106.089 93.5664 106.296C93.3595 106.498 93.1066 106.652 92.8078 106.758C92.5089 106.863 92.1664 106.916 91.7802 106.916H90.4492ZM90.6354 106.544H91.7457C92.0814 106.544 92.3733 106.5 92.6216 106.413C92.8745 106.325 93.0837 106.197 93.2492 106.027C93.4147 105.856 93.5388 105.643 93.6216 105.385C93.7043 105.123 93.7457 104.822 93.7457 104.482C93.7457 103.797 93.5779 103.284 93.2423 102.944C92.9112 102.599 92.4124 102.427 91.7457 102.427H90.6354V106.544Z" fill="#292929"/>
<path d="M85.0652 106.958C85.0054 106.958 84.9571 106.944 84.9203 106.916C84.8882 106.893 84.8698 106.859 84.8652 106.813C84.8652 106.767 84.8767 106.716 84.8997 106.661L86.8376 102.206C86.8698 102.137 86.9089 102.089 86.9548 102.061C87.0008 102.029 87.0468 102.013 87.0928 102.013C87.1479 102.013 87.1962 102.029 87.2376 102.061C87.2836 102.089 87.3203 102.137 87.3479 102.206L89.2859 106.661C89.3134 106.716 89.3249 106.767 89.3203 106.813C89.3203 106.859 89.3043 106.893 89.2721 106.916C89.2445 106.944 89.2008 106.958 89.141 106.958C89.0767 106.958 89.0238 106.942 88.9824 106.909C88.9456 106.873 88.9134 106.824 88.8859 106.765L88.3548 105.516L88.5824 105.62H85.5962L85.8307 105.516L85.2997 106.765C85.2721 106.834 85.2376 106.884 85.1962 106.916C85.1594 106.944 85.1157 106.958 85.0652 106.958ZM87.0859 102.578L85.9134 105.337L85.7548 105.254H88.4238L88.279 105.337L87.0997 102.578H87.0859Z" fill="#292929"/>
<path d="M82.773 106.971C82.3086 106.971 81.9109 106.873 81.5799 106.675C81.2489 106.473 80.9937 106.185 80.8144 105.813C80.6397 105.44 80.5523 104.997 80.5523 104.482C80.5523 104.096 80.6006 103.751 80.6971 103.447C80.7983 103.139 80.9431 102.879 81.1316 102.668C81.3247 102.452 81.5592 102.286 81.8351 102.171C82.1155 102.056 82.4282 101.999 82.773 101.999C83.0764 101.999 83.3592 102.043 83.6213 102.13C83.8833 102.217 84.1086 102.346 84.2971 102.516C84.3431 102.558 84.373 102.601 84.3868 102.647C84.4006 102.693 84.4006 102.737 84.3868 102.778C84.3776 102.815 84.3569 102.847 84.3247 102.875C84.2925 102.898 84.2535 102.909 84.2075 102.909C84.1661 102.905 84.1201 102.882 84.0695 102.84C83.8948 102.689 83.6994 102.576 83.4833 102.502C83.2718 102.429 83.0374 102.392 82.7799 102.392C82.3983 102.392 82.0741 102.475 81.8075 102.64C81.5454 102.801 81.3454 103.038 81.2075 103.351C81.0741 103.663 81.0075 104.04 81.0075 104.482C81.0075 104.928 81.0741 105.307 81.2075 105.62C81.3454 105.932 81.5454 106.171 81.8075 106.337C82.0741 106.498 82.3983 106.578 82.7799 106.578C83.0328 106.578 83.2672 106.542 83.4833 106.468C83.6994 106.39 83.8971 106.275 84.0764 106.123C84.127 106.082 84.173 106.061 84.2144 106.061C84.2604 106.061 84.2971 106.075 84.3247 106.102C84.3569 106.125 84.3799 106.158 84.3937 106.199C84.4075 106.236 84.4075 106.275 84.3937 106.316C84.3845 106.358 84.3592 106.397 84.3178 106.434C84.1201 106.613 83.8902 106.748 83.6282 106.84C83.3707 106.928 83.0856 106.971 82.773 106.971Z" fill="#292929"/>
<path d="M78.8791 106.958C78.8102 106.958 78.7573 106.939 78.7205 106.903C78.6837 106.866 78.6653 106.813 78.6653 106.744V105.82H76.5619C76.4929 105.82 76.4378 105.804 76.3964 105.771C76.3596 105.735 76.3412 105.684 76.3412 105.62C76.3412 105.583 76.3481 105.546 76.3619 105.509C76.3803 105.468 76.4079 105.42 76.4446 105.365L78.6446 102.151C78.6768 102.105 78.7113 102.07 78.7481 102.047C78.7895 102.024 78.8355 102.013 78.886 102.013C78.9458 102.013 78.9941 102.031 79.0309 102.068C79.0722 102.1 79.0929 102.153 79.0929 102.227V105.447H79.6722C79.7412 105.447 79.7918 105.463 79.824 105.496C79.8607 105.528 79.8791 105.574 79.8791 105.634C79.8791 105.693 79.8607 105.739 79.824 105.771C79.7918 105.804 79.7412 105.82 79.6722 105.82H79.0929V106.744C79.0929 106.813 79.0745 106.866 79.0378 106.903C79.001 106.939 78.9481 106.958 78.8791 106.958ZM78.6653 105.447V102.537H78.8171L76.7412 105.565V105.447H78.6653Z" fill="#292929"/>
<path d="M73.8681 106.971C73.5922 106.971 73.3209 106.93 73.0543 106.847C72.7876 106.765 72.5554 106.64 72.3577 106.475C72.3117 106.443 72.2819 106.406 72.2681 106.365C72.2589 106.323 72.2589 106.284 72.2681 106.247C72.2773 106.211 72.2957 106.178 72.3232 106.151C72.3508 106.123 72.3853 106.109 72.4267 106.109C72.4681 106.105 72.514 106.121 72.5646 106.158C72.7715 106.305 72.9807 106.413 73.1922 106.482C73.4083 106.551 73.6336 106.585 73.8681 106.585C74.1163 106.585 74.3255 106.548 74.4957 106.475C74.6658 106.397 74.7945 106.284 74.8819 106.137C74.9738 105.99 75.0198 105.808 75.0198 105.592C75.0198 105.279 74.9163 105.043 74.7094 104.882C74.5071 104.716 74.2129 104.634 73.8267 104.634H73.3094C73.2451 104.634 73.1945 104.617 73.1577 104.585C73.1209 104.548 73.1025 104.502 73.1025 104.447C73.1025 104.388 73.1209 104.342 73.1577 104.309C73.1945 104.277 73.2451 104.261 73.3094 104.261H73.7922C74.0175 104.261 74.2106 104.22 74.3715 104.137C74.5324 104.054 74.6566 103.939 74.7439 103.792C74.8359 103.64 74.8819 103.459 74.8819 103.247C74.8819 102.971 74.7922 102.76 74.6129 102.613C74.4382 102.461 74.183 102.385 73.8474 102.385C73.6221 102.385 73.4106 102.422 73.2129 102.496C73.0152 102.565 72.8267 102.677 72.6474 102.834C72.606 102.87 72.5646 102.891 72.5232 102.896C72.4819 102.896 72.4451 102.884 72.4129 102.861C72.3853 102.838 72.3646 102.808 72.3508 102.771C72.337 102.73 72.337 102.689 72.3508 102.647C72.3646 102.601 72.3945 102.56 72.4405 102.523C72.6198 102.353 72.8336 102.224 73.0819 102.137C73.3347 102.045 73.5945 101.999 73.8612 101.999C74.1646 101.999 74.4244 102.047 74.6405 102.144C74.8566 102.24 75.0221 102.381 75.137 102.565C75.2566 102.748 75.3163 102.969 75.3163 103.227C75.3163 103.429 75.2773 103.613 75.1991 103.778C75.1255 103.944 75.0198 104.084 74.8819 104.199C74.7439 104.314 74.5784 104.397 74.3853 104.447V104.371C74.7209 104.431 74.9807 104.571 75.1646 104.792C75.3531 105.008 75.4474 105.282 75.4474 105.613C75.4474 105.889 75.383 106.13 75.2543 106.337C75.1301 106.539 74.9508 106.696 74.7163 106.806C74.4819 106.916 74.1991 106.971 73.8681 106.971Z" fill="#292929"/>
<path d="M69.9397 106.971C69.5627 106.971 69.2432 106.879 68.9811 106.696C68.719 106.512 68.519 106.245 68.3811 105.896C68.2478 105.542 68.1811 105.116 68.1811 104.62C68.1811 104.197 68.2225 103.822 68.3052 103.496C68.3926 103.169 68.519 102.896 68.6845 102.675C68.8501 102.454 69.0501 102.286 69.2845 102.171C69.5236 102.056 69.7926 101.999 70.0914 101.999C70.3075 101.999 70.5305 102.045 70.7604 102.137C70.9903 102.224 71.188 102.353 71.3535 102.523C71.3903 102.555 71.4133 102.592 71.4225 102.634C71.4317 102.675 71.4294 102.714 71.4156 102.751C71.4018 102.788 71.3811 102.82 71.3535 102.847C71.3259 102.87 71.2914 102.882 71.2501 102.882C71.2087 102.877 71.1673 102.856 71.1259 102.82C70.9696 102.668 70.8018 102.558 70.6225 102.489C70.4432 102.42 70.2638 102.385 70.0845 102.385C69.7673 102.385 69.4983 102.466 69.2776 102.627C69.057 102.783 68.8891 103.022 68.7742 103.344C68.6593 103.661 68.6018 104.059 68.6018 104.537V105.234H68.5535C68.5765 104.958 68.6524 104.721 68.7811 104.523C68.9098 104.321 69.0776 104.167 69.2845 104.061C69.4914 103.951 69.7213 103.896 69.9742 103.896C70.2639 103.896 70.519 103.96 70.7397 104.089C70.965 104.217 71.1397 104.397 71.2639 104.627C71.3926 104.856 71.457 105.121 71.457 105.42C71.457 105.719 71.3926 105.988 71.2639 106.227C71.1351 106.461 70.9558 106.645 70.7259 106.778C70.496 106.907 70.234 106.971 69.9397 106.971ZM69.9052 106.592C70.1259 106.592 70.3213 106.544 70.4914 106.447C70.6616 106.351 70.7926 106.215 70.8845 106.04C70.9811 105.866 71.0294 105.663 71.0294 105.434C71.0294 105.204 70.9811 105.004 70.8845 104.834C70.7926 104.659 70.6616 104.523 70.4914 104.427C70.3213 104.325 70.1259 104.275 69.9052 104.275C69.6845 104.275 69.4891 104.325 69.319 104.427C69.1489 104.523 69.0156 104.659 68.919 104.834C68.8271 105.004 68.7811 105.204 68.7811 105.434C68.7811 105.663 68.8271 105.866 68.919 106.04C69.0156 106.215 69.1489 106.351 69.319 106.447C69.4891 106.544 69.6845 106.592 69.9052 106.592Z" fill="#292929"/>
<path d="M65.5976 106.971C65.3217 106.971 65.0504 106.93 64.7838 106.847C64.5171 106.765 64.2849 106.64 64.0872 106.475C64.0412 106.443 64.0114 106.406 63.9976 106.365C63.9884 106.323 63.9884 106.284 63.9976 106.247C64.0068 106.211 64.0251 106.178 64.0527 106.151C64.0803 106.123 64.1148 106.109 64.1562 106.109C64.1976 106.105 64.2435 106.121 64.2941 106.158C64.501 106.305 64.7102 106.413 64.9217 106.482C65.1378 106.551 65.3631 106.585 65.5976 106.585C65.8458 106.585 66.055 106.548 66.2251 106.475C66.3953 106.397 66.524 106.284 66.6114 106.137C66.7033 105.99 66.7493 105.808 66.7493 105.592C66.7493 105.279 66.6458 105.043 66.4389 104.882C66.2366 104.716 65.9424 104.634 65.5562 104.634H65.0389C64.9746 104.634 64.924 104.617 64.8872 104.585C64.8504 104.548 64.832 104.502 64.832 104.447C64.832 104.388 64.8504 104.342 64.8872 104.309C64.924 104.277 64.9746 104.261 65.0389 104.261H65.5217C65.747 104.261 65.9401 104.22 66.101 104.137C66.2619 104.054 66.3861 103.939 66.4734 103.792C66.5654 103.64 66.6114 103.459 66.6114 103.247C66.6114 102.971 66.5217 102.76 66.3424 102.613C66.1677 102.461 65.9125 102.385 65.5769 102.385C65.3516 102.385 65.1401 102.422 64.9424 102.496C64.7447 102.565 64.5562 102.677 64.3769 102.834C64.3355 102.87 64.2941 102.891 64.2527 102.896C64.2114 102.896 64.1746 102.884 64.1424 102.861C64.1148 102.838 64.0941 102.808 64.0803 102.771C64.0665 102.73 64.0665 102.689 64.0803 102.647C64.0941 102.601 64.124 102.56 64.17 102.523C64.3493 102.353 64.5631 102.224 64.8114 102.137C65.0642 102.045 65.324 101.999 65.5907 101.999C65.8941 101.999 66.1539 102.047 66.37 102.144C66.5861 102.24 66.7516 102.381 66.8665 102.565C66.9861 102.748 67.0458 102.969 67.0458 103.227C67.0458 103.429 67.0068 103.613 66.9286 103.778C66.855 103.944 66.7493 104.084 66.6114 104.199C66.4734 104.314 66.3079 104.397 66.1148 104.447V104.371C66.4504 104.431 66.7102 104.571 66.8941 104.792C67.0826 105.008 67.1769 105.282 67.1769 105.613C67.1769 105.889 67.1125 106.13 66.9838 106.337C66.8596 106.539 66.6803 106.696 66.4458 106.806C66.2114 106.916 65.9286 106.971 65.5976 106.971Z" fill="#292929"/>
<path d="M62.8614 107.537C62.82 107.588 62.7786 107.615 62.7372 107.62C62.6958 107.629 62.6591 107.622 62.6269 107.599C62.5993 107.576 62.5832 107.544 62.5786 107.503C62.5786 107.461 62.5993 107.413 62.6407 107.358C62.7004 107.275 62.7441 107.188 62.7717 107.096C62.7993 107.004 62.8131 106.919 62.8131 106.84L62.8407 106.937C62.7395 106.937 62.6568 106.907 62.5924 106.847C62.5326 106.788 62.5027 106.712 62.5027 106.62C62.5027 106.528 62.5303 106.452 62.5855 106.392C62.6407 106.332 62.7165 106.303 62.8131 106.303C62.9096 106.303 62.9855 106.337 63.0407 106.406C63.1004 106.47 63.1303 106.569 63.1303 106.703C63.1303 106.785 63.1211 106.875 63.1027 106.972C63.089 107.073 63.0614 107.172 63.02 107.268C62.9786 107.365 62.9257 107.454 62.8614 107.537Z" fill="#292929"/>
<path d="M58.9882 106.916C58.9284 106.916 58.8801 106.9 58.8433 106.868C58.8066 106.831 58.7882 106.783 58.7882 106.723C58.7882 106.663 58.8066 106.62 58.8433 106.592C58.8801 106.56 58.9284 106.544 58.9882 106.544H59.9468V102.392H60.1882L59.1882 103.075C59.1422 103.107 59.0985 103.123 59.0571 103.123C59.0158 103.119 58.9813 103.103 58.9537 103.075C58.9261 103.047 58.9054 103.015 58.8916 102.978C58.8824 102.942 58.8847 102.903 58.8985 102.861C58.9123 102.82 58.9422 102.785 58.9882 102.758L59.9399 102.096C59.9859 102.068 60.0273 102.047 60.064 102.034C60.1008 102.02 60.1422 102.013 60.1882 102.013C60.2388 102.013 60.2801 102.029 60.3123 102.061C60.3491 102.089 60.3675 102.137 60.3675 102.206V106.544H61.2571C61.3215 106.544 61.3698 106.56 61.402 106.592C61.4388 106.62 61.4571 106.663 61.4571 106.723C61.4571 106.788 61.4388 106.836 61.402 106.868C61.3698 106.9 61.3215 106.916 61.2571 106.916H58.9882Z" fill="#292929"/>
<path d="M77.955 116.803C77.9274 116.854 77.8952 116.886 77.8584 116.9C77.8217 116.918 77.7849 116.923 77.7481 116.913C77.7113 116.904 77.6791 116.886 77.6516 116.858C77.6286 116.831 77.6148 116.796 77.6102 116.755C77.6056 116.713 77.6171 116.67 77.6447 116.624L80.355 111.886C80.3826 111.835 80.4148 111.803 80.4516 111.789C80.4883 111.771 80.5251 111.766 80.5619 111.775C80.5987 111.785 80.6286 111.805 80.6515 111.838C80.6791 111.865 80.6952 111.9 80.6998 111.941C80.7044 111.982 80.6929 112.026 80.6653 112.072L77.955 116.803ZM77.5412 114.824C77.1872 114.824 76.9067 114.695 76.6998 114.438C76.4975 114.175 76.3964 113.808 76.3964 113.334C76.3964 113.021 76.4424 112.755 76.5343 112.534C76.6263 112.313 76.7573 112.146 76.9274 112.031C77.1021 111.911 77.3067 111.851 77.5412 111.851C77.8952 111.851 78.1757 111.982 78.3826 112.244C78.5895 112.502 78.6929 112.865 78.6929 113.334C78.6929 113.651 78.647 113.92 78.555 114.141C78.463 114.362 78.332 114.532 78.1619 114.651C77.9918 114.766 77.7849 114.824 77.5412 114.824ZM77.5412 114.5C77.7021 114.5 77.8401 114.456 77.955 114.369C78.0699 114.277 78.1573 114.146 78.2171 113.975C78.2768 113.801 78.3067 113.587 78.3067 113.334C78.3067 112.957 78.2378 112.672 78.0998 112.479C77.9665 112.281 77.7803 112.182 77.5412 112.182C77.3849 112.182 77.2493 112.226 77.1343 112.313C77.0194 112.401 76.932 112.529 76.8722 112.7C76.8125 112.87 76.7826 113.081 76.7826 113.334C76.7826 113.72 76.8493 114.012 76.9826 114.21C77.1205 114.403 77.3067 114.5 77.5412 114.5ZM80.7688 116.824C80.4148 116.824 80.1343 116.695 79.9274 116.438C79.7251 116.18 79.624 115.812 79.624 115.334C79.624 115.021 79.6699 114.755 79.7619 114.534C79.8538 114.313 79.9849 114.146 80.155 114.031C80.3297 113.911 80.5343 113.851 80.7688 113.851C81.1274 113.851 81.4079 113.982 81.6102 114.244C81.8171 114.502 81.9205 114.865 81.9205 115.334C81.9205 115.651 81.8745 115.923 81.7826 116.148C81.6906 116.369 81.5596 116.536 81.3895 116.651C81.2194 116.766 81.0125 116.824 80.7688 116.824ZM80.7688 116.5C80.9297 116.5 81.0676 116.456 81.1826 116.369C81.2975 116.281 81.3849 116.15 81.4447 115.975C81.5044 115.801 81.5343 115.587 81.5343 115.334C81.5343 114.957 81.4653 114.672 81.3274 114.479C81.1941 114.281 81.0079 114.182 80.7688 114.182C80.6125 114.182 80.4768 114.226 80.3619 114.313C80.247 114.401 80.1596 114.529 80.0998 114.7C80.0401 114.87 80.0102 115.081 80.0102 115.334C80.0102 115.72 80.0768 116.012 80.2102 116.21C80.3481 116.403 80.5343 116.5 80.7688 116.5Z" fill="#A6A6A6"/>
<path d="M72.9025 116.769C72.8428 116.769 72.7945 116.752 72.7577 116.72C72.7209 116.684 72.7025 116.635 72.7025 116.575C72.7025 116.516 72.7209 116.472 72.7577 116.444C72.7945 116.412 72.8428 116.396 72.9025 116.396H73.8612V112.244H74.1025L73.1025 112.927C73.0566 112.959 73.0129 112.975 72.9715 112.975C72.9301 112.971 72.8956 112.955 72.868 112.927C72.8405 112.9 72.8198 112.867 72.806 112.831C72.7968 112.794 72.7991 112.755 72.8129 112.713C72.8267 112.672 72.8566 112.638 72.9025 112.61L73.8543 111.948C73.9002 111.92 73.9416 111.9 73.9784 111.886C74.0152 111.872 74.0566 111.865 74.1025 111.865C74.1531 111.865 74.1945 111.881 74.2267 111.913C74.2635 111.941 74.2818 111.989 74.2818 112.058V116.396H75.1715C75.2359 116.396 75.2841 116.412 75.3163 116.444C75.3531 116.472 75.3715 116.516 75.3715 116.575C75.3715 116.64 75.3531 116.688 75.3163 116.72C75.2841 116.752 75.2359 116.769 75.1715 116.769H72.9025Z" fill="#A6A6A6"/>
<path d="M68.7673 116.769C68.7075 116.769 68.6592 116.752 68.6224 116.72C68.5857 116.684 68.5673 116.635 68.5673 116.575C68.5673 116.516 68.5857 116.472 68.6224 116.444C68.6592 116.412 68.7075 116.396 68.7673 116.396H69.7259V112.244H69.9673L68.9673 112.927C68.9213 112.959 68.8776 112.975 68.8362 112.975C68.7949 112.971 68.7604 112.955 68.7328 112.927C68.7052 112.9 68.6845 112.867 68.6707 112.831C68.6615 112.794 68.6638 112.755 68.6776 112.713C68.6914 112.672 68.7213 112.638 68.7673 112.61L69.719 111.948C69.765 111.92 69.8064 111.9 69.8431 111.886C69.8799 111.872 69.9213 111.865 69.9673 111.865C70.0179 111.865 70.0592 111.881 70.0914 111.913C70.1282 111.941 70.1466 111.989 70.1466 112.058V116.396H71.0362C71.1006 116.396 71.1489 116.412 71.1811 116.444C71.2179 116.472 71.2362 116.516 71.2362 116.575C71.2362 116.64 71.2179 116.688 71.1811 116.72C71.1489 116.752 71.1006 116.769 71.0362 116.769H68.7673Z" fill="#A6A6A6"/>
<path d="M66.9966 117.389C66.9552 117.44 66.9139 117.467 66.8725 117.472C66.8311 117.481 66.7943 117.474 66.7621 117.451C66.7346 117.428 66.7185 117.396 66.7139 117.355C66.7139 117.313 66.7346 117.265 66.7759 117.21C66.8357 117.127 66.8794 117.04 66.907 116.948C66.9346 116.856 66.9483 116.771 66.9483 116.693L66.9759 116.789C66.8748 116.789 66.792 116.759 66.7277 116.7C66.6679 116.64 66.638 116.564 66.638 116.472C66.638 116.38 66.6656 116.304 66.7208 116.245C66.7759 116.185 66.8518 116.155 66.9483 116.155C67.0449 116.155 67.1208 116.189 67.1759 116.258C67.2357 116.323 67.2656 116.422 67.2656 116.555C67.2656 116.638 67.2564 116.727 67.238 116.824C67.2242 116.925 67.1966 117.024 67.1552 117.12C67.1139 117.217 67.061 117.307 66.9966 117.389Z" fill="#A6A6A6"/>
<path d="M64.1303 116.824C63.5832 116.824 63.1671 116.612 62.8821 116.189C62.6016 115.762 62.4614 115.146 62.4614 114.341C62.4614 113.794 62.5234 113.336 62.6476 112.969C62.7763 112.601 62.9648 112.323 63.2131 112.134C63.4614 111.946 63.7671 111.851 64.1303 111.851C64.6821 111.851 65.0981 112.061 65.3786 112.479C65.6591 112.897 65.7993 113.516 65.7993 114.334C65.7993 114.872 65.7349 115.327 65.6062 115.7C65.4821 116.072 65.2958 116.352 65.0476 116.541C64.7993 116.729 64.4935 116.824 64.1303 116.824ZM64.1303 116.444C64.5487 116.444 64.8591 116.272 65.0614 115.927C65.2637 115.582 65.3648 115.051 65.3648 114.334C65.3648 113.608 65.2637 113.077 65.0614 112.741C64.8637 112.401 64.5533 112.231 64.1303 112.231C63.7119 112.231 63.4016 112.401 63.1993 112.741C62.997 113.081 62.8958 113.612 62.8958 114.334C62.8958 115.051 62.997 115.582 63.1993 115.927C63.4016 116.272 63.7119 116.444 64.1303 116.444Z" fill="#A6A6A6"/>
<path d="M59.9951 116.534C59.9353 116.534 59.8894 116.518 59.8572 116.486C59.8296 116.454 59.8158 116.41 59.8158 116.355V114.962H58.4503C58.3951 114.962 58.3514 114.948 58.3192 114.92C58.2871 114.888 58.271 114.844 58.271 114.789C58.271 114.734 58.2871 114.693 58.3192 114.665C58.3514 114.633 58.3951 114.617 58.4503 114.617H59.8158V113.265C59.8158 113.21 59.8296 113.166 59.8572 113.134C59.8894 113.102 59.9353 113.086 59.9951 113.086C60.0549 113.086 60.0986 113.102 60.1261 113.134C60.1583 113.166 60.1744 113.21 60.1744 113.265V114.617H61.5399C61.5997 114.617 61.6434 114.633 61.671 114.665C61.7031 114.693 61.7192 114.734 61.7192 114.789C61.7192 114.849 61.7031 114.893 61.671 114.92C61.6434 114.948 61.5997 114.962 61.5399 114.962H60.1744V116.355C60.1744 116.41 60.1583 116.454 60.1261 116.486C60.0986 116.518 60.0549 116.534 59.9951 116.534Z" fill="#A6A6A6"/>
<path fill-rule="evenodd" clip-rule="evenodd" d="M121.966 95.5862H57.9261V95.0936H121.966V95.5862Z" fill="#292929"/>
<path d="M72.7044 81.1901C72.7044 84.1218 70.324 86.4984 67.3875 86.4984C64.4511 86.4984 62.0707 84.1218 62.0707 81.1901C62.0707 78.2584 64.4511 75.8818 67.3875 75.8818C70.324 75.8818 72.7044 78.2584 72.7044 81.1901Z" fill="white"/>
<g clip-path="url(#clip2_105_2949)">
<path d="M65.1449 77.064V85.5556H69.8701V77.064H65.1449Z" fill="#F8F9FD"/>
<path d="M63.2549 77.064V85.5556H65.1449V77.064H63.2549ZM69.8701 77.064V85.5556H71.7601V77.064H69.8701Z" fill="#EF5350"/>
<path d="M68.4525 81.7815L69.3976 81.3098L68.925 81.0739V80.6021L67.98 81.0739L68.4525 80.3662H67.98L67.5075 79.4227L67.035 80.3662H66.5625L67.035 81.0739L66.0899 80.6021V81.0739L65.6174 81.3098L66.5625 81.7815L66.3262 82.2533H67.2712V82.725H67.7438V82.2533H68.6888L68.4525 81.7815Z" fill="#EF5350"/>
</g>
<path d="M68.5598 85.3518C68.5598 88.2834 66.1794 90.66 63.243 90.66C60.3066 90.66 57.9261 88.2834 57.9261 85.3518C57.9261 82.4201 60.3066 80.0435 63.243 80.0435C66.1794 80.0435 68.5598 82.4201 68.5598 85.3518Z" fill="white"/>
<g clip-path="url(#clip3_105_2949)">
<path d="M59.1171 81.2326H67.6147V89.7165H59.1171V81.2326Z" fill="#F8F9FD"/>
<path d="M64.3101 83.1179H67.6147V81.2326H64.3101V83.1179ZM59.1171 89.7165H67.6147V87.8312H59.1171V89.7165ZM64.3101 86.4172H67.6147V84.5319H64.3101V86.4172Z" fill="#EF5350"/>
<path d="M59.1171 81.2326H64.3101V86.4172H59.1171V81.2326Z" fill="#1E88E9"/>
<path d="M60.2595 81.8077C60.2631 81.8007 60.2685 81.7949 60.2752 81.7909C60.2819 81.7868 60.2895 81.7847 60.2973 81.7847C60.3051 81.7847 60.3128 81.7868 60.3194 81.7909C60.3261 81.7949 60.3315 81.8007 60.3351 81.8077L60.4625 82.1423C60.4673 82.1612 60.4862 82.1706 60.5003 82.1706L60.8591 82.1894C60.8969 82.1894 60.911 82.2366 60.8827 82.2648L60.5995 82.4864C60.5933 82.4923 60.5891 82.5001 60.5874 82.5085C60.5857 82.5169 60.5866 82.5256 60.59 82.5335L60.6844 82.8729C60.6873 82.8815 60.6873 82.8908 60.6845 82.8994C60.6817 82.908 60.6762 82.9155 60.6688 82.9208C60.6614 82.9261 60.6525 82.9288 60.6434 82.9287C60.6344 82.9285 60.6256 82.9255 60.6183 82.92L60.3209 82.7267C60.3139 82.7221 60.3057 82.7196 60.2973 82.7196C60.2889 82.7196 60.2807 82.7221 60.2737 82.7267L59.9763 82.92C59.9691 82.9255 59.9603 82.9285 59.9512 82.9287C59.9421 82.9288 59.9332 82.9261 59.9258 82.9208C59.9184 82.9155 59.9129 82.908 59.9101 82.8994C59.9073 82.8908 59.9073 82.8815 59.9102 82.8729L60.0046 82.5288C60.0075 82.5204 60.0076 82.5114 60.0051 82.503C60.0025 82.4945 59.9974 82.4871 59.9905 82.4817L59.7119 82.2648C59.7053 82.2595 59.7004 82.2523 59.6979 82.2441C59.6954 82.236 59.6954 82.2272 59.6979 82.2191C59.7005 82.2109 59.7054 82.2038 59.7122 82.1985C59.7189 82.1932 59.727 82.19 59.7355 82.1894L60.0943 82.1706C60.1085 82.1706 60.1274 82.1612 60.1321 82.1423L60.2595 81.8124V81.8077ZM60.2595 83.2216C60.2631 83.2147 60.2685 83.2089 60.2752 83.2049C60.2819 83.2008 60.2895 83.1987 60.2973 83.1987C60.3051 83.1987 60.3128 83.2008 60.3194 83.2049C60.3261 83.2089 60.3315 83.2147 60.3351 83.2216L60.4625 83.5563C60.4673 83.5751 60.4862 83.5846 60.5003 83.5846L60.8591 83.6034C60.8969 83.6034 60.911 83.6506 60.8827 83.6788L60.5995 83.9004C60.5933 83.9063 60.5891 83.914 60.5874 83.9225C60.5857 83.9309 60.5866 83.9396 60.59 83.9475L60.6844 84.2868C60.6873 84.2955 60.6873 84.3048 60.6845 84.3134C60.6817 84.322 60.6762 84.3295 60.6688 84.3348C60.6614 84.3401 60.6525 84.3428 60.6434 84.3427C60.6344 84.3425 60.6256 84.3395 60.6183 84.334L60.3209 84.1407C60.3139 84.1361 60.3057 84.1336 60.2973 84.1336C60.2889 84.1336 60.2807 84.1361 60.2737 84.1407L59.9763 84.334C59.9691 84.3395 59.9603 84.3425 59.9512 84.3427C59.9421 84.3428 59.9332 84.3401 59.9258 84.3348C59.9184 84.3295 59.9129 84.322 59.9101 84.3134C59.9073 84.3048 59.9073 84.2955 59.9102 84.2868L60.0046 83.9428C60.0075 83.9344 60.0076 83.9254 60.0051 83.9169C60.0025 83.9085 59.9974 83.9011 59.9905 83.8956L59.7119 83.6788C59.7053 83.6735 59.7004 83.6663 59.6979 83.6581C59.6954 83.6499 59.6954 83.6412 59.6979 83.6331C59.7005 83.6249 59.7054 83.6177 59.7122 83.6125C59.7189 83.6072 59.727 83.604 59.7355 83.6034L60.0943 83.5846C60.1085 83.5846 60.1274 83.5751 60.1321 83.5563L60.2595 83.2264V83.2216ZM60.2595 84.6356C60.2631 84.6287 60.2685 84.6229 60.2752 84.6188C60.2819 84.6148 60.2895 84.6126 60.2973 84.6126C60.3051 84.6126 60.3128 84.6148 60.3194 84.6188C60.3261 84.6229 60.3315 84.6287 60.3351 84.6356L60.4625 84.9703C60.4673 84.9891 60.4862 84.9986 60.5003 84.9986L60.8591 85.0174C60.8969 85.0174 60.911 85.0645 60.8827 85.0928L60.5995 85.3143C60.5933 85.3203 60.5891 85.328 60.5874 85.3364C60.5857 85.3449 60.5866 85.3536 60.59 85.3615L60.6844 85.7008C60.6873 85.7094 60.6873 85.7187 60.6845 85.7274C60.6817 85.736 60.6762 85.7435 60.6688 85.7488C60.6614 85.754 60.6525 85.7568 60.6434 85.7567C60.6344 85.7565 60.6256 85.7535 60.6183 85.748L60.3209 85.5547C60.3139 85.5501 60.3057 85.5476 60.2973 85.5476C60.2889 85.5476 60.2807 85.5501 60.2737 85.5547L59.9763 85.748C59.9691 85.7535 59.9603 85.7565 59.9512 85.7567C59.9421 85.7568 59.9332 85.754 59.9258 85.7488C59.9184 85.7435 59.9129 85.736 59.9101 85.7274C59.9073 85.7187 59.9073 85.7094 59.9102 85.7008L60.0046 85.3568C60.0075 85.3484 60.0076 85.3394 60.0051 85.3309C60.0025 85.3225 59.9974 85.315 59.9905 85.3096L59.7119 85.0928C59.7053 85.0875 59.7004 85.0803 59.6979 85.0721C59.6954 85.0639 59.6954 85.0552 59.6979 85.0471C59.7005 85.0389 59.7054 85.0317 59.7122 85.0264C59.7189 85.0212 59.727 85.018 59.7355 85.0174L60.0943 84.9986C60.1085 84.9986 60.1274 84.9891 60.1321 84.9703L60.2595 84.6403V84.6356ZM61.6758 81.8077C61.6794 81.8007 61.6848 81.7949 61.6915 81.7909C61.6981 81.7868 61.7058 81.7847 61.7136 81.7847C61.7214 81.7847 61.729 81.7868 61.7357 81.7909C61.7424 81.7949 61.7478 81.8007 61.7514 81.8077L61.8788 82.1423C61.8835 82.1612 61.9024 82.1706 61.9166 82.1706L62.2754 82.1894C62.3131 82.1894 62.3273 82.2366 62.299 82.2648L62.0157 82.4864C62.0096 82.4923 62.0054 82.5001 62.0037 82.5085C62.002 82.5169 62.0029 82.5256 62.0063 82.5335L62.1007 82.8729C62.1036 82.8815 62.1036 82.8908 62.1008 82.8994C62.098 82.908 62.0925 82.9155 62.0851 82.9208C62.0777 82.9261 62.0688 82.9288 62.0597 82.9287C62.0506 82.9285 62.0418 82.9255 62.0346 82.92L61.7372 82.7267C61.7302 82.7221 61.722 82.7196 61.7136 82.7196C61.7052 82.7196 61.697 82.7221 61.69 82.7267L61.3926 82.92C61.3853 82.9255 61.3765 82.9285 61.3675 82.9287C61.3584 82.9288 61.3495 82.9261 61.3421 82.9208C61.3347 82.9155 61.3292 82.908 61.3264 82.8994C61.3236 82.8908 61.3236 82.8815 61.3265 82.8729L61.4209 82.5288C61.4237 82.5204 61.4239 82.5114 61.4214 82.503C61.4188 82.4945 61.4137 82.4871 61.4067 82.4817L61.1282 82.2648C61.1215 82.2595 61.1166 82.2523 61.1141 82.2441C61.1116 82.236 61.1117 82.2272 61.1142 82.2191C61.1168 82.2109 61.1217 82.2038 61.1284 82.1985C61.1351 82.1932 61.1433 82.19 61.1518 82.1894L61.5106 82.1706C61.5247 82.1706 61.5436 82.1612 61.5484 82.1423L61.6758 81.8124V81.8077ZM61.6758 83.2216C61.6794 83.2147 61.6848 83.2089 61.6915 83.2049C61.6981 83.2008 61.7058 83.1987 61.7136 83.1987C61.7214 83.1987 61.729 83.2008 61.7357 83.2049C61.7424 83.2089 61.7478 83.2147 61.7514 83.2216L61.8788 83.5563C61.8835 83.5751 61.9024 83.5846 61.9166 83.5846L62.2754 83.6034C62.3131 83.6034 62.3273 83.6506 62.299 83.6788L62.0157 83.9004C62.0096 83.9063 62.0054 83.914 62.0037 83.9225C62.002 83.9309 62.0029 83.9396 62.0063 83.9475L62.1007 84.2868C62.1036 84.2955 62.1036 84.3048 62.1008 84.3134C62.098 84.322 62.0925 84.3295 62.0851 84.3348C62.0777 84.3401 62.0688 84.3428 62.0597 84.3427C62.0506 84.3425 62.0418 84.3395 62.0346 84.334L61.7372 84.1407C61.7302 84.1361 61.722 84.1336 61.7136 84.1336C61.7052 84.1336 61.697 84.1361 61.69 84.1407L61.3926 84.334C61.3853 84.3395 61.3765 84.3425 61.3675 84.3427C61.3584 84.3428 61.3495 84.3401 61.3421 84.3348C61.3347 84.3295 61.3292 84.322 61.3264 84.3134C61.3236 84.3048 61.3236 84.2955 61.3265 84.2868L61.4209 83.9428C61.4237 83.9344 61.4239 83.9254 61.4214 83.9169C61.4188 83.9085 61.4137 83.9011 61.4067 83.8956L61.1282 83.6788C61.1215 83.6735 61.1166 83.6663 61.1141 83.6581C61.1116 83.6499 61.1117 83.6412 61.1142 83.6331C61.1168 83.6249 61.1217 83.6177 61.1284 83.6125C61.1351 83.6072 61.1433 83.604 61.1518 83.6034L61.5106 83.5846C61.5247 83.5846 61.5436 83.5751 61.5484 83.5563L61.6758 83.2264V83.2216ZM61.6758 84.6356C61.6794 84.6287 61.6848 84.6229 61.6915 84.6188C61.6981 84.6148 61.7058 84.6126 61.7136 84.6126C61.7214 84.6126 61.729 84.6148 61.7357 84.6188C61.7424 84.6229 61.7478 84.6287 61.7514 84.6356L61.8788 84.9703C61.8835 84.9891 61.9024 84.9986 61.9166 84.9986L62.2754 85.0174C62.3131 85.0174 62.3273 85.0645 62.299 85.0928L62.0157 85.3143C62.0096 85.3203 62.0054 85.328 62.0037 85.3364C62.002 85.3449 62.0029 85.3536 62.0063 85.3615L62.1007 85.7008C62.1036 85.7094 62.1036 85.7187 62.1008 85.7274C62.098 85.736 62.0925 85.7435 62.0851 85.7488C62.0777 85.754 62.0688 85.7568 62.0597 85.7567C62.0506 85.7565 62.0418 85.7535 62.0346 85.748L61.7372 85.5547C61.7302 85.5501 61.722 85.5476 61.7136 85.5476C61.7052 85.5476 61.697 85.5501 61.69 85.5547L61.3926 85.748C61.3853 85.7535 61.3765 85.7565 61.3675 85.7567C61.3584 85.7568 61.3495 85.754 61.3421 85.7488C61.3347 85.7435 61.3292 85.736 61.3264 85.7274C61.3236 85.7187 61.3236 85.7094 61.3265 85.7008L61.4209 85.3568C61.4237 85.3484 61.4239 85.3394 61.4214 85.3309C61.4188 85.3225 61.4137 85.315 61.4067 85.3096L61.1282 85.0928C61.1215 85.0875 61.1166 85.0803 61.1141 85.0721C61.1116 85.0639 61.1117 85.0552 61.1142 85.0471C61.1168 85.0389 61.1217 85.0317 61.1284 85.0264C61.1351 85.0212 61.1433 85.018 61.1518 85.0174L61.5106 84.9986C61.5247 84.9986 61.5436 84.9891 61.5484 84.9703L61.6758 84.6403V84.6356ZM63.0921 81.8077C63.0957 81.8007 63.1011 81.7949 63.1077 81.7909C63.1144 81.7868 63.122 81.7847 63.1299 81.7847C63.1377 81.7847 63.1453 81.7868 63.152 81.7909C63.1586 81.7949 63.164 81.8007 63.1676 81.8077L63.2951 82.1423C63.2998 82.1612 63.3187 82.1706 63.3328 82.1706L63.6916 82.1894C63.7294 82.1894 63.7436 82.2366 63.7152 82.2648L63.432 82.4864C63.4258 82.4923 63.4216 82.5001 63.4199 82.5085C63.4182 82.5169 63.4192 82.5256 63.4225 82.5335L63.517 82.8729C63.5198 82.8815 63.5199 82.8908 63.5171 82.8994C63.5143 82.908 63.5087 82.9155 63.5014 82.9208C63.494 82.9261 63.4851 82.9288 63.476 82.9287C63.4669 82.9285 63.4581 82.9255 63.4509 82.92L63.1535 82.7267C63.1465 82.7221 63.1383 82.7196 63.1299 82.7196C63.1214 82.7196 63.1132 82.7221 63.1062 82.7267L62.8088 82.92C62.8016 82.9255 62.7928 82.9285 62.7837 82.9287C62.7746 82.9288 62.7657 82.9261 62.7583 82.9208C62.751 82.9155 62.7454 82.908 62.7426 82.8994C62.7398 82.8908 62.7399 82.8815 62.7427 82.8729L62.8372 82.5288C62.84 82.5204 62.8402 82.5114 62.8376 82.503C62.8351 82.4945 62.83 82.4871 62.823 82.4817L62.5445 82.2648C62.5378 82.2595 62.5329 82.2523 62.5304 82.2441C62.5279 82.236 62.5279 82.2272 62.5305 82.2191C62.533 82.2109 62.538 82.2038 62.5447 82.1985C62.5514 82.1932 62.5595 82.19 62.5681 82.1894L62.9269 82.1706C62.941 82.1706 62.9599 82.1612 62.9646 82.1423L63.0921 81.8124V81.8077ZM63.0921 83.2216C63.0957 83.2147 63.1011 83.2089 63.1077 83.2049C63.1144 83.2008 63.122 83.1987 63.1299 83.1987C63.1377 83.1987 63.1453 83.2008 63.152 83.2049C63.1586 83.2089 63.164 83.2147 63.1676 83.2216L63.2951 83.5563C63.2998 83.5751 63.3187 83.5846 63.3328 83.5846L63.6916 83.6034C63.7294 83.6034 63.7436 83.6506 63.7152 83.6788L63.432 83.9004C63.4258 83.9063 63.4216 83.914 63.4199 83.9225C63.4182 83.9309 63.4192 83.9396 63.4225 83.9475L63.517 84.2868C63.5198 84.2955 63.5199 84.3048 63.5171 84.3134C63.5143 84.322 63.5087 84.3295 63.5014 84.3348C63.494 84.3401 63.4851 84.3428 63.476 84.3427C63.4669 84.3425 63.4581 84.3395 63.4509 84.334L63.1535 84.1407C63.1465 84.1361 63.1383 84.1336 63.1299 84.1336C63.1214 84.1336 63.1132 84.1361 63.1062 84.1407L62.8088 84.334C62.8016 84.3395 62.7928 84.3425 62.7837 84.3427C62.7746 84.3428 62.7657 84.3401 62.7583 84.3348C62.751 84.3295 62.7454 84.322 62.7426 84.3134C62.7398 84.3048 62.7399 84.2955 62.7427 84.2868L62.8372 83.9428C62.84 83.9344 62.8402 83.9254 62.8376 83.9169C62.8351 83.9085 62.83 83.9011 62.823 83.8956L62.5445 83.6788C62.5378 83.6735 62.5329 83.6663 62.5304 83.6581C62.5279 83.6499 62.5279 83.6412 62.5305 83.6331C62.533 83.6249 62.538 83.6177 62.5447 83.6125C62.5514 83.6072 62.5595 83.604 62.5681 83.6034L62.9269 83.5846C62.941 83.5846 62.9599 83.5751 62.9646 83.5563L63.0921 83.2264V83.2216ZM63.0921 84.6356C63.0957 84.6287 63.1011 84.6229 63.1077 84.6188C63.1144 84.6148 63.122 84.6126 63.1299 84.6126C63.1377 84.6126 63.1453 84.6148 63.152 84.6188C63.1586 84.6229 63.164 84.6287 63.1676 84.6356L63.2951 84.9703C63.2998 84.9891 63.3187 84.9986 63.3328 84.9986L63.6916 85.0174C63.7294 85.0174 63.7436 85.0645 63.7152 85.0928L63.432 85.3143C63.4258 85.3203 63.4216 85.328 63.4199 85.3364C63.4182 85.3449 63.4192 85.3536 63.4225 85.3615L63.517 85.7008C63.5198 85.7094 63.5199 85.7187 63.5171 85.7274C63.5143 85.736 63.5087 85.7435 63.5014 85.7488C63.494 85.754 63.4851 85.7568 63.476 85.7567C63.4669 85.7565 63.4581 85.7535 63.4509 85.748L63.1535 85.5547C63.1465 85.5501 63.1383 85.5476 63.1299 85.5476C63.1214 85.5476 63.1132 85.5501 63.1062 85.5547L62.8088 85.748C62.8016 85.7535 62.7928 85.7565 62.7837 85.7567C62.7746 85.7568 62.7657 85.754 62.7583 85.7488C62.751 85.7435 62.7454 85.736 62.7426 85.7274C62.7398 85.7187 62.7399 85.7094 62.7427 85.7008L62.8372 85.3568C62.84 85.3484 62.8402 85.3394 62.8376 85.3309C62.8351 85.3225 62.83 85.315 62.823 85.3096L62.5445 85.0928C62.5378 85.0875 62.5329 85.0803 62.5304 85.0721C62.5279 85.0639 62.5279 85.0552 62.5305 85.0471C62.533 85.0389 62.538 85.0317 62.5447 85.0264C62.5514 85.0212 62.5595 85.018 62.5681 85.0174L62.9269 84.9986C62.941 84.9986 62.9599 84.9891 62.9646 84.9703L63.0921 84.6403V84.6356Z" fill="#F8F9FD"/>
</g>
</g>
<defs>
<filter id="filter0_d_105_2949" x="0" y="0" width="81.8916" height="108" filterUnits="userSpaceOnUse" color-interpolation-filters="sRGB">
<feFlood flood-opacity="0" result="BackgroundImageFix"/>
<feColorMatrix in="SourceAlpha" type="matrix" values="0 0 0 0 0 0 0 0 0 0 0 0 0 0 0 0 0 0 127 0" result="hardAlpha"/>
<feOffset dx="2" dy="2"/>
<feGaussianBlur stdDeviation="2"/>
<feComposite in2="hardAlpha" operator="out"/>
<feColorMatrix type="matrix" values="0 0 0 0 0 0 0 0 0 0 0 0 0 0 0 0 0 0 0.25 0"/>
<feBlend mode="normal" in2="BackgroundImageFix" result="effect1_dropShadow_105_2949"/>
<feBlend mode="normal" in="SourceGraphic" in2="effect1_dropShadow_105_2949" result="shape"/>
</filter>
<filter id="filter1_d_105_2949" x="51" y="66" width="81.8916" height="108" filterUnits="userSpaceOnUse" color-interpolation-filters="sRGB">
<feFlood flood-opacity="0" result="BackgroundImageFix"/>
<feColorMatrix in="SourceAlpha" type="matrix" values="0 0 0 0 0 0 0 0 0 0 0 0 0 0 0 0 0 0 127 0" result="hardAlpha"/>
<feOffset dx="2" dy="2"/>
<feGaussianBlur stdDeviation="2"/>
<feComposite in2="hardAlpha" operator="out"/>
<feColorMatrix type="matrix" values="0 0 0 0 0 0 0 0 0 0 0 0 0 0 0 0 0 0 0.25 0"/>
<feBlend mode="normal" in2="BackgroundImageFix" result="effect1_dropShadow_105_2949"/>
<feBlend mode="normal" in="SourceGraphic" in2="effect1_dropShadow_105_2949" result="shape"/>
</filter>
<clipPath id="clip0_105_2949">
<rect x="12.204" y="10.9373" width="8.44476" height="8.44476" rx="4.22238" fill="white"/>
</clipPath>
<clipPath id="clip1_105_2949">
<rect x="7.98161" y="15.1599" width="8.44476" height="8.44476" rx="4.22238" fill="white"/>
</clipPath>
<clipPath id="clip2_105_2949">
<rect x="63.2549" y="77.064" width="8.50529" height="8.49161" rx="4.2458" fill="white"/>
</clipPath>
<clipPath id="clip3_105_2949">
<rect x="59.1171" y="81.2326" width="8.4976" height="8.48393" rx="4.24196" fill="white"/>
</clipPath>
</defs>
</svg>
