<svg width="133" height="165" viewBox="0 0 133 165" fill="none" xmlns="http://www.w3.org/2000/svg">
<g filter="url(#filter0_d_2002_401)">
<path d="M2 4.46305C2 3.10275 3.10275 2 4.46305 2H73.4286C74.7889 2 75.8916 3.10275 75.8916 4.46305V99.5369C75.8916 100.897 74.7889 102 73.4286 102H4.46306C3.10275 102 2 100.897 2 99.5369V4.46305Z" fill="white"/>
<path d="M2 4.46305C2 3.10275 3.10275 2 4.46305 2H73.4286C74.7889 2 75.8916 3.10275 75.8916 4.46305V99.5369C75.8916 100.897 74.7889 102 73.4286 102H4.46306C3.10275 102 2 100.897 2 99.5369V4.46305Z" fill="white"/>
<rect x="6.92627" y="85.2512" width="22.0499" height="7.47586" rx="3" fill="#292929"/>
<path d="M23.535 90.2316C23.4813 90.2316 23.4403 90.219 23.4119 90.1937C23.3866 90.1653 23.374 90.1259 23.374 90.0754V88.0542C23.374 88.0038 23.3866 87.9659 23.4119 87.9406C23.4371 87.9154 23.4734 87.9028 23.5208 87.9028C23.5649 87.9028 23.5996 87.9154 23.6249 87.9406C23.6501 87.9659 23.6628 88.0038 23.6628 88.0542V88.7832H24.3964C24.6836 88.7832 24.9013 88.8463 25.0497 88.9725C25.2011 89.0987 25.2769 89.2755 25.2769 89.5027C25.2769 89.6541 25.2421 89.7851 25.1727 89.8955C25.1065 90.006 25.0086 90.0896 24.8792 90.1464C24.7499 90.2032 24.5889 90.2316 24.3964 90.2316H23.535ZM23.6628 90.0091H24.387C24.5763 90.0091 24.723 89.9681 24.8272 89.8861C24.9345 89.804 24.9881 89.6778 24.9881 89.5074C24.9881 89.3338 24.9345 89.206 24.8272 89.124C24.723 89.0419 24.5763 89.0009 24.387 89.0009H23.6628V90.0091Z" fill="white"/>
<path d="M21.9552 90.26C21.911 90.26 21.8763 90.2474 21.8511 90.2222C21.8258 90.1969 21.8132 90.1606 21.8132 90.1133V88.1773H21.0653C20.9707 88.1773 20.9233 88.1363 20.9233 88.0542C20.9233 88.0195 20.936 87.9911 20.9612 87.969C20.9865 87.947 21.0212 87.9359 21.0653 87.9359H22.8498C22.9414 87.9359 22.9871 87.9754 22.9871 88.0542C22.9871 88.0921 22.9745 88.1221 22.9492 88.1442C22.9272 88.1663 22.894 88.1773 22.8498 88.1773H22.102V90.1133C22.102 90.1606 22.0893 90.1969 22.0641 90.2222C22.042 90.2474 22.0057 90.26 21.9552 90.26Z" fill="white"/>
<path d="M18.7453 90.26C18.7201 90.26 18.6964 90.2553 18.6743 90.2458C18.6554 90.2363 18.6396 90.2206 18.627 90.1985C18.6175 90.1732 18.6128 90.1417 18.6128 90.1038V88.0495C18.6128 88.0022 18.6238 87.9659 18.6459 87.9406C18.6712 87.9154 18.7059 87.9028 18.7501 87.9028C18.7911 87.9028 18.8226 87.9154 18.8447 87.9406C18.8668 87.9659 18.8779 88.0022 18.8779 88.0495V89.976H18.7643L20.2364 87.9974C20.2584 87.969 20.2821 87.9469 20.3074 87.9312C20.3326 87.9122 20.3657 87.9028 20.4068 87.9028C20.4352 87.9028 20.4588 87.9091 20.4778 87.9217C20.4967 87.9312 20.5109 87.9469 20.5204 87.969C20.533 87.9911 20.5393 88.0211 20.5393 88.059V90.118C20.5393 90.1622 20.5267 90.1969 20.5014 90.2221C20.4793 90.2474 20.4478 90.26 20.4068 90.26C20.3626 90.26 20.3294 90.2474 20.3074 90.2221C20.2853 90.1969 20.2742 90.1622 20.2742 90.118V88.1915H20.3878L18.911 90.1701C18.8921 90.1953 18.87 90.2158 18.8447 90.2316C18.8195 90.2505 18.7864 90.26 18.7453 90.26Z" fill="white"/>
<path d="M16.0413 90.26C15.9939 90.26 15.9576 90.2474 15.9324 90.2222C15.9072 90.1969 15.8945 90.1606 15.8945 90.1133V88.1016C15.8945 88.0479 15.9087 88.0069 15.9371 87.9785C15.9655 87.9501 16.0066 87.9359 16.0602 87.9359H17.6506C17.7043 87.9359 17.7453 87.9501 17.7737 87.9785C17.8021 88.0069 17.8163 88.0479 17.8163 88.1016V90.1133C17.8163 90.1606 17.8037 90.1969 17.7784 90.2222C17.7532 90.2474 17.7169 90.26 17.6696 90.26C17.6254 90.26 17.5907 90.2474 17.5654 90.2222C17.5402 90.1969 17.5276 90.1606 17.5276 90.1133V88.1726H16.1833V90.1133C16.1833 90.1606 16.1706 90.1969 16.1454 90.2222C16.1233 90.2474 16.0886 90.26 16.0413 90.26Z" fill="white"/>
<path d="M13.9324 91.112C13.8945 91.112 13.8645 91.101 13.8424 91.0789C13.8203 91.06 13.8077 91.0331 13.8046 90.9984C13.8046 90.9669 13.8109 90.9337 13.8235 90.899L14.1501 90.1559V90.2884L13.2224 88.1205C13.2066 88.0826 13.2003 88.0479 13.2034 88.0164C13.2097 87.9817 13.2239 87.9548 13.246 87.9359C13.2713 87.9138 13.306 87.9028 13.3502 87.9028C13.3912 87.9028 13.4212 87.9122 13.4401 87.9312C13.4622 87.9501 13.4811 87.9801 13.4969 88.0211L14.3394 90.0612H14.2211L15.0637 88.0211C15.0826 87.9769 15.1031 87.9469 15.1252 87.9312C15.1473 87.9122 15.1788 87.9028 15.2199 87.9028C15.2609 87.9028 15.2909 87.9138 15.3098 87.9359C15.3319 87.9548 15.3445 87.9801 15.3477 88.0116C15.3508 88.0432 15.3445 88.0779 15.3287 88.1158L14.0933 90.9984C14.0744 91.0426 14.0523 91.0726 14.027 91.0884C14.005 91.1041 13.9734 91.112 13.9324 91.112Z" fill="white"/>
<path d="M10.768 90.26C10.7238 90.26 10.6891 90.2474 10.6638 90.2222C10.6386 90.1938 10.626 90.1559 10.626 90.1086V87.0129C10.626 86.9656 10.6386 86.9293 10.6638 86.904C10.6891 86.8788 10.7238 86.8662 10.768 86.8662C10.8153 86.8662 10.8516 86.8788 10.8768 86.904C10.9021 86.9293 10.9147 86.9656 10.9147 87.0129V88.414H11.6153L11.5064 88.485L12.543 86.9419C12.5651 86.9104 12.5903 86.8898 12.6187 86.8804C12.6471 86.8678 12.6755 86.8646 12.7039 86.8709C12.7323 86.8772 12.756 86.8914 12.7749 86.9135C12.7939 86.9324 12.8049 86.9561 12.8081 86.9845C12.8144 87.0129 12.8065 87.0445 12.7844 87.0792L11.7999 88.5276L11.7005 88.4235C11.8835 88.4424 12.0413 88.5087 12.1738 88.6223C12.3095 88.7327 12.4263 88.8873 12.5241 89.0862L13.0069 90.0612C13.0258 90.0959 13.0306 90.1291 13.0211 90.1606C13.0148 90.189 12.999 90.2111 12.9738 90.2269C12.9517 90.2427 12.9248 90.2522 12.8933 90.2553C12.8649 90.2585 12.8365 90.2522 12.8081 90.2364C12.7797 90.2238 12.7576 90.2001 12.7418 90.1654L12.2969 89.2471C12.1959 89.0388 12.0823 88.8905 11.9561 88.8021C11.833 88.7138 11.6815 88.6696 11.5017 88.6696H10.9147V90.1086C10.9147 90.1559 10.9021 90.1938 10.8768 90.2222C10.8548 90.2474 10.8185 90.26 10.768 90.26Z" fill="white"/>
<path fill-rule="evenodd" clip-rule="evenodd" d="M49.4923 55.6701L47.6297 63.2092L45.6609 65.1857L42.5386 75.0184L42.2768 74.8768C42.1666 74.8173 42.074 74.7219 41.996 74.6189C41.9162 74.5135 41.8403 74.385 41.7678 74.2411C41.623 73.9535 41.4811 73.583 41.3445 73.164C41.0708 72.3248 40.8085 71.2619 40.5809 70.2111C40.3531 69.1589 40.1587 68.1131 40.0212 67.3054C39.9525 66.9016 39.8978 66.5565 39.8603 66.2993C39.8245 66.0537 39.8005 65.8649 39.8005 65.7932C39.8005 65.7374 39.772 65.5995 39.7041 65.3803C39.6399 65.1727 39.55 64.9212 39.4486 64.6556C39.3333 64.3533 39.2046 64.0368 39.0852 63.7525L38.2971 65.9283L35.7425 68.4929L35.637 68.0694C35.3914 67.0833 34.8047 64.8261 34.4155 63.654C34.2352 63.1109 34.0095 63.0175 33.8742 63.0095C33.7069 62.9996 33.5128 63.1044 33.3718 63.2381L29.2341 70.0799L27.1133 77.4377L26.6304 77.3695C26.6304 76.9688 26.489 74.6045 26.3464 72.2489C26.3343 72.0493 26.3222 71.8496 26.3101 71.6513C26.1813 69.526 26.0615 67.5504 26.0615 67.271C26.0615 67.0077 25.9865 66.6019 25.8845 66.1841C25.8148 65.8987 25.7353 65.6188 25.6665 65.3937L22.9972 66.6118L21.4171 63.1749L19.9231 58.7493L19.4381 70.0111L18.4526 74.7107L17.9739 74.7247C17.7276 73.8182 17.19 71.8725 16.9964 71.2895C16.9181 71.0534 16.7298 70.8214 16.5027 70.6205C16.4187 70.5461 16.3324 70.4788 16.2498 70.4198V74.9065H14.7452L14.2782 78.188L12.8485 80.7717L10.8943 78.2493L9.73321 76.3843H8.55583L7.14973 79.4428L6.70215 79.2371L8.24012 75.8917H10.0068L11.2991 77.9676L12.7797 79.8786L13.8033 78.0289L14.2852 74.6426C14.2859 74.2276 14.3108 73.6312 14.3867 73.1786C14.4235 72.9589 14.4781 72.7326 14.5715 72.5845C14.6178 72.5112 14.7056 72.4061 14.8515 72.384C15.0045 72.3609 15.1234 72.4424 15.1966 72.5159C15.3426 72.6624 15.4166 72.8576 15.4528 73.0488C15.4893 73.2419 15.4915 73.453 15.4763 73.6564C15.4565 73.9204 15.406 74.1876 15.3493 74.4139H15.7572V69.5811L16.114 69.7602C16.2951 69.8511 16.5707 70.0229 16.8291 70.2516C17.0846 70.4776 17.3461 70.7792 17.464 71.1343C17.6057 71.5611 17.9213 72.6793 18.1796 73.6126L18.9477 69.9496L19.4877 57.4081L19.9672 57.3399L21.8755 62.9927L23.2395 65.9597L25.9644 64.7163L26.0508 64.9766C26.1344 65.2284 26.259 65.6412 26.363 66.0673C26.4655 66.4869 26.5541 66.9432 26.5541 67.271C26.5541 67.5343 26.6741 69.5143 26.8047 71.6685C26.8158 71.8511 26.8269 72.035 26.8381 72.2191C26.9181 73.5405 26.9986 74.8773 27.0535 75.8667L28.7789 69.8808L32.9818 62.931L33.0028 62.91C33.1876 62.7244 33.5226 62.4953 33.9033 62.5177C34.3241 62.5426 34.6709 62.8597 34.8831 63.4988C35.2298 64.543 35.7259 66.4169 36.0085 67.5278L37.8711 65.658L39.0425 62.4237L39.2906 62.9841C39.4554 63.3563 39.7025 63.9392 39.9089 64.48C40.012 64.7501 40.1061 65.0127 40.1747 65.2347C40.2398 65.445 40.2931 65.6519 40.2931 65.7932C40.2931 65.7925 40.2931 65.7929 40.2931 65.7944C40.2932 65.7958 40.2933 65.7981 40.2935 65.8014C40.2939 65.8082 40.2947 65.8172 40.2957 65.8289C40.2979 65.8523 40.3013 65.8832 40.306 65.9217C40.3153 65.9986 40.3293 66.1018 40.3477 66.2282C40.3846 66.4806 40.4386 66.8217 40.5068 67.2227C40.6433 68.0248 40.8364 69.0633 41.0624 70.1068C41.2887 71.1516 41.5468 72.1956 41.8128 73.0113C41.9461 73.4198 42.079 73.7637 42.2078 74.0195C42.2361 74.0757 42.2637 74.1266 42.2904 74.1722L45.2276 64.9228L47.1842 62.9584L49.2977 54.404L49.7796 54.4218L51.2884 63.2912L56.6067 62.3626L60.7676 57.9396L64.5724 56.8482L65.0105 71.9263L69.252 58.0855L69.723 58.2298L65.0432 73.5008L64.5615 73.4357L64.0984 57.4966L61.0336 58.3757L56.853 62.8197L50.8857 63.8616L49.4923 55.6701ZM14.7779 74.6142L14.7884 74.5825C14.8655 74.3502 14.9583 73.9764 14.9851 73.6196C14.9984 73.4413 14.9945 73.2767 14.9687 73.1404C14.9583 73.0851 14.9449 73.0378 14.9293 72.9978C14.9099 73.0657 14.8904 73.1531 14.8725 73.26C14.8049 73.6638 14.7797 74.2122 14.7779 74.6142Z" fill="#00CF6C"/>
<path d="M51.612 21.8937C51.2928 21.8937 50.9825 21.8523 50.681 21.7695C50.3854 21.6927 50.1165 21.5656 49.8741 21.3882C49.8268 21.3587 49.7943 21.3203 49.7766 21.273C49.7648 21.2257 49.7648 21.1784 49.7766 21.1311C49.7884 21.0897 49.8091 21.0513 49.8386 21.0158C49.8741 20.9804 49.9125 20.9597 49.9539 20.9538C50.0012 20.9479 50.0485 20.9567 50.0958 20.9804C50.3559 21.1518 50.6042 21.27 50.8406 21.335C51.083 21.406 51.3342 21.4414 51.5943 21.4414C52.0258 21.4414 52.3539 21.3203 52.5785 21.0779C52.8032 20.8414 52.9155 20.5015 52.9155 20.0582V18.9587H53.0042C52.9155 19.3252 52.7263 19.6119 52.4367 19.8188C52.147 20.0257 51.8042 20.1291 51.4081 20.1291C51.012 20.1291 50.6692 20.0405 50.3795 19.8631C50.0899 19.6799 49.8652 19.4286 49.7056 19.1094C49.5519 18.7843 49.4751 18.4089 49.4751 17.9833C49.4751 17.6641 49.5194 17.3745 49.6081 17.1144C49.6968 16.8543 49.8239 16.6296 49.9894 16.4405C50.1608 16.2513 50.3648 16.1065 50.6012 16.006C50.8377 15.8996 51.1066 15.8464 51.4081 15.8464C51.8042 15.8464 52.147 15.9528 52.4367 16.1656C52.7263 16.3725 52.9125 16.6533 52.9953 17.008L52.9066 17.0612V16.1479C52.9066 16.0533 52.9303 15.9823 52.9776 15.935C53.0249 15.8878 53.0899 15.8641 53.1726 15.8641C53.2613 15.8641 53.3263 15.8878 53.3677 15.935C53.415 15.9823 53.4386 16.0533 53.4386 16.1479V19.9784C53.4386 20.6109 53.285 21.0868 52.9776 21.406C52.6702 21.7311 52.215 21.8937 51.612 21.8937ZM51.4702 19.668C51.7657 19.668 52.0199 19.6001 52.2327 19.4641C52.4515 19.3222 52.6199 19.1272 52.7382 18.8789C52.8564 18.6247 52.9155 18.3262 52.9155 17.9833C52.9155 17.469 52.7854 17.0612 52.5253 16.7597C52.2652 16.4582 51.9135 16.3075 51.4702 16.3075C51.1746 16.3075 50.9175 16.3754 50.6987 16.5114C50.48 16.6474 50.3116 16.8424 50.1933 17.0966C50.081 17.3449 50.0249 17.6405 50.0249 17.9833C50.0249 18.4976 50.1549 18.9084 50.415 19.2158C50.6751 19.5173 51.0268 19.668 51.4702 19.668Z" fill="black"/>
<path d="M45.0542 20.2799C44.9655 20.2799 44.8975 20.2562 44.8502 20.2089C44.8029 20.1616 44.7793 20.0937 44.7793 20.005V16.1479C44.7793 16.0533 44.8029 15.9823 44.8502 15.935C44.8975 15.8878 44.9655 15.8641 45.0542 15.8641C45.1369 15.8641 45.199 15.8878 45.2404 15.935C45.2877 15.9823 45.3113 16.0533 45.3113 16.1479V16.9813L45.2138 16.9281C45.332 16.5735 45.533 16.3045 45.8167 16.1213C46.1064 15.938 46.4374 15.8464 46.8098 15.8464C47.1527 15.8464 47.4364 15.9084 47.6611 16.0326C47.8916 16.1508 48.063 16.3341 48.1754 16.5823C48.2877 16.8306 48.3438 17.141 48.3438 17.5134V20.005C48.3438 20.0937 48.3202 20.1616 48.2729 20.2089C48.2256 20.2562 48.1606 20.2799 48.0778 20.2799C47.9892 20.2799 47.9212 20.2562 47.8739 20.2089C47.8266 20.1616 47.8029 20.0937 47.8029 20.005V17.5577C47.8029 17.1262 47.7172 16.8129 47.5458 16.6178C47.3744 16.4168 47.1025 16.3163 46.73 16.3163C46.3044 16.3163 45.9616 16.4493 45.7015 16.7153C45.4473 16.9754 45.3202 17.3272 45.3202 17.7705V20.005C45.3202 20.1882 45.2315 20.2799 45.0542 20.2799Z" fill="black"/>
<path d="M43.0889 20.2621C43.0002 20.2621 42.9322 20.2355 42.8849 20.1823C42.8376 20.1291 42.814 20.0582 42.814 19.9695V16.1745C42.814 16.0799 42.8376 16.0089 42.8849 15.9617C42.9322 15.9144 43.0002 15.8907 43.0889 15.8907C43.1716 15.8907 43.2367 15.9144 43.284 15.9617C43.3312 16.0089 43.3549 16.0799 43.3549 16.1745V19.9695C43.3549 20.0582 43.3312 20.1291 43.284 20.1823C43.2426 20.2355 43.1775 20.2621 43.0889 20.2621ZM43.0889 14.8178C42.9647 14.8178 42.8672 14.7853 42.7963 14.7203C42.7312 14.6552 42.6987 14.5636 42.6987 14.4454C42.6987 14.3272 42.7312 14.2385 42.7963 14.1794C42.8672 14.1144 42.9647 14.0818 43.0889 14.0818C43.213 14.0818 43.3076 14.1144 43.3726 14.1794C43.4436 14.2385 43.479 14.3272 43.479 14.4454C43.479 14.5636 43.4436 14.6552 43.3726 14.7203C43.3076 14.7853 43.213 14.8178 43.0889 14.8178Z" fill="black"/>
<path d="M40.009 20.2976C39.5657 20.2976 39.1844 20.2089 38.8652 20.0316C38.546 19.8543 38.3006 19.6001 38.1292 19.269C37.9578 18.938 37.8721 18.5449 37.8721 18.0897C37.8721 17.6405 37.9578 17.2503 38.1292 16.9193C38.3006 16.5823 38.5371 16.3193 38.8386 16.1301C39.146 15.941 39.4977 15.8464 39.8937 15.8464C40.1834 15.8464 40.4376 15.8966 40.6563 15.9971C40.8809 16.0917 41.0701 16.2306 41.2238 16.4139C41.3834 16.5912 41.5046 16.8099 41.5873 17.07C41.6701 17.3242 41.7115 17.6139 41.7115 17.939C41.7115 18.0217 41.6878 18.0838 41.6405 18.1252C41.5992 18.1666 41.5401 18.1873 41.4632 18.1873H38.2622V17.7882H41.3745L41.2327 17.9035C41.2327 17.5607 41.1824 17.271 41.0819 17.0346C40.9814 16.7922 40.8307 16.606 40.6297 16.4759C40.4346 16.3459 40.1923 16.2809 39.9026 16.2809C39.5775 16.2809 39.3026 16.3577 39.078 16.5114C38.8534 16.6592 38.6849 16.8661 38.5726 17.1321C38.4602 17.3922 38.4041 17.6937 38.4041 18.0365V18.0809C38.4041 18.6483 38.543 19.0858 38.8208 19.3932C39.0987 19.6947 39.4888 19.8454 39.9913 19.8454C40.21 19.8454 40.4199 19.8158 40.6208 19.7567C40.8277 19.6976 41.0287 19.5971 41.2238 19.4552C41.2829 19.4139 41.3391 19.3932 41.3923 19.3932C41.4514 19.3932 41.4987 19.408 41.5341 19.4375C41.5755 19.4671 41.6021 19.5055 41.6139 19.5528C41.6317 19.5942 41.6287 19.6414 41.6051 19.6947C41.5873 19.7419 41.5489 19.7863 41.4898 19.8277C41.3006 19.9813 41.0731 20.0996 40.807 20.1823C40.541 20.2592 40.275 20.2976 40.009 20.2976Z" fill="black"/>
<path d="M34.9998 20.2976C34.5978 20.2976 34.2491 20.206 33.9535 20.0227C33.6579 19.8395 33.4274 19.5823 33.2619 19.2513C33.1023 18.9203 33.0225 18.5272 33.0225 18.072C33.0225 17.735 33.0668 17.4306 33.1555 17.1587C33.25 16.8868 33.3831 16.6533 33.5545 16.4582C33.7318 16.2572 33.9417 16.1065 34.184 16.006C34.4323 15.8996 34.7042 15.8464 34.9998 15.8464C35.4077 15.8464 35.7594 15.938 36.055 16.1213C36.3505 16.3045 36.5781 16.5646 36.7377 16.9015C36.9032 17.2326 36.986 17.6227 36.986 18.072C36.986 18.4148 36.9387 18.7222 36.8441 18.9942C36.7555 19.2661 36.6225 19.4996 36.4451 19.6947C36.2737 19.8897 36.0668 20.0405 35.8244 20.1469C35.5821 20.2474 35.3072 20.2976 34.9998 20.2976ZM34.9998 19.8454C35.2954 19.8454 35.5496 19.7774 35.7624 19.6414C35.9811 19.4996 36.1466 19.2956 36.2589 19.0296C36.3771 18.7636 36.4363 18.4444 36.4363 18.072C36.4363 17.5104 36.3062 17.0759 36.0461 16.7685C35.7919 16.4612 35.4432 16.3075 34.9998 16.3075C34.7101 16.3075 34.456 16.3784 34.2372 16.5203C34.0244 16.6562 33.8589 16.8572 33.7407 17.1232C33.6284 17.3833 33.5722 17.6996 33.5722 18.072C33.5722 18.6395 33.7023 19.0769 33.9624 19.3843C34.2225 19.6917 34.5683 19.8454 34.9998 19.8454Z" fill="black"/>
<path d="M27.7478 20.2266C27.6532 20.2266 27.5793 20.2 27.5261 20.1468C27.4729 20.0936 27.4463 20.0168 27.4463 19.9163V14.2857C27.4463 14.1853 27.4729 14.1084 27.5261 14.0552C27.5793 14.002 27.6532 13.9754 27.7478 13.9754H29.8315C30.263 13.9754 30.6266 14.0404 30.9222 14.1705C31.2177 14.2946 31.4453 14.4779 31.6049 14.7202C31.7645 14.9626 31.8443 15.2611 31.8443 15.6158C31.8443 16.0059 31.7261 16.3311 31.4896 16.5912C31.2591 16.8513 30.9458 17.0227 30.5497 17.1055V16.9813C30.9931 17.0286 31.3419 17.1882 31.596 17.4601C31.8561 17.7261 31.9862 18.0808 31.9862 18.5242C31.9862 19.0798 31.8089 19.5025 31.4542 19.7922C31.0995 20.0818 30.597 20.2266 29.9468 20.2266H27.7478ZM27.9783 19.7656H29.9024C30.4167 19.7656 30.801 19.6651 31.0552 19.4641C31.3093 19.2572 31.4364 18.9468 31.4364 18.533C31.4364 18.1074 31.3093 17.7941 31.0552 17.5931C30.801 17.3922 30.4167 17.2917 29.9024 17.2917H27.9783V19.7656ZM27.9783 16.8306H29.7694C30.266 16.8306 30.6443 16.7301 30.9044 16.5291C31.1645 16.3222 31.2946 16.0237 31.2946 15.6335C31.2946 15.2434 31.1645 14.9478 30.9044 14.7468C30.6443 14.5399 30.266 14.4365 29.7694 14.4365H27.9783V16.8306Z" fill="black"/>
<path d="M39.1598 40.9162C39.0862 40.9162 39.0287 40.8955 38.9874 40.8542C38.946 40.8128 38.9253 40.753 38.9253 40.6749V36.2955C38.9253 36.2174 38.946 36.1576 38.9874 36.1162C39.0287 36.0749 39.0862 36.0542 39.1598 36.0542H40.4908C41.2632 36.0542 41.8586 36.2611 42.277 36.6749C42.7 37.0887 42.9115 37.691 42.9115 38.4818C42.9115 38.8772 42.8563 39.2266 42.746 39.53C42.6402 39.8335 42.4839 40.0887 42.277 40.2955C42.0701 40.4978 41.8172 40.6519 41.5184 40.7576C41.2195 40.8634 40.877 40.9162 40.4908 40.9162H39.1598ZM39.346 40.5438H40.4563C40.792 40.5438 41.0839 40.5001 41.3322 40.4128C41.5851 40.3254 41.7943 40.1967 41.9598 40.0266C42.1253 39.8565 42.2494 39.6427 42.3322 39.3852C42.4149 39.1231 42.4563 38.822 42.4563 38.4818C42.4563 37.7967 42.2885 37.2841 41.9529 36.9438C41.6218 36.599 41.123 36.4266 40.4563 36.4266H39.346V40.5438Z" fill="black"/>
<path d="M36.2533 40.9714C36.0326 40.9714 35.8188 40.953 35.6119 40.9162C35.405 40.8794 35.2119 40.8242 35.0326 40.7507C34.8579 40.6725 34.6992 40.5783 34.5567 40.4679C34.5107 40.4357 34.4786 40.399 34.4602 40.3576C34.4464 40.3116 34.4441 40.2702 34.4533 40.2334C34.4671 40.1921 34.4878 40.1576 34.5153 40.13C34.5475 40.1024 34.5843 40.0886 34.6257 40.0886C34.6671 40.084 34.7107 40.0978 34.7567 40.13C34.9682 40.2863 35.1912 40.4013 35.4257 40.4748C35.6648 40.5484 35.9406 40.5852 36.2533 40.5852C36.6901 40.5852 37.0165 40.5001 37.2326 40.33C37.4533 40.1599 37.5636 39.9369 37.5636 39.661C37.5636 39.4311 37.4832 39.2518 37.3222 39.1231C37.1659 38.9944 36.9061 38.8932 36.5429 38.8197L35.8464 38.6748C35.4096 38.5875 35.0855 38.4403 34.874 38.2334C34.6625 38.0265 34.5567 37.7507 34.5567 37.4059C34.5567 37.1944 34.5981 37.0036 34.6809 36.8334C34.7636 36.6587 34.8809 36.5093 35.0326 36.3852C35.1843 36.261 35.3636 36.1668 35.5705 36.1024C35.782 36.0334 36.0142 35.999 36.2671 35.999C36.5659 35.999 36.8395 36.0403 37.0878 36.1231C37.3406 36.2059 37.5705 36.3369 37.7774 36.5162C37.8188 36.5484 37.8464 36.5875 37.8602 36.6334C37.874 36.6748 37.874 36.7162 37.8602 36.7576C37.8464 36.7944 37.8257 36.8243 37.7981 36.8472C37.7705 36.8702 37.736 36.884 37.6946 36.8886C37.6533 36.8886 37.6096 36.8702 37.5636 36.8334C37.3705 36.6771 37.1682 36.5645 36.9567 36.4955C36.7498 36.422 36.5199 36.3852 36.2671 36.3852C36.0096 36.3852 35.7843 36.4265 35.5912 36.5093C35.4027 36.5921 35.2556 36.7093 35.1498 36.861C35.0441 37.0128 34.9912 37.1921 34.9912 37.399C34.9912 37.638 35.0648 37.8288 35.2119 37.9714C35.359 38.1139 35.5958 38.2174 35.9222 38.2817L36.6257 38.4265C37.0901 38.5231 37.4349 38.6679 37.6602 38.861C37.8855 39.0495 37.9981 39.3093 37.9981 39.6403C37.9981 39.838 37.9567 40.0197 37.874 40.1852C37.7958 40.3461 37.6809 40.4863 37.5291 40.6059C37.3774 40.7254 37.1935 40.8174 36.9774 40.8817C36.7659 40.9415 36.5245 40.9714 36.2533 40.9714Z" fill="black"/>
<path d="M31.6075 40.9714C31.2994 40.9714 31.0259 40.93 30.7868 40.8473C30.5477 40.7645 30.3477 40.6404 30.1868 40.4749C30.0305 40.3093 29.9109 40.1047 29.8282 39.8611C29.75 39.6174 29.7109 39.3369 29.7109 39.0197V36.2266C29.7109 36.153 29.7293 36.1001 29.7661 36.068C29.8029 36.0312 29.8535 36.0128 29.9178 36.0128C29.9868 36.0128 30.0397 36.0312 30.0765 36.068C30.1132 36.1001 30.1316 36.153 30.1316 36.2266V38.9852C30.1316 39.5231 30.2558 39.9254 30.504 40.1921C30.7569 40.4542 31.1247 40.5852 31.6075 40.5852C32.0948 40.5852 32.4627 40.4542 32.7109 40.1921C32.9592 39.9254 33.0834 39.5231 33.0834 38.9852V36.2266C33.0834 36.153 33.1017 36.1001 33.1385 36.068C33.1753 36.0312 33.2282 36.0128 33.2971 36.0128C33.3615 36.0128 33.4121 36.0312 33.4489 36.068C33.4857 36.1001 33.504 36.153 33.504 36.2266V39.0197C33.504 39.4427 33.4328 39.8013 33.2902 40.0955C33.1477 40.3852 32.9339 40.6036 32.6489 40.7507C32.3684 40.8978 32.0213 40.9714 31.6075 40.9714Z" fill="black"/>
<path d="M26.0379 40.9162C25.9781 40.9162 25.9298 40.9001 25.8931 40.868C25.8563 40.8312 25.8379 40.7829 25.8379 40.7231C25.8379 40.6634 25.8563 40.6197 25.8931 40.5921C25.9298 40.5599 25.9781 40.5438 26.0379 40.5438H26.9965V36.3921H27.2379L26.2379 37.0749C26.1919 37.107 26.1482 37.1231 26.1069 37.1231C26.0655 37.1185 26.031 37.1024 26.0034 37.0749C25.9758 37.0473 25.9551 37.0151 25.9413 36.9783C25.9321 36.9415 25.9344 36.9024 25.9482 36.8611C25.962 36.8197 25.9919 36.7852 26.0379 36.7576L26.9896 36.0955C27.0356 36.068 27.077 36.0473 27.1138 36.0335C27.1505 36.0197 27.1919 36.0128 27.2379 36.0128C27.2885 36.0128 27.3298 36.0289 27.362 36.0611C27.3988 36.0886 27.4172 36.1369 27.4172 36.2059V40.5438H28.3069C28.3712 40.5438 28.4195 40.5599 28.4517 40.5921C28.4885 40.6197 28.5069 40.6634 28.5069 40.7231C28.5069 40.7875 28.4885 40.8358 28.4517 40.868C28.4195 40.9001 28.3712 40.9162 28.3069 40.9162H26.0379Z" fill="black"/>
<path d="M22.5921 40.9714C22.376 40.9714 22.153 40.9254 21.9231 40.8334C21.6932 40.7415 21.4955 40.6105 21.33 40.4403C21.2932 40.4082 21.2702 40.3714 21.261 40.33C21.2518 40.2886 21.2541 40.2495 21.2679 40.2128C21.2817 40.176 21.3024 40.1461 21.33 40.1231C21.3576 40.0955 21.3921 40.084 21.4335 40.0886C21.4748 40.0886 21.5162 40.107 21.5576 40.1438C21.7139 40.2955 21.8817 40.4082 22.061 40.4817C22.2404 40.5507 22.4197 40.5852 22.599 40.5852C22.9162 40.5852 23.1852 40.507 23.4059 40.3507C23.6266 40.1898 23.7944 39.9507 23.9093 39.6334C24.0243 39.3116 24.0817 38.9116 24.0817 38.4334V37.7369H24.13C24.107 38.0082 24.0312 38.2449 23.9024 38.4472C23.7737 38.6495 23.6059 38.8059 23.399 38.9162C23.1967 39.022 22.9668 39.0748 22.7093 39.0748C22.4197 39.0748 22.1622 39.0105 21.9369 38.8817C21.7162 38.753 21.5415 38.5737 21.4128 38.3438C21.2886 38.1093 21.2266 37.8449 21.2266 37.5507C21.2266 37.2472 21.2909 36.9783 21.4197 36.7438C21.553 36.5093 21.7323 36.3277 21.9576 36.199C22.1875 36.0656 22.4495 35.999 22.7438 35.999C23.1208 35.999 23.4404 36.0909 23.7024 36.2748C23.9645 36.4587 24.1622 36.7277 24.2955 37.0817C24.4335 37.4311 24.5024 37.8541 24.5024 38.3507C24.5024 38.7737 24.4587 39.1484 24.3714 39.4748C24.2886 39.8013 24.1645 40.0748 23.999 40.2955C23.8335 40.5162 23.6312 40.684 23.3921 40.799C23.1576 40.9139 22.8909 40.9714 22.5921 40.9714ZM22.7783 38.6955C23.0036 38.6955 23.199 38.6472 23.3645 38.5507C23.5346 38.4495 23.6679 38.3116 23.7645 38.1369C23.861 37.9622 23.9093 37.7622 23.9093 37.5369C23.9093 37.307 23.861 37.1047 23.7645 36.93C23.6679 36.7553 23.5346 36.6197 23.3645 36.5231C23.199 36.422 23.0036 36.3714 22.7783 36.3714C22.5576 36.3714 22.3622 36.422 22.1921 36.5231C22.0266 36.6197 21.8955 36.7553 21.799 36.93C21.7024 37.1047 21.6541 37.307 21.6541 37.5369C21.6541 37.7622 21.7024 37.9622 21.799 38.1369C21.8955 38.3116 22.0266 38.4495 22.1921 38.5507C22.3622 38.6472 22.5576 38.6955 22.7783 38.6955Z" fill="black"/>
<path d="M20.1321 41.5369C20.0907 41.5875 20.0493 41.6151 20.0079 41.6197C19.9665 41.6289 19.9298 41.622 19.8976 41.599C19.87 41.576 19.8539 41.5438 19.8493 41.5025C19.8493 41.4611 19.87 41.4128 19.9114 41.3576C19.9711 41.2749 20.0148 41.1875 20.0424 41.0956C20.07 41.0036 20.0838 40.9186 20.0838 40.8404L20.1114 40.9369C20.0102 40.9369 19.9275 40.9071 19.8631 40.8473C19.8033 40.7875 19.7734 40.7117 19.7734 40.6197C19.7734 40.5277 19.801 40.4519 19.8562 40.3921C19.9114 40.3323 19.9872 40.3025 20.0838 40.3025C20.1803 40.3025 20.2562 40.3369 20.3114 40.4059C20.3711 40.4703 20.401 40.5691 20.401 40.7025C20.401 40.7852 20.3918 40.8749 20.3734 40.9714C20.3596 41.0726 20.3321 41.1714 20.2907 41.268C20.2493 41.3645 20.1964 41.4542 20.1321 41.5369Z" fill="black"/>
<path d="M17.2241 40.9714C16.9482 40.9714 16.677 40.93 16.4103 40.8472C16.1436 40.7645 15.9114 40.6403 15.7137 40.4748C15.6678 40.4426 15.6379 40.4059 15.6241 40.3645C15.6149 40.3231 15.6149 40.284 15.6241 40.2472C15.6333 40.2105 15.6517 40.1783 15.6793 40.1507C15.7068 40.1231 15.7413 40.1093 15.7827 40.1093C15.8241 40.1047 15.8701 40.1208 15.9206 40.1576C16.1275 40.3047 16.3367 40.4128 16.5482 40.4817C16.7643 40.5507 16.9896 40.5852 17.2241 40.5852C17.4724 40.5852 17.6816 40.5484 17.8517 40.4748C18.0218 40.3967 18.1505 40.284 18.2379 40.1369C18.3298 39.9898 18.3758 39.8082 18.3758 39.5921C18.3758 39.2794 18.2724 39.0426 18.0655 38.8817C17.8632 38.7162 17.5689 38.6334 17.1827 38.6334H16.6655C16.6011 38.6334 16.5505 38.6174 16.5137 38.5852C16.477 38.5484 16.4586 38.5024 16.4586 38.4472C16.4586 38.3875 16.477 38.3415 16.5137 38.3093C16.5505 38.2771 16.6011 38.261 16.6655 38.261H17.1482C17.3735 38.261 17.5666 38.2197 17.7275 38.1369C17.8885 38.0541 18.0126 37.9392 18.0999 37.7921C18.1919 37.6403 18.2379 37.4587 18.2379 37.2472C18.2379 36.9714 18.1482 36.7599 17.9689 36.6128C17.7942 36.461 17.539 36.3852 17.2034 36.3852C16.9781 36.3852 16.7666 36.422 16.5689 36.4955C16.3712 36.5645 16.1827 36.6771 16.0034 36.8334C15.962 36.8702 15.9206 36.8909 15.8793 36.8955C15.8379 36.8955 15.8011 36.884 15.7689 36.861C15.7413 36.838 15.7206 36.8082 15.7068 36.7714C15.693 36.73 15.693 36.6886 15.7068 36.6472C15.7206 36.6013 15.7505 36.5599 15.7965 36.5231C15.9758 36.353 16.1896 36.2243 16.4379 36.1369C16.6908 36.0449 16.9505 35.999 17.2172 35.999C17.5206 35.999 17.7804 36.0472 17.9965 36.1438C18.2126 36.2403 18.3781 36.3806 18.493 36.5645C18.6126 36.7484 18.6724 36.9691 18.6724 37.2265C18.6724 37.4288 18.6333 37.6128 18.5551 37.7783C18.4816 37.9438 18.3758 38.084 18.2379 38.199C18.0999 38.3139 17.9344 38.3967 17.7413 38.4472V38.3714C18.077 38.4311 18.3367 38.5714 18.5206 38.7921C18.7091 39.0082 18.8034 39.2817 18.8034 39.6128C18.8034 39.8886 18.739 40.13 18.6103 40.3369C18.4862 40.5392 18.3068 40.6955 18.0724 40.8059C17.8379 40.9162 17.5551 40.9714 17.2241 40.9714Z" fill="black"/>
<path d="M13.1302 40.9714C12.7762 40.9714 12.4704 40.9208 12.213 40.8197C11.9601 40.7139 11.7647 40.5622 11.6268 40.3645C11.4934 40.1622 11.4268 39.9208 11.4268 39.6403C11.4268 39.4105 11.4727 39.2082 11.5647 39.0334C11.6612 38.8587 11.7923 38.7162 11.9578 38.6059C12.1233 38.4955 12.3141 38.4265 12.5302 38.399V38.4817C12.2268 38.4174 11.9854 38.2771 11.8061 38.061C11.6314 37.8403 11.544 37.5806 11.544 37.2817C11.544 37.0105 11.6084 36.7806 11.7371 36.5921C11.8704 36.399 12.0566 36.2518 12.2957 36.1507C12.5348 36.0495 12.813 35.999 13.1302 35.999C13.452 35.999 13.7302 36.0495 13.9647 36.1507C14.2038 36.2518 14.3877 36.399 14.5164 36.5921C14.6497 36.7806 14.7164 37.0105 14.7164 37.2817C14.7164 37.4794 14.675 37.661 14.5923 37.8265C14.5141 37.9921 14.4015 38.1323 14.2543 38.2472C14.1118 38.3576 13.9371 38.4357 13.7302 38.4817V38.399C14.0612 38.4449 14.3279 38.5783 14.5302 38.799C14.7325 39.0197 14.8337 39.3001 14.8337 39.6403C14.8337 39.9208 14.7647 40.1622 14.6268 40.3645C14.4934 40.5622 14.3003 40.7139 14.0474 40.8197C13.7946 40.9208 13.4888 40.9714 13.1302 40.9714ZM13.1302 40.6059C13.5532 40.6059 13.8704 40.5254 14.0819 40.3645C14.298 40.199 14.4061 39.9507 14.4061 39.6197C14.4061 39.2886 14.298 39.0426 14.0819 38.8817C13.8704 38.7208 13.5532 38.6403 13.1302 38.6403C12.7118 38.6403 12.3946 38.7208 12.1785 38.8817C11.9624 39.0426 11.8543 39.2886 11.8543 39.6197C11.8543 39.9507 11.9624 40.199 12.1785 40.3645C12.3946 40.5254 12.7118 40.6059 13.1302 40.6059ZM13.1302 38.2679C13.3739 38.2679 13.5808 38.2311 13.7509 38.1576C13.9256 38.0794 14.0589 37.9691 14.1509 37.8265C14.2474 37.6794 14.2957 37.507 14.2957 37.3093C14.2957 37.0105 14.1923 36.7783 13.9854 36.6128C13.7831 36.4472 13.498 36.3645 13.1302 36.3645C12.767 36.3645 12.4819 36.4472 12.275 36.6128C12.0681 36.7783 11.9647 37.0105 11.9647 37.3093C11.9647 37.6082 12.0681 37.8426 12.275 38.0128C12.4819 38.1829 12.767 38.2679 13.1302 38.2679Z" fill="black"/>
<path d="M7.98809 40.9162C7.92832 40.9162 7.88004 40.9001 7.84326 40.868C7.80648 40.8312 7.78809 40.7829 7.78809 40.7231C7.78809 40.6634 7.80648 40.6197 7.84326 40.5921C7.88004 40.5599 7.92832 40.5438 7.98809 40.5438H8.94671V36.3921H9.18809L8.18809 37.0749C8.14211 37.107 8.09843 37.1231 8.05705 37.1231C8.01567 37.1185 7.98119 37.1024 7.9536 37.0749C7.92602 37.0473 7.90533 37.0151 7.89153 36.9783C7.88234 36.9415 7.88464 36.9024 7.89843 36.8611C7.91222 36.8197 7.94211 36.7852 7.98809 36.7576L8.93981 36.0955C8.98579 36.068 9.02717 36.0473 9.06395 36.0335C9.10073 36.0197 9.14211 36.0128 9.18809 36.0128C9.23866 36.0128 9.28004 36.0289 9.31222 36.0611C9.34901 36.0886 9.3674 36.1369 9.3674 36.2059V40.5438H10.2571C10.3214 40.5438 10.3697 40.5599 10.4019 40.5921C10.4387 40.6197 10.4571 40.6634 10.4571 40.7231C10.4571 40.7875 10.4387 40.8358 10.4019 40.868C10.3697 40.9001 10.3214 40.9162 10.2571 40.9162H7.98809Z" fill="black"/>
<path d="M26.9551 50.8029C26.9275 50.8535 26.8953 50.8857 26.8586 50.8995C26.8218 50.9179 26.785 50.9225 26.7482 50.9133C26.7114 50.9041 26.6792 50.8857 26.6517 50.8581C26.6287 50.8305 26.6149 50.796 26.6103 50.7547C26.6057 50.7133 26.6172 50.6696 26.6448 50.6236L29.3551 45.8857C29.3827 45.8351 29.4149 45.8029 29.4517 45.7891C29.4884 45.7708 29.5252 45.7662 29.562 45.7753C29.5988 45.7845 29.6287 45.8052 29.6517 45.8374C29.6792 45.865 29.6953 45.8995 29.6999 45.9409C29.7045 45.9822 29.693 46.0259 29.6654 46.0719L26.9551 50.8029ZM26.5413 48.8236C26.1873 48.8236 25.9068 48.6949 25.6999 48.4374C25.4976 48.1753 25.3965 47.8075 25.3965 47.334C25.3965 47.0213 25.4425 46.7547 25.5344 46.534C25.6264 46.3133 25.7574 46.1455 25.9275 46.0305C26.1022 45.911 26.3068 45.8512 26.5413 45.8512C26.8953 45.8512 27.1758 45.9822 27.3827 46.2443C27.5896 46.5018 27.693 46.865 27.693 47.334C27.693 47.6512 27.6471 47.9202 27.5551 48.1409C27.4632 48.3616 27.3321 48.5317 27.162 48.6512C26.9919 48.7662 26.785 48.8236 26.5413 48.8236ZM26.5413 48.4995C26.7022 48.4995 26.8402 48.4558 26.9551 48.3685C27.07 48.2765 27.1574 48.1455 27.2172 47.9753C27.2769 47.8006 27.3068 47.5868 27.3068 47.334C27.3068 46.957 27.2379 46.6719 27.0999 46.4788C26.9666 46.2811 26.7804 46.1822 26.5413 46.1822C26.385 46.1822 26.2494 46.2259 26.1344 46.3133C26.0195 46.4006 25.9321 46.5294 25.8723 46.6995C25.8126 46.8696 25.7827 47.0811 25.7827 47.334C25.7827 47.7202 25.8494 48.0121 25.9827 48.2098C26.1206 48.4029 26.3068 48.4995 26.5413 48.4995ZM29.7689 50.8236C29.4149 50.8236 29.1344 50.6949 28.9275 50.4374C28.7252 50.1799 28.6241 49.8121 28.6241 49.334C28.6241 49.0213 28.67 48.7547 28.762 48.534C28.854 48.3133 28.985 48.1455 29.1551 48.0305C29.3298 47.911 29.5344 47.8512 29.7689 47.8512C30.1275 47.8512 30.408 47.9822 30.6103 48.2443C30.8172 48.5018 30.9206 48.865 30.9206 49.334C30.9206 49.6512 30.8746 49.9225 30.7827 50.1478C30.6907 50.3685 30.5597 50.5363 30.3896 50.6512C30.2195 50.7662 30.0126 50.8236 29.7689 50.8236ZM29.7689 50.4995C29.9298 50.4995 30.0677 50.4558 30.1827 50.3685C30.2976 50.2811 30.385 50.1501 30.4448 49.9753C30.5045 49.8006 30.5344 49.5868 30.5344 49.334C30.5344 48.957 30.4654 48.6719 30.3275 48.4788C30.1942 48.2811 30.008 48.1822 29.7689 48.1822C29.6126 48.1822 29.4769 48.2259 29.362 48.3133C29.2471 48.4006 29.1597 48.5294 29.0999 48.6995C29.0402 48.8696 29.0103 49.0811 29.0103 49.334C29.0103 49.7202 29.0769 50.0121 29.2103 50.2098C29.3482 50.4029 29.5344 50.4995 29.7689 50.4995Z" fill="#A6A6A6"/>
<path d="M22.9092 50.8236C22.3621 50.8236 21.946 50.6121 21.6609 50.1891C21.3805 49.7615 21.2402 49.1454 21.2402 48.3409C21.2402 47.7937 21.3023 47.3363 21.4264 46.9684C21.5552 46.6006 21.7437 46.3225 21.992 46.134C22.2402 45.9454 22.546 45.8512 22.9092 45.8512C23.4609 45.8512 23.877 46.0604 24.1575 46.4788C24.4379 46.8972 24.5782 47.5156 24.5782 48.334C24.5782 48.8719 24.5138 49.3271 24.3851 49.6995C24.2609 50.0719 24.0747 50.3523 23.8264 50.5409C23.5782 50.7294 23.2724 50.8236 22.9092 50.8236ZM22.9092 50.4443C23.3276 50.4443 23.6379 50.2719 23.8402 49.9271C24.0425 49.5822 24.1437 49.0512 24.1437 48.334C24.1437 47.6075 24.0425 47.0765 23.8402 46.7409C23.6425 46.4006 23.3322 46.2305 22.9092 46.2305C22.4908 46.2305 22.1805 46.4006 21.9782 46.7409C21.7759 47.0811 21.6747 47.6121 21.6747 48.334C21.6747 49.0512 21.7759 49.5822 21.9782 49.9271C22.1805 50.2719 22.4908 50.4443 22.9092 50.4443Z" fill="#A6A6A6"/>
<path d="M17.7674 50.7685C17.7076 50.7685 17.6593 50.7524 17.6226 50.7202C17.5858 50.6834 17.5674 50.6351 17.5674 50.5754C17.5674 50.5156 17.5858 50.4719 17.6226 50.4443C17.6593 50.4121 17.7076 50.3961 17.7674 50.3961H18.726V46.2443H18.9674L17.9674 46.9271C17.9214 46.9593 17.8777 46.9754 17.8363 46.9754C17.795 46.9708 17.7605 46.9547 17.7329 46.9271C17.7053 46.8995 17.6846 46.8673 17.6708 46.8305C17.6616 46.7938 17.6639 46.7547 17.6777 46.7133C17.6915 46.6719 17.7214 46.6374 17.7674 46.6098L18.7191 45.9478C18.7651 45.9202 18.8065 45.8995 18.8432 45.8857C18.88 45.8719 18.9214 45.865 18.9674 45.865C19.018 45.865 19.0593 45.8811 19.0915 45.9133C19.1283 45.9409 19.1467 45.9892 19.1467 46.0581V50.3961H20.0363C20.1007 50.3961 20.149 50.4121 20.1812 50.4443C20.218 50.4719 20.2363 50.5156 20.2363 50.5754C20.2363 50.6397 20.218 50.688 20.1812 50.7202C20.149 50.7524 20.1007 50.7685 20.0363 50.7685H17.7674Z" fill="#A6A6A6"/>
<path d="M15.9968 51.3892C15.9554 51.4398 15.914 51.4673 15.8727 51.4719C15.8313 51.4811 15.7945 51.4742 15.7623 51.4512C15.7347 51.4283 15.7186 51.3961 15.714 51.3547C15.714 51.3133 15.7347 51.265 15.7761 51.2099C15.8359 51.1271 15.8796 51.0398 15.9071 50.9478C15.9347 50.8558 15.9485 50.7708 15.9485 50.6926L15.9761 50.7892C15.875 50.7892 15.7922 50.7593 15.7278 50.6995C15.6681 50.6398 15.6382 50.5639 15.6382 50.4719C15.6382 50.38 15.6658 50.3041 15.7209 50.2443C15.7761 50.1846 15.852 50.1547 15.9485 50.1547C16.0451 50.1547 16.1209 50.1892 16.1761 50.2581C16.2359 50.3225 16.2658 50.4214 16.2658 50.5547C16.2658 50.6375 16.2566 50.7271 16.2382 50.8237C16.2244 50.9248 16.1968 51.0237 16.1554 51.1202C16.114 51.2168 16.0612 51.3064 15.9968 51.3892Z" fill="#A6A6A6"/>
<path d="M13.1304 50.8236C12.5833 50.8236 12.1672 50.6121 11.8821 50.1891C11.6017 49.7615 11.4614 49.1454 11.4614 48.3409C11.4614 47.7937 11.5235 47.3363 11.6476 46.9684C11.7764 46.6006 11.9649 46.3225 12.2131 46.134C12.4614 45.9454 12.7672 45.8512 13.1304 45.8512C13.6821 45.8512 14.0982 46.0604 14.3787 46.4788C14.6591 46.8972 14.7994 47.5156 14.7994 48.334C14.7994 48.8719 14.735 49.3271 14.6063 49.6995C14.4821 50.0719 14.2959 50.3523 14.0476 50.5409C13.7994 50.7294 13.4936 50.8236 13.1304 50.8236ZM13.1304 50.4443C13.5488 50.4443 13.8591 50.2719 14.0614 49.9271C14.2637 49.5822 14.3649 49.0512 14.3649 48.334C14.3649 47.6075 14.2637 47.0765 14.0614 46.7409C13.8637 46.4006 13.5534 46.2305 13.1304 46.2305C12.712 46.2305 12.4017 46.4006 12.1994 46.7409C11.9971 47.0811 11.8959 47.6121 11.8959 48.334C11.8959 49.0512 11.9971 49.5822 12.1994 49.9271C12.4017 50.2719 12.712 50.4443 13.1304 50.4443Z" fill="#A6A6A6"/>
<path d="M8.99513 50.534C8.93536 50.534 8.88939 50.5179 8.8572 50.4857C8.82962 50.4535 8.81582 50.4099 8.81582 50.3547V48.9616H7.45031C7.39513 48.9616 7.35146 48.9478 7.31927 48.9202C7.28709 48.888 7.271 48.8443 7.271 48.7892C7.271 48.734 7.28709 48.6926 7.31927 48.665C7.35146 48.6329 7.39513 48.6168 7.45031 48.6168H8.81582V47.265C8.81582 47.2099 8.82962 47.1662 8.8572 47.134C8.88939 47.1018 8.93536 47.0857 8.99513 47.0857C9.0549 47.0857 9.09858 47.1018 9.12617 47.134C9.15835 47.1662 9.17444 47.2099 9.17444 47.265V48.6168H10.54C10.5997 48.6168 10.6434 48.6329 10.671 48.665C10.7032 48.6926 10.7193 48.734 10.7193 48.7892C10.7193 48.8489 10.7032 48.8926 10.671 48.9202C10.6434 48.9478 10.5997 48.9616 10.54 48.9616H9.17444V50.3547C9.17444 50.4099 9.15835 50.4535 9.12617 50.4857C9.09858 50.5179 9.0549 50.534 8.99513 50.534Z" fill="#A6A6A6"/>
<path fill-rule="evenodd" clip-rule="evenodd" d="M70.9657 29.5862H6.92627V29.0936H70.9657V29.5862Z" fill="black"/>
<g clip-path="url(#clip0_2002_401)">
<path d="M6.92627 9.88177H21.7046V24.6601H6.92627V9.88177Z" fill="#0065B3"/>
<path d="M13.5158 19.9334C12.7117 21.0708 11.5176 21.4891 11.1038 21.0708C10.7615 20.7251 10.7982 19.8413 11.3381 18.72C10.8752 18.1488 10.6221 17.4361 10.6211 16.7009C10.6211 14.9571 12.0427 13.5764 13.7966 13.5764C14.3067 13.5764 14.787 13.693 15.2121 13.9015C15.7866 13.4186 16.3247 13.0317 16.7322 12.7847C16.5944 12.9237 16.4292 13.0839 16.2445 13.2631C15.98 13.5183 15.7182 13.7762 15.4591 14.0369C15.9173 14.3139 16.2958 14.7049 16.5579 15.1717C16.82 15.6385 16.9567 16.1653 16.9547 16.7007C16.9547 17.2068 16.8364 17.6895 16.6256 18.1196C18.1974 18.621 20.9131 18.7963 20.9131 18.7963L16.0424 18.9501C15.4716 19.5397 14.678 19.9099 13.7966 19.9099C13.0537 19.9099 12.3702 19.6468 11.8292 19.2109C11.4928 20.1604 11.6944 20.5317 12.0683 20.5831C12.5106 20.6441 13.1941 20.2585 13.5158 19.9334ZM11.9298 18.9485C12.4291 19.3697 13.0767 19.622 13.7966 19.622C14.5511 19.622 15.2222 19.3452 15.7259 18.8873L14.6413 17.0089C14.6413 17.0089 15.3626 17.6161 16.2495 17.9837C16.2881 17.9996 16.3279 18.0154 16.3688 18.031C16.5708 17.6167 16.6749 17.1615 16.6731 16.7007C16.6731 15.616 16.1186 14.7151 15.2639 14.2364C14.7899 14.7246 14.2882 15.278 13.8375 15.8715L13.7821 15.9446C13.041 16.9197 12.5906 17.5124 12.0683 18.6337C12.0169 18.744 11.9707 18.8491 11.9298 18.9485ZM11.4711 18.4585C11.5537 18.3038 11.6455 18.1455 11.7469 17.984C12.3602 17.0052 12.737 16.427 13.5158 15.5469C13.9731 15.0333 14.4629 14.5496 14.982 14.0986C14.6065 13.942 14.2034 13.8624 13.7966 13.8645C12.1636 13.8645 10.9027 15.0772 10.9027 16.7009C10.9027 17.3628 11.1122 17.9708 11.4711 18.4585Z" fill="white"/>
</g>
</g>
<g filter="url(#filter1_d_2002_401)">
<path d="M53 61.4631C53 60.1027 54.1027 59 55.4631 59H124.429C125.789 59 126.892 60.1027 126.892 61.4631V156.537C126.892 157.897 125.789 159 124.429 159H55.4631C54.1027 159 53 157.897 53 156.537V61.4631Z" fill="white"/>
<path d="M53 61.4631C53 60.1027 54.1027 59 55.4631 59H124.429C125.789 59 126.892 60.1027 126.892 61.4631V156.537C126.892 157.897 125.789 159 124.429 159H55.4631C54.1027 159 53 157.897 53 156.537V61.4631Z" fill="white"/>
<rect x="57.9263" y="142.251" width="22.0499" height="7.47586" rx="3" fill="#292929"/>
<path d="M74.3243 147.185C74.2727 147.185 74.2332 147.173 74.2059 147.148C74.1816 147.121 74.1694 147.083 74.1694 147.034V145.09C74.1694 145.041 74.1816 145.005 74.2059 144.98C74.2302 144.956 74.2651 144.944 74.3106 144.944C74.3531 144.944 74.3865 144.956 74.4108 144.98C74.4351 145.005 74.4473 145.041 74.4473 145.09V145.791H75.1533C75.4296 145.791 75.6391 145.852 75.7818 145.973C75.9276 146.095 76.0005 146.265 76.0005 146.483C76.0005 146.629 75.9671 146.755 75.9003 146.861C75.8365 146.968 75.7424 147.048 75.6179 147.103C75.4934 147.157 75.3385 147.185 75.1533 147.185H74.3243ZM74.4473 146.971H75.1442C75.3264 146.971 75.4676 146.931 75.5678 146.852C75.671 146.773 75.7226 146.652 75.7226 146.488C75.7226 146.321 75.671 146.198 75.5678 146.119C75.4676 146.04 75.3264 146.001 75.1442 146.001H74.4473V146.971Z" fill="white"/>
<path d="M72.8045 147.212C72.762 147.212 72.7286 147.2 72.7043 147.176C72.68 147.151 72.6678 147.116 72.6678 147.071V145.208H71.9482C71.8571 145.208 71.8115 145.168 71.8115 145.09C71.8115 145.056 71.8237 145.029 71.848 145.008C71.8723 144.986 71.9057 144.976 71.9482 144.976H73.6653C73.7534 144.976 73.7974 145.014 73.7974 145.09C73.7974 145.126 73.7853 145.155 73.761 145.176C73.7397 145.197 73.7079 145.208 73.6653 145.208H72.9457V147.071C72.9457 147.116 72.9335 147.151 72.9092 147.176C72.888 147.2 72.8531 147.212 72.8045 147.212Z" fill="white"/>
<path d="M69.7154 147.212C69.6911 147.212 69.6684 147.208 69.6471 147.198C69.6289 147.189 69.6137 147.174 69.6016 147.153C69.5924 147.129 69.5879 147.098 69.5879 147.062V145.085C69.5879 145.039 69.5985 145.005 69.6198 144.98C69.6441 144.956 69.6775 144.944 69.72 144.944C69.7595 144.944 69.7898 144.956 69.8111 144.98C69.8323 145.005 69.843 145.039 69.843 145.085V146.939H69.7336L71.1502 145.035C71.1715 145.008 71.1942 144.986 71.2185 144.971C71.2428 144.953 71.2747 144.944 71.3142 144.944C71.3415 144.944 71.3643 144.95 71.3825 144.962C71.4007 144.971 71.4144 144.986 71.4235 145.008C71.4356 145.029 71.4417 145.058 71.4417 145.094V147.075C71.4417 147.118 71.4296 147.151 71.4053 147.176C71.384 147.2 71.3536 147.212 71.3142 147.212C71.2717 147.212 71.2398 147.2 71.2185 147.176C71.1973 147.151 71.1866 147.118 71.1866 147.075V145.222H71.296L69.8748 147.126C69.8566 147.15 69.8354 147.17 69.8111 147.185C69.7868 147.203 69.7549 147.212 69.7154 147.212Z" fill="white"/>
<path d="M67.1134 147.212C67.0678 147.212 67.0329 147.2 67.0086 147.176C66.9843 147.151 66.9722 147.116 66.9722 147.071V145.135C66.9722 145.083 66.9858 145.044 67.0132 145.017C67.0405 144.989 67.08 144.976 67.1316 144.976H68.662C68.7136 144.976 68.7531 144.989 68.7804 145.017C68.8078 145.044 68.8214 145.083 68.8214 145.135V147.071C68.8214 147.116 68.8093 147.151 68.785 147.176C68.7607 147.2 68.7258 147.212 68.6802 147.212C68.6377 147.212 68.6043 147.2 68.58 147.176C68.5557 147.151 68.5436 147.116 68.5436 147.071V145.203H67.25V147.071C67.25 147.116 67.2379 147.151 67.2136 147.176C67.1923 147.2 67.1589 147.212 67.1134 147.212Z" fill="white"/>
<path d="M65.084 148.032C65.0476 148.032 65.0188 148.021 64.9975 148C64.9762 147.982 64.9641 147.956 64.9611 147.923C64.9611 147.892 64.9671 147.86 64.9793 147.827L65.2936 147.112V147.239L64.4008 145.153C64.3856 145.117 64.3796 145.083 64.3826 145.053C64.3887 145.02 64.4023 144.994 64.4236 144.976C64.4479 144.954 64.4813 144.944 64.5238 144.944C64.5633 144.944 64.5921 144.953 64.6103 144.971C64.6316 144.989 64.6498 145.018 64.665 145.058L65.4758 147.021H65.3619L66.1726 145.058C66.1909 145.015 66.2106 144.986 66.2319 144.971C66.2531 144.953 66.2835 144.944 66.323 144.944C66.3624 144.944 66.3913 144.954 66.4095 144.976C66.4308 144.994 66.4429 145.018 66.4459 145.049C66.449 145.079 66.4429 145.112 66.4277 145.149L65.2389 147.923C65.2207 147.965 65.1994 147.994 65.1751 148.009C65.1539 148.024 65.1235 148.032 65.084 148.032Z" fill="white"/>
<path d="M62.039 147.212C61.9965 147.212 61.9631 147.2 61.9388 147.176C61.9145 147.148 61.9023 147.112 61.9023 147.066V144.087C61.9023 144.042 61.9145 144.007 61.9388 143.983C61.9631 143.958 61.9965 143.946 62.039 143.946C62.0845 143.946 62.1195 143.958 62.1438 143.983C62.168 144.007 62.1802 144.042 62.1802 144.087V145.436H62.8543L62.7495 145.504L63.7471 144.019C63.7683 143.989 63.7926 143.969 63.8199 143.96C63.8473 143.948 63.8746 143.945 63.9019 143.951C63.9292 143.957 63.952 143.971 63.9702 143.992C63.9885 144.01 63.9991 144.033 64.0021 144.06C64.0082 144.087 64.0006 144.118 63.9793 144.151L63.0319 145.545L62.9363 145.445C63.1124 145.463 63.2642 145.527 63.3918 145.636C63.5223 145.742 63.6347 145.891 63.7288 146.083L64.1934 147.021C64.2116 147.054 64.2162 147.086 64.2071 147.116C64.201 147.144 64.1858 147.165 64.1615 147.18C64.1403 147.195 64.1145 147.205 64.0841 147.208C64.0568 147.211 64.0295 147.205 64.0021 147.189C63.9748 147.177 63.9535 147.154 63.9384 147.121L63.5102 146.237C63.413 146.037 63.3037 145.894 63.1823 145.809C63.0638 145.724 62.9181 145.682 62.745 145.682H62.1802V147.066C62.1802 147.112 62.168 147.148 62.1438 147.176C62.1225 147.2 62.0876 147.212 62.039 147.212Z" fill="white"/>
<path fill-rule="evenodd" clip-rule="evenodd" d="M113.484 109.088L115.58 114.12L116.01 128.926L118.16 121.911L119.617 127.207L122.271 124.111L122.645 124.431L119.388 128.231L118.135 123.675L116.043 130.501L115.562 130.436L115.091 114.225L113.698 110.882L111.316 125.886L101.864 120.736L100.628 113.466L99.3045 130.448L98.8238 130.502L96.4423 122.874L93.5386 132.018L93.2768 131.877C93.1666 131.817 93.074 131.722 92.996 131.619C92.9162 131.514 92.8403 131.385 92.7678 131.241C92.623 130.953 92.4811 130.583 92.3445 130.164C92.0708 129.325 91.8085 128.262 91.5809 127.211C91.3531 126.159 91.1587 125.113 91.0212 124.305C90.9525 123.902 90.8978 123.556 90.8603 123.299C90.8244 123.054 90.8005 122.865 90.8005 122.793C90.8005 122.737 90.772 122.599 90.7041 122.38C90.6399 122.173 90.55 121.921 90.4486 121.656C90.3333 121.353 90.2046 121.037 90.0852 120.752L89.2971 122.928L86.7425 125.493L86.637 125.069C86.3914 124.083 85.8047 121.826 85.4155 120.654C85.2352 120.111 85.0095 120.017 84.8742 120.009C84.7069 120 84.5128 120.104 84.3718 120.238L79.7602 127.864V121.069C79.516 121.415 79.1943 121.933 78.8671 122.466C78.8122 122.556 78.7572 122.646 78.7025 122.735C78.4224 123.193 78.1491 123.639 77.9349 123.963C77.809 124.154 77.6943 124.316 77.6063 124.414C77.5835 124.439 77.5579 124.465 77.5304 124.487C77.5085 124.505 77.461 124.542 77.3954 124.557C77.3584 124.566 77.3046 124.571 77.2453 124.551C77.183 124.53 77.1384 124.489 77.1102 124.446C77.0631 124.375 77.0615 124.3 77.0615 124.271C77.0615 124.008 76.9865 123.602 76.8845 123.184C76.8148 122.899 76.7353 122.619 76.6665 122.394L73.9971 123.612L72.4171 120.175L70.9231 115.749L70.4381 127.011L69.4526 131.711L68.9739 131.725C68.7276 130.818 68.19 128.872 67.9964 128.289C67.9181 128.053 67.7298 127.821 67.5027 127.62C67.4187 127.546 67.3324 127.479 67.2498 127.42V131.906H65.7452L65.2846 135.143L64.8092 135.192L62.343 128.384V135.97L60.7332 133.384H59.5558L58.1497 136.443L57.7021 136.237L59.2401 132.892H61.0068L61.8504 134.247V126.98L62.3283 126.896L64.9361 134.096L65.2852 131.643C65.2859 131.228 65.3108 130.631 65.3867 130.179C65.4235 129.959 65.4781 129.733 65.5715 129.584C65.6178 129.511 65.7056 129.406 65.8515 129.384C66.0045 129.361 66.1234 129.442 66.1966 129.516C66.3426 129.662 66.4166 129.858 66.4528 130.049C66.4893 130.242 66.4915 130.453 66.4763 130.656C66.4565 130.92 66.406 131.188 66.3493 131.414H66.7572V126.581L67.114 126.76C67.2951 126.851 67.5707 127.023 67.8291 127.252C68.0846 127.478 68.3461 127.779 68.464 128.134C68.6057 128.561 68.9213 129.679 69.1796 130.613L69.9477 126.95L70.4877 114.408L70.9672 114.34L72.8755 119.993L74.2395 122.96L76.9644 121.716L77.0508 121.977C77.1344 122.228 77.259 122.641 77.363 123.067C77.4162 123.285 77.4656 123.512 77.5008 123.727C77.5084 123.715 77.5161 123.704 77.524 123.692C77.7329 123.376 78.0006 122.938 78.2808 122.48C78.3359 122.39 78.3915 122.3 78.4472 122.209C78.7834 121.66 79.1254 121.11 79.3844 120.747C79.5088 120.573 79.6319 120.416 79.7353 120.332C79.7627 120.31 79.8005 120.283 79.8462 120.264C79.89 120.246 79.9736 120.223 80.067 120.26C80.1659 120.299 80.2118 120.38 80.231 120.434C80.2494 120.486 80.2528 120.538 80.2528 120.576V126.097L83.9818 119.931L84.0028 119.91C84.1876 119.724 84.5226 119.495 84.9033 119.518C85.3241 119.543 85.6709 119.86 85.8831 120.499C86.2297 121.543 86.7259 123.417 87.0085 124.528L88.8711 122.658L90.0425 119.424L90.2906 119.984C90.4554 120.356 90.7025 120.939 90.9089 121.48C91.012 121.75 91.1061 122.013 91.1747 122.235C91.2398 122.445 91.2931 122.652 91.2931 122.793C91.2931 122.793 91.2931 122.795 91.2935 122.801C91.2939 122.808 91.2947 122.817 91.2957 122.829C91.2979 122.852 91.3013 122.883 91.306 122.922C91.3153 122.999 91.3293 123.102 91.3477 123.228C91.3846 123.481 91.4386 123.822 91.5068 124.223C91.6433 125.025 91.8364 126.063 92.0624 127.107C92.2887 128.152 92.5468 129.196 92.8128 130.011C92.9461 130.42 93.079 130.764 93.2078 131.02C93.2361 131.076 93.2637 131.127 93.2904 131.172L96.4462 121.234L98.9128 129.134L100.291 111.444L100.78 111.422L102.31 120.417L110.939 125.119L113.484 109.088ZM65.7779 131.614L65.7884 131.583C65.8655 131.35 65.9583 130.976 65.9851 130.62C65.9984 130.441 65.9945 130.277 65.9687 130.14C65.9583 130.085 65.9449 130.038 65.9293 129.998C65.9099 130.066 65.8904 130.153 65.8725 130.26C65.8049 130.664 65.7797 131.212 65.7779 131.614ZM80.0505 120.711C80.0506 120.711 80.0503 120.711 80.0498 120.712L80.0505 120.711ZM79.7601 120.573C79.76 120.572 79.76 120.571 79.76 120.571L79.7601 120.573Z" fill="#00CF6C"/>
<path d="M105.396 77.2976C105.106 77.2976 104.846 77.2414 104.616 77.1291C104.391 77.0168 104.211 76.8631 104.075 76.668C103.945 76.473 103.88 76.2543 103.88 76.0119C103.88 75.6927 103.96 75.4414 104.119 75.2582C104.279 75.0749 104.548 74.9479 104.926 74.8769C105.305 74.8001 105.825 74.7616 106.487 74.7616H106.868V75.1607H106.496C105.964 75.1607 105.547 75.1843 105.245 75.2316C104.95 75.273 104.743 75.3528 104.625 75.471C104.506 75.5892 104.447 75.7547 104.447 75.9676C104.447 76.2336 104.539 76.4493 104.722 76.6148C104.905 76.7804 105.154 76.8631 105.467 76.8631C105.721 76.8631 105.943 76.804 106.132 76.6858C106.327 76.5616 106.481 76.3932 106.593 76.1804C106.705 75.9676 106.762 75.7252 106.762 75.4533V74.4424C106.762 74.0464 106.682 73.7597 106.522 73.5823C106.363 73.3991 106.108 73.3075 105.76 73.3075C105.535 73.3075 105.316 73.337 105.104 73.3961C104.897 73.4552 104.675 73.5498 104.439 73.6799C104.373 73.7153 104.314 73.7272 104.261 73.7153C104.214 73.7035 104.175 73.6799 104.146 73.6444C104.122 73.6089 104.105 73.5676 104.093 73.5203C104.087 73.4671 104.096 73.4168 104.119 73.3695C104.143 73.3222 104.184 73.2838 104.243 73.2543C104.492 73.1183 104.743 73.0178 104.997 72.9528C105.257 72.8818 105.508 72.8464 105.751 72.8464C106.1 72.8464 106.386 72.9055 106.611 73.0237C106.841 73.1419 107.01 73.3193 107.116 73.5557C107.229 73.7922 107.285 74.0966 107.285 74.469V77.005C107.285 77.0937 107.264 77.1616 107.223 77.2089C107.181 77.2562 107.119 77.2799 107.037 77.2799C106.954 77.2799 106.889 77.2562 106.841 77.2089C106.794 77.1616 106.771 77.0937 106.771 77.005V76.1892H106.859C106.806 76.4198 106.711 76.6178 106.575 76.7833C106.439 76.9488 106.271 77.0759 106.07 77.1646C105.869 77.2533 105.644 77.2976 105.396 77.2976Z" fill="black"/>
<path d="M101.014 77.2976C100.612 77.2976 100.269 77.1942 99.9855 76.9873C99.7018 76.7804 99.5097 76.5025 99.4092 76.1538L99.5067 76.1006V77.005C99.5067 77.0937 99.4831 77.1617 99.4358 77.2089C99.3885 77.2562 99.3235 77.2799 99.2407 77.2799C99.152 77.2799 99.084 77.2562 99.0368 77.2089C98.9895 77.1617 98.9658 77.0937 98.9658 77.005V71.1971C98.9658 71.1025 98.9895 71.0346 99.0368 70.9932C99.084 70.9459 99.152 70.9222 99.2407 70.9222C99.3235 70.9222 99.3885 70.9459 99.4358 70.9932C99.4831 71.0346 99.5067 71.1025 99.5067 71.1971V73.9902H99.4092C99.5097 73.6415 99.7018 73.3636 99.9855 73.1567C100.269 72.9498 100.612 72.8464 101.014 72.8464C101.404 72.8464 101.741 72.938 102.025 73.1213C102.309 73.3045 102.527 73.5617 102.681 73.8927C102.841 74.2237 102.921 74.6168 102.921 75.072C102.921 75.5272 102.841 75.9232 102.681 76.2602C102.527 76.5912 102.306 76.8484 102.016 77.0316C101.732 77.2089 101.398 77.2976 101.014 77.2976ZM100.934 76.8454C101.224 76.8454 101.475 76.7774 101.688 76.6415C101.907 76.4996 102.075 76.2956 102.193 76.0296C102.312 75.7636 102.371 75.4444 102.371 75.072C102.371 74.5104 102.241 74.0759 101.981 73.7685C101.721 73.4612 101.372 73.3075 100.934 73.3075C100.645 73.3075 100.39 73.3784 100.172 73.5203C99.9589 73.6562 99.7934 73.8572 99.6752 74.1232C99.557 74.3833 99.4978 74.6996 99.4978 75.072C99.4978 75.6395 99.6279 76.0769 99.888 76.3843C100.148 76.6917 100.497 76.8454 100.934 76.8454Z" fill="black"/>
<path d="M95.6632 77.2976C95.3736 77.2976 95.1135 77.2414 94.8829 77.1291C94.6583 77.0168 94.478 76.8631 94.342 76.668C94.212 76.473 94.147 76.2543 94.147 76.0119C94.147 75.6927 94.2268 75.4414 94.3864 75.2582C94.546 75.0749 94.815 74.9479 95.1933 74.8769C95.5716 74.8001 96.0918 74.7616 96.7539 74.7616H97.1352V75.1607H96.7627C96.2307 75.1607 95.814 75.1843 95.5125 75.2316C95.2169 75.273 95.01 75.3528 94.8918 75.471C94.7736 75.5892 94.7145 75.7547 94.7145 75.9676C94.7145 76.2336 94.8061 76.4493 94.9893 76.6148C95.1726 76.7804 95.4209 76.8631 95.7342 76.8631C95.9884 76.8631 96.21 76.804 96.3992 76.6858C96.5943 76.5616 96.748 76.3932 96.8603 76.1804C96.9726 75.9676 97.0287 75.7252 97.0287 75.4533V74.4424C97.0287 74.0464 96.9489 73.7597 96.7893 73.5823C96.6297 73.3991 96.3755 73.3075 96.0268 73.3075C95.8021 73.3075 95.5834 73.337 95.3706 73.3961C95.1637 73.4552 94.942 73.5498 94.7056 73.6799C94.6406 73.7153 94.5815 73.7272 94.5283 73.7153C94.481 73.7035 94.4425 73.6799 94.413 73.6444C94.3893 73.6089 94.3716 73.5676 94.3598 73.5203C94.3539 73.4671 94.3627 73.4168 94.3864 73.3695C94.41 73.3222 94.4514 73.2838 94.5105 73.2543C94.7588 73.1183 95.01 73.0178 95.2642 72.9528C95.5243 72.8818 95.7755 72.8464 96.0179 72.8464C96.3667 72.8464 96.6534 72.9055 96.878 73.0237C97.1085 73.1419 97.277 73.3193 97.3834 73.5557C97.4957 73.7922 97.5519 74.0966 97.5519 74.469V77.005C97.5519 77.0937 97.5312 77.1616 97.4898 77.2089C97.4485 77.2562 97.3864 77.2799 97.3036 77.2799C97.2209 77.2799 97.1558 77.2562 97.1085 77.2089C97.0613 77.1616 97.0376 77.0937 97.0376 77.005V76.1892H97.1263C97.0731 76.4198 96.9785 76.6178 96.8425 76.7833C96.7066 76.9488 96.5381 77.0759 96.3371 77.1646C96.1361 77.2533 95.9115 77.2976 95.6632 77.2976Z" fill="black"/>
<path d="M91.2812 77.2976C90.8792 77.2976 90.5364 77.1942 90.2526 76.9873C89.9689 76.7804 89.7768 76.5025 89.6763 76.1538L89.7738 76.1006V77.005C89.7738 77.0937 89.7502 77.1617 89.7029 77.2089C89.6556 77.2562 89.5905 77.2799 89.5078 77.2799C89.4191 77.2799 89.3511 77.2562 89.3038 77.2089C89.2566 77.1617 89.2329 77.0937 89.2329 77.005V71.1971C89.2329 71.1025 89.2566 71.0346 89.3038 70.9932C89.3511 70.9459 89.4191 70.9222 89.5078 70.9222C89.5905 70.9222 89.6556 70.9459 89.7029 70.9932C89.7502 71.0346 89.7738 71.1025 89.7738 71.1971V73.9902H89.6763C89.7768 73.6415 89.9689 73.3636 90.2526 73.1567C90.5364 72.9498 90.8792 72.8464 91.2812 72.8464C91.6713 72.8464 92.0083 72.938 92.292 73.1213C92.5758 73.3045 92.7945 73.5617 92.9482 73.8927C93.1078 74.2237 93.1876 74.6168 93.1876 75.072C93.1876 75.5272 93.1078 75.9232 92.9482 76.2602C92.7945 76.5912 92.5728 76.8484 92.2832 77.0316C91.9994 77.2089 91.6654 77.2976 91.2812 77.2976ZM91.2014 76.8454C91.491 76.8454 91.7423 76.7774 91.9551 76.6415C92.1738 76.4996 92.3423 76.2956 92.4605 76.0296C92.5787 75.7636 92.6378 75.4444 92.6378 75.072C92.6378 74.5104 92.5078 74.0759 92.2477 73.7685C91.9876 73.4612 91.6388 73.3075 91.2014 73.3075C90.9117 73.3075 90.6575 73.3784 90.4388 73.5203C90.226 73.6562 90.0605 73.8572 89.9423 74.1232C89.824 74.3833 89.7649 74.6996 89.7649 75.072C89.7649 75.6395 89.895 76.0769 90.1551 76.3843C90.4152 76.6917 90.7639 76.8454 91.2014 76.8454Z" fill="black"/>
<path d="M87.542 77.2621C87.4533 77.2621 87.3854 77.2355 87.3381 77.1823C87.2908 77.1291 87.2671 77.0582 87.2671 76.9695V73.1745C87.2671 73.0799 87.2908 73.0089 87.3381 72.9617C87.3854 72.9144 87.4533 72.8907 87.542 72.8907C87.6248 72.8907 87.6898 72.9144 87.7371 72.9617C87.7844 73.0089 87.808 73.0799 87.808 73.1745V76.9695C87.808 77.0582 87.7844 77.1291 87.7371 77.1823C87.6957 77.2355 87.6307 77.2621 87.542 77.2621ZM87.542 71.8178C87.4179 71.8178 87.3203 71.7853 87.2494 71.7203C87.1844 71.6552 87.1519 71.5636 87.1519 71.4454C87.1519 71.3272 87.1844 71.2385 87.2494 71.1794C87.3203 71.1144 87.4179 71.0818 87.542 71.0818C87.6661 71.0818 87.7607 71.1144 87.8257 71.1794C87.8967 71.2385 87.9322 71.3272 87.9322 71.4454C87.9322 71.5636 87.8967 71.6552 87.8257 71.7203C87.7607 71.7853 87.6661 71.8178 87.542 71.8178Z" fill="black"/>
<path d="M85.9801 77.2976C85.5841 77.2976 85.2767 77.1735 85.058 76.9252C84.8452 76.6769 84.7388 76.3252 84.7388 75.87V71.1971C84.7388 71.1025 84.7624 71.0346 84.8097 70.9932C84.857 70.9459 84.925 70.9222 85.0136 70.9222C85.0964 70.9222 85.1614 70.9459 85.2087 70.9932C85.256 71.0346 85.2797 71.1025 85.2797 71.1971V75.808C85.2797 76.1508 85.3476 76.408 85.4836 76.5794C85.6196 76.7449 85.8176 76.8277 86.0777 76.8277C86.1368 76.8277 86.187 76.8247 86.2284 76.8188C86.2698 76.8129 86.3112 76.8099 86.3526 76.8099C86.4058 76.804 86.4442 76.8158 86.4678 76.8454C86.4974 76.869 86.5122 76.9222 86.5122 77.005C86.5122 77.0878 86.4915 77.1498 86.4501 77.1912C86.4087 77.2326 86.3407 77.2621 86.2462 77.2799C86.2048 77.2858 86.1604 77.2887 86.1132 77.2887C86.0718 77.2947 86.0274 77.2976 85.9801 77.2976Z" fill="black"/>
<path d="M78.2244 77.2798C78.1476 77.2798 78.0855 77.2621 78.0382 77.2266C77.9968 77.1971 77.9732 77.1527 77.9673 77.0936C77.9673 77.0345 77.9821 76.9695 78.0116 76.8985L80.5032 71.1705C80.5446 71.0818 80.5949 71.0197 80.654 70.9842C80.7131 70.9429 80.7722 70.9222 80.8313 70.9222C80.9023 70.9222 80.9643 70.9429 81.0175 70.9842C81.0766 71.0197 81.1239 71.0818 81.1594 71.1705L83.651 76.8985C83.6865 76.9695 83.7013 77.0345 83.6954 77.0936C83.6954 77.1527 83.6747 77.1971 83.6333 77.2266C83.5978 77.2621 83.5417 77.2798 83.4648 77.2798C83.3821 77.2798 83.3141 77.2591 83.2609 77.2177C83.2136 77.1705 83.1722 77.1084 83.1367 77.0315L82.454 75.4266L82.7466 75.5596H78.9072L79.2087 75.4266L78.5259 77.0315C78.4904 77.1202 78.4461 77.1852 78.3929 77.2266C78.3456 77.2621 78.2895 77.2798 78.2244 77.2798ZM80.8225 71.6493L79.3151 75.1961L79.1111 75.0897H82.5427L82.3564 75.1961L80.8402 71.6493H80.8225Z" fill="black"/>
<path d="M86.0245 97.9162C85.951 97.9162 85.8935 97.8955 85.8521 97.8541C85.8107 97.8127 85.79 97.753 85.79 97.6748V93.2955C85.79 93.2173 85.8107 93.1576 85.8521 93.1162C85.8935 93.0748 85.951 93.0541 86.0245 93.0541H87.3556C88.128 93.0541 88.7234 93.261 89.1418 93.6748C89.5648 94.0886 89.7762 94.6909 89.7762 95.4817C89.7762 95.8771 89.7211 96.2265 89.6107 96.53C89.505 96.8334 89.3487 97.0886 89.1418 97.2955C88.9349 97.4978 88.682 97.6518 88.3831 97.7576C88.0843 97.8633 87.7418 97.9162 87.3556 97.9162H86.0245ZM86.2107 97.5438H87.3211C87.6567 97.5438 87.9487 97.5001 88.1969 97.4127C88.4498 97.3254 88.659 97.1966 88.8245 97.0265C88.99 96.8564 89.1142 96.6426 89.1969 96.3851C89.2797 96.1231 89.3211 95.8219 89.3211 95.4817C89.3211 94.7966 89.1533 94.284 88.8176 93.9438C88.4866 93.5989 87.9877 93.4265 87.3211 93.4265H86.2107V97.5438Z" fill="black"/>
<path d="M83.118 97.9714C82.8973 97.9714 82.6835 97.953 82.4766 97.9162C82.2697 97.8794 82.0766 97.8242 81.8973 97.7507C81.7226 97.6725 81.564 97.5783 81.4215 97.4679C81.3755 97.4357 81.3433 97.399 81.3249 97.3576C81.3111 97.3116 81.3088 97.2702 81.318 97.2334C81.3318 97.1921 81.3525 97.1576 81.3801 97.13C81.4123 97.1024 81.4491 97.0886 81.4904 97.0886C81.5318 97.084 81.5755 97.0978 81.6215 97.13C81.833 97.2863 82.0559 97.4013 82.2904 97.4748C82.5295 97.5484 82.8054 97.5852 83.118 97.5852C83.5548 97.5852 83.8812 97.5001 84.0973 97.33C84.318 97.1599 84.4284 96.9369 84.4284 96.661C84.4284 96.4311 84.3479 96.2518 84.187 96.1231C84.0307 95.9944 83.7709 95.8932 83.4077 95.8197L82.7111 95.6748C82.2743 95.5875 81.9502 95.4403 81.7387 95.2334C81.5272 95.0265 81.4215 94.7507 81.4215 94.4059C81.4215 94.1944 81.4628 94.0036 81.5456 93.8334C81.6284 93.6587 81.7456 93.5093 81.8973 93.3852C82.0491 93.261 82.2284 93.1668 82.4353 93.1024C82.6468 93.0334 82.8789 92.999 83.1318 92.999C83.4307 92.999 83.7042 93.0403 83.9525 93.1231C84.2054 93.2059 84.4353 93.3369 84.6422 93.5162C84.6835 93.5484 84.7111 93.5875 84.7249 93.6334C84.7387 93.6748 84.7387 93.7162 84.7249 93.7576C84.7111 93.7944 84.6904 93.8243 84.6628 93.8472C84.6353 93.8702 84.6008 93.884 84.5594 93.8886C84.518 93.8886 84.4743 93.8702 84.4284 93.8334C84.2353 93.6771 84.033 93.5645 83.8215 93.4955C83.6146 93.422 83.3847 93.3852 83.1318 93.3852C82.8743 93.3852 82.6491 93.4265 82.4559 93.5093C82.2674 93.5921 82.1203 93.7093 82.0146 93.861C81.9088 94.0128 81.8559 94.1921 81.8559 94.399C81.8559 94.638 81.9295 94.8288 82.0766 94.9714C82.2238 95.1139 82.4605 95.2174 82.787 95.2817L83.4904 95.4265C83.9548 95.5231 84.2996 95.6679 84.5249 95.861C84.7502 96.0495 84.8628 96.3093 84.8628 96.6403C84.8628 96.838 84.8215 97.0197 84.7387 97.1852C84.6605 97.3461 84.5456 97.4863 84.3939 97.6059C84.2422 97.7254 84.0582 97.8174 83.8422 97.8817C83.6307 97.9415 83.3893 97.9714 83.118 97.9714Z" fill="black"/>
<path d="M78.4722 97.9713C78.1642 97.9713 77.8906 97.93 77.6515 97.8472C77.4125 97.7644 77.2125 97.6403 77.0515 97.4748C76.8952 97.3093 76.7757 97.1047 76.6929 96.861C76.6148 96.6173 76.5757 96.3369 76.5757 96.0196V93.2265C76.5757 93.153 76.5941 93.1001 76.6309 93.0679C76.6676 93.0311 76.7182 93.0127 76.7826 93.0127C76.8515 93.0127 76.9044 93.0311 76.9412 93.0679C76.978 93.1001 76.9964 93.153 76.9964 93.2265V95.9851C76.9964 96.5231 77.1205 96.9254 77.3688 97.192C77.6217 97.4541 77.9895 97.5851 78.4722 97.5851C78.9596 97.5851 79.3274 97.4541 79.5757 97.192C79.824 96.9254 79.9481 96.5231 79.9481 95.9851V93.2265C79.9481 93.153 79.9665 93.1001 80.0033 93.0679C80.0401 93.0311 80.0929 93.0127 80.1619 93.0127C80.2263 93.0127 80.2768 93.0311 80.3136 93.0679C80.3504 93.1001 80.3688 93.153 80.3688 93.2265V96.0196C80.3688 96.4426 80.2975 96.8012 80.155 97.0955C80.0125 97.3851 79.7987 97.6035 79.5136 97.7507C79.2332 97.8978 78.886 97.9713 78.4722 97.9713Z" fill="black"/>
<path d="M72.7162 97.9162C72.6334 97.9162 72.5713 97.8978 72.53 97.861C72.4932 97.8197 72.4748 97.7668 72.4748 97.7024C72.4748 97.6656 72.484 97.6288 72.5024 97.5921C72.5208 97.5553 72.546 97.5208 72.5782 97.4886L74.192 95.7438C74.4403 95.4771 74.6196 95.2311 74.73 95.0059C74.8403 94.776 74.8955 94.5415 74.8955 94.3024C74.8955 94.0036 74.8058 93.776 74.6265 93.6197C74.4472 93.4633 74.1851 93.3852 73.8403 93.3852C73.6104 93.3852 73.3966 93.4243 73.1989 93.5024C73.0058 93.576 72.8196 93.6863 72.6403 93.8334C72.5943 93.8702 72.5506 93.8886 72.5093 93.8886C72.4725 93.8886 72.4403 93.8771 72.4127 93.8541C72.3851 93.8265 72.3644 93.7944 72.3506 93.7576C72.3415 93.7162 72.3415 93.6748 72.3506 93.6334C72.3644 93.5921 72.3897 93.5553 72.4265 93.5231C72.6058 93.3668 72.8219 93.2403 73.0748 93.1438C73.3277 93.0472 73.5897 92.999 73.861 92.999C74.1736 92.999 74.438 93.0495 74.6541 93.1507C74.8748 93.2472 75.0426 93.3921 75.1575 93.5852C75.2725 93.7783 75.33 94.0105 75.33 94.2817C75.33 94.4748 75.2978 94.6656 75.2334 94.8541C75.169 95.0426 75.0725 95.2334 74.9437 95.4265C74.8196 95.6197 74.6587 95.822 74.461 96.0334L72.9093 97.6748V97.5438H75.3713C75.4357 97.5438 75.484 97.5599 75.5162 97.5921C75.5529 97.6197 75.5713 97.6633 75.5713 97.7231C75.5713 97.7875 75.5529 97.8357 75.5162 97.8679C75.484 97.9001 75.4357 97.9162 75.3713 97.9162H72.7162Z" fill="black"/>
<path d="M69.9052 97.9713C69.6339 97.9713 69.3649 97.93 69.0983 97.8472C68.8362 97.7599 68.5994 97.6288 68.3879 97.4541C68.3512 97.4219 68.3259 97.3874 68.3121 97.3507C68.3029 97.3093 68.3029 97.2702 68.3121 97.2334C68.3259 97.192 68.3466 97.1599 68.3741 97.1369C68.4017 97.1093 68.4362 97.0955 68.4776 97.0955C68.5236 97.0909 68.5695 97.107 68.6155 97.1438C68.8086 97.2955 69.0132 97.4081 69.2293 97.4817C69.4454 97.5507 69.6707 97.5851 69.9052 97.5851C70.1443 97.5851 70.3489 97.5392 70.519 97.4472C70.6937 97.3507 70.827 97.2196 70.919 97.0541C71.0155 96.884 71.0638 96.6886 71.0638 96.4679C71.0638 96.1185 70.9649 95.8334 70.7672 95.6127C70.5695 95.392 70.2983 95.2817 69.9535 95.2817C69.7282 95.2817 69.5259 95.3231 69.3466 95.4058C69.1718 95.4886 69.0132 95.6219 68.8707 95.8058C68.8477 95.8426 68.8178 95.8725 68.781 95.8955C68.7489 95.9185 68.7098 95.93 68.6638 95.93C68.5994 95.93 68.5489 95.9116 68.5121 95.8748C68.4799 95.838 68.4638 95.7897 68.4638 95.73V93.261C68.4638 93.192 68.4822 93.1415 68.519 93.1093C68.5558 93.0725 68.6063 93.0541 68.6707 93.0541H71.0431C71.1121 93.0541 71.1626 93.0702 71.1948 93.1024C71.2316 93.1346 71.25 93.1805 71.25 93.2403C71.25 93.3001 71.2316 93.3461 71.1948 93.3782C71.1626 93.4104 71.1121 93.4265 71.0431 93.4265H68.8845V95.5369H68.7603C68.8799 95.3346 69.05 95.1782 69.2707 95.0679C69.4914 94.953 69.7374 94.8955 70.0086 94.8955C70.3121 94.8955 70.5741 94.9599 70.7948 95.0886C71.0155 95.2173 71.1856 95.3966 71.3052 95.6265C71.4293 95.8564 71.4914 96.1254 71.4914 96.4334C71.4914 96.7369 71.427 97.0035 71.2983 97.2334C71.1695 97.4633 70.9856 97.6449 70.7466 97.7782C70.5121 97.907 70.2316 97.9713 69.9052 97.9713Z" fill="black"/>
<path d="M66.9968 98.5369C66.9554 98.5875 66.914 98.615 66.8727 98.6196C66.8313 98.6288 66.7945 98.6219 66.7623 98.599C66.7347 98.576 66.7186 98.5438 66.714 98.5024C66.714 98.461 66.7347 98.4127 66.7761 98.3576C66.8359 98.2748 66.8796 98.1875 66.9071 98.0955C66.9347 98.0035 66.9485 97.9185 66.9485 97.8403L66.9761 97.9369C66.875 97.9369 66.7922 97.907 66.7278 97.8472C66.6681 97.7875 66.6382 97.7116 66.6382 97.6196C66.6382 97.5277 66.6658 97.4518 66.7209 97.3921C66.7761 97.3323 66.852 97.3024 66.9485 97.3024C67.0451 97.3024 67.1209 97.3369 67.1761 97.4058C67.2359 97.4702 67.2658 97.5691 67.2658 97.7024C67.2658 97.7852 67.2566 97.8748 67.2382 97.9714C67.2244 98.0725 67.1968 98.1714 67.1554 98.2679C67.114 98.3645 67.0612 98.4541 66.9968 98.5369Z" fill="black"/>
<path d="M64.1302 97.9714C63.7762 97.9714 63.4704 97.9208 63.213 97.8197C62.9601 97.7139 62.7647 97.5622 62.6268 97.3645C62.4934 97.1622 62.4268 96.9208 62.4268 96.6403C62.4268 96.4105 62.4727 96.2082 62.5647 96.0334C62.6612 95.8587 62.7923 95.7162 62.9578 95.6059C63.1233 95.4955 63.3141 95.4265 63.5302 95.399V95.4817C63.2268 95.4174 62.9854 95.2771 62.8061 95.061C62.6314 94.8403 62.544 94.5806 62.544 94.2817C62.544 94.0105 62.6084 93.7806 62.7371 93.5921C62.8704 93.399 63.0566 93.2518 63.2957 93.1507C63.5348 93.0495 63.813 92.999 64.1302 92.999C64.452 92.999 64.7302 93.0495 64.9647 93.1507C65.2038 93.2518 65.3877 93.399 65.5164 93.5921C65.6497 93.7806 65.7164 94.0105 65.7164 94.2817C65.7164 94.4794 65.675 94.661 65.5923 94.8265C65.5141 94.9921 65.4015 95.1323 65.2543 95.2472C65.1118 95.3576 64.9371 95.4357 64.7302 95.4817V95.399C65.0612 95.4449 65.3279 95.5783 65.5302 95.799C65.7325 96.0197 65.8337 96.3001 65.8337 96.6403C65.8337 96.9208 65.7647 97.1622 65.6268 97.3645C65.4934 97.5622 65.3003 97.7139 65.0474 97.8197C64.7946 97.9208 64.4888 97.9714 64.1302 97.9714ZM64.1302 97.6059C64.5532 97.6059 64.8704 97.5254 65.0819 97.3645C65.298 97.199 65.4061 96.9507 65.4061 96.6197C65.4061 96.2886 65.298 96.0426 65.0819 95.8817C64.8704 95.7208 64.5532 95.6403 64.1302 95.6403C63.7118 95.6403 63.3946 95.7208 63.1785 95.8817C62.9624 96.0426 62.8543 96.2886 62.8543 96.6197C62.8543 96.9507 62.9624 97.199 63.1785 97.3645C63.3946 97.5254 63.7118 97.6059 64.1302 97.6059ZM64.1302 95.2679C64.3739 95.2679 64.5808 95.2311 64.7509 95.1576C64.9256 95.0794 65.0589 94.9691 65.1509 94.8265C65.2474 94.6794 65.2957 94.507 65.2957 94.3093C65.2957 94.0105 65.1923 93.7783 64.9854 93.6128C64.7831 93.4472 64.498 93.3645 64.1302 93.3645C63.767 93.3645 63.4819 93.4472 63.275 93.6128C63.0681 93.7783 62.9647 94.0105 62.9647 94.3093C62.9647 94.6082 63.0681 94.8426 63.275 95.0128C63.4819 95.1829 63.767 95.2679 64.1302 95.2679Z" fill="black"/>
<path d="M59.071 97.9576C59.025 97.9576 58.9836 97.9461 58.9469 97.9231C58.9147 97.9001 58.8917 97.8679 58.8779 97.8265C58.8687 97.7805 58.8779 97.73 58.9055 97.6748L61.1813 93.2127V93.4334H58.5882C58.5239 93.4334 58.4733 93.4173 58.4365 93.3851C58.3997 93.3484 58.3813 93.3001 58.3813 93.2403C58.3813 93.1805 58.3997 93.1346 58.4365 93.1024C58.4733 93.0702 58.5239 93.0541 58.5882 93.0541H61.3538C61.4227 93.0541 61.4756 93.0702 61.5124 93.1024C61.5492 93.1346 61.5676 93.1805 61.5676 93.2403C61.5676 93.2863 61.563 93.3277 61.5538 93.3645C61.5446 93.4012 61.5262 93.4426 61.4986 93.4886L59.3055 97.8127C59.2825 97.8633 59.2526 97.9001 59.2158 97.9231C59.179 97.9461 59.1308 97.9576 59.071 97.9576Z" fill="black"/>
<path d="M77.9551 107.803C77.9275 107.854 77.8953 107.886 77.8586 107.899C77.8218 107.918 77.785 107.922 77.7482 107.913C77.7114 107.904 77.6792 107.886 77.6517 107.858C77.6287 107.831 77.6149 107.796 77.6103 107.755C77.6057 107.713 77.6172 107.67 77.6448 107.624L80.3551 102.886C80.3827 102.835 80.4149 102.803 80.4517 102.789C80.4884 102.771 80.5252 102.766 80.562 102.775C80.5988 102.785 80.6287 102.805 80.6517 102.837C80.6792 102.865 80.6953 102.899 80.6999 102.941C80.7045 102.982 80.693 103.026 80.6654 103.072L77.9551 107.803ZM77.5413 105.824C77.1873 105.824 76.9068 105.695 76.6999 105.437C76.4976 105.175 76.3965 104.808 76.3965 104.334C76.3965 104.021 76.4425 103.755 76.5344 103.534C76.6264 103.313 76.7574 103.145 76.9275 103.031C77.1022 102.911 77.3068 102.851 77.5413 102.851C77.8953 102.851 78.1758 102.982 78.3827 103.244C78.5896 103.502 78.693 103.865 78.693 104.334C78.693 104.651 78.6471 104.92 78.5551 105.141C78.4632 105.362 78.3321 105.532 78.162 105.651C77.9919 105.766 77.785 105.824 77.5413 105.824ZM77.5413 105.499C77.7022 105.499 77.8402 105.456 77.9551 105.368C78.07 105.276 78.1574 105.145 78.2172 104.975C78.2769 104.801 78.3068 104.587 78.3068 104.334C78.3068 103.957 78.2379 103.672 78.0999 103.479C77.9666 103.281 77.7804 103.182 77.5413 103.182C77.385 103.182 77.2494 103.226 77.1344 103.313C77.0195 103.401 76.9321 103.529 76.8723 103.699C76.8126 103.87 76.7827 104.081 76.7827 104.334C76.7827 104.72 76.8494 105.012 76.9827 105.21C77.1206 105.403 77.3068 105.499 77.5413 105.499ZM80.7689 107.824C80.4149 107.824 80.1344 107.695 79.9275 107.437C79.7252 107.18 79.6241 106.812 79.6241 106.334C79.6241 106.021 79.67 105.755 79.762 105.534C79.854 105.313 79.985 105.145 80.1551 105.031C80.3298 104.911 80.5344 104.851 80.7689 104.851C81.1275 104.851 81.408 104.982 81.6103 105.244C81.8172 105.502 81.9206 105.865 81.9206 106.334C81.9206 106.651 81.8746 106.922 81.7827 107.148C81.6907 107.368 81.5597 107.536 81.3896 107.651C81.2195 107.766 81.0126 107.824 80.7689 107.824ZM80.7689 107.499C80.9298 107.499 81.0677 107.456 81.1827 107.368C81.2976 107.281 81.385 107.15 81.4448 106.975C81.5045 106.801 81.5344 106.587 81.5344 106.334C81.5344 105.957 81.4654 105.672 81.3275 105.479C81.1942 105.281 81.008 105.182 80.7689 105.182C80.6126 105.182 80.4769 105.226 80.362 105.313C80.2471 105.401 80.1597 105.529 80.0999 105.699C80.0402 105.87 80.0103 106.081 80.0103 106.334C80.0103 106.72 80.0769 107.012 80.2103 107.21C80.3482 107.403 80.5344 107.499 80.7689 107.499Z" fill="#A6A6A6"/>
<path d="M73.9092 107.824C73.3621 107.824 72.946 107.612 72.6609 107.189C72.3805 106.762 72.2402 106.145 72.2402 105.341C72.2402 104.794 72.3023 104.336 72.4264 103.968C72.5552 103.601 72.7437 103.322 72.992 103.134C73.2402 102.945 73.546 102.851 73.9092 102.851C74.4609 102.851 74.877 103.06 75.1575 103.479C75.4379 103.897 75.5782 104.516 75.5782 105.334C75.5782 105.872 75.5138 106.327 75.3851 106.699C75.2609 107.072 75.0747 107.352 74.8264 107.541C74.5782 107.729 74.2724 107.824 73.9092 107.824ZM73.9092 107.444C74.3276 107.444 74.6379 107.272 74.8402 106.927C75.0425 106.582 75.1437 106.051 75.1437 105.334C75.1437 104.608 75.0425 104.076 74.8402 103.741C74.6425 103.401 74.3322 103.231 73.9092 103.231C73.4908 103.231 73.1805 103.401 72.9782 103.741C72.7759 104.081 72.6747 104.612 72.6747 105.334C72.6747 106.051 72.7759 106.582 72.9782 106.927C73.1805 107.272 73.4908 107.444 73.9092 107.444Z" fill="#A6A6A6"/>
<path d="M69.7329 107.824C69.457 107.824 69.1857 107.782 68.9191 107.699C68.6524 107.617 68.4202 107.493 68.2225 107.327C68.1766 107.295 68.1467 107.258 68.1329 107.217C68.1237 107.175 68.1237 107.136 68.1329 107.099C68.1421 107.063 68.1605 107.031 68.188 107.003C68.2156 106.975 68.2501 106.962 68.2915 106.962C68.3329 106.957 68.3788 106.973 68.4294 107.01C68.6363 107.157 68.8455 107.265 69.057 107.334C69.2731 107.403 69.4984 107.437 69.7329 107.437C69.9811 107.437 70.1903 107.401 70.3605 107.327C70.5306 107.249 70.6593 107.136 70.7467 106.989C70.8386 106.842 70.8846 106.66 70.8846 106.444C70.8846 106.132 70.7811 105.895 70.5743 105.734C70.372 105.568 70.0777 105.486 69.6915 105.486H69.1743C69.1099 105.486 69.0593 105.47 69.0225 105.437C68.9857 105.401 68.9674 105.355 68.9674 105.299C68.9674 105.24 68.9857 105.194 69.0225 105.162C69.0593 105.129 69.1099 105.113 69.1743 105.113H69.657C69.8823 105.113 70.0754 105.072 70.2363 104.989C70.3972 104.906 70.5214 104.791 70.6087 104.644C70.7007 104.493 70.7467 104.311 70.7467 104.099C70.7467 103.824 70.657 103.612 70.4777 103.465C70.303 103.313 70.0478 103.237 69.7122 103.237C69.4869 103.237 69.2754 103.274 69.0777 103.348C68.88 103.417 68.6915 103.529 68.5122 103.686C68.4708 103.722 68.4294 103.743 68.388 103.748C68.3467 103.748 68.3099 103.736 68.2777 103.713C68.2501 103.69 68.2294 103.66 68.2156 103.624C68.2018 103.582 68.2018 103.541 68.2156 103.499C68.2294 103.453 68.2593 103.412 68.3053 103.375C68.4846 103.205 68.6984 103.076 68.9467 102.989C69.1995 102.897 69.4593 102.851 69.726 102.851C70.0294 102.851 70.2892 102.899 70.5053 102.996C70.7214 103.093 70.8869 103.233 71.0018 103.417C71.1214 103.601 71.1811 103.821 71.1811 104.079C71.1811 104.281 71.1421 104.465 71.0639 104.631C70.9903 104.796 70.8846 104.936 70.7467 105.051C70.6087 105.166 70.4432 105.249 70.2501 105.299V105.224C70.5857 105.283 70.8455 105.424 71.0294 105.644C71.2179 105.86 71.3122 106.134 71.3122 106.465C71.3122 106.741 71.2478 106.982 71.1191 107.189C70.9949 107.391 70.8156 107.548 70.5811 107.658C70.3467 107.768 70.0639 107.824 69.7329 107.824Z" fill="#A6A6A6"/>
<path d="M66.9968 108.389C66.9554 108.44 66.914 108.467 66.8727 108.472C66.8313 108.481 66.7945 108.474 66.7623 108.451C66.7347 108.428 66.7186 108.396 66.714 108.355C66.714 108.313 66.7347 108.265 66.7761 108.21C66.8359 108.127 66.8796 108.04 66.9071 107.948C66.9347 107.856 66.9485 107.771 66.9485 107.693L66.9761 107.789C66.875 107.789 66.7922 107.759 66.7278 107.699C66.6681 107.64 66.6382 107.564 66.6382 107.472C66.6382 107.38 66.6658 107.304 66.7209 107.244C66.7761 107.185 66.852 107.155 66.9485 107.155C67.0451 107.155 67.1209 107.189 67.1761 107.258C67.2359 107.322 67.2658 107.421 67.2658 107.555C67.2658 107.637 67.2566 107.727 67.2382 107.824C67.2244 107.925 67.1968 108.024 67.1554 108.12C67.114 108.217 67.0612 108.306 66.9968 108.389Z" fill="#A6A6A6"/>
<path d="M64.0888 107.824C63.813 107.824 63.5417 107.782 63.275 107.699C63.0084 107.617 62.7762 107.493 62.5785 107.327C62.5325 107.295 62.5026 107.258 62.4888 107.217C62.4796 107.175 62.4796 107.136 62.4888 107.099C62.498 107.063 62.5164 107.031 62.544 107.003C62.5716 106.975 62.6061 106.962 62.6475 106.962C62.6888 106.957 62.7348 106.973 62.7854 107.01C62.9923 107.157 63.2015 107.265 63.413 107.334C63.6291 107.403 63.8543 107.437 64.0888 107.437C64.3371 107.437 64.5463 107.401 64.7164 107.327C64.8865 107.249 65.0153 107.136 65.1026 106.989C65.1946 106.842 65.2406 106.66 65.2406 106.444C65.2406 106.132 65.1371 105.895 64.9302 105.734C64.7279 105.568 64.4337 105.486 64.0475 105.486H63.5302C63.4658 105.486 63.4153 105.47 63.3785 105.437C63.3417 105.401 63.3233 105.355 63.3233 105.299C63.3233 105.24 63.3417 105.194 63.3785 105.162C63.4153 105.129 63.4658 105.113 63.5302 105.113H64.013C64.2383 105.113 64.4314 105.072 64.5923 104.989C64.7532 104.906 64.8773 104.791 64.9647 104.644C65.0566 104.493 65.1026 104.311 65.1026 104.099C65.1026 103.824 65.013 103.612 64.8337 103.465C64.6589 103.313 64.4038 103.237 64.0681 103.237C63.8429 103.237 63.6314 103.274 63.4337 103.348C63.236 103.417 63.0475 103.529 62.8681 103.686C62.8268 103.722 62.7854 103.743 62.744 103.748C62.7026 103.748 62.6658 103.736 62.6337 103.713C62.6061 103.69 62.5854 103.66 62.5716 103.624C62.5578 103.582 62.5578 103.541 62.5716 103.499C62.5854 103.453 62.6153 103.412 62.6612 103.375C62.8406 103.205 63.0543 103.076 63.3026 102.989C63.5555 102.897 63.8153 102.851 64.0819 102.851C64.3854 102.851 64.6452 102.899 64.8612 102.996C65.0773 103.093 65.2429 103.233 65.3578 103.417C65.4773 103.601 65.5371 103.821 65.5371 104.079C65.5371 104.281 65.498 104.465 65.4199 104.631C65.3463 104.796 65.2406 104.936 65.1026 105.051C64.9647 105.166 64.7992 105.249 64.6061 105.299V105.224C64.9417 105.283 65.2015 105.424 65.3854 105.644C65.5739 105.86 65.6681 106.134 65.6681 106.465C65.6681 106.741 65.6038 106.982 65.475 107.189C65.3509 107.391 65.1716 107.548 64.9371 107.658C64.7026 107.768 64.4199 107.824 64.0888 107.824Z" fill="#A6A6A6"/>
<path d="M59.9951 107.534C59.9354 107.534 59.8894 107.518 59.8572 107.486C59.8296 107.453 59.8158 107.41 59.8158 107.355V105.962H58.4503C58.3951 105.962 58.3515 105.948 58.3193 105.92C58.2871 105.888 58.271 105.844 58.271 105.789C58.271 105.734 58.2871 105.693 58.3193 105.665C58.3515 105.633 58.3951 105.617 58.4503 105.617H59.8158V104.265C59.8158 104.21 59.8296 104.166 59.8572 104.134C59.8894 104.102 59.9354 104.086 59.9951 104.086C60.0549 104.086 60.0986 104.102 60.1262 104.134C60.1584 104.166 60.1744 104.21 60.1744 104.265V105.617H61.54C61.5997 105.617 61.6434 105.633 61.671 105.665C61.7032 105.693 61.7193 105.734 61.7193 105.789C61.7193 105.849 61.7032 105.893 61.671 105.92C61.6434 105.948 61.5997 105.962 61.54 105.962H60.1744V107.355C60.1744 107.41 60.1584 107.453 60.1262 107.486C60.0986 107.518 60.0549 107.534 59.9951 107.534Z" fill="#A6A6A6"/>
<path fill-rule="evenodd" clip-rule="evenodd" d="M121.966 86.5862H57.9263V86.0936H121.966V86.5862Z" fill="black"/>
<g clip-path="url(#clip1_2002_401)">
<path d="M57.9263 66.8818H72.7046V81.6601H57.9263V66.8818Z" fill="#FF6600"/>
<path d="M61.3938 76.5009C61.341 76.4877 61.2697 76.4481 61.2091 76.4006C60.6865 75.8886 61.3516 75.2922 62.1248 74.9439V73.9595C62.3095 74.0704 62.3992 74.0809 62.4124 74.1021L62.9983 73.503L62.803 73.0016C64.5289 72.3894 65.2256 72.1571 66.6295 71.9143L66.3788 71.6821L66.7931 71.4367C67.7379 71.7586 68.6193 71.8404 68.4689 72.6453C68.5085 72.1043 67.8461 71.8959 66.8222 71.6003L66.6322 71.7217L67.0069 72.0384C65.6633 72.2731 64.3437 72.6291 63.0643 73.1019L63.2279 73.5479L62.6183 74.1627C62.7212 74.1918 63.79 74.5612 64.9142 73.7643C64.9195 73.7563 64.9379 73.7537 64.9379 73.7379C64.8984 73.6851 64.8271 73.6297 64.7347 73.5399C64.809 73.546 64.8812 73.5672 64.947 73.6024C65.0127 73.6375 65.0705 73.6858 65.1167 73.7442C65.163 73.8026 65.1968 73.8699 65.216 73.9419C65.2352 74.0139 65.2393 74.0891 65.2282 74.1627H65.0804C65.0963 74.0677 65.0725 73.9569 65.0329 73.8857C64.6518 74.1806 64.2027 74.375 63.7268 74.4511C63.251 74.5271 62.7636 74.4825 62.3095 74.3211V75.0864C61.8873 75.2315 61.1484 75.7013 61.1536 76.1525C61.18 76.3637 61.2909 76.4428 61.3938 76.5009Z" fill="#010101"/>
<path d="M64.9012 76.303C63.9723 76.7885 63.0882 77.1712 61.7081 77.2266C59.9267 77.1897 59.6496 75.981 60.4968 74.7169C61.2911 73.4423 62.5578 72.2891 64.5766 71.5633C65.3031 71.2911 66.0683 71.1361 66.8435 71.1042C68.0363 71.0936 69.1922 71.4736 69.1131 72.6321C69.0761 73.5241 67.812 74.7882 67.1549 75.6907C66.8646 76.0813 66.8198 76.3346 67.3027 76.3188C69.0603 76.2 70.1106 75.8174 71.5831 75.1735C70.5935 75.8596 65.9568 78.2453 65.9278 76.4534C65.9357 76.2317 66.0439 75.9916 66.2102 75.7382C66.4046 75.4588 66.6161 75.1918 66.8435 74.9386C67.1945 74.5269 68.068 73.5452 68.3636 72.9488C68.8571 71.8352 67.7461 71.7771 66.7934 71.4288L66.3791 71.6742L66.6271 71.909C65.2285 72.1466 64.5318 72.3841 62.8059 72.991L63.0012 73.4977L62.4153 74.0941C62.4047 74.0783 62.3124 74.0651 62.125 73.9543V74.9386C61.3544 75.2843 60.6894 75.886 61.2119 76.3953C61.27 76.4428 61.3439 76.485 61.3967 76.4982H61.3914C62.3414 77.0498 64.9065 76.303 64.9012 76.303Z" fill="white"/>
</g>
</g>
<defs>
<filter id="filter0_d_2002_401" x="0" y="0" width="81.8916" height="108" filterUnits="userSpaceOnUse" color-interpolation-filters="sRGB">
<feFlood flood-opacity="0" result="BackgroundImageFix"/>
<feColorMatrix in="SourceAlpha" type="matrix" values="0 0 0 0 0 0 0 0 0 0 0 0 0 0 0 0 0 0 127 0" result="hardAlpha"/>
<feOffset dx="2" dy="2"/>
<feGaussianBlur stdDeviation="2"/>
<feComposite in2="hardAlpha" operator="out"/>
<feColorMatrix type="matrix" values="0 0 0 0 0 0 0 0 0 0 0 0 0 0 0 0 0 0 0.25 0"/>
<feBlend mode="normal" in2="BackgroundImageFix" result="effect1_dropShadow_2002_401"/>
<feBlend mode="normal" in="SourceGraphic" in2="effect1_dropShadow_2002_401" result="shape"/>
</filter>
<filter id="filter1_d_2002_401" x="51" y="57" width="81.8916" height="108" filterUnits="userSpaceOnUse" color-interpolation-filters="sRGB">
<feFlood flood-opacity="0" result="BackgroundImageFix"/>
<feColorMatrix in="SourceAlpha" type="matrix" values="0 0 0 0 0 0 0 0 0 0 0 0 0 0 0 0 0 0 127 0" result="hardAlpha"/>
<feOffset dx="2" dy="2"/>
<feGaussianBlur stdDeviation="2"/>
<feComposite in2="hardAlpha" operator="out"/>
<feColorMatrix type="matrix" values="0 0 0 0 0 0 0 0 0 0 0 0 0 0 0 0 0 0 0.25 0"/>
<feBlend mode="normal" in2="BackgroundImageFix" result="effect1_dropShadow_2002_401"/>
<feBlend mode="normal" in="SourceGraphic" in2="effect1_dropShadow_2002_401" result="shape"/>
</filter>
<clipPath id="clip0_2002_401">
<rect x="6.92627" y="9.88177" width="14.7783" height="14.7783" rx="7.38916" fill="white"/>
</clipPath>
<clipPath id="clip1_2002_401">
<rect x="57.9263" y="66.8818" width="14.7783" height="14.7783" rx="7.38916" fill="white"/>
</clipPath>
</defs>
</svg>
