<svg width="30" height="30" viewBox="0 0 30 30" fill="none" xmlns="http://www.w3.org/2000/svg">
<circle cx="15" cy="15" r="15" fill="white"/>
<g clip-path="url(#clip0_84_7910)">
<path d="M20.5233 15.0634C20.4003 14.7155 20.2429 14.3808 20.0533 14.0642L15.9783 8.01419C15.6283 7.49335 14.9058 7.34502 14.365 7.68335C14.2292 7.76854 14.1129 7.88124 14.0233 8.01419L9.94584 14.0642C8.53334 16.4292 9.08334 19.4317 11.2517 21.1859C12.6683 22.3317 14.5067 22.7292 16.2167 22.3784" stroke="url(#paint0_linear_84_7910)" stroke-width="1.5" stroke-linecap="round" stroke-linejoin="round"/>
<path d="M20.8333 18.3333L19.1667 20.8333H22.5L20.8333 23.3333" stroke="url(#paint1_linear_84_7910)" stroke-width="1.5" stroke-linecap="round" stroke-linejoin="round"/>
</g>
<defs>
<linearGradient id="paint0_linear_84_7910" x1="13.6323" y1="7.50183" x2="13.0074" y2="15.6492" gradientUnits="userSpaceOnUse">
<stop stop-color="#E26853"/>
<stop offset="1" stop-color="#FB8B6D"/>
</linearGradient>
<linearGradient id="paint1_linear_84_7910" x1="20.4774" y1="18.3333" x2="20.2412" y2="21.0445" gradientUnits="userSpaceOnUse">
<stop stop-color="#E26853"/>
<stop offset="1" stop-color="#FB8B6D"/>
</linearGradient>
<clipPath id="clip0_84_7910">
<rect width="20" height="20" fill="white" transform="translate(5 5)"/>
</clipPath>
</defs>
</svg>
