<svg width="30" height="30" viewBox="0 0 30 30" fill="none" xmlns="http://www.w3.org/2000/svg">
<circle cx="15" cy="15" r="15" fill="white"/>
<g clip-path="url(#clip0_43_17293)">
<path d="M7.5 15C7.5 15.9849 7.69399 16.9602 8.0709 17.8701C8.44781 18.7801 9.00026 19.6069 9.6967 20.3033C10.3931 20.9997 11.2199 21.5522 12.1299 21.9291C13.0398 22.306 14.0151 22.5 15 22.5C15.9849 22.5 16.9602 22.306 17.8701 21.9291C18.7801 21.5522 19.6069 20.9997 20.3033 20.3033C20.9997 19.6069 21.5522 18.7801 21.9291 17.8701C22.306 16.9602 22.5 15.9849 22.5 15C22.5 14.0151 22.306 13.0398 21.9291 12.1299C21.5522 11.2199 20.9997 10.3931 20.3033 9.6967C19.6069 9.00026 18.7801 8.44781 17.8701 8.0709C16.9602 7.69399 15.9849 7.5 15 7.5C14.0151 7.5 13.0398 7.69399 12.1299 8.0709C11.2199 8.44781 10.3931 9.00026 9.6967 9.6967C9.00026 10.3931 8.44781 11.2199 8.0709 12.1299C7.69399 13.0398 7.5 14.0151 7.5 15Z" stroke="url(#paint0_linear_43_17293)" stroke-width="1.5" stroke-linecap="round" stroke-linejoin="round"/>
<path d="M17.0009 11.6666C16.4434 11.1433 15.7509 10.8333 15 10.8333C13.1584 10.8333 11.6667 12.6991 11.6667 15C11.6667 17.3008 13.1584 19.1666 15 19.1666C15.75 19.1666 16.4425 18.8566 17 18.3333" stroke="url(#paint1_linear_43_17293)" stroke-width="1.5" stroke-linecap="round" stroke-linejoin="round"/>
<path d="M10.8333 13.75H14.1666" stroke="url(#paint2_linear_43_17293)" stroke-width="1.5" stroke-linecap="round" stroke-linejoin="round"/>
<path d="M10.8333 16.25H14.1666" stroke="url(#paint3_linear_43_17293)" stroke-width="1.5" stroke-linecap="round" stroke-linejoin="round"/>
</g>
<defs>
<linearGradient id="paint0_linear_43_17293" x1="15" y1="7.5" x2="15" y2="16.6964" gradientUnits="userSpaceOnUse">
<stop stop-color="#72E175"/>
<stop offset="1" stop-color="#83E09E"/>
</linearGradient>
<linearGradient id="paint1_linear_43_17293" x1="14.3338" y1="10.8333" x2="14.3338" y2="15.9424" gradientUnits="userSpaceOnUse">
<stop stop-color="#72E175"/>
<stop offset="1" stop-color="#83E09E"/>
</linearGradient>
<linearGradient id="paint2_linear_43_17293" x1="12.5" y1="13.75" x2="12.5" y2="14.3631" gradientUnits="userSpaceOnUse">
<stop stop-color="#72E175"/>
<stop offset="1" stop-color="#83E09E"/>
</linearGradient>
<linearGradient id="paint3_linear_43_17293" x1="12.5" y1="16.25" x2="12.5" y2="16.8631" gradientUnits="userSpaceOnUse">
<stop stop-color="#72E175"/>
<stop offset="1" stop-color="#83E09E"/>
</linearGradient>
<clipPath id="clip0_43_17293">
<rect width="20" height="20" fill="white" transform="translate(5 5)"/>
</clipPath>
</defs>
</svg>
