<svg width="135" height="183" viewBox="0 0 135 183" fill="none" xmlns="http://www.w3.org/2000/svg">
<path d="M2 4.46305C2 3.10275 3.10275 2 4.46305 2H73.4286C74.7889 2 75.8916 3.10275 75.8916 4.46305V99.5369C75.8916 100.897 74.7889 102 73.4286 102H4.46306C3.10275 102 2 100.897 2 99.5369V4.46305Z" fill="white"/>
<g filter="url(#filter0_d_2002_405)">
<path d="M2 4.46305C2 3.10275 3.10275 2 4.46305 2H73.4286C74.7889 2 75.8916 3.10275 75.8916 4.46305V99.5369C75.8916 100.897 74.7889 102 73.4286 102H4.46306C3.10275 102 2 100.897 2 99.5369V4.46305Z" fill="white"/>
</g>
<rect x="6.92578" y="85.2512" width="22.0499" height="7.47586" rx="3" fill="#292929"/>
<path d="M24.2127 90.3825C24.1525 90.3825 24.1065 90.3684 24.0747 90.3401C24.0464 90.3082 24.0322 90.264 24.0322 90.2074V87.9408C24.0322 87.8841 24.0464 87.8417 24.0747 87.8134C24.103 87.7851 24.1437 87.7709 24.1968 87.7709C24.2463 87.7709 24.2852 87.7851 24.3136 87.8134C24.3419 87.8417 24.356 87.8841 24.356 87.9408V88.7582H25.1788C25.5008 88.7582 25.745 88.829 25.9113 88.9705C26.0812 89.1121 26.1661 89.3103 26.1661 89.5651C26.1661 89.7349 26.1272 89.8818 26.0493 90.0056C25.975 90.1295 25.8653 90.2233 25.7202 90.287C25.5751 90.3507 25.3947 90.3825 25.1788 90.3825H24.2127ZM24.356 90.133H25.1682C25.3805 90.133 25.5451 90.087 25.6618 89.995C25.7822 89.903 25.8423 89.7615 25.8423 89.5704C25.8423 89.3757 25.7822 89.2324 25.6618 89.1404C25.5451 89.0484 25.3805 89.0024 25.1682 89.0024H24.356V90.133Z" fill="white"/>
<path d="M22.4414 90.4144C22.3918 90.4144 22.3529 90.4003 22.3246 90.3719C22.2963 90.3436 22.2821 90.3029 22.2821 90.2499V88.0788H21.4434C21.3373 88.0788 21.2842 88.0328 21.2842 87.9408C21.2842 87.9019 21.2983 87.87 21.3266 87.8453C21.355 87.8205 21.3939 87.8081 21.4434 87.8081H23.4446C23.5472 87.8081 23.5985 87.8523 23.5985 87.9408C23.5985 87.9833 23.5844 88.0169 23.5561 88.0417C23.5313 88.0664 23.4941 88.0788 23.4446 88.0788H22.6059V90.2499C22.6059 90.3029 22.5918 90.3436 22.5634 90.3719C22.5387 90.4003 22.498 90.4144 22.4414 90.4144Z" fill="white"/>
<path d="M18.841 90.4144C18.8127 90.4144 18.7862 90.4091 18.7614 90.3984C18.7402 90.3878 18.7225 90.3701 18.7083 90.3454C18.6977 90.3171 18.6924 90.2817 18.6924 90.2392V87.9355C18.6924 87.8824 18.7048 87.8417 18.7295 87.8134C18.7579 87.7851 18.7968 87.7709 18.8463 87.7709C18.8923 87.7709 18.9277 87.7851 18.9525 87.8134C18.9773 87.8417 18.9896 87.8824 18.9896 87.9355V90.0959H18.8622L20.5131 87.8771C20.5379 87.8452 20.5644 87.8204 20.5927 87.8028C20.621 87.7815 20.6582 87.7709 20.7042 87.7709C20.736 87.7709 20.7626 87.778 20.7838 87.7921C20.805 87.8028 20.821 87.8204 20.8316 87.8452C20.8457 87.87 20.8528 87.9036 20.8528 87.9461V90.2551C20.8528 90.3047 20.8387 90.3436 20.8103 90.3719C20.7856 90.4002 20.7502 90.4144 20.7042 90.4144C20.6546 90.4144 20.6175 90.4002 20.5927 90.3719C20.5679 90.3436 20.5555 90.3047 20.5555 90.2551V88.0947H20.6829L19.0268 90.3135C19.0056 90.3418 18.9808 90.3648 18.9525 90.3825C18.9242 90.4038 18.887 90.4144 18.841 90.4144Z" fill="white"/>
<path d="M15.8091 90.4144C15.756 90.4144 15.7153 90.4003 15.687 90.3719C15.6587 90.3436 15.6445 90.3029 15.6445 90.2499V87.9939C15.6445 87.9337 15.6605 87.8877 15.6923 87.8559C15.7242 87.824 15.7702 87.8081 15.8303 87.8081H17.6139C17.674 87.8081 17.72 87.824 17.7519 87.8559C17.7837 87.8877 17.7996 87.9337 17.7996 87.9939V90.2499C17.7996 90.3029 17.7855 90.3436 17.7572 90.3719C17.7289 90.4003 17.6882 90.4144 17.6351 90.4144C17.5856 90.4144 17.5466 90.4003 17.5183 90.3719C17.49 90.3436 17.4758 90.3029 17.4758 90.2499V88.0735H15.9683V90.2499C15.9683 90.3029 15.9542 90.3436 15.9259 90.3719C15.9011 90.4003 15.8622 90.4144 15.8091 90.4144Z" fill="white"/>
<path d="M13.4443 91.3698C13.4019 91.3698 13.3682 91.3575 13.3435 91.3327C13.3187 91.3115 13.3045 91.2814 13.301 91.2424C13.301 91.2071 13.3081 91.1699 13.3222 91.131L13.6885 90.2976V90.4462L12.6481 88.0151C12.6304 87.9726 12.6233 87.9337 12.6269 87.8983C12.6339 87.8594 12.6499 87.8293 12.6746 87.8081C12.7029 87.7833 12.7419 87.7709 12.7914 87.7709C12.8374 87.7709 12.871 87.7815 12.8923 87.8028C12.917 87.824 12.9383 87.8576 12.956 87.9036L13.9008 90.1914H13.7681L14.713 87.9036C14.7342 87.8541 14.7572 87.8204 14.782 87.8028C14.8067 87.7815 14.8421 87.7709 14.8881 87.7709C14.9341 87.7709 14.9678 87.7833 14.989 87.8081C15.0138 87.8293 15.0279 87.8576 15.0315 87.893C15.035 87.9284 15.0279 87.9673 15.0102 88.0098L13.6248 91.2424C13.6036 91.292 13.5788 91.3256 13.5505 91.3433C13.5257 91.361 13.4903 91.3698 13.4443 91.3698Z" fill="white"/>
<path d="M9.89557 90.4144C9.84603 90.4144 9.8071 90.4003 9.77879 90.3719C9.75048 90.3401 9.73633 90.2976 9.73633 90.2446V86.773C9.73633 86.7199 9.75048 86.6792 9.77879 86.6509C9.8071 86.6226 9.84603 86.6085 9.89557 86.6085C9.94865 86.6085 9.98935 86.6226 10.0177 86.6509C10.046 86.6792 10.0601 86.7199 10.0601 86.773V88.3442H10.8457L10.7236 88.4239L11.8861 86.6934C11.9109 86.658 11.9392 86.635 11.9711 86.6244C12.0029 86.6102 12.0348 86.6067 12.0666 86.6138C12.0985 86.6208 12.125 86.6368 12.1462 86.6615C12.1675 86.6828 12.1799 86.7093 12.1834 86.7412C12.1905 86.773 12.1816 86.8084 12.1569 86.8473L11.0528 88.4716L10.9413 88.3548C11.1465 88.3761 11.3235 88.4504 11.4721 88.5778C11.6243 88.7016 11.7552 88.875 11.8649 89.098L12.4063 90.1915C12.4276 90.2304 12.4329 90.2676 12.4223 90.3029C12.4152 90.3348 12.3975 90.3596 12.3692 90.3773C12.3444 90.395 12.3143 90.4056 12.2789 90.4091C12.2471 90.4126 12.2152 90.4056 12.1834 90.3879C12.1515 90.3737 12.1268 90.3472 12.1091 90.3083L11.6101 89.2785C11.4969 89.0449 11.3695 88.8786 11.2279 88.7795C11.0899 88.6804 10.92 88.6309 10.7183 88.6309H10.0601V90.2446C10.0601 90.2976 10.046 90.3401 10.0177 90.3719C9.99289 90.4003 9.95219 90.4144 9.89557 90.4144Z" fill="white"/>
<path fill-rule="evenodd" clip-rule="evenodd" d="M62.484 52.088L64.5803 57.1197L65.0105 71.9263L67.1604 64.9107L68.6169 70.207L71.2709 67.1107L71.645 67.4313L68.3877 71.2314L67.1348 66.6755L65.0432 73.5007L64.5615 73.4357L64.0905 57.2251L62.6979 53.8825L60.3165 68.8857L50.8643 63.7355L49.6277 56.4664L48.3045 73.4477L47.8238 73.502L45.4423 65.8743L42.5386 75.0183L42.2768 74.8768C42.1666 74.8172 42.074 74.7219 41.996 74.6189C41.9162 74.5135 41.8403 74.3849 41.7678 74.2411C41.623 73.9534 41.4811 73.583 41.3445 73.164C41.0708 72.3248 40.8085 71.2619 40.5809 70.2111C40.3531 69.1589 40.1587 68.1131 40.0212 67.3054C39.9525 66.9015 39.8978 66.5565 39.8603 66.2993C39.8244 66.0537 39.8005 65.8649 39.8005 65.7932C39.8005 65.7374 39.772 65.5995 39.7041 65.3803C39.6399 65.1727 39.55 64.9212 39.4486 64.6556C39.3333 64.3533 39.2046 64.0367 39.0852 63.7524L38.2971 65.9283L35.7425 68.4929L35.637 68.0694C35.3914 67.0833 34.8047 64.8261 34.4155 63.654C34.2352 63.1108 34.0095 63.0175 33.8742 63.0095C33.7069 62.9996 33.5128 63.1044 33.3718 63.2381L28.7602 70.8636V64.0689C28.516 64.415 28.1943 64.9328 27.8671 65.4663C27.8122 65.5557 27.7572 65.6456 27.7025 65.7351C27.4224 66.1927 27.1491 66.6394 26.9349 66.9634C26.809 67.1539 26.6943 67.3165 26.6063 67.4136C26.5835 67.4387 26.5579 67.4648 26.5304 67.4872C26.5085 67.5051 26.461 67.5417 26.3954 67.5574C26.3584 67.5663 26.3046 67.5711 26.2453 67.5508C26.183 67.5295 26.1384 67.4887 26.1102 67.4462C26.0631 67.3752 26.0615 67.2999 26.0615 67.271C26.0615 67.0077 25.9865 66.6019 25.8845 66.1841C25.8148 65.8987 25.7353 65.6188 25.6665 65.3937L22.9971 66.6118L21.4171 63.1749L19.9231 58.7493L19.4381 70.0111L18.4526 74.7107L17.9739 74.7247C17.7276 73.8182 17.19 71.8725 16.9964 71.2895C16.9181 71.0534 16.7298 70.8214 16.5027 70.6205C16.4187 70.5461 16.3324 70.4788 16.2498 70.4198V74.9064H14.7452L14.2846 78.1431L13.8092 78.1923L11.343 71.3836V78.9701L9.73321 76.3843H8.55583L7.14973 79.4428L6.70215 79.2371L8.24012 75.8917H10.0068L10.8504 77.2467V69.9803L11.3283 69.8965L13.9361 77.096L14.2852 74.6426C14.2859 74.2276 14.3108 73.6312 14.3867 73.1786C14.4235 72.9589 14.4781 72.7326 14.5715 72.5845C14.6178 72.5111 14.7056 72.4061 14.8515 72.384C15.0045 72.3609 15.1234 72.4424 15.1966 72.5159C15.3426 72.6624 15.4166 72.8575 15.4528 73.0488C15.4893 73.2419 15.4915 73.4529 15.4763 73.6564C15.4565 73.9204 15.406 74.1876 15.3493 74.4138H15.7572V69.5811L16.114 69.7602C16.2951 69.8511 16.5707 70.0229 16.8291 70.2515C17.0846 70.4776 17.3461 70.7792 17.464 71.1343C17.6057 71.5611 17.9213 72.6793 18.1796 73.6126L18.9477 69.9496L19.4877 57.4081L19.9672 57.3399L21.8755 62.9927L23.2395 65.9597L25.9644 64.7163L26.0508 64.9766C26.1344 65.2284 26.259 65.6412 26.363 66.0672C26.4162 66.2849 26.4656 66.5124 26.5008 66.7267C26.5084 66.7153 26.5161 66.7037 26.524 66.6918C26.7329 66.3757 27.0006 65.9383 27.2808 65.4803C27.3359 65.3903 27.3915 65.2995 27.4472 65.2087C27.7834 64.6605 28.1254 64.1097 28.3844 63.7472C28.5088 63.5732 28.6319 63.4164 28.7353 63.3325C28.7627 63.3102 28.8005 63.2831 28.8462 63.2644C28.89 63.2464 28.9736 63.2231 29.067 63.2601C29.1659 63.2994 29.2118 63.3801 29.231 63.4343C29.2494 63.4864 29.2528 63.5379 29.2528 63.5764V69.0971L32.9818 62.931L33.0028 62.91C33.1876 62.7244 33.5226 62.4952 33.9033 62.5177C34.3241 62.5426 34.6709 62.8597 34.8831 63.4988C35.2297 64.543 35.7259 66.4169 36.0085 67.5278L37.8711 65.658L39.0425 62.4237L39.2906 62.9841C39.4554 63.3562 39.7025 63.9392 39.9089 64.48C40.012 64.7501 40.1061 65.0127 40.1747 65.2347C40.2398 65.445 40.2931 65.6518 40.2931 65.7932C40.2931 65.7932 40.2931 65.7954 40.2935 65.8014C40.2939 65.8081 40.2947 65.8172 40.2957 65.8289C40.2979 65.8522 40.3013 65.8832 40.306 65.9217C40.3153 65.9986 40.3293 66.1018 40.3477 66.2282C40.3846 66.4806 40.4386 66.8217 40.5068 67.2227C40.6433 68.0248 40.8364 69.0633 41.0624 70.1068C41.2887 71.1516 41.5468 72.1956 41.8128 73.0113C41.9461 73.4198 42.079 73.7637 42.2078 74.0195C42.2361 74.0757 42.2637 74.1266 42.2904 74.1722L45.4462 64.2342L47.9128 72.134L49.2912 54.4439L49.7796 54.4217L51.3098 63.4173L59.9393 68.1192L62.484 52.088ZM14.7779 74.6142L14.7884 74.5825C14.8655 74.3502 14.9583 73.9764 14.9851 73.6196C14.9984 73.4412 14.9945 73.2767 14.9687 73.1404C14.9583 73.0851 14.9449 73.0378 14.9293 72.9978C14.9099 73.0657 14.8904 73.1531 14.8725 73.26C14.8049 73.6638 14.7797 74.2122 14.7779 74.6142ZM29.0505 63.7113C29.0506 63.7113 29.0503 63.7114 29.0498 63.7118L29.0505 63.7113ZM28.7601 63.5727C28.76 63.5716 28.76 63.571 28.76 63.5711L28.7601 63.5727Z" fill="#CF0000"/>
<path d="M66.2372 19.7971C66.0007 19.7971 65.7643 19.7656 65.5278 19.7026C65.2966 19.6395 65.0759 19.5318 64.8658 19.3794C64.8237 19.3531 64.7948 19.3216 64.7791 19.2848C64.7686 19.2428 64.7659 19.2007 64.7712 19.1587C64.7817 19.1167 64.8001 19.0825 64.8264 19.0562C64.8579 19.0247 64.8947 19.0063 64.9367 19.0011C64.9787 18.9958 65.0234 19.009 65.0707 19.0405C65.2756 19.1771 65.4753 19.2717 65.6697 19.3242C65.8641 19.3768 66.0585 19.403 66.253 19.403C66.5735 19.403 66.8178 19.3426 66.986 19.2218C67.1541 19.1009 67.2382 18.938 67.2382 18.7331C67.2382 18.565 67.183 18.4362 67.0727 18.3469C66.9676 18.2523 66.7942 18.1761 66.5525 18.1183L65.8667 17.9607C65.5357 17.8871 65.2914 17.7689 65.1337 17.606C64.9761 17.4379 64.8973 17.2224 64.8973 16.9597C64.8973 16.7338 64.9551 16.5367 65.0707 16.3686C65.1915 16.2004 65.3597 16.0717 65.5751 15.9824C65.7958 15.8878 66.048 15.8405 66.3318 15.8405C66.563 15.8405 66.7837 15.8746 66.9938 15.9429C67.204 16.0113 67.3879 16.1163 67.5456 16.2582C67.5876 16.2897 67.6139 16.3265 67.6244 16.3686C67.6401 16.4106 67.6401 16.4526 67.6244 16.4947C67.6139 16.5315 67.5929 16.563 67.5613 16.5893C67.5298 16.6155 67.493 16.6287 67.451 16.6287C67.4089 16.6287 67.3643 16.6129 67.317 16.5814C67.1646 16.4658 67.0044 16.3817 66.8362 16.3292C66.6681 16.2714 66.4973 16.2425 66.3239 16.2425C66.0191 16.2425 65.7827 16.3055 65.6145 16.4316C65.4516 16.5577 65.3702 16.7285 65.3702 16.9439C65.3702 17.1068 65.4201 17.2382 65.5199 17.338C65.625 17.4379 65.7879 17.514 66.0086 17.5666L66.6943 17.7242C67.0359 17.803 67.2907 17.9213 67.4589 18.0789C67.627 18.2313 67.7111 18.4388 67.7111 18.7016C67.7111 19.0379 67.5771 19.3058 67.3091 19.5055C67.0464 19.6999 66.6891 19.7971 66.2372 19.7971Z" fill="black"/>
<path d="M62.0558 19.7971C61.7983 19.7971 61.5671 19.7472 61.3622 19.6474C61.1625 19.5475 61.0023 19.4109 60.8814 19.2375C60.7658 19.0641 60.708 18.8697 60.708 18.6543C60.708 18.3705 60.7789 18.1472 60.9208 17.9843C61.0627 17.8214 61.3018 17.7085 61.6381 17.6454C61.9743 17.5771 62.4367 17.5429 63.0253 17.5429H63.3642V17.8976H63.0331C62.5602 17.8976 62.1898 17.9186 61.9218 17.9607C61.6591 17.9975 61.4752 18.0684 61.3701 18.1735C61.265 18.2786 61.2124 18.4257 61.2124 18.6149C61.2124 18.8513 61.2939 19.0431 61.4568 19.1902C61.6197 19.3374 61.8404 19.4109 62.1188 19.4109C62.3448 19.4109 62.5418 19.3584 62.71 19.2533C62.8834 19.1429 63.02 18.9932 63.1198 18.804C63.2197 18.6149 63.2696 18.3994 63.2696 18.1577V17.2592C63.2696 16.9072 63.1986 16.6523 63.0568 16.4947C62.9149 16.3318 62.689 16.2503 62.3789 16.2503C62.1793 16.2503 61.9849 16.2766 61.7957 16.3292C61.6118 16.3817 61.4147 16.4658 61.2046 16.5814C61.1468 16.6129 61.0942 16.6234 61.0469 16.6129C61.0049 16.6024 60.9707 16.5814 60.9445 16.5498C60.9234 16.5183 60.9077 16.4815 60.8972 16.4395C60.8919 16.3922 60.8998 16.3475 60.9208 16.3055C60.9418 16.2635 60.9786 16.2293 61.0312 16.203C61.2518 16.0822 61.4752 15.9929 61.7011 15.9351C61.9323 15.872 62.1556 15.8405 62.3711 15.8405C62.6811 15.8405 62.9359 15.893 63.1356 15.9981C63.3405 16.1032 63.4903 16.2608 63.5849 16.471C63.6847 16.6812 63.7346 16.9518 63.7346 17.2828V19.537C63.7346 19.6159 63.7162 19.6763 63.6794 19.7183C63.6427 19.7604 63.5875 19.7814 63.5139 19.7814C63.4404 19.7814 63.3826 19.7604 63.3405 19.7183C63.2985 19.6763 63.2775 19.6159 63.2775 19.537V18.8119H63.3563C63.309 19.0168 63.2249 19.1929 63.1041 19.34C62.9832 19.4871 62.8335 19.6001 62.6548 19.6789C62.4762 19.7577 62.2765 19.7971 62.0558 19.7971Z" fill="black"/>
<path d="M57.7473 19.7971C57.164 19.7971 56.6727 19.6868 56.2734 19.4661C55.874 19.2402 55.5719 18.9144 55.367 18.4888C55.162 18.0631 55.0596 17.5508 55.0596 16.9518C55.0596 16.5104 55.1174 16.1164 55.233 15.7696C55.3486 15.4175 55.5141 15.1206 55.7295 14.8789C55.9502 14.6319 56.2182 14.4428 56.5335 14.3114C56.854 14.1801 57.2165 14.1144 57.6211 14.1144C57.9732 14.1144 58.3069 14.1643 58.6221 14.2641C58.9374 14.364 59.2106 14.5216 59.4418 14.737C59.4891 14.7791 59.518 14.8237 59.5285 14.871C59.539 14.9131 59.5364 14.9577 59.5207 15.005C59.5049 15.0471 59.4786 15.0838 59.4418 15.1154C59.4103 15.1416 59.3709 15.1574 59.3236 15.1627C59.2816 15.1627 59.2343 15.1443 59.1817 15.1075C58.9663 14.9131 58.7272 14.7738 58.4645 14.6897C58.207 14.6057 57.9233 14.5636 57.6133 14.5636C57.1771 14.5636 56.8067 14.6582 56.5019 14.8474C56.1972 15.0313 55.966 15.3019 55.8083 15.6592C55.6507 16.0165 55.5719 16.4474 55.5719 16.9518C55.5719 17.7347 55.7532 18.3311 56.1157 18.741C56.4783 19.1508 57.0248 19.3558 57.7551 19.3558C58.0284 19.3558 58.2911 19.3295 58.5433 19.2769C58.7955 19.2244 59.032 19.1508 59.2527 19.0563L59.1344 19.3873V17.2986H57.8891C57.8156 17.2986 57.7578 17.2802 57.7157 17.2434C57.6789 17.2014 57.6606 17.1489 57.6606 17.0858C57.6606 17.0228 57.6789 16.9755 57.7157 16.9439C57.7578 16.9072 57.8156 16.8888 57.8891 16.8888H59.3473C59.4208 16.8888 59.476 16.9098 59.5128 16.9518C59.5496 16.9886 59.5679 17.0411 59.5679 17.1095V19.2297C59.5679 19.2927 59.5574 19.3453 59.5364 19.3873C59.5207 19.4293 59.4891 19.4609 59.4418 19.4819C59.2317 19.5712 58.9689 19.6474 58.6537 19.7104C58.3436 19.7682 58.0415 19.7971 57.7473 19.7971Z" fill="black"/>
<path d="M52.0556 19.7971C51.7035 19.7971 51.4303 19.6868 51.2359 19.4661C51.0467 19.2454 50.9521 18.9328 50.9521 18.5282V14.3745C50.9521 14.2904 50.9732 14.23 51.0152 14.1932C51.0572 14.1511 51.1177 14.1301 51.1965 14.1301C51.27 14.1301 51.3278 14.1511 51.3699 14.1932C51.4119 14.23 51.4329 14.2904 51.4329 14.3745V18.473C51.4329 18.7777 51.4934 19.0063 51.6142 19.1587C51.7351 19.3058 51.9111 19.3794 52.1423 19.3794C52.1948 19.3794 52.2395 19.3768 52.2763 19.3715C52.3131 19.3663 52.3499 19.3636 52.3866 19.3636C52.4339 19.3584 52.4681 19.3689 52.4891 19.3952C52.5154 19.4162 52.5285 19.4635 52.5285 19.537C52.5285 19.6106 52.5101 19.6658 52.4733 19.7025C52.4365 19.7393 52.3761 19.7656 52.2921 19.7814C52.2553 19.7866 52.2159 19.7892 52.1738 19.7892C52.137 19.7945 52.0976 19.7971 52.0556 19.7971Z" fill="black"/>
<path d="M48.0167 19.7971C47.7593 19.7971 47.5281 19.7472 47.3231 19.6474C47.1235 19.5475 46.9632 19.4109 46.8423 19.2375C46.7267 19.0641 46.6689 18.8697 46.6689 18.6543C46.6689 18.3705 46.7399 18.1472 46.8818 17.9843C47.0236 17.8214 47.2627 17.7085 47.599 17.6454C47.9353 17.5771 48.3977 17.5429 48.9862 17.5429H49.3251V17.8976H48.9941C48.5212 17.8976 48.1507 17.9186 47.8827 17.9607C47.62 17.9975 47.4361 18.0684 47.331 18.1735C47.2259 18.2786 47.1734 18.4257 47.1734 18.6149C47.1734 18.8513 47.2548 19.0431 47.4177 19.1902C47.5806 19.3374 47.8013 19.4109 48.0798 19.4109C48.3057 19.4109 48.5028 19.3584 48.6709 19.2533C48.8443 19.1429 48.9809 18.9932 49.0808 18.804C49.1806 18.6149 49.2305 18.3994 49.2305 18.1577V17.2592C49.2305 16.9072 49.1596 16.6523 49.0177 16.4947C48.8758 16.3318 48.6499 16.2503 48.3399 16.2503C48.1402 16.2503 47.9458 16.2766 47.7566 16.3292C47.5727 16.3817 47.3757 16.4658 47.1655 16.5814C47.1077 16.6129 47.0552 16.6234 47.0079 16.6129C46.9658 16.6024 46.9317 16.5814 46.9054 16.5498C46.8844 16.5183 46.8686 16.4815 46.8581 16.4395C46.8529 16.3922 46.8607 16.3475 46.8818 16.3055C46.9028 16.2635 46.9396 16.2293 46.9921 16.203C47.2128 16.0822 47.4361 15.9929 47.662 15.9351C47.8932 15.872 48.1166 15.8405 48.332 15.8405C48.642 15.8405 48.8969 15.893 49.0965 15.9981C49.3015 16.1032 49.4512 16.2608 49.5458 16.471C49.6456 16.6812 49.6955 16.9518 49.6955 17.2828V19.537C49.6955 19.6159 49.6772 19.6763 49.6404 19.7183C49.6036 19.7604 49.5484 19.7814 49.4749 19.7814C49.4013 19.7814 49.3435 19.7604 49.3015 19.7183C49.2594 19.6763 49.2384 19.6159 49.2384 19.537V18.8119H49.3172C49.2699 19.0168 49.1859 19.1929 49.065 19.34C48.9441 19.4871 48.7944 19.6001 48.6157 19.6789C48.4371 19.7577 48.2374 19.7971 48.0167 19.7971Z" fill="black"/>
<path d="M44.423 19.7814C44.3442 19.7814 44.2838 19.7604 44.2418 19.7183C44.1997 19.6763 44.1787 19.6159 44.1787 19.537V16.1085C44.1787 16.0244 44.1997 15.9613 44.2418 15.9193C44.2838 15.8773 44.3442 15.8563 44.423 15.8563C44.4966 15.8563 44.5518 15.8773 44.5886 15.9193C44.6306 15.9613 44.6516 16.0244 44.6516 16.1085V16.8099H44.5728C44.6674 16.4999 44.8355 16.2609 45.0772 16.0927C45.3242 15.9246 45.6184 15.8379 45.96 15.8326C46.023 15.8274 46.0756 15.8405 46.1176 15.872C46.1597 15.9035 46.1807 15.9535 46.1807 16.0218C46.1859 16.0953 46.1702 16.1531 46.1334 16.1952C46.0966 16.232 46.0362 16.2556 45.9521 16.2661L45.8418 16.274C45.4687 16.3108 45.1797 16.4342 44.9748 16.6444C44.7698 16.8546 44.6674 17.1384 44.6674 17.4957V19.537C44.6674 19.6159 44.6464 19.6763 44.6043 19.7183C44.5675 19.7604 44.5071 19.7814 44.423 19.7814Z" fill="black"/>
<path d="M41.1702 19.7971C40.8654 19.7971 40.6106 19.7419 40.4057 19.6316C40.206 19.5213 40.0562 19.3557 39.9564 19.135C39.8566 18.9144 39.8066 18.6411 39.8066 18.3153V16.1084C39.8066 16.0244 39.8277 15.9613 39.8697 15.9193C39.9117 15.8772 39.9722 15.8562 40.051 15.8562C40.1245 15.8562 40.1823 15.8772 40.2244 15.9193C40.2664 15.9613 40.2874 16.0244 40.2874 16.1084V18.2917C40.2874 18.6595 40.3636 18.9354 40.516 19.1193C40.6684 19.2979 40.9075 19.3873 41.2332 19.3873C41.5905 19.3873 41.8795 19.269 42.1002 19.0326C42.3209 18.7909 42.4313 18.4756 42.4313 18.0868V16.1084C42.4313 16.0244 42.4523 15.9613 42.4943 15.9193C42.5364 15.8772 42.5968 15.8562 42.6756 15.8562C42.7492 15.8562 42.807 15.8772 42.849 15.9193C42.891 15.9613 42.9121 16.0244 42.9121 16.1084V19.537C42.9121 19.6999 42.8359 19.7814 42.6835 19.7814C42.6099 19.7814 42.5521 19.7603 42.5101 19.7183C42.4681 19.6763 42.447 19.6158 42.447 19.537V18.7567L42.5416 18.8119C42.4418 19.1324 42.2684 19.3768 42.0214 19.5449C41.7745 19.713 41.4907 19.7971 41.1702 19.7971Z" fill="black"/>
<path d="M38.6248 19.7971C38.3411 19.7971 38.1046 19.7446 37.9154 19.6395C37.7263 19.5344 37.5844 19.3846 37.4898 19.1902C37.3952 18.9906 37.348 18.7462 37.348 18.4572V16.2976H36.7647C36.6964 16.2976 36.6412 16.2819 36.5992 16.2503C36.5572 16.2135 36.5361 16.1636 36.5361 16.1006C36.5361 16.0428 36.5572 15.9981 36.5992 15.9666C36.6412 15.9298 36.6964 15.9114 36.7647 15.9114H37.348V14.9262C37.348 14.8421 37.369 14.7817 37.411 14.7449C37.453 14.7029 37.5135 14.6819 37.5923 14.6819C37.6659 14.6819 37.7237 14.7029 37.7657 14.7449C37.8077 14.7817 37.8287 14.8421 37.8287 14.9262V15.9114H38.8928C38.9663 15.9114 39.0215 15.9298 39.0583 15.9666C39.0951 15.9981 39.1135 16.0428 39.1135 16.1006C39.1135 16.1636 39.0951 16.2135 39.0583 16.2503C39.0215 16.2819 38.9663 16.2976 38.8928 16.2976H37.8287V18.3942C37.8287 18.7147 37.8944 18.959 38.0258 19.1272C38.1572 19.2953 38.3752 19.3794 38.68 19.3794C38.7851 19.3794 38.8718 19.3689 38.9401 19.3479C39.0136 19.3216 39.0741 19.3085 39.1214 19.3085C39.1581 19.3085 39.1897 19.3242 39.2159 19.3557C39.2475 19.3873 39.2632 19.4372 39.2632 19.5055C39.2632 19.5475 39.2527 19.5896 39.2317 19.6316C39.2159 19.6736 39.1844 19.6999 39.1371 19.7104C39.0793 19.7314 39.0005 19.7498 38.9007 19.7656C38.8008 19.7866 38.7089 19.7971 38.6248 19.7971Z" fill="black"/>
<path d="M34.2462 19.7971C33.9887 19.7971 33.7576 19.7472 33.5526 19.6474C33.353 19.5475 33.1927 19.4109 33.0718 19.2375C32.9562 19.0641 32.8984 18.8697 32.8984 18.6543C32.8984 18.3705 32.9694 18.1472 33.1112 17.9843C33.2531 17.8214 33.4922 17.7085 33.8285 17.6454C34.1648 17.5771 34.6272 17.5429 35.2157 17.5429H35.5546V17.8976H35.2236C34.7507 17.8976 34.3802 17.9186 34.1122 17.9607C33.8495 17.9975 33.6656 18.0684 33.5605 18.1735C33.4554 18.2786 33.4029 18.4257 33.4029 18.6149C33.4029 18.8513 33.4843 19.0431 33.6472 19.1902C33.8101 19.3374 34.0308 19.4109 34.3093 19.4109C34.5352 19.4109 34.7323 19.3584 34.9004 19.2533C35.0738 19.1429 35.2104 18.9932 35.3103 18.804C35.4101 18.6149 35.46 18.3994 35.46 18.1577V17.2592C35.46 16.9072 35.3891 16.6523 35.2472 16.4947C35.1053 16.3318 34.8794 16.2503 34.5694 16.2503C34.3697 16.2503 34.1753 16.2766 33.9861 16.3292C33.8022 16.3817 33.6052 16.4658 33.395 16.5814C33.3372 16.6129 33.2846 16.6234 33.2374 16.6129C33.1953 16.6024 33.1612 16.5814 33.1349 16.5498C33.1139 16.5183 33.0981 16.4815 33.0876 16.4395C33.0823 16.3922 33.0902 16.3475 33.1112 16.3055C33.1323 16.2635 33.169 16.2293 33.2216 16.203C33.4423 16.0822 33.6656 15.9929 33.8915 15.9351C34.1227 15.872 34.3461 15.8405 34.5615 15.8405C34.8715 15.8405 35.1264 15.893 35.326 15.9981C35.5309 16.1032 35.6807 16.2608 35.7753 16.471C35.8751 16.6812 35.925 16.9518 35.925 17.2828V19.537C35.925 19.6159 35.9066 19.6763 35.8699 19.7183C35.8331 19.7604 35.7779 19.7814 35.7043 19.7814C35.6308 19.7814 35.573 19.7604 35.5309 19.7183C35.4889 19.6763 35.4679 19.6159 35.4679 19.537V18.8119H35.5467C35.4994 19.0168 35.4154 19.1929 35.2945 19.34C35.1736 19.4871 35.0239 19.6001 34.8452 19.6789C34.6666 19.7577 34.4669 19.7971 34.2462 19.7971Z" fill="black"/>
<path d="M27.584 19.7814C27.5105 19.7814 27.4527 19.7603 27.4106 19.7183C27.3739 19.6763 27.3555 19.6158 27.3555 19.537V14.3823C27.3555 14.2983 27.3739 14.2352 27.4106 14.1932C27.4474 14.1511 27.4973 14.1301 27.5604 14.1301C27.6287 14.1301 27.6786 14.1406 27.7101 14.1617C27.7417 14.1827 27.7758 14.2221 27.8126 14.2799L31.4382 19.1587H31.2569V14.3666C31.2569 14.2878 31.2753 14.23 31.3121 14.1932C31.3542 14.1511 31.412 14.1301 31.4855 14.1301C31.5538 14.1301 31.6064 14.1511 31.6432 14.1932C31.6852 14.23 31.7062 14.2878 31.7062 14.3666V19.537C31.7062 19.6158 31.6878 19.6763 31.651 19.7183C31.6195 19.7603 31.5722 19.7814 31.5092 19.7814C31.4514 19.7814 31.4041 19.7682 31.3673 19.742C31.3305 19.7209 31.2911 19.6842 31.2491 19.6316L27.6313 14.7528H27.8047V19.537C27.8047 19.6158 27.7837 19.6763 27.7417 19.7183C27.7049 19.7603 27.6523 19.7814 27.584 19.7814Z" fill="black"/>
<path d="M35.0245 40.9162C34.951 40.9162 34.8935 40.8955 34.8521 40.8541C34.8107 40.8127 34.79 40.753 34.79 40.6748V36.2955C34.79 36.2173 34.8107 36.1576 34.8521 36.1162C34.8935 36.0748 34.951 36.0541 35.0245 36.0541H36.3556C37.128 36.0541 37.7234 36.261 38.1418 36.6748C38.5648 37.0886 38.7762 37.6909 38.7762 38.4817C38.7762 38.8771 38.7211 39.2265 38.6107 39.53C38.505 39.8334 38.3487 40.0886 38.1418 40.2955C37.9349 40.4978 37.682 40.6518 37.3831 40.7576C37.0843 40.8633 36.7418 40.9162 36.3556 40.9162H35.0245ZM35.2107 40.5438H36.3211C36.6567 40.5438 36.9487 40.5001 37.1969 40.4127C37.4498 40.3254 37.659 40.1966 37.8245 40.0265C37.99 39.8564 38.1142 39.6426 38.1969 39.3851C38.2797 39.1231 38.3211 38.8219 38.3211 38.4817C38.3211 37.7966 38.1533 37.284 37.8176 36.9438C37.4866 36.5989 36.9877 36.4265 36.3211 36.4265H35.2107V40.5438Z" fill="black"/>
<path d="M32.118 40.9714C31.8973 40.9714 31.6835 40.953 31.4766 40.9162C31.2697 40.8794 31.0766 40.8242 30.8973 40.7507C30.7226 40.6725 30.564 40.5783 30.4215 40.4679C30.3755 40.4357 30.3433 40.399 30.3249 40.3576C30.3111 40.3116 30.3088 40.2702 30.318 40.2334C30.3318 40.1921 30.3525 40.1576 30.3801 40.13C30.4123 40.1024 30.4491 40.0886 30.4904 40.0886C30.5318 40.084 30.5755 40.0978 30.6215 40.13C30.833 40.2863 31.0559 40.4013 31.2904 40.4748C31.5295 40.5484 31.8054 40.5852 32.118 40.5852C32.5548 40.5852 32.8812 40.5001 33.0973 40.33C33.318 40.1599 33.4284 39.9369 33.4284 39.661C33.4284 39.4311 33.3479 39.2518 33.187 39.1231C33.0307 38.9944 32.7709 38.8932 32.4077 38.8197L31.7111 38.6748C31.2743 38.5875 30.9502 38.4403 30.7387 38.2334C30.5272 38.0265 30.4215 37.7507 30.4215 37.4059C30.4215 37.1944 30.4628 37.0036 30.5456 36.8334C30.6284 36.6587 30.7456 36.5093 30.8973 36.3852C31.0491 36.261 31.2284 36.1668 31.4353 36.1024C31.6468 36.0334 31.8789 35.999 32.1318 35.999C32.4307 35.999 32.7042 36.0403 32.9525 36.1231C33.2054 36.2059 33.4353 36.3369 33.6422 36.5162C33.6835 36.5484 33.7111 36.5875 33.7249 36.6334C33.7387 36.6748 33.7387 36.7162 33.7249 36.7576C33.7111 36.7944 33.6904 36.8243 33.6628 36.8472C33.6353 36.8702 33.6008 36.884 33.5594 36.8886C33.518 36.8886 33.4743 36.8702 33.4284 36.8334C33.2353 36.6771 33.033 36.5645 32.8215 36.4955C32.6146 36.422 32.3847 36.3852 32.1318 36.3852C31.8743 36.3852 31.6491 36.4265 31.4559 36.5093C31.2674 36.5921 31.1203 36.7093 31.0146 36.861C30.9088 37.0128 30.8559 37.1921 30.8559 37.399C30.8559 37.638 30.9295 37.8288 31.0766 37.9714C31.2238 38.1139 31.4605 38.2174 31.787 38.2817L32.4904 38.4265C32.9548 38.5231 33.2996 38.6679 33.5249 38.861C33.7502 39.0495 33.8628 39.3093 33.8628 39.6403C33.8628 39.838 33.8215 40.0197 33.7387 40.1852C33.6605 40.3461 33.5456 40.4863 33.3939 40.6059C33.2422 40.7254 33.0582 40.8174 32.8422 40.8817C32.6307 40.9415 32.3893 40.9714 32.118 40.9714Z" fill="black"/>
<path d="M27.4727 40.9713C27.1647 40.9713 26.8911 40.93 26.652 40.8472C26.413 40.7644 26.213 40.6403 26.052 40.4748C25.8957 40.3093 25.7762 40.1047 25.6934 39.861C25.6153 39.6173 25.5762 39.3369 25.5762 39.0196V36.2265C25.5762 36.153 25.5946 36.1001 25.6313 36.0679C25.6681 36.0311 25.7187 36.0127 25.7831 36.0127C25.852 36.0127 25.9049 36.0311 25.9417 36.0679C25.9785 36.1001 25.9969 36.153 25.9969 36.2265V38.9851C25.9969 39.5231 26.121 39.9254 26.3693 40.192C26.6221 40.4541 26.99 40.5851 27.4727 40.5851C27.9601 40.5851 28.3279 40.4541 28.5762 40.192C28.8244 39.9254 28.9486 39.5231 28.9486 38.9851V36.2265C28.9486 36.153 28.967 36.1001 29.0038 36.0679C29.0405 36.0311 29.0934 36.0127 29.1624 36.0127C29.2267 36.0127 29.2773 36.0311 29.3141 36.0679C29.3509 36.1001 29.3693 36.153 29.3693 36.2265V39.0196C29.3693 39.4426 29.298 39.8012 29.1555 40.0955C29.013 40.3851 28.7992 40.6035 28.5141 40.7507C28.2336 40.8978 27.8865 40.9713 27.4727 40.9713Z" fill="black"/>
<path d="M22.9095 40.9714C22.5555 40.9714 22.2497 40.9208 21.9923 40.8197C21.7394 40.7139 21.544 40.5622 21.4061 40.3645C21.2727 40.1622 21.2061 39.9208 21.2061 39.6403C21.2061 39.4105 21.252 39.2082 21.344 39.0334C21.4405 38.8587 21.5716 38.7162 21.7371 38.6059C21.9026 38.4955 22.0934 38.4265 22.3095 38.399V38.4817C22.0061 38.4174 21.7647 38.2771 21.5854 38.061C21.4107 37.8403 21.3233 37.5806 21.3233 37.2817C21.3233 37.0105 21.3877 36.7806 21.5164 36.5921C21.6497 36.399 21.8359 36.2518 22.075 36.1507C22.3141 36.0495 22.5923 35.999 22.9095 35.999C23.2313 35.999 23.5095 36.0495 23.744 36.1507C23.9831 36.2518 24.167 36.399 24.2957 36.5921C24.429 36.7806 24.4957 37.0105 24.4957 37.2817C24.4957 37.4794 24.4543 37.661 24.3716 37.8265C24.2934 37.9921 24.1808 38.1323 24.0336 38.2472C23.8911 38.3576 23.7164 38.4357 23.5095 38.4817V38.399C23.8405 38.4449 24.1072 38.5783 24.3095 38.799C24.5118 39.0197 24.613 39.3001 24.613 39.6403C24.613 39.9208 24.544 40.1622 24.4061 40.3645C24.2727 40.5622 24.0796 40.7139 23.8267 40.8197C23.5739 40.9208 23.2681 40.9714 22.9095 40.9714ZM22.9095 40.6059C23.3325 40.6059 23.6497 40.5254 23.8612 40.3645C24.0773 40.199 24.1854 39.9507 24.1854 39.6197C24.1854 39.2886 24.0773 39.0426 23.8612 38.8817C23.6497 38.7208 23.3325 38.6403 22.9095 38.6403C22.4911 38.6403 22.1739 38.7208 21.9578 38.8817C21.7417 39.0426 21.6336 39.2886 21.6336 39.6197C21.6336 39.9507 21.7417 40.199 21.9578 40.3645C22.1739 40.5254 22.4911 40.6059 22.9095 40.6059ZM22.9095 38.2679C23.1532 38.2679 23.3601 38.2311 23.5302 38.1576C23.7049 38.0794 23.8382 37.9691 23.9302 37.8265C24.0267 37.6794 24.075 37.507 24.075 37.3093C24.075 37.0105 23.9716 36.7783 23.7647 36.6128C23.5624 36.4472 23.2773 36.3645 22.9095 36.3645C22.5463 36.3645 22.2612 36.4472 22.0543 36.6128C21.8474 36.7783 21.744 37.0105 21.744 37.3093C21.744 37.6082 21.8474 37.8426 22.0543 38.0128C22.2612 38.1829 22.5463 38.2679 22.9095 38.2679Z" fill="black"/>
<path d="M17.5814 40.9162C17.4986 40.9162 17.4366 40.8978 17.3952 40.861C17.3584 40.8197 17.34 40.7668 17.34 40.7024C17.34 40.6656 17.3492 40.6288 17.3676 40.5921C17.386 40.5553 17.4113 40.5208 17.4435 40.4886L19.0573 38.7438C19.3055 38.4771 19.4848 38.2311 19.5952 38.0059C19.7055 37.776 19.7607 37.5415 19.7607 37.3024C19.7607 37.0036 19.6711 36.776 19.4917 36.6197C19.3124 36.4633 19.0504 36.3852 18.7055 36.3852C18.4757 36.3852 18.2619 36.4243 18.0642 36.5024C17.8711 36.576 17.6848 36.6863 17.5055 36.8334C17.4596 36.8702 17.4159 36.8886 17.3745 36.8886C17.3377 36.8886 17.3055 36.8771 17.278 36.8541C17.2504 36.8265 17.2297 36.7944 17.2159 36.7576C17.2067 36.7162 17.2067 36.6748 17.2159 36.6334C17.2297 36.5921 17.255 36.5553 17.2917 36.5231C17.4711 36.3668 17.6871 36.2403 17.94 36.1438C18.1929 36.0472 18.455 35.999 18.7262 35.999C19.0389 35.999 19.3032 36.0495 19.5193 36.1507C19.74 36.2472 19.9078 36.3921 20.0228 36.5852C20.1377 36.7783 20.1952 37.0105 20.1952 37.2817C20.1952 37.4748 20.163 37.6656 20.0986 37.8541C20.0343 38.0426 19.9377 38.2334 19.809 38.4265C19.6848 38.6197 19.5239 38.822 19.3262 39.0334L17.7745 40.6748V40.5438H20.2366C20.3009 40.5438 20.3492 40.5599 20.3814 40.5921C20.4182 40.6197 20.4366 40.6633 20.4366 40.7231C20.4366 40.7875 20.4182 40.8357 20.3814 40.8679C20.3492 40.9001 20.3009 40.9162 20.2366 40.9162H17.5814Z" fill="black"/>
<path d="M14.6387 40.9714C14.0916 40.9714 13.6755 40.7599 13.3904 40.3369C13.11 39.9093 12.9697 39.2932 12.9697 38.4886C12.9697 37.9415 13.0318 37.484 13.1559 37.1162C13.2847 36.7484 13.4732 36.4702 13.7215 36.2817C13.9697 36.0932 14.2755 35.999 14.6387 35.999C15.1904 35.999 15.6065 36.2082 15.887 36.6265C16.1674 37.0449 16.3077 37.6633 16.3077 38.4817C16.3077 39.0197 16.2433 39.4748 16.1146 39.8472C15.9904 40.2197 15.8042 40.5001 15.5559 40.6886C15.3077 40.8771 15.0019 40.9714 14.6387 40.9714ZM14.6387 40.5921C15.0571 40.5921 15.3674 40.4197 15.5697 40.0748C15.772 39.73 15.8732 39.199 15.8732 38.4817C15.8732 37.7553 15.772 37.2242 15.5697 36.8886C15.372 36.5484 15.0617 36.3783 14.6387 36.3783C14.2203 36.3783 13.91 36.5484 13.7077 36.8886C13.5054 37.2288 13.4042 37.7599 13.4042 38.4817C13.4042 39.199 13.5054 39.73 13.7077 40.0748C13.91 40.4197 14.2203 40.5921 14.6387 40.5921Z" fill="black"/>
<path d="M11.8616 41.5369C11.8202 41.5875 11.7788 41.615 11.7374 41.6196C11.696 41.6288 11.6593 41.6219 11.6271 41.599C11.5995 41.576 11.5834 41.5438 11.5788 41.5024C11.5788 41.461 11.5995 41.4127 11.6409 41.3576C11.7006 41.2748 11.7443 41.1875 11.7719 41.0955C11.7995 41.0035 11.8133 40.9185 11.8133 40.8403L11.8409 40.9369C11.7397 40.9369 11.657 40.907 11.5926 40.8472C11.5328 40.7875 11.5029 40.7116 11.5029 40.6196C11.5029 40.5277 11.5305 40.4518 11.5857 40.3921C11.6409 40.3323 11.7167 40.3024 11.8133 40.3024C11.9098 40.3024 11.9857 40.3369 12.0409 40.4058C12.1006 40.4702 12.1305 40.5691 12.1305 40.7024C12.1305 40.7852 12.1213 40.8748 12.1029 40.9714C12.0891 41.0725 12.0616 41.1714 12.0202 41.2679C11.9788 41.3645 11.9259 41.4541 11.8616 41.5369Z" fill="black"/>
<path d="M7.8021 40.9162C7.71934 40.9162 7.65727 40.8978 7.61589 40.8611C7.57911 40.8197 7.56072 40.7668 7.56072 40.7024C7.56072 40.6657 7.56992 40.6289 7.58831 40.5921C7.6067 40.5553 7.63199 40.5208 7.66417 40.4886L9.27796 38.7438C9.52624 38.4772 9.70555 38.2312 9.81589 38.0059C9.92624 37.776 9.98141 37.5415 9.98141 37.3024C9.98141 37.0036 9.89176 36.776 9.71245 36.6197C9.53314 36.4634 9.27107 36.3852 8.92624 36.3852C8.69635 36.3852 8.48256 36.4243 8.28486 36.5024C8.09176 36.576 7.90555 36.6863 7.72624 36.8335C7.68026 36.8703 7.63658 36.8886 7.5952 36.8886C7.55842 36.8886 7.52624 36.8772 7.49865 36.8542C7.47107 36.8266 7.45038 36.7944 7.43658 36.7576C7.42739 36.7162 7.42739 36.6749 7.43658 36.6335C7.45038 36.5921 7.47566 36.5553 7.51245 36.5231C7.69176 36.3668 7.90785 36.2404 8.16072 36.1438C8.4136 36.0473 8.67566 35.999 8.94693 35.999C9.25957 35.999 9.52394 36.0496 9.74003 36.1507C9.96072 36.2473 10.1285 36.3921 10.2435 36.5852C10.3584 36.7783 10.4159 37.0105 10.4159 37.2818C10.4159 37.4749 10.3837 37.6657 10.3193 37.8542C10.255 38.0427 10.1584 38.2335 10.0297 38.4266C9.90555 38.6197 9.74463 38.822 9.54693 39.0335L7.9952 40.6749V40.5438H10.4573C10.5216 40.5438 10.5699 40.5599 10.6021 40.5921C10.6389 40.6197 10.6573 40.6634 10.6573 40.7231C10.6573 40.7875 10.6389 40.8358 10.6021 40.868C10.5699 40.9001 10.5216 40.9162 10.4573 40.9162H7.8021Z" fill="black"/>
<path d="M26.9551 50.8029C26.9275 50.8535 26.8953 50.8857 26.8586 50.8995C26.8218 50.9179 26.785 50.9225 26.7482 50.9133C26.7114 50.9041 26.6792 50.8857 26.6517 50.8581C26.6287 50.8305 26.6149 50.796 26.6103 50.7547C26.6057 50.7133 26.6172 50.6696 26.6448 50.6236L29.3551 45.8857C29.3827 45.8351 29.4149 45.8029 29.4517 45.7891C29.4884 45.7708 29.5252 45.7662 29.562 45.7753C29.5988 45.7845 29.6287 45.8052 29.6517 45.8374C29.6792 45.865 29.6953 45.8995 29.6999 45.9409C29.7045 45.9822 29.693 46.0259 29.6654 46.0719L26.9551 50.8029ZM26.5413 48.8236C26.1873 48.8236 25.9068 48.6949 25.6999 48.4374C25.4976 48.1753 25.3965 47.8075 25.3965 47.334C25.3965 47.0213 25.4425 46.7547 25.5344 46.534C25.6264 46.3133 25.7574 46.1455 25.9275 46.0305C26.1022 45.911 26.3068 45.8512 26.5413 45.8512C26.8953 45.8512 27.1758 45.9822 27.3827 46.2443C27.5896 46.5018 27.693 46.865 27.693 47.334C27.693 47.6512 27.6471 47.9202 27.5551 48.1409C27.4632 48.3616 27.3321 48.5317 27.162 48.6512C26.9919 48.7662 26.785 48.8236 26.5413 48.8236ZM26.5413 48.4995C26.7022 48.4995 26.8402 48.4558 26.9551 48.3685C27.07 48.2765 27.1574 48.1455 27.2172 47.9753C27.2769 47.8006 27.3068 47.5868 27.3068 47.334C27.3068 46.957 27.2379 46.6719 27.0999 46.4788C26.9666 46.2811 26.7804 46.1822 26.5413 46.1822C26.385 46.1822 26.2494 46.2259 26.1344 46.3133C26.0195 46.4006 25.9321 46.5294 25.8723 46.6995C25.8126 46.8696 25.7827 47.0811 25.7827 47.334C25.7827 47.7202 25.8494 48.0121 25.9827 48.2098C26.1206 48.4029 26.3068 48.4995 26.5413 48.4995ZM29.7689 50.8236C29.4149 50.8236 29.1344 50.6949 28.9275 50.4374C28.7252 50.1799 28.6241 49.8121 28.6241 49.334C28.6241 49.0213 28.67 48.7547 28.762 48.534C28.854 48.3133 28.985 48.1455 29.1551 48.0305C29.3298 47.911 29.5344 47.8512 29.7689 47.8512C30.1275 47.8512 30.408 47.9822 30.6103 48.2443C30.8172 48.5018 30.9206 48.865 30.9206 49.334C30.9206 49.6512 30.8746 49.9225 30.7827 50.1478C30.6907 50.3685 30.5597 50.5363 30.3896 50.6512C30.2195 50.7662 30.0126 50.8236 29.7689 50.8236ZM29.7689 50.4995C29.9298 50.4995 30.0677 50.4558 30.1827 50.3685C30.2976 50.2811 30.385 50.1501 30.4448 49.9753C30.5045 49.8006 30.5344 49.5868 30.5344 49.334C30.5344 48.957 30.4654 48.6719 30.3275 48.4788C30.1942 48.2811 30.008 48.1822 29.7689 48.1822C29.6126 48.1822 29.4769 48.2259 29.362 48.3133C29.2471 48.4006 29.1597 48.5294 29.0999 48.6995C29.0402 48.8696 29.0103 49.0811 29.0103 49.334C29.0103 49.7202 29.0769 50.0121 29.2103 50.2098C29.3482 50.4029 29.5344 50.4995 29.7689 50.4995Z" fill="#A6A6A6"/>
<path d="M21.9856 50.8098C21.9396 50.8098 21.8982 50.7983 21.8614 50.7753C21.8292 50.7523 21.8062 50.7201 21.7924 50.6788C21.7833 50.6328 21.7925 50.5822 21.82 50.527L24.0959 46.065V46.2857H21.5028C21.4384 46.2857 21.3879 46.2696 21.3511 46.2374C21.3143 46.2006 21.2959 46.1523 21.2959 46.0925C21.2959 46.0328 21.3143 45.9868 21.3511 45.9546C21.3879 45.9224 21.4384 45.9063 21.5028 45.9063H24.2683C24.3373 45.9063 24.3902 45.9224 24.4269 45.9546C24.4637 45.9868 24.4821 46.0328 24.4821 46.0925C24.4821 46.1385 24.4775 46.1799 24.4683 46.2167C24.4591 46.2535 24.4407 46.2948 24.4131 46.3408L22.22 50.665C22.197 50.7155 22.1672 50.7523 22.1304 50.7753C22.0936 50.7983 22.0453 50.8098 21.9856 50.8098Z" fill="#A6A6A6"/>
<path d="M17.7674 50.7684C17.7076 50.7684 17.6593 50.7523 17.6226 50.7201C17.5858 50.6834 17.5674 50.6351 17.5674 50.5753C17.5674 50.5155 17.5858 50.4719 17.6226 50.4443C17.6593 50.4121 17.7076 50.396 17.7674 50.396H18.726V46.2443H18.9674L17.9674 46.927C17.9214 46.9592 17.8777 46.9753 17.8363 46.9753C17.795 46.9707 17.7605 46.9546 17.7329 46.927C17.7053 46.8994 17.6846 46.8673 17.6708 46.8305C17.6616 46.7937 17.6639 46.7546 17.6777 46.7132C17.6915 46.6719 17.7214 46.6374 17.7674 46.6098L18.7191 45.9477C18.7651 45.9201 18.8065 45.8994 18.8432 45.8856C18.88 45.8719 18.9214 45.865 18.9674 45.865C19.018 45.865 19.0593 45.8811 19.0915 45.9132C19.1283 45.9408 19.1467 45.9891 19.1467 46.0581V50.396H20.0363C20.1007 50.396 20.149 50.4121 20.1812 50.4443C20.218 50.4719 20.2363 50.5155 20.2363 50.5753C20.2363 50.6397 20.218 50.6879 20.1812 50.7201C20.149 50.7523 20.1007 50.7684 20.0363 50.7684H17.7674Z" fill="#A6A6A6"/>
<path d="M15.9963 51.3891C15.9549 51.4397 15.9136 51.4673 15.8722 51.4719C15.8308 51.4811 15.794 51.4742 15.7618 51.4512C15.7342 51.4282 15.7182 51.396 15.7136 51.3546C15.7136 51.3133 15.7342 51.265 15.7756 51.2098C15.8354 51.127 15.8791 51.0397 15.9067 50.9477C15.9342 50.8558 15.948 50.7707 15.948 50.6926L15.9756 50.7891C15.8745 50.7891 15.7917 50.7592 15.7274 50.6995C15.6676 50.6397 15.6377 50.5638 15.6377 50.4719C15.6377 50.3799 15.6653 50.3041 15.7205 50.2443C15.7756 50.1845 15.8515 50.1546 15.948 50.1546C16.0446 50.1546 16.1205 50.1891 16.1756 50.2581C16.2354 50.3224 16.2653 50.4213 16.2653 50.5546C16.2653 50.6374 16.2561 50.727 16.2377 50.8236C16.2239 50.9247 16.1963 51.0236 16.1549 51.1201C16.1136 51.2167 16.0607 51.3064 15.9963 51.3891Z" fill="#A6A6A6"/>
<path d="M12.1238 50.7684C12.0641 50.7684 12.0158 50.7523 11.979 50.7201C11.9422 50.6834 11.9238 50.6351 11.9238 50.5753C11.9238 50.5155 11.9422 50.4719 11.979 50.4443C12.0158 50.4121 12.0641 50.396 12.1238 50.396H13.0824V46.2443H13.3238L12.3238 46.927C12.2779 46.9592 12.2342 46.9753 12.1928 46.9753C12.1514 46.9707 12.1169 46.9546 12.0893 46.927C12.0618 46.8994 12.0411 46.8673 12.0273 46.8305C12.0181 46.7937 12.0204 46.7546 12.0342 46.7132C12.048 46.6719 12.0779 46.6374 12.1238 46.6098L13.0756 45.9477C13.1215 45.9201 13.1629 45.8994 13.1997 45.8856C13.2365 45.8719 13.2779 45.865 13.3238 45.865C13.3744 45.865 13.4158 45.8811 13.448 45.9132C13.4847 45.9408 13.5031 45.9891 13.5031 46.0581V50.396H14.3928C14.4572 50.396 14.5054 50.4121 14.5376 50.4443C14.5744 50.4719 14.5928 50.5155 14.5928 50.5753C14.5928 50.6397 14.5744 50.6879 14.5376 50.7201C14.5054 50.7523 14.4572 50.7684 14.3928 50.7684H12.1238Z" fill="#A6A6A6"/>
<path d="M7.44988 48.9616C7.39011 48.9616 7.34413 48.9478 7.31195 48.9202C7.27976 48.888 7.26367 48.8443 7.26367 48.7891C7.26367 48.734 7.27976 48.6926 7.31195 48.665C7.34413 48.6328 7.39011 48.6167 7.44988 48.6167H10.5395C10.5993 48.6167 10.6453 48.6328 10.6775 48.665C10.7096 48.6926 10.7257 48.734 10.7257 48.7891C10.7257 48.8489 10.7096 48.8926 10.6775 48.9202C10.6453 48.9478 10.5993 48.9616 10.5395 48.9616H7.44988Z" fill="#A6A6A6"/>
<path fill-rule="evenodd" clip-rule="evenodd" d="M70.9652 29.5862H6.92578V29.0936H70.9652V29.5862Z" fill="black"/>
<g clip-path="url(#clip0_2002_405)">
<path d="M6.92578 9.88177H21.7041V24.6601H6.92578V9.88177Z" fill="#42A5F5"/>
<path d="M17.0249 14.6945C17.0249 14.7676 16.7777 16.2525 16.0364 16.8629C17.0289 13.7463 14.3189 11.993 14.3189 11.993C14.3189 11.993 13.8988 14.3079 13.0831 15.1827C13.038 14.1859 12.4656 13.5756 12.4656 13.5756C12.0534 15.378 10.6201 16.936 10.6201 18.1038C10.6159 20.1297 12.2634 21.7572 14.3147 21.7572C16.3618 21.7572 18.0093 20.1297 18.0093 18.1038C18.0093 16.6431 17.5934 15.5733 17.0249 14.6945Z" fill="white"/>
</g>
<path d="M55 79.4631C55 78.1027 56.1027 77 57.4631 77H126.429C127.789 77 128.892 78.1027 128.892 79.4631V174.537C128.892 175.897 127.789 177 126.429 177H57.4631C56.1027 177 55 175.897 55 174.537V79.4631Z" fill="white"/>
<g filter="url(#filter1_d_2002_405)">
<path d="M55 79.4631C55 78.1027 56.1027 77 57.4631 77H126.429C127.789 77 128.892 78.1027 128.892 79.4631V174.537C128.892 175.897 127.789 177 126.429 177H57.4631C56.1027 177 55 175.897 55 174.537V79.4631Z" fill="white"/>
</g>
<rect x="59.9258" y="160.251" width="22.0499" height="7.47586" rx="3" fill="#292929"/>
<path d="M77.5938 165.467C77.53 165.467 77.4812 165.452 77.4474 165.422C77.4174 165.388 77.4023 165.342 77.4023 165.282V162.877C77.4023 162.817 77.4174 162.772 77.4474 162.742C77.4774 162.712 77.5206 162.697 77.5769 162.697C77.6295 162.697 77.6708 162.712 77.7008 162.742C77.7308 162.772 77.7458 162.817 77.7458 162.877V163.744H78.6187C78.9603 163.744 79.2194 163.819 79.3958 163.969C79.576 164.12 79.6661 164.33 79.6661 164.6C79.6661 164.78 79.6248 164.936 79.5422 165.068C79.4634 165.199 79.347 165.298 79.1931 165.366C79.0392 165.434 78.8477 165.467 78.6187 165.467H77.5938ZM77.7458 165.203H78.6074C78.8327 165.203 79.0072 165.154 79.1311 165.056C79.2588 164.959 79.3226 164.808 79.3226 164.606C79.3226 164.399 79.2588 164.247 79.1311 164.15C79.0072 164.052 78.8327 164.003 78.6074 164.003H77.7458V165.203Z" fill="white"/>
<path d="M75.7149 165.501C75.6624 165.501 75.6211 165.486 75.591 165.456C75.561 165.426 75.546 165.383 75.546 165.327V163.023H74.6562C74.5436 163.023 74.4873 162.975 74.4873 162.877C74.4873 162.836 74.5023 162.802 74.5324 162.776C74.5624 162.749 74.6037 162.736 74.6562 162.736H76.7792C76.8881 162.736 76.9425 162.783 76.9425 162.877C76.9425 162.922 76.9275 162.958 76.8975 162.984C76.8712 163.01 76.8318 163.023 76.7792 163.023H75.8895V165.327C75.8895 165.383 75.8745 165.426 75.8444 165.456C75.8182 165.486 75.775 165.501 75.7149 165.501Z" fill="white"/>
<path d="M71.895 165.501C71.8649 165.501 71.8368 165.495 71.8105 165.484C71.788 165.473 71.7692 165.454 71.7542 165.428C71.7429 165.398 71.7373 165.36 71.7373 165.315V162.871C71.7373 162.815 71.7504 162.772 71.7767 162.742C71.8068 162.712 71.8481 162.697 71.9006 162.697C71.9494 162.697 71.987 162.712 72.0132 162.742C72.0395 162.772 72.0527 162.815 72.0527 162.871V165.163H71.9175L73.6688 162.809C73.6951 162.776 73.7233 162.749 73.7533 162.731C73.7833 162.708 73.8227 162.697 73.8715 162.697C73.9053 162.697 73.9335 162.704 73.956 162.719C73.9785 162.731 73.9954 162.749 74.0067 162.776C74.0217 162.802 74.0292 162.838 74.0292 162.883V165.332C74.0292 165.385 74.0142 165.426 73.9842 165.456C73.9579 165.486 73.9204 165.501 73.8715 165.501C73.819 165.501 73.7796 165.486 73.7533 165.456C73.727 165.426 73.7139 165.385 73.7139 165.332V163.04H73.849L72.0921 165.394C72.0695 165.424 72.0433 165.449 72.0132 165.467C71.9832 165.49 71.9438 165.501 71.895 165.501Z" fill="white"/>
<path d="M68.6785 165.501C68.6222 165.501 68.579 165.486 68.549 165.456C68.5189 165.426 68.5039 165.383 68.5039 165.327V162.933C68.5039 162.869 68.5208 162.821 68.5546 162.787C68.5884 162.753 68.6372 162.736 68.701 162.736H70.5931C70.6569 162.736 70.7057 162.753 70.7395 162.787C70.7733 162.821 70.7902 162.869 70.7902 162.933V165.327C70.7902 165.383 70.7752 165.426 70.7451 165.456C70.7151 165.486 70.6719 165.501 70.6156 165.501C70.5631 165.501 70.5218 165.486 70.4917 165.456C70.4617 165.426 70.4467 165.383 70.4467 165.327V163.018H68.8474V165.327C68.8474 165.383 68.8324 165.426 68.8024 165.456C68.7761 165.486 68.7348 165.501 68.6785 165.501Z" fill="white"/>
<path d="M66.1699 166.515C66.1249 166.515 66.0892 166.502 66.0629 166.475C66.0366 166.453 66.0216 166.421 66.0179 166.38C66.0179 166.342 66.0254 166.303 66.0404 166.261L66.4289 165.377V165.535L65.3252 162.956C65.3065 162.911 65.2989 162.869 65.3027 162.832C65.3102 162.791 65.3271 162.759 65.3534 162.736C65.3834 162.71 65.4247 162.697 65.4773 162.697C65.5261 162.697 65.5617 162.708 65.5843 162.731C65.6105 162.753 65.6331 162.789 65.6518 162.838L66.6542 165.265H66.5134L67.5158 162.838C67.5383 162.785 67.5627 162.749 67.589 162.731C67.6153 162.708 67.6528 162.697 67.7016 162.697C67.7504 162.697 67.7861 162.71 67.8086 162.736C67.8349 162.759 67.8499 162.789 67.8537 162.826C67.8574 162.864 67.8499 162.905 67.8311 162.95L66.3614 166.38C66.3388 166.432 66.3126 166.468 66.2825 166.487C66.2563 166.505 66.2187 166.515 66.1699 166.515Z" fill="white"/>
<path d="M62.4053 165.501C62.3527 165.501 62.3114 165.486 62.2814 165.456C62.2513 165.422 62.2363 165.377 62.2363 165.321V161.638C62.2363 161.582 62.2513 161.539 62.2814 161.509C62.3114 161.479 62.3527 161.464 62.4053 161.464C62.4616 161.464 62.5048 161.479 62.5348 161.509C62.5648 161.539 62.5798 161.582 62.5798 161.638V163.305H63.4133L63.2837 163.389L64.517 161.554C64.5433 161.516 64.5733 161.492 64.6071 161.48C64.6409 161.465 64.6747 161.462 64.7084 161.469C64.7422 161.477 64.7704 161.494 64.7929 161.52C64.8154 161.542 64.8286 161.571 64.8323 161.604C64.8398 161.638 64.8305 161.676 64.8042 161.717L63.6329 163.44L63.5146 163.316C63.7324 163.339 63.9201 163.418 64.0777 163.553C64.2392 163.684 64.3781 163.868 64.4945 164.105L65.0688 165.265C65.0914 165.306 65.097 165.345 65.0857 165.383C65.0782 165.417 65.0595 165.443 65.0294 165.462C65.0031 165.481 64.9712 165.492 64.9337 165.496C64.8999 165.499 64.8661 165.492 64.8323 165.473C64.7985 165.458 64.7723 165.43 64.7535 165.389L64.2242 164.296C64.104 164.048 63.9689 163.872 63.8187 163.767C63.6723 163.662 63.4921 163.609 63.2781 163.609H62.5798V165.321C62.5798 165.377 62.5648 165.422 62.5348 165.456C62.5085 165.486 62.4653 165.501 62.4053 165.501Z" fill="white"/>
<path fill-rule="evenodd" clip-rule="evenodd" d="M102.291 129.441L102.78 129.422L104.31 138.417L112.882 143.088V135.993L115.818 140.692L117.814 147.567L120.16 139.911L121.617 145.207L124.271 142.111L124.645 142.431L121.388 146.231L120.135 141.675L117.801 149.29L115.364 140.895L113.374 137.711V143.917L103.864 138.736L102.613 131.381L100.565 154.362L100.076 154.372L98.3441 141.183L95.5386 150.018L95.2768 149.877C95.1666 149.817 95.074 149.722 94.996 149.619C94.9162 149.514 94.8403 149.385 94.7678 149.241C94.623 148.953 94.4811 148.583 94.3445 148.164C94.0708 147.325 93.8085 146.262 93.5809 145.211C93.3531 144.159 93.1587 143.113 93.0212 142.305C92.9525 141.902 92.8978 141.556 92.8603 141.299C92.8244 141.054 92.8005 140.865 92.8005 140.793C92.8005 140.737 92.772 140.599 92.7041 140.38C92.6399 140.173 92.55 139.921 92.4486 139.656C92.3333 139.353 92.2046 139.037 92.0852 138.752L91.2971 140.928L88.7425 143.493L88.637 143.069C88.3914 142.083 87.8047 139.826 87.4155 138.654C87.2352 138.111 87.0095 138.017 86.8742 138.009C86.7069 138 86.5128 138.104 86.3718 138.238L81.7602 145.864V138.576C81.7602 137.962 81.7169 137.602 81.6569 137.423C81.6567 137.422 81.6564 137.422 81.6562 137.421C81.6344 137.444 81.6085 137.475 81.5788 137.516C81.5152 137.602 81.4447 137.716 81.3686 137.855C81.2166 138.133 81.0517 138.493 80.8844 138.893C80.5593 139.67 80.2336 140.576 79.9828 141.274L79.9612 141.334C79.8353 141.684 79.7283 141.98 79.6526 142.171C79.6168 142.261 79.5814 142.345 79.5507 142.397C79.5428 142.411 79.5292 142.433 79.5103 142.454C79.5009 142.465 79.4837 142.483 79.4586 142.5C79.4355 142.516 79.3844 142.546 79.3127 142.545C79.2291 142.544 79.1641 142.503 79.1248 142.457C79.0915 142.418 79.0783 142.378 79.0729 142.359C79.0619 142.321 79.0615 142.286 79.0615 142.271C79.0615 142.008 78.9865 141.602 78.8845 141.184C78.8148 140.899 78.7353 140.619 78.6665 140.394L75.9971 141.612L74.7025 138.796L73.7043 142.357L72.428 145.059L71.4526 149.711L70.9739 149.725C70.7276 148.818 70.19 146.872 69.9964 146.289C69.9181 146.053 69.7298 145.821 69.5027 145.62C69.4187 145.546 69.3324 145.479 69.2498 145.42V149.906H67.7452L67.2846 153.143L66.8092 153.192L64.343 146.384V153.97L62.7332 151.384H61.5558L60.1497 154.443L59.7021 154.237L61.2401 150.892H63.0068L63.8504 152.247V144.98L64.3283 144.896L66.9361 152.096L67.2852 149.643C67.2859 149.228 67.3108 148.631 67.3867 148.179C67.4235 147.959 67.4781 147.733 67.5715 147.584C67.6178 147.511 67.7056 147.406 67.8515 147.384C68.0045 147.361 68.1234 147.442 68.1966 147.516C68.3426 147.662 68.4166 147.858 68.4528 148.049C68.4893 148.242 68.4915 148.453 68.4763 148.656C68.4565 148.92 68.406 149.188 68.3493 149.414H68.7572V144.581L69.114 144.76C69.2951 144.851 69.5707 145.023 69.8291 145.252C70.0846 145.478 70.3461 145.779 70.464 146.134C70.6057 146.561 70.9213 147.679 71.1796 148.613L71.9578 144.901L73.2412 142.185L74.5901 137.372L76.2395 140.96L78.9644 139.716L79.0508 139.977C79.1344 140.228 79.259 140.641 79.363 141.067C79.3862 141.162 79.4087 141.259 79.4296 141.356C79.4515 141.295 79.4742 141.232 79.4977 141.167L79.5207 141.103C79.7706 140.408 80.0999 139.492 80.4299 138.703C80.5999 138.297 80.7724 137.918 80.9365 137.618C81.0186 137.468 81.1009 137.334 81.1823 137.223C81.2609 137.117 81.3509 137.016 81.4522 136.951C81.5589 136.883 81.7187 136.834 81.8789 136.924C82.0123 137 82.0822 137.141 82.1241 137.267C82.2118 137.529 82.2528 137.96 82.2528 138.576V144.097L85.9818 137.931L86.0028 137.91C86.1876 137.724 86.5226 137.495 86.9033 137.518C87.3241 137.543 87.6709 137.86 87.8831 138.499C88.2297 139.543 88.7259 141.417 89.0085 142.528L90.8711 140.658L92.0425 137.424L92.2906 137.984C92.4554 138.356 92.7025 138.939 92.9089 139.48C93.012 139.75 93.1061 140.013 93.1747 140.235C93.2398 140.445 93.2931 140.652 93.2931 140.793C93.2931 140.793 93.2931 140.793 93.2931 140.794C93.2932 140.796 93.2933 140.798 93.2935 140.801C93.2939 140.808 93.2947 140.817 93.2957 140.829C93.2979 140.852 93.3013 140.883 93.306 140.922C93.3153 140.999 93.3293 141.102 93.3477 141.228C93.3846 141.481 93.4386 141.822 93.5068 142.223C93.6433 143.025 93.8364 144.063 94.0624 145.107C94.2887 146.152 94.5468 147.196 94.8128 148.011C94.9461 148.42 95.079 148.764 95.2078 149.02C95.2361 149.076 95.2637 149.127 95.2904 149.172L98.2095 139.98L98.6884 140.022L100.273 152.091L102.291 129.441ZM67.7779 149.614L67.7884 149.583C67.8655 149.35 67.9583 148.976 67.9851 148.62C67.9984 148.441 67.9945 148.277 67.9687 148.14C67.9583 148.085 67.9449 148.038 67.9293 147.998C67.9099 148.066 67.8904 148.153 67.8725 148.26C67.8049 148.664 67.7797 149.212 67.7779 149.614Z" fill="#CF0000"/>
<path d="M100.175 94.7971C99.7808 94.7971 99.4419 94.7183 99.1581 94.5607C98.8744 94.403 98.6563 94.1771 98.504 93.8828C98.3516 93.5886 98.2754 93.2392 98.2754 92.8346C98.2754 92.4352 98.3516 92.0884 98.504 91.7942C98.6563 91.4947 98.8665 91.2608 99.1345 91.0927C99.4077 90.9246 99.7204 90.8405 100.072 90.8405C100.33 90.8405 100.556 90.8851 100.75 90.9745C100.95 91.0585 101.118 91.182 101.255 91.3449C101.397 91.5026 101.504 91.697 101.578 91.9282C101.651 92.1541 101.688 92.4116 101.688 92.7006C101.688 92.7741 101.667 92.8293 101.625 92.8661C101.588 92.9029 101.536 92.9213 101.468 92.9213H98.6222V92.5666H101.389L101.263 92.6691C101.263 92.3643 101.218 92.1068 101.129 91.8966C101.039 91.6812 100.905 91.5157 100.727 91.4001C100.553 91.2845 100.338 91.2267 100.08 91.2267C99.7913 91.2267 99.547 91.295 99.3473 91.4316C99.1476 91.563 98.9979 91.7469 98.8981 91.9833C98.7982 92.2145 98.7483 92.4825 98.7483 92.7873V92.8267C98.7483 93.3311 98.8718 93.72 99.1187 93.9932C99.3657 94.2612 99.7125 94.3952 100.159 94.3952C100.354 94.3952 100.54 94.3689 100.719 94.3163C100.903 94.2638 101.081 94.1745 101.255 94.0484C101.307 94.0116 101.357 93.9932 101.404 93.9932C101.457 93.9932 101.499 94.0063 101.531 94.0326C101.567 94.0589 101.591 94.093 101.602 94.1351C101.617 94.1718 101.615 94.2139 101.594 94.2612C101.578 94.3032 101.544 94.3426 101.491 94.3794C101.323 94.516 101.121 94.6211 100.884 94.6947C100.648 94.763 100.411 94.7971 100.175 94.7971Z" fill="black"/>
<path d="M96.0186 94.7971C95.6246 94.7971 95.2856 94.7183 95.0019 94.5607C94.7182 94.403 94.5001 94.1771 94.3477 93.8828C94.1953 93.5886 94.1191 93.2392 94.1191 92.8346C94.1191 92.4352 94.1953 92.0884 94.3477 91.7942C94.5001 91.4947 94.7103 91.2608 94.9783 91.0927C95.2515 90.9246 95.5641 90.8405 95.9162 90.8405C96.1737 90.8405 96.3996 90.8851 96.594 90.9745C96.7937 91.0585 96.9618 91.182 97.0985 91.3449C97.2403 91.5026 97.348 91.697 97.4216 91.9282C97.4952 92.1541 97.5319 92.4116 97.5319 92.7006C97.5319 92.7741 97.5109 92.8293 97.4689 92.8661C97.4321 92.9029 97.3796 92.9213 97.3113 92.9213H94.4659V92.5666H97.2324L97.1063 92.6691C97.1063 92.3643 97.0617 92.1068 96.9723 91.8966C96.883 91.6812 96.749 91.5157 96.5704 91.4001C96.397 91.2845 96.1815 91.2267 95.9241 91.2267C95.6351 91.2267 95.3907 91.295 95.1911 91.4316C94.9914 91.563 94.8416 91.7469 94.7418 91.9833C94.642 92.2145 94.592 92.4825 94.592 92.7873V92.8267C94.592 93.3311 94.7155 93.72 94.9625 93.9932C95.2095 94.2612 95.5563 94.3952 96.0029 94.3952C96.1973 94.3952 96.3838 94.3689 96.5625 94.3163C96.7464 94.2638 96.9251 94.1745 97.0985 94.0484C97.151 94.0116 97.2009 93.9932 97.2482 93.9932C97.3008 93.9932 97.3428 94.0063 97.3743 94.0326C97.4111 94.0589 97.4347 94.093 97.4453 94.1351C97.461 94.1718 97.4584 94.2139 97.4374 94.2612C97.4216 94.3032 97.3874 94.3426 97.3349 94.3794C97.1668 94.516 96.9645 94.6211 96.728 94.6947C96.4916 94.763 96.2551 94.7971 96.0186 94.7971Z" fill="black"/>
<path d="M92.3791 94.7813C92.3003 94.7813 92.2399 94.7603 92.1978 94.7183C92.1558 94.6762 92.1348 94.6158 92.1348 94.537V91.2976H91.5752C91.5069 91.2976 91.4517 91.2818 91.4097 91.2503C91.3729 91.2135 91.3545 91.1636 91.3545 91.1005C91.3545 91.0427 91.3729 90.9981 91.4097 90.9665C91.4517 90.9298 91.5069 90.9114 91.5752 90.9114H92.2609L92.1348 91.0375V90.7222C92.1348 90.2388 92.2504 89.8683 92.4816 89.6109C92.7128 89.3534 93.057 89.2036 93.5141 89.1616L93.7269 89.1458C93.7847 89.1406 93.8294 89.1511 93.8609 89.1774C93.8977 89.1984 93.9213 89.2273 93.9318 89.2641C93.9476 89.3009 93.9502 89.3403 93.9397 89.3823C93.9292 89.4191 93.9082 89.4532 93.8767 89.4848C93.8504 89.511 93.8162 89.5268 93.7742 89.5321L93.5535 89.5557C93.2277 89.582 92.9886 89.6897 92.8363 89.8788C92.6891 90.0628 92.6156 90.3307 92.6156 90.6828V91.0217L92.5446 90.9114H93.5535C93.6271 90.9114 93.6822 90.9298 93.719 90.9665C93.7558 90.9981 93.7742 91.0427 93.7742 91.1005C93.7742 91.1636 93.7558 91.2135 93.719 91.2503C93.6822 91.2818 93.6271 91.2976 93.5535 91.2976H92.6156V94.537C92.6156 94.6999 92.5368 94.7813 92.3791 94.7813Z" fill="black"/>
<path d="M89.9621 94.7813C89.8833 94.7813 89.8229 94.7603 89.7809 94.7183C89.7388 94.6762 89.7178 94.6158 89.7178 94.537V91.2976H89.1582C89.0899 91.2976 89.0347 91.2818 88.9927 91.2503C88.9559 91.2135 88.9375 91.1636 88.9375 91.1005C88.9375 91.0427 88.9559 90.9981 88.9927 90.9665C89.0347 90.9298 89.0899 90.9114 89.1582 90.9114H89.8439L89.7178 91.0375V90.7222C89.7178 90.2388 89.8334 89.8683 90.0646 89.6109C90.2958 89.3534 90.64 89.2036 91.0971 89.1616L91.3099 89.1458C91.3677 89.1406 91.4124 89.1511 91.4439 89.1774C91.4807 89.1984 91.5043 89.2273 91.5148 89.2641C91.5306 89.3009 91.5332 89.3403 91.5227 89.3823C91.5122 89.4191 91.4912 89.4532 91.4597 89.4848C91.4334 89.511 91.3992 89.5268 91.3572 89.5321L91.1365 89.5557C90.8107 89.582 90.5717 89.6897 90.4193 89.8788C90.2721 90.0628 90.1986 90.3307 90.1986 90.6828V91.0217L90.1276 90.9114H91.1365C91.2101 90.9114 91.2653 90.9298 91.302 90.9665C91.3388 90.9981 91.3572 91.0427 91.3572 91.1005C91.3572 91.1636 91.3388 91.2135 91.302 91.2503C91.2653 91.2818 91.2101 91.2976 91.1365 91.2976H90.1986V94.537C90.1986 94.6999 90.1198 94.7813 89.9621 94.7813Z" fill="black"/>
<path d="M86.786 94.7971C86.4286 94.7971 86.1186 94.7157 85.8559 94.5528C85.5932 94.3899 85.3883 94.1613 85.2411 93.8671C85.0993 93.5728 85.0283 93.2234 85.0283 92.8188C85.0283 92.5193 85.0677 92.2487 85.1465 92.007C85.2306 91.7653 85.3488 91.5577 85.5012 91.3843C85.6589 91.2057 85.8454 91.0717 86.0608 90.9824C86.2815 90.8878 86.5232 90.8405 86.786 90.8405C87.1485 90.8405 87.4612 90.9219 87.7239 91.0848C87.9866 91.2477 88.1889 91.4789 88.3308 91.7784C88.4779 92.0727 88.5515 92.4195 88.5515 92.8188C88.5515 93.1236 88.5094 93.3968 88.4254 93.6385C88.3465 93.8802 88.2283 94.0878 88.0707 94.2612C87.9183 94.4346 87.7344 94.5686 87.519 94.6631C87.3035 94.7525 87.0592 94.7971 86.786 94.7971ZM86.786 94.3952C87.0487 94.3952 87.2746 94.3347 87.4638 94.2139C87.6582 94.0878 87.8053 93.9065 87.9052 93.67C88.0103 93.4336 88.0628 93.1498 88.0628 92.8188C88.0628 92.3196 87.9472 91.9334 87.716 91.6602C87.4901 91.387 87.18 91.2503 86.786 91.2503C86.5285 91.2503 86.3025 91.3134 86.1081 91.4395C85.919 91.5604 85.7718 91.739 85.6667 91.9755C85.5669 92.2067 85.517 92.4878 85.517 92.8188C85.517 93.3232 85.6326 93.7121 85.8638 93.9853C86.095 94.2585 86.4024 94.3952 86.786 94.3952Z" fill="black"/>
<path d="M82.6737 94.7971C82.143 94.7971 81.6885 94.6841 81.3101 94.4582C80.9318 94.227 80.6402 93.8986 80.4352 93.473C80.2356 93.0474 80.1357 92.5403 80.1357 91.9518C80.1357 91.5104 80.1909 91.1163 80.3013 90.7695C80.4169 90.4175 80.5824 90.1206 80.7978 89.8789C81.0185 89.6319 81.2865 89.4428 81.6018 89.3114C81.9223 89.18 82.2796 89.1143 82.6737 89.1143C83.0205 89.1143 83.3436 89.1643 83.6431 89.2641C83.9426 89.3639 84.2001 89.5111 84.4155 89.7055C84.4681 89.7528 84.5022 89.8027 84.518 89.8552C84.5338 89.9078 84.5338 89.9577 84.518 90.005C84.5075 90.047 84.4839 90.0838 84.4471 90.1153C84.4103 90.1416 84.3656 90.1547 84.3131 90.1547C84.2658 90.1495 84.2132 90.1232 84.1554 90.0759C83.9558 89.9025 83.7325 89.7738 83.4855 89.6897C83.2438 89.6056 82.9758 89.5636 82.6816 89.5636C82.2454 89.5636 81.875 89.6582 81.5702 89.8474C81.2707 90.0313 81.0421 90.3019 80.8845 90.6592C80.7321 91.0165 80.6559 91.4474 80.6559 91.9518C80.6559 92.4615 80.7321 92.895 80.8845 93.2523C81.0421 93.6096 81.2707 93.8828 81.5702 94.072C81.875 94.2559 82.2454 94.3478 82.6816 94.3478C82.9706 94.3478 83.2385 94.3058 83.4855 94.2217C83.7325 94.1324 83.9584 94.001 84.1633 93.8277C84.2211 93.7804 84.2737 93.7567 84.321 93.7567C84.3735 93.7567 84.4155 93.7725 84.4471 93.804C84.4839 93.8303 84.5101 93.8671 84.5259 93.9144C84.5417 93.9564 84.5417 94.001 84.5259 94.0483C84.5154 94.0956 84.4865 94.1403 84.4392 94.1823C84.2132 94.3873 83.9505 94.5423 83.651 94.6474C83.3568 94.7472 83.031 94.7971 82.6737 94.7971Z" fill="black"/>
<path d="M109.407 115.958C109.343 115.958 109.292 115.939 109.255 115.903C109.219 115.861 109.2 115.806 109.2 115.737V111.275C109.2 111.201 109.219 111.146 109.255 111.109C109.297 111.073 109.35 111.054 109.414 111.054H111.035C111.55 111.054 111.945 111.174 112.221 111.413C112.497 111.652 112.635 111.992 112.635 112.434C112.635 112.719 112.573 112.965 112.448 113.172C112.324 113.374 112.14 113.528 111.897 113.634C111.658 113.739 111.37 113.792 111.035 113.792L111.111 113.703H111.207C111.382 113.703 111.534 113.749 111.662 113.84C111.796 113.932 111.915 114.082 112.021 114.289L112.752 115.647C112.784 115.698 112.798 115.749 112.793 115.799C112.793 115.845 112.777 115.884 112.745 115.916C112.713 115.944 112.671 115.958 112.621 115.958C112.561 115.958 112.511 115.944 112.469 115.916C112.432 115.889 112.4 115.85 112.373 115.799L111.6 114.358C111.481 114.137 111.347 113.992 111.2 113.923C111.053 113.85 110.855 113.813 110.607 113.813H109.621V115.737C109.621 115.806 109.602 115.861 109.566 115.903C109.534 115.939 109.481 115.958 109.407 115.958ZM109.621 113.454H110.98C111.389 113.454 111.694 113.369 111.897 113.199C112.104 113.024 112.207 112.769 112.207 112.434C112.207 112.103 112.104 111.852 111.897 111.682C111.694 111.507 111.389 111.42 110.98 111.42H109.621V113.454Z" fill="black"/>
<path d="M104.808 115.916C104.734 115.916 104.677 115.896 104.635 115.854C104.594 115.813 104.573 115.753 104.573 115.675V111.296C104.573 111.217 104.594 111.158 104.635 111.116C104.677 111.075 104.734 111.054 104.808 111.054H106.428C106.764 111.054 107.047 111.105 107.277 111.206C107.507 111.303 107.684 111.445 107.808 111.634C107.932 111.822 107.994 112.054 107.994 112.33C107.994 112.634 107.902 112.886 107.718 113.089C107.539 113.291 107.295 113.424 106.987 113.489V113.392C107.332 113.429 107.603 113.553 107.801 113.765C108.003 113.972 108.104 114.247 108.104 114.592C108.104 115.024 107.966 115.353 107.69 115.578C107.415 115.804 107.024 115.916 106.518 115.916H104.808ZM104.987 115.558H106.484C106.884 115.558 107.182 115.48 107.38 115.323C107.578 115.162 107.677 114.921 107.677 114.599C107.677 114.268 107.578 114.024 107.38 113.868C107.182 113.712 106.884 113.634 106.484 113.634H104.987V115.558ZM104.987 113.275H106.38C106.766 113.275 107.061 113.197 107.263 113.04C107.465 112.88 107.566 112.647 107.566 112.344C107.566 112.04 107.465 111.811 107.263 111.654C107.061 111.493 106.766 111.413 106.38 111.413H104.987V113.275Z" fill="black"/>
<path d="M101.097 115.916C101.032 115.916 100.979 115.898 100.938 115.861C100.901 115.82 100.883 115.765 100.883 115.696V111.24C100.883 111.167 100.901 111.112 100.938 111.075C100.975 111.038 101.025 111.02 101.09 111.02C101.159 111.02 101.212 111.038 101.248 111.075C101.285 111.112 101.304 111.167 101.304 111.24V115.537H103.676C103.745 115.537 103.795 115.553 103.828 115.585C103.864 115.617 103.883 115.663 103.883 115.723C103.883 115.788 103.864 115.836 103.828 115.868C103.795 115.9 103.745 115.916 103.676 115.916H101.097Z" fill="black"/>
<path d="M97.2839 116.171C97.2701 116.217 97.2471 116.252 97.2149 116.275C97.1827 116.298 97.146 116.309 97.1046 116.309C97.0678 116.309 97.0333 116.298 97.0011 116.275C96.9689 116.257 96.9483 116.229 96.9391 116.192C96.9253 116.155 96.9253 116.114 96.9391 116.068L98.6011 110.916C98.6149 110.866 98.6379 110.829 98.6701 110.806C98.7023 110.783 98.7368 110.774 98.7735 110.778C98.8149 110.778 98.8517 110.788 98.8839 110.806C98.9161 110.824 98.9368 110.852 98.946 110.889C98.9597 110.925 98.9597 110.967 98.946 111.013L97.2839 116.171Z" fill="black"/>
<path d="M91.6852 115.958C91.6255 115.958 91.5772 115.944 91.5404 115.916C91.5082 115.884 91.4898 115.847 91.4852 115.806C91.4806 115.76 91.4944 115.714 91.5266 115.668L93.237 113.358V113.496L91.637 111.323C91.6002 111.268 91.5818 111.217 91.5818 111.171C91.5864 111.125 91.6071 111.089 91.6439 111.061C91.6806 111.029 91.7243 111.013 91.7749 111.013C91.8255 111.013 91.8668 111.024 91.899 111.047C91.9358 111.066 91.9726 111.1 92.0094 111.151L93.5059 113.192H93.3749L94.8577 111.151C94.8898 111.1 94.9243 111.066 94.9611 111.047C94.9979 111.024 95.0416 111.013 95.0921 111.013C95.1473 111.013 95.191 111.027 95.2232 111.054C95.26 111.082 95.2783 111.121 95.2783 111.171C95.2829 111.217 95.2668 111.268 95.2301 111.323L93.6232 113.496V113.358L95.3335 115.668C95.3703 115.714 95.3864 115.76 95.3818 115.806C95.3772 115.847 95.3565 115.884 95.3197 115.916C95.2829 115.944 95.2347 115.958 95.1749 115.958C95.1335 115.958 95.0921 115.946 95.0508 115.923C95.014 115.9 94.9772 115.866 94.9404 115.82L93.3404 113.634H93.5197L91.9197 115.82C91.8875 115.866 91.8508 115.9 91.8094 115.923C91.768 115.946 91.7266 115.958 91.6852 115.958Z" fill="black"/>
<path d="M89.2538 115.971C89.0331 115.971 88.8193 115.953 88.6124 115.916C88.4055 115.88 88.2124 115.824 88.0331 115.751C87.8584 115.673 87.6997 115.578 87.5572 115.468C87.5112 115.436 87.479 115.399 87.4607 115.358C87.4469 115.312 87.4446 115.27 87.4538 115.234C87.4676 115.192 87.4882 115.158 87.5158 115.13C87.548 115.103 87.5848 115.089 87.6262 115.089C87.6676 115.084 87.7112 115.098 87.7572 115.13C87.9687 115.286 88.1917 115.401 88.4262 115.475C88.6653 115.548 88.9411 115.585 89.2538 115.585C89.6905 115.585 90.017 115.5 90.2331 115.33C90.4538 115.16 90.5641 114.937 90.5641 114.661C90.5641 114.431 90.4836 114.252 90.3227 114.123C90.1664 113.994 89.9066 113.893 89.5434 113.82L88.8469 113.675C88.4101 113.588 88.0859 113.44 87.8744 113.234C87.663 113.027 87.5572 112.751 87.5572 112.406C87.5572 112.194 87.5986 112.004 87.6813 111.834C87.7641 111.659 87.8813 111.509 88.0331 111.385C88.1848 111.261 88.3641 111.167 88.571 111.103C88.7825 111.034 89.0147 110.999 89.2676 110.999C89.5664 110.999 89.84 111.04 90.0882 111.123C90.3411 111.206 90.571 111.337 90.7779 111.516C90.8193 111.548 90.8469 111.588 90.8607 111.634C90.8744 111.675 90.8744 111.716 90.8607 111.758C90.8469 111.794 90.8262 111.824 90.7986 111.847C90.771 111.87 90.7365 111.884 90.6951 111.889C90.6538 111.889 90.6101 111.87 90.5641 111.834C90.371 111.677 90.1687 111.565 89.9572 111.496C89.7503 111.422 89.5204 111.385 89.2676 111.385C89.0101 111.385 88.7848 111.427 88.5917 111.509C88.4032 111.592 88.2561 111.709 88.1503 111.861C88.0446 112.013 87.9917 112.192 87.9917 112.399C87.9917 112.638 88.0653 112.829 88.2124 112.971C88.3595 113.114 88.5963 113.217 88.9227 113.282L89.6262 113.427C90.0905 113.523 90.4354 113.668 90.6607 113.861C90.8859 114.05 90.9986 114.309 90.9986 114.64C90.9986 114.838 90.9572 115.02 90.8744 115.185C90.7963 115.346 90.6813 115.486 90.5296 115.606C90.3779 115.725 90.194 115.817 89.9779 115.882C89.7664 115.942 89.525 115.971 89.2538 115.971Z" fill="black"/>
<path d="M84.6075 115.971C84.2994 115.971 84.0259 115.93 83.7868 115.847C83.5477 115.765 83.3477 115.64 83.1868 115.475C83.0305 115.309 82.9109 115.105 82.8282 114.861C82.75 114.617 82.7109 114.337 82.7109 114.02V111.227C82.7109 111.153 82.7293 111.1 82.7661 111.068C82.8029 111.031 82.8535 111.013 82.9178 111.013C82.9868 111.013 83.0397 111.031 83.0765 111.068C83.1132 111.1 83.1316 111.153 83.1316 111.227V113.985C83.1316 114.523 83.2558 114.925 83.504 115.192C83.7569 115.454 84.1247 115.585 84.6075 115.585C85.0948 115.585 85.4627 115.454 85.7109 115.192C85.9592 114.925 86.0834 114.523 86.0834 113.985V111.227C86.0834 111.153 86.1017 111.1 86.1385 111.068C86.1753 111.031 86.2282 111.013 86.2971 111.013C86.3615 111.013 86.4121 111.031 86.4489 111.068C86.4857 111.1 86.504 111.153 86.504 111.227V114.02C86.504 114.443 86.4328 114.801 86.2902 115.096C86.1477 115.385 85.9339 115.604 85.6489 115.751C85.3684 115.898 85.0213 115.971 84.6075 115.971Z" fill="black"/>
<path d="M80.1762 115.972C79.9049 115.972 79.6359 115.93 79.3693 115.847C79.1072 115.76 78.8704 115.629 78.6589 115.454C78.6222 115.422 78.5969 115.388 78.5831 115.351C78.5739 115.309 78.5739 115.27 78.5831 115.234C78.5969 115.192 78.6176 115.16 78.6451 115.137C78.6727 115.109 78.7072 115.096 78.7486 115.096C78.7946 115.091 78.8405 115.107 78.8865 115.144C79.0796 115.296 79.2842 115.408 79.5003 115.482C79.7164 115.551 79.9417 115.585 80.1762 115.585C80.4153 115.585 80.6199 115.539 80.79 115.447C80.9647 115.351 81.098 115.22 81.19 115.054C81.2865 114.884 81.3348 114.689 81.3348 114.468C81.3348 114.119 81.2359 113.834 81.0382 113.613C80.8405 113.392 80.5693 113.282 80.2244 113.282C79.9992 113.282 79.7969 113.323 79.6176 113.406C79.4428 113.489 79.2842 113.622 79.1417 113.806C79.1187 113.843 79.0888 113.873 79.052 113.896C79.0199 113.919 78.9808 113.93 78.9348 113.93C78.8704 113.93 78.8199 113.912 78.7831 113.875C78.7509 113.838 78.7348 113.79 78.7348 113.73V111.261C78.7348 111.192 78.7532 111.142 78.79 111.109C78.8267 111.073 78.8773 111.054 78.9417 111.054H81.3141C81.3831 111.054 81.4336 111.07 81.4658 111.103C81.5026 111.135 81.521 111.181 81.521 111.24C81.521 111.3 81.5026 111.346 81.4658 111.378C81.4336 111.411 81.3831 111.427 81.3141 111.427H79.1555V113.537H79.0313C79.1509 113.335 79.321 113.178 79.5417 113.068C79.7624 112.953 80.0084 112.896 80.2796 112.896C80.5831 112.896 80.8451 112.96 81.0658 113.089C81.2865 113.217 81.4566 113.397 81.5762 113.627C81.7003 113.857 81.7624 114.126 81.7624 114.434C81.7624 114.737 81.698 115.004 81.5693 115.234C81.4405 115.463 81.2566 115.645 81.0176 115.778C80.7831 115.907 80.5026 115.972 80.1762 115.972Z" fill="black"/>
<path d="M74.9021 115.916C74.8424 115.916 74.7941 115.9 74.7573 115.868C74.7205 115.831 74.7021 115.783 74.7021 115.723C74.7021 115.663 74.7205 115.62 74.7573 115.592C74.7941 115.56 74.8424 115.544 74.9021 115.544H75.8608V111.392H76.1021L75.1021 112.075C75.0562 112.107 75.0125 112.123 74.9711 112.123C74.9297 112.119 74.8953 112.102 74.8677 112.075C74.8401 112.047 74.8194 112.015 74.8056 111.978C74.7964 111.942 74.7987 111.902 74.8125 111.861C74.8263 111.82 74.8562 111.785 74.9021 111.758L75.8539 111.096C75.8999 111.068 75.9412 111.047 75.978 111.034C76.0148 111.02 76.0562 111.013 76.1021 111.013C76.1527 111.013 76.1941 111.029 76.2263 111.061C76.2631 111.089 76.2815 111.137 76.2815 111.206V115.544H77.1711C77.2355 115.544 77.2838 115.56 77.3159 115.592C77.3527 115.62 77.3711 115.663 77.3711 115.723C77.3711 115.788 77.3527 115.836 77.3159 115.868C77.2838 115.9 77.2355 115.916 77.1711 115.916H74.9021Z" fill="black"/>
<path d="M73.1321 116.537C73.0907 116.588 73.0493 116.615 73.0079 116.62C72.9665 116.629 72.9298 116.622 72.8976 116.599C72.87 116.576 72.8539 116.544 72.8493 116.502C72.8493 116.461 72.87 116.413 72.9114 116.358C72.9711 116.275 73.0148 116.188 73.0424 116.096C73.07 116.004 73.0838 115.919 73.0838 115.84L73.1114 115.937C73.0102 115.937 72.9275 115.907 72.8631 115.847C72.8033 115.788 72.7734 115.712 72.7734 115.62C72.7734 115.528 72.801 115.452 72.8562 115.392C72.9114 115.332 72.9872 115.302 73.0838 115.302C73.1803 115.302 73.2562 115.337 73.3114 115.406C73.3711 115.47 73.401 115.569 73.401 115.702C73.401 115.785 73.3918 115.875 73.3734 115.971C73.3596 116.073 73.3321 116.171 73.2907 116.268C73.2493 116.365 73.1964 116.454 73.1321 116.537Z" fill="black"/>
<path d="M70.2241 115.971C69.9482 115.971 69.677 115.93 69.4103 115.847C69.1436 115.765 68.9114 115.64 68.7137 115.475C68.6678 115.443 68.6379 115.406 68.6241 115.365C68.6149 115.323 68.6149 115.284 68.6241 115.247C68.6333 115.211 68.6517 115.178 68.6793 115.151C68.7068 115.123 68.7413 115.109 68.7827 115.109C68.8241 115.105 68.8701 115.121 68.9206 115.158C69.1275 115.305 69.3367 115.413 69.5482 115.482C69.7643 115.551 69.9896 115.585 70.2241 115.585C70.4724 115.585 70.6816 115.548 70.8517 115.475C71.0218 115.397 71.1505 115.284 71.2379 115.137C71.3298 114.99 71.3758 114.808 71.3758 114.592C71.3758 114.28 71.2724 114.043 71.0655 113.882C70.8632 113.716 70.5689 113.634 70.1827 113.634H69.6655C69.6011 113.634 69.5505 113.617 69.5137 113.585C69.477 113.548 69.4586 113.503 69.4586 113.447C69.4586 113.388 69.477 113.342 69.5137 113.309C69.5505 113.277 69.6011 113.261 69.6655 113.261H70.1482C70.3735 113.261 70.5666 113.22 70.7275 113.137C70.8885 113.054 71.0126 112.939 71.0999 112.792C71.1919 112.64 71.2379 112.459 71.2379 112.247C71.2379 111.971 71.1482 111.76 70.9689 111.613C70.7942 111.461 70.539 111.385 70.2034 111.385C69.9781 111.385 69.7666 111.422 69.5689 111.496C69.3712 111.565 69.1827 111.677 69.0034 111.834C68.962 111.87 68.9206 111.891 68.8793 111.896C68.8379 111.896 68.8011 111.884 68.7689 111.861C68.7413 111.838 68.7206 111.808 68.7068 111.771C68.693 111.73 68.693 111.689 68.7068 111.647C68.7206 111.601 68.7505 111.56 68.7965 111.523C68.9758 111.353 69.1896 111.224 69.4379 111.137C69.6908 111.045 69.9505 110.999 70.2172 110.999C70.5206 110.999 70.7804 111.047 70.9965 111.144C71.2126 111.24 71.3781 111.381 71.493 111.565C71.6126 111.748 71.6724 111.969 71.6724 112.227C71.6724 112.429 71.6333 112.613 71.5551 112.778C71.4816 112.944 71.3758 113.084 71.2379 113.199C71.0999 113.314 70.9344 113.397 70.7413 113.447V113.371C71.077 113.431 71.3367 113.571 71.5206 113.792C71.7091 114.008 71.8034 114.282 71.8034 114.613C71.8034 114.889 71.739 115.13 71.6103 115.337C71.4862 115.539 71.3068 115.696 71.0724 115.806C70.8379 115.916 70.5551 115.971 70.2241 115.971Z" fill="black"/>
<path d="M66.9647 115.958C66.8957 115.958 66.8428 115.939 66.8061 115.902C66.7693 115.866 66.7509 115.813 66.7509 115.744V114.82H64.6474C64.5785 114.82 64.5233 114.804 64.4819 114.771C64.4451 114.735 64.4268 114.684 64.4268 114.62C64.4268 114.583 64.4337 114.546 64.4474 114.509C64.4658 114.468 64.4934 114.42 64.5302 114.365L66.7302 111.151C66.7624 111.105 66.7969 111.07 66.8337 111.047C66.875 111.024 66.921 111.013 66.9716 111.013C67.0314 111.013 67.0796 111.031 67.1164 111.068C67.1578 111.1 67.1785 111.153 67.1785 111.227V114.447H67.7578C67.8268 114.447 67.8773 114.463 67.9095 114.496C67.9463 114.528 67.9647 114.574 67.9647 114.634C67.9647 114.693 67.9463 114.739 67.9095 114.771C67.8773 114.804 67.8268 114.82 67.7578 114.82H67.1785V115.744C67.1785 115.813 67.1601 115.866 67.1233 115.902C67.0865 115.939 67.0337 115.958 66.9647 115.958ZM66.7509 114.447V111.537H66.9026L64.8268 114.565V114.447H66.7509Z" fill="black"/>
<path d="M60.8021 115.916C60.7193 115.916 60.6573 115.898 60.6159 115.861C60.5791 115.82 60.5607 115.767 60.5607 115.703C60.5607 115.666 60.5699 115.629 60.5883 115.592C60.6067 115.555 60.632 115.521 60.6642 115.489L62.278 113.744C62.5262 113.477 62.7055 113.231 62.8159 113.006C62.9262 112.776 62.9814 112.542 62.9814 112.303C62.9814 112.004 62.8918 111.776 62.7124 111.62C62.5331 111.463 62.2711 111.385 61.9262 111.385C61.6964 111.385 61.4826 111.424 61.2849 111.503C61.0918 111.576 60.9055 111.686 60.7262 111.834C60.6803 111.87 60.6366 111.889 60.5952 111.889C60.5584 111.889 60.5262 111.877 60.4987 111.854C60.4711 111.827 60.4504 111.794 60.4366 111.758C60.4274 111.716 60.4274 111.675 60.4366 111.634C60.4504 111.592 60.4757 111.555 60.5124 111.523C60.6918 111.367 60.9078 111.24 61.1607 111.144C61.4136 111.047 61.6757 110.999 61.9469 110.999C62.2596 110.999 62.5239 111.05 62.74 111.151C62.9607 111.247 63.1285 111.392 63.2435 111.585C63.3584 111.778 63.4159 112.011 63.4159 112.282C63.4159 112.475 63.3837 112.666 63.3193 112.854C63.255 113.043 63.1584 113.234 63.0297 113.427C62.9055 113.62 62.7446 113.822 62.5469 114.034L60.9952 115.675V115.544H63.4573C63.5216 115.544 63.5699 115.56 63.6021 115.592C63.6389 115.62 63.6573 115.663 63.6573 115.723C63.6573 115.788 63.6389 115.836 63.6021 115.868C63.5699 115.9 63.5216 115.916 63.4573 115.916H60.8021Z" fill="black"/>
<path d="M79.9551 125.803C79.9275 125.854 79.8953 125.886 79.8586 125.899C79.8218 125.918 79.785 125.922 79.7482 125.913C79.7114 125.904 79.6792 125.886 79.6517 125.858C79.6287 125.831 79.6149 125.796 79.6103 125.755C79.6057 125.713 79.6172 125.67 79.6448 125.624L82.3551 120.886C82.3827 120.835 82.4149 120.803 82.4517 120.789C82.4884 120.771 82.5252 120.766 82.562 120.775C82.5988 120.785 82.6287 120.805 82.6517 120.837C82.6792 120.865 82.6953 120.899 82.6999 120.941C82.7045 120.982 82.693 121.026 82.6654 121.072L79.9551 125.803ZM79.5413 123.824C79.1873 123.824 78.9068 123.695 78.6999 123.437C78.4976 123.175 78.3965 122.808 78.3965 122.334C78.3965 122.021 78.4425 121.755 78.5344 121.534C78.6264 121.313 78.7574 121.145 78.9275 121.031C79.1022 120.911 79.3068 120.851 79.5413 120.851C79.8953 120.851 80.1758 120.982 80.3827 121.244C80.5896 121.502 80.693 121.865 80.693 122.334C80.693 122.651 80.6471 122.92 80.5551 123.141C80.4632 123.362 80.3321 123.532 80.162 123.651C79.9919 123.766 79.785 123.824 79.5413 123.824ZM79.5413 123.499C79.7022 123.499 79.8402 123.456 79.9551 123.368C80.07 123.276 80.1574 123.145 80.2172 122.975C80.2769 122.801 80.3068 122.587 80.3068 122.334C80.3068 121.957 80.2379 121.672 80.0999 121.479C79.9666 121.281 79.7804 121.182 79.5413 121.182C79.385 121.182 79.2494 121.226 79.1344 121.313C79.0195 121.401 78.9321 121.529 78.8723 121.699C78.8126 121.87 78.7827 122.081 78.7827 122.334C78.7827 122.72 78.8494 123.012 78.9827 123.21C79.1206 123.403 79.3068 123.499 79.5413 123.499ZM82.7689 125.824C82.4149 125.824 82.1344 125.695 81.9275 125.437C81.7252 125.18 81.6241 124.812 81.6241 124.334C81.6241 124.021 81.67 123.755 81.762 123.534C81.854 123.313 81.985 123.145 82.1551 123.031C82.3298 122.911 82.5344 122.851 82.7689 122.851C83.1275 122.851 83.408 122.982 83.6103 123.244C83.8172 123.502 83.9206 123.865 83.9206 124.334C83.9206 124.651 83.8746 124.922 83.7827 125.148C83.6907 125.368 83.5597 125.536 83.3896 125.651C83.2195 125.766 83.0126 125.824 82.7689 125.824ZM82.7689 125.499C82.9298 125.499 83.0677 125.456 83.1827 125.368C83.2976 125.281 83.385 125.15 83.4448 124.975C83.5045 124.801 83.5344 124.587 83.5344 124.334C83.5344 123.957 83.4654 123.672 83.3275 123.479C83.1942 123.281 83.008 123.182 82.7689 123.182C82.6126 123.182 82.4769 123.226 82.362 123.313C82.2471 123.401 82.1597 123.529 82.0999 123.699C82.0402 123.87 82.0103 124.081 82.0103 124.334C82.0103 124.72 82.0769 125.012 82.2103 125.21C82.3482 125.403 82.5344 125.499 82.7689 125.499Z" fill="#A6A6A6"/>
<path d="M75.9095 125.824C75.5555 125.824 75.2497 125.773 74.9923 125.672C74.7394 125.566 74.544 125.414 74.4061 125.217C74.2727 125.014 74.2061 124.773 74.2061 124.493C74.2061 124.263 74.252 124.06 74.344 123.886C74.4405 123.711 74.5716 123.568 74.7371 123.458C74.9026 123.348 75.0934 123.279 75.3095 123.251V123.334C75.0061 123.27 74.7647 123.129 74.5854 122.913C74.4107 122.693 74.3233 122.433 74.3233 122.134C74.3233 121.863 74.3877 121.633 74.5164 121.444C74.6497 121.251 74.8359 121.104 75.075 121.003C75.3141 120.902 75.5923 120.851 75.9095 120.851C76.2313 120.851 76.5095 120.902 76.744 121.003C76.9831 121.104 77.167 121.251 77.2957 121.444C77.429 121.633 77.4957 121.863 77.4957 122.134C77.4957 122.332 77.4543 122.513 77.3716 122.679C77.2934 122.844 77.1808 122.985 77.0336 123.099C76.8911 123.21 76.7164 123.288 76.5095 123.334V123.251C76.8405 123.297 77.1072 123.431 77.3095 123.651C77.5118 123.872 77.613 124.152 77.613 124.493C77.613 124.773 77.544 125.014 77.4061 125.217C77.2727 125.414 77.0796 125.566 76.8267 125.672C76.5739 125.773 76.2681 125.824 75.9095 125.824ZM75.9095 125.458C76.3325 125.458 76.6497 125.378 76.8612 125.217C77.0773 125.051 77.1854 124.803 77.1854 124.472C77.1854 124.141 77.0773 123.895 76.8612 123.734C76.6497 123.573 76.3325 123.493 75.9095 123.493C75.4911 123.493 75.1739 123.573 74.9578 123.734C74.7417 123.895 74.6336 124.141 74.6336 124.472C74.6336 124.803 74.7417 125.051 74.9578 125.217C75.1739 125.378 75.4911 125.458 75.9095 125.458ZM75.9095 123.12C76.1532 123.12 76.3601 123.083 76.5302 123.01C76.7049 122.932 76.8382 122.821 76.9302 122.679C77.0267 122.532 77.075 122.359 77.075 122.162C77.075 121.863 76.9716 121.631 76.7647 121.465C76.5624 121.299 76.2773 121.217 75.9095 121.217C75.5463 121.217 75.2612 121.299 75.0543 121.465C74.8474 121.631 74.744 121.863 74.744 122.162C74.744 122.46 74.8474 122.695 75.0543 122.865C75.2612 123.035 75.5463 123.12 75.9095 123.12Z" fill="#A6A6A6"/>
<path d="M70.7674 125.768C70.7076 125.768 70.6593 125.752 70.6226 125.72C70.5858 125.683 70.5674 125.635 70.5674 125.575C70.5674 125.516 70.5858 125.472 70.6226 125.444C70.6593 125.412 70.7076 125.396 70.7674 125.396H71.726V121.244H71.9674L70.9674 121.927C70.9214 121.959 70.8777 121.975 70.8363 121.975C70.795 121.971 70.7605 121.955 70.7329 121.927C70.7053 121.899 70.6846 121.867 70.6708 121.83C70.6616 121.794 70.6639 121.755 70.6777 121.713C70.6915 121.672 70.7214 121.637 70.7674 121.61L71.7191 120.948C71.7651 120.92 71.8065 120.899 71.8432 120.886C71.88 120.872 71.9214 120.865 71.9674 120.865C72.018 120.865 72.0593 120.881 72.0915 120.913C72.1283 120.941 72.1467 120.989 72.1467 121.058V125.396H73.0363C73.1007 125.396 73.149 125.412 73.1812 125.444C73.218 125.472 73.2363 125.516 73.2363 125.575C73.2363 125.64 73.218 125.688 73.1812 125.72C73.149 125.752 73.1007 125.768 73.0363 125.768H70.7674Z" fill="#A6A6A6"/>
<path d="M68.9963 126.389C68.9549 126.44 68.9136 126.467 68.8722 126.472C68.8308 126.481 68.794 126.474 68.7618 126.451C68.7342 126.428 68.7182 126.396 68.7136 126.355C68.7136 126.313 68.7342 126.265 68.7756 126.21C68.8354 126.127 68.8791 126.04 68.9067 125.948C68.9342 125.856 68.948 125.771 68.948 125.693L68.9756 125.789C68.8745 125.789 68.7917 125.759 68.7274 125.699C68.6676 125.64 68.6377 125.564 68.6377 125.472C68.6377 125.38 68.6653 125.304 68.7205 125.244C68.7756 125.185 68.8515 125.155 68.948 125.155C69.0446 125.155 69.1205 125.189 69.1756 125.258C69.2354 125.322 69.2653 125.421 69.2653 125.555C69.2653 125.637 69.2561 125.727 69.2377 125.824C69.2239 125.925 69.1963 126.024 69.1549 126.12C69.1136 126.217 69.0607 126.306 68.9963 126.389Z" fill="#A6A6A6"/>
<path d="M66.1299 125.824C65.5828 125.824 65.1667 125.612 64.8816 125.189C64.6012 124.762 64.4609 124.145 64.4609 123.341C64.4609 122.794 64.523 122.336 64.6471 121.968C64.7759 121.601 64.9644 121.322 65.2127 121.134C65.4609 120.945 65.7667 120.851 66.1299 120.851C66.6816 120.851 67.0977 121.06 67.3782 121.479C67.6586 121.897 67.7989 122.516 67.7989 123.334C67.7989 123.872 67.7345 124.327 67.6058 124.699C67.4816 125.072 67.2954 125.352 67.0471 125.541C66.7989 125.729 66.4931 125.824 66.1299 125.824ZM66.1299 125.444C66.5483 125.444 66.8586 125.272 67.0609 124.927C67.2632 124.582 67.3644 124.051 67.3644 123.334C67.3644 122.608 67.2632 122.076 67.0609 121.741C66.8632 121.401 66.5529 121.231 66.1299 121.231C65.7115 121.231 65.4012 121.401 65.1989 121.741C64.9966 122.081 64.8954 122.612 64.8954 123.334C64.8954 124.051 64.9966 124.582 65.1989 124.927C65.4012 125.272 65.7115 125.444 66.1299 125.444Z" fill="#A6A6A6"/>
<path d="M60.4499 123.962C60.3901 123.962 60.3441 123.948 60.3119 123.92C60.2798 123.888 60.2637 123.844 60.2637 123.789C60.2637 123.734 60.2798 123.693 60.3119 123.665C60.3441 123.633 60.3901 123.617 60.4499 123.617H63.5395C63.5993 123.617 63.6453 123.633 63.6775 123.665C63.7096 123.693 63.7257 123.734 63.7257 123.789C63.7257 123.849 63.7096 123.893 63.6775 123.92C63.6453 123.948 63.5993 123.962 63.5395 123.962H60.4499Z" fill="#A6A6A6"/>
<path fill-rule="evenodd" clip-rule="evenodd" d="M123.965 104.586H59.9258V104.094H123.965V104.586Z" fill="black"/>
<g clip-path="url(#clip1_2002_405)">
<path d="M59.9258 84.8818H74.7041V99.6601H59.9258V84.8818Z" fill="#2F0E13"/>
<path d="M66.7198 87.7678C66.9046 87.7184 67.0853 87.8332 67.1511 88.014L67.4424 88.8062C67.6398 89.339 67.7015 89.9125 67.622 90.475C67.5425 91.0376 67.3242 91.5715 66.9869 92.0287C66.5678 92.5948 66.2961 93.2564 66.1965 93.9537C66.0968 94.651 66.1723 95.3622 66.4161 96.0231C66.5312 96.335 66.252 96.6263 65.9688 96.45C64.8274 95.7357 64.0312 94.1304 64.0312 92.2709C64.0312 90.0254 65.1887 88.1576 66.7198 87.7678ZM68.6616 88.0921C68.3742 87.9153 68.0995 88.2069 68.2103 88.5188C68.4568 89.179 68.534 89.8904 68.435 90.5881C68.336 91.2858 68.0639 91.9476 67.6435 92.5132C67.3062 92.9703 67.088 93.5042 67.0085 94.0667C66.9289 94.6292 66.9906 95.2027 67.188 95.7354L67.4793 96.5321C67.5453 96.7087 67.7258 96.8195 67.9106 96.7783C69.4417 96.3801 70.5992 94.5165 70.5992 92.2709C70.5992 90.4112 69.803 88.8062 68.6616 88.0921Z" fill="white"/>
</g>
<defs>
<filter id="filter0_d_2002_405" x="0" y="0" width="81.8916" height="108" filterUnits="userSpaceOnUse" color-interpolation-filters="sRGB">
<feFlood flood-opacity="0" result="BackgroundImageFix"/>
<feColorMatrix in="SourceAlpha" type="matrix" values="0 0 0 0 0 0 0 0 0 0 0 0 0 0 0 0 0 0 127 0" result="hardAlpha"/>
<feOffset dx="2" dy="2"/>
<feGaussianBlur stdDeviation="2"/>
<feComposite in2="hardAlpha" operator="out"/>
<feColorMatrix type="matrix" values="0 0 0 0 0 0 0 0 0 0 0 0 0 0 0 0 0 0 0.25 0"/>
<feBlend mode="normal" in2="BackgroundImageFix" result="effect1_dropShadow_2002_405"/>
<feBlend mode="normal" in="SourceGraphic" in2="effect1_dropShadow_2002_405" result="shape"/>
</filter>
<filter id="filter1_d_2002_405" x="53" y="75" width="81.8916" height="108" filterUnits="userSpaceOnUse" color-interpolation-filters="sRGB">
<feFlood flood-opacity="0" result="BackgroundImageFix"/>
<feColorMatrix in="SourceAlpha" type="matrix" values="0 0 0 0 0 0 0 0 0 0 0 0 0 0 0 0 0 0 127 0" result="hardAlpha"/>
<feOffset dx="2" dy="2"/>
<feGaussianBlur stdDeviation="2"/>
<feComposite in2="hardAlpha" operator="out"/>
<feColorMatrix type="matrix" values="0 0 0 0 0 0 0 0 0 0 0 0 0 0 0 0 0 0 0.25 0"/>
<feBlend mode="normal" in2="BackgroundImageFix" result="effect1_dropShadow_2002_405"/>
<feBlend mode="normal" in="SourceGraphic" in2="effect1_dropShadow_2002_405" result="shape"/>
</filter>
<clipPath id="clip0_2002_405">
<rect x="6.92578" y="9.88177" width="14.7783" height="14.7783" rx="7.38916" fill="white"/>
</clipPath>
<clipPath id="clip1_2002_405">
<rect x="59.9258" y="84.8818" width="14.7783" height="14.7783" rx="7.38916" fill="white"/>
</clipPath>
</defs>
</svg>
