<svg width="132" height="174" viewBox="0 0 132 174" fill="none" xmlns="http://www.w3.org/2000/svg">
<path d="M2 4.46305C2 3.10275 3.10275 2 4.46305 2H73.4286C74.7889 2 75.8916 3.10275 75.8916 4.46305V99.5369C75.8916 100.897 74.7889 102 73.4286 102H4.46306C3.10275 102 2 100.897 2 99.5369V4.46305Z" fill="white"/>
<g filter="url(#filter0_d_2002_403)">
<path d="M2 4.46305C2 3.10275 3.10275 2 4.46305 2H73.4286C74.7889 2 75.8916 3.10275 75.8916 4.46305V99.5369C75.8916 100.897 74.7889 102 73.4286 102H4.46306C3.10275 102 2 100.897 2 99.5369V4.46305Z" fill="white"/>
</g>
<rect x="6.92578" y="85.2512" width="22.0499" height="7.47586" rx="3" fill="#292929"/>
<path d="M23.8316 90.2977C23.7751 90.2977 23.7319 90.2844 23.702 90.2578C23.6754 90.2279 23.6621 90.1864 23.6621 90.1332V88.0046C23.6621 87.9514 23.6754 87.9115 23.702 87.8849C23.7286 87.8584 23.7668 87.8451 23.8166 87.8451C23.8632 87.8451 23.8997 87.8584 23.9263 87.8849C23.9529 87.9115 23.9662 87.9514 23.9662 88.0046V88.7723H24.7389C25.0413 88.7723 25.2706 88.8388 25.4268 88.9717C25.5864 89.1046 25.6661 89.2907 25.6661 89.53C25.6661 89.6895 25.6296 89.8275 25.5564 89.9438C25.4866 90.0601 25.3836 90.1482 25.2474 90.208C25.1111 90.2678 24.9416 90.2977 24.7389 90.2977H23.8316ZM23.9662 90.0634H24.7289C24.9283 90.0634 25.0829 90.0202 25.1925 89.9338C25.3055 89.8474 25.362 89.7145 25.362 89.535C25.362 89.3522 25.3055 89.2176 25.1925 89.1312C25.0829 89.0448 24.9283 89.0016 24.7289 89.0016H23.9662V90.0634Z" fill="white"/>
<path d="M22.1688 90.3277C22.1223 90.3277 22.0857 90.3144 22.0591 90.2878C22.0325 90.2612 22.0192 90.223 22.0192 90.1731V88.1342H21.2316C21.1319 88.1342 21.082 88.091 21.082 88.0046C21.082 87.968 21.0953 87.9381 21.1219 87.9149C21.1485 87.8916 21.1851 87.88 21.2316 87.88H23.111C23.2073 87.88 23.2555 87.9215 23.2555 88.0046C23.2555 88.0445 23.2422 88.0761 23.2156 88.0993C23.1924 88.1226 23.1575 88.1342 23.111 88.1342H22.3233V90.1731C22.3233 90.223 22.31 90.2612 22.2834 90.2878C22.2602 90.3144 22.222 90.3277 22.1688 90.3277Z" fill="white"/>
<path d="M18.787 90.3276C18.7605 90.3276 18.7355 90.3226 18.7123 90.3127C18.6923 90.3027 18.6757 90.2861 18.6624 90.2628C18.6524 90.2362 18.6475 90.203 18.6475 90.1631V87.9996C18.6475 87.9497 18.6591 87.9115 18.6824 87.8849C18.7089 87.8584 18.7455 87.8451 18.792 87.8451C18.8352 87.8451 18.8685 87.8584 18.8917 87.8849C18.915 87.9115 18.9266 87.9497 18.9266 87.9996V90.0285H18.807L20.3573 87.9448C20.3806 87.9149 20.4055 87.8916 20.4321 87.875C20.4587 87.855 20.4936 87.8451 20.5368 87.8451C20.5667 87.8451 20.5916 87.8517 20.6116 87.865C20.6315 87.875 20.6465 87.8916 20.6564 87.9149C20.6697 87.9381 20.6764 87.9697 20.6764 88.0096V90.1781C20.6764 90.2246 20.6631 90.2612 20.6365 90.2878C20.6132 90.3143 20.58 90.3276 20.5368 90.3276C20.4903 90.3276 20.4554 90.3143 20.4321 90.2878C20.4089 90.2612 20.3972 90.2246 20.3972 90.1781V88.1492H20.5169L18.9615 90.2329C18.9416 90.2595 18.9183 90.2811 18.8917 90.2977C18.8651 90.3177 18.8302 90.3276 18.787 90.3276Z" fill="white"/>
<path d="M15.9397 90.3277C15.8898 90.3277 15.8516 90.3144 15.825 90.2878C15.7984 90.2612 15.7852 90.223 15.7852 90.1731V88.0545C15.7852 87.998 15.8001 87.9548 15.83 87.9248C15.8599 87.8949 15.9031 87.88 15.9596 87.88H17.6346C17.6911 87.88 17.7343 87.8949 17.7642 87.9248C17.7941 87.9548 17.8091 87.998 17.8091 88.0545V90.1731C17.8091 90.223 17.7958 90.2612 17.7692 90.2878C17.7426 90.3144 17.7044 90.3277 17.6546 90.3277C17.608 90.3277 17.5715 90.3144 17.5449 90.2878C17.5183 90.2612 17.505 90.223 17.505 90.1731V88.1292H16.0892V90.1731C16.0892 90.223 16.076 90.2612 16.0494 90.2878C16.0261 90.3144 15.9895 90.3277 15.9397 90.3277Z" fill="white"/>
<path d="M13.7187 91.2249C13.6788 91.2249 13.6473 91.2133 13.624 91.1901C13.6007 91.1701 13.5875 91.1419 13.5841 91.1053C13.5841 91.0721 13.5908 91.0372 13.6041 91.0006L13.948 90.218V90.3575L12.971 88.0744C12.9543 88.0345 12.9477 87.9979 12.951 87.9647C12.9577 87.9281 12.9726 87.8999 12.9959 87.88C13.0225 87.8567 13.059 87.8451 13.1056 87.8451C13.1488 87.8451 13.1803 87.855 13.2003 87.875C13.2235 87.8949 13.2435 87.9265 13.2601 87.9697L14.1474 90.1183H14.0228L14.9102 87.9697C14.9301 87.9232 14.9517 87.8916 14.975 87.875C14.9982 87.855 15.0315 87.8451 15.0747 87.8451C15.1179 87.8451 15.1494 87.8567 15.1694 87.88C15.1927 87.8999 15.2059 87.9265 15.2093 87.9597C15.2126 87.993 15.2059 88.0295 15.1893 88.0694L13.8882 91.1053C13.8683 91.1518 13.845 91.1834 13.8184 91.2C13.7952 91.2166 13.7619 91.2249 13.7187 91.2249Z" fill="white"/>
<path d="M10.3859 90.3277C10.3394 90.3277 10.3028 90.3144 10.2762 90.2878C10.2496 90.2579 10.2363 90.218 10.2363 90.1681V86.9079C10.2363 86.858 10.2496 86.8198 10.2762 86.7932C10.3028 86.7667 10.3394 86.7534 10.3859 86.7534C10.4357 86.7534 10.474 86.7667 10.5005 86.7932C10.5271 86.8198 10.5404 86.858 10.5404 86.9079V88.3835H11.2782L11.1636 88.4583L12.2553 86.8331C12.2786 86.7999 12.3051 86.7783 12.335 86.7683C12.365 86.755 12.3949 86.7517 12.4248 86.7583C12.4547 86.765 12.4796 86.7799 12.4996 86.8032C12.5195 86.8231 12.5311 86.8481 12.5345 86.878C12.5411 86.9079 12.5328 86.9411 12.5095 86.9777L11.4726 88.5031L11.3679 88.3934C11.5607 88.4134 11.7269 88.4832 11.8665 88.6028C12.0094 88.7191 12.1323 88.882 12.2353 89.0914L12.7438 90.1183C12.7638 90.1548 12.7688 90.1897 12.7588 90.223C12.7521 90.2529 12.7355 90.2761 12.7089 90.2928C12.6857 90.3094 12.6574 90.3194 12.6242 90.3227C12.5943 90.326 12.5644 90.3194 12.5345 90.3027C12.5045 90.2894 12.4813 90.2645 12.4647 90.228L11.9961 89.2609C11.8897 89.0415 11.7701 88.8853 11.6371 88.7923C11.5075 88.6992 11.348 88.6527 11.1586 88.6527H10.5404V90.1681C10.5404 90.218 10.5271 90.2579 10.5005 90.2878C10.4773 90.3144 10.4391 90.3277 10.3859 90.3277Z" fill="white"/>
<path fill-rule="evenodd" clip-rule="evenodd" d="M38.3304 56.2523V64.3899L39.0425 62.4237L39.2906 62.9841C39.4554 63.3563 39.7025 63.9392 39.9089 64.48C40.012 64.7501 40.1061 65.0127 40.1747 65.2347C40.2398 65.445 40.2931 65.6518 40.2931 65.7932C40.2931 65.7924 40.2931 65.7931 40.2932 65.7956C40.2933 65.797 40.2934 65.7989 40.2935 65.8014C40.2938 65.8059 40.2942 65.8113 40.2948 65.8179C40.295 65.8213 40.2954 65.8249 40.2957 65.8289C40.2979 65.8523 40.3013 65.8832 40.306 65.9217C40.3153 65.9986 40.3293 66.1018 40.3477 66.2282C40.3846 66.4806 40.4386 66.8217 40.5068 67.2227C40.6433 68.0248 40.8364 69.0633 41.0624 70.1068C41.2887 71.1516 41.5468 72.1956 41.8128 73.0113C41.9461 73.4198 42.079 73.7637 42.2078 74.0195C42.2361 74.0757 42.2637 74.1266 42.2904 74.1722L45.4462 64.2342L47.9506 72.2551L49.1236 62.4019L53.1152 68.2562H59.9315L62.0364 59.0475L64.5585 65.493L64.969 72.0615L67.1604 64.9107L68.6169 70.2071L71.2709 67.1107L71.645 67.4313L68.3877 71.2314L67.1348 66.6755L65.0432 73.5007L64.5619 73.4439L64.0717 65.6007L62.1603 60.7161L60.3243 68.7488H52.8549L49.4573 63.7657L48.3035 73.4577L47.8238 73.502L45.4423 65.8743L42.5386 75.0184L42.2768 74.8768C42.1666 74.8172 42.074 74.7219 41.996 74.6189C41.9162 74.5135 41.8403 74.3849 41.7678 74.2411C41.623 73.9534 41.4811 73.583 41.3445 73.164C41.0708 72.3248 40.8085 71.2619 40.5809 70.2111C40.3531 69.1589 40.1587 68.1131 40.0212 67.3054C39.9525 66.9015 39.8978 66.5565 39.8603 66.2993C39.8244 66.0537 39.8005 65.8649 39.8005 65.7932C39.8005 65.7374 39.772 65.5995 39.7041 65.3803C39.6399 65.1727 39.55 64.9212 39.4486 64.6556C39.3333 64.3533 39.2046 64.0368 39.0852 63.7525L38.3156 65.877L37.8377 65.7932V58.1162C36.8047 60.0162 36.1758 61.5666 35.7606 62.5902L35.7301 62.6653C35.6124 62.9554 35.5107 63.2045 35.422 63.4038C35.3353 63.5987 35.253 63.7644 35.1717 63.8769C35.1321 63.9318 35.0779 63.9953 35.0056 64.0378C34.9211 64.0875 34.8077 64.1089 34.6942 64.0556C34.6008 64.0117 34.544 63.933 34.51 63.8746C34.4732 63.8112 34.4426 63.7354 34.4155 63.654C34.2352 63.1109 34.0095 63.0175 33.8742 63.0095C33.7184 63.0003 33.5394 63.0905 33.4016 63.211L30.5656 76.1906L30.08 76.1637L28.8041 64.0074C28.7979 64.016 28.7916 64.0247 28.7852 64.0337C28.5382 64.3793 28.2056 64.9143 27.8671 65.4663C27.8122 65.5557 27.7572 65.6456 27.7025 65.7351C27.4224 66.1927 27.1491 66.6394 26.9349 66.9635C26.809 67.1539 26.6943 67.3165 26.6063 67.4137C26.5835 67.4388 26.5579 67.4648 26.5304 67.4873C26.5085 67.5051 26.461 67.5417 26.3954 67.5574C26.3584 67.5663 26.3046 67.5711 26.2453 67.5508C26.183 67.5295 26.1384 67.4887 26.1102 67.4462C26.0631 67.3752 26.0615 67.2999 26.0615 67.271C26.0615 67.0077 25.9865 66.6019 25.8845 66.1841C25.8575 66.0736 25.829 65.9639 25.8003 65.8579L23.4149 72.7701L22.9389 72.7286L21.4063 63.143L19.9231 58.7493L19.4381 70.0111L18.4526 74.7107L17.9739 74.7247C17.7276 73.8182 17.19 71.8725 16.9964 71.2895C16.9181 71.0534 16.7298 70.8214 16.5027 70.6205C16.4187 70.5461 16.3324 70.4788 16.2498 70.4198V74.9065H14.7452L14.2846 78.1431L13.8092 78.1923L11.343 71.3836V78.9701L9.73321 76.3843H8.55583L7.14973 79.4428L6.70215 79.2371L8.24012 75.8917H10.0068L10.8504 77.2467V69.9804L11.3283 69.8965L13.9361 77.0961L14.2852 74.6426C14.2859 74.2276 14.3108 73.6312 14.3867 73.1786C14.4235 72.9589 14.4781 72.7326 14.5715 72.5845C14.6178 72.5111 14.7056 72.4061 14.8515 72.384C15.0045 72.3609 15.1234 72.4424 15.1966 72.5159C15.3426 72.6624 15.4166 72.8576 15.4528 73.0488C15.4893 73.2419 15.4915 73.453 15.4763 73.6564C15.4565 73.9204 15.406 74.1876 15.3493 74.4138H15.7572V69.5811L16.114 69.7602C16.2951 69.8511 16.5707 70.0229 16.8291 70.2516C17.0846 70.4776 17.3461 70.7792 17.464 71.1343C17.6057 71.5611 17.9213 72.6793 18.1796 73.6126L18.9477 69.9496L19.4877 57.4081L19.9672 57.3399L21.8863 63.0246L23.2701 71.6798L25.8216 64.2862L26.0508 64.9766C26.1344 65.2284 26.259 65.6412 26.363 66.0673C26.4162 66.2849 26.4656 66.5124 26.5008 66.7267C26.5084 66.7153 26.5161 66.7037 26.524 66.6918C26.7329 66.3757 27.0006 65.9383 27.2808 65.4803C27.3359 65.3903 27.3915 65.2995 27.4472 65.2087C27.7834 64.6605 28.1254 64.1097 28.3844 63.7473C28.5088 63.5732 28.6319 63.4164 28.7353 63.3325C28.7627 63.3102 28.8005 63.2831 28.8462 63.2644C28.89 63.2464 28.9736 63.2231 29.067 63.2602C29.1659 63.2994 29.2118 63.3801 29.231 63.4343C29.2472 63.4801 29.2518 63.5255 29.2526 63.5619L30.4104 74.5929L32.952 62.9609L33.0028 62.91C33.1876 62.7244 33.5226 62.4953 33.9033 62.5177C34.3102 62.5418 34.6479 62.8391 34.8616 63.4366C34.8937 63.3743 34.9303 63.2971 34.972 63.2035C35.0567 63.0131 35.1552 62.772 35.2736 62.4801L35.3048 62.4034C35.78 61.2318 36.5417 59.3539 37.8707 57.0494L38.3304 56.2523ZM14.7779 74.6142L14.7884 74.5825C14.8655 74.3502 14.9583 73.9764 14.9851 73.6196C14.9984 73.4412 14.9945 73.2767 14.9687 73.1404C14.9583 73.0851 14.9449 73.0378 14.9293 72.9978C14.9099 73.0657 14.8904 73.1531 14.8725 73.26C14.8049 73.6638 14.7797 74.2122 14.7779 74.6142Z" fill="#00CF6C"/>
<path d="M59.0993 20.2976C58.8096 20.2976 58.5495 20.2414 58.319 20.1291C58.0943 20.0168 57.914 19.8631 57.7781 19.668C57.648 19.473 57.583 19.2543 57.583 19.0119C57.583 18.6927 57.6628 18.4414 57.8224 18.2582C57.982 18.0749 58.251 17.9479 58.6293 17.8769C59.0076 17.8001 59.5278 17.7616 60.1899 17.7616H60.5712V18.1607H60.1988C59.6668 18.1607 59.25 18.1843 58.9485 18.2316C58.653 18.273 58.4461 18.3528 58.3278 18.471C58.2096 18.5892 58.1505 18.7547 58.1505 18.9676C58.1505 19.2336 58.2421 19.4493 58.4254 19.6148C58.6086 19.7804 58.8569 19.8631 59.1702 19.8631C59.4244 19.8631 59.6461 19.804 59.8352 19.6858C60.0303 19.5616 60.184 19.3932 60.2963 19.1804C60.4086 18.9676 60.4648 18.7252 60.4648 18.4533V17.4424C60.4648 17.0464 60.385 16.7597 60.2254 16.5823C60.0658 16.3991 59.8116 16.3075 59.4628 16.3075C59.2382 16.3075 59.0195 16.337 58.8067 16.3961C58.5998 16.4552 58.3781 16.5498 58.1416 16.6799C58.0766 16.7153 58.0175 16.7272 57.9643 16.7153C57.917 16.7035 57.8786 16.6799 57.849 16.6444C57.8254 16.6089 57.8076 16.5676 57.7958 16.5203C57.7899 16.4671 57.7988 16.4168 57.8224 16.3695C57.8461 16.3222 57.8874 16.2838 57.9466 16.2543C58.1948 16.1183 58.4461 16.0178 58.7002 15.9528C58.9603 15.8818 59.2116 15.8464 59.4539 15.8464C59.8027 15.8464 60.0894 15.9055 60.314 16.0237C60.5446 16.1419 60.7131 16.3193 60.8195 16.5557C60.9318 16.7922 60.9879 17.0966 60.9879 17.469V20.005C60.9879 20.0937 60.9672 20.1616 60.9259 20.2089C60.8845 20.2562 60.8224 20.2799 60.7397 20.2799C60.6569 20.2799 60.5919 20.2562 60.5446 20.2089C60.4973 20.1616 60.4736 20.0937 60.4736 20.005V19.1892H60.5623C60.5091 19.4198 60.4145 19.6178 60.2786 19.7833C60.1426 19.9488 59.9741 20.0759 59.7732 20.1646C59.5722 20.2533 59.3475 20.2976 59.0993 20.2976Z" fill="black"/>
<path d="M52.9262 20.2799C52.8376 20.2799 52.7696 20.2563 52.7223 20.209C52.675 20.1617 52.6514 20.0937 52.6514 20.005V16.1479C52.6514 16.0533 52.675 15.9824 52.7223 15.9351C52.7696 15.8878 52.8376 15.8641 52.9262 15.8641C53.009 15.8641 53.074 15.8878 53.1213 15.9351C53.1686 15.9824 53.1923 16.0533 53.1923 16.1479V17.7794H55.7371V16.1479C55.7371 16.0533 55.7607 15.9824 55.808 15.9351C55.8553 15.8878 55.9203 15.8641 56.0031 15.8641C56.0918 15.8641 56.1597 15.8878 56.207 15.9351C56.2543 15.9824 56.278 16.0533 56.278 16.1479V20.005C56.278 20.0937 56.2543 20.1617 56.207 20.209C56.1597 20.2563 56.0918 20.2799 56.0031 20.2799C55.9203 20.2799 55.8553 20.2563 55.808 20.209C55.7607 20.1617 55.7371 20.0937 55.7371 20.005V18.2316H53.1923V20.005C53.1923 20.0937 53.1686 20.1617 53.1213 20.209C53.0799 20.2563 53.0149 20.2799 52.9262 20.2799Z" fill="black"/>
<path d="M47.7991 20.2799C47.7518 20.2799 47.7074 20.271 47.6661 20.2533C47.6306 20.2356 47.601 20.206 47.5774 20.1646C47.5596 20.1173 47.5508 20.0582 47.5508 19.9873V16.139C47.5508 16.0503 47.5715 15.9824 47.6128 15.9351C47.6601 15.8878 47.7252 15.8641 47.8079 15.8641C47.8848 15.8641 47.9439 15.8878 47.9853 15.9351C48.0266 15.9824 48.0473 16.0503 48.0473 16.139V19.7479H47.8345L50.5922 16.0415C50.6335 15.9883 50.6779 15.9469 50.7252 15.9173C50.7725 15.8819 50.8345 15.8641 50.9114 15.8641C50.9646 15.8641 51.0089 15.876 51.0444 15.8996C51.0798 15.9173 51.1064 15.9469 51.1242 15.9883C51.1478 16.0297 51.1596 16.0858 51.1596 16.1567V20.0139C51.1596 20.0966 51.136 20.1617 51.0887 20.209C51.0473 20.2563 50.9882 20.2799 50.9114 20.2799C50.8286 20.2799 50.7665 20.2563 50.7252 20.209C50.6838 20.1617 50.6631 20.0966 50.6631 20.0139V16.405H50.8759L48.1094 20.1114C48.0739 20.1587 48.0326 20.1971 47.9853 20.2267C47.938 20.2622 47.8759 20.2799 47.7991 20.2799Z" fill="black"/>
<path d="M44.8939 20.2799C44.8112 20.2799 44.7462 20.2562 44.6989 20.2089C44.6516 20.1616 44.6279 20.0937 44.6279 20.005V16.3784H43.2269C43.0496 16.3784 42.9609 16.3015 42.9609 16.1479C42.9609 16.0828 42.9846 16.0296 43.0319 15.9882C43.0792 15.9469 43.1442 15.9262 43.2269 15.9262H46.5698C46.7412 15.9262 46.8269 16.0001 46.8269 16.1479C46.8269 16.2188 46.8033 16.2749 46.756 16.3163C46.7146 16.3577 46.6526 16.3784 46.5698 16.3784H45.1688V20.005C45.1688 20.0937 45.1452 20.1616 45.0979 20.2089C45.0565 20.2562 44.9885 20.2799 44.8939 20.2799Z" fill="black"/>
<path d="M40.3688 20.2976C40.0791 20.2976 39.819 20.2414 39.5885 20.1291C39.3639 20.0168 39.1836 19.8631 39.0476 19.668C38.9176 19.473 38.8525 19.2543 38.8525 19.0119C38.8525 18.6927 38.9323 18.4414 39.0919 18.2582C39.2516 18.0749 39.5205 17.9479 39.8988 17.8769C40.2772 17.8001 40.7974 17.7616 41.4594 17.7616H41.8407V18.1607H41.4683C40.9363 18.1607 40.5195 18.1843 40.2181 18.2316C39.9225 18.273 39.7156 18.3528 39.5974 18.471C39.4791 18.5892 39.42 18.7547 39.42 18.9676C39.42 19.2336 39.5117 19.4493 39.6949 19.6148C39.8782 19.7804 40.1264 19.8631 40.4397 19.8631C40.6939 19.8631 40.9156 19.804 41.1048 19.6858C41.2998 19.5616 41.4535 19.3932 41.5658 19.1804C41.6782 18.9676 41.7343 18.7252 41.7343 18.4533V17.4424C41.7343 17.0464 41.6545 16.7597 41.4949 16.5823C41.3353 16.3991 41.0811 16.3075 40.7323 16.3075C40.5077 16.3075 40.289 16.337 40.0762 16.3961C39.8693 16.4552 39.6476 16.5498 39.4112 16.6799C39.3461 16.7153 39.287 16.7272 39.2338 16.7153C39.1865 16.7035 39.1481 16.6799 39.1185 16.6444C39.0949 16.6089 39.0772 16.5676 39.0653 16.5203C39.0594 16.4671 39.0683 16.4168 39.0919 16.3695C39.1156 16.3222 39.157 16.2838 39.2161 16.2543C39.4644 16.1183 39.7156 16.0178 39.9698 15.9528C40.2299 15.8818 40.4811 15.8464 40.7235 15.8464C41.0722 15.8464 41.3589 15.9055 41.5836 16.0237C41.8141 16.1419 41.9826 16.3193 42.089 16.5557C42.2013 16.7922 42.2575 17.0966 42.2575 17.469V20.005C42.2575 20.0937 42.2368 20.1616 42.1954 20.2089C42.154 20.2562 42.0919 20.2799 42.0092 20.2799C41.9264 20.2799 41.8614 20.2562 41.8141 20.2089C41.7668 20.1616 41.7432 20.0937 41.7432 20.005V19.1892H41.8318C41.7786 19.4198 41.6841 19.6178 41.5481 19.7833C41.4121 19.9488 41.2437 20.0759 41.0427 20.1646C40.8417 20.2533 40.6171 20.2976 40.3688 20.2976Z" fill="black"/>
<path d="M37.2705 20.2799C37.1878 20.2799 37.1227 20.2562 37.0755 20.2089C37.0282 20.1616 37.0045 20.0937 37.0045 20.005V16.3695H35.0892V16.937C35.0892 17.4217 35.0686 17.8474 35.0272 18.2139C34.9858 18.5745 34.9178 18.8848 34.8232 19.1449C34.7346 19.405 34.6134 19.6237 34.4597 19.8011C34.3119 19.9784 34.1227 20.1262 33.8922 20.2444C33.8331 20.274 33.7769 20.2828 33.7237 20.271C33.6705 20.2651 33.6262 20.2444 33.5907 20.2089C33.5553 20.1735 33.5316 20.1321 33.5198 20.0848C33.508 20.0375 33.5109 19.9873 33.5287 19.9341C33.5523 19.8809 33.5966 19.8395 33.6617 19.8099C33.839 19.7094 33.9868 19.5853 34.105 19.4375C34.2232 19.2838 34.3178 19.0947 34.3888 18.87C34.4597 18.6395 34.507 18.3676 34.5306 18.0543C34.5602 17.735 34.575 17.3567 34.575 16.9193V16.2365C34.575 16.136 34.6016 16.0592 34.6548 16.006C34.708 15.9528 34.7848 15.9262 34.8853 15.9262H37.2262C37.3267 15.9262 37.4035 15.9528 37.4567 16.006C37.5158 16.0592 37.5454 16.136 37.5454 16.2365V20.005C37.5454 20.0937 37.5218 20.1616 37.4745 20.2089C37.4272 20.2562 37.3592 20.2799 37.2705 20.2799Z" fill="black"/>
<path d="M27.7123 20.2798C27.6295 20.2798 27.5645 20.2562 27.5172 20.2089C27.4699 20.1557 27.4463 20.0848 27.4463 19.9961V14.2857C27.4463 14.1853 27.4729 14.1084 27.5261 14.0552C27.5793 14.002 27.6532 13.9754 27.7478 13.9754H32.1635C32.264 13.9754 32.3409 14.002 32.3941 14.0552C32.4473 14.1084 32.4739 14.1853 32.4739 14.2857V19.9961C32.4739 20.0848 32.4502 20.1557 32.4029 20.2089C32.3556 20.2562 32.2877 20.2798 32.199 20.2798C32.1162 20.2798 32.0483 20.2562 31.9951 20.2089C31.9478 20.1557 31.9241 20.0848 31.9241 19.9961V14.4631H27.9872V19.9961C27.9872 20.0848 27.9635 20.1557 27.9162 20.2089C27.8749 20.2562 27.8069 20.2798 27.7123 20.2798Z" fill="black"/>
<path d="M58.508 40.9163C58.4574 40.9163 58.4137 40.9048 58.3769 40.8818C58.3402 40.8589 58.3149 40.829 58.3011 40.7922C58.2873 40.7508 58.285 40.7048 58.2942 40.6543C58.308 40.6037 58.3356 40.5485 58.3769 40.4887L61.3563 36.2405V36.4336H58.4804C58.4114 36.4336 58.3586 36.4175 58.3218 36.3853C58.285 36.3485 58.2666 36.3002 58.2666 36.2405C58.2666 36.1807 58.285 36.1347 58.3218 36.1025C58.3586 36.0704 58.4114 36.0543 58.4804 36.0543H61.5356C61.5907 36.0543 61.6367 36.0658 61.6735 36.0887C61.7103 36.1117 61.7356 36.1439 61.7494 36.1853C61.7632 36.2221 61.7632 36.2658 61.7494 36.3163C61.7356 36.3669 61.7103 36.4221 61.6735 36.4818L58.6942 40.7232V40.537H61.6666C61.7356 40.537 61.7884 40.5531 61.8252 40.5853C61.862 40.6175 61.8804 40.6635 61.8804 40.7232C61.8804 40.7876 61.862 40.8359 61.8252 40.8681C61.7884 40.9002 61.7356 40.9163 61.6666 40.9163H58.508Z" fill="black"/>
<path d="M54.6493 40.9577C54.5849 40.9577 54.5343 40.9393 54.4976 40.9025C54.4608 40.8612 54.4424 40.806 54.4424 40.737V36.275C54.4424 36.2014 54.4608 36.1462 54.4976 36.1094C54.5389 36.0727 54.5918 36.0543 54.6562 36.0543H56.2769C56.7918 36.0543 57.1872 36.1784 57.4631 36.4267C57.7389 36.675 57.8769 37.029 57.8769 37.4887C57.8769 37.9439 57.7389 38.2979 57.4631 38.5508C57.1872 38.7991 56.7918 38.9232 56.2769 38.9232H54.8631V40.737C54.8631 40.806 54.8447 40.8612 54.8079 40.9025C54.7757 40.9393 54.7228 40.9577 54.6493 40.9577ZM54.8631 38.5508H56.2424C56.6424 38.5508 56.9435 38.4612 57.1458 38.2818C57.3481 38.1025 57.4493 37.8382 57.4493 37.4887C57.4493 37.1393 57.3481 36.8749 57.1458 36.6956C56.9435 36.5117 56.6424 36.4198 56.2424 36.4198H54.8631V38.5508Z" fill="black"/>
<path d="M49.2928 40.9576C49.233 40.9576 49.1847 40.9439 49.1479 40.9163C49.1158 40.8933 49.0974 40.8588 49.0928 40.8128C49.0928 40.7668 49.1043 40.7163 49.1273 40.6611L51.0652 36.2059C51.0974 36.137 51.1365 36.0887 51.1824 36.0611C51.2284 36.0289 51.2744 36.0128 51.3204 36.0128C51.3755 36.0128 51.4238 36.0289 51.4652 36.0611C51.5112 36.0887 51.5479 36.137 51.5755 36.2059L53.5135 40.6611C53.541 40.7163 53.5525 40.7668 53.5479 40.8128C53.5479 40.8588 53.5319 40.8933 53.4997 40.9163C53.4721 40.9439 53.4284 40.9576 53.3686 40.9576C53.3043 40.9576 53.2514 40.9416 53.21 40.9094C53.1732 40.8726 53.1411 40.8243 53.1135 40.7645L52.5824 39.5163L52.81 39.6197H49.8238L50.0583 39.5163L49.5273 40.7645C49.4997 40.8335 49.4652 40.8841 49.4238 40.9163C49.387 40.9439 49.3434 40.9576 49.2928 40.9576ZM51.3135 36.5783L50.1411 39.337L49.9824 39.2542H52.6514L52.5066 39.337L51.3273 36.5783H51.3135Z" fill="black"/>
<path d="M45.8669 41.1715C45.8531 41.2175 45.8301 41.2519 45.7979 41.2749C45.7657 41.2979 45.729 41.3094 45.6876 41.3094C45.6508 41.3094 45.6163 41.2979 45.5841 41.2749C45.5519 41.2565 45.5313 41.2289 45.5221 41.1922C45.5083 41.1554 45.5083 41.114 45.5221 41.068L47.1841 35.9163C47.1979 35.8657 47.2209 35.8289 47.2531 35.806C47.2853 35.783 47.3198 35.7738 47.3565 35.7784C47.3979 35.7784 47.4347 35.7876 47.4669 35.806C47.4991 35.8243 47.5198 35.8519 47.529 35.8887C47.5428 35.9255 47.5428 35.9669 47.529 36.0129L45.8669 41.1715Z" fill="black"/>
<path d="M40.0284 40.9163C39.9549 40.9163 39.8974 40.8956 39.856 40.8543C39.8146 40.8129 39.7939 40.7531 39.7939 40.675V36.2956C39.7939 36.2175 39.8146 36.1577 39.856 36.1163C39.8974 36.0749 39.9549 36.0543 40.0284 36.0543H41.3595C42.1319 36.0543 42.7273 36.2612 43.1457 36.675C43.5687 37.0887 43.7801 37.691 43.7801 38.4818C43.7801 38.8772 43.725 39.2267 43.6146 39.5301C43.5089 39.8336 43.3526 40.0887 43.1457 40.2956C42.9388 40.4979 42.6859 40.652 42.387 40.7577C42.0882 40.8635 41.7457 40.9163 41.3595 40.9163H40.0284ZM40.2146 40.5439H41.325C41.6606 40.5439 41.9526 40.5002 42.2008 40.4129C42.4537 40.3255 42.6629 40.1968 42.8284 40.0267C42.9939 39.8566 43.1181 39.6428 43.2008 39.3853C43.2836 39.1232 43.325 38.8221 43.325 38.4818C43.325 37.7968 43.1572 37.2841 42.8215 36.9439C42.4905 36.5991 41.9916 36.4267 41.325 36.4267H40.2146V40.5439Z" fill="black"/>
<path d="M37.1219 40.9715C36.9012 40.9715 36.6874 40.9531 36.4805 40.9163C36.2736 40.8795 36.0805 40.8243 35.9012 40.7508C35.7265 40.6726 35.5679 40.5784 35.4254 40.468C35.3794 40.4358 35.3472 40.3991 35.3288 40.3577C35.315 40.3117 35.3127 40.2703 35.3219 40.2335C35.3357 40.1922 35.3564 40.1577 35.384 40.1301C35.4162 40.1025 35.453 40.0887 35.4943 40.0887C35.5357 40.0841 35.5794 40.0979 35.6254 40.1301C35.8369 40.2864 36.0599 40.4014 36.2943 40.4749C36.5334 40.5485 36.8093 40.5853 37.1219 40.5853C37.5587 40.5853 37.8851 40.5002 38.1012 40.3301C38.3219 40.16 38.4323 39.937 38.4323 39.6611C38.4323 39.4312 38.3518 39.2519 38.1909 39.1232C38.0346 38.9945 37.7748 38.8933 37.4116 38.8197L36.715 38.6749C36.2782 38.5876 35.9541 38.4404 35.7426 38.2335C35.5311 38.0266 35.4254 37.7508 35.4254 37.406C35.4254 37.1945 35.4668 37.0037 35.5495 36.8335C35.6323 36.6588 35.7495 36.5094 35.9012 36.3853C36.053 36.2611 36.2323 36.1669 36.4392 36.1025C36.6507 36.0335 36.8828 35.9991 37.1357 35.9991C37.4346 35.9991 37.7081 36.0404 37.9564 36.1232C38.2093 36.206 38.4392 36.337 38.6461 36.5163C38.6874 36.5485 38.715 36.5876 38.7288 36.6335C38.7426 36.6749 38.7426 36.7163 38.7288 36.7577C38.715 36.7945 38.6943 36.8243 38.6667 36.8473C38.6392 36.8703 38.6047 36.8841 38.5633 36.8887C38.5219 36.8887 38.4782 36.8703 38.4323 36.8335C38.2392 36.6772 38.0369 36.5646 37.8254 36.4956C37.6185 36.422 37.3886 36.3853 37.1357 36.3853C36.8782 36.3853 36.653 36.4266 36.4599 36.5094C36.2713 36.5922 36.1242 36.7094 36.0185 36.8611C35.9127 37.0128 35.8599 37.1922 35.8599 37.3991C35.8599 37.6381 35.9334 37.8289 36.0805 37.9715C36.2277 38.114 36.4645 38.2174 36.7909 38.2818L37.4943 38.4266C37.9587 38.5232 38.3035 38.668 38.5288 38.8611C38.7541 39.0496 38.8668 39.3094 38.8668 39.6404C38.8668 39.8381 38.8254 40.0197 38.7426 40.1853C38.6645 40.3462 38.5495 40.4864 38.3978 40.606C38.2461 40.7255 38.0622 40.8174 37.8461 40.8818C37.6346 40.9416 37.3932 40.9715 37.1219 40.9715Z" fill="black"/>
<path d="M32.4766 40.9714C32.1686 40.9714 31.895 40.9301 31.6559 40.8473C31.4169 40.7645 31.2169 40.6404 31.0559 40.4749C30.8996 40.3094 30.7801 40.1048 30.6973 39.8611C30.6192 39.6174 30.5801 39.337 30.5801 39.0197V36.2266C30.5801 36.153 30.5985 36.1002 30.6353 36.068C30.672 36.0312 30.7226 36.0128 30.787 36.0128C30.8559 36.0128 30.9088 36.0312 30.9456 36.068C30.9824 36.1002 31.0008 36.153 31.0008 36.2266V38.9852C31.0008 39.5232 31.1249 39.9255 31.3732 40.1921C31.6261 40.4542 31.9939 40.5852 32.4766 40.5852C32.964 40.5852 33.3318 40.4542 33.5801 40.1921C33.8284 39.9255 33.9525 39.5232 33.9525 38.9852V36.2266C33.9525 36.153 33.9709 36.1002 34.0077 36.068C34.0444 36.0312 34.0973 36.0128 34.1663 36.0128C34.2307 36.0128 34.2812 36.0312 34.318 36.068C34.3548 36.1002 34.3732 36.153 34.3732 36.2266V39.0197C34.3732 39.4427 34.3019 39.8013 34.1594 40.0956C34.0169 40.3852 33.8031 40.6036 33.518 40.7507C33.2375 40.8979 32.8904 40.9714 32.4766 40.9714Z" fill="black"/>
<path d="M27.9131 40.9715C27.366 40.9715 26.9499 40.76 26.6648 40.337C26.3844 39.9094 26.2441 39.2933 26.2441 38.4887C26.2441 37.9416 26.3062 37.4841 26.4303 37.1163C26.5591 36.7485 26.7476 36.4703 26.9959 36.2818C27.2441 36.0933 27.5499 35.9991 27.9131 35.9991C28.4648 35.9991 28.8809 36.2082 29.1614 36.6266C29.4418 37.045 29.5821 37.6634 29.5821 38.4818C29.5821 39.0197 29.5177 39.4749 29.389 39.8473C29.2648 40.2197 29.0786 40.5002 28.8303 40.6887C28.5821 40.8772 28.2763 40.9715 27.9131 40.9715ZM27.9131 40.5922C28.3315 40.5922 28.6418 40.4197 28.8441 40.0749C29.0464 39.7301 29.1476 39.1991 29.1476 38.4818C29.1476 37.7554 29.0464 37.2243 28.8441 36.8887C28.6464 36.5485 28.3361 36.3784 27.9131 36.3784C27.4947 36.3784 27.1844 36.5485 26.9821 36.8887C26.7798 37.2289 26.6786 37.76 26.6786 38.4818C26.6786 39.1991 26.7798 39.7301 26.9821 40.0749C27.1844 40.4197 27.4947 40.5922 27.9131 40.5922Z" fill="black"/>
<path d="M25.136 41.537C25.0946 41.5875 25.0532 41.6151 25.0118 41.6197C24.9704 41.6289 24.9337 41.622 24.9015 41.599C24.8739 41.5761 24.8578 41.5439 24.8532 41.5025C24.8532 41.4611 24.8739 41.4128 24.9153 41.3577C24.975 41.2749 25.0187 41.1875 25.0463 41.0956C25.0739 41.0036 25.0877 40.9186 25.0877 40.8404L25.1153 40.937C25.0141 40.937 24.9314 40.9071 24.867 40.8473C24.8072 40.7875 24.7773 40.7117 24.7773 40.6197C24.7773 40.5278 24.8049 40.4519 24.8601 40.3921C24.9153 40.3324 24.9911 40.3025 25.0877 40.3025C25.1842 40.3025 25.2601 40.337 25.3153 40.4059C25.375 40.4703 25.4049 40.5692 25.4049 40.7025C25.4049 40.7852 25.3957 40.8749 25.3773 40.9715C25.3635 41.0726 25.336 41.1715 25.2946 41.268C25.2532 41.3646 25.2003 41.4542 25.136 41.537Z" fill="black"/>
<path d="M21.0765 40.9163C20.9938 40.9163 20.9317 40.8979 20.8903 40.8611C20.8535 40.8197 20.8351 40.7669 20.8351 40.7025C20.8351 40.6657 20.8443 40.6289 20.8627 40.5922C20.8811 40.5554 20.9064 40.5209 20.9386 40.4887L22.5524 38.7439C22.8007 38.4772 22.98 38.2312 23.0903 38.006C23.2007 37.7761 23.2558 37.5416 23.2558 37.3025C23.2558 37.0037 23.1662 36.7761 22.9869 36.6197C22.8076 36.4634 22.5455 36.3853 22.2007 36.3853C21.9708 36.3853 21.757 36.4243 21.5593 36.5025C21.3662 36.5761 21.18 36.6864 21.0007 36.8335C20.9547 36.8703 20.911 36.8887 20.8696 36.8887C20.8328 36.8887 20.8007 36.8772 20.7731 36.8542C20.7455 36.8266 20.7248 36.7945 20.711 36.7577C20.7018 36.7163 20.7018 36.6749 20.711 36.6335C20.7248 36.5922 20.7501 36.5554 20.7869 36.5232C20.9662 36.3669 21.1823 36.2404 21.4351 36.1439C21.688 36.0473 21.9501 35.9991 22.2213 35.9991C22.534 35.9991 22.7984 36.0496 23.0144 36.1508C23.2351 36.2473 23.403 36.3922 23.5179 36.5853C23.6328 36.7784 23.6903 37.0105 23.6903 37.2818C23.6903 37.4749 23.6581 37.6657 23.5938 37.8542C23.5294 38.0427 23.4328 38.2335 23.3041 38.4266C23.18 38.6197 23.019 38.822 22.8213 39.0335L21.2696 40.6749V40.5439H23.7317C23.7961 40.5439 23.8443 40.56 23.8765 40.5922C23.9133 40.6197 23.9317 40.6634 23.9317 40.7232C23.9317 40.7876 23.9133 40.8358 23.8765 40.868C23.8443 40.9002 23.7961 40.9163 23.7317 40.9163H21.0765Z" fill="black"/>
<path d="M17.1277 40.9163C17.068 40.9163 17.0197 40.9002 16.9829 40.868C16.9461 40.8312 16.9277 40.7829 16.9277 40.7232C16.9277 40.6634 16.9461 40.6197 16.9829 40.5921C17.0197 40.5599 17.068 40.5439 17.1277 40.5439H18.0864V36.3921H18.3277L17.3277 37.0749C17.2818 37.1071 17.2381 37.1232 17.1967 37.1232C17.1553 37.1186 17.1208 37.1025 17.0933 37.0749C17.0657 37.0473 17.045 37.0151 17.0312 36.9783C17.022 36.9416 17.0243 36.9025 17.0381 36.8611C17.0519 36.8197 17.0818 36.7852 17.1277 36.7576L18.0795 36.0956C18.1254 36.068 18.1668 36.0473 18.2036 36.0335C18.2404 36.0197 18.2818 36.0128 18.3277 36.0128C18.3783 36.0128 18.4197 36.0289 18.4519 36.0611C18.4887 36.0887 18.507 36.137 18.507 36.2059V40.5439H19.3967C19.4611 40.5439 19.5093 40.5599 19.5415 40.5921C19.5783 40.6197 19.5967 40.6634 19.5967 40.7232C19.5967 40.7875 19.5783 40.8358 19.5415 40.868C19.5093 40.9002 19.4611 40.9163 19.3967 40.9163H17.1277Z" fill="black"/>
<path d="M13.999 40.9715C13.4519 40.9715 13.0358 40.76 12.7508 40.337C12.4703 39.9094 12.3301 39.2933 12.3301 38.4887C12.3301 37.9416 12.3921 37.4841 12.5163 37.1163C12.645 36.7485 12.8335 36.4703 13.0818 36.2818C13.3301 36.0933 13.6358 35.9991 13.999 35.9991C14.5508 35.9991 14.9669 36.2082 15.2473 36.6266C15.5278 37.045 15.668 37.6634 15.668 38.4818C15.668 39.0197 15.6036 39.4749 15.4749 39.8473C15.3508 40.2197 15.1646 40.5002 14.9163 40.6887C14.668 40.8772 14.3623 40.9715 13.999 40.9715ZM13.999 40.5922C14.4174 40.5922 14.7278 40.4197 14.9301 40.0749C15.1324 39.7301 15.2335 39.1991 15.2335 38.4818C15.2335 37.7554 15.1324 37.2243 14.9301 36.8887C14.7324 36.5485 14.422 36.3784 13.999 36.3784C13.5807 36.3784 13.2703 36.5485 13.068 36.8887C12.8657 37.2289 12.7646 37.76 12.7646 38.4818C12.7646 39.1991 12.8657 39.7301 13.068 40.0749C13.2703 40.4197 13.5807 40.5922 13.999 40.5922Z" fill="black"/>
<path d="M7.98809 40.9163C7.92832 40.9163 7.88004 40.9002 7.84326 40.868C7.80648 40.8312 7.78809 40.7829 7.78809 40.7232C7.78809 40.6634 7.80648 40.6197 7.84326 40.5921C7.88004 40.5599 7.92832 40.5439 7.98809 40.5439H8.94671V36.3921H9.18809L8.18809 37.0749C8.14211 37.1071 8.09843 37.1232 8.05705 37.1232C8.01567 37.1186 7.98119 37.1025 7.9536 37.0749C7.92602 37.0473 7.90533 37.0151 7.89153 36.9783C7.88234 36.9416 7.88464 36.9025 7.89843 36.8611C7.91222 36.8197 7.94211 36.7852 7.98809 36.7576L8.93981 36.0956C8.98579 36.068 9.02717 36.0473 9.06395 36.0335C9.10073 36.0197 9.14211 36.0128 9.18809 36.0128C9.23866 36.0128 9.28004 36.0289 9.31222 36.0611C9.34901 36.0887 9.3674 36.137 9.3674 36.2059V40.5439H10.2571C10.3214 40.5439 10.3697 40.5599 10.4019 40.5921C10.4387 40.6197 10.4571 40.6634 10.4571 40.7232C10.4571 40.7875 10.4387 40.8358 10.4019 40.868C10.3697 40.9002 10.3214 40.9163 10.2571 40.9163H7.98809Z" fill="black"/>
<path d="M26.9551 50.8029C26.9275 50.8535 26.8953 50.8857 26.8586 50.8995C26.8218 50.9179 26.785 50.9225 26.7482 50.9133C26.7114 50.9041 26.6792 50.8857 26.6517 50.8581C26.6287 50.8305 26.6149 50.796 26.6103 50.7547C26.6057 50.7133 26.6172 50.6696 26.6448 50.6236L29.3551 45.8857C29.3827 45.8351 29.4149 45.8029 29.4517 45.7891C29.4884 45.7708 29.5252 45.7662 29.562 45.7753C29.5988 45.7845 29.6287 45.8052 29.6517 45.8374C29.6792 45.865 29.6953 45.8995 29.6999 45.9409C29.7045 45.9822 29.693 46.0259 29.6654 46.0719L26.9551 50.8029ZM26.5413 48.8236C26.1873 48.8236 25.9068 48.6949 25.6999 48.4374C25.4976 48.1753 25.3965 47.8075 25.3965 47.334C25.3965 47.0213 25.4425 46.7547 25.5344 46.534C25.6264 46.3133 25.7574 46.1455 25.9275 46.0305C26.1022 45.911 26.3068 45.8512 26.5413 45.8512C26.8953 45.8512 27.1758 45.9822 27.3827 46.2443C27.5896 46.5018 27.693 46.865 27.693 47.334C27.693 47.6512 27.6471 47.9202 27.5551 48.1409C27.4632 48.3616 27.3321 48.5317 27.162 48.6512C26.9919 48.7662 26.785 48.8236 26.5413 48.8236ZM26.5413 48.4995C26.7022 48.4995 26.8402 48.4558 26.9551 48.3685C27.07 48.2765 27.1574 48.1455 27.2172 47.9753C27.2769 47.8006 27.3068 47.5868 27.3068 47.334C27.3068 46.957 27.2379 46.6719 27.0999 46.4788C26.9666 46.2811 26.7804 46.1822 26.5413 46.1822C26.385 46.1822 26.2494 46.2259 26.1344 46.3133C26.0195 46.4006 25.9321 46.5294 25.8723 46.6995C25.8126 46.8696 25.7827 47.0811 25.7827 47.334C25.7827 47.7202 25.8494 48.0121 25.9827 48.2098C26.1206 48.4029 26.3068 48.4995 26.5413 48.4995ZM29.7689 50.8236C29.4149 50.8236 29.1344 50.6949 28.9275 50.4374C28.7252 50.1799 28.6241 49.8121 28.6241 49.334C28.6241 49.0213 28.67 48.7547 28.762 48.534C28.854 48.3133 28.985 48.1455 29.1551 48.0305C29.3298 47.911 29.5344 47.8512 29.7689 47.8512C30.1275 47.8512 30.408 47.9822 30.6103 48.2443C30.8172 48.5018 30.9206 48.865 30.9206 49.334C30.9206 49.6512 30.8746 49.9225 30.7827 50.1478C30.6907 50.3685 30.5597 50.5363 30.3896 50.6512C30.2195 50.7662 30.0126 50.8236 29.7689 50.8236ZM29.7689 50.4995C29.9298 50.4995 30.0677 50.4558 30.1827 50.3685C30.2976 50.2811 30.385 50.1501 30.4448 49.9753C30.5045 49.8006 30.5344 49.5868 30.5344 49.334C30.5344 48.957 30.4654 48.6719 30.3275 48.4788C30.1942 48.2811 30.008 48.1822 29.7689 48.1822C29.6126 48.1822 29.4769 48.2259 29.362 48.3133C29.2471 48.4006 29.1597 48.5294 29.0999 48.6995C29.0402 48.8696 29.0103 49.0811 29.0103 49.334C29.0103 49.7202 29.0769 50.0121 29.2103 50.2098C29.3482 50.4029 29.5344 50.4995 29.7689 50.4995Z" fill="#A6A6A6"/>
<path d="M22.5931 50.8236C22.377 50.8236 22.154 50.7776 21.9241 50.6857C21.6942 50.5937 21.4965 50.4627 21.331 50.2926C21.2942 50.2604 21.2712 50.2236 21.262 50.1822C21.2528 50.1409 21.2551 50.1018 21.2689 50.065C21.2827 50.0282 21.3034 49.9983 21.331 49.9753C21.3586 49.9477 21.3931 49.9363 21.4344 49.9409C21.4758 49.9409 21.5172 49.9592 21.5586 49.996C21.7149 50.1477 21.8827 50.2604 22.062 50.334C22.2413 50.4029 22.4206 50.4374 22.6 50.4374C22.9172 50.4374 23.1862 50.3592 23.4068 50.2029C23.6275 50.042 23.7954 49.8029 23.9103 49.4857C24.0252 49.1638 24.0827 48.7638 24.0827 48.2857V47.5891H24.131C24.108 47.8604 24.0321 48.0972 23.9034 48.2995C23.7747 48.5018 23.6068 48.6581 23.4 48.7684C23.1977 48.8742 22.9678 48.9271 22.7103 48.9271C22.4206 48.9271 22.1632 48.8627 21.9379 48.734C21.7172 48.6052 21.5425 48.4259 21.4137 48.196C21.2896 47.9615 21.2275 47.6972 21.2275 47.4029C21.2275 47.0995 21.2919 46.8305 21.4206 46.596C21.554 46.3615 21.7333 46.1799 21.9586 46.0512C22.1885 45.9179 22.4505 45.8512 22.7448 45.8512C23.1218 45.8512 23.4413 45.9432 23.7034 46.1271C23.9655 46.311 24.1632 46.5799 24.2965 46.934C24.4344 47.2834 24.5034 47.7064 24.5034 48.2029C24.5034 48.6259 24.4597 49.0006 24.3724 49.3271C24.2896 49.6535 24.1655 49.9271 24 50.1477C23.8344 50.3684 23.6321 50.5363 23.3931 50.6512C23.1586 50.7661 22.8919 50.8236 22.5931 50.8236ZM22.7793 48.5477C23.0046 48.5477 23.2 48.4995 23.3655 48.4029C23.5356 48.3018 23.6689 48.1638 23.7655 47.9891C23.862 47.8144 23.9103 47.6144 23.9103 47.3891C23.9103 47.1592 23.862 46.9569 23.7655 46.7822C23.6689 46.6075 23.5356 46.4719 23.3655 46.3753C23.2 46.2742 23.0046 46.2236 22.7793 46.2236C22.5586 46.2236 22.3632 46.2742 22.1931 46.3753C22.0275 46.4719 21.8965 46.6075 21.8 46.7822C21.7034 46.9569 21.6551 47.1592 21.6551 47.3891C21.6551 47.6144 21.7034 47.8144 21.8 47.9891C21.8965 48.1638 22.0275 48.3018 22.1931 48.4029C22.3632 48.4995 22.5586 48.5477 22.7793 48.5477Z" fill="#A6A6A6"/>
<path d="M18.7329 50.8236C18.457 50.8236 18.1857 50.7822 17.9191 50.6995C17.6524 50.6167 17.4202 50.4926 17.2225 50.3271C17.1766 50.2949 17.1467 50.2581 17.1329 50.2167C17.1237 50.1753 17.1237 50.1363 17.1329 50.0995C17.1421 50.0627 17.1605 50.0305 17.188 50.0029C17.2156 49.9753 17.2501 49.9615 17.2915 49.9615C17.3329 49.9569 17.3788 49.973 17.4294 50.0098C17.6363 50.1569 17.8455 50.265 18.057 50.334C18.2731 50.4029 18.4984 50.4374 18.7329 50.4374C18.9811 50.4374 19.1903 50.4006 19.3605 50.3271C19.5306 50.2489 19.6593 50.1363 19.7467 49.9891C19.8386 49.842 19.8846 49.6604 19.8846 49.4443C19.8846 49.1317 19.7811 48.8949 19.5743 48.734C19.372 48.5684 19.0777 48.4857 18.6915 48.4857H18.1743C18.1099 48.4857 18.0593 48.4696 18.0225 48.4374C17.9857 48.4006 17.9674 48.3546 17.9674 48.2995C17.9674 48.2397 17.9857 48.1937 18.0225 48.1615C18.0593 48.1294 18.1099 48.1133 18.1743 48.1133H18.657C18.8823 48.1133 19.0754 48.0719 19.2363 47.9891C19.3972 47.9064 19.5214 47.7914 19.6087 47.6443C19.7007 47.4926 19.7467 47.311 19.7467 47.0995C19.7467 46.8236 19.657 46.6121 19.4777 46.465C19.303 46.3133 19.0478 46.2374 18.7122 46.2374C18.4869 46.2374 18.2754 46.2742 18.0777 46.3477C17.88 46.4167 17.6915 46.5294 17.5122 46.6857C17.4708 46.7225 17.4294 46.7432 17.388 46.7477C17.3467 46.7477 17.3099 46.7363 17.2777 46.7133C17.2501 46.6903 17.2294 46.6604 17.2156 46.6236C17.2018 46.5822 17.2018 46.5409 17.2156 46.4995C17.2294 46.4535 17.2593 46.4121 17.3053 46.3753C17.4846 46.2052 17.6984 46.0765 17.9467 45.9891C18.1995 45.8972 18.4593 45.8512 18.726 45.8512C19.0294 45.8512 19.2892 45.8995 19.5053 45.996C19.7214 46.0926 19.8869 46.2328 20.0018 46.4167C20.1214 46.6006 20.1811 46.8213 20.1811 47.0788C20.1811 47.2811 20.1421 47.465 20.0639 47.6305C19.9903 47.796 19.8846 47.9363 19.7467 48.0512C19.6087 48.1661 19.4432 48.2489 19.2501 48.2995V48.2236C19.5857 48.2834 19.8455 48.4236 20.0294 48.6443C20.2179 48.8604 20.3122 49.134 20.3122 49.465C20.3122 49.7409 20.2478 49.9822 20.1191 50.1891C19.9949 50.3914 19.8156 50.5477 19.5811 50.6581C19.3467 50.7684 19.0639 50.8236 18.7329 50.8236Z" fill="#A6A6A6"/>
<path d="M15.9973 51.3891C15.9559 51.4397 15.9145 51.4673 15.8732 51.4719C15.8318 51.4811 15.795 51.4742 15.7628 51.4512C15.7352 51.4282 15.7191 51.396 15.7145 51.3546C15.7145 51.3133 15.7352 51.265 15.7766 51.2098C15.8364 51.127 15.8801 51.0397 15.9076 50.9477C15.9352 50.8558 15.949 50.7707 15.949 50.6926L15.9766 50.7891C15.8755 50.7891 15.7927 50.7592 15.7283 50.6995C15.6686 50.6397 15.6387 50.5638 15.6387 50.4719C15.6387 50.3799 15.6663 50.3041 15.7214 50.2443C15.7766 50.1845 15.8525 50.1546 15.949 50.1546C16.0456 50.1546 16.1214 50.1891 16.1766 50.2581C16.2364 50.3224 16.2663 50.4213 16.2663 50.5546C16.2663 50.6374 16.2571 50.727 16.2387 50.8236C16.2249 50.9247 16.1973 51.0236 16.1559 51.1201C16.1145 51.2167 16.0617 51.3064 15.9973 51.3891Z" fill="#A6A6A6"/>
<path d="M13.1309 50.8236C12.5838 50.8236 12.1677 50.6121 11.8826 50.1891C11.6021 49.7615 11.4619 49.1454 11.4619 48.3409C11.4619 47.7937 11.524 47.3363 11.6481 46.9684C11.7769 46.6006 11.9654 46.3225 12.2136 46.134C12.4619 45.9454 12.7677 45.8512 13.1309 45.8512C13.6826 45.8512 14.0987 46.0604 14.3792 46.4788C14.6596 46.8972 14.7998 47.5156 14.7998 48.334C14.7998 48.8719 14.7355 49.3271 14.6067 49.6995C14.4826 50.0719 14.2964 50.3523 14.0481 50.5409C13.7998 50.7294 13.4941 50.8236 13.1309 50.8236ZM13.1309 50.4443C13.5493 50.4443 13.8596 50.2719 14.0619 49.9271C14.2642 49.5822 14.3654 49.0512 14.3654 48.334C14.3654 47.6075 14.2642 47.0765 14.0619 46.7409C13.8642 46.4006 13.5539 46.2305 13.1309 46.2305C12.7125 46.2305 12.4021 46.4006 12.1998 46.7409C11.9975 47.0811 11.8964 47.6121 11.8964 48.334C11.8964 49.0512 11.9975 49.5822 12.1998 49.9271C12.4021 50.2719 12.7125 50.4443 13.1309 50.4443Z" fill="#A6A6A6"/>
<path d="M8.99562 50.5339C8.93585 50.5339 8.88988 50.5178 8.85769 50.4857C8.83011 50.4535 8.81631 50.4098 8.81631 50.3546V48.9615H7.45079C7.39562 48.9615 7.35194 48.9477 7.31976 48.9201C7.28758 48.888 7.27148 48.8443 7.27148 48.7891C7.27148 48.7339 7.28758 48.6926 7.31976 48.665C7.35194 48.6328 7.39562 48.6167 7.45079 48.6167H8.81631V47.265C8.81631 47.2098 8.83011 47.1661 8.85769 47.1339C8.88988 47.1018 8.93585 47.0857 8.99562 47.0857C9.05539 47.0857 9.09907 47.1018 9.12666 47.1339C9.15884 47.1661 9.17493 47.2098 9.17493 47.265V48.6167H10.5405C10.6002 48.6167 10.6439 48.6328 10.6715 48.665C10.7037 48.6926 10.7198 48.7339 10.7198 48.7891C10.7198 48.8489 10.7037 48.8926 10.6715 48.9201C10.6439 48.9477 10.6002 48.9615 10.5405 48.9615H9.17493V50.3546C9.17493 50.4098 9.15884 50.4535 9.12666 50.4857C9.09907 50.5178 9.05539 50.5339 8.99562 50.5339Z" fill="#A6A6A6"/>
<path fill-rule="evenodd" clip-rule="evenodd" d="M70.9652 29.5862H6.92578V29.0936H70.9652V29.5862Z" fill="black"/>
<g clip-path="url(#clip0_2002_403)">
<path d="M6.92578 9.88177H21.7041V24.6601H6.92578V9.88177Z" fill="#C2B8AB"/>
<path d="M12.5332 15.5696H16.1705L15.6403 14.1464C15.6197 14.088 15.582 14.0371 15.5321 14.0004L12.5332 15.5696ZM12.5229 13.8804C12.6519 13.5341 12.9354 13.3119 13.2478 13.3119H15.3986C15.7113 13.3119 15.9947 13.5341 16.1235 13.8804L16.6539 15.3036C16.8128 15.7306 16.5558 16.2148 16.1705 16.2148H12.4759C12.0906 16.2148 11.8338 15.7306 11.993 15.3036L12.5234 13.8804H12.5229ZM9.62659 19.2642H13.257L12.7269 17.8409C12.7062 17.7826 12.6685 17.7317 12.6187 17.695L9.62659 19.2642ZM9.61656 17.5749C9.74534 17.2287 10.029 17.0065 10.3415 17.0065H12.4854C12.7979 17.0065 13.0813 17.2287 13.2103 17.5749L13.7402 18.9981C13.8994 19.4251 13.6426 19.9094 13.2573 19.9094H9.56906C9.18377 19.9094 8.92699 19.4251 9.08586 18.9981L9.6163 17.5749H9.61656ZM19.0879 19.2642H15.4329L18.4492 17.6953C18.4962 17.7285 18.5345 17.7787 18.558 17.8412L19.0879 19.2642ZM16.1473 17.0065C15.8348 17.0065 15.5514 17.2287 15.4223 17.5749L14.8922 18.9981C14.733 19.4251 14.9901 19.9094 15.3754 19.9094H19.0876C19.4729 19.9094 19.7297 19.4251 19.5708 18.9981L19.0404 17.5749C18.9124 17.2287 18.6287 17.0065 18.3165 17.0065H16.1473Z" fill="white"/>
</g>
<path d="M52 70.4631C52 69.1027 53.1027 68 54.4631 68H123.429C124.789 68 125.892 69.1027 125.892 70.4631V165.537C125.892 166.897 124.789 168 123.429 168H54.4631C53.1027 168 52 166.897 52 165.537V70.4631Z" fill="white"/>
<g filter="url(#filter1_d_2002_403)">
<path d="M52 70.4631C52 69.1027 53.1027 68 54.4631 68H123.429C124.789 68 125.892 69.1027 125.892 70.4631V165.537C125.892 166.897 124.789 168 123.429 168H54.4631C53.1027 168 52 166.897 52 165.537V70.4631Z" fill="white"/>
</g>
<rect x="56.9258" y="151.251" width="22.0499" height="7.47586" rx="3" fill="#292929"/>
<path d="M74.2127 156.383C74.1525 156.383 74.1065 156.368 74.0747 156.34C74.0464 156.308 74.0322 156.264 74.0322 156.207V153.941C74.0322 153.884 74.0464 153.842 74.0747 153.813C74.103 153.785 74.1437 153.771 74.1968 153.771C74.2463 153.771 74.2852 153.785 74.3136 153.813C74.3419 153.842 74.356 153.884 74.356 153.941V154.758H75.1788C75.5008 154.758 75.745 154.829 75.9113 154.971C76.0812 155.112 76.1661 155.31 76.1661 155.565C76.1661 155.735 76.1272 155.882 76.0493 156.006C75.975 156.13 75.8653 156.223 75.7202 156.287C75.5751 156.351 75.3947 156.383 75.1788 156.383H74.2127ZM74.356 156.133H75.1682C75.3805 156.133 75.5451 156.087 75.6618 155.995C75.7822 155.903 75.8423 155.761 75.8423 155.57C75.8423 155.376 75.7822 155.232 75.6618 155.14C75.5451 155.048 75.3805 155.002 75.1682 155.002H74.356V156.133Z" fill="white"/>
<path d="M72.4414 156.414C72.3918 156.414 72.3529 156.4 72.3246 156.372C72.2963 156.344 72.2821 156.303 72.2821 156.25V154.079H71.4434C71.3373 154.079 71.2842 154.033 71.2842 153.941C71.2842 153.902 71.2983 153.87 71.3266 153.845C71.355 153.82 71.3939 153.808 71.4434 153.808H73.4446C73.5472 153.808 73.5985 153.852 73.5985 153.941C73.5985 153.983 73.5844 154.017 73.5561 154.042C73.5313 154.066 73.4941 154.079 73.4446 154.079H72.6059V156.25C72.6059 156.303 72.5918 156.344 72.5634 156.372C72.5387 156.4 72.498 156.414 72.4414 156.414Z" fill="white"/>
<path d="M68.842 156.414C68.8137 156.414 68.7871 156.409 68.7624 156.398C68.7411 156.388 68.7234 156.37 68.7093 156.345C68.6987 156.317 68.6934 156.282 68.6934 156.239V153.935C68.6934 153.882 68.7057 153.842 68.7305 153.813C68.7588 153.785 68.7978 153.771 68.8473 153.771C68.8933 153.771 68.9287 153.785 68.9535 153.813C68.9782 153.842 68.9906 153.882 68.9906 153.935V156.096H68.8632L70.5141 153.877C70.5388 153.845 70.5654 153.82 70.5937 153.803C70.622 153.782 70.6592 153.771 70.7052 153.771C70.737 153.771 70.7635 153.778 70.7848 153.792C70.806 153.803 70.8219 153.82 70.8326 153.845C70.8467 153.87 70.8538 153.904 70.8538 153.946V156.255C70.8538 156.305 70.8396 156.344 70.8113 156.372C70.7865 156.4 70.7512 156.414 70.7052 156.414C70.6556 156.414 70.6185 156.4 70.5937 156.372C70.5689 156.344 70.5565 156.305 70.5565 156.255V154.095H70.6839L69.0278 156.314C69.0065 156.342 68.9818 156.365 68.9535 156.383C68.9251 156.404 68.888 156.414 68.842 156.414Z" fill="white"/>
<path d="M65.8091 156.414C65.756 156.414 65.7153 156.4 65.687 156.372C65.6587 156.344 65.6445 156.303 65.6445 156.25V153.994C65.6445 153.934 65.6605 153.888 65.6923 153.856C65.7242 153.824 65.7702 153.808 65.8303 153.808H67.6139C67.674 153.808 67.72 153.824 67.7519 153.856C67.7837 153.888 67.7996 153.934 67.7996 153.994V156.25C67.7996 156.303 67.7855 156.344 67.7572 156.372C67.7289 156.4 67.6882 156.414 67.6351 156.414C67.5856 156.414 67.5466 156.4 67.5183 156.372C67.49 156.344 67.4758 156.303 67.4758 156.25V154.073H65.9683V156.25C65.9683 156.303 65.9542 156.344 65.9259 156.372C65.9011 156.4 65.8622 156.414 65.8091 156.414Z" fill="white"/>
<path d="M63.4443 157.37C63.4019 157.37 63.3682 157.357 63.3435 157.333C63.3187 157.311 63.3045 157.281 63.301 157.242C63.301 157.207 63.3081 157.17 63.3222 157.131L63.6885 156.298V156.446L62.6481 154.015C62.6304 153.973 62.6233 153.934 62.6269 153.898C62.6339 153.859 62.6499 153.829 62.6746 153.808C62.7029 153.783 62.7419 153.771 62.7914 153.771C62.8374 153.771 62.871 153.782 62.8923 153.803C62.917 153.824 62.9383 153.858 62.956 153.904L63.9008 156.191H63.7681L64.713 153.904C64.7342 153.854 64.7572 153.82 64.782 153.803C64.8067 153.782 64.8421 153.771 64.8881 153.771C64.9341 153.771 64.9678 153.783 64.989 153.808C65.0138 153.829 65.0279 153.858 65.0315 153.893C65.035 153.928 65.0279 153.967 65.0102 154.01L63.6248 157.242C63.6036 157.292 63.5788 157.326 63.5505 157.343C63.5257 157.361 63.4903 157.37 63.4443 157.37Z" fill="white"/>
<path d="M59.8956 156.414C59.846 156.414 59.8071 156.4 59.7788 156.372C59.7505 156.34 59.7363 156.298 59.7363 156.245V152.773C59.7363 152.72 59.7505 152.679 59.7788 152.651C59.8071 152.623 59.846 152.608 59.8956 152.608C59.9487 152.608 59.9894 152.623 60.0177 152.651C60.046 152.679 60.0601 152.72 60.0601 152.773V154.344H60.8457L60.7236 154.424L61.8861 152.693C61.9109 152.658 61.9392 152.635 61.9711 152.624C62.0029 152.61 62.0348 152.607 62.0666 152.614C62.0985 152.621 62.125 152.637 62.1462 152.662C62.1675 152.683 62.1799 152.709 62.1834 152.741C62.1905 152.773 62.1816 152.808 62.1569 152.847L61.0528 154.472L60.9413 154.355C61.1465 154.376 61.3235 154.45 61.4721 154.578C61.6243 154.702 61.7552 154.875 61.8649 155.098L62.4063 156.191C62.4276 156.23 62.4329 156.268 62.4223 156.303C62.4152 156.335 62.3975 156.36 62.3692 156.377C62.3444 156.395 62.3143 156.406 62.2789 156.409C62.2471 156.413 62.2152 156.406 62.1834 156.388C62.1515 156.374 62.1268 156.347 62.1091 156.308L61.6101 155.278C61.4969 155.045 61.3695 154.879 61.2279 154.779C61.0899 154.68 60.92 154.631 60.7183 154.631H60.0601V156.245C60.0601 156.298 60.046 156.34 60.0177 156.372C59.9929 156.4 59.9522 156.414 59.8956 156.414Z" fill="white"/>
<path fill-rule="evenodd" clip-rule="evenodd" d="M88.3304 122.252V133.855L88.9147 128.135L89.2906 128.984C89.4554 129.356 89.7025 129.939 89.9089 130.48C89.9846 130.678 90.0554 130.873 90.1149 131.05C90.2743 130.681 90.4997 130.214 90.7613 129.928C90.8975 129.778 91.0912 129.625 91.3324 129.63C91.5894 129.636 91.7835 129.817 91.9275 130.061C92.074 130.309 92.2043 130.678 92.321 131.189C92.4344 131.685 92.5382 132.329 92.6288 133.152L95.1938 135.503L96.1133 130.906L99.3567 128.744L103.193 134.371L107.134 141.093L109.892 134.427L112.036 125.048L114.559 131.493L114.969 138.061L117.16 130.911L118.617 136.207L121.271 133.111L121.645 133.431L118.388 137.231L117.135 132.675L115.043 139.501L114.562 139.444L114.072 131.601L112.16 126.716L110.363 134.578L107.21 142.197L102.777 134.634L99.2243 129.424L96.5563 131.203L95.5054 136.457L92.1589 133.39L92.149 133.297C92.0573 132.441 91.9526 131.788 91.8408 131.298C91.7282 130.806 91.6116 130.494 91.5034 130.311C91.393 130.124 91.3248 130.123 91.3208 130.123C91.3013 130.122 91.2362 130.138 91.1252 130.26C90.9103 130.495 90.7004 130.931 90.5363 131.317C90.4965 131.411 90.4603 131.499 90.4282 131.578C90.422 131.593 90.416 131.608 90.41 131.622C90.3855 131.683 90.3632 131.738 90.3443 131.783C90.3236 131.832 90.2984 131.89 90.2742 131.929C90.268 131.939 90.2538 131.961 90.2318 131.983C90.221 131.994 90.1988 132.015 90.1656 132.032C90.1314 132.049 90.0682 132.071 89.9914 132.051C89.9131 132.032 89.8663 131.981 89.8431 131.945C89.8213 131.912 89.8124 131.881 89.8086 131.865C89.8008 131.833 89.8005 131.805 89.8005 131.793C89.8005 131.737 89.772 131.599 89.7041 131.38C89.6399 131.173 89.55 130.921 89.4486 130.656C89.3737 130.459 89.2931 130.257 89.2131 130.061L88.3291 138.715L87.8377 138.69V124.116C86.8047 126.016 86.1758 127.567 85.7606 128.59L85.7301 128.665C85.6124 128.955 85.5107 129.205 85.422 129.404C85.3353 129.599 85.253 129.764 85.1717 129.877C85.1321 129.932 85.0779 129.995 85.0056 130.038C84.9211 130.087 84.8077 130.109 84.6942 130.056C84.6008 130.012 84.544 129.933 84.51 129.875C84.4732 129.811 84.4426 129.735 84.4155 129.654C84.2352 129.111 84.0095 129.017 83.8742 129.009C83.7111 129 83.5227 129.099 83.3827 129.228L81.3464 133.795L78.9028 129.876C78.8684 129.92 78.8292 129.972 78.7852 130.034C78.5382 130.379 78.2056 130.914 77.8671 131.466C77.8122 131.556 77.7572 131.646 77.7025 131.735C77.4224 132.193 77.1491 132.639 76.9349 132.963C76.809 133.154 76.6943 133.317 76.6063 133.414C76.5835 133.439 76.5579 133.465 76.5304 133.487C76.5085 133.505 76.461 133.542 76.3954 133.557C76.3584 133.566 76.3046 133.571 76.2453 133.551C76.183 133.53 76.1384 133.489 76.1102 133.446C76.0631 133.375 76.0615 133.3 76.0615 133.271C76.0615 133.008 75.9865 132.602 75.8845 132.184C75.8575 132.074 75.829 131.964 75.8003 131.858L73.4149 138.77L72.9389 138.729L71.8926 132.185V142.138L71.4175 142.229L69.2664 136.83L68.4526 140.711L67.9739 140.725C67.7276 139.818 67.19 137.872 66.9964 137.289C66.9181 137.053 66.7298 136.821 66.5027 136.62C66.4187 136.546 66.3324 136.479 66.2498 136.42V140.906H64.7452L64.2846 144.143L63.8092 144.192L61.343 137.384V144.97L59.7332 142.384H58.5558L57.1497 145.443L56.7021 145.237L58.2401 141.892H60.0068L60.8504 143.247V135.98L61.3283 135.896L63.9361 143.096L64.2852 140.643C64.2859 140.228 64.3108 139.631 64.3867 139.179C64.4235 138.959 64.4781 138.733 64.5715 138.584C64.6178 138.511 64.7056 138.406 64.8515 138.384C65.0045 138.361 65.1234 138.442 65.1966 138.516C65.3426 138.662 65.4166 138.858 65.4528 139.049C65.4893 139.242 65.4915 139.453 65.4763 139.656C65.4565 139.92 65.406 140.188 65.3493 140.414H65.7572V135.581L66.114 135.76C66.2951 135.851 66.5707 136.023 66.8291 136.252C67.0846 136.478 67.3461 136.779 67.464 137.134C67.6057 137.561 67.9213 138.679 68.1796 139.613L69.1195 135.131L71.4 140.854V129.084L71.8895 129.045L73.2701 137.68L75.8216 130.286L76.0508 130.977C76.1344 131.228 76.259 131.641 76.363 132.067C76.4162 132.285 76.4656 132.512 76.5008 132.727C76.5084 132.715 76.5161 132.704 76.524 132.692C76.7329 132.376 77.0006 131.938 77.2808 131.48C77.3359 131.39 77.3915 131.3 77.4472 131.209C77.7834 130.66 78.1254 130.11 78.3844 129.747C78.5088 129.573 78.6319 129.416 78.7353 129.332C78.7627 129.31 78.8005 129.283 78.8462 129.264C78.89 129.246 78.9736 129.223 79.067 129.26C79.1659 129.299 79.2118 129.38 79.231 129.434C79.2384 129.455 79.2433 129.476 79.2467 129.496L81.274 132.747L82.9708 128.942L83.0028 128.91C83.1876 128.724 83.5226 128.495 83.9033 128.518C84.3102 128.542 84.6479 128.839 84.8616 129.437C84.8937 129.374 84.9303 129.297 84.972 129.203C85.0567 129.013 85.1552 128.772 85.2736 128.48L85.3048 128.403C85.78 127.232 86.5417 125.354 87.8707 123.049L88.3304 122.252ZM64.7779 140.614L64.7884 140.583C64.8655 140.35 64.9583 139.976 64.9851 139.62C64.9984 139.441 64.9945 139.277 64.9687 139.14C64.9583 139.085 64.9449 139.038 64.9293 138.998C64.9099 139.066 64.8904 139.153 64.8725 139.26C64.8049 139.664 64.7797 140.212 64.7779 140.614Z" fill="#00CF6C"/>
<path d="M116.336 86.2976C115.952 86.2976 115.615 86.2089 115.325 86.0316C115.042 85.8483 114.82 85.5912 114.66 85.2601C114.507 84.9232 114.43 84.5271 114.43 84.072C114.43 83.6168 114.507 83.2237 114.66 82.8927C114.814 82.5616 115.033 82.3045 115.316 82.1212C115.606 81.938 115.946 81.8463 116.336 81.8463C116.738 81.8463 117.081 81.9498 117.365 82.1567C117.648 82.3636 117.838 82.6414 117.932 82.9902H117.835V80.1971C117.835 80.1025 117.858 80.0345 117.906 79.9931C117.953 79.9459 118.018 79.9222 118.101 79.9222C118.189 79.9222 118.257 79.9459 118.305 79.9931C118.352 80.0345 118.376 80.1025 118.376 80.1971V86.005C118.376 86.0936 118.352 86.1616 118.305 86.2089C118.257 86.2562 118.192 86.2798 118.109 86.2798C118.021 86.2798 117.953 86.2562 117.906 86.2089C117.858 86.1616 117.835 86.0936 117.835 86.005V85.0917L117.932 85.1537C117.838 85.5025 117.648 85.7803 117.365 85.9872C117.081 86.1941 116.738 86.2976 116.336 86.2976ZM116.407 85.8454C116.703 85.8454 116.957 85.7774 117.17 85.6414C117.388 85.4996 117.554 85.2956 117.666 85.0296C117.784 84.7636 117.843 84.4444 117.843 84.072C117.843 83.5104 117.713 83.0759 117.453 82.7685C117.199 82.4611 116.85 82.3074 116.407 82.3074C116.117 82.3074 115.863 82.3784 115.644 82.5202C115.432 82.6562 115.266 82.8572 115.148 83.1232C115.036 83.3833 114.979 83.6996 114.979 84.072C114.979 84.6395 115.109 85.0769 115.37 85.3843C115.63 85.6917 115.976 85.8454 116.407 85.8454Z" fill="black"/>
<path d="M113.451 86.2976C113.055 86.2976 112.748 86.1734 112.529 85.9252C112.316 85.6769 112.21 85.3252 112.21 84.87V80.1971C112.21 80.1025 112.234 80.0345 112.281 79.9931C112.328 79.9459 112.396 79.9222 112.485 79.9222C112.568 79.9222 112.633 79.9459 112.68 79.9931C112.727 80.0345 112.751 80.1025 112.751 80.1971V84.8079C112.751 85.1508 112.819 85.4079 112.955 85.5794C113.091 85.7449 113.289 85.8276 113.549 85.8276C113.608 85.8276 113.658 85.8247 113.7 85.8188C113.741 85.8129 113.782 85.8099 113.824 85.8099C113.877 85.804 113.915 85.8158 113.939 85.8454C113.969 85.869 113.983 85.9222 113.983 86.005C113.983 86.0877 113.963 86.1498 113.921 86.1912C113.88 86.2326 113.812 86.2621 113.717 86.2798C113.676 86.2858 113.632 86.2887 113.584 86.2887C113.543 86.2946 113.499 86.2976 113.451 86.2976Z" fill="black"/>
<path d="M109.072 86.2976C108.67 86.2976 108.321 86.2059 108.026 86.0227C107.73 85.8394 107.5 85.5823 107.334 85.2513C107.175 84.9202 107.095 84.5271 107.095 84.072C107.095 83.735 107.139 83.4306 107.228 83.1587C107.322 82.8867 107.455 82.6532 107.627 82.4582C107.804 82.2572 108.014 82.1064 108.256 82.006C108.505 81.8995 108.776 81.8463 109.072 81.8463C109.48 81.8463 109.832 81.938 110.127 82.1212C110.423 82.3045 110.65 82.5646 110.81 82.9015C110.976 83.2326 111.058 83.6227 111.058 84.072C111.058 84.4148 111.011 84.7222 110.916 84.9941C110.828 85.266 110.695 85.4995 110.517 85.6946C110.346 85.8897 110.139 86.0404 109.897 86.1468C109.654 86.2473 109.379 86.2976 109.072 86.2976ZM109.072 85.8454C109.368 85.8454 109.622 85.7774 109.835 85.6414C110.053 85.4995 110.219 85.2956 110.331 85.0296C110.449 84.7636 110.509 84.4444 110.509 84.072C110.509 83.5104 110.378 83.0759 110.118 82.7685C109.864 82.4611 109.515 82.3074 109.072 82.3074C108.782 82.3074 108.528 82.3784 108.31 82.5202C108.097 82.6562 107.931 82.8572 107.813 83.1232C107.701 83.3833 107.644 83.6995 107.644 84.072C107.644 84.6394 107.775 85.0769 108.035 85.3843C108.295 85.6917 108.641 85.8454 109.072 85.8454Z" fill="black"/>
<path d="M103.844 86.2976C103.188 86.2976 102.635 86.1734 102.186 85.9252C101.737 85.671 101.397 85.3045 101.166 84.8257C100.936 84.3468 100.82 83.7705 100.82 83.0966C100.82 82.6 100.885 82.1567 101.015 81.7665C101.145 81.3705 101.332 81.0365 101.574 80.7646C101.822 80.4867 102.124 80.2739 102.478 80.1262C102.839 79.9784 103.247 79.9045 103.702 79.9045C104.098 79.9045 104.474 79.9606 104.828 80.073C105.183 80.1853 105.49 80.3626 105.75 80.605C105.804 80.6523 105.836 80.7025 105.848 80.7557C105.86 80.803 105.857 80.8532 105.839 80.9065C105.821 80.9537 105.792 80.9951 105.75 81.0306C105.715 81.0601 105.671 81.0779 105.617 81.0838C105.57 81.0838 105.517 81.0631 105.458 81.0217C105.215 80.803 104.946 80.6464 104.651 80.5518C104.361 80.4572 104.042 80.4099 103.693 80.4099C103.203 80.4099 102.786 80.5163 102.443 80.7291C102.1 80.936 101.84 81.2404 101.663 81.6424C101.485 82.0444 101.397 82.5291 101.397 83.0966C101.397 83.9774 101.601 84.6483 102.008 85.1094C102.416 85.5705 103.031 85.801 103.853 85.801C104.16 85.801 104.456 85.7715 104.74 85.7124C105.023 85.6532 105.289 85.5705 105.538 85.4641L105.405 85.8365V83.4867H104.004C103.921 83.4867 103.856 83.4661 103.808 83.4247C103.767 83.3774 103.746 83.3183 103.746 83.2473C103.746 83.1764 103.767 83.1232 103.808 83.0877C103.856 83.0464 103.921 83.0257 104.004 83.0257H105.644C105.727 83.0257 105.789 83.0493 105.83 83.0966C105.872 83.138 105.892 83.1971 105.892 83.2739V85.6592C105.892 85.7301 105.88 85.7892 105.857 85.8365C105.839 85.8838 105.804 85.9193 105.75 85.9429C105.514 86.0434 105.218 86.1291 104.864 86.2C104.515 86.2651 104.175 86.2976 103.844 86.2976Z" fill="black"/>
<path d="M95.5906 86.2976C95.1887 86.2976 94.8399 86.2059 94.5443 86.0227C94.2487 85.8394 94.0182 85.5823 93.8527 85.2513C93.6931 84.9202 93.6133 84.5271 93.6133 84.072C93.6133 83.735 93.6576 83.4306 93.7463 83.1587C93.8409 82.8867 93.9739 82.6532 94.1453 82.4582C94.3226 82.2572 94.5325 82.1064 94.7749 82.006C95.0231 81.8995 95.2951 81.8463 95.5906 81.8463C95.9985 81.8463 96.3502 81.938 96.6458 82.1212C96.9414 82.3045 97.1689 82.5646 97.3286 82.9015C97.4941 83.2326 97.5768 83.6227 97.5768 84.072C97.5768 84.4148 97.5295 84.7222 97.435 84.9941C97.3463 85.266 97.2133 85.4995 97.0359 85.6946C96.8645 85.8897 96.6576 86.0404 96.4153 86.1468C96.1729 86.2473 95.898 86.2976 95.5906 86.2976ZM95.5906 85.8454C95.8862 85.8454 96.1404 85.7774 96.3532 85.6414C96.5719 85.4995 96.7374 85.2956 96.8497 85.0296C96.968 84.7636 97.0271 84.4444 97.0271 84.072C97.0271 83.5104 96.897 83.0759 96.6369 82.7685C96.3827 82.4611 96.034 82.3074 95.5906 82.3074C95.301 82.3074 95.0468 82.3784 94.8281 82.5202C94.6153 82.6562 94.4497 82.8572 94.3315 83.1232C94.2192 83.3833 94.163 83.6995 94.163 84.072C94.163 84.6394 94.2931 85.0769 94.5532 85.3843C94.8133 85.6917 95.1591 85.8454 95.5906 85.8454Z" fill="black"/>
<path d="M91.1753 86.2798C91.0866 86.2798 91.0186 86.2562 90.9713 86.2089C90.924 86.1616 90.9004 86.0936 90.9004 86.0049V82.1478C90.9004 82.0532 90.924 81.9823 90.9713 81.935C91.0186 81.8877 91.0866 81.864 91.1753 81.864C91.258 81.864 91.3201 81.8877 91.3615 81.935C91.4088 81.9823 91.4324 82.0532 91.4324 82.1478V82.937H91.3437C91.4501 82.5882 91.6393 82.3192 91.9112 82.1301C92.1891 81.9409 92.5201 81.8434 92.9043 81.8374C92.9753 81.8315 93.0344 81.8463 93.0817 81.8818C93.129 81.9173 93.1526 81.9734 93.1526 82.0503C93.1585 82.133 93.1408 82.198 93.0994 82.2453C93.058 82.2867 92.99 82.3133 92.8955 82.3251L92.7713 82.334C92.3516 82.3754 92.0265 82.5143 91.796 82.7507C91.5654 82.9872 91.4501 83.3064 91.4501 83.7084V86.0049C91.4501 86.0936 91.4265 86.1616 91.3792 86.2089C91.3378 86.2562 91.2698 86.2798 91.1753 86.2798Z" fill="black"/>
<path d="M88.5861 86.2976C88.1664 86.2976 87.8058 86.2059 87.5044 86.0227C87.2029 85.8335 86.9694 85.5705 86.8039 85.2335C86.6443 84.8907 86.5645 84.4946 86.5645 84.0454C86.5645 83.7025 86.6088 83.3981 86.6975 83.1321C86.792 82.8601 86.925 82.6296 87.0965 82.4404C87.2738 82.2513 87.4866 82.1064 87.7349 82.006C87.9891 81.8995 88.2728 81.8463 88.5861 81.8463C88.8048 81.8463 89.0295 81.8848 89.26 81.9616C89.4906 82.0326 89.7004 82.1537 89.8896 82.3252C89.931 82.3606 89.9576 82.402 89.9694 82.4493C89.9812 82.4966 89.9782 82.5439 89.9605 82.5912C89.9428 82.6326 89.9162 82.668 89.8807 82.6976C89.8452 82.7212 89.8009 82.736 89.7477 82.7419C89.7004 82.7419 89.6502 82.7183 89.597 82.671C89.4314 82.535 89.263 82.4434 89.0915 82.3961C88.926 82.3429 88.7635 82.3163 88.6039 82.3163C88.3615 82.3163 88.1487 82.3547 87.9654 82.4316C87.7822 82.5084 87.6255 82.6207 87.4955 82.7685C87.3714 82.9163 87.2768 83.0995 87.2117 83.3183C87.1467 83.5311 87.1142 83.7764 87.1142 84.0542C87.1142 84.6099 87.2413 85.0473 87.4955 85.3665C87.7556 85.6798 88.125 85.8365 88.6039 85.8365C88.7635 85.8365 88.926 85.8128 89.0915 85.7656C89.263 85.7124 89.4314 85.6178 89.597 85.4818C89.6502 85.4345 89.7004 85.4138 89.7477 85.4197C89.8009 85.4197 89.8452 85.4345 89.8807 85.4641C89.9162 85.4877 89.9398 85.5232 89.9516 85.5705C89.9694 85.6119 89.9723 85.6562 89.9605 85.7035C89.9487 85.7508 89.9221 85.7922 89.8807 85.8276C89.6975 85.9991 89.4906 86.1202 89.26 86.1912C89.0295 86.2621 88.8048 86.2976 88.5861 86.2976Z" fill="black"/>
<path d="M85.1392 86.2621C85.0505 86.2621 84.9825 86.2355 84.9352 86.1823C84.8879 86.1291 84.8643 86.0582 84.8643 85.9695V82.1744C84.8643 82.0798 84.8879 82.0089 84.9352 81.9616C84.9825 81.9143 85.0505 81.8907 85.1392 81.8907C85.2219 81.8907 85.287 81.9143 85.3342 81.9616C85.3815 82.0089 85.4052 82.0798 85.4052 82.1744V85.9695C85.4052 86.0582 85.3815 86.1291 85.3342 86.1823C85.2929 86.2355 85.2278 86.2621 85.1392 86.2621ZM85.1392 80.8178C85.015 80.8178 84.9175 80.7853 84.8466 80.7202C84.7815 80.6552 84.749 80.5636 84.749 80.4454C84.749 80.3271 84.7815 80.2385 84.8466 80.1794C84.9175 80.1143 85.015 80.0818 85.1392 80.0818C85.2633 80.0818 85.3579 80.1143 85.4229 80.1794C85.4939 80.2385 85.5293 80.3271 85.5293 80.4454C85.5293 80.5636 85.4939 80.6552 85.4229 80.7202C85.3579 80.7853 85.2633 80.8178 85.1392 80.8178Z" fill="black"/>
<path d="M77.7121 86.2798C77.6353 86.2798 77.5732 86.2562 77.5259 86.2089C77.4846 86.1616 77.4639 86.0966 77.4639 86.0138V80.1882C77.4639 80.0996 77.4846 80.0345 77.5259 79.9931C77.5732 79.9459 77.6323 79.9222 77.7033 79.9222C77.7801 79.9222 77.8392 79.937 77.8806 79.9665C77.922 79.9961 77.9604 80.0434 77.9959 80.1084L80.5318 84.9232H80.2836L82.8018 80.1084C82.8432 80.0434 82.8816 79.9961 82.9171 79.9665C82.9584 79.937 83.0176 79.9222 83.0944 79.9222C83.1653 79.9222 83.2215 79.9459 83.2629 79.9931C83.3102 80.0345 83.3338 80.0996 83.3338 80.1882V86.0138C83.3338 86.0966 83.3131 86.1616 83.2717 86.2089C83.2304 86.2562 83.1683 86.2798 83.0855 86.2798C83.0028 86.2798 82.9378 86.2562 82.8905 86.2089C82.8491 86.1616 82.8284 86.0966 82.8284 86.0138V80.6316H83.0412L80.6649 85.136C80.6353 85.1951 80.6028 85.2395 80.5673 85.269C80.5318 85.2986 80.4816 85.3133 80.4166 85.3133C80.3456 85.3133 80.2895 85.2986 80.2481 85.269C80.2126 85.2335 80.1801 85.1892 80.1506 85.136L77.7476 80.6227H77.9604V86.0138C77.9604 86.0966 77.9397 86.1616 77.8983 86.2089C77.857 86.2562 77.7949 86.2798 77.7121 86.2798Z" fill="black"/>
<path d="M108.508 106.916C108.457 106.916 108.414 106.905 108.377 106.882C108.34 106.859 108.315 106.829 108.301 106.792C108.287 106.751 108.285 106.705 108.294 106.654C108.308 106.604 108.336 106.549 108.377 106.489L111.356 102.24V102.434H108.48C108.411 102.434 108.359 102.417 108.322 102.385C108.285 102.349 108.267 102.3 108.267 102.24C108.267 102.181 108.285 102.135 108.322 102.103C108.359 102.07 108.411 102.054 108.48 102.054H111.536C111.591 102.054 111.637 102.066 111.673 102.089C111.71 102.112 111.736 102.144 111.749 102.185C111.763 102.222 111.763 102.266 111.749 102.316C111.736 102.367 111.71 102.422 111.673 102.482L108.694 106.723V106.537H111.667C111.736 106.537 111.788 106.553 111.825 106.585C111.862 106.617 111.88 106.663 111.88 106.723C111.88 106.788 111.862 106.836 111.825 106.868C111.788 106.9 111.736 106.916 111.667 106.916H108.508Z" fill="black"/>
<path d="M104.649 106.958C104.585 106.958 104.534 106.939 104.498 106.903C104.461 106.861 104.442 106.806 104.442 106.737V102.275C104.442 102.201 104.461 102.146 104.498 102.109C104.539 102.073 104.592 102.054 104.656 102.054H106.277C106.792 102.054 107.187 102.178 107.463 102.427C107.739 102.675 107.877 103.029 107.877 103.489C107.877 103.944 107.739 104.298 107.463 104.551C107.187 104.799 106.792 104.923 106.277 104.923H104.863V106.737C104.863 106.806 104.845 106.861 104.808 106.903C104.776 106.939 104.723 106.958 104.649 106.958ZM104.863 104.551H106.242C106.642 104.551 106.944 104.461 107.146 104.282C107.348 104.103 107.449 103.838 107.449 103.489C107.449 103.139 107.348 102.875 107.146 102.696C106.944 102.512 106.642 102.42 106.242 102.42H104.863V104.551Z" fill="black"/>
<path d="M99.2928 106.958C99.233 106.958 99.1847 106.944 99.1479 106.916C99.1158 106.893 99.0974 106.859 99.0928 106.813C99.0928 106.767 99.1043 106.716 99.1273 106.661L101.065 102.206C101.097 102.137 101.136 102.089 101.182 102.061C101.228 102.029 101.274 102.013 101.32 102.013C101.376 102.013 101.424 102.029 101.465 102.061C101.511 102.089 101.548 102.137 101.576 102.206L103.513 106.661C103.541 106.716 103.553 106.767 103.548 106.813C103.548 106.859 103.532 106.893 103.5 106.916C103.472 106.944 103.428 106.958 103.369 106.958C103.304 106.958 103.251 106.942 103.21 106.909C103.173 106.873 103.141 106.824 103.113 106.765L102.582 105.516L102.81 105.62H99.8238L100.058 105.516L99.5273 106.765C99.4997 106.834 99.4652 106.884 99.4238 106.916C99.387 106.944 99.3434 106.958 99.2928 106.958ZM101.313 102.578L100.141 105.337L99.9824 105.254H102.651L102.507 105.337L101.327 102.578H101.313Z" fill="black"/>
<path d="M95.8669 107.171C95.8531 107.217 95.8301 107.252 95.7979 107.275C95.7657 107.298 95.729 107.309 95.6876 107.309C95.6508 107.309 95.6163 107.298 95.5841 107.275C95.5519 107.257 95.5313 107.229 95.5221 107.192C95.5083 107.155 95.5083 107.114 95.5221 107.068L97.1841 101.916C97.1979 101.866 97.2209 101.829 97.2531 101.806C97.2853 101.783 97.3198 101.774 97.3565 101.778C97.3979 101.778 97.4347 101.788 97.4669 101.806C97.4991 101.824 97.5198 101.852 97.529 101.889C97.5428 101.925 97.5428 101.967 97.529 102.013L95.8669 107.171Z" fill="black"/>
<path d="M90.0284 106.916C89.9549 106.916 89.8974 106.896 89.856 106.854C89.8146 106.813 89.7939 106.753 89.7939 106.675V102.296C89.7939 102.217 89.8146 102.158 89.856 102.116C89.8974 102.075 89.9549 102.054 90.0284 102.054H91.3595C92.1319 102.054 92.7273 102.261 93.1457 102.675C93.5687 103.089 93.7801 103.691 93.7801 104.482C93.7801 104.877 93.725 105.227 93.6146 105.53C93.5089 105.834 93.3526 106.089 93.1457 106.296C92.9388 106.498 92.6859 106.652 92.387 106.758C92.0882 106.863 91.7457 106.916 91.3595 106.916H90.0284ZM90.2146 106.544H91.325C91.6606 106.544 91.9526 106.5 92.2008 106.413C92.4537 106.326 92.6629 106.197 92.8284 106.027C92.9939 105.857 93.1181 105.643 93.2008 105.385C93.2836 105.123 93.325 104.822 93.325 104.482C93.325 103.797 93.1572 103.284 92.8215 102.944C92.4905 102.599 91.9916 102.427 91.325 102.427H90.2146V106.544Z" fill="black"/>
<path d="M87.1219 106.971C86.9012 106.971 86.6874 106.953 86.4805 106.916C86.2736 106.88 86.0805 106.824 85.9012 106.751C85.7265 106.673 85.5679 106.578 85.4254 106.468C85.3794 106.436 85.3472 106.399 85.3288 106.358C85.315 106.312 85.3127 106.27 85.3219 106.234C85.3357 106.192 85.3564 106.158 85.384 106.13C85.4162 106.103 85.453 106.089 85.4943 106.089C85.5357 106.084 85.5794 106.098 85.6254 106.13C85.8369 106.286 86.0599 106.401 86.2943 106.475C86.5334 106.548 86.8093 106.585 87.1219 106.585C87.5587 106.585 87.8851 106.5 88.1012 106.33C88.3219 106.16 88.4323 105.937 88.4323 105.661C88.4323 105.431 88.3518 105.252 88.1909 105.123C88.0346 104.994 87.7748 104.893 87.4116 104.82L86.715 104.675C86.2782 104.588 85.9541 104.44 85.7426 104.234C85.5311 104.027 85.4254 103.751 85.4254 103.406C85.4254 103.194 85.4668 103.004 85.5495 102.834C85.6323 102.659 85.7495 102.509 85.9012 102.385C86.053 102.261 86.2323 102.167 86.4392 102.103C86.6507 102.034 86.8828 101.999 87.1357 101.999C87.4346 101.999 87.7081 102.04 87.9564 102.123C88.2093 102.206 88.4392 102.337 88.6461 102.516C88.6874 102.548 88.715 102.588 88.7288 102.634C88.7426 102.675 88.7426 102.716 88.7288 102.758C88.715 102.794 88.6943 102.824 88.6667 102.847C88.6392 102.87 88.6047 102.884 88.5633 102.889C88.5219 102.889 88.4782 102.87 88.4323 102.834C88.2392 102.677 88.0369 102.565 87.8254 102.496C87.6185 102.422 87.3886 102.385 87.1357 102.385C86.8782 102.385 86.653 102.427 86.4599 102.509C86.2713 102.592 86.1242 102.709 86.0185 102.861C85.9127 103.013 85.8599 103.192 85.8599 103.399C85.8599 103.638 85.9334 103.829 86.0805 103.971C86.2277 104.114 86.4645 104.217 86.7909 104.282L87.4943 104.427C87.9587 104.523 88.3035 104.668 88.5288 104.861C88.7541 105.05 88.8668 105.309 88.8668 105.64C88.8668 105.838 88.8254 106.02 88.7426 106.185C88.6645 106.346 88.5495 106.486 88.3978 106.606C88.2461 106.725 88.0622 106.817 87.8461 106.882C87.6346 106.942 87.3932 106.971 87.1219 106.971Z" fill="black"/>
<path d="M82.4766 106.971C82.1686 106.971 81.895 106.93 81.6559 106.847C81.4169 106.765 81.2169 106.64 81.0559 106.475C80.8996 106.309 80.7801 106.105 80.6973 105.861C80.6192 105.617 80.5801 105.337 80.5801 105.02V102.227C80.5801 102.153 80.5985 102.1 80.6353 102.068C80.672 102.031 80.7226 102.013 80.787 102.013C80.8559 102.013 80.9088 102.031 80.9456 102.068C80.9824 102.1 81.0008 102.153 81.0008 102.227V104.985C81.0008 105.523 81.1249 105.925 81.3732 106.192C81.6261 106.454 81.9939 106.585 82.4766 106.585C82.964 106.585 83.3318 106.454 83.5801 106.192C83.8284 105.925 83.9525 105.523 83.9525 104.985V102.227C83.9525 102.153 83.9709 102.1 84.0077 102.068C84.0444 102.031 84.0973 102.013 84.1663 102.013C84.2307 102.013 84.2812 102.031 84.318 102.068C84.3548 102.1 84.3732 102.153 84.3732 102.227V105.02C84.3732 105.443 84.3019 105.801 84.1594 106.096C84.0169 106.385 83.8031 106.604 83.518 106.751C83.2375 106.898 82.8904 106.971 82.4766 106.971Z" fill="black"/>
<path d="M77.8725 106.971C77.5967 106.971 77.3254 106.93 77.0587 106.847C76.7921 106.765 76.5599 106.64 76.3622 106.475C76.3162 106.443 76.2863 106.406 76.2725 106.365C76.2633 106.323 76.2633 106.284 76.2725 106.247C76.2817 106.211 76.3001 106.178 76.3277 106.151C76.3553 106.123 76.3898 106.109 76.4311 106.109C76.4725 106.105 76.5185 106.121 76.5691 106.158C76.776 106.305 76.9852 106.413 77.1967 106.482C77.4128 106.551 77.638 106.585 77.8725 106.585C78.1208 106.585 78.33 106.548 78.5001 106.475C78.6702 106.397 78.799 106.284 78.8863 106.137C78.9783 105.99 79.0242 105.808 79.0242 105.592C79.0242 105.28 78.9208 105.043 78.7139 104.882C78.5116 104.716 78.2173 104.634 77.8311 104.634H77.3139C77.2495 104.634 77.199 104.617 77.1622 104.585C77.1254 104.548 77.107 104.503 77.107 104.447C77.107 104.388 77.1254 104.342 77.1622 104.309C77.199 104.277 77.2495 104.261 77.3139 104.261H77.7967C78.0219 104.261 78.2151 104.22 78.376 104.137C78.5369 104.054 78.661 103.939 78.7484 103.792C78.8403 103.64 78.8863 103.459 78.8863 103.247C78.8863 102.971 78.7967 102.76 78.6173 102.613C78.4426 102.461 78.1875 102.385 77.8518 102.385C77.6265 102.385 77.415 102.422 77.2173 102.496C77.0196 102.565 76.8311 102.677 76.6518 102.834C76.6105 102.87 76.5691 102.891 76.5277 102.896C76.4863 102.896 76.4495 102.884 76.4173 102.861C76.3898 102.838 76.3691 102.808 76.3553 102.771C76.3415 102.73 76.3415 102.689 76.3553 102.647C76.3691 102.601 76.399 102.56 76.4449 102.523C76.6242 102.353 76.838 102.224 77.0863 102.137C77.3392 102.045 77.599 101.999 77.8656 101.999C78.1691 101.999 78.4288 102.047 78.6449 102.144C78.861 102.24 79.0265 102.381 79.1415 102.565C79.261 102.748 79.3208 102.969 79.3208 103.227C79.3208 103.429 79.2817 103.613 79.2036 103.778C79.13 103.944 79.0242 104.084 78.8863 104.199C78.7484 104.314 78.5829 104.397 78.3898 104.447V104.371C78.7254 104.431 78.9852 104.571 79.1691 104.792C79.3576 105.008 79.4518 105.282 79.4518 105.613C79.4518 105.889 79.3875 106.13 79.2587 106.337C79.1346 106.539 78.9553 106.696 78.7208 106.806C78.4863 106.916 78.2036 106.971 77.8725 106.971Z" fill="black"/>
<path d="M75.136 107.537C75.0946 107.588 75.0532 107.615 75.0118 107.62C74.9704 107.629 74.9337 107.622 74.9015 107.599C74.8739 107.576 74.8578 107.544 74.8532 107.502C74.8532 107.461 74.8739 107.413 74.9153 107.358C74.975 107.275 75.0187 107.188 75.0463 107.096C75.0739 107.004 75.0877 106.919 75.0877 106.84L75.1153 106.937C75.0141 106.937 74.9314 106.907 74.867 106.847C74.8072 106.788 74.7773 106.712 74.7773 106.62C74.7773 106.528 74.8049 106.452 74.8601 106.392C74.9153 106.332 74.9911 106.302 75.0877 106.302C75.1842 106.302 75.2601 106.337 75.3153 106.406C75.375 106.47 75.4049 106.569 75.4049 106.702C75.4049 106.785 75.3957 106.875 75.3773 106.971C75.3635 107.073 75.336 107.171 75.2946 107.268C75.2532 107.365 75.2003 107.454 75.136 107.537Z" fill="black"/>
<path d="M71.2625 106.916C71.2027 106.916 71.1545 106.9 71.1177 106.868C71.0809 106.831 71.0625 106.783 71.0625 106.723C71.0625 106.663 71.0809 106.62 71.1177 106.592C71.1545 106.56 71.2027 106.544 71.2625 106.544H72.2211V102.392H72.4625L71.4625 103.075C71.4165 103.107 71.3728 103.123 71.3315 103.123C71.2901 103.119 71.2556 103.102 71.228 103.075C71.2004 103.047 71.1797 103.015 71.1659 102.978C71.1568 102.942 71.1591 102.902 71.1728 102.861C71.1866 102.82 71.2165 102.785 71.2625 102.758L72.2142 102.096C72.2602 102.068 72.3016 102.047 72.3384 102.034C72.3751 102.02 72.4165 102.013 72.4625 102.013C72.5131 102.013 72.5545 102.029 72.5866 102.061C72.6234 102.089 72.6418 102.137 72.6418 102.206V106.544H73.5315C73.5958 106.544 73.6441 106.56 73.6763 106.592C73.7131 106.62 73.7315 106.663 73.7315 106.723C73.7315 106.788 73.7131 106.836 73.6763 106.868C73.6441 106.9 73.5958 106.916 73.5315 106.916H71.2625Z" fill="black"/>
<path d="M67.2102 106.958C67.1642 106.958 67.1228 106.946 67.086 106.923C67.0538 106.9 67.0309 106.868 67.0171 106.827C67.0079 106.781 67.0171 106.73 67.0446 106.675L69.3205 102.213V102.434H66.7274C66.663 102.434 66.6125 102.417 66.5757 102.385C66.5389 102.349 66.5205 102.3 66.5205 102.24C66.5205 102.181 66.5389 102.135 66.5757 102.103C66.6125 102.07 66.663 102.054 66.7274 102.054H69.4929C69.5619 102.054 69.6148 102.07 69.6515 102.103C69.6883 102.135 69.7067 102.181 69.7067 102.24C69.7067 102.286 69.7021 102.328 69.6929 102.365C69.6837 102.401 69.6653 102.443 69.6377 102.489L67.4446 106.813C67.4217 106.863 67.3918 106.9 67.355 106.923C67.3182 106.946 67.2699 106.958 67.2102 106.958Z" fill="black"/>
<path d="M64.8338 106.958C64.7649 106.958 64.712 106.939 64.6752 106.902C64.6384 106.866 64.62 106.813 64.62 106.744V105.82H62.5166C62.4476 105.82 62.3925 105.804 62.3511 105.771C62.3143 105.735 62.2959 105.684 62.2959 105.62C62.2959 105.583 62.3028 105.546 62.3166 105.509C62.335 105.468 62.3626 105.42 62.3993 105.365L64.5993 102.151C64.6315 102.105 64.666 102.07 64.7028 102.047C64.7442 102.024 64.7902 102.013 64.8407 102.013C64.9005 102.013 64.9488 102.031 64.9856 102.068C65.0269 102.1 65.0476 102.153 65.0476 102.227V105.447H65.6269C65.6959 105.447 65.7465 105.463 65.7787 105.496C65.8154 105.528 65.8338 105.574 65.8338 105.634C65.8338 105.693 65.8154 105.739 65.7787 105.771C65.7465 105.804 65.6959 105.82 65.6269 105.82H65.0476V106.744C65.0476 106.813 65.0292 106.866 64.9924 106.902C64.9557 106.939 64.9028 106.958 64.8338 106.958ZM64.62 105.447V102.537H64.7718L62.6959 105.565V105.447H64.62Z" fill="black"/>
<path d="M57.8021 106.916C57.7193 106.916 57.6573 106.898 57.6159 106.861C57.5791 106.82 57.5607 106.767 57.5607 106.703C57.5607 106.666 57.5699 106.629 57.5883 106.592C57.6067 106.555 57.632 106.521 57.6642 106.489L59.278 104.744C59.5262 104.477 59.7055 104.231 59.8159 104.006C59.9262 103.776 59.9814 103.542 59.9814 103.303C59.9814 103.004 59.8918 102.776 59.7124 102.62C59.5331 102.463 59.2711 102.385 58.9262 102.385C58.6964 102.385 58.4826 102.424 58.2849 102.503C58.0918 102.576 57.9055 102.686 57.7262 102.834C57.6803 102.87 57.6366 102.889 57.5952 102.889C57.5584 102.889 57.5262 102.877 57.4987 102.854C57.4711 102.827 57.4504 102.794 57.4366 102.758C57.4274 102.716 57.4274 102.675 57.4366 102.634C57.4504 102.592 57.4757 102.555 57.5124 102.523C57.6918 102.367 57.9078 102.24 58.1607 102.144C58.4136 102.047 58.6757 101.999 58.9469 101.999C59.2596 101.999 59.5239 102.05 59.74 102.151C59.9607 102.247 60.1285 102.392 60.2435 102.585C60.3584 102.778 60.4159 103.011 60.4159 103.282C60.4159 103.475 60.3837 103.666 60.3193 103.854C60.255 104.043 60.1584 104.234 60.0297 104.427C59.9055 104.62 59.7446 104.822 59.5469 105.034L57.9952 106.675V106.544H60.4573C60.5216 106.544 60.5699 106.56 60.6021 106.592C60.6389 106.62 60.6573 106.663 60.6573 106.723C60.6573 106.788 60.6389 106.836 60.6021 106.868C60.5699 106.9 60.5216 106.916 60.4573 106.916H57.8021Z" fill="black"/>
<path d="M76.9551 116.803C76.9275 116.854 76.8953 116.886 76.8586 116.899C76.8218 116.918 76.785 116.922 76.7482 116.913C76.7114 116.904 76.6792 116.886 76.6517 116.858C76.6287 116.831 76.6149 116.796 76.6103 116.755C76.6057 116.713 76.6172 116.67 76.6448 116.624L79.3551 111.886C79.3827 111.835 79.4149 111.803 79.4517 111.789C79.4884 111.771 79.5252 111.766 79.562 111.775C79.5988 111.785 79.6287 111.805 79.6517 111.837C79.6792 111.865 79.6953 111.899 79.6999 111.941C79.7045 111.982 79.693 112.026 79.6654 112.072L76.9551 116.803ZM76.5413 114.824C76.1873 114.824 75.9068 114.695 75.6999 114.437C75.4976 114.175 75.3965 113.808 75.3965 113.334C75.3965 113.021 75.4425 112.755 75.5344 112.534C75.6264 112.313 75.7574 112.145 75.9275 112.031C76.1022 111.911 76.3068 111.851 76.5413 111.851C76.8953 111.851 77.1758 111.982 77.3827 112.244C77.5896 112.502 77.693 112.865 77.693 113.334C77.693 113.651 77.6471 113.92 77.5551 114.141C77.4632 114.362 77.3321 114.532 77.162 114.651C76.9919 114.766 76.785 114.824 76.5413 114.824ZM76.5413 114.499C76.7022 114.499 76.8402 114.456 76.9551 114.368C77.07 114.276 77.1574 114.145 77.2172 113.975C77.2769 113.801 77.3068 113.587 77.3068 113.334C77.3068 112.957 77.2379 112.672 77.0999 112.479C76.9666 112.281 76.7804 112.182 76.5413 112.182C76.385 112.182 76.2494 112.226 76.1344 112.313C76.0195 112.401 75.9321 112.529 75.8723 112.699C75.8126 112.87 75.7827 113.081 75.7827 113.334C75.7827 113.72 75.8494 114.012 75.9827 114.21C76.1206 114.403 76.3068 114.499 76.5413 114.499ZM79.7689 116.824C79.4149 116.824 79.1344 116.695 78.9275 116.437C78.7252 116.18 78.6241 115.812 78.6241 115.334C78.6241 115.021 78.67 114.755 78.762 114.534C78.854 114.313 78.985 114.145 79.1551 114.031C79.3298 113.911 79.5344 113.851 79.7689 113.851C80.1275 113.851 80.408 113.982 80.6103 114.244C80.8172 114.502 80.9206 114.865 80.9206 115.334C80.9206 115.651 80.8746 115.922 80.7827 116.148C80.6907 116.368 80.5597 116.536 80.3896 116.651C80.2195 116.766 80.0126 116.824 79.7689 116.824ZM79.7689 116.499C79.9298 116.499 80.0677 116.456 80.1827 116.368C80.2976 116.281 80.385 116.15 80.4448 115.975C80.5045 115.801 80.5344 115.587 80.5344 115.334C80.5344 114.957 80.4654 114.672 80.3275 114.479C80.1942 114.281 80.008 114.182 79.7689 114.182C79.6126 114.182 79.4769 114.226 79.362 114.313C79.2471 114.401 79.1597 114.529 79.0999 114.699C79.0402 114.87 79.0103 115.081 79.0103 115.334C79.0103 115.72 79.0769 116.012 79.2103 116.21C79.3482 116.403 79.5344 116.499 79.7689 116.499Z" fill="#A6A6A6"/>
<path d="M73.076 116.824C72.699 116.824 72.3795 116.732 72.1174 116.548C71.8553 116.364 71.6553 116.097 71.5174 115.748C71.384 115.394 71.3174 114.968 71.3174 114.472C71.3174 114.049 71.3588 113.674 71.4415 113.348C71.5289 113.021 71.6553 112.748 71.8208 112.527C71.9863 112.306 72.1863 112.139 72.4208 112.024C72.6599 111.909 72.9289 111.851 73.2277 111.851C73.4438 111.851 73.6668 111.897 73.8967 111.989C74.1266 112.076 74.3243 112.205 74.4898 112.375C74.5266 112.408 74.5496 112.444 74.5588 112.486C74.568 112.527 74.5657 112.566 74.5519 112.603C74.5381 112.64 74.5174 112.672 74.4898 112.699C74.4622 112.722 74.4277 112.734 74.3863 112.734C74.345 112.729 74.3036 112.709 74.2622 112.672C74.1059 112.52 73.9381 112.41 73.7588 112.341C73.5795 112.272 73.4001 112.237 73.2208 112.237C72.9036 112.237 72.6346 112.318 72.4139 112.479C72.1932 112.635 72.0254 112.874 71.9105 113.196C71.7955 113.513 71.7381 113.911 71.7381 114.389V115.086H71.6898C71.7128 114.81 71.7886 114.573 71.9174 114.375C72.0461 114.173 72.2139 114.019 72.4208 113.913C72.6277 113.803 72.8576 113.748 73.1105 113.748C73.4001 113.748 73.6553 113.812 73.876 113.941C74.1013 114.07 74.276 114.249 74.4001 114.479C74.5289 114.709 74.5932 114.973 74.5932 115.272C74.5932 115.571 74.5289 115.84 74.4001 116.079C74.2714 116.313 74.0921 116.497 73.8622 116.631C73.6323 116.759 73.3703 116.824 73.076 116.824ZM73.0415 116.444C73.2622 116.444 73.4576 116.396 73.6277 116.299C73.7978 116.203 73.9289 116.067 74.0208 115.893C74.1174 115.718 74.1657 115.516 74.1657 115.286C74.1657 115.056 74.1174 114.856 74.0208 114.686C73.9289 114.511 73.7978 114.375 73.6277 114.279C73.4576 114.178 73.2622 114.127 73.0415 114.127C72.8208 114.127 72.6254 114.178 72.4553 114.279C72.2852 114.375 72.1519 114.511 72.0553 114.686C71.9634 114.856 71.9174 115.056 71.9174 115.286C71.9174 115.516 71.9634 115.718 72.0553 115.893C72.1519 116.067 72.2852 116.203 72.4553 116.299C72.6254 116.396 72.8208 116.444 73.0415 116.444Z" fill="#A6A6A6"/>
<path d="M69.6092 116.81C69.5403 116.81 69.4874 116.791 69.4506 116.755C69.4138 116.718 69.3954 116.665 69.3954 116.596V115.672H67.292C67.223 115.672 67.1678 115.656 67.1265 115.624C67.0897 115.587 67.0713 115.536 67.0713 115.472C67.0713 115.435 67.0782 115.398 67.092 115.362C67.1104 115.32 67.138 115.272 67.1747 115.217L69.3747 112.003C69.4069 111.957 69.4414 111.922 69.4782 111.899C69.5196 111.876 69.5655 111.865 69.6161 111.865C69.6759 111.865 69.7242 111.883 69.7609 111.92C69.8023 111.952 69.823 112.005 69.823 112.079V115.299H70.4023C70.4713 115.299 70.5219 115.316 70.554 115.348C70.5908 115.38 70.6092 115.426 70.6092 115.486C70.6092 115.545 70.5908 115.591 70.554 115.624C70.5219 115.656 70.4713 115.672 70.4023 115.672H69.823V116.596C69.823 116.665 69.8046 116.718 69.7678 116.755C69.7311 116.791 69.6782 116.81 69.6092 116.81ZM69.3954 115.299V112.389H69.5472L67.4713 115.417V115.299H69.3954Z" fill="#A6A6A6"/>
<path d="M65.9973 117.389C65.9559 117.44 65.9145 117.467 65.8732 117.472C65.8318 117.481 65.795 117.474 65.7628 117.451C65.7352 117.428 65.7191 117.396 65.7145 117.355C65.7145 117.313 65.7352 117.265 65.7766 117.21C65.8364 117.127 65.8801 117.04 65.9076 116.948C65.9352 116.856 65.949 116.771 65.949 116.693L65.9766 116.789C65.8755 116.789 65.7927 116.759 65.7283 116.699C65.6686 116.64 65.6387 116.564 65.6387 116.472C65.6387 116.38 65.6663 116.304 65.7214 116.244C65.7766 116.185 65.8525 116.155 65.949 116.155C66.0456 116.155 66.1214 116.189 66.1766 116.258C66.2364 116.322 66.2663 116.421 66.2663 116.555C66.2663 116.637 66.2571 116.727 66.2387 116.824C66.2249 116.925 66.1973 117.024 66.1559 117.12C66.1145 117.217 66.0617 117.306 65.9973 117.389Z" fill="#A6A6A6"/>
<path d="M63.1309 116.824C62.5838 116.824 62.1677 116.612 61.8826 116.189C61.6021 115.762 61.4619 115.145 61.4619 114.341C61.4619 113.794 61.524 113.336 61.6481 112.968C61.7769 112.601 61.9654 112.322 62.2136 112.134C62.4619 111.945 62.7677 111.851 63.1309 111.851C63.6826 111.851 64.0987 112.06 64.3792 112.479C64.6596 112.897 64.7998 113.516 64.7998 114.334C64.7998 114.872 64.7355 115.327 64.6067 115.699C64.4826 116.072 64.2964 116.352 64.0481 116.541C63.7998 116.729 63.4941 116.824 63.1309 116.824ZM63.1309 116.444C63.5493 116.444 63.8596 116.272 64.0619 115.927C64.2642 115.582 64.3654 115.051 64.3654 114.334C64.3654 113.608 64.2642 113.076 64.0619 112.741C63.8642 112.401 63.5539 112.231 63.1309 112.231C62.7125 112.231 62.4021 112.401 62.1998 112.741C61.9975 113.081 61.8964 113.612 61.8964 114.334C61.8964 115.051 61.9975 115.582 62.1998 115.927C62.4021 116.272 62.7125 116.444 63.1309 116.444Z" fill="#A6A6A6"/>
<path d="M58.9956 116.534C58.9359 116.534 58.8899 116.518 58.8577 116.486C58.8301 116.453 58.8163 116.41 58.8163 116.355V114.962H57.4508C57.3956 114.962 57.3519 114.948 57.3198 114.92C57.2876 114.888 57.2715 114.844 57.2715 114.789C57.2715 114.734 57.2876 114.693 57.3198 114.665C57.3519 114.633 57.3956 114.617 57.4508 114.617H58.8163V113.265C58.8163 113.21 58.8301 113.166 58.8577 113.134C58.8899 113.102 58.9359 113.086 58.9956 113.086C59.0554 113.086 59.0991 113.102 59.1267 113.134C59.1588 113.166 59.1749 113.21 59.1749 113.265V114.617H60.5405C60.6002 114.617 60.6439 114.633 60.6715 114.665C60.7037 114.693 60.7198 114.734 60.7198 114.789C60.7198 114.849 60.7037 114.893 60.6715 114.92C60.6439 114.948 60.6002 114.962 60.5405 114.962H59.1749V116.355C59.1749 116.41 59.1588 116.453 59.1267 116.486C59.0991 116.518 59.0554 116.534 58.9956 116.534Z" fill="#A6A6A6"/>
<path fill-rule="evenodd" clip-rule="evenodd" d="M120.965 95.5862H56.9258V95.0936H120.965V95.5862Z" fill="black"/>
<g clip-path="url(#clip1_2002_403)">
<path d="M56.9258 75.8818H71.7041V90.6601H56.9258V75.8818Z" fill="#F9C747"/>
<path d="M62.5328 81.5701H66.1704L65.6399 80.1469C65.6193 80.0885 65.5816 80.0377 65.5317 80.001L62.5328 81.5701ZM62.5227 79.8809C62.6515 79.5347 62.935 79.3125 63.2474 79.3125H65.3984C65.7109 79.3125 65.9943 79.5347 66.1234 79.8809L66.6536 81.3041C66.8127 81.7311 66.5556 82.2154 66.1704 82.2154H62.4758C62.0905 82.2154 61.8337 81.7311 61.9926 81.3041L62.523 79.8809H62.5227ZM59.6265 85.2647H63.2569L62.7265 83.8415C62.7058 83.7831 62.6682 83.7323 62.6183 83.6956L59.6265 85.2647ZM59.6162 83.5755C59.7452 83.2293 60.0289 83.0071 60.3411 83.0071H62.485C62.7975 83.0071 63.0812 83.2293 63.2099 83.5755L63.7401 84.9987C63.8992 85.4257 63.6425 85.9099 63.2569 85.9099H59.5689C59.1836 85.9099 58.9269 85.4257 59.086 84.9987L59.6162 83.5755ZM69.0875 85.2647H65.4325L68.4489 83.6958C68.4961 83.7291 68.5341 83.7792 68.5578 83.8418L69.0878 85.2647H69.0875ZM66.1474 83.0071C65.8349 83.0071 65.5512 83.2293 65.4225 83.5755L64.8923 84.9987C64.7332 85.4257 64.9899 85.9099 65.3755 85.9099H69.0878C69.473 85.9099 69.7298 85.4257 69.5707 84.9987L69.0403 83.5755C68.9123 83.2293 68.6288 83.0071 68.3164 83.0071H66.1474Z" fill="white"/>
</g>
<defs>
<filter id="filter0_d_2002_403" x="0" y="0" width="81.8916" height="108" filterUnits="userSpaceOnUse" color-interpolation-filters="sRGB">
<feFlood flood-opacity="0" result="BackgroundImageFix"/>
<feColorMatrix in="SourceAlpha" type="matrix" values="0 0 0 0 0 0 0 0 0 0 0 0 0 0 0 0 0 0 127 0" result="hardAlpha"/>
<feOffset dx="2" dy="2"/>
<feGaussianBlur stdDeviation="2"/>
<feComposite in2="hardAlpha" operator="out"/>
<feColorMatrix type="matrix" values="0 0 0 0 0 0 0 0 0 0 0 0 0 0 0 0 0 0 0.25 0"/>
<feBlend mode="normal" in2="BackgroundImageFix" result="effect1_dropShadow_2002_403"/>
<feBlend mode="normal" in="SourceGraphic" in2="effect1_dropShadow_2002_403" result="shape"/>
</filter>
<filter id="filter1_d_2002_403" x="50" y="66" width="81.8916" height="108" filterUnits="userSpaceOnUse" color-interpolation-filters="sRGB">
<feFlood flood-opacity="0" result="BackgroundImageFix"/>
<feColorMatrix in="SourceAlpha" type="matrix" values="0 0 0 0 0 0 0 0 0 0 0 0 0 0 0 0 0 0 127 0" result="hardAlpha"/>
<feOffset dx="2" dy="2"/>
<feGaussianBlur stdDeviation="2"/>
<feComposite in2="hardAlpha" operator="out"/>
<feColorMatrix type="matrix" values="0 0 0 0 0 0 0 0 0 0 0 0 0 0 0 0 0 0 0.25 0"/>
<feBlend mode="normal" in2="BackgroundImageFix" result="effect1_dropShadow_2002_403"/>
<feBlend mode="normal" in="SourceGraphic" in2="effect1_dropShadow_2002_403" result="shape"/>
</filter>
<clipPath id="clip0_2002_403">
<rect x="6.92578" y="9.88177" width="14.7783" height="14.7783" rx="7.38916" fill="white"/>
</clipPath>
<clipPath id="clip1_2002_403">
<rect x="56.9258" y="75.8818" width="14.7783" height="14.7783" rx="7.38916" fill="white"/>
</clipPath>
</defs>
</svg>
