<svg width="50" height="50" viewBox="0 0 50 50" fill="none" xmlns="http://www.w3.org/2000/svg">
<g clip-path="url(#clip0_104_1051)">
<path d="M0 0H50V50H0V0Z" fill="#F7931A"/>
<path d="M35.6569 22.0571C36.1168 18.9375 33.7552 17.2741 30.5025 16.1446L31.5561 11.9411L28.9873 11.3018L27.9623 15.4018L25.9123 14.9116L26.9516 10.7821L24.3819 10.1438L23.3275 14.3625L21.6936 13.9759V13.9616L18.1436 13.0696L17.4596 15.8179C17.4596 15.8179 19.3614 16.2643 19.3311 16.2786C20.3712 16.5464 20.5498 17.2295 20.5203 17.7643L19.3311 22.5768L19.5989 22.6661L19.3168 22.6063L17.6382 29.3357C17.5194 29.6482 17.1918 30.1232 16.465 29.9295C16.4944 29.9741 14.6078 29.4839 14.6078 29.4839L13.3311 32.4107L16.673 33.242L18.4998 33.7179L17.4302 37.9813L19.9998 38.6196L21.04 34.4009L23.1043 34.9357L22.0507 39.1393L24.6194 39.7786L25.6739 35.5152C30.0561 36.3464 33.3543 36.0205 34.7364 32.0536C35.8498 28.8607 34.6766 27.033 32.3739 25.8152C34.0525 25.4438 35.315 24.3295 35.6418 22.0563H35.6569V22.0571ZM29.7891 30.2866C29.0016 33.4804 23.6248 31.742 21.8873 31.3259L23.298 25.667C25.0355 26.1125 30.6212 26.9589 29.7891 30.2714V30.2866ZM30.5766 22.0125C29.8632 24.9089 25.3775 23.4384 23.9364 23.0821L25.2132 17.9571C26.6694 18.3143 31.3337 18.9973 30.5766 22.0125Z" fill="white"/>
</g>
<defs>
<clipPath id="clip0_104_1051">
<rect width="50" height="50" rx="25" fill="white"/>
</clipPath>
</defs>
</svg>
