<svg width="50" height="50" viewBox="0 0 50 50" fill="none" xmlns="http://www.w3.org/2000/svg">
<g clip-path="url(#clip0_105_2063)">
<path d="M0 0H50V50H0V0Z" fill="#6B4732"/>
<path d="M15.8005 26.1027C16.1014 19.058 18.413 15.442 20.3719 13.7009C20.9567 13.1813 21.6862 13.7723 21.4808 14.5268C18.7308 24.5821 20.2505 32.9759 21.9389 38.5804C22.2067 39.4679 21.2174 40.0821 20.6406 39.3563C17.3817 35.2527 15.5299 29.975 15.8005 26.1027ZM24.313 13.2232C21.296 21.6652 23.0648 33.2259 24.4871 39.6821C24.6853 40.5804 25.8826 40.5705 26.0755 39.6714C28.3398 29.1357 27.8639 21.7116 27.2103 19.0241C27.1121 18.6205 27.3558 17.4795 28.2996 17.3036C29.2442 17.1277 29.8737 18.1268 29.9273 18.5339C30.9362 26.2482 30.0121 33.5438 28.7112 38.3509C28.4621 39.2723 29.5594 39.9741 30.1353 39.2125C33.3103 35.0161 35.104 29.3911 34.979 25.3C34.7942 19.2857 32.4639 15.5438 30.8576 13.9C29.5719 12.5848 27.5496 12.0134 26.6612 12.0723C26.7844 10.0946 26.429 8.65625 25.6451 7.63661C24.7933 6.52679 23.229 5.67322 22.7487 6.95179C22.446 7.75804 24.0076 8.24018 24.3112 8.94107C24.9353 10.1018 24.5728 12.2804 24.313 13.2232Z" fill="white"/>
</g>
<defs>
<clipPath id="clip0_105_2063">
<rect width="50" height="50" rx="25" fill="white"/>
</clipPath>
</defs>
</svg>
