<svg width="50" height="50" viewBox="0 0 50 50" fill="none" xmlns="http://www.w3.org/2000/svg">
<g clip-path="url(#clip0_105_1747)">
<path d="M0 0H50V50H0V0Z" fill="#13A3D7"/>
<path d="M18.4374 32.1429C21.732 32.1429 23.9195 30.4634 23.9195 27.9973V27.9786C23.9195 26.1054 22.5516 24.9196 20.4606 24.7286V24.6714C22.1124 24.3366 23.4025 23.2188 23.4025 21.4982V21.4795C23.4025 19.3098 21.4472 17.8571 18.4088 17.8571C15.4481 17.8571 13.4641 19.425 13.2686 21.8134L13.2597 21.9286H15.965L15.9758 21.8429C16.0927 20.7714 17.0311 20.075 18.4088 20.075C19.7963 20.075 20.6079 20.7438 20.6079 21.8616V21.8804C20.6079 22.9991 19.6499 23.7643 18.174 23.7643H16.6008V25.8179H18.2141C19.9141 25.8179 20.9213 26.5446 20.9213 27.8634V27.8821C20.9213 29.0107 19.9436 29.8036 18.4293 29.8036C16.9052 29.8036 15.9079 29.0679 15.7811 28.083L15.7615 27.9786H12.9463L12.9552 28.1027C13.1516 30.4821 15.2436 32.1429 18.4374 32.1429ZM31.3079 32.1429C34.8838 32.1429 37.0534 29.383 37.0534 24.9964V24.9777C37.0534 20.5893 34.8838 17.8571 31.3079 17.8571C27.7311 17.8571 25.5615 20.5902 25.5615 24.9768V24.9964C25.5615 29.383 27.7311 32.1429 31.3079 32.1429ZM31.3079 29.8125C29.549 29.8125 28.5418 28.0259 28.5418 24.9964V24.9777C28.5418 21.9473 29.549 20.1696 31.3079 20.1696C33.0668 20.1696 34.0731 21.9473 34.0731 24.9768V24.9964C34.0731 28.0259 33.0668 29.8125 31.3079 29.8125Z" fill="white"/>
</g>
<defs>
<clipPath id="clip0_105_1747">
<rect width="50" height="50" rx="25" fill="white"/>
</clipPath>
</defs>
</svg>
