<svg width="50" height="50" viewBox="0 0 50 50" fill="none" xmlns="http://www.w3.org/2000/svg">
<g clip-path="url(#clip0_104_1054)">
<path d="M0 0H50V50H0V0Z" fill="#F0F3FA"/>
<path d="M25 7.14286V20.3393L36.1607 25.3304L25 7.14286Z" fill="#8FFCF3"/>
<path d="M25.0001 7.14286L13.8394 25.3304L25.0001 20.3393V7.14286Z" fill="#CABCF8"/>
<path d="M25 33.8839V42.8571L36.1607 27.4107L25 33.8839Z" fill="#CBA7F5"/>
<path d="M25.0001 42.8571V33.8839L13.8394 27.4107L25.0001 42.8571Z" fill="#74A0F3"/>
<path d="M25 31.8036L36.1607 25.3304L25 20.3393V31.8036Z" fill="#CBA7F5"/>
<path d="M13.8394 25.3304L25.0001 31.8036V20.3393L13.8394 25.3304Z" fill="#74A0F3"/>
<path fill-rule="evenodd" clip-rule="evenodd" d="M25.0001 31.8036L13.8394 25.3304L25.0001 7.14286L36.1608 25.3304L25.0001 31.8036ZM14.5804 24.8036L24.8215 8.11607V20.25L14.5804 24.8036ZM14.4286 25.2589L24.8215 20.6429V31.2857L14.4286 25.2589ZM25.1786 20.6429V31.2857L35.5626 25.2589L25.1786 20.6429ZM25.1786 20.25L35.4197 24.8036L25.1786 8.11607V20.25Z" fill="#202699"/>
<path fill-rule="evenodd" clip-rule="evenodd" d="M25.0001 33.7411L13.8394 27.4018L25.0001 42.8571L36.1608 27.4018L25.0001 33.7411ZM15.0894 28.5179L24.8215 34.0536V42L15.0894 28.5179ZM25.1786 34.0536V42L34.9108 28.5179L25.1786 34.0536Z" fill="#202699"/>
</g>
<defs>
<clipPath id="clip0_104_1054">
<rect width="50" height="50" rx="25" fill="white"/>
</clipPath>
</defs>
</svg>
