<svg width="50" height="50" viewBox="0 0 50 50" fill="none" xmlns="http://www.w3.org/2000/svg">
<circle cx="32.1428" cy="17.8571" r="17.8571" fill="#83E09E"/>
<g clip-path="url(#clip0_43_16949)">
<path d="M17.8572 3.57141H46.4286V32.1428H17.8572V3.57141Z" fill="#0D47A1"/>
<path d="M32.1429 9.92062V3.57141H17.8572V17.8571H24.2064V13.0952L28.9683 17.8571H32.1429V14.6825L27.381 9.92062H32.1429Z" fill="#F8F9FD"/>
<path d="M22.6191 5.15871V3.57141H19.4445V5.15871H17.8572V8.33332H19.4445V17.8571H22.6191V8.33332H32.1429V5.15871H22.6191Z" fill="#EF5350"/>
<path d="M32.1429 16.2699L25.7937 9.92065H24.2064L32.1429 17.8572V16.2699Z" fill="#EF5350"/>
<path d="M28.9683 24.2063L27.381 25V25.7936H26.5873L25.7937 27.3809L25 25.7936H24.2064V25L22.6191 24.2063L24.2064 23.4127V22.619H25L25.7937 21.0317L26.5873 22.619H27.381V23.4127L28.9683 24.2063Z" fill="#F8F9FD"/>
<path d="M38.5873 23.6032L38.9842 24.4286L39.8731 24.2222L39.4762 25.0318L40.1905 25.6032L39.3016 25.7937V26.7143L38.5873 26.1429L37.8889 26.7143V25.7937L37 25.6032L37.7143 25.0318L37.3175 24.2222L38.2064 24.4286L38.5873 23.6032ZM34.9524 14.9048L35.3334 15.7302L36.2223 15.5238L35.8254 16.3333L36.5397 16.9048L35.6508 17.1111V18.0159L34.9524 17.4445L34.2381 18.0159V17.1111L33.3492 16.9048L34.0635 16.3333L33.6667 15.5238L34.5556 15.7302L34.9524 14.9048ZM38.5873 9.93652L38.9842 10.7619L39.8731 10.5556L39.4762 11.3651L40.1905 11.9365L39.3016 12.127V13.0476L38.5873 12.4762L37.8889 13.0476V12.127L37 11.9365L37.7143 11.3651L37.3175 10.5556L38.2064 10.7619L38.5873 9.93652ZM41.7778 13.6667L42.1746 14.4921L43.0635 14.2857L42.6667 15.0953L43.3651 15.6667L42.4921 15.8572V16.7778L41.7778 16.2064L41.0635 16.7778V15.8572L40.1905 15.6667L40.9048 15.0953L40.508 14.2857L41.381 14.4921L41.7778 13.6667ZM39.508 18.0159L39.8254 18.9683H40.8096L40.0159 19.5556L40.3175 20.508L39.508 19.9048L38.6984 20.4921L39.0159 19.5397L38.1905 18.9683H39.1905L39.508 18.0159Z" fill="#F8F9FD"/>
</g>
<circle cx="17.8571" cy="32.1429" r="17.8571" fill="#83E09E"/>
<g clip-path="url(#clip1_43_16949)">
<path d="M3.57141 17.8572H32.1428V46.4286H3.57141V17.8572Z" fill="#1565C0"/>
<path d="M17.7778 21.0317L18.3651 22.8413H20.2698L18.7302 23.9524L19.3175 25.7619L17.7778 24.6508L16.254 25.7619L16.8254 23.9682L15.3016 22.8571H17.2064L17.7619 21.0317H17.7778ZM9.98413 24.2698L11.6825 25.127L13.0159 23.7936L12.7302 25.6667L14.4127 26.5238L12.5397 26.8254L12.2381 28.6984L11.381 27.0159L9.50794 27.3016L10.8413 25.9682L9.98413 24.2698ZM6.74603 32.0635L8.55556 31.4762V29.5714L9.66667 31.1111L11.4921 30.5555L10.381 32.0794L11.4921 33.619L9.69841 33.0317L8.5873 34.5714V32.6667L6.74603 32.0635ZM9.98413 39.8571L10.8413 38.1746L9.50794 36.8254L11.381 37.127L12.2381 35.4286L12.5397 37.3175L14.4127 37.6032L12.7302 38.4762L13.0159 40.3492L11.6825 39L9.98413 39.8571ZM17.7778 43.0952L17.1905 41.2857H15.2857L16.8254 40.1746L16.2698 38.3651L17.7937 39.4762L19.3333 38.3651L18.746 40.1746L20.2857 41.2857H18.381L17.7937 43.0952H17.7778ZM25.5714 39.8571L23.8889 39L22.5397 40.3492L22.8413 38.4762L21.1429 37.6032L23.0317 37.3175L23.3175 35.4286L24.1905 37.127L26.0635 36.8254L24.7143 38.1746L25.5714 39.8571ZM28.8095 32.0635L27 32.6508V34.5555L25.8889 33.0159L24.0794 33.6032L25.1905 32.0635L24.0794 30.5397L25.8889 31.1111L27 29.5873V31.4921L28.8095 32.0635ZM25.5714 24.2698L24.7143 25.9682L26.0635 27.3016L24.1905 27.0159L23.3175 28.6984L23.0317 26.8254L21.1429 26.5238L22.8413 25.6667L22.5397 23.7936L23.8889 25.127L25.5714 24.2698Z" fill="#FDD835"/>
</g>
<defs>
<clipPath id="clip0_43_16949">
<rect x="17.8572" y="3.57141" width="28.5714" height="28.5714" rx="14.2857" fill="white"/>
</clipPath>
<clipPath id="clip1_43_16949">
<rect x="3.57141" y="17.8572" width="28.5714" height="28.5714" rx="14.2857" fill="white"/>
</clipPath>
</defs>
</svg>
