<svg width="50" height="50" viewBox="0 0 50 50" fill="none" xmlns="http://www.w3.org/2000/svg">
<g clip-path="url(#clip0_105_1418)">
<path d="M0 0H50V50H0V0Z" fill="#D69A00"/>
<path d="M18.9712 19.2455H31.2783L29.4837 14.4304C29.4139 14.2328 29.2864 14.0608 29.1176 13.9366L18.9712 19.2455ZM18.9372 13.5304C19.3729 12.3589 20.3319 11.6071 21.389 11.6071H28.6667C29.7238 11.6071 30.6828 12.3589 31.1194 13.5304L32.9131 18.3455C33.4515 19.7902 32.5819 21.4286 31.2783 21.4286H18.7783C17.4747 21.4286 16.606 19.7902 17.1435 18.3455L18.9381 13.5304H18.9372ZM9.13812 31.7455H21.4212L19.6265 26.9304C19.5567 26.7328 19.4292 26.5608 19.2604 26.4366L9.13812 31.7455ZM9.1033 26.0304C9.5399 24.8589 10.4997 24.1071 11.556 24.1071H18.8095C19.8667 24.1071 20.8265 24.8589 21.2622 26.0304L23.056 30.8455C23.5944 32.2902 22.7256 33.9286 21.4212 33.9286H8.94348C7.6399 33.9286 6.77115 32.2902 7.30955 30.8455L9.1033 26.0304ZM41.1479 31.7455H28.7819L38.9872 26.4375C39.1471 26.55 39.2756 26.7196 39.356 26.9312L41.1488 31.7455H41.1479ZM31.2006 24.1071C30.1435 24.1071 29.1837 24.8589 28.7479 26.0304L26.9542 30.8455C26.4158 32.2902 27.2845 33.9286 28.589 33.9286H41.1488C42.4524 33.9286 43.3212 32.2902 42.7828 30.8455L40.9881 26.0304C40.5551 24.8589 39.5962 24.1071 38.539 24.1071H31.2006Z" fill="white"/>
</g>
<defs>
<clipPath id="clip0_105_1418">
<rect width="50" height="50" rx="25" fill="white"/>
</clipPath>
</defs>
</svg>
