<svg width="16" height="16" viewBox="0 0 16 16" fill="none" xmlns="http://www.w3.org/2000/svg">
<circle cx="8" cy="8" r="8" fill="white"/>
<path d="M8.25 5C8.45711 5 8.625 5.16789 8.625 5.375V10.625C8.625 10.8321 8.45711 11 8.25 11C8.04289 11 7.875 10.8321 7.875 10.625V5.375C7.875 5.16789 8.04289 5 8.25 5ZM10.125 6.5C10.3321 6.5 10.5 6.66789 10.5 6.875V10.625C10.5 10.8321 10.3321 11 10.125 11C9.91789 11 9.75 10.8321 9.75 10.625V6.875C9.75 6.66789 9.91789 6.5 10.125 6.5ZM6.375 8C6.58211 8 6.75 8.16789 6.75 8.375V10.625C6.75 10.8321 6.58211 11 6.375 11C6.16789 11 6 10.8321 6 10.625V8.375C6 8.16789 6.16789 8 6.375 8Z" fill="url(#paint0_linear_247_610)"/>
<defs>
<linearGradient id="paint0_linear_247_610" x1="8.25" y1="5" x2="8.25" y2="8.67857" gradientUnits="userSpaceOnUse">
<stop stop-color="#72E175"/>
<stop offset="1" stop-color="#83E09E"/>
</linearGradient>
</defs>
</svg>
