<svg width="16" height="17" viewBox="0 0 16 17" fill="none" xmlns="http://www.w3.org/2000/svg">
<circle cx="8" cy="8.5" r="8" fill="white"/>
<path d="M8.25 5.5C8.45711 5.5 8.625 5.66789 8.625 5.875V11.125C8.625 11.3321 8.45711 11.5 8.25 11.5C8.04289 11.5 7.875 11.3321 7.875 11.125V5.875C7.875 5.66789 8.04289 5.5 8.25 5.5ZM10.125 7C10.3321 7 10.5 7.16789 10.5 7.375V11.125C10.5 11.3321 10.3321 11.5 10.125 11.5C9.91789 11.5 9.75 11.3321 9.75 11.125V7.375C9.75 7.16789 9.91789 7 10.125 7ZM6.375 8.5C6.58211 8.5 6.75 8.66789 6.75 8.875V11.125C6.75 11.3321 6.58211 11.5 6.375 11.5C6.16789 11.5 6 11.3321 6 11.125V8.875C6 8.66789 6.16789 8.5 6.375 8.5Z" fill="url(#paint0_linear_247_550)"/>
<defs>
<linearGradient id="paint0_linear_247_550" x1="8.25" y1="5.5" x2="8.25" y2="9.17857" gradientUnits="userSpaceOnUse">
<stop stop-color="#72E175"/>
<stop offset="1" stop-color="#83E09E"/>
</linearGradient>
</defs>
</svg>
