<svg width="16" height="17" viewBox="0 0 16 17" fill="none" xmlns="http://www.w3.org/2000/svg">
<circle cx="8" cy="8.5" r="8" fill="white"/>
<path d="M8 6.1C6.67452 6.1 5.6 7.17452 5.6 8.5C5.6 9.82548 6.67452 10.9 8 10.9C9.32548 10.9 10.4 9.82548 10.4 8.5C10.4 7.17452 9.32548 6.1 8 6.1ZM5 8.5C5 6.84315 6.34315 5.5 8 5.5C9.65685 5.5 11 6.84315 11 8.5C11 10.1569 9.65685 11.5 8 11.5C6.34315 11.5 5 10.1569 5 8.5ZM8 6.7C8.16569 6.7 8.3 6.83431 8.3 7V8.37574L9.11213 9.18787C9.22929 9.30503 9.22929 9.49497 9.11213 9.61213C8.99497 9.72929 8.80503 9.72929 8.68787 9.61213L7.78787 8.71213C7.73161 8.65587 7.7 8.57957 7.7 8.5V7C7.7 6.83431 7.83431 6.7 8 6.7Z" fill="url(#paint0_linear_247_556)"/>
<defs>
<linearGradient id="paint0_linear_247_556" x1="8" y1="5.5" x2="8" y2="9.2069" gradientUnits="userSpaceOnUse">
<stop stop-color="#E5ADFF"/>
<stop offset="1" stop-color="#FCB8E1"/>
</linearGradient>
</defs>
</svg>
