<svg width="16" height="17" viewBox="0 0 16 17" fill="none" xmlns="http://www.w3.org/2000/svg">
<circle cx="8" cy="8.5" r="8" fill="white"/>
<path d="M5 6.16667C5 5.79848 5.29848 5.5 5.66667 5.5H10.3333C10.7015 5.5 11 5.79848 11 6.16667V10.8333C11 11.2015 10.7015 11.5 10.3333 11.5H5.66667C5.29848 11.5 5 11.2015 5 10.8333V6.16667ZM10.3333 6.16667H5.66667V10.8333H10.3333V6.16667ZM8 6.83333C8.1841 6.83333 8.33333 6.98257 8.33333 7.16667V9.83333C8.33333 10.0174 8.1841 10.1667 8 10.1667C7.81591 10.1667 7.66667 10.0174 7.66667 9.83333V7.16667C7.66667 6.98257 7.81591 6.83333 8 6.83333ZM9.33333 7.5C9.51743 7.5 9.66667 7.64924 9.66667 7.83333V9.83333C9.66667 10.0174 9.51743 10.1667 9.33333 10.1667C9.14924 10.1667 9 10.0174 9 9.83333V7.83333C9 7.64924 9.14924 7.5 9.33333 7.5ZM6.66667 8.16667C6.85076 8.16667 7 8.31591 7 8.5V9.83333C7 10.0174 6.85076 10.1667 6.66667 10.1667C6.48257 10.1667 6.33333 10.0174 6.33333 9.83333V8.5C6.33333 8.31591 6.48257 8.16667 6.66667 8.16667Z" fill="url(#paint0_linear_247_496)"/>
<defs>
<linearGradient id="paint0_linear_247_496" x1="8" y1="5.5" x2="8" y2="9.2069" gradientUnits="userSpaceOnUse">
<stop stop-color="#E5ADFF"/>
<stop offset="1" stop-color="#FCB8E1"/>
</linearGradient>
</defs>
</svg>
