<svg width="16" height="16" viewBox="0 0 16 16" fill="none" xmlns="http://www.w3.org/2000/svg">
<circle cx="8" cy="8" r="8" fill="white"/>
<path d="M7.33333 5.66669H6.66667C6.48986 5.66669 6.32029 5.73692 6.19526 5.86195C6.07024 5.98697 6 6.15654 6 6.33335V10.3334C6 10.5102 6.07024 10.6797 6.19526 10.8048C6.32029 10.9298 6.48986 11 6.66667 11H10C10.1768 11 10.3464 10.9298 10.4714 10.8048C10.5964 10.6797 10.6667 10.5102 10.6667 10.3334V6.33335C10.6667 6.15654 10.5964 5.98697 10.4714 5.86195C10.3464 5.73692 10.1768 5.66669 10 5.66669H9.33333" stroke="url(#paint0_linear_247_406)" stroke-width="0.5" stroke-linecap="round" stroke-linejoin="round"/>
<path d="M7.33325 5.66667C7.33325 5.48986 7.40349 5.32029 7.52851 5.19526C7.65354 5.07024 7.82311 5 7.99992 5H8.66659C8.8434 5 9.01297 5.07024 9.13799 5.19526C9.26301 5.32029 9.33325 5.48986 9.33325 5.66667C9.33325 5.84348 9.26301 6.01305 9.13799 6.13807C9.01297 6.2631 8.8434 6.33333 8.66659 6.33333H7.99992C7.82311 6.33333 7.65354 6.2631 7.52851 6.13807C7.40349 6.01305 7.33325 5.84348 7.33325 5.66667Z" stroke="url(#paint1_linear_247_406)" stroke-width="0.5" stroke-linecap="round" stroke-linejoin="round"/>
<path d="M7.33325 8H7.33659" stroke="url(#paint2_linear_247_406)" stroke-width="0.5" stroke-linecap="round" stroke-linejoin="round"/>
<path d="M8.66675 8H9.33341" stroke="url(#paint3_linear_247_406)" stroke-width="0.5" stroke-linecap="round" stroke-linejoin="round"/>
<path d="M7.33325 9.33331H7.33659" stroke="url(#paint4_linear_247_406)" stroke-width="0.5" stroke-linecap="round" stroke-linejoin="round"/>
<path d="M8.66675 9.33331H9.33341" stroke="url(#paint5_linear_247_406)" stroke-width="0.5" stroke-linecap="round" stroke-linejoin="round"/>
<defs>
<linearGradient id="paint0_linear_247_406" x1="8.33333" y1="5.66669" x2="8.33333" y2="8.96171" gradientUnits="userSpaceOnUse">
<stop stop-color="#E5ADFF"/>
<stop offset="1" stop-color="#FCB8E1"/>
</linearGradient>
<linearGradient id="paint1_linear_247_406" x1="8.33325" y1="5" x2="8.33325" y2="5.82375" gradientUnits="userSpaceOnUse">
<stop stop-color="#E5ADFF"/>
<stop offset="1" stop-color="#FCB8E1"/>
</linearGradient>
<linearGradient id="paint2_linear_247_406" x1="7.33492" y1="8" x2="7.33492" y2="8.61782" gradientUnits="userSpaceOnUse">
<stop stop-color="#E5ADFF"/>
<stop offset="1" stop-color="#FCB8E1"/>
</linearGradient>
<linearGradient id="paint3_linear_247_406" x1="9.00008" y1="8" x2="9.00008" y2="8.61782" gradientUnits="userSpaceOnUse">
<stop stop-color="#E5ADFF"/>
<stop offset="1" stop-color="#FCB8E1"/>
</linearGradient>
<linearGradient id="paint4_linear_247_406" x1="7.33492" y1="9.33331" x2="7.33492" y2="9.95113" gradientUnits="userSpaceOnUse">
<stop stop-color="#E5ADFF"/>
<stop offset="1" stop-color="#FCB8E1"/>
</linearGradient>
<linearGradient id="paint5_linear_247_406" x1="9.00008" y1="9.33331" x2="9.00008" y2="9.95113" gradientUnits="userSpaceOnUse">
<stop stop-color="#E5ADFF"/>
<stop offset="1" stop-color="#FCB8E1"/>
</linearGradient>
</defs>
</svg>
