<svg width="16" height="17" viewBox="0 0 16 17" fill="none" xmlns="http://www.w3.org/2000/svg">
<circle cx="8" cy="8.5" r="8" fill="white"/>
<path d="M5 6.1C5 5.76863 5.26863 5.5 5.6 5.5H10.4C10.7314 5.5 11 5.76863 11 6.1V9.4C11 9.73137 10.7314 10 10.4 10H8.3V10.6H9.2C9.36569 10.6 9.5 10.7343 9.5 10.9C9.5 11.0657 9.36569 11.2 9.2 11.2H6.8C6.63431 11.2 6.5 11.0657 6.5 10.9C6.5 10.7343 6.63431 10.6 6.8 10.6H7.7V10H5.6C5.26863 10 5 9.73137 5 9.4V6.1ZM10.4 9.4V6.1H5.6V9.4H10.4Z" fill="url(#paint0_linear_247_487)"/>
<defs>
<linearGradient id="paint0_linear_247_487" x1="7.35937" y1="5.5" x2="7.18808" y2="8.60477" gradientUnits="userSpaceOnUse">
<stop stop-color="#E26853"/>
<stop offset="1" stop-color="#FB8B6D"/>
</linearGradient>
</defs>
</svg>
