<svg width="16" height="16" viewBox="0 0 16 16" fill="none" xmlns="http://www.w3.org/2000/svg">
<circle cx="8" cy="8" r="8" fill="white"/>
<path d="M5.6 6.2C5.6 6.20766 5.60307 6.25087 5.68763 6.32584C5.77184 6.4005 5.9108 6.48144 6.10828 6.5555C6.50102 6.70277 7.06371 6.8 7.7 6.8C8.33629 6.8 8.89898 6.70277 9.29172 6.5555C9.4892 6.48144 9.62816 6.4005 9.71237 6.32584C9.79693 6.25087 9.8 6.20766 9.8 6.2C9.8 6.19234 9.79693 6.14913 9.71237 6.07416C9.62816 5.9995 9.4892 5.91856 9.29172 5.8445C8.89898 5.69723 8.33629 5.6 7.7 5.6C7.06371 5.6 6.50102 5.69723 6.10828 5.8445C5.9108 5.91856 5.77184 5.9995 5.68763 6.07416C5.60307 6.14913 5.6 6.19234 5.6 6.2ZM5 6.2C5 5.95913 5.13125 5.76558 5.28958 5.6252C5.44827 5.48451 5.66077 5.37152 5.89761 5.28271C6.3735 5.10425 7.01081 5 7.7 5C8.38919 5 9.0265 5.10425 9.50239 5.28271C9.73923 5.37152 9.95174 5.48451 10.1104 5.6252C10.2688 5.76558 10.4 5.95913 10.4 6.2V7.4V8.6V9.8C10.4 10.0409 10.2688 10.2344 10.1104 10.3748C9.95174 10.5155 9.73923 10.6285 9.50239 10.7173C9.0265 10.8958 8.38919 11 7.7 11C7.01081 11 6.3735 10.8958 5.89761 10.7173C5.66077 10.6285 5.44827 10.5155 5.28958 10.3748C5.13125 10.2344 5 10.0409 5 9.8V8.6V7.4V6.2ZM5.6 7.4C5.6 7.40766 5.60307 7.45087 5.68763 7.52584C5.77184 7.6005 5.9108 7.68144 6.10828 7.7555C6.50102 7.90277 7.06371 8 7.7 8C8.33629 8 8.89898 7.90277 9.29172 7.7555C9.4892 7.68144 9.62816 7.6005 9.71237 7.52584C9.79693 7.45087 9.8 7.40766 9.8 7.4V6.98486C9.70727 7.03394 9.60721 7.07799 9.50239 7.1173C9.0265 7.29575 8.38919 7.4 7.7 7.4C7.01081 7.4 6.3735 7.29575 5.89761 7.1173C5.79279 7.07799 5.69273 7.03394 5.6 6.98486V7.4ZM5.6 8.18486V8.6C5.6 8.60766 5.60307 8.65087 5.68763 8.72584C5.77184 8.8005 5.9108 8.88144 6.10828 8.9555C6.50102 9.10277 7.06371 9.2 7.7 9.2C8.33629 9.2 8.89898 9.10277 9.29172 8.9555C9.4892 8.88144 9.62816 8.8005 9.71237 8.72584C9.79693 8.65087 9.8 8.60766 9.8 8.6V8.18486C9.70727 8.23394 9.60721 8.27799 9.50239 8.3173C9.0265 8.49575 8.38919 8.6 7.7 8.6C7.01081 8.6 6.3735 8.49575 5.89761 8.3173C5.79279 8.27799 5.69273 8.23394 5.6 8.18486ZM5.6 9.38486V9.8C5.6 9.80766 5.60307 9.85087 5.68763 9.92584C5.77184 10.0005 5.9108 10.0814 6.10828 10.1555C6.50102 10.3028 7.06371 10.4 7.7 10.4C8.33629 10.4 8.89898 10.3028 9.29172 10.1555C9.4892 10.0814 9.62816 10.0005 9.71237 9.92584C9.79693 9.85087 9.8 9.80766 9.8 9.8V9.38486C9.70727 9.43394 9.60721 9.47799 9.50239 9.51729C9.0265 9.69575 8.38919 9.8 7.7 9.8C7.01081 9.8 6.3735 9.69575 5.89761 9.51729C5.79279 9.47799 5.69273 9.43394 5.6 9.38486Z" fill="url(#paint0_linear_247_616)"/>
<defs>
<linearGradient id="paint0_linear_247_616" x1="7.7" y1="5" x2="7.7" y2="8.7069" gradientUnits="userSpaceOnUse">
<stop stop-color="#E5ADFF"/>
<stop offset="1" stop-color="#FCB8E1"/>
</linearGradient>
</defs>
</svg>
