<svg width="16" height="16" viewBox="0 0 16 16" fill="none" xmlns="http://www.w3.org/2000/svg">
<circle cx="8" cy="8" r="8" fill="white"/>
<path d="M7.5 7.85C7.66569 7.85 7.8 7.71569 7.8 7.55C7.8 7.38431 7.66569 7.25 7.5 7.25C7.33431 7.25 7.2 7.38431 7.2 7.55C7.2 7.71569 7.33431 7.85 7.5 7.85Z" fill="url(#paint0_linear_247_613)"/>
<path d="M8.1 7.55C8.1 7.38431 8.23431 7.25 8.4 7.25H9.3C9.46569 7.25 9.6 7.38431 9.6 7.55C9.6 7.71569 9.46569 7.85 9.3 7.85H8.4C8.23431 7.85 8.1 7.71569 8.1 7.55Z" fill="url(#paint1_linear_247_613)"/>
<path d="M8.4 8.15C8.23431 8.15 8.1 8.28431 8.1 8.45C8.1 8.61569 8.23431 8.75 8.4 8.75H9.3C9.46569 8.75 9.6 8.61569 9.6 8.45C9.6 8.28431 9.46569 8.15 9.3 8.15H8.4Z" fill="url(#paint2_linear_247_613)"/>
<path d="M8.4 9.05C8.23431 9.05 8.1 9.18431 8.1 9.35C8.1 9.51569 8.23431 9.65 8.4 9.65H9.3C9.46569 9.65 9.6 9.51569 9.6 9.35C9.6 9.18431 9.46569 9.05 9.3 9.05H8.4Z" fill="url(#paint3_linear_247_613)"/>
<path d="M7.8 8.45C7.8 8.61569 7.66569 8.75 7.5 8.75C7.33431 8.75 7.2 8.61569 7.2 8.45C7.2 8.28431 7.33431 8.15 7.5 8.15C7.66569 8.15 7.8 8.28431 7.8 8.45Z" fill="url(#paint4_linear_247_613)"/>
<path d="M7.5 9.65C7.66569 9.65 7.8 9.51569 7.8 9.35C7.8 9.18431 7.66569 9.05 7.5 9.05C7.33431 9.05 7.2 9.18431 7.2 9.35C7.2 9.51569 7.33431 9.65 7.5 9.65Z" fill="url(#paint5_linear_247_613)"/>
<path d="M7.5 5C7.33431 5 7.2 5.13431 7.2 5.3H6.6C6.26863 5.3 6 5.56863 6 5.9V10.4C6 10.7314 6.26863 11 6.6 11H10.2C10.5314 11 10.8 10.7314 10.8 10.4V5.9C10.8 5.56863 10.5314 5.3 10.2 5.3H9.6C9.6 5.13431 9.46569 5 9.3 5H7.5ZM9.6 5.9H10.2V10.4H6.6V5.9H7.2V6.2C7.2 6.36569 7.33431 6.5 7.5 6.5H9.3C9.46569 6.5 9.6 6.36569 9.6 6.2V5.9ZM7.8 5.9V5.6H9V5.9H7.8Z" fill="url(#paint6_linear_247_613)"/>
<defs>
<linearGradient id="paint0_linear_247_613" x1="7.8875" y1="5" x2="7.65077" y2="8.26095" gradientUnits="userSpaceOnUse">
<stop stop-color="#E26853"/>
<stop offset="1" stop-color="#FB8B6D"/>
</linearGradient>
<linearGradient id="paint1_linear_247_613" x1="7.8875" y1="5" x2="7.65077" y2="8.26095" gradientUnits="userSpaceOnUse">
<stop stop-color="#E26853"/>
<stop offset="1" stop-color="#FB8B6D"/>
</linearGradient>
<linearGradient id="paint2_linear_247_613" x1="7.8875" y1="5" x2="7.65077" y2="8.26095" gradientUnits="userSpaceOnUse">
<stop stop-color="#E26853"/>
<stop offset="1" stop-color="#FB8B6D"/>
</linearGradient>
<linearGradient id="paint3_linear_247_613" x1="7.8875" y1="5" x2="7.65077" y2="8.26095" gradientUnits="userSpaceOnUse">
<stop stop-color="#E26853"/>
<stop offset="1" stop-color="#FB8B6D"/>
</linearGradient>
<linearGradient id="paint4_linear_247_613" x1="7.8875" y1="5" x2="7.65077" y2="8.26095" gradientUnits="userSpaceOnUse">
<stop stop-color="#E26853"/>
<stop offset="1" stop-color="#FB8B6D"/>
</linearGradient>
<linearGradient id="paint5_linear_247_613" x1="7.8875" y1="5" x2="7.65077" y2="8.26095" gradientUnits="userSpaceOnUse">
<stop stop-color="#E26853"/>
<stop offset="1" stop-color="#FB8B6D"/>
</linearGradient>
<linearGradient id="paint6_linear_247_613" x1="7.8875" y1="5" x2="7.65077" y2="8.26095" gradientUnits="userSpaceOnUse">
<stop stop-color="#E26853"/>
<stop offset="1" stop-color="#FB8B6D"/>
</linearGradient>
</defs>
</svg>
