<svg width="50" height="50" viewBox="0 0 50 50" fill="none" xmlns="http://www.w3.org/2000/svg">
<g clip-path="url(#clip0_105_1741)">
<path d="M0 0H50V50H0V0Z" fill="#FF0508"/>
<path d="M8.03613 33.9286V21.4286H20.5361V13.3929H40.179V33.9286H8.03613ZM26.7861 31.25H31.2504V30H28.0093V28.2411H30.3576V27.0357H28.0093V25.3482H31.2504V24.0982H26.7861V31.25ZM22.4468 30C21.0808 30 20.429 29.125 20.429 27.7143C20.429 26.3125 21.0808 25.3482 22.4468 25.3482C23.8218 25.3482 24.4736 26.3125 24.4736 27.7143C24.4736 29.125 23.8218 30.0089 22.4468 30.0089V30ZM22.4468 24.1071C20.3933 24.1071 19.1701 25.4286 19.1701 27.6786C19.1701 29.9286 20.3933 31.25 22.4468 31.25C24.5004 31.25 25.7236 29.8839 25.7236 27.6786C25.7236 25.4732 24.5093 24.1071 22.4468 24.1071ZM31.8576 31.25H33.1611L34.6433 28.4375L36.2058 31.25H37.5004L35.4022 27.5179L37.3843 24.1071H36.0897L34.7147 26.6339L33.3129 24.1071H32.0093L33.929 27.4732L31.8665 31.25H31.8576ZM14.3754 30H14.1254L12.9111 24.1071H10.7147V31.25H11.8843V25.3929H12.1433L13.2772 31.25H15.2593L16.429 25.3482H16.6879V31.25H17.8576V24.1071H15.6254L14.3754 30Z" fill="white"/>
</g>
<defs>
<clipPath id="clip0_105_1741">
<rect width="50" height="50" rx="25" fill="white"/>
</clipPath>
</defs>
</svg>
