<svg width="19" height="20" viewBox="0 0 19 20" fill="none" xmlns="http://www.w3.org/2000/svg">
<path d="M13.633 13.0879C15.97 11.7923 17.7548 10.8027 17.9172 10.7126C18.4015 10.4441 18.9088 9.7589 17.9172 9.21121C17.5984 9.03484 15.8616 8.07557 13.6302 6.84253L10.5613 9.97491L13.633 13.0879Z" fill="#FFE300"/>
<path d="M10.5611 9.97485L0.745361 19.9931C0.96703 20.0216 1.23364 19.9621 1.54031 19.7921C2.1752 19.4401 8.99341 15.6599 13.633 13.0876L10.5611 9.97485Z" fill="#FF4E54"/>
<path d="M10.5611 9.97493L13.63 6.84255C13.63 6.84255 2.22315 0.538922 1.54026 0.161561C1.27778 0.0164707 0.991595 -0.034164 0.738281 0.0229742L10.5611 9.97493Z" fill="#00F085"/>
<path d="M10.5612 9.97506L0.738232 0.0232544C0.332502 0.114923 0 0.470605 0 1.18553V18.7993C0 19.4725 0.261569 19.9461 0.745264 19.9933L10.5612 9.97506Z" fill="#00E0FF"/>
</svg>
