<svg width="20" height="20" viewBox="0 0 20 20" fill="none" xmlns="http://www.w3.org/2000/svg">
<g clip-path="url(#clip0_43_17336)">
<path d="M8.0125 16.6667H5.83334C5.39131 16.6667 4.96739 16.4911 4.65483 16.1786C4.34227 15.866 4.16667 15.4421 4.16667 15V5.00004C4.16667 4.55801 4.34227 4.13409 4.65483 3.82153C4.96739 3.50897 5.39131 3.33337 5.83334 3.33337H12.5C12.942 3.33337 13.366 3.50897 13.6785 3.82153C13.9911 4.13409 14.1667 4.55801 14.1667 5.00004V11.6667" stroke="url(#paint0_linear_43_17336)" stroke-width="1.5" stroke-linecap="round" stroke-linejoin="round"/>
<path d="M11.6667 15.8333L13.3333 17.5L16.6667 14.1666" stroke="url(#paint1_linear_43_17336)" stroke-width="1.5" stroke-linecap="round" stroke-linejoin="round"/>
<path d="M7.5 6.66663H10.8333" stroke="url(#paint2_linear_43_17336)" stroke-width="1.5" stroke-linecap="round" stroke-linejoin="round"/>
<path d="M7.5 10H9.16667" stroke="url(#paint3_linear_43_17336)" stroke-width="1.5" stroke-linecap="round" stroke-linejoin="round"/>
</g>
<defs>
<linearGradient id="paint0_linear_43_17336" x1="9.16667" y1="3.33337" x2="9.16667" y2="11.508" gradientUnits="userSpaceOnUse">
<stop stop-color="#72E175"/>
<stop offset="1" stop-color="#83E09E"/>
</linearGradient>
<linearGradient id="paint1_linear_43_17336" x1="14.1667" y1="14.1666" x2="14.1667" y2="16.2103" gradientUnits="userSpaceOnUse">
<stop stop-color="#72E175"/>
<stop offset="1" stop-color="#83E09E"/>
</linearGradient>
<linearGradient id="paint2_linear_43_17336" x1="9.16667" y1="6.66663" x2="9.16667" y2="7.27972" gradientUnits="userSpaceOnUse">
<stop stop-color="#72E175"/>
<stop offset="1" stop-color="#83E09E"/>
</linearGradient>
<linearGradient id="paint3_linear_43_17336" x1="8.33333" y1="10" x2="8.33333" y2="10.6131" gradientUnits="userSpaceOnUse">
<stop stop-color="#72E175"/>
<stop offset="1" stop-color="#83E09E"/>
</linearGradient>
<clipPath id="clip0_43_17336">
<rect width="20" height="20" fill="white"/>
</clipPath>
</defs>
</svg>
