<svg width="50" height="50" viewBox="0 0 50 50" fill="none" xmlns="http://www.w3.org/2000/svg">
<g clip-path="url(#clip0_105_1415)">
<path d="M0 0H50V50H0V0Z" fill="#ADABB8"/>
<path d="M18.9707 19.2455H31.2788L29.4841 14.4304C29.4143 14.2328 29.2868 14.0608 29.1181 13.9366L18.9707 19.2455ZM18.9368 13.5304C19.3734 12.3589 20.3324 11.6071 21.3895 11.6071H28.6663C29.7243 11.6071 30.6841 12.3589 31.1199 13.5304L32.9136 18.3455C33.4511 19.7902 32.5824 21.4286 31.2788 21.4286H18.7788C17.4752 21.4286 16.6056 19.7902 17.1431 18.3455L18.9368 13.5304ZM9.13771 31.7455H21.4207L19.6279 26.9304C19.5577 26.7326 19.4295 26.5605 19.26 26.4366L9.13771 31.7455ZM9.10379 26.0304C9.54039 24.8589 10.5002 24.1071 11.5565 24.1071H18.81C19.8672 24.1071 20.8261 24.8589 21.2627 26.0304L23.0565 30.8455C23.5949 32.2902 22.7252 33.9286 21.4199 33.9286H8.94396C7.64039 33.9286 6.77164 32.2902 7.31004 30.8455L9.10379 26.0304ZM41.1484 31.7455H28.7824L38.9877 26.4375C39.1466 26.55 39.2761 26.7196 39.3556 26.9312L41.1484 31.7455ZM31.1993 24.1071C30.1422 24.1071 29.1832 24.8589 28.7475 26.0304L26.9529 30.8455C26.4163 32.2902 27.285 33.9286 28.5895 33.9286H41.1484C42.452 33.9286 43.3216 32.2902 42.7833 30.8455L40.9886 26.0304C40.5556 24.8589 39.5949 24.1071 38.5386 24.1071H31.1993Z" fill="white"/>
</g>
<defs>
<clipPath id="clip0_105_1415">
<rect width="50" height="50" rx="25" fill="white"/>
</clipPath>
</defs>
</svg>
