<svg width="50" height="50" viewBox="0 0 50 50" fill="none" xmlns="http://www.w3.org/2000/svg">
<circle cx="32.0402" cy="17.9598" r="17.9598" fill="#83E09E"/>
<g clip-path="url(#clip0_43_17110)">
<path d="M18.1035 32.7571H46.8376V4.02295H18.1035V32.7571Z" fill="#F0F3FA"/>
<path d="M32.4706 12.0046C34.1641 12.0046 35.7882 12.6774 36.9857 13.8749C38.1832 15.0724 38.8559 16.6965 38.8559 18.39C38.8559 20.0835 38.1832 21.7077 36.9857 22.9052C35.7882 24.1026 34.1641 24.7754 32.4706 24.7754C30.777 24.7754 29.1529 24.1026 27.9554 22.9052C26.7579 21.7077 26.0852 20.0835 26.0852 18.39C26.0852 16.6965 26.7579 15.0724 27.9554 13.8749C29.1529 12.6774 30.777 12.0046 32.4706 12.0046Z" fill="#F7525F"/>
<path fill-rule="evenodd" clip-rule="evenodd" d="M32.4706 31.959C34.2524 31.959 36.0169 31.608 37.6632 30.9261C39.3094 30.2442 40.8052 29.2447 42.0652 27.9847C43.3252 26.7247 44.3247 25.2289 45.0066 23.5826C45.6885 21.9364 46.0395 20.1719 46.0395 18.39C46.0395 16.6081 45.6885 14.8437 45.0066 13.1974C44.3247 11.5512 43.3252 10.0554 42.0652 8.79537C40.8052 7.53538 39.3094 6.5359 37.6632 5.85399C36.0169 5.17209 34.2524 4.82112 32.4706 4.82112C28.8718 4.82112 25.4205 6.2507 22.8759 8.79537C20.3312 11.34 18.9016 14.7913 18.9016 18.39C18.9016 21.9887 20.3312 25.4401 22.8759 27.9847C25.4205 30.5294 28.8718 31.959 32.4706 31.959ZM32.4706 32.7571C36.2809 32.7571 39.9353 31.2435 42.6296 28.5491C45.324 25.8548 46.8376 22.2004 46.8376 18.39C46.8376 14.5797 45.324 10.9253 42.6296 8.23097C39.9353 5.53662 36.2809 4.02295 32.4706 4.02295C28.6602 4.02295 25.0058 5.53662 22.3115 8.23097C19.6171 10.9253 18.1035 14.5797 18.1035 18.39C18.1035 22.2004 19.6171 25.8548 22.3115 28.5491C25.0058 31.2435 28.6602 32.7571 32.4706 32.7571Z" fill="#E0E3EB"/>
</g>
<circle cx="17.9598" cy="32.0402" r="17.9598" fill="#83E09E"/>
<g clip-path="url(#clip1_43_17110)">
<path d="M4.02298 18.1034H32.727V46.8074H4.02298V18.1034Z" fill="#F8F9FD"/>
<path d="M21.5643 24.4821H32.727V18.1034H21.5643V24.4821ZM4.02298 46.8074H32.727V40.4287H4.02298V46.8074ZM21.5643 35.6447H32.727V29.2661H21.5643V35.6447Z" fill="#EF5350"/>
<path d="M4.02298 18.1034H21.5643V35.6447H4.02298V18.1034Z" fill="#1E88E9"/>
<path d="M7.88208 20.0488C7.89415 20.0254 7.91244 20.0058 7.93495 19.992C7.95745 19.9783 7.9833 19.9711 8.00965 19.9711C8.03601 19.9711 8.06185 19.9783 8.08436 19.992C8.10686 20.0058 8.12515 20.0254 8.13723 20.0488L8.56779 21.1811C8.58373 21.2448 8.64752 21.2767 8.69536 21.2767L9.90731 21.3405C10.0349 21.3405 10.0827 21.5 9.98704 21.5957L9.03024 22.3452C9.00942 22.3654 8.99522 22.3915 8.98953 22.4199C8.98383 22.4484 8.98691 22.4779 8.99835 22.5046L9.31728 23.6528C9.32699 23.6819 9.32711 23.7134 9.31762 23.7426C9.30813 23.7718 9.28953 23.7971 9.26455 23.815C9.23957 23.8328 9.20953 23.8422 9.17884 23.8417C9.14815 23.8412 9.11842 23.8309 9.09403 23.8123L8.08939 23.1584C8.06578 23.1427 8.03804 23.1343 8.00965 23.1343C7.98127 23.1343 7.95352 23.1427 7.92992 23.1584L6.92528 23.8123C6.90088 23.8309 6.87116 23.8412 6.84046 23.8417C6.80977 23.8422 6.77973 23.8328 6.75476 23.815C6.72978 23.7971 6.71118 23.7718 6.70169 23.7426C6.6922 23.7134 6.69231 23.6819 6.70202 23.6528L7.02096 22.4887C7.03055 22.4604 7.0311 22.4299 7.02252 22.4013C7.01395 22.3727 6.99668 22.3475 6.97312 22.3292L6.03226 21.5957C6.00974 21.5776 5.99318 21.5532 5.98476 21.5256C5.97634 21.4979 5.97644 21.4684 5.98505 21.4409C5.99366 21.4133 6.01038 21.389 6.03303 21.3711C6.05568 21.3532 6.0832 21.3425 6.112 21.3405L7.32395 21.2767C7.37179 21.2767 7.43557 21.2448 7.45152 21.1811L7.88208 20.0648V20.0488ZM7.88208 24.8328C7.89415 24.8094 7.91244 24.7898 7.93495 24.776C7.95745 24.7623 7.9833 24.7551 8.00965 24.7551C8.03601 24.7551 8.06185 24.7623 8.08436 24.776C8.10686 24.7898 8.12515 24.8094 8.13723 24.8328L8.56779 25.9651C8.58373 26.0288 8.64752 26.0607 8.69536 26.0607L9.90731 26.1245C10.0349 26.1245 10.0827 26.284 9.98704 26.3797L9.03024 27.1292C9.00942 27.1494 8.99522 27.1755 8.98953 27.2039C8.98383 27.2324 8.98691 27.2619 8.99835 27.2886L9.31728 28.4368C9.32699 28.4659 9.32711 28.4974 9.31762 28.5266C9.30813 28.5558 9.28953 28.5811 9.26455 28.599C9.23957 28.6168 9.20953 28.6262 9.17884 28.6257C9.14815 28.6252 9.11842 28.6149 9.09403 28.5963L8.08939 27.9424C8.06578 27.9267 8.03804 27.9183 8.00965 27.9183C7.98127 27.9183 7.95352 27.9267 7.92992 27.9424L6.92528 28.5963C6.90088 28.6149 6.87116 28.6252 6.84046 28.6257C6.80977 28.6262 6.77973 28.6168 6.75476 28.599C6.72978 28.5811 6.71118 28.5558 6.70169 28.5266C6.6922 28.4974 6.69231 28.4659 6.70202 28.4368L7.02096 27.2727C7.03055 27.2444 7.0311 27.2139 7.02252 27.1853C7.01395 27.1567 6.99668 27.1315 6.97312 27.1132L6.03226 26.3797C6.00974 26.3616 5.99318 26.3372 5.98476 26.3096C5.97634 26.282 5.97644 26.2524 5.98505 26.2249C5.99366 26.1973 6.01038 26.173 6.03303 26.1551C6.05568 26.1372 6.0832 26.1265 6.112 26.1245L7.32395 26.0607C7.37179 26.0607 7.43557 26.0288 7.45152 25.9651L7.88208 24.8488V24.8328ZM7.88208 29.6168C7.89415 29.5934 7.91244 29.5738 7.93495 29.5601C7.95745 29.5463 7.9833 29.5391 8.00965 29.5391C8.03601 29.5391 8.06185 29.5463 8.08436 29.5601C8.10686 29.5738 8.12515 29.5934 8.13723 29.6168L8.56779 30.7491C8.58373 30.8128 8.64752 30.8447 8.69536 30.8447L9.90731 30.9085C10.0349 30.9085 10.0827 31.068 9.98704 31.1637L9.03024 31.9132C9.00942 31.9334 8.99522 31.9595 8.98953 31.9879C8.98383 32.0164 8.98691 32.0459 8.99835 32.0726L9.31728 33.2208C9.32699 33.2499 9.32711 33.2814 9.31762 33.3106C9.30813 33.3398 9.28953 33.3651 9.26455 33.383C9.23957 33.4008 9.20953 33.4102 9.17884 33.4097C9.14815 33.4092 9.11842 33.3989 9.09403 33.3803L8.08939 32.7264C8.06578 32.7107 8.03804 32.7023 8.00965 32.7023C7.98127 32.7023 7.95352 32.7107 7.92992 32.7264L6.92528 33.3803C6.90088 33.3989 6.87116 33.4092 6.84046 33.4097C6.80977 33.4102 6.77973 33.4008 6.75476 33.383C6.72978 33.3651 6.71118 33.3398 6.70169 33.3106C6.6922 33.2814 6.69231 33.2499 6.70202 33.2208L7.02096 32.0567C7.03055 32.0284 7.0311 31.9979 7.02252 31.9693C7.01395 31.9407 6.99668 31.9155 6.97312 31.8972L6.03226 31.1637C6.00974 31.1456 5.99318 31.1212 5.98476 31.0936C5.97634 31.066 5.97644 31.0364 5.98505 31.0089C5.99366 30.9813 6.01038 30.957 6.03303 30.9391C6.05568 30.9212 6.0832 30.9105 6.112 30.9085L7.32395 30.8447C7.37179 30.8447 7.43557 30.8128 7.45152 30.7491L7.88208 29.6328V29.6168ZM12.6661 20.0488C12.6782 20.0254 12.6964 20.0058 12.719 19.992C12.7415 19.9783 12.7673 19.9711 12.7937 19.9711C12.82 19.9711 12.8459 19.9783 12.8684 19.992C12.8909 20.0058 12.9092 20.0254 12.9212 20.0488L13.3518 21.1811C13.3677 21.2448 13.4315 21.2767 13.4794 21.2767L14.6913 21.3405C14.8189 21.3405 14.8667 21.5 14.771 21.5957L13.8142 22.3452C13.7934 22.3654 13.7792 22.3915 13.7735 22.4199C13.7678 22.4484 13.7709 22.4779 13.7824 22.5046L14.1013 23.6528C14.111 23.6819 14.1111 23.7134 14.1016 23.7426C14.0921 23.7718 14.0735 23.7971 14.0486 23.815C14.0236 23.8328 13.9935 23.8422 13.9628 23.8417C13.9322 23.8412 13.9024 23.8309 13.878 23.8123L12.8734 23.1584C12.8498 23.1427 12.822 23.1343 12.7937 23.1343C12.7653 23.1343 12.7375 23.1427 12.7139 23.1584L11.7093 23.8123C11.6849 23.8309 11.6552 23.8412 11.6245 23.8417C11.5938 23.8422 11.5637 23.8328 11.5388 23.815C11.5138 23.7971 11.4952 23.7718 11.4857 23.7426C11.4762 23.7134 11.4763 23.6819 11.486 23.6528L11.805 22.4887C11.8146 22.4604 11.8151 22.4299 11.8065 22.4013C11.798 22.3727 11.7807 22.3475 11.7571 22.3292L10.8163 21.5957C10.7937 21.5776 10.7772 21.5532 10.7688 21.5256C10.7603 21.4979 10.7604 21.4684 10.7691 21.4409C10.7777 21.4133 10.7944 21.389 10.817 21.3711C10.8397 21.3532 10.8672 21.3425 10.896 21.3405L12.1079 21.2767C12.1558 21.2767 12.2196 21.2448 12.2355 21.1811L12.6661 20.0648V20.0488ZM12.6661 24.8328C12.6782 24.8094 12.6964 24.7898 12.719 24.776C12.7415 24.7623 12.7673 24.7551 12.7937 24.7551C12.82 24.7551 12.8459 24.7623 12.8684 24.776C12.8909 24.7898 12.9092 24.8094 12.9212 24.8328L13.3518 25.9651C13.3677 26.0288 13.4315 26.0607 13.4794 26.0607L14.6913 26.1245C14.8189 26.1245 14.8667 26.284 14.771 26.3797L13.8142 27.1292C13.7934 27.1494 13.7792 27.1755 13.7735 27.2039C13.7678 27.2324 13.7709 27.2619 13.7824 27.2886L14.1013 28.4368C14.111 28.4659 14.1111 28.4974 14.1016 28.5266C14.0921 28.5558 14.0735 28.5811 14.0486 28.599C14.0236 28.6168 13.9935 28.6262 13.9628 28.6257C13.9322 28.6252 13.9024 28.6149 13.878 28.5963L12.8734 27.9424C12.8498 27.9267 12.822 27.9183 12.7937 27.9183C12.7653 27.9183 12.7375 27.9267 12.7139 27.9424L11.7093 28.5963C11.6849 28.6149 11.6552 28.6252 11.6245 28.6257C11.5938 28.6262 11.5637 28.6168 11.5388 28.599C11.5138 28.5811 11.4952 28.5558 11.4857 28.5266C11.4762 28.4974 11.4763 28.4659 11.486 28.4368L11.805 27.2727C11.8146 27.2444 11.8151 27.2139 11.8065 27.1853C11.798 27.1567 11.7807 27.1315 11.7571 27.1132L10.8163 26.3797C10.7937 26.3616 10.7772 26.3372 10.7688 26.3096C10.7603 26.282 10.7604 26.2524 10.7691 26.2249C10.7777 26.1973 10.7944 26.173 10.817 26.1551C10.8397 26.1372 10.8672 26.1265 10.896 26.1245L12.1079 26.0607C12.1558 26.0607 12.2196 26.0288 12.2355 25.9651L12.6661 24.8488V24.8328ZM12.6661 29.6168C12.6782 29.5934 12.6964 29.5738 12.719 29.5601C12.7415 29.5463 12.7673 29.5391 12.7937 29.5391C12.82 29.5391 12.8459 29.5463 12.8684 29.5601C12.8909 29.5738 12.9092 29.5934 12.9212 29.6168L13.3518 30.7491C13.3677 30.8128 13.4315 30.8447 13.4794 30.8447L14.6913 30.9085C14.8189 30.9085 14.8667 31.068 14.771 31.1637L13.8142 31.9132C13.7934 31.9334 13.7792 31.9595 13.7735 31.9879C13.7678 32.0164 13.7709 32.0459 13.7824 32.0726L14.1013 33.2208C14.111 33.2499 14.1111 33.2814 14.1016 33.3106C14.0921 33.3398 14.0735 33.3651 14.0486 33.383C14.0236 33.4008 13.9935 33.4102 13.9628 33.4097C13.9322 33.4092 13.9024 33.3989 13.878 33.3803L12.8734 32.7264C12.8498 32.7107 12.822 32.7023 12.7937 32.7023C12.7653 32.7023 12.7375 32.7107 12.7139 32.7264L11.7093 33.3803C11.6849 33.3989 11.6552 33.4092 11.6245 33.4097C11.5938 33.4102 11.5637 33.4008 11.5388 33.383C11.5138 33.3651 11.4952 33.3398 11.4857 33.3106C11.4762 33.2814 11.4763 33.2499 11.486 33.2208L11.805 32.0567C11.8146 32.0284 11.8151 31.9979 11.8065 31.9693C11.798 31.9407 11.7807 31.9155 11.7571 31.8972L10.8163 31.1637C10.7937 31.1456 10.7772 31.1212 10.7688 31.0936C10.7603 31.066 10.7604 31.0364 10.7691 31.0089C10.7777 30.9813 10.7944 30.957 10.817 30.9391C10.8397 30.9212 10.8672 30.9105 10.896 30.9085L12.1079 30.8447C12.1558 30.8447 12.2196 30.8128 12.2355 30.7491L12.6661 29.6328V29.6168ZM17.4501 20.0488C17.4622 20.0254 17.4805 20.0058 17.503 19.992C17.5255 19.9783 17.5513 19.9711 17.5777 19.9711C17.604 19.9711 17.6299 19.9783 17.6524 19.992C17.6749 20.0058 17.6932 20.0254 17.7052 20.0488L18.1358 21.1811C18.1517 21.2448 18.2155 21.2767 18.2634 21.2767L19.4753 21.3405C19.6029 21.3405 19.6507 21.5 19.555 21.5957L18.5982 22.3452C18.5774 22.3654 18.5632 22.3915 18.5575 22.4199C18.5518 22.4484 18.5549 22.4779 18.5664 22.5046L18.8853 23.6528C18.895 23.6819 18.8951 23.7134 18.8856 23.7426C18.8761 23.7718 18.8575 23.7971 18.8326 23.815C18.8076 23.8328 18.7775 23.8422 18.7468 23.8417C18.7162 23.8412 18.6864 23.8309 18.662 23.8123L17.6574 23.1584C17.6338 23.1427 17.606 23.1343 17.5777 23.1343C17.5493 23.1343 17.5215 23.1427 17.4979 23.1584L16.4933 23.8123C16.4689 23.8309 16.4392 23.8412 16.4085 23.8417C16.3778 23.8422 16.3477 23.8328 16.3228 23.815C16.2978 23.7971 16.2792 23.7718 16.2697 23.7426C16.2602 23.7134 16.2603 23.6819 16.27 23.6528L16.589 22.4887C16.5986 22.4604 16.5991 22.4299 16.5905 22.4013C16.582 22.3727 16.5647 22.3475 16.5411 22.3292L15.6003 21.5957C15.5777 21.5776 15.5612 21.5532 15.5528 21.5256C15.5443 21.4979 15.5444 21.4684 15.5531 21.4409C15.5617 21.4133 15.5784 21.389 15.601 21.3711C15.6237 21.3532 15.6512 21.3425 15.68 21.3405L16.892 21.2767C16.9398 21.2767 17.0036 21.2448 17.0195 21.1811L17.4501 20.0648V20.0488ZM17.4501 24.8328C17.4622 24.8094 17.4805 24.7898 17.503 24.776C17.5255 24.7623 17.5513 24.7551 17.5777 24.7551C17.604 24.7551 17.6299 24.7623 17.6524 24.776C17.6749 24.7898 17.6932 24.8094 17.7052 24.8328L18.1358 25.9651C18.1517 26.0288 18.2155 26.0607 18.2634 26.0607L19.4753 26.1245C19.6029 26.1245 19.6507 26.284 19.555 26.3797L18.5982 27.1292C18.5774 27.1494 18.5632 27.1755 18.5575 27.2039C18.5518 27.2324 18.5549 27.2619 18.5664 27.2886L18.8853 28.4368C18.895 28.4659 18.8951 28.4974 18.8856 28.5266C18.8761 28.5558 18.8575 28.5811 18.8326 28.599C18.8076 28.6168 18.7775 28.6262 18.7468 28.6257C18.7162 28.6252 18.6864 28.6149 18.662 28.5963L17.6574 27.9424C17.6338 27.9267 17.606 27.9183 17.5777 27.9183C17.5493 27.9183 17.5215 27.9267 17.4979 27.9424L16.4933 28.5963C16.4689 28.6149 16.4392 28.6252 16.4085 28.6257C16.3778 28.6262 16.3477 28.6168 16.3228 28.599C16.2978 28.5811 16.2792 28.5558 16.2697 28.5266C16.2602 28.4974 16.2603 28.4659 16.27 28.4368L16.589 27.2727C16.5986 27.2444 16.5991 27.2139 16.5905 27.1853C16.582 27.1567 16.5647 27.1315 16.5411 27.1132L15.6003 26.3797C15.5777 26.3616 15.5612 26.3372 15.5528 26.3096C15.5443 26.282 15.5444 26.2524 15.5531 26.2249C15.5617 26.1973 15.5784 26.173 15.601 26.1551C15.6237 26.1372 15.6512 26.1265 15.68 26.1245L16.892 26.0607C16.9398 26.0607 17.0036 26.0288 17.0195 25.9651L17.4501 24.8488V24.8328ZM17.4501 29.6168C17.4622 29.5934 17.4805 29.5738 17.503 29.5601C17.5255 29.5463 17.5513 29.5391 17.5777 29.5391C17.604 29.5391 17.6299 29.5463 17.6524 29.5601C17.6749 29.5738 17.6932 29.5934 17.7052 29.6168L18.1358 30.7491C18.1517 30.8128 18.2155 30.8447 18.2634 30.8447L19.4753 30.9085C19.6029 30.9085 19.6507 31.068 19.555 31.1637L18.5982 31.9132C18.5774 31.9334 18.5632 31.9595 18.5575 31.9879C18.5518 32.0164 18.5549 32.0459 18.5664 32.0726L18.8853 33.2208C18.895 33.2499 18.8951 33.2814 18.8856 33.3106C18.8761 33.3398 18.8575 33.3651 18.8326 33.383C18.8076 33.4008 18.7775 33.4102 18.7468 33.4097C18.7162 33.4092 18.6864 33.3989 18.662 33.3803L17.6574 32.7264C17.6338 32.7107 17.606 32.7023 17.5777 32.7023C17.5493 32.7023 17.5215 32.7107 17.4979 32.7264L16.4933 33.3803C16.4689 33.3989 16.4392 33.4092 16.4085 33.4097C16.3778 33.4102 16.3477 33.4008 16.3228 33.383C16.2978 33.3651 16.2792 33.3398 16.2697 33.3106C16.2602 33.2814 16.2603 33.2499 16.27 33.2208L16.589 32.0567C16.5986 32.0284 16.5991 31.9979 16.5905 31.9693C16.582 31.9407 16.5647 31.9155 16.5411 31.8972L15.6003 31.1637C15.5777 31.1456 15.5612 31.1212 15.5528 31.0936C15.5443 31.066 15.5444 31.0364 15.5531 31.0089C15.5617 30.9813 15.5784 30.957 15.601 30.9391C15.6237 30.9212 15.6512 30.9105 15.68 30.9085L16.892 30.8447C16.9398 30.8447 17.0036 30.8128 17.0195 30.7491L17.4501 29.6328V29.6168Z" fill="#F8F9FD"/>
</g>
<defs>
<clipPath id="clip0_43_17110">
<rect x="18.1035" y="4.02295" width="28.7342" height="28.7342" rx="14.3671" fill="white"/>
</clipPath>
<clipPath id="clip1_43_17110">
<rect x="4.02298" y="18.1034" width="28.704" height="28.704" rx="14.352" fill="white"/>
</clipPath>
</defs>
</svg>
