<svg width="143" height="50" viewBox="0 0 143 50" fill="none" xmlns="http://www.w3.org/2000/svg">
<circle cx="25" cy="25" r="25" fill="#FCB8E1"/>
<g clip-path="url(#clip0_43_17011)">
<path d="M5 5H45V45H5V5Z" fill="#F01C23"/>
<path d="M22.1429 17.1428V22.8571H12.1429V32.8571H37.8571V17.1428H22.1429Z" fill="white"/>
</g>
<circle cx="56" cy="25" r="25" fill="#FCB8E1"/>
<g clip-path="url(#clip1_43_17011)">
<path d="M36 5H76V45H36V5Z" fill="#0091BA"/>
<path d="M45.33 30.7142H47.6821V19.2856H45.3214L42.4286 21.4599V23.5114L45.2836 21.5971H45.33V30.7142ZM54.5843 30.7142C57.4236 30.7142 59.1457 28.5171 59.1457 25.0035V24.9885C59.1457 21.4749 57.4236 19.2856 54.5843 19.2856C51.745 19.2856 50.0229 21.4749 50.0229 24.9885V25.0035C50.0229 28.5178 51.745 30.7142 54.5843 30.7142ZM54.5843 28.8621C53.1879 28.8621 52.3893 27.4306 52.3893 25.0035V24.9885C52.3893 22.5621 53.1879 21.1385 54.5843 21.1385C55.9807 21.1385 56.7793 22.5621 56.7793 24.9885V25.0035C56.7793 27.4306 55.9807 28.8621 54.5843 28.8621ZM65.01 30.7142C67.85 30.7142 69.5714 28.5171 69.5714 25.0035V24.9885C69.5714 21.4749 67.8493 19.2856 65.01 19.2856C62.1707 19.2856 60.4486 21.4749 60.4486 24.9885V25.0035C60.4486 28.5178 62.1707 30.7142 65.01 30.7142ZM65.01 28.8621C63.6136 28.8621 62.815 27.4306 62.815 25.0035V24.9885C62.815 22.5621 63.6136 21.1385 65.01 21.1385C66.4064 21.1385 67.2057 22.5621 67.2057 24.9885V25.0035C67.2057 27.4306 66.4064 28.8621 65.01 28.8621Z" fill="white"/>
</g>
<circle cx="87" cy="25" r="25" fill="#FCB8E1"/>
<g clip-path="url(#clip2_43_17011)">
<path d="M67 5H107V45H67V5Z" fill="#2962FF"/>
<path fill-rule="evenodd" clip-rule="evenodd" d="M86.9643 34.9286C89.0571 34.9286 90.9929 34.2857 92.5929 33.1857C92.95 33.5572 93.3643 33.8714 93.8286 34.1C92.1361 35.3757 90.1215 36.1544 88.0109 36.3485C85.9004 36.5427 83.7775 36.1446 81.8807 35.199C79.9839 34.2535 78.3882 32.7978 77.2729 30.9956C76.1576 29.1934 75.5667 27.1159 75.5667 24.9964C75.5667 22.877 76.1576 20.7995 77.2729 18.9973C78.3882 17.1951 79.9839 15.7394 81.8807 14.7939C83.7775 13.8483 85.9004 13.4502 88.0109 13.6444C90.1215 13.8385 92.1361 14.6171 93.8286 15.8929C93.3654 16.1276 92.9471 16.4419 92.5929 16.8214C91.3104 15.9412 89.8391 15.3745 88.2975 15.1672C86.7559 14.9598 85.1871 15.1176 83.7177 15.6278C82.2482 16.138 80.9192 16.9863 79.8377 18.1043C78.7563 19.2224 77.9527 20.5789 77.4916 22.0645C77.0306 23.5501 76.9251 25.1232 77.1836 26.6571C77.442 28.1909 78.0573 29.6426 78.9798 30.895C79.9022 32.1475 81.106 33.1657 82.4942 33.8676C83.8823 34.5694 85.4159 34.9353 86.9714 34.9357L86.9643 34.9286ZM94.8571 19.0214C94.7497 19.021 94.6436 19.0447 94.5466 19.0909C94.4496 19.1371 94.3643 19.2046 94.2971 19.2884C94.2298 19.3721 94.1823 19.47 94.158 19.5746C94.1338 19.6793 94.1335 19.7881 94.1571 19.8929C94.1815 20.0038 94.2319 20.1073 94.3043 20.1948C94.3766 20.2824 94.4688 20.3514 94.5731 20.3962C94.6775 20.441 94.791 20.4602 94.9043 20.4523C95.0176 20.4445 95.1274 20.4097 95.2245 20.3509C95.3217 20.2922 95.4035 20.2111 95.463 20.1144C95.5226 20.0177 95.5582 19.9082 95.567 19.795C95.5758 19.6817 95.5574 19.5681 95.5135 19.4634C95.4695 19.3586 95.4012 19.2659 95.3143 19.1929C95.1868 19.0838 95.0249 19.0231 94.8571 19.0214ZM92.7143 19.7357C92.7143 20.0643 92.7857 20.3786 92.9143 20.65L91.6286 21.4286H82.7143C82.5248 21.4286 82.3432 21.5038 82.2092 21.6378C82.0753 21.7717 82 21.9534 82 22.1429C82 22.3323 82.0753 22.514 82.2092 22.6479C82.3432 22.7819 82.5248 22.8572 82.7143 22.8572H92.0214L93.9571 21.6857C94.3775 21.8803 94.8496 21.9334 95.3027 21.837C95.7558 21.7407 96.1655 21.5002 96.4704 21.1514C96.7753 20.8027 96.959 20.3645 96.9939 19.9026C97.0288 19.4407 96.9131 18.9799 96.6642 18.5893C96.4152 18.1987 96.0463 17.8992 95.6129 17.7359C95.1794 17.5725 94.7047 17.554 94.2598 17.6831C93.815 17.8122 93.4239 18.082 93.1453 18.4521C92.8667 18.8221 92.7154 19.2725 92.7143 19.7357ZM95.3357 24.2857C95.5042 23.8091 95.8358 23.4075 96.2718 23.1517C96.7078 22.8959 97.2202 22.8025 97.7184 22.888C98.2166 22.9735 98.6685 23.2323 98.9944 23.6188C99.3202 24.0053 99.4989 24.4945 99.4989 25C99.4989 25.5055 99.3202 25.9947 98.9944 26.3812C98.6685 26.7677 98.2166 27.0265 97.7184 27.112C97.2202 27.1975 96.7078 27.1041 96.2718 26.8483C95.8358 26.5926 95.5042 26.1909 95.3357 25.7143H81.2857C81.0963 25.7143 80.9146 25.639 80.7806 25.5051C80.6467 25.3711 80.5714 25.1895 80.5714 25C80.5714 24.8106 80.6467 24.6289 80.7806 24.4949C80.9146 24.361 81.0963 24.2857 81.2857 24.2857H95.3357ZM94.1571 30.1286C94.1774 30.0141 94.2252 29.9063 94.2966 29.8145C94.368 29.7227 94.4607 29.6497 94.5666 29.6018C94.6726 29.554 94.7886 29.5327 94.9047 29.5399C95.0207 29.5471 95.1333 29.5825 95.2325 29.6431C95.3318 29.7036 95.4148 29.7875 95.4743 29.8874C95.5337 29.9873 95.5679 30.1002 95.5739 30.2163C95.5798 30.3324 95.5573 30.4483 95.5084 30.5537C95.4594 30.6592 95.3854 30.7511 95.2929 30.8214C95.1786 30.911 95.0398 30.9636 94.895 30.9723C94.7501 30.9809 94.606 30.9453 94.4819 30.8701C94.3578 30.7948 94.2596 30.6836 94.2003 30.5511C94.141 30.4186 94.1235 30.2713 94.15 30.1286H94.1571ZM92.9071 29.3714C92.7554 29.6979 92.6887 30.0574 92.7132 30.4166C92.7376 30.7757 92.8525 31.1229 93.047 31.4257C93.2416 31.7286 93.5095 31.9774 93.826 32.149C94.1425 32.3206 94.4972 32.4094 94.8571 32.4072C95.1771 32.4045 95.4924 32.3303 95.7799 32.1899C96.0674 32.0494 96.3198 31.8464 96.5186 31.5957C96.7174 31.345 96.8575 31.0529 96.9287 30.741C96.9999 30.429 97.0003 30.1051 96.9299 29.7929C96.8595 29.4808 96.7201 29.1884 96.5219 28.9372C96.3237 28.686 96.0718 28.4823 95.7847 28.3412C95.4975 28.2001 95.1824 28.1251 94.8624 28.1216C94.5425 28.1182 94.2258 28.1865 93.9357 28.3214L92 27.1429H82.7143C82.5248 27.1429 82.3432 27.2181 82.2092 27.3521C82.0753 27.486 82 27.6677 82 27.8572C82 28.0466 82.0753 28.2283 82.2092 28.3622C82.3432 28.4962 82.5248 28.5714 82.7143 28.5714H91.6L92.9071 29.3714ZM98.0714 25C98.0714 25.1876 97.9969 25.3674 97.8643 25.5C97.7317 25.6327 97.5518 25.7072 97.3643 25.7072C97.1767 25.7072 96.9969 25.6327 96.8643 25.5C96.7316 25.3674 96.6571 25.1876 96.6571 25C96.6571 24.8125 96.7316 24.6326 96.8643 24.5C96.9969 24.3674 97.1767 24.2929 97.3643 24.2929C97.5518 24.2929 97.7317 24.3674 97.8643 24.5C97.9969 24.6326 98.0714 24.8125 98.0714 25Z" fill="white"/>
</g>
<circle cx="118" cy="25" r="25" fill="#FCB8E1"/>
<g clip-path="url(#clip3_43_17011)">
<path d="M98 5H138V45H98V5Z" fill="#DE252C"/>
<path fill-rule="evenodd" clip-rule="evenodd" d="M108.714 36.7001H114.16C114.967 35.4408 116.721 31.9694 117.286 28.153V13.5715H114.429V18.5715H111.336C111.84 23.143 112.021 33.3608 108.714 36.7001ZM126.571 36.7001H121.126C120.319 35.4408 118.565 31.9694 118 28.153V13.5715H120.857V18.5715H123.95C123.446 23.143 123.264 33.3608 126.571 36.7001Z" fill="white"/>
</g>
<defs>
<clipPath id="clip0_43_17011">
<rect x="5" y="5" width="40" height="40" rx="20" fill="white"/>
</clipPath>
<clipPath id="clip1_43_17011">
<rect x="36" y="5" width="40" height="40" rx="20" fill="white"/>
</clipPath>
<clipPath id="clip2_43_17011">
<rect x="67" y="5" width="40" height="40" rx="20" fill="white"/>
</clipPath>
<clipPath id="clip3_43_17011">
<rect x="98" y="5" width="40" height="40" rx="20" fill="white"/>
</clipPath>
</defs>
</svg>
