<svg width="143" height="50" viewBox="0 0 143 50" fill="none" xmlns="http://www.w3.org/2000/svg">
<circle cx="25" cy="25" r="25" fill="#FCB8E1"/>
<g clip-path="url(#clip0_103_684)">
<path d="M5 5H45V45H5V5Z" fill="#F0F3FA"/>
<path d="M33.5708 33.5685H16.4301V16.4314H33.5708V33.5685Z" fill="white"/>
<path d="M7.85718 24.9999L16.4286 33.5706V16.4277L7.85718 24.9999ZM16.4286 33.5706L33.5715 33.5713L25 24.9999L16.4286 33.5706ZM25 24.9999L33.5715 16.4284H16.4286L25 24.9999ZM33.5715 16.4284V33.5713L42.1429 24.9999L33.5715 16.4284Z" fill="#E71D1C"/>
</g>
<circle cx="56" cy="25" r="25" fill="#FCB8E1"/>
<g clip-path="url(#clip1_103_684)">
<path d="M36 5H76V45H36V5Z" fill="#28539C"/>
<path d="M49.155 19.7908L48.1471 19.3087L48.7993 20.6965L48.0278 22.3858L49.0957 21.7822L50.3993 23.5322L50.1621 21.3608L51.4071 20.6965L50.1621 20.1537L50.34 18.2822L49.155 19.7908ZM52.9707 36.4287C48.1093 35.0901 44.5714 30.5772 44.5714 25.2058C44.5714 18.7808 49.6886 13.5715 56 13.5715C62.3121 13.5715 67.4286 18.7808 67.4286 25.2058C67.4364 28.1749 66.3158 31.0361 64.2936 33.2101C64.2936 33.2101 63.4986 32.1601 63.2607 31.798C63.0236 31.4358 62.6678 31.3908 62.7278 30.893C62.7993 30.2908 63.2607 29.6858 63.2607 29.6858L63.3793 30.1687C63.3793 30.1687 66.7071 26.608 66.3436 24.1958C66.105 22.6272 65.1578 22.4458 65.1578 22.4458C65.1578 22.4458 65.3943 20.998 63.2014 19.9115C61.0086 18.8258 59.3493 19.0065 59.3493 19.0065L60.2978 19.7308C60.2978 19.7308 59.1564 19.5237 58.5786 19.6708L58.1043 19.7915L58.7186 20.093C58.7186 20.093 57.4678 20.1501 56.6228 20.8172C55.9628 21.338 55.9114 21.6622 55.9114 21.6622H56.3857C56.3857 21.6622 55.9707 22.3858 55.8521 23.1101C55.7336 23.8344 55.7857 24.0301 55.7857 24.0301C55.7857 24.0301 55.7857 24.3694 55.1857 24.8222C54.7464 25.153 54.3193 25.2294 54.1857 25.4101C53.9843 25.6837 54.6071 26.1265 54.6071 26.1265C54.6071 26.1265 54.5636 26.4515 54.2743 26.813C54.1421 26.9787 54.6078 27.2658 54.7628 27.3344L54.3857 27.6501C54.3857 27.6501 54.2521 27.7858 54.4743 27.9444C54.6964 28.103 54.6078 28.4422 54.5186 28.8044C54.43 29.1665 54.2521 29.7322 55.4521 29.8672C56.6521 30.003 56.7193 30.2294 56.8307 30.388C56.9414 30.5472 57.6307 32.538 57.275 32.8544C56.7857 33.2901 55.9271 33.1608 54.2743 34.3022C53.0286 35.1615 52.9707 36.4287 52.9707 36.4287Z" fill="white"/>
<path d="M56.7858 23.5542C56.7858 23.5542 57.1858 24.1656 57.3415 24.2785C57.4972 24.3913 57.5415 24.5499 57.4301 24.5728C57.3186 24.5949 56.5408 24.5728 56.5408 24.5728L56.5858 24.4371C56.5858 24.4371 56.5186 24.2563 56.5858 24.0749C56.6522 23.8942 56.8301 23.8263 56.8301 23.8263L56.7858 23.5542Z" fill="white"/>
</g>
<circle cx="87" cy="25" r="25" fill="#FCB8E1"/>
<g clip-path="url(#clip2_103_684)">
<path d="M67 5H107V45H67V5Z" fill="#233746"/>
<path d="M87 13.5715C80.6878 13.5715 75.5707 18.688 75.5707 25.0001C75.5707 31.3115 80.6878 36.4287 86.9993 36.4287C93.3114 36.4287 98.4278 31.3115 98.4278 25.0001C98.4278 18.688 93.3121 13.5715 87 13.5715ZM87 35.8572C81.0028 35.8572 76.1428 30.9958 76.1428 25.0001C76.1428 19.0037 81.0028 14.143 87 14.143C92.9957 14.143 97.8564 19.0037 97.8564 25.0001C97.8564 30.9958 92.9964 35.8572 87 35.8572Z" fill="#F8F8F8"/>
<path d="M97.9385 25.0001C97.9385 31.0408 93.04 35.9386 86.9992 35.9386C80.9585 35.9386 76.0607 31.0408 76.0607 25.0001C76.0607 18.9586 80.9585 14.0608 86.9992 14.0608C93.04 14.0608 97.9385 18.9594 97.9385 25.0001Z" fill="#333333"/>
<path d="M97.8564 25C97.8564 30.9957 92.9957 35.8571 86.9993 35.8571C81.0028 35.8571 76.1428 30.995 76.1428 25C76.1428 19.0035 81.0035 14.1428 87 14.1428C92.9964 14.1428 97.8564 19.0035 97.8564 25Z" fill="#131722"/>
<path d="M94.2786 25C94.2786 29.0193 91.0193 32.2786 86.9993 32.2786C82.9793 32.2786 79.7207 29.0193 79.7207 25C79.7207 20.98 82.9793 17.7214 86.9993 17.7214C91.0193 17.7214 94.2786 20.98 94.2786 25Z" fill="#DFDFDF"/>
<path d="M87.2907 17.5243L88.0472 15.52V17.5243H88.6214V14.6543H87.7572L86.9722 16.7093H86.9793L86.195 14.6543H85.3322V17.5243H85.9064V15.52L86.6622 17.5243H87.2907Z" fill="black"/>
<path d="M95.1714 18.8115L94.1907 20.2422L95.7314 19.4837L96.15 19.9851L93.7243 21.2029L93.2343 20.6101L94.1743 19.1922L94.1685 19.1851L92.605 19.8544L92.1093 19.2651L93.745 17.0994L94.1628 17.6008L93.1385 18.9801L94.7243 18.2729L95.1721 18.8115H95.1714Z" fill="url(#paint0_linear_103_684)"/>
<path d="M81.9165 18.2628C81.685 18.0385 81.3286 17.9707 80.9929 18.1785C81.0437 18.0404 81.0452 17.889 80.9972 17.7499C80.8529 17.4871 80.8022 17.4535 80.6843 17.3542C80.2986 17.0307 79.8929 17.3071 79.6036 17.6521L78.2029 19.3214L80.4043 21.1685L81.8815 19.4085C82.2193 19.0064 82.2715 18.6078 81.9165 18.2628ZM79.0679 19.0678L79.9093 18.0649C80.0072 17.9492 80.2272 17.9542 80.3686 18.0728C80.5243 18.2035 80.525 18.3885 80.42 18.5135L79.5886 19.5042L79.0679 19.0678ZM81.3893 19.2342L80.5122 20.2799L79.9629 19.8185L80.8465 18.7649C80.9465 18.6457 81.1693 18.6114 81.3193 18.7371C81.4886 18.8799 81.505 19.0957 81.3893 19.2342Z" fill="#333333"/>
<path d="M87.2972 17.4137L88.0529 15.4094V17.4137H88.6272V14.543H87.7643L86.9793 16.5973H86.9865L86.2022 14.543H85.3386V17.413H85.9129V15.4087L86.6693 17.413L87.2972 17.4137Z" fill="url(#paint1_radial_103_684)"/>
<path d="M95.1779 18.6187L94.1972 20.0494L95.7379 19.2915L96.1557 19.7929L93.7307 21.0108L93.24 20.4172L94.1807 18.9994L94.175 18.9922L92.6107 19.6622L92.1157 19.0722L93.7514 16.9072L94.1686 17.4087L93.145 18.7872L94.7293 18.0808L95.1779 18.6187Z" fill="url(#paint2_radial_103_684)"/>
<path d="M81.8135 18.2063C81.5828 17.982 81.2257 17.9142 80.8907 18.122C80.9414 17.9839 80.9429 17.8325 80.895 17.6935C80.75 17.4299 80.7 17.397 80.5807 17.2977C80.195 16.9742 79.79 17.2499 79.5007 17.5956L78.1 19.2649L80.3014 21.112L81.7785 19.352C82.1157 18.9499 82.1685 18.5513 81.8135 18.2063ZM78.965 19.0113L79.8064 18.0092C79.9035 17.8927 80.1243 17.897 80.2657 18.0163C80.4214 18.147 80.4221 18.332 80.3171 18.457L79.4857 19.4477L78.965 19.0113ZM81.2864 19.1777L80.4093 20.2227L79.8593 19.7613L80.7435 18.7077C80.8435 18.5892 81.0657 18.5549 81.2157 18.6806C81.3864 18.8235 81.4028 19.0392 81.2871 19.1777H81.2864Z" fill="url(#paint3_radial_103_684)"/>
<path d="M80.165 25C80.165 21.225 83.225 18.165 86.9993 18.165C90.7736 18.165 93.8343 21.225 93.8343 25C93.8343 28.7743 90.7736 31.8343 86.9993 31.8343C83.225 31.8343 80.165 28.7743 80.165 25Z" fill="#F8F8F8"/>
<path d="M80.1543 25H86.9993V18.155C85.1839 18.155 83.4428 18.8762 82.1592 20.1599C80.8755 21.4436 80.1543 23.1846 80.1543 25ZM86.9993 25V31.845C90.78 31.845 93.8443 28.78 93.8443 25H86.9993Z" fill="#3399CC"/>
<path d="M93.9007 24.8786H87.1214V18.0979H86.8785V24.8779H80.0985V25.1208H86.8785V31.9015H87.1214V25.1215H93.9014L93.9007 24.8786Z" fill="#131722"/>
</g>
<circle cx="118" cy="25" r="25" fill="#FCB8E1"/>
<g clip-path="url(#clip3_103_684)">
<path d="M98 5H138V45H98V5Z" fill="#1C2674"/>
<path d="M129.186 24.943C129.134 22.2079 128.015 19.6015 126.068 17.6798C124.121 15.7582 121.5 14.6735 118.764 14.6572C113.071 14.6572 108.579 19.3001 108.579 25.0001H106.571C106.571 18.7001 111.543 13.693 117.807 13.5715C124.064 13.5715 129.279 18.6715 129.279 24.943H129.186Z" fill="white"/>
<path d="M129.071 25.0572C129.071 20.4429 125.414 16.75 120.771 16.75C116.157 16.75 112.836 20.35 112.836 25H110.586C110.586 19.7858 114.843 15.7 120.05 15.5786C125.143 15.5786 129.279 20.3215 129.4 24.9358L129.071 25.0572Z" fill="white"/>
<path d="M129.186 24.9428C129.186 21.607 126.343 18.8785 122.929 18.8785C119.486 18.8785 117 21.5785 117 24.9999H114.843C114.843 20.9785 117.929 17.6785 121.936 17.6785C125.95 17.6785 129.157 21.007 129.279 24.907H129.186V24.9428ZM106.814 25.057C106.755 26.4498 106.978 27.8401 107.471 29.1441C107.964 30.448 108.716 31.6386 109.682 32.6438C110.647 33.649 111.807 34.4479 113.09 34.9925C114.373 35.537 115.754 35.8157 117.148 35.8118C118.542 35.808 119.92 35.5216 121.201 34.97C122.481 34.4183 123.636 33.6129 124.596 32.6024C125.556 31.5919 126.302 30.3972 126.787 29.0905C127.273 27.7838 127.489 26.3923 127.421 24.9999H129.429C129.429 28.0186 128.234 30.9147 126.106 33.056C123.979 35.1972 121.09 36.4096 118.071 36.4285C111.814 36.4285 106.721 31.3285 106.6 25.057H106.814Z" fill="white"/>
<path d="M106.814 24.9429C106.814 29.5572 110.464 33.25 115.107 33.25C119.75 33.25 123.164 29.65 123.05 25H125.293C125.293 30.2143 121.043 34.4214 115.95 34.4214C110.736 34.4214 106.6 29.6786 106.6 25.0643L106.814 24.9429Z" fill="white"/>
<path d="M106.693 25.0571C106.767 26.6747 107.456 28.203 108.619 29.3299C109.782 30.4569 111.331 31.0977 112.95 31.1214C116.4 31.1214 118.879 28.4214 118.879 25H121.007C121.007 29.0214 117.921 32.3214 113.907 32.3214C112.955 32.3215 112.013 32.1332 111.135 31.7675C110.256 31.4019 109.459 30.866 108.788 30.1908C108.117 29.5156 107.587 28.7143 107.228 27.8333C106.868 26.9522 106.686 26.0087 106.693 25.0571Z" fill="white"/>
</g>
<defs>
<linearGradient id="paint0_linear_103_684" x1="92.8607" y1="17.8115" x2="97.0993" y2="22.6051" gradientUnits="userSpaceOnUse">
<stop stop-color="#1A1E21"/>
<stop offset="1" stop-color="#06060A"/>
</linearGradient>
<radialGradient id="paint1_radial_103_684" cx="0" cy="0" r="1" gradientUnits="userSpaceOnUse" gradientTransform="translate(72.5122 12.6737) scale(39.0149 39.0149)">
<stop offset="0.31" stop-color="#FDFDFD"/>
<stop offset="0.451" stop-color="#F6F6F6"/>
</radialGradient>
<radialGradient id="paint2_radial_103_684" cx="0" cy="0" r="1" gradientUnits="userSpaceOnUse" gradientTransform="translate(72.5107 12.6737) scale(39.0182 39.0182)">
<stop offset="0.451" stop-color="#F6F6F6"/>
<stop offset="0.557" stop-color="#E9E9E9"/>
<stop offset="0.646" stop-color="#D7D7D7"/>
</radialGradient>
<radialGradient id="paint3_radial_103_684" cx="0" cy="0" r="1" gradientUnits="userSpaceOnUse" gradientTransform="translate(72.5085 12.662) scale(39.0481 39.0481)">
<stop stop-color="white"/>
<stop offset="0.31" stop-color="#FDFDFD"/>
</radialGradient>
<clipPath id="clip0_103_684">
<rect x="5" y="5" width="40" height="40" rx="20" fill="white"/>
</clipPath>
<clipPath id="clip1_103_684">
<rect x="36" y="5" width="40" height="40" rx="20" fill="white"/>
</clipPath>
<clipPath id="clip2_103_684">
<rect x="67" y="5" width="40" height="40" rx="20" fill="white"/>
</clipPath>
<clipPath id="clip3_103_684">
<rect x="98" y="5" width="40" height="40" rx="20" fill="white"/>
</clipPath>
</defs>
</svg>
