<svg width="143" height="50" viewBox="0 0 143 50" fill="none" xmlns="http://www.w3.org/2000/svg">
<circle cx="25" cy="25" r="25" fill="#FB8B6C"/>
<g clip-path="url(#clip0_103_659)">
<path d="M5 5H45V45H5V5Z" fill="#016849"/>
<path d="M32.7779 27.2222C32.7779 32.1115 29.2779 36.1115 25 36.1115C20.7222 36.1115 17.2222 32.1115 17.2222 27.2222C17.2222 22.3336 25 11.6665 25 11.6665C25 11.6665 32.7779 22.3336 32.7779 27.2222Z" fill="white"/>
</g>
<circle cx="56" cy="25" r="25" fill="#FB8B6C"/>
<g clip-path="url(#clip1_103_659)">
<path d="M36 5H76V45H36V5Z" fill="#42A5F5"/>
<path d="M63.3357 18.0265C63.3357 18.2244 62.6664 22.2436 60.66 23.8958C63.3464 15.4601 56.0115 10.7144 56.0115 10.7144C56.0115 10.7144 54.8743 16.9801 52.6665 19.3479C52.5443 16.6501 50.995 14.9979 50.995 14.9979C49.8793 19.8765 46 24.0936 46 27.2544C45.9886 32.7379 50.4479 37.1429 56 37.1429C61.5407 37.1429 66 32.7379 66 27.2544C66 23.3008 64.8743 20.4051 63.3357 18.0265Z" fill="white"/>
</g>
<circle cx="87" cy="25" r="25" fill="#FB8B6C"/>
<g clip-path="url(#clip2_103_659)">
<path d="M67 5H107V45H67V5Z" fill="#ADABB8"/>
<path d="M82.1764 20.3964H92.0228L90.5871 16.5442C90.5313 16.3862 90.4292 16.2486 90.2942 16.1492L82.1764 20.3964ZM82.1492 15.8242C82.4985 14.8871 83.2657 14.2856 84.1114 14.2856H89.9328C90.7792 14.2856 91.5471 14.8871 91.8957 15.8242L93.3307 19.6764C93.7607 20.8321 93.0657 22.1428 92.0228 22.1428H82.0228C80.98 22.1428 80.2842 20.8321 80.7142 19.6764L82.1492 15.8242ZM74.31 30.3964H84.1364L82.7021 26.5442C82.6459 26.386 82.5434 26.2483 82.4078 26.1492L74.31 30.3964ZM74.2828 25.8242C74.6321 24.8871 75.4 24.2856 76.245 24.2856H82.0478C82.8935 24.2856 83.6607 24.8871 84.0099 25.8242L85.445 29.6764C85.8757 30.8321 85.18 32.1428 84.1357 32.1428H74.155C73.1121 32.1428 72.4171 30.8321 72.8478 29.6764L74.2828 25.8242ZM99.9185 30.3964H90.0257L98.19 26.1499C98.3171 26.2399 98.4207 26.3756 98.4842 26.5449L99.9185 30.3964ZM91.9592 24.2856C91.1135 24.2856 90.3464 24.8871 89.9978 25.8242L88.5621 29.6764C88.1328 30.8321 88.8278 32.1428 89.8714 32.1428H99.9185C100.961 32.1428 101.657 30.8321 101.226 29.6764L99.7907 25.8242C99.4442 24.8871 98.6757 24.2856 97.8307 24.2856H91.9592Z" fill="white"/>
</g>
<circle cx="118" cy="25" r="25" fill="#FB8B6C"/>
<g clip-path="url(#clip3_103_659)">
<path d="M98 5H138V45H98V5Z" fill="#FFD600"/>
<path d="M113 13.9443C113 13.31 112.531 12.8572 111.929 12.8572C111.326 12.8572 110.857 13.31 110.857 13.9443V26.5529C110.916 27.7534 111.326 28.9103 112.036 29.88C112.754 30.87 113.754 31.6629 114.929 32.1729L116.929 32.9872V36.77C116.929 37.4043 117.397 37.8572 118 37.8572C118.603 37.8572 119.071 37.4043 119.071 36.77V32.9879L121.071 32.1722C122.264 31.6543 123.275 30.845 123.994 29.8336C124.706 28.8433 125.106 27.6632 125.143 26.4443V13.9443C125.143 13.31 124.674 12.8572 124.071 12.8572C123.469 12.8572 123 13.31 123 13.9443V17.1429L119.071 18.8358V16.8343C119.071 16.2007 118.603 15.7143 118 15.7143C117.397 15.7143 116.929 16.2 116.929 16.8343V18.8358L113 17.1429V13.9443Z" fill="white"/>
</g>
<defs>
<clipPath id="clip0_103_659">
<rect x="5" y="5" width="40" height="40" rx="20" fill="white"/>
</clipPath>
<clipPath id="clip1_103_659">
<rect x="36" y="5" width="40" height="40" rx="20" fill="white"/>
</clipPath>
<clipPath id="clip2_103_659">
<rect x="67" y="5" width="40" height="40" rx="20" fill="white"/>
</clipPath>
<clipPath id="clip3_103_659">
<rect x="98" y="5" width="40" height="40" rx="20" fill="white"/>
</clipPath>
</defs>
</svg>
