<svg width="150" height="50" viewBox="0 0 150 50" fill="none" xmlns="http://www.w3.org/2000/svg">
<circle cx="32.1428" cy="17.8571" r="17.8571" fill="#83E09E"/>
<g clip-path="url(#clip0_43_16899)">
<path d="M17.8572 3.57153H46.4286V32.143H17.8572V3.57153Z" fill="#0D47A1"/>
<path d="M32.1429 9.92074V3.57153H17.8572V17.8572H24.2064V13.0953L28.9683 17.8572H32.1429V14.6826L27.381 9.92074H32.1429Z" fill="#F8F9FD"/>
<path d="M22.6191 5.15883V3.57153H19.4445V5.15883H17.8572V8.33344H19.4445V17.8572H22.6191V8.33344H32.1429V5.15883H22.6191Z" fill="#EF5350"/>
<path d="M32.1429 16.2699L25.7937 9.92065H24.2064L32.1429 17.8572V16.2699Z" fill="#EF5350"/>
<path d="M28.9683 24.2063L27.381 25V25.7936H26.5873L25.7937 27.3809L25 25.7936H24.2064V25L22.6191 24.2063L24.2064 23.4127V22.619H25L25.7937 21.0317L26.5873 22.619H27.381V23.4127L28.9683 24.2063Z" fill="#F8F9FD"/>
<path d="M38.5873 23.6032L38.9842 24.4286L39.8731 24.2222L39.4762 25.0318L40.1905 25.6032L39.3016 25.7937V26.7143L38.5873 26.1429L37.8889 26.7143V25.7937L37 25.6032L37.7143 25.0318L37.3175 24.2222L38.2064 24.4286L38.5873 23.6032ZM34.9524 14.9048L35.3334 15.7302L36.2223 15.5238L35.8254 16.3333L36.5397 16.9048L35.6508 17.1111V18.0159L34.9524 17.4445L34.2381 18.0159V17.1111L33.3492 16.9048L34.0635 16.3333L33.6667 15.5238L34.5556 15.7302L34.9524 14.9048ZM38.5873 9.93652L38.9842 10.7619L39.8731 10.5556L39.4762 11.3651L40.1905 11.9365L39.3016 12.127V13.0476L38.5873 12.4762L37.8889 13.0476V12.127L37 11.9365L37.7143 11.3651L37.3175 10.5556L38.2064 10.7619L38.5873 9.93652ZM41.7778 13.6667L42.1746 14.4921L43.0635 14.2857L42.6667 15.0953L43.3651 15.6667L42.4921 15.8572V16.7778L41.7778 16.2064L41.0635 16.7778V15.8572L40.1905 15.6667L40.9048 15.0953L40.508 14.2857L41.381 14.4921L41.7778 13.6667ZM39.508 18.0159L39.8254 18.9683H40.8096L40.0159 19.5556L40.3175 20.508L39.508 19.9048L38.6984 20.4921L39.0159 19.5397L38.1905 18.9683H39.1905L39.508 18.0159Z" fill="#F8F9FD"/>
</g>
<circle cx="17.8571" cy="32.1428" r="17.8571" fill="#83E09E"/>
<g clip-path="url(#clip1_43_16899)">
<path d="M3.57141 17.8572H32.1428V46.4286H3.57141V17.8572Z" fill="#1565C0"/>
<path d="M17.7778 21.0317L18.3651 22.8413H20.2698L18.7302 23.9524L19.3175 25.7619L17.7778 24.6508L16.254 25.7619L16.8254 23.9682L15.3016 22.8571H17.2064L17.7619 21.0317H17.7778ZM9.98413 24.2698L11.6825 25.127L13.0159 23.7936L12.7302 25.6667L14.4127 26.5238L12.5397 26.8254L12.2381 28.6984L11.381 27.0159L9.50794 27.3016L10.8413 25.9682L9.98413 24.2698ZM6.74603 32.0635L8.55556 31.4762V29.5714L9.66667 31.1111L11.4921 30.5555L10.381 32.0794L11.4921 33.619L9.69841 33.0317L8.5873 34.5714V32.6667L6.74603 32.0635ZM9.98413 39.8571L10.8413 38.1746L9.50794 36.8254L11.381 37.127L12.2381 35.4286L12.5397 37.3175L14.4127 37.6032L12.7302 38.4762L13.0159 40.3492L11.6825 39L9.98413 39.8571ZM17.7778 43.0952L17.1905 41.2857H15.2857L16.8254 40.1746L16.2698 38.3651L17.7937 39.4762L19.3333 38.3651L18.746 40.1746L20.2857 41.2857H18.381L17.7937 43.0952H17.7778ZM25.5714 39.8571L23.8889 39L22.5397 40.3492L22.8413 38.4762L21.1429 37.6032L23.0317 37.3175L23.3175 35.4286L24.1905 37.127L26.0635 36.8254L24.7143 38.1746L25.5714 39.8571ZM28.8095 32.0635L27 32.6508V34.5555L25.8889 33.0159L24.0794 33.6032L25.1905 32.0635L24.0794 30.5397L25.8889 31.1111L27 29.5873V31.4921L28.8095 32.0635ZM25.5714 24.2698L24.7143 25.9682L26.0635 27.3016L24.1905 27.0159L23.3175 28.6984L23.0317 26.8254L21.1429 26.5238L22.8413 25.6667L22.5397 23.7936L23.8889 25.127L25.5714 24.2698Z" fill="#FDD835"/>
</g>
<circle cx="82.1429" cy="17.8571" r="17.8571" fill="#83E09E"/>
<g clip-path="url(#clip2_43_16899)">
<path d="M67.8574 3.57153H96.4288V32.143H67.8574V3.57153Z" fill="#0D47A1"/>
<path d="M82.1431 9.92074V3.57153H67.8574V17.8572H74.2066V13.0953L78.9685 17.8572H82.1431V14.6826L77.3812 9.92074H82.1431Z" fill="#F8F9FD"/>
<path d="M72.6193 5.15883V3.57153H69.4447V5.15883H67.8574V8.33344H69.4447V17.8572H72.6193V8.33344H82.1431V5.15883H72.6193Z" fill="#EF5350"/>
<path d="M82.1431 16.2699L75.7938 9.92065H74.2065L82.1431 17.8572V16.2699Z" fill="#EF5350"/>
<path d="M78.9685 24.2063L77.3812 25V25.7936H76.5875L75.7939 27.3809L75.0002 25.7936H74.2066V25L72.6193 24.2063L74.2066 23.4127V22.619H75.0002L75.7939 21.0317L76.5875 22.619H77.3812V23.4127L78.9685 24.2063Z" fill="#F8F9FD"/>
<path d="M88.5875 23.6032L88.9843 24.4286L89.8732 24.2222L89.4764 25.0318L90.1907 25.6032L89.3018 25.7937V26.7143L88.5875 26.1429L87.8891 26.7143V25.7937L87.0002 25.6032L87.7145 25.0318L87.3177 24.2222L88.2066 24.4286L88.5875 23.6032ZM84.9526 14.9048L85.3336 15.7302L86.2224 15.5238L85.8256 16.3333L86.5399 16.9048L85.651 17.1111V18.0159L84.9526 17.4445L84.2383 18.0159V17.1111L83.3494 16.9048L84.0637 16.3333L83.6669 15.5238L84.5558 15.7302L84.9526 14.9048ZM88.5875 9.93652L88.9843 10.7619L89.8732 10.5556L89.4764 11.3651L90.1907 11.9365L89.3018 12.127V13.0476L88.5875 12.4762L87.8891 13.0476V12.127L87.0002 11.9365L87.7145 11.3651L87.3177 10.5556L88.2066 10.7619L88.5875 9.93652ZM91.778 13.6667L92.1748 14.4921L93.0637 14.2857L92.6669 15.0953L93.3653 15.6667L92.4923 15.8572V16.7778L91.778 16.2064L91.0637 16.7778V15.8572L90.1907 15.6667L90.905 15.0953L90.5082 14.2857L91.3812 14.4921L91.778 13.6667ZM89.5082 18.0159L89.8256 18.9683H90.8097L90.0161 19.5556L90.3177 20.508L89.5082 19.9048L88.6986 20.4921L89.0161 19.5397L88.1907 18.9683H89.1907L89.5082 18.0159Z" fill="#F8F9FD"/>
</g>
<circle cx="67.8572" cy="32.1428" r="17.8571" fill="#83E09E"/>
<g clip-path="url(#clip3_43_16899)">
<path d="M53.5716 17.8572H82.143V46.4286H53.5716V17.8572Z" fill="white"/>
<path d="M64.6827 17.8572H55.1589L64.6827 26.5873V17.8572ZM71.0319 17.8572V27.381L81.3494 17.8572H71.0319ZM82.143 25L77.3811 28.9683H82.143V25ZM82.143 35.3175H75.7938L82.143 40.8731V35.3175ZM80.5557 46.4286L71.0319 37.6984V46.4286H80.5557ZM64.6827 46.4286V36.9048L54.3652 46.4286H64.6827ZM53.5716 39.2857L58.3335 35.3175H53.5716V39.2857ZM53.5716 28.9683H59.9208L53.5716 23.4127V28.9683Z" fill="#0D47A1"/>
<path d="M64.6827 28.9683L43.2541 9.92065V13.5714L61.5081 28.9683H64.6827ZM66.27 30.5556V17.8572H69.4446V30.5556H82.143V33.7302H69.4446V46.4286H66.27V33.7302H53.5716V30.5556H66.27ZM39.2859 54.3651L61.5081 35.3175H64.6827L43.2541 54.3651H39.2859ZM71.0319 28.9683L90.0795 11.508H93.5716L74.2065 28.9683H71.0319ZM74.2065 35.3175H71.0319L89.2859 51.1905V48.0159L74.2065 35.3175Z" fill="#EF5350"/>
</g>
<circle cx="132.143" cy="17.8571" r="17.8571" fill="#83E09E"/>
<g clip-path="url(#clip4_43_16899)">
<path d="M117.857 3.57153H146.428V32.143H117.857V3.57153Z" fill="#F8F9FD"/>
<path d="M117.857 13.0955H146.428V32.1431H117.857V13.0955Z" fill="#1E88E5"/>
<path d="M117.857 22.6191H146.428V32.143H117.857V22.6191Z" fill="#EF5350"/>
</g>
<circle cx="117.857" cy="32.1428" r="17.8571" fill="#83E09E"/>
<g clip-path="url(#clip5_43_16899)">
<path d="M103.571 17.8572H132.143V46.4286H103.571V17.8572Z" fill="#EF5350"/>
<path d="M114.111 27.2223L107.524 32.0953L110.032 24.2064L112.555 32.143L105.952 27.2699H114.111V27.2223ZM116.412 22.9525L118.92 24.016L116.27 24.6191L118.047 22.6191L117.809 25.2858L116.412 22.9525ZM119.428 25.7937L121.333 27.7144L118.651 27.2858L121.095 26.1271L119.825 28.5239L119.428 25.7937ZM119.968 29.762L120.905 32.3017L118.651 30.7144H121.365L119.222 32.3017L119.968 29.762ZM117.968 32.9366L117.841 35.6985L116.349 33.381L118.889 34.3334L116.27 35.0477L117.968 32.9366Z" fill="#FFEB3B"/>
</g>
<defs>
<clipPath id="clip0_43_16899">
<rect x="17.8572" y="3.57153" width="28.5714" height="28.5714" rx="14.2857" fill="white"/>
</clipPath>
<clipPath id="clip1_43_16899">
<rect x="3.57141" y="17.8572" width="28.5714" height="28.5714" rx="14.2857" fill="white"/>
</clipPath>
<clipPath id="clip2_43_16899">
<rect x="67.8574" y="3.57153" width="28.5714" height="28.5714" rx="14.2857" fill="white"/>
</clipPath>
<clipPath id="clip3_43_16899">
<rect x="53.5716" y="17.8572" width="28.5714" height="28.5714" rx="14.2857" fill="white"/>
</clipPath>
<clipPath id="clip4_43_16899">
<rect x="117.857" y="3.57153" width="28.5714" height="28.5714" rx="14.2857" fill="white"/>
</clipPath>
<clipPath id="clip5_43_16899">
<rect x="103.571" y="17.8572" width="28.5714" height="28.5714" rx="14.2857" fill="white"/>
</clipPath>
</defs>
</svg>
