<svg width="143" height="50" viewBox="0 0 143 50" fill="none" xmlns="http://www.w3.org/2000/svg">
<circle cx="25" cy="25" r="25" fill="#49B3E8"/>
<g clip-path="url(#clip0_103_727)">
<path d="M5 5H45V45H5V5Z" fill="#EB0A1E"/>
<path d="M24.1049 32.6992C22.6064 31.8349 21.5028 28.852 21.5028 25.3085C21.5028 25.1785 21.5042 25.0506 21.5071 24.9228L21.5085 24.9242C17.3421 24.3213 14.3314 22.6685 14.2542 20.7149L14.2421 20.737C13.2228 21.9042 12.6407 23.2535 12.6407 24.6913C12.6407 28.9213 17.6828 32.3878 24.0778 32.6942L24.1049 32.6992ZM10.7142 24.9992C10.7142 20.267 17.1099 16.4285 24.9999 16.4285C32.8899 16.4285 39.2857 20.2663 39.2857 24.9999C39.2857 29.7335 32.8899 33.5713 24.9999 33.5713C17.1099 33.5713 10.7142 29.7328 10.7142 24.9992ZM24.9999 17.6656C26.5228 17.6656 27.8185 19.7942 28.2985 22.7628L28.3007 22.7585C31.2635 22.3335 33.3385 21.3535 33.3385 20.2128C33.3385 18.6828 29.6049 17.4435 24.9999 17.4435C20.3949 17.4435 16.6614 18.6828 16.6614 20.2128C16.6614 21.3535 18.7364 22.3335 21.6992 22.7585L21.7014 22.7628C22.1814 19.7935 23.4771 17.6656 24.9999 17.6656ZM25.9221 32.6942C32.3171 32.3878 37.3599 28.9213 37.3599 24.6913C37.3599 23.2535 36.7771 21.9042 35.7578 20.737L35.7457 20.7149C35.6685 22.6685 32.6585 24.3213 28.4914 24.9242L28.4928 24.922C28.4957 25.0506 28.4971 25.1792 28.4971 25.3085C28.4971 28.852 27.3928 31.8349 25.8957 32.6992L25.9221 32.6942ZM24.9999 22.9835C25.6821 22.9835 26.3457 22.9563 26.9807 22.9049L26.9792 22.9063C26.6635 21.0028 25.8964 19.6592 24.9999 19.6592C24.1035 19.6592 23.3364 21.002 23.0199 22.9063V22.9049C23.6542 22.9563 24.3178 22.9835 24.9999 22.9835ZM24.9999 30.032C26.1464 30.032 27.0821 27.8342 27.1321 25.077L27.1378 25.0792C26.4471 25.1385 25.7321 25.1692 24.9999 25.1692C24.2678 25.1692 23.5535 25.1385 22.8621 25.0792L22.8685 25.077C22.9178 27.8342 23.8528 30.032 24.9999 30.032Z" fill="white"/>
</g>
<circle cx="56" cy="25" r="25" fill="#49B3E8"/>
<g clip-path="url(#clip1_103_727)">
<path d="M36 5H76V45H36V5Z" fill="#1B2F3F"/>
<path d="M55.285 23.1285V23.7113C55.2958 23.8949 55.2136 24.2649 54.7972 24.2785C54.38 24.2913 50.6986 24.2842 48.9108 24.2785C48.7536 24.2728 48.3522 24.1814 48.0022 23.8614C47.6522 23.5413 44.8858 20.7721 43.545 19.4271C43.2765 19.1721 42.9086 18.5499 43.3436 18.0771C43.6908 17.7006 44.4093 17.8806 44.7565 18.0771L54.6458 22.3614C54.8586 22.4221 55.285 22.6621 55.285 23.1285ZM56.715 23.1285V23.7113C56.7043 23.8949 56.7865 24.2649 57.2029 24.2785C57.62 24.2913 61.3015 24.2842 63.0893 24.2785C63.2465 24.2728 63.6479 24.1814 63.9979 23.8614C64.3479 23.5413 67.1143 20.7721 68.455 19.4271C68.7236 19.1721 69.0915 18.5499 68.6565 18.0771C68.3093 17.7006 67.5908 17.8806 67.2436 18.0771L57.3543 22.3614C57.1415 22.4221 56.715 22.6621 56.715 23.1285ZM55.2858 26.2856V26.8692C55.2858 27.3356 54.8593 27.5749 54.6465 27.6356L44.7572 31.9199C44.41 32.1163 43.6915 32.2971 43.3443 31.9199C42.9093 31.4471 43.2772 30.8256 43.5465 30.5699C44.8865 29.2249 47.6536 26.4556 48.0036 26.1356C48.3536 25.8156 48.7543 25.7242 48.9108 25.7185C50.6993 25.7135 54.3808 25.7056 54.7979 25.7185C55.215 25.7328 55.2965 26.1021 55.2858 26.2856ZM56.7158 26.8714V26.2885C56.705 26.1049 56.7872 25.7349 57.2036 25.7214C57.6208 25.7085 61.3022 25.7156 63.09 25.7214C63.2472 25.7271 63.6486 25.8185 63.9986 26.1385C64.3486 26.4585 67.115 29.2278 68.4558 30.5728C68.7243 30.8278 69.0922 31.4499 68.6572 31.9228C68.31 32.2992 67.5915 32.1192 67.2443 31.9228L57.355 27.6385C57.1422 27.5778 56.7158 27.3378 56.7158 26.8714Z" fill="white"/>
</g>
<circle cx="87" cy="25" r="25" fill="#49B3E8"/>
<g clip-path="url(#clip2_103_727)">
<path d="M67 5H107V45H67V5Z" fill="#E40001"/>
<path d="M100.765 22.1428C98.2265 22.1428 96.2858 23.5035 96.2858 25.8743C96.2858 27.8743 98.0515 29.2857 100.422 29.2857C102.222 29.2857 103.715 27.9421 104.143 27.0943C104.143 26.83 103.886 26.7207 103.647 26.7207C103.234 27.375 102.068 27.8743 101.589 27.855C98.7237 27.7464 98.2608 26.5635 98.2265 25.3278C98.1723 23.9807 99.5815 22.8143 100.783 22.9021C101.484 22.9571 101.726 24.1414 102.34 24.5635C102.532 24.6721 102.977 24.6543 103.269 24.6014C103.492 24.5635 104.09 24.4228 104.09 23.8921C104.09 23.4507 103.559 22.9571 103.046 22.6378C102.532 22.3914 101.382 22.1428 100.765 22.1428ZM83.3001 27.3728C83.3001 28.4721 83.0237 29.055 82.1487 29.1071L82.1694 29.2857C83.6323 29.2685 85.1187 29.2857 86.5458 29.2521L86.563 29.1614C85.903 29.1614 85.3937 28.4514 85.3937 27.5685V24.6085C85.3937 23.8835 86.2637 23.4207 86.8594 23.4757C87.7808 23.5614 88.2894 24.1635 88.2894 24.6971V27.6035C88.2894 28.49 88.0265 29.0392 87.348 29.0893V29.2521H91.3608V29.1264C90.7644 29.055 90.3465 28.505 90.3465 27.6728V24.625C90.3465 23.9707 90.9065 23.5278 91.9008 23.5107C92.7737 23.4914 93.2965 24.1485 93.2965 24.7685V27.5307C93.2965 28.4721 93.018 29.055 92.3215 29.1264V29.2521C93.7858 29.2685 94.9858 29.2685 96.4344 29.2521V29.1614C95.6687 29.1614 95.4087 28.6471 95.4087 27.5685V24.5193C95.4087 23.5107 94.8658 22.305 93.348 22.305C92.3215 22.305 91.5658 22.8178 91.1358 22.9628C90.838 23.0843 90.6273 23.2257 90.5551 23.2257C90.4194 23.2257 90.2637 23.1385 90.0694 22.9264C89.7015 22.5321 89.0423 22.305 88.3423 22.305C87.4523 22.305 86.563 22.8178 86.1423 22.9628C86.0937 22.9793 85.7787 23.1385 85.7423 23.1385C85.6744 23.1385 85.3937 23.1385 85.3937 23.1043C85.3937 22.2543 85.4115 22.1428 85.4115 22.1428H84.8351C84.6644 22.1428 84.3623 22.3943 84.0158 22.5321C83.5965 22.7121 82.7587 22.6928 82.4137 22.785V23.385L83.3173 23.5621V24.7328L83.3001 27.3728Z" fill="white"/>
<path d="M79.3515 29.1644C80.9029 29.0951 82.3943 28.7615 82.3943 27.2786C82.3943 26.1979 81.1993 25.5151 79.9365 24.9751C79.1236 24.6422 77.9472 24.1536 77.9472 23.7694C77.9472 23.3151 78.8429 22.4422 79.7057 23.1408L81.1986 24.3801L81.8872 24.2408L81.5029 22.3908C81.1486 22.4079 80.9029 22.4265 79.6172 22.2151C78.0329 21.9886 76.1529 22.7758 76.1529 24.2408C76.1529 25.2194 77.5786 25.8994 78.705 26.3544C79.3193 26.6158 80.4107 27.0001 80.4107 27.5922C80.4107 28.1686 79.3893 28.3279 78.8107 28.3279C77.825 28.3279 76.7322 27.0165 76.7322 27.0165H76.085L76.4365 28.9744C76.5565 28.8672 76.9986 28.8851 77.0879 28.9208C77.4022 29.0401 78.5457 29.2179 79.3515 29.1644ZM75.6236 23.2286V22.3208L73.7086 22.3379C73.4643 22.3379 73.48 22.2858 73.48 21.9715L73.4986 20.7301L72.5315 20.7144C72.2336 21.3758 71.8636 21.8144 71.6536 21.9015L69.8572 22.6844V23.2451L70.5286 23.2644C70.8286 23.2644 70.95 23.2451 70.95 23.5958V27.2786C70.95 28.3979 71.5643 29.2179 73.15 29.2522C74.3415 29.2858 75.065 28.7615 75.5736 28.2736L75.4336 27.8015C75.22 27.9429 75.0479 28.0644 74.7643 28.0644C73.4122 28.0644 73.4472 27.0165 73.4472 26.0901V23.5958C73.4472 23.2279 73.4793 23.2279 73.7272 23.2279H75.6236V23.2286Z" fill="white"/>
</g>
<circle cx="118" cy="25" r="25" fill="#49B3E8"/>
<g clip-path="url(#clip3_103_727)">
<path d="M98 5H138V45H98V5Z" fill="#003E6C"/>
<path d="M112.645 27.8571C111.432 27.8571 110.307 27.5043 109.555 26.85C109.289 26.6204 109.076 26.3356 108.931 26.0154C108.785 25.6952 108.712 25.3472 108.714 24.9957C108.714 24.3135 108.999 23.6378 109.555 23.1457C110.253 22.53 111.485 22.1435 112.645 22.1435C113.929 22.1435 114.957 22.4571 115.742 23.1478C116.005 23.3781 116.215 23.6623 116.358 23.981C116.501 24.2998 116.574 24.6456 116.572 24.995C116.569 25.3447 116.494 25.6901 116.351 26.0095C116.209 26.3288 116.002 26.6152 115.743 26.8507C115.01 27.5085 113.862 27.8571 112.645 27.8571L112.644 27.1035C113.289 27.1035 113.886 26.8878 114.303 26.4857C114.717 26.0857 114.91 25.595 114.91 24.995C114.91 24.42 114.702 23.8821 114.303 23.5014C113.892 23.1085 113.279 22.8871 112.644 22.8871C112.007 22.8871 111.396 23.1057 110.984 23.5014C110.587 23.8821 110.379 24.4214 110.379 24.9943C110.379 25.5664 110.589 26.1057 110.984 26.4857C111.396 26.8835 112.005 27.1035 112.644 27.1035L112.645 27.8571ZM102.568 22.5357C103.162 22.2614 103.861 22.1428 104.475 22.1428C105.561 22.1443 106.445 22.51 106.759 22.68C106.883 22.7507 106.949 22.665 106.949 22.5993V22.395H107.649V24.1521H107.022C106.968 23.8928 106.832 23.6578 106.634 23.4821C106.514 23.3846 106.382 23.303 106.241 23.2393C105.867 23.0678 105.28 22.9035 104.587 22.9064C104.001 22.9064 103.438 23.0185 103.159 23.1993C102.984 23.3121 102.895 23.4521 102.895 23.6178C102.895 23.8507 103.089 23.9464 103.184 23.9764C103.499 24.0764 104.284 24.1443 104.738 24.1928C105.171 24.24 106.074 24.3643 106.474 24.4664C106.68 24.5185 106.932 24.6114 107.092 24.6885C107.275 24.7778 107.45 24.8928 107.594 25.0414C107.7 25.1507 108 25.5093 108 26.0864C108 26.6885 107.655 27.02 107.498 27.1493C107.207 27.3885 106.85 27.5421 106.561 27.6278C106.254 27.7178 105.809 27.8571 104.982 27.8571C104.475 27.8571 104.212 27.7943 103.804 27.7057C103.415 27.6177 103.035 27.4908 102.67 27.3271C102.539 27.2664 102.502 27.3943 102.502 27.425V27.6978H101.727V25.6793H102.424C102.424 25.9185 102.534 26.1607 102.604 26.2485C102.886 26.6035 103.188 26.7435 103.476 26.8485C103.724 26.9414 104.409 27.1178 104.978 27.1178C105.749 27.1178 106.178 26.9143 106.24 26.8893C106.302 26.8635 106.66 26.7435 106.66 26.3521C106.66 25.9593 106.321 25.8864 106.119 25.8335C105.864 25.7671 105.24 25.7014 104.606 25.6321C103.967 25.5635 103.324 25.4593 103.024 25.3914C102.353 25.24 102.096 24.9814 101.937 24.83C101.947 24.84 101.572 24.4828 101.572 23.8728C101.572 23.1964 102.02 22.7878 102.568 22.5357ZM129.99 27.1314C129.966 27.1393 129.84 27.1435 129.812 27.1435H129.126V27.8571H132.647V27.1428H131.929C131.9 27.1428 131.777 27.1393 131.752 27.1307C131.682 27.1071 131.611 27.0521 131.589 26.9935C131.575 26.9571 131.575 26.8621 131.575 26.8393V25.7178C131.575 25.6907 131.573 25.645 131.599 25.6121C131.649 25.55 133.549 23.2293 133.63 23.1278C133.807 22.905 133.903 22.8564 134.137 22.8564H134.786V22.1428H131.886V22.8571H132.323C132.447 22.8571 132.486 23.0014 132.429 23.0778C132.419 23.09 131.213 24.6664 131.199 24.6821C131.183 24.6978 131.174 24.6935 131.163 24.6771C131.152 24.66 129.961 23.0757 129.961 23.0757C129.877 22.96 129.942 22.8557 130.041 22.8557H130.467V22.1428H126.929V22.8571H127.556C127.829 22.8571 128.009 23.0493 128.112 23.1735C128.194 23.2735 130.054 25.5464 130.1 25.6121C130.142 25.6728 130.143 25.6843 130.143 25.7121V26.8393C130.143 26.8628 130.138 26.97 130.129 26.9943C130.117 27.0258 130.098 27.0544 130.075 27.0781C130.051 27.1018 130.022 27.12 129.99 27.1314ZM123.714 25.7143L119.986 22.1428H116.929V22.8571H117.53C117.965 22.8571 118 23.1278 118 23.3428V26.6857C118 26.8857 118.011 27.1435 117.734 27.1435H116.993V27.8728L120.514 27.8571V27.1428H119.739C119.431 27.1428 119.432 26.9964 119.429 26.6857V23.9285L123.761 27.8571H125.143V23.27C125.147 22.9371 125.19 22.8571 125.522 22.8571H126.214V22.1428H122.629V22.8571H123.339C123.664 22.8571 123.719 22.9871 123.724 23.3L123.714 25.7143Z" fill="white"/>
</g>
<defs>
<clipPath id="clip0_103_727">
<rect x="5" y="5" width="40" height="40" rx="20" fill="white"/>
</clipPath>
<clipPath id="clip1_103_727">
<rect x="36" y="5" width="40" height="40" rx="20" fill="white"/>
</clipPath>
<clipPath id="clip2_103_727">
<rect x="67" y="5" width="40" height="40" rx="20" fill="white"/>
</clipPath>
<clipPath id="clip3_103_727">
<rect x="98" y="5" width="40" height="40" rx="20" fill="white"/>
</clipPath>
</defs>
</svg>
