<svg width="143" height="50" viewBox="0 0 143 50" fill="none" xmlns="http://www.w3.org/2000/svg">
<circle cx="25" cy="25" r="25" fill="#83E09E"/>
<g clip-path="url(#clip0_43_17064)">
<path d="M5 5H45V45H5V5Z" fill="#E82127"/>
<path d="M25 37.8571L28.2143 20C31.2621 20 32.21 20.0514 32.3486 21.4214C32.3486 21.4214 34.3936 20.6557 35.4243 19.1C31.4007 17.2285 27.3571 17.1428 27.3571 17.1428L25 20L22.6428 17.1428C22.6428 17.1428 18.6 17.2271 14.5764 19.1C15.6064 20.655 17.6521 21.4214 17.6521 21.4214C17.7914 20.05 18.7586 20.0021 21.7857 20L25 37.8571Z" fill="white"/>
<path d="M25 16.3907C28.2528 16.3657 31.9028 16.9029 35.7143 18.5714C36.2236 17.65 36.4286 17.1429 36.4286 17.1429C32.2621 15.4871 28.36 15.0143 25 15C21.6393 15.0143 17.7378 15.4871 13.5714 17.1429C13.5714 17.1429 13.8314 17.745 14.2857 18.5714C18.0964 16.9029 21.7471 16.3657 25 16.3907Z" fill="white"/>
</g>
<circle cx="56" cy="25" r="25" fill="#83E09E"/>
<g clip-path="url(#clip1_43_17064)">
<path d="M36 5H76V45H36V5Z" fill="#F0F3FA"/>
<path d="M44.5714 13.5715H55.2857V24.2858H44.5714V13.5715Z" fill="#F0502A"/>
<path d="M56.7143 13.5715H67.4286V24.2858H56.7143V13.5715Z" fill="#82BA22"/>
<path d="M56.7143 25.7144H67.4286V36.4286H56.7143V25.7144Z" fill="#FDB92C"/>
<path d="M44.5714 25.7144H55.2857V36.4286H44.5714V25.7144Z" fill="#1CA7ED"/>
</g>
<circle cx="87" cy="25" r="25" fill="#83E09E"/>
<g clip-path="url(#clip2_43_17064)">
<path d="M67 5H107V45H67V5Z" fill="#0065B3"/>
<path d="M84.835 32.2065C82.6586 35.285 79.4264 36.4172 78.3064 35.285C77.38 34.3493 77.4793 31.9572 78.9407 28.9222C77.6878 27.3761 77.0028 25.4472 77 23.4572C77 18.7372 80.8479 15 85.595 15C86.9757 15 88.2757 15.3157 89.4264 15.88C90.9814 14.5729 92.4379 13.5257 93.5407 12.8572C93.1679 13.2336 92.7207 13.6672 92.2207 14.1522C91.5049 14.8428 90.7962 15.541 90.095 16.2465C91.335 16.9963 92.3596 18.0545 93.069 19.3181C93.7784 20.5816 94.1483 22.0074 94.1429 23.4565C94.1429 24.8265 93.8229 26.1329 93.2521 27.2972C97.5064 28.6543 104.857 29.1286 104.857 29.1286L91.6736 29.545C90.1286 31.1407 87.9807 32.1429 85.595 32.1429C83.5843 32.1429 81.7343 31.4307 80.27 30.2508C79.3593 32.8208 79.905 33.8257 80.9171 33.965C82.1143 34.13 83.9643 33.0865 84.835 32.2065ZM80.5421 29.5407C81.8936 30.6807 83.6464 31.3636 85.595 31.3636C87.6371 31.3636 89.4536 30.6143 90.8171 29.375L87.8814 24.2907C87.8814 24.2907 89.8336 25.9343 92.2343 26.9293C92.3386 26.9722 92.4464 27.015 92.5571 27.0572C93.1038 25.9359 93.3856 24.7039 93.3807 23.4565C93.3807 20.5207 91.88 18.0822 89.5664 16.7865C88.2836 18.1079 86.9257 19.6057 85.7057 21.2122L85.5557 21.41C83.55 24.0493 82.3307 25.6536 80.9171 28.6886C80.7779 28.9872 80.6529 29.2715 80.5421 29.5407ZM79.3007 28.2143C79.5243 27.7957 79.7729 27.3672 80.0471 26.93C81.7071 24.2807 82.7271 22.7157 84.835 20.3336C86.0728 18.9436 87.3984 17.6342 88.8036 16.4136C87.7873 15.9896 86.6962 15.7742 85.595 15.78C81.175 15.78 77.7621 19.0622 77.7621 23.4572C77.7621 25.2486 78.3293 26.8943 79.3007 28.2143Z" fill="white"/>
</g>
<circle cx="118" cy="25" r="25" fill="#83E09E"/>
<g clip-path="url(#clip3_43_17064)">
<path d="M98 5H138V45H98V5Z" fill="#F0F3FA"/>
<path d="M129.171 27.1215C128.564 27.1215 128.243 26.7715 128.243 26.1429L128.25 26.0144H130.629C130.679 25.8501 130.707 25.6644 130.707 25.5001C130.707 24.7286 130.2 24.1429 129.15 24.1429C128.624 24.1622 128.125 24.3786 127.752 24.7493C127.379 25.1199 127.159 25.6174 127.136 26.1429C127.136 27.1215 127.829 27.7144 128.979 27.7144C129.493 27.7144 129.993 27.5572 130.35 27.3072L130.129 26.8001C129.843 27.0001 129.514 27.1144 129.171 27.1215ZM129.171 24.6929C129.521 24.6929 129.7 24.9072 129.7 25.3715L129.693 25.5144H128.336C128.479 25.0144 128.8 24.7001 129.164 24.7001L129.171 24.6929ZM119.429 23.6929C119.429 22.8001 118.679 22.1429 117.55 22.1429H115.364L113.714 27.8572H115.093L115.7 25.7501H116.9C118.271 25.7501 119.429 24.9215 119.429 23.6929ZM116.371 25.0786H115.9L116.55 22.8144H117.05C117.679 22.8144 118.029 23.2144 118.029 23.7429C118.029 24.5929 117.321 25.0786 116.371 25.0786ZM117.879 31.4215H119.121V31.4286L120.943 25.0001H122.243L121.471 27.8572H122.729L123.686 24.2858H121.143L121.35 23.4286C121.421 23.1501 121.543 22.6858 121.714 22.1429C121.893 21.5929 122.214 21.2429 122.657 21.2429C122.871 21.2429 123 21.3429 123 21.5072C122.993 21.6786 122.843 21.7858 122.843 22.0715C122.843 22.4001 123.129 22.6501 123.493 22.6501C123.95 22.6501 124.314 22.2929 124.314 21.8501C124.314 21.1644 123.721 20.7144 122.814 20.7144C121.493 20.7144 120.621 21.5501 120.079 23.5001M127.407 24.2858H124.057L123.893 25.0001H125.514L123.007 27.8572H126.557L126.721 27.1429H124.893L127.407 24.2858ZM134.393 24.2858C133.921 24.2858 133.414 24.5715 133.021 25.1501L133.257 24.2858H131.929L130.857 27.8572H132.171L132.664 26.3715C132.857 25.6929 133.336 25.0358 133.657 25.0358C134 25.0358 133.871 25.6215 134.457 25.6215C134.886 25.6215 135.143 25.2644 135.143 24.9286C135.143 24.5429 134.807 24.2858 134.393 24.2858Z" fill="#0000C9"/>
<path d="M101.914 24.2857C103 23.7928 104.879 23.6571 107.286 23.9285L107.964 21.5714C104.493 21.1499 101.964 21.6214 101.536 23.1142L101.521 23.1785C101.45 23.5285 101.593 23.8999 101.914 24.2785V24.2857Z" fill="#3D96F7"/>
<path d="M112.657 23.5786C111.571 24.0643 109.686 24.2 107.286 23.9286L106.607 26.2858C110.071 26.7072 112.607 26.2358 113.036 24.7429L113.05 24.6858C113.121 24.3286 112.979 23.9572 112.657 23.5786Z" fill="#0000C9"/>
<path d="M103.857 17.8572L103.171 20.2143C107.236 20.4929 111.364 22.0572 112.657 23.5786C113.157 23.3643 113.486 23.0643 113.614 22.7072L113.043 24.6857L113.036 24.7429L113.493 23.1429C113.643 22.6429 113.714 22.3786 113.714 22.1715C113.714 20.3572 108.664 18.1429 103.857 17.8572Z" fill="#3D96F7"/>
<path d="M112.657 23.5785C112.979 23.9571 113.121 24.3357 113.05 24.6857L113.621 22.7C113.479 23.0571 113.157 23.3571 112.657 23.5785Z" fill="#3D96F7"/>
<path d="M101.914 24.2856C101.414 24.4999 101.086 24.7928 100.95 25.1499C100.886 25.3856 100.857 25.5428 100.857 25.6785C100.857 27.5071 105.907 29.7214 110.714 29.9999L111.393 27.6428C107.336 27.3571 103.214 25.8071 101.914 24.2856Z" fill="#0000C9"/>
<path d="M101.914 24.2857C101.593 23.9 101.45 23.5285 101.521 23.1714L100.95 25.1357V25.1571C101.086 24.8 101.414 24.5 101.914 24.2785V24.2857Z" fill="#0000C9"/>
</g>
<defs>
<clipPath id="clip0_43_17064">
<rect x="5" y="5" width="40" height="40" rx="20" fill="white"/>
</clipPath>
<clipPath id="clip1_43_17064">
<rect x="36" y="5" width="40" height="40" rx="20" fill="white"/>
</clipPath>
<clipPath id="clip2_43_17064">
<rect x="67" y="5" width="40" height="40" rx="20" fill="white"/>
</clipPath>
<clipPath id="clip3_43_17064">
<rect x="98" y="5" width="40" height="40" rx="20" fill="white"/>
</clipPath>
</defs>
</svg>
