<svg width="143" height="50" viewBox="0 0 143 50" fill="none" xmlns="http://www.w3.org/2000/svg">
<circle cx="25" cy="25" r="25" fill="#3BAAE1"/>
<g clip-path="url(#clip0_43_17033)">
<path d="M5 5H45V45H5V5Z" fill="#F7931A"/>
<path d="M33.5257 22.6457C33.8936 20.15 32.0043 18.8193 29.4022 17.9157L30.245 14.5528L28.19 14.0414L27.37 17.3214L25.73 16.9293L26.5614 13.6257L24.5057 13.115L23.6622 16.49L22.355 16.1807V16.1693L19.515 15.4557L18.9679 17.6543C18.9679 17.6543 20.4893 18.0114 20.465 18.0228C21.2972 18.2371 21.44 18.7836 21.4164 19.2114L20.465 23.0614L20.6793 23.1328L20.4536 23.085L19.1107 28.4686C19.0157 28.7186 18.7536 29.0986 18.1722 28.9436C18.1957 28.9793 16.6864 28.5871 16.6864 28.5871L15.665 30.9286L18.3386 31.5936L19.8 31.9743L18.9443 35.385L21 35.8957L21.8322 32.5207L23.4836 32.9486L22.6407 36.3114L24.6957 36.8228L25.5393 33.4121C29.045 34.0771 31.6836 33.8164 32.7893 30.6428C33.68 28.0886 32.7414 26.6264 30.8993 25.6521C32.2422 25.355 33.2522 24.4636 33.5136 22.645H33.5257V22.6457ZM28.8314 29.2293C28.2014 31.7843 23.9 30.3936 22.51 30.0607L23.6386 25.5336C25.0286 25.89 29.4972 26.5671 28.8314 29.2171V29.2293ZM29.4614 22.61C28.8907 24.9271 25.3022 23.7507 24.1493 23.4657L25.1707 19.3657C26.3357 19.6514 30.0672 20.1978 29.4614 22.61Z" fill="white"/>
</g>
<circle cx="56" cy="25" r="25" fill="#3BAAE1"/>
<g clip-path="url(#clip1_43_17033)">
<path d="M36 5H76V45H36V5Z" fill="#009393"/>
<path d="M56 38.5715L41.7143 24.4786L47.1643 15.7144H64.8357L70.2857 24.4786L56 38.5715ZM57.4286 25.7144V23.9715C60 24.1001 62.4 24.6001 63.1429 25.2501C62.2786 26.0072 59.1857 26.5572 56 26.5572C52.8143 26.5572 49.7214 26.0072 48.8572 25.2501C49.5929 24.6001 52 24.1072 54.5714 23.9644V25.7144H57.4286ZM48.8572 25.2429V26.2929C49.5929 26.9429 51.9929 27.4358 54.5714 27.5786V31.4286H57.4286V27.5715C60 27.4429 62.4072 26.9429 63.1429 26.2929V24.2001C62.4072 23.5501 60 23.0501 57.4286 22.9144V21.4286H61.7143V19.2858H50.2857V21.4286H54.5714V22.9144C51.9929 23.0501 49.5929 23.5501 48.8572 24.2001V25.2429Z" fill="white"/>
</g>
<circle cx="87" cy="25" r="25" fill="#3BAAE1"/>
<g clip-path="url(#clip2_43_17033)">
<path d="M67 5H107V45H67V5Z" fill="#2E84FD"/>
<path d="M89.6572 37.1301C87.8857 37.1301 86.6 36.718 85.775 35.8808C84.975 35.0437 84.5622 34.1465 84.5622 33.188C84.5622 32.8237 84.6472 32.533 84.78 32.2901C84.9193 32.0515 85.1207 31.8544 85.3629 31.7201C85.6057 31.5865 85.9086 31.5144 86.26 31.5144C86.6122 31.5144 86.9272 31.5865 87.17 31.7201C87.4264 31.8625 87.6369 32.0751 87.7766 32.333C87.9162 32.5909 87.9794 32.8833 87.9586 33.1758C87.9586 33.6123 87.8614 33.9523 87.655 34.2308C87.4695 34.4783 87.2105 34.6608 86.915 34.7523C87.1579 35.0923 87.5457 35.323 88.0793 35.4687C88.6007 35.6137 89.135 35.6865 89.6564 35.6865C90.3626 35.6944 91.0552 35.4918 91.6457 35.1044C92.2529 34.7165 92.6772 34.1344 92.9557 33.3823C93.2472 32.618 93.38 31.7565 93.38 30.7987C93.38 29.743 93.235 28.8573 92.9193 28.118C92.6714 27.428 92.2023 26.8393 91.585 26.4437C91.0014 26.0863 90.3286 25.9013 89.6443 25.9101C89.2079 25.9101 88.6371 26.0923 87.9586 26.4558L86.7214 27.063V26.4558L92.3 19.2858H84.8572V26.7351C84.8572 28.3873 86.1257 29.5373 87.5943 28.4573C88.0091 28.156 88.3701 27.7871 88.6622 27.3658C88.6939 27.2969 88.7441 27.238 88.8072 27.1958C88.8576 27.1512 88.922 27.1254 88.9893 27.123C89.0986 27.123 89.22 27.1837 89.3536 27.2801C89.4836 27.4187 89.5572 27.6001 89.5593 27.7901C89.5423 27.9209 89.5179 28.0506 89.4864 28.1787C89.2056 28.8332 88.7424 29.3931 88.1522 29.7915C86.7379 30.7323 84.1693 30.5865 82.9614 29.3794C82.6337 29.0247 82.3801 28.608 82.2156 28.1539C82.0511 27.6998 81.979 27.2175 82.0036 26.7351V19.2858H77.7143V17.8573H82.0036V14.2858L81.2857 13.5715V12.8701H83.7257L84.8572 14.2858V17.8573H94.8L95.8186 18.693L89.5472 24.8551C89.9242 24.7065 90.3206 24.6124 90.7243 24.5758C91.4029 24.5758 92.1793 24.7944 93.0286 25.2187C93.8779 25.6308 94.5329 26.213 94.9936 26.9408C95.4543 27.6694 95.7579 28.3601 95.8793 29.0273C96.0136 29.613 96.0864 30.2101 96.0979 30.8108C96.1052 31.9553 95.8434 33.0855 95.3336 34.1101C94.8462 35.1097 94.0334 35.9137 93.0286 36.3901C91.977 36.8951 90.8237 37.1526 89.6572 37.143V37.1308V37.1301Z" fill="white"/>
</g>
<circle cx="118" cy="25" r="25" fill="#3BAAE1"/>
<g clip-path="url(#clip3_43_17033)">
<path d="M98 5H138V45H98V5Z" fill="#F0F3FA"/>
<path d="M118 10.7144V21.2715L126.929 25.2644L118 10.7144Z" fill="#8FFCF3"/>
<path d="M118 10.7144L109.071 25.2644L118 21.2715V10.7144Z" fill="#CABCF8"/>
<path d="M118 32.107V39.2856L126.929 26.9285L118 32.107Z" fill="#CBA7F5"/>
<path d="M118 39.2856V32.107L109.071 26.9285L118 39.2856Z" fill="#74A0F3"/>
<path d="M118 30.4429L126.929 25.2643L118 21.2715V30.4429Z" fill="#CBA7F5"/>
<path d="M109.071 25.2643L118 30.4429V21.2715L109.071 25.2643Z" fill="#74A0F3"/>
<path fill-rule="evenodd" clip-rule="evenodd" d="M118 30.4429L109.071 25.2644L118 10.7144L126.929 25.2644L118 30.4429ZM109.664 24.8429L117.857 11.4929V21.2001L109.664 24.8429ZM109.543 25.2072L117.857 21.5144V30.0286L109.543 25.2072ZM118.143 21.5144V30.0286L126.45 25.2072L118.143 21.5144ZM118.143 21.2001L126.336 24.8429L118.143 11.4929V21.2001Z" fill="#202699"/>
<path fill-rule="evenodd" clip-rule="evenodd" d="M118 31.9928L109.071 26.9214L118 39.2857L126.929 26.9214L118 31.9928ZM110.071 27.8142L117.857 32.2428V38.6L110.071 27.8142ZM118.143 32.2428V38.6L125.929 27.8142L118.143 32.2428Z" fill="#202699"/>
</g>
<defs>
<clipPath id="clip0_43_17033">
<rect x="5" y="5" width="40" height="40" rx="20" fill="white"/>
</clipPath>
<clipPath id="clip1_43_17033">
<rect x="36" y="5" width="40" height="40" rx="20" fill="white"/>
</clipPath>
<clipPath id="clip2_43_17033">
<rect x="67" y="5" width="40" height="40" rx="20" fill="white"/>
</clipPath>
<clipPath id="clip3_43_17033">
<rect x="98" y="5" width="40" height="40" rx="20" fill="white"/>
</clipPath>
</defs>
</svg>
