<svg width="38" height="38" viewBox="0 0 38 38" fill="none" xmlns="http://www.w3.org/2000/svg">
<circle cx="19" cy="19" r="19" fill="#F3F3F3"/>
<g clip-path="url(#clip0_43_17313)">
<path d="M15.6667 16.5H22.3334" stroke="url(#paint0_linear_43_17313)" stroke-width="1.5" stroke-linecap="round" stroke-linejoin="round"/>
<path d="M15.6667 19.8333H20.6667" stroke="url(#paint1_linear_43_17313)" stroke-width="1.5" stroke-linecap="round" stroke-linejoin="round"/>
<path d="M19.0083 24.495L15.6667 26.5V24H14C13.337 24 12.7011 23.7366 12.2322 23.2678C11.7634 22.7989 11.5 22.163 11.5 21.5V14.8333C11.5 14.1703 11.7634 13.5344 12.2322 13.0656C12.7011 12.5967 13.337 12.3333 14 12.3333H24C24.663 12.3333 25.2989 12.5967 25.7678 13.0656C26.2366 13.5344 26.5 14.1703 26.5 14.8333V19.4167" stroke="url(#paint2_linear_43_17313)" stroke-width="1.5" stroke-linecap="round" stroke-linejoin="round"/>
<path d="M22.3333 24.8333H27.3333" stroke="url(#paint3_linear_43_17313)" stroke-width="1.5" stroke-linecap="round" stroke-linejoin="round"/>
<path d="M24.8333 22.3333V27.3333" stroke="url(#paint4_linear_43_17313)" stroke-width="1.5" stroke-linecap="round" stroke-linejoin="round"/>
</g>
<defs>
<linearGradient id="paint0_linear_43_17313" x1="18.2882" y1="16.5" x2="18.2835" y2="17.0463" gradientUnits="userSpaceOnUse">
<stop stop-color="#E26853"/>
<stop offset="1" stop-color="#FB8B6D"/>
</linearGradient>
<linearGradient id="paint1_linear_43_17313" x1="17.6328" y1="19.8333" x2="17.6265" y2="20.3796" gradientUnits="userSpaceOnUse">
<stop stop-color="#E26853"/>
<stop offset="1" stop-color="#FB8B6D"/>
</linearGradient>
<linearGradient id="paint2_linear_43_17313" x1="17.3984" y1="12.3333" x2="16.9752" y2="20.0501" gradientUnits="userSpaceOnUse">
<stop stop-color="#E26853"/>
<stop offset="1" stop-color="#FB8B6D"/>
</linearGradient>
<linearGradient id="paint3_linear_43_17313" x1="24.2995" y1="24.8333" x2="24.2931" y2="25.3796" gradientUnits="userSpaceOnUse">
<stop stop-color="#E26853"/>
<stop offset="1" stop-color="#FB8B6D"/>
</linearGradient>
<linearGradient id="paint4_linear_43_17313" x1="25.2265" y1="22.3333" x2="24.495" y2="24.8527" gradientUnits="userSpaceOnUse">
<stop stop-color="#E26853"/>
<stop offset="1" stop-color="#FB8B6D"/>
</linearGradient>
<clipPath id="clip0_43_17313">
<rect width="20" height="20" fill="white" transform="translate(9 9)"/>
</clipPath>
</defs>
</svg>
