<svg width="18" height="20" viewBox="0 0 18 20" fill="none" xmlns="http://www.w3.org/2000/svg">
<path fill-rule="evenodd" clip-rule="evenodd" d="M12.2907 0C12.4695 1.21478 11.9751 2.40487 11.3228 3.24687C10.625 4.15003 9.42212 4.84856 8.25668 4.8121C8.04394 3.64906 8.58866 2.45074 9.25145 1.64519C9.97853 0.756154 11.2246 0.0740866 12.2907 0ZM15.7917 17.0988C16.3925 16.178 16.6169 15.7135 17.0833 14.6739C13.6911 13.3839 13.1475 8.56119 16.5047 6.7102C15.4807 5.42603 14.0418 4.68164 12.6835 4.68164C11.7047 4.68164 11.0342 4.93705 10.4245 5.16924C9.9165 5.36273 9.45081 5.5401 8.8844 5.5401C8.27232 5.5401 7.73029 5.34576 7.16274 5.14227C6.53909 4.91865 5.88461 4.68399 5.07249 4.68399C3.5482 4.68399 1.92571 5.61537 0.897047 7.20764C-0.548929 9.45023 -0.302283 13.6661 2.04261 17.2575C2.88074 18.5429 4.00058 19.987 5.46526 19.9999C6.07301 20.006 6.47743 19.8246 6.91507 19.6283C7.41599 19.4036 7.96043 19.1594 8.9031 19.1544C9.85133 19.1487 10.3872 19.3959 10.8815 19.6239C11.3079 19.8205 11.7033 20.0029 12.3059 19.9964C13.7717 19.9846 14.9535 18.3841 15.7917 17.0988Z" fill="url(#paint0_linear_264_107)"/>
<defs>
<linearGradient id="paint0_linear_264_107" x1="8.54167" y1="0" x2="8.54167" y2="20.0001" gradientUnits="userSpaceOnUse">
<stop stop-color="#FFBE17"/>
<stop offset="1" stop-color="#FF6600"/>
</linearGradient>
</defs>
</svg>
