<svg width="23" height="20" viewBox="0 0 23 20" fill="none" xmlns="http://www.w3.org/2000/svg">
<path d="M11.2778 1.80312L11.9078 0.714092C12.2967 0.0334501 13.1639 -0.196024 13.8445 0.192915C14.525 0.581853 14.7545 1.44919 14.3656 2.12983L8.29501 12.6389H12.6856C14.1089 12.6389 14.9061 14.3114 14.2878 15.4704H1.41556C0.630001 15.4704 0 14.8403 0 14.0547C0 13.269 0.630001 12.6389 1.41556 12.6389H5.02445L9.64446 4.6307L8.20168 2.12594C7.81279 1.4453 8.04223 0.585743 8.72279 0.189025C9.40335 -0.199913 10.2628 0.0295604 10.6595 0.710203L11.2778 1.80312ZM5.81779 16.9289L4.45667 19.2898C4.06778 19.9704 3.20056 20.1999 2.52 19.811C1.83945 19.422 1.61 18.5547 1.99889 17.8741L3.01 16.1238C4.15334 15.7699 5.08279 16.0422 5.81779 16.9289ZM17.5389 12.6467H21.2217C22.0073 12.6467 22.6373 13.2768 22.6373 14.0625C22.6373 14.8481 22.0073 15.4782 21.2217 15.4782H19.1761L20.5567 17.8741C20.9456 18.5547 20.7161 19.4143 20.0356 19.811C19.355 20.1999 18.4956 19.9704 18.0989 19.2898C15.7734 15.2565 14.0272 12.2383 12.8684 10.2275C11.6822 8.18171 12.53 6.12812 13.3661 5.43192C14.2956 7.02656 15.6839 9.43409 17.5389 12.6467Z" fill="url(#paint0_linear_264_123)"/>
<defs>
<linearGradient id="paint0_linear_264_123" x1="11.3172" y1="0" x2="11.3172" y2="20" gradientUnits="userSpaceOnUse">
<stop stop-color="#0ED4FC"/>
<stop offset="1" stop-color="#0C57EF"/>
</linearGradient>
</defs>
</svg>
