<svg width="146" height="168" viewBox="0 0 146 168" fill="none" xmlns="http://www.w3.org/2000/svg">
<g filter="url(#filter0_d_2002_404)">
<path d="M2 64.4631C2 63.1027 3.10275 62 4.46305 62H73.4286C74.7889 62 75.8916 63.1027 75.8916 64.4631V159.537C75.8916 160.897 74.7889 162 73.4286 162H4.46306C3.10275 162 2 160.897 2 159.537V64.4631Z" fill="white"/>
<path d="M2 64.4631C2 63.1027 3.10275 62 4.46305 62H73.4286C74.7889 62 75.8916 63.1027 75.8916 64.4631V159.537C75.8916 160.897 74.7889 162 73.4286 162H4.46306C3.10275 162 2 160.897 2 159.537V64.4631Z" fill="white"/>
<rect x="6.92578" y="145.251" width="22.0499" height="7.47586" rx="3" fill="#292929"/>
<path d="M24.2127 150.383C24.1525 150.383 24.1065 150.368 24.0747 150.34C24.0464 150.308 24.0322 150.264 24.0322 150.207V147.941C24.0322 147.884 24.0464 147.842 24.0747 147.813C24.103 147.785 24.1437 147.771 24.1968 147.771C24.2463 147.771 24.2852 147.785 24.3136 147.813C24.3419 147.842 24.356 147.884 24.356 147.941V148.758H25.1788C25.5008 148.758 25.745 148.829 25.9113 148.971C26.0812 149.112 26.1661 149.31 26.1661 149.565C26.1661 149.735 26.1272 149.882 26.0493 150.006C25.975 150.129 25.8653 150.223 25.7202 150.287C25.5751 150.351 25.3947 150.383 25.1788 150.383H24.2127ZM24.356 150.133H25.1682C25.3805 150.133 25.5451 150.087 25.6618 149.995C25.7822 149.903 25.8423 149.761 25.8423 149.57C25.8423 149.376 25.7822 149.232 25.6618 149.14C25.5451 149.048 25.3805 149.002 25.1682 149.002H24.356V150.133Z" fill="white"/>
<path d="M22.4414 150.414C22.3918 150.414 22.3529 150.4 22.3246 150.372C22.2963 150.344 22.2821 150.303 22.2821 150.25V148.079H21.4434C21.3373 148.079 21.2842 148.033 21.2842 147.941C21.2842 147.902 21.2983 147.87 21.3266 147.845C21.355 147.82 21.3939 147.808 21.4434 147.808H23.4446C23.5472 147.808 23.5985 147.852 23.5985 147.941C23.5985 147.983 23.5844 148.017 23.5561 148.042C23.5313 148.066 23.4941 148.079 23.4446 148.079H22.6059V150.25C22.6059 150.303 22.5918 150.344 22.5634 150.372C22.5387 150.4 22.498 150.414 22.4414 150.414Z" fill="white"/>
<path d="M18.842 150.414C18.8137 150.414 18.7871 150.409 18.7624 150.398C18.7411 150.388 18.7234 150.37 18.7093 150.345C18.6987 150.317 18.6934 150.282 18.6934 150.239V147.935C18.6934 147.882 18.7057 147.842 18.7305 147.813C18.7588 147.785 18.7978 147.771 18.8473 147.771C18.8933 147.771 18.9287 147.785 18.9535 147.813C18.9782 147.842 18.9906 147.882 18.9906 147.935V150.096H18.8632L20.5141 147.877C20.5388 147.845 20.5654 147.82 20.5937 147.803C20.622 147.782 20.6592 147.771 20.7052 147.771C20.737 147.771 20.7635 147.778 20.7848 147.792C20.806 147.803 20.8219 147.82 20.8326 147.845C20.8467 147.87 20.8538 147.904 20.8538 147.946V150.255C20.8538 150.305 20.8396 150.344 20.8113 150.372C20.7865 150.4 20.7512 150.414 20.7052 150.414C20.6556 150.414 20.6185 150.4 20.5937 150.372C20.5689 150.344 20.5565 150.305 20.5565 150.255V148.095H20.6839L19.0278 150.314C19.0065 150.342 18.9818 150.365 18.9535 150.383C18.9251 150.404 18.888 150.414 18.842 150.414Z" fill="white"/>
<path d="M15.8091 150.414C15.756 150.414 15.7153 150.4 15.687 150.372C15.6587 150.344 15.6445 150.303 15.6445 150.25V147.994C15.6445 147.934 15.6605 147.888 15.6923 147.856C15.7242 147.824 15.7702 147.808 15.8303 147.808H17.6139C17.674 147.808 17.72 147.824 17.7519 147.856C17.7837 147.888 17.7996 147.934 17.7996 147.994V150.25C17.7996 150.303 17.7855 150.344 17.7572 150.372C17.7289 150.4 17.6882 150.414 17.6351 150.414C17.5856 150.414 17.5466 150.4 17.5183 150.372C17.49 150.344 17.4758 150.303 17.4758 150.25V148.074H15.9683V150.25C15.9683 150.303 15.9542 150.344 15.9259 150.372C15.9011 150.4 15.8622 150.414 15.8091 150.414Z" fill="white"/>
<path d="M13.4443 151.37C13.4019 151.37 13.3682 151.357 13.3435 151.333C13.3187 151.311 13.3045 151.281 13.301 151.242C13.301 151.207 13.3081 151.17 13.3222 151.131L13.6885 150.298V150.446L12.6481 148.015C12.6304 147.973 12.6233 147.934 12.6269 147.898C12.6339 147.859 12.6499 147.829 12.6746 147.808C12.7029 147.783 12.7419 147.771 12.7914 147.771C12.8374 147.771 12.871 147.782 12.8923 147.803C12.917 147.824 12.9383 147.858 12.956 147.904L13.9008 150.191H13.7681L14.713 147.904C14.7342 147.854 14.7572 147.82 14.782 147.803C14.8067 147.782 14.8421 147.771 14.8881 147.771C14.9341 147.771 14.9678 147.783 14.989 147.808C15.0138 147.829 15.0279 147.858 15.0315 147.893C15.035 147.928 15.0279 147.967 15.0102 148.01L13.6248 151.242C13.6036 151.292 13.5788 151.326 13.5505 151.343C13.5257 151.361 13.4903 151.37 13.4443 151.37Z" fill="white"/>
<path d="M9.89557 150.414C9.84603 150.414 9.8071 150.4 9.77879 150.372C9.75048 150.34 9.73633 150.298 9.73633 150.245V146.773C9.73633 146.72 9.75048 146.679 9.77879 146.651C9.8071 146.623 9.84603 146.608 9.89557 146.608C9.94865 146.608 9.98935 146.623 10.0177 146.651C10.046 146.679 10.0601 146.72 10.0601 146.773V148.344H10.8457L10.7236 148.424L11.8861 146.693C11.9109 146.658 11.9392 146.635 11.9711 146.624C12.0029 146.61 12.0348 146.607 12.0666 146.614C12.0985 146.621 12.125 146.637 12.1462 146.662C12.1675 146.683 12.1799 146.709 12.1834 146.741C12.1905 146.773 12.1816 146.808 12.1569 146.847L11.0528 148.472L10.9413 148.355C11.1465 148.376 11.3235 148.45 11.4721 148.578C11.6243 148.702 11.7552 148.875 11.8649 149.098L12.4063 150.191C12.4276 150.23 12.4329 150.268 12.4223 150.303C12.4152 150.335 12.3975 150.36 12.3692 150.377C12.3444 150.395 12.3143 150.406 12.2789 150.409C12.2471 150.413 12.2152 150.406 12.1834 150.388C12.1515 150.374 12.1268 150.347 12.1091 150.308L11.6101 149.278C11.4969 149.045 11.3695 148.879 11.2279 148.779C11.0899 148.68 10.92 148.631 10.7183 148.631H10.0601V150.245C10.0601 150.298 10.046 150.34 10.0177 150.372C9.99289 150.4 9.95219 150.414 9.89557 150.414Z" fill="white"/>
<path fill-rule="evenodd" clip-rule="evenodd" d="M62.484 112.088L64.5803 117.12L65.0105 131.926L67.1604 124.911L68.6169 130.207L71.2709 127.111L71.645 127.431L68.3877 131.231L67.1348 126.675L65.0432 133.501L64.5615 133.436L64.0905 117.225L62.6979 113.882L60.3165 128.886L50.8643 123.736L49.6277 116.466L48.3045 133.448L47.8238 133.502L45.4423 125.874L42.5386 135.018L42.2768 134.877C42.1666 134.817 42.074 134.722 41.996 134.619C41.9162 134.514 41.8403 134.385 41.7678 134.241C41.623 133.953 41.4811 133.583 41.3445 133.164C41.0708 132.325 40.8085 131.262 40.5809 130.211C40.3531 129.159 40.1587 128.113 40.0212 127.305C39.9525 126.902 39.8978 126.556 39.8603 126.299C39.8244 126.054 39.8005 125.865 39.8005 125.793C39.8005 125.737 39.772 125.599 39.7041 125.38C39.6399 125.173 39.55 124.921 39.4486 124.656C39.3333 124.353 39.2046 124.037 39.0852 123.752L38.2971 125.928L35.7425 128.493L35.637 128.069C35.3914 127.083 34.8047 124.826 34.4155 123.654C34.2352 123.111 34.0095 123.017 33.8742 123.009C33.7069 123 33.5128 123.104 33.3718 123.238L28.7602 130.864V124.069C28.516 124.415 28.1943 124.933 27.8671 125.466C27.8122 125.556 27.7572 125.646 27.7025 125.735C27.4224 126.193 27.1491 126.639 26.9349 126.963C26.809 127.154 26.6943 127.316 26.6063 127.414C26.5835 127.439 26.5579 127.465 26.5304 127.487C26.5085 127.505 26.461 127.542 26.3954 127.557C26.3584 127.566 26.3046 127.571 26.2453 127.551C26.183 127.53 26.1384 127.489 26.1102 127.446C26.0631 127.375 26.0615 127.3 26.0615 127.271C26.0615 127.008 25.9865 126.602 25.8845 126.184C25.8148 125.899 25.7353 125.619 25.6665 125.394L22.9971 126.612L21.4171 123.175L19.9231 118.749L19.4381 130.011L18.4526 134.711L17.9739 134.725C17.7276 133.818 17.19 131.872 16.9964 131.289C16.9181 131.053 16.7298 130.821 16.5027 130.62C16.4187 130.546 16.3324 130.479 16.2498 130.42V134.906H14.7452L14.2846 138.143L13.8092 138.192L11.343 131.384V138.97L9.73321 136.384H8.55583L7.14973 139.443L6.70215 139.237L8.24012 135.892H10.0068L10.8504 137.247V129.98L11.3283 129.896L13.9361 137.096L14.2852 134.643C14.2859 134.228 14.3108 133.631 14.3867 133.179C14.4235 132.959 14.4781 132.733 14.5715 132.584C14.6178 132.511 14.7056 132.406 14.8515 132.384C15.0045 132.361 15.1234 132.442 15.1966 132.516C15.3426 132.662 15.4166 132.858 15.4528 133.049C15.4893 133.242 15.4915 133.453 15.4763 133.656C15.4565 133.92 15.406 134.188 15.3493 134.414H15.7572V129.581L16.114 129.76C16.2951 129.851 16.5707 130.023 16.8291 130.252C17.0846 130.478 17.3461 130.779 17.464 131.134C17.6057 131.561 17.9213 132.679 18.1796 133.613L18.9477 129.95L19.4877 117.408L19.9672 117.34L21.8755 122.993L23.2395 125.96L25.9644 124.716L26.0508 124.977C26.1344 125.228 26.259 125.641 26.363 126.067C26.4162 126.285 26.4656 126.512 26.5008 126.727C26.5084 126.715 26.5161 126.704 26.524 126.692C26.7329 126.376 27.0006 125.938 27.2808 125.48C27.3359 125.39 27.3915 125.3 27.4472 125.209C27.7834 124.66 28.1254 124.11 28.3844 123.747C28.5088 123.573 28.6319 123.416 28.7353 123.332C28.7627 123.31 28.8005 123.283 28.8462 123.264C28.89 123.246 28.9736 123.223 29.067 123.26C29.1659 123.299 29.2118 123.38 29.231 123.434C29.2494 123.486 29.2528 123.538 29.2528 123.576V129.097L32.9818 122.931L33.0028 122.91C33.1876 122.724 33.5226 122.495 33.9033 122.518C34.3241 122.543 34.6709 122.86 34.8831 123.499C35.2297 124.543 35.7259 126.417 36.0085 127.528L37.8711 125.658L39.0425 122.424L39.2906 122.984C39.4554 123.356 39.7025 123.939 39.9089 124.48C40.012 124.75 40.1061 125.013 40.1747 125.235C40.2398 125.445 40.2931 125.652 40.2931 125.793C40.2931 125.793 40.2931 125.795 40.2935 125.801C40.2939 125.808 40.2947 125.817 40.2957 125.829C40.2979 125.852 40.3013 125.883 40.306 125.922C40.3153 125.999 40.3293 126.102 40.3477 126.228C40.3846 126.481 40.4386 126.822 40.5068 127.223C40.6433 128.025 40.8364 129.063 41.0624 130.107C41.2887 131.152 41.5468 132.196 41.8128 133.011C41.9461 133.42 42.079 133.764 42.2078 134.02C42.2361 134.076 42.2637 134.127 42.2904 134.172L45.4462 124.234L47.9128 132.134L49.2912 114.444L49.7796 114.422L51.3098 123.417L59.9393 128.119L62.484 112.088ZM14.7779 134.614L14.7884 134.583C14.8655 134.35 14.9583 133.976 14.9851 133.62C14.9984 133.441 14.9945 133.277 14.9687 133.14C14.9583 133.085 14.9449 133.038 14.9293 132.998C14.9099 133.066 14.8904 133.153 14.8725 133.26C14.8049 133.664 14.7797 134.212 14.7779 134.614ZM29.0505 123.711C29.0506 123.711 29.0503 123.711 29.0498 123.712L29.0505 123.711ZM28.7601 123.573C28.76 123.572 28.76 123.571 28.76 123.571L28.7601 123.573Z" fill="#CF0000"/>
<path d="M59.0872 80.2976C58.3838 80.2976 57.8488 80.0256 57.4823 79.4818C57.1217 78.932 56.9414 78.1399 56.9414 77.1054C56.9414 76.402 57.0212 75.8138 57.1808 75.3409C57.3463 74.868 57.5887 74.5104 57.9079 74.268C58.2271 74.0256 58.6202 73.9044 59.0872 73.9044C59.7966 73.9044 60.3316 74.1734 60.6921 74.7113C61.0527 75.2493 61.233 76.0444 61.233 77.0966C61.233 77.7882 61.1503 78.3734 60.9848 78.8522C60.8252 79.3311 60.5857 79.6916 60.2665 79.934C59.9473 80.1764 59.5542 80.2976 59.0872 80.2976ZM59.0872 79.8099C59.6252 79.8099 60.0242 79.5882 60.2843 79.1448C60.5444 78.7015 60.6744 78.0187 60.6744 77.0966C60.6744 76.1626 60.5444 75.4798 60.2843 75.0483C60.0301 74.6109 59.6311 74.3921 59.0872 74.3921C58.5493 74.3921 58.1503 74.6109 57.8902 75.0483C57.6301 75.4857 57.5 76.1685 57.5 77.0966C57.5 78.0187 57.6301 78.7015 57.8902 79.1448C58.1503 79.5882 58.5493 79.8099 59.0872 79.8099Z" fill="black"/>
<path d="M53.7708 80.2976C53.0674 80.2976 52.5324 80.0256 52.1659 79.4818C51.8053 78.932 51.625 78.1399 51.625 77.1054C51.625 76.402 51.7048 75.8138 51.8644 75.3409C52.0299 74.868 52.2723 74.5104 52.5915 74.268C52.9107 74.0256 53.3038 73.9044 53.7708 73.9044C54.4802 73.9044 55.0151 74.1734 55.3757 74.7113C55.7363 75.2493 55.9166 76.0444 55.9166 77.0966C55.9166 77.7882 55.8339 78.3734 55.6683 78.8522C55.5087 79.3311 55.2693 79.6916 54.9501 79.934C54.6309 80.1764 54.2378 80.2976 53.7708 80.2976ZM53.7708 79.8099C54.3087 79.8099 54.7078 79.5882 54.9679 79.1448C55.228 78.7015 55.358 78.0187 55.358 77.0966C55.358 76.1626 55.228 75.4798 54.9679 75.0483C54.7137 74.6109 54.3147 74.3921 53.7708 74.3921C53.2329 74.3921 52.8339 74.6109 52.5738 75.0483C52.3137 75.4857 52.1836 76.1685 52.1836 77.0966C52.1836 78.0187 52.3137 78.7015 52.5738 79.1448C52.8339 79.5882 53.2329 79.8099 53.7708 79.8099Z" fill="black"/>
<path d="M48.6226 80.2976C48.2738 80.2976 47.928 80.2444 47.5851 80.138C47.2482 80.0256 46.9438 79.8572 46.6718 79.6325C46.6245 79.5912 46.592 79.5468 46.5743 79.4995C46.5625 79.4463 46.5625 79.3961 46.5743 79.3488C46.592 79.2956 46.6186 79.2542 46.6541 79.2247C46.6896 79.1892 46.7339 79.1715 46.7871 79.1715C46.8462 79.1656 46.9053 79.1862 46.9644 79.2335C47.2127 79.4286 47.4758 79.5734 47.7536 79.668C48.0314 79.7567 48.3211 79.801 48.6226 79.801C48.93 79.801 49.193 79.7419 49.4117 79.6237C49.6364 79.4995 49.8078 79.3311 49.926 79.1183C50.0502 78.8995 50.1122 78.6483 50.1122 78.3646C50.1122 77.9153 49.9851 77.5488 49.7309 77.2651C49.4768 76.9813 49.128 76.8394 48.6846 76.8394C48.395 76.8394 48.1349 76.8926 47.9043 76.999C47.6797 77.1055 47.4758 77.2769 47.2925 77.5133C47.263 77.5606 47.2245 77.599 47.1773 77.6286C47.1359 77.6582 47.0856 77.6729 47.0265 77.6729C46.9438 77.6729 46.8787 77.6493 46.8314 77.602C46.7901 77.5547 46.7694 77.4926 46.7694 77.4158V74.2414C46.7694 74.1527 46.793 74.0877 46.8403 74.0463C46.8876 73.999 46.9526 73.9754 47.0354 73.9754H50.0856C50.1743 73.9754 50.2393 73.9961 50.2807 74.0375C50.328 74.0789 50.3516 74.138 50.3516 74.2148C50.3516 74.2917 50.328 74.3508 50.2807 74.3922C50.2393 74.4335 50.1743 74.4542 50.0856 74.4542H47.3103V77.1675H47.1507C47.3043 76.9074 47.5231 76.7064 47.8068 76.5646C48.0906 76.4168 48.4068 76.3429 48.7556 76.3429C49.1457 76.3429 49.4827 76.4256 49.7664 76.5912C50.0502 76.7567 50.2689 76.9872 50.4226 77.2828C50.5822 77.5784 50.662 77.9242 50.662 78.3202C50.662 78.7104 50.5792 79.0532 50.4137 79.3488C50.2482 79.6444 50.0117 79.8779 49.7043 80.0493C49.4029 80.2148 49.0423 80.2976 48.6226 80.2976Z" fill="black"/>
<path d="M39.1088 80.2798C39.026 80.2798 38.961 80.2562 38.9137 80.2089C38.8664 80.1557 38.8428 80.0848 38.8428 79.9961V74.2591C38.8428 74.1646 38.8664 74.0936 38.9137 74.0463C38.9669 73.999 39.0349 73.9754 39.1177 73.9754H41.2014C41.8635 73.9754 42.3718 74.135 42.7265 74.4542C43.0812 74.7734 43.2585 75.2286 43.2585 75.8197C43.2585 76.405 43.0812 76.8601 42.7265 77.1853C42.3718 77.5045 41.8635 77.6641 41.2014 77.6641H39.3837V79.9961C39.3837 80.0848 39.36 80.1557 39.3127 80.2089C39.2713 80.2562 39.2034 80.2798 39.1088 80.2798ZM39.3837 77.1853H41.1571C41.6713 77.1853 42.0585 77.07 42.3186 76.8394C42.5787 76.6089 42.7088 76.269 42.7088 75.8197C42.7088 75.3705 42.5787 75.0306 42.3186 74.8C42.0585 74.5636 41.6713 74.4454 41.1571 74.4454H39.3837V77.1853Z" fill="black"/>
<path d="M34.5091 80.2976C34.1071 80.2976 33.7613 80.2355 33.4717 80.1113C33.182 79.9813 32.9603 79.804 32.8066 79.5793C32.6589 79.3488 32.585 79.0769 32.585 78.7636C32.585 78.5685 32.6116 78.3882 32.6648 78.2227C32.718 78.0572 32.7978 77.9005 32.9042 77.7527C33.0165 77.599 33.1554 77.4483 33.3209 77.3005C33.4923 77.1527 33.6904 77.002 33.915 76.8483L34.1988 76.6532L34.1278 76.7685C33.8263 76.4375 33.6165 76.1596 33.4983 75.935C33.3859 75.7044 33.3298 75.471 33.3298 75.2345C33.3298 74.9685 33.3889 74.7379 33.5071 74.5429C33.6313 74.3419 33.8027 74.1852 34.0214 74.0729C34.2401 73.9606 34.4973 73.9044 34.7928 73.9044C35.1653 73.9044 35.4756 74.0138 35.7239 74.2325C35.9781 74.4453 36.1052 74.7409 36.1052 75.1192C36.1052 75.3261 36.0638 75.5212 35.981 75.7044C35.9042 75.8818 35.7682 76.065 35.5731 76.2542C35.3781 76.4375 35.1002 76.6444 34.7396 76.8749L34.7574 76.7242L36.4864 78.6926H36.3623C36.4451 78.5448 36.519 78.3734 36.584 78.1783C36.6549 77.9833 36.7111 77.7705 36.7524 77.5399C36.7938 77.3035 36.8204 77.0581 36.8323 76.804C36.8441 76.7153 36.8707 76.6503 36.9121 76.6089C36.9534 76.5675 37.0155 76.5468 37.0983 76.5468C37.1751 76.5468 37.2342 76.5705 37.2756 76.6178C37.317 76.665 37.3318 76.733 37.3199 76.8217C37.3081 77.1291 37.2726 77.4187 37.2135 77.6907C37.1544 77.9626 37.0805 78.2138 36.9919 78.4444C36.9032 78.6749 36.7997 78.8877 36.6815 79.0828L36.6726 78.8966L37.5682 79.9163C37.6273 79.9754 37.6539 80.0345 37.648 80.0936C37.648 80.1527 37.6244 80.1971 37.5771 80.2266C37.5357 80.2621 37.4795 80.2798 37.4086 80.2798C37.3436 80.2798 37.2904 80.268 37.249 80.2444C37.2135 80.2266 37.1692 80.1882 37.116 80.1291L36.38 79.2867H36.5308C36.2943 79.6059 36.0017 79.8542 35.6529 80.0315C35.3042 80.2089 34.9229 80.2976 34.5091 80.2976ZM34.5268 79.8365C34.8874 79.8365 35.2096 79.7596 35.4933 79.6059C35.7771 79.4463 36.0194 79.2158 36.2204 78.9143V79.1182L34.314 76.9813L34.5091 76.999L34.2342 77.1852C33.9564 77.3744 33.7347 77.5488 33.5692 77.7084C33.4096 77.8621 33.2943 78.0217 33.2234 78.1872C33.1584 78.3468 33.1258 78.5301 33.1258 78.737C33.1258 79.0798 33.2441 79.3488 33.4805 79.5439C33.717 79.7389 34.0657 79.8365 34.5268 79.8365ZM34.7928 74.3478C34.515 74.3478 34.2874 74.4306 34.1101 74.5961C33.9387 74.7557 33.8529 74.9655 33.8529 75.2256C33.8529 75.3557 33.8736 75.4798 33.915 75.598C33.9564 75.7104 34.0303 75.8404 34.1367 75.9882C34.2431 76.1301 34.3909 76.3104 34.58 76.5291L34.4116 76.5557C34.713 76.3547 34.9495 76.1803 35.1209 76.0325C35.2983 75.8788 35.4254 75.734 35.5022 75.598C35.579 75.4562 35.6175 75.3113 35.6175 75.1636C35.6175 74.9153 35.5406 74.7173 35.3869 74.5695C35.2332 74.4217 35.0352 74.3478 34.7928 74.3478Z" fill="black"/>
<path d="M29.3976 80.2975C29.1138 80.2975 28.8389 80.2739 28.5729 80.2266C28.3069 80.1793 28.0586 80.1084 27.8281 80.0138C27.6035 79.9133 27.3995 79.7921 27.2163 79.6502C27.1572 79.6089 27.1158 79.5616 27.0921 79.5084C27.0744 79.4492 27.0714 79.396 27.0833 79.3488C27.101 79.2956 27.1276 79.2512 27.1631 79.2157C27.2044 79.1803 27.2517 79.1625 27.3049 79.1625C27.3581 79.1566 27.4143 79.1744 27.4734 79.2157C27.7453 79.4167 28.032 79.5645 28.3335 79.6591C28.6409 79.7537 28.9956 79.801 29.3976 79.801C29.9591 79.801 30.3788 79.6916 30.6567 79.4729C30.9404 79.2542 31.0823 78.9675 31.0823 78.6128C31.0823 78.3172 30.9788 78.0867 30.7719 77.9212C30.571 77.7557 30.237 77.6256 29.77 77.531L28.8744 77.3448C28.3128 77.2325 27.8961 77.0433 27.6242 76.7773C27.3522 76.5113 27.2163 76.1566 27.2163 75.7133C27.2163 75.4414 27.2695 75.196 27.3759 74.9773C27.4823 74.7527 27.633 74.5606 27.8281 74.401C28.0232 74.2414 28.2537 74.1202 28.5197 74.0374C28.7916 73.9488 29.0902 73.9044 29.4153 73.9044C29.7995 73.9044 30.1512 73.9576 30.4705 74.064C30.7956 74.1704 31.0911 74.3389 31.3572 74.5694C31.4104 74.6108 31.4458 74.6611 31.4636 74.7202C31.4813 74.7734 31.4813 74.8266 31.4636 74.8798C31.4458 74.9271 31.4192 74.9655 31.3838 74.9951C31.3483 75.0246 31.304 75.0424 31.2508 75.0483C31.1976 75.0483 31.1414 75.0246 31.0823 74.9773C30.834 74.7763 30.5739 74.6315 30.302 74.5428C30.036 74.4483 29.7404 74.401 29.4153 74.401C29.0843 74.401 28.7946 74.4542 28.5463 74.5606C28.304 74.667 28.1148 74.8177 27.9788 75.0128C27.8429 75.2079 27.7749 75.4384 27.7749 75.7044C27.7749 76.0118 27.8695 76.2571 28.0586 76.4404C28.2478 76.6236 28.5522 76.7566 28.9719 76.8394L29.8764 77.0256C30.4734 77.1497 30.9168 77.3359 31.2064 77.5842C31.4961 77.8266 31.6409 78.1606 31.6409 78.5862C31.6409 78.8404 31.5877 79.0739 31.4813 79.2867C31.3808 79.4936 31.233 79.6739 31.0379 79.8276C30.8429 79.9813 30.6064 80.0995 30.3286 80.1823C30.0567 80.2591 29.7463 80.2975 29.3976 80.2975Z" fill="black"/>
<path d="M44.1642 100.916C44.0906 100.916 44.0331 100.895 43.9918 100.854C43.9504 100.813 43.9297 100.753 43.9297 100.675V96.2955C43.9297 96.2173 43.9504 96.1576 43.9918 96.1162C44.0331 96.0748 44.0906 96.0541 44.1642 96.0541H45.4952C46.2676 96.0541 46.863 96.261 47.2814 96.6748C47.7044 97.0886 47.9159 97.6909 47.9159 98.4817C47.9159 98.8771 47.8607 99.2265 47.7504 99.53C47.6446 99.8334 47.4883 100.089 47.2814 100.295C47.0745 100.498 46.8216 100.652 46.5228 100.758C46.2239 100.863 45.8814 100.916 45.4952 100.916H44.1642ZM44.3504 100.544H45.4607C45.7964 100.544 46.0883 100.5 46.3366 100.413C46.5895 100.325 46.7987 100.197 46.9642 100.027C47.1297 99.8564 47.2538 99.6426 47.3366 99.3851C47.4193 99.1231 47.4607 98.8219 47.4607 98.4817C47.4607 97.7966 47.2929 97.284 46.9573 96.9438C46.6262 96.5989 46.1274 96.4265 45.4607 96.4265H44.3504V100.544Z" fill="black"/>
<path d="M41.2577 100.971C41.037 100.971 40.8232 100.953 40.6163 100.916C40.4094 100.879 40.2163 100.824 40.037 100.751C39.8623 100.673 39.7036 100.578 39.5611 100.468C39.5151 100.436 39.483 100.399 39.4646 100.358C39.4508 100.312 39.4485 100.27 39.4577 100.233C39.4715 100.192 39.4921 100.158 39.5197 100.13C39.5519 100.102 39.5887 100.089 39.6301 100.089C39.6715 100.084 39.7151 100.098 39.7611 100.13C39.9726 100.286 40.1956 100.401 40.4301 100.475C40.6692 100.548 40.945 100.585 41.2577 100.585C41.6945 100.585 42.0209 100.5 42.237 100.33C42.4577 100.16 42.568 99.9369 42.568 99.661C42.568 99.4311 42.4876 99.2518 42.3266 99.1231C42.1703 98.9944 41.9105 98.8932 41.5473 98.8197L40.8508 98.6748C40.414 98.5875 40.0899 98.4403 39.8784 98.2334C39.6669 98.0265 39.5611 97.7507 39.5611 97.4059C39.5611 97.1944 39.6025 97.0036 39.6853 96.8334C39.768 96.6587 39.8853 96.5093 40.037 96.3852C40.1887 96.261 40.368 96.1668 40.5749 96.1024C40.7864 96.0334 41.0186 95.999 41.2715 95.999C41.5703 95.999 41.8439 96.0403 42.0922 96.1231C42.345 96.2059 42.5749 96.3369 42.7818 96.5162C42.8232 96.5484 42.8508 96.5875 42.8646 96.6334C42.8784 96.6748 42.8784 96.7162 42.8646 96.7576C42.8508 96.7944 42.8301 96.8243 42.8025 96.8472C42.7749 96.8702 42.7404 96.884 42.699 96.8886C42.6577 96.8886 42.614 96.8702 42.568 96.8334C42.3749 96.6771 42.1726 96.5645 41.9611 96.4955C41.7542 96.422 41.5243 96.3852 41.2715 96.3852C41.014 96.3852 40.7887 96.4265 40.5956 96.5093C40.4071 96.5921 40.26 96.7093 40.1542 96.861C40.0485 97.0128 39.9956 97.1921 39.9956 97.399C39.9956 97.638 40.0692 97.8288 40.2163 97.9714C40.3634 98.1139 40.6002 98.2174 40.9266 98.2817L41.6301 98.4265C42.0944 98.5231 42.4393 98.6679 42.6646 98.861C42.8899 99.0495 43.0025 99.3093 43.0025 99.6403C43.0025 99.838 42.9611 100.02 42.8784 100.185C42.8002 100.346 42.6853 100.486 42.5335 100.606C42.3818 100.725 42.1979 100.817 41.9818 100.882C41.7703 100.941 41.5289 100.971 41.2577 100.971Z" fill="black"/>
<path d="M36.6114 100.971C36.3034 100.971 36.0298 100.93 35.7907 100.847C35.5516 100.764 35.3516 100.64 35.1907 100.475C35.0344 100.309 34.9148 100.105 34.8321 99.861C34.7539 99.6173 34.7148 99.3369 34.7148 99.0196V96.2265C34.7148 96.153 34.7332 96.1001 34.77 96.0679C34.8068 96.0311 34.8574 96.0127 34.9217 96.0127C34.9907 96.0127 35.0436 96.0311 35.0804 96.0679C35.1171 96.1001 35.1355 96.153 35.1355 96.2265V98.9851C35.1355 99.5231 35.2597 99.9254 35.5079 100.192C35.7608 100.454 36.1286 100.585 36.6114 100.585C37.0988 100.585 37.4666 100.454 37.7148 100.192C37.9631 99.9254 38.0873 99.5231 38.0873 98.9851V96.2265C38.0873 96.153 38.1057 96.1001 38.1424 96.0679C38.1792 96.0311 38.2321 96.0127 38.3011 96.0127C38.3654 96.0127 38.416 96.0311 38.4528 96.0679C38.4896 96.1001 38.5079 96.153 38.5079 96.2265V99.0196C38.5079 99.4426 38.4367 99.8012 38.2942 100.095C38.1516 100.385 37.9378 100.604 37.6528 100.751C37.3723 100.898 37.0252 100.971 36.6114 100.971Z" fill="black"/>
<path d="M32.0492 100.971C31.6951 100.971 31.3894 100.921 31.1319 100.82C30.879 100.714 30.6836 100.562 30.5457 100.364C30.4124 100.162 30.3457 99.9208 30.3457 99.6403C30.3457 99.4105 30.3917 99.2082 30.4836 99.0334C30.5802 98.8587 30.7112 98.7162 30.8767 98.6059C31.0423 98.4955 31.2331 98.4265 31.4492 98.399V98.4817C31.1457 98.4174 30.9043 98.2771 30.725 98.061C30.5503 97.8403 30.4629 97.5806 30.4629 97.2817C30.4629 97.0105 30.5273 96.7806 30.656 96.5921C30.7894 96.399 30.9756 96.2518 31.2147 96.1507C31.4537 96.0495 31.7319 95.999 32.0492 95.999C32.371 95.999 32.6492 96.0495 32.8836 96.1507C33.1227 96.2518 33.3066 96.399 33.4354 96.5921C33.5687 96.7806 33.6354 97.0105 33.6354 97.2817C33.6354 97.4794 33.594 97.661 33.5112 97.8265C33.4331 97.9921 33.3204 98.1323 33.1733 98.2472C33.0308 98.3576 32.856 98.4357 32.6492 98.4817V98.399C32.9802 98.4449 33.2469 98.5783 33.4492 98.799C33.6514 99.0197 33.7526 99.3001 33.7526 99.6403C33.7526 99.9208 33.6836 100.162 33.5457 100.364C33.4124 100.562 33.2193 100.714 32.9664 100.82C32.7135 100.921 32.4078 100.971 32.0492 100.971ZM32.0492 100.606C32.4721 100.606 32.7894 100.525 33.0009 100.364C33.217 100.199 33.325 99.9507 33.325 99.6197C33.325 99.2886 33.217 99.0426 33.0009 98.8817C32.7894 98.7208 32.4721 98.6403 32.0492 98.6403C31.6308 98.6403 31.3135 98.7208 31.0974 98.8817C30.8813 99.0426 30.7733 99.2886 30.7733 99.6197C30.7733 99.9507 30.8813 100.199 31.0974 100.364C31.3135 100.525 31.6308 100.606 32.0492 100.606ZM32.0492 98.2679C32.2928 98.2679 32.4997 98.2311 32.6698 98.1576C32.8446 98.0794 32.9779 97.9691 33.0698 97.8265C33.1664 97.6794 33.2147 97.507 33.2147 97.3093C33.2147 97.0105 33.1112 96.7783 32.9043 96.6128C32.702 96.4472 32.417 96.3645 32.0492 96.3645C31.6859 96.3645 31.4009 96.4472 31.194 96.6128C30.9871 96.7783 30.8836 97.0105 30.8836 97.3093C30.8836 97.6082 30.9871 97.8426 31.194 98.0128C31.4009 98.1829 31.6859 98.2679 32.0492 98.2679Z" fill="black"/>
<path d="M26.721 100.916C26.6383 100.916 26.5762 100.898 26.5348 100.861C26.4981 100.82 26.4797 100.767 26.4797 100.702C26.4797 100.666 26.4889 100.629 26.5073 100.592C26.5256 100.555 26.5509 100.521 26.5831 100.489L28.1969 98.7438C28.4452 98.4771 28.6245 98.2311 28.7348 98.0059C28.8452 97.776 28.9004 97.5415 28.9004 97.3024C28.9004 97.0036 28.8107 96.776 28.6314 96.6197C28.4521 96.4633 28.19 96.3852 27.8452 96.3852C27.6153 96.3852 27.4015 96.4243 27.2038 96.5024C27.0107 96.576 26.8245 96.6863 26.6452 96.8334C26.5992 96.8702 26.5555 96.8886 26.5142 96.8886C26.4774 96.8886 26.4452 96.8771 26.4176 96.8541C26.39 96.8265 26.3693 96.7944 26.3555 96.7576C26.3463 96.7162 26.3463 96.6748 26.3555 96.6334C26.3693 96.5921 26.3946 96.5553 26.4314 96.5231C26.6107 96.3668 26.8268 96.2403 27.0797 96.1438C27.3325 96.0472 27.5946 95.999 27.8659 95.999C28.1785 95.999 28.4429 96.0495 28.659 96.1507C28.8797 96.2472 29.0475 96.3921 29.1624 96.5852C29.2774 96.7783 29.3348 97.0105 29.3348 97.2817C29.3348 97.4748 29.3027 97.6656 29.2383 97.8541C29.1739 98.0426 29.0774 98.2334 28.9486 98.4265C28.8245 98.6197 28.6636 98.822 28.4659 99.0334L26.9141 100.675V100.544H29.3762C29.4406 100.544 29.4889 100.56 29.521 100.592C29.5578 100.62 29.5762 100.663 29.5762 100.723C29.5762 100.787 29.5578 100.836 29.521 100.868C29.4889 100.9 29.4406 100.916 29.3762 100.916H26.721Z" fill="black"/>
<path d="M25.136 101.537C25.0946 101.587 25.0532 101.615 25.0118 101.62C24.9704 101.629 24.9337 101.622 24.9015 101.599C24.8739 101.576 24.8578 101.544 24.8532 101.502C24.8532 101.461 24.8739 101.413 24.9153 101.358C24.975 101.275 25.0187 101.187 25.0463 101.096C25.0739 101.004 25.0877 100.918 25.0877 100.84L25.1153 100.937C25.0141 100.937 24.9314 100.907 24.867 100.847C24.8072 100.787 24.7773 100.712 24.7773 100.62C24.7773 100.528 24.8049 100.452 24.8601 100.392C24.9153 100.332 24.9911 100.302 25.0877 100.302C25.1842 100.302 25.2601 100.337 25.3153 100.406C25.375 100.47 25.4049 100.569 25.4049 100.702C25.4049 100.785 25.3957 100.875 25.3773 100.971C25.3635 101.073 25.336 101.171 25.2946 101.268C25.2532 101.364 25.2003 101.454 25.136 101.537Z" fill="black"/>
<path d="M22.2699 100.971C21.9158 100.971 21.6101 100.921 21.3526 100.82C21.0997 100.714 20.9043 100.562 20.7664 100.364C20.6331 100.162 20.5664 99.9208 20.5664 99.6403C20.5664 99.4105 20.6124 99.2082 20.7043 99.0334C20.8009 98.8587 20.9319 98.7162 21.0974 98.6059C21.263 98.4955 21.4538 98.4265 21.6699 98.399V98.4817C21.3664 98.4174 21.125 98.2771 20.9457 98.061C20.771 97.8403 20.6836 97.5806 20.6836 97.2817C20.6836 97.0105 20.748 96.7806 20.8768 96.5921C21.0101 96.399 21.1963 96.2518 21.4354 96.1507C21.6745 96.0495 21.9526 95.999 22.2699 95.999C22.5917 95.999 22.8699 96.0495 23.1043 96.1507C23.3434 96.2518 23.5273 96.399 23.6561 96.5921C23.7894 96.7806 23.8561 97.0105 23.8561 97.2817C23.8561 97.4794 23.8147 97.661 23.7319 97.8265C23.6538 97.9921 23.5411 98.1323 23.394 98.2472C23.2515 98.3576 23.0768 98.4357 22.8699 98.4817V98.399C23.2009 98.4449 23.4676 98.5783 23.6699 98.799C23.8722 99.0197 23.9733 99.3001 23.9733 99.6403C23.9733 99.9208 23.9043 100.162 23.7664 100.364C23.6331 100.562 23.44 100.714 23.1871 100.82C22.9342 100.921 22.6285 100.971 22.2699 100.971ZM22.2699 100.606C22.6928 100.606 23.0101 100.525 23.2216 100.364C23.4377 100.199 23.5457 99.9507 23.5457 99.6197C23.5457 99.2886 23.4377 99.0426 23.2216 98.8817C23.0101 98.7208 22.6928 98.6403 22.2699 98.6403C21.8515 98.6403 21.5342 98.7208 21.3181 98.8817C21.102 99.0426 20.994 99.2886 20.994 99.6197C20.994 99.9507 21.102 100.199 21.3181 100.364C21.5342 100.525 21.8515 100.606 22.2699 100.606ZM22.2699 98.2679C22.5135 98.2679 22.7204 98.2311 22.8905 98.1576C23.0653 98.0794 23.1986 97.9691 23.2905 97.8265C23.3871 97.6794 23.4354 97.507 23.4354 97.3093C23.4354 97.0105 23.3319 96.7783 23.125 96.6128C22.9227 96.4472 22.6377 96.3645 22.2699 96.3645C21.9066 96.3645 21.6216 96.4472 21.4147 96.6128C21.2078 96.7783 21.1043 97.0105 21.1043 97.3093C21.1043 97.6082 21.2078 97.8426 21.4147 98.0128C21.6216 98.1829 21.9066 98.2679 22.2699 98.2679Z" fill="black"/>
<path d="M18.1351 100.971C17.7811 100.971 17.4753 100.921 17.2178 100.82C16.965 100.714 16.7696 100.562 16.6316 100.364C16.4983 100.162 16.4316 99.9208 16.4316 99.6403C16.4316 99.4105 16.4776 99.2082 16.5696 99.0334C16.6661 98.8587 16.7972 98.7162 16.9627 98.6059C17.1282 98.4955 17.319 98.4265 17.5351 98.399V98.4817C17.2316 98.4174 16.9903 98.2771 16.811 98.061C16.6362 97.8403 16.5489 97.5806 16.5489 97.2817C16.5489 97.0105 16.6132 96.7806 16.742 96.5921C16.8753 96.399 17.0615 96.2518 17.3006 96.1507C17.5397 96.0495 17.8178 95.999 18.1351 95.999C18.4569 95.999 18.7351 96.0495 18.9696 96.1507C19.2087 96.2518 19.3926 96.399 19.5213 96.5921C19.6546 96.7806 19.7213 97.0105 19.7213 97.2817C19.7213 97.4794 19.6799 97.661 19.5972 97.8265C19.519 97.9921 19.4064 98.1323 19.2592 98.2472C19.1167 98.3576 18.942 98.4357 18.7351 98.4817V98.399C19.0661 98.4449 19.3328 98.5783 19.5351 98.799C19.7374 99.0197 19.8385 99.3001 19.8385 99.6403C19.8385 99.9208 19.7696 100.162 19.6316 100.364C19.4983 100.562 19.3052 100.714 19.0523 100.82C18.7995 100.921 18.4937 100.971 18.1351 100.971ZM18.1351 100.606C18.5581 100.606 18.8753 100.525 19.0868 100.364C19.3029 100.199 19.411 99.9507 19.411 99.6197C19.411 99.2886 19.3029 99.0426 19.0868 98.8817C18.8753 98.7208 18.5581 98.6403 18.1351 98.6403C17.7167 98.6403 17.3995 98.7208 17.1834 98.8817C16.9673 99.0426 16.8592 99.2886 16.8592 99.6197C16.8592 99.9507 16.9673 100.199 17.1834 100.364C17.3995 100.525 17.7167 100.606 18.1351 100.606ZM18.1351 98.2679C18.3788 98.2679 18.5857 98.2311 18.7558 98.1576C18.9305 98.0794 19.0638 97.9691 19.1558 97.8265C19.2523 97.6794 19.3006 97.507 19.3006 97.3093C19.3006 97.0105 19.1972 96.7783 18.9903 96.6128C18.788 96.4472 18.5029 96.3645 18.1351 96.3645C17.7719 96.3645 17.4868 96.4472 17.2799 96.6128C17.073 96.7783 16.9696 97.0105 16.9696 97.3093C16.9696 97.6082 17.073 97.8426 17.2799 98.0128C17.4868 98.1829 17.7719 98.2679 18.1351 98.2679Z" fill="black"/>
<path d="M14.1303 100.971C13.859 100.971 13.59 100.93 13.3234 100.847C13.0613 100.76 12.8245 100.629 12.613 100.454C12.5763 100.422 12.551 100.387 12.5372 100.351C12.528 100.309 12.528 100.27 12.5372 100.233C12.551 100.192 12.5717 100.16 12.5992 100.137C12.6268 100.109 12.6613 100.095 12.7027 100.095C12.7487 100.091 12.7946 100.107 12.8406 100.144C13.0337 100.295 13.2383 100.408 13.4544 100.482C13.6705 100.551 13.8958 100.585 14.1303 100.585C14.3694 100.585 14.574 100.539 14.7441 100.447C14.9188 100.351 15.0521 100.22 15.1441 100.054C15.2406 99.884 15.2889 99.6886 15.2889 99.4679C15.2889 99.1185 15.19 98.8334 14.9923 98.6127C14.7946 98.392 14.5234 98.2817 14.1785 98.2817C13.9533 98.2817 13.751 98.3231 13.5717 98.4058C13.3969 98.4886 13.2383 98.6219 13.0958 98.8058C13.0728 98.8426 13.0429 98.8725 13.0061 98.8955C12.974 98.9185 12.9349 98.93 12.8889 98.93C12.8245 98.93 12.774 98.9116 12.7372 98.8748C12.705 98.838 12.6889 98.7897 12.6889 98.73V96.261C12.6889 96.192 12.7073 96.1415 12.7441 96.1093C12.7808 96.0725 12.8314 96.0541 12.8958 96.0541H15.2682C15.3372 96.0541 15.3877 96.0702 15.4199 96.1024C15.4567 96.1346 15.4751 96.1805 15.4751 96.2403C15.4751 96.3001 15.4567 96.3461 15.4199 96.3782C15.3877 96.4104 15.3372 96.4265 15.2682 96.4265H13.1096V98.5369H12.9854C13.105 98.3346 13.2751 98.1782 13.4958 98.0679C13.7165 97.953 13.9625 97.8955 14.2337 97.8955C14.5372 97.8955 14.7992 97.9599 15.0199 98.0886C15.2406 98.2173 15.4107 98.3966 15.5303 98.6265C15.6544 98.8564 15.7165 99.1254 15.7165 99.4334C15.7165 99.7369 15.6521 100.004 15.5234 100.233C15.3946 100.463 15.2107 100.645 14.9717 100.778C14.7372 100.907 14.4567 100.971 14.1303 100.971Z" fill="black"/>
<path d="M9.12637 100.971C8.8551 100.971 8.58614 100.93 8.31947 100.847C8.0574 100.76 7.82062 100.629 7.60913 100.454C7.57234 100.422 7.54706 100.387 7.53326 100.351C7.52407 100.309 7.52407 100.27 7.53326 100.233C7.54706 100.192 7.56775 100.16 7.59533 100.137C7.62292 100.109 7.6574 100.095 7.69878 100.095C7.74476 100.091 7.79074 100.107 7.83671 100.144C8.02982 100.295 8.23441 100.408 8.45051 100.482C8.6666 100.551 8.89188 100.585 9.12637 100.585C9.36545 100.585 9.57005 100.539 9.74016 100.447C9.91487 100.351 10.0482 100.22 10.1402 100.054C10.2367 99.884 10.285 99.6886 10.285 99.4679C10.285 99.1185 10.1861 98.8334 9.98844 98.6127C9.79074 98.392 9.51947 98.2817 9.17464 98.2817C8.94936 98.2817 8.74706 98.3231 8.56775 98.4058C8.39303 98.4886 8.23441 98.6219 8.09188 98.8058C8.0689 98.8426 8.03901 98.8725 8.00223 98.8955C7.97005 98.9185 7.93096 98.93 7.88499 98.93C7.82062 98.93 7.77005 98.9116 7.73326 98.8748C7.70108 98.838 7.68499 98.7897 7.68499 98.73V96.261C7.68499 96.192 7.70338 96.1415 7.74016 96.1093C7.77694 96.0725 7.82752 96.0541 7.89188 96.0541H10.2643C10.3333 96.0541 10.3838 96.0702 10.416 96.1024C10.4528 96.1346 10.4712 96.1805 10.4712 96.2403C10.4712 96.3001 10.4528 96.3461 10.416 96.3782C10.3838 96.4104 10.3333 96.4265 10.2643 96.4265H8.10568V98.5369H7.98154C8.10108 98.3346 8.27119 98.1782 8.49188 98.0679C8.71257 97.953 8.95855 97.8955 9.22982 97.8955C9.53326 97.8955 9.79533 97.9599 10.016 98.0886C10.2367 98.2173 10.4068 98.3966 10.5264 98.6265C10.6505 98.8564 10.7126 99.1254 10.7126 99.4334C10.7126 99.7369 10.6482 100.004 10.5195 100.233C10.3907 100.463 10.2068 100.645 9.96775 100.778C9.73326 100.907 9.4528 100.971 9.12637 100.971Z" fill="black"/>
<path d="M26.9541 110.803C26.9265 110.854 26.8944 110.886 26.8576 110.899C26.8208 110.918 26.784 110.922 26.7472 110.913C26.7105 110.904 26.6783 110.886 26.6507 110.858C26.6277 110.831 26.6139 110.796 26.6093 110.755C26.6047 110.713 26.6162 110.67 26.6438 110.624L29.3541 105.886C29.3817 105.835 29.4139 105.803 29.4507 105.789C29.4875 105.771 29.5242 105.766 29.561 105.775C29.5978 105.785 29.6277 105.805 29.6507 105.837C29.6783 105.865 29.6944 105.899 29.699 105.941C29.7036 105.982 29.6921 106.026 29.6645 106.072L26.9541 110.803ZM26.5403 108.824C26.1863 108.824 25.9059 108.695 25.699 108.437C25.4967 108.175 25.3955 107.808 25.3955 107.334C25.3955 107.021 25.4415 106.755 25.5334 106.534C25.6254 106.313 25.7564 106.145 25.9265 106.031C26.1013 105.911 26.3059 105.851 26.5403 105.851C26.8944 105.851 27.1748 105.982 27.3817 106.244C27.5886 106.502 27.6921 106.865 27.6921 107.334C27.6921 107.651 27.6461 107.92 27.5541 108.141C27.4622 108.362 27.3311 108.532 27.161 108.651C26.9909 108.766 26.784 108.824 26.5403 108.824ZM26.5403 108.499C26.7013 108.499 26.8392 108.456 26.9541 108.368C27.0691 108.276 27.1564 108.145 27.2162 107.975C27.276 107.801 27.3059 107.587 27.3059 107.334C27.3059 106.957 27.2369 106.672 27.099 106.479C26.9656 106.281 26.7794 106.182 26.5403 106.182C26.384 106.182 26.2484 106.226 26.1334 106.313C26.0185 106.401 25.9311 106.529 25.8714 106.699C25.8116 106.87 25.7817 107.081 25.7817 107.334C25.7817 107.72 25.8484 108.012 25.9817 108.21C26.1196 108.403 26.3059 108.499 26.5403 108.499ZM29.7679 110.824C29.4139 110.824 29.1334 110.695 28.9265 110.437C28.7242 110.18 28.6231 109.812 28.6231 109.334C28.6231 109.021 28.6691 108.755 28.761 108.534C28.853 108.313 28.984 108.145 29.1541 108.031C29.3288 107.911 29.5334 107.851 29.7679 107.851C30.1265 107.851 30.407 107.982 30.6093 108.244C30.8162 108.502 30.9196 108.865 30.9196 109.334C30.9196 109.651 30.8737 109.922 30.7817 110.148C30.6898 110.368 30.5587 110.536 30.3886 110.651C30.2185 110.766 30.0116 110.824 29.7679 110.824ZM29.7679 110.499C29.9288 110.499 30.0668 110.456 30.1817 110.368C30.2967 110.281 30.384 110.15 30.4438 109.975C30.5036 109.801 30.5334 109.587 30.5334 109.334C30.5334 108.957 30.4645 108.672 30.3265 108.479C30.1932 108.281 30.007 108.182 29.7679 108.182C29.6116 108.182 29.476 108.226 29.361 108.313C29.2461 108.401 29.1587 108.529 29.099 108.699C29.0392 108.87 29.0093 109.081 29.0093 109.334C29.0093 109.72 29.076 110.012 29.2093 110.21C29.3472 110.403 29.5334 110.499 29.7679 110.499Z" fill="#A6A6A6"/>
<path d="M22.5921 110.824C22.376 110.824 22.153 110.778 21.9231 110.686C21.6932 110.594 21.4955 110.463 21.33 110.293C21.2932 110.26 21.2702 110.224 21.261 110.182C21.2518 110.141 21.2541 110.102 21.2679 110.065C21.2817 110.028 21.3024 109.998 21.33 109.975C21.3576 109.948 21.3921 109.936 21.4335 109.941C21.4748 109.941 21.5162 109.959 21.5576 109.996C21.7139 110.148 21.8817 110.26 22.061 110.334C22.2404 110.403 22.4197 110.437 22.599 110.437C22.9162 110.437 23.1852 110.359 23.4059 110.203C23.6266 110.042 23.7944 109.803 23.9093 109.486C24.0243 109.164 24.0817 108.764 24.0817 108.286V107.589H24.13C24.107 107.86 24.0312 108.097 23.9024 108.299C23.7737 108.502 23.6059 108.658 23.399 108.768C23.1967 108.874 22.9668 108.927 22.7093 108.927C22.4197 108.927 22.1622 108.863 21.9369 108.734C21.7162 108.605 21.5415 108.426 21.4128 108.196C21.2886 107.962 21.2266 107.697 21.2266 107.403C21.2266 107.099 21.2909 106.831 21.4197 106.596C21.553 106.362 21.7323 106.18 21.9576 106.051C22.1875 105.918 22.4495 105.851 22.7438 105.851C23.1208 105.851 23.4404 105.943 23.7024 106.127C23.9645 106.311 24.1622 106.58 24.2955 106.934C24.4335 107.283 24.5024 107.706 24.5024 108.203C24.5024 108.626 24.4587 109.001 24.3714 109.327C24.2886 109.653 24.1645 109.927 23.999 110.148C23.8335 110.368 23.6312 110.536 23.3921 110.651C23.1576 110.766 22.8909 110.824 22.5921 110.824ZM22.7783 108.548C23.0036 108.548 23.199 108.499 23.3645 108.403C23.5346 108.302 23.6679 108.164 23.7645 107.989C23.861 107.814 23.9093 107.614 23.9093 107.389C23.9093 107.159 23.861 106.957 23.7645 106.782C23.6679 106.608 23.5346 106.472 23.3645 106.375C23.199 106.274 23.0036 106.224 22.7783 106.224C22.5576 106.224 22.3622 106.274 22.1921 106.375C22.0266 106.472 21.8955 106.608 21.799 106.782C21.7024 106.957 21.6541 107.159 21.6541 107.389C21.6541 107.614 21.7024 107.814 21.799 107.989C21.8955 108.164 22.0266 108.302 22.1921 108.403C22.3622 108.499 22.5576 108.548 22.7783 108.548Z" fill="#A6A6A6"/>
<path d="M18.7319 110.824C18.456 110.824 18.1848 110.782 17.9181 110.699C17.6514 110.617 17.4193 110.493 17.2216 110.327C17.1756 110.295 17.1457 110.258 17.1319 110.217C17.1227 110.175 17.1227 110.136 17.1319 110.099C17.1411 110.063 17.1595 110.031 17.1871 110.003C17.2147 109.975 17.2491 109.962 17.2905 109.962C17.3319 109.957 17.3779 109.973 17.4284 110.01C17.6353 110.157 17.8445 110.265 18.056 110.334C18.2721 110.403 18.4974 110.437 18.7319 110.437C18.9802 110.437 19.1894 110.401 19.3595 110.327C19.5296 110.249 19.6583 110.136 19.7457 109.989C19.8376 109.842 19.8836 109.66 19.8836 109.444C19.8836 109.132 19.7802 108.895 19.5733 108.734C19.371 108.568 19.0767 108.486 18.6905 108.486H18.1733C18.1089 108.486 18.0583 108.47 18.0216 108.437C17.9848 108.401 17.9664 108.355 17.9664 108.299C17.9664 108.24 17.9848 108.194 18.0216 108.162C18.0583 108.129 18.1089 108.113 18.1733 108.113H18.656C18.8813 108.113 19.0744 108.072 19.2353 107.989C19.3963 107.906 19.5204 107.791 19.6078 107.644C19.6997 107.493 19.7457 107.311 19.7457 107.099C19.7457 106.824 19.656 106.612 19.4767 106.465C19.302 106.313 19.0468 106.237 18.7112 106.237C18.4859 106.237 18.2744 106.274 18.0767 106.348C17.879 106.417 17.6905 106.529 17.5112 106.686C17.4698 106.722 17.4284 106.743 17.3871 106.748C17.3457 106.748 17.3089 106.736 17.2767 106.713C17.2491 106.69 17.2284 106.66 17.2147 106.624C17.2009 106.582 17.2009 106.541 17.2147 106.499C17.2284 106.453 17.2583 106.412 17.3043 106.375C17.4836 106.205 17.6974 106.076 17.9457 105.989C18.1986 105.897 18.4583 105.851 18.725 105.851C19.0284 105.851 19.2882 105.899 19.5043 105.996C19.7204 106.093 19.8859 106.233 20.0009 106.417C20.1204 106.601 20.1802 106.821 20.1802 107.079C20.1802 107.281 20.1411 107.465 20.0629 107.631C19.9894 107.796 19.8836 107.936 19.7457 108.051C19.6078 108.166 19.4422 108.249 19.2491 108.299V108.224C19.5848 108.283 19.8445 108.424 20.0284 108.644C20.217 108.86 20.3112 109.134 20.3112 109.465C20.3112 109.741 20.2468 109.982 20.1181 110.189C19.994 110.391 19.8147 110.548 19.5802 110.658C19.3457 110.768 19.0629 110.824 18.7319 110.824Z" fill="#A6A6A6"/>
<path d="M15.9963 111.389C15.9549 111.44 15.9136 111.467 15.8722 111.472C15.8308 111.481 15.794 111.474 15.7618 111.451C15.7342 111.428 15.7182 111.396 15.7136 111.355C15.7136 111.313 15.7342 111.265 15.7756 111.21C15.8354 111.127 15.8791 111.04 15.9067 110.948C15.9342 110.856 15.948 110.771 15.948 110.693L15.9756 110.789C15.8745 110.789 15.7917 110.759 15.7274 110.699C15.6676 110.64 15.6377 110.564 15.6377 110.472C15.6377 110.38 15.6653 110.304 15.7205 110.244C15.7756 110.185 15.8515 110.155 15.948 110.155C16.0446 110.155 16.1205 110.189 16.1756 110.258C16.2354 110.322 16.2653 110.421 16.2653 110.555C16.2653 110.637 16.2561 110.727 16.2377 110.824C16.2239 110.925 16.1963 111.024 16.1549 111.12C16.1136 111.217 16.0607 111.306 15.9963 111.389Z" fill="#A6A6A6"/>
<path d="M12.1229 110.768C12.0631 110.768 12.0148 110.752 11.978 110.72C11.9412 110.683 11.9229 110.635 11.9229 110.575C11.9229 110.516 11.9412 110.472 11.978 110.444C12.0148 110.412 12.0631 110.396 12.1229 110.396H13.0815V106.244H13.3229L12.3229 106.927C12.2769 106.959 12.2332 106.975 12.1918 106.975C12.1504 106.971 12.116 106.955 12.0884 106.927C12.0608 106.899 12.0401 106.867 12.0263 106.83C12.0171 106.794 12.0194 106.755 12.0332 106.713C12.047 106.672 12.0769 106.637 12.1229 106.61L13.0746 105.948C13.1206 105.92 13.1619 105.899 13.1987 105.886C13.2355 105.872 13.2769 105.865 13.3229 105.865C13.3734 105.865 13.4148 105.881 13.447 105.913C13.4838 105.941 13.5022 105.989 13.5022 106.058V110.396H14.3918C14.4562 110.396 14.5045 110.412 14.5366 110.444C14.5734 110.472 14.5918 110.516 14.5918 110.575C14.5918 110.64 14.5734 110.688 14.5366 110.72C14.5045 110.752 14.4562 110.768 14.3918 110.768H12.1229Z" fill="#A6A6A6"/>
<path d="M7.44988 108.962C7.39011 108.962 7.34413 108.948 7.31195 108.92C7.27976 108.888 7.26367 108.844 7.26367 108.789C7.26367 108.734 7.27976 108.693 7.31195 108.665C7.34413 108.633 7.39011 108.617 7.44988 108.617H10.5395C10.5993 108.617 10.6453 108.633 10.6775 108.665C10.7096 108.693 10.7257 108.734 10.7257 108.789C10.7257 108.849 10.7096 108.893 10.6775 108.92C10.6453 108.948 10.5993 108.962 10.5395 108.962H7.44988Z" fill="#A6A6A6"/>
<path fill-rule="evenodd" clip-rule="evenodd" d="M70.9652 89.5862H6.92578V89.0936H70.9652V89.5862Z" fill="black"/>
<g clip-path="url(#clip0_2002_404)">
<path d="M6.92578 69.8818H21.7041V84.6601H6.92578V69.8818Z" fill="#C4162E"/>
<path d="M10.3645 79.3821C11.3348 79.3821 12.0054 78.8174 12.0054 77.9597V77.9539C12.0054 77.1815 11.423 76.6223 10.6173 76.6223C10.1879 76.6223 9.838 76.7896 9.66146 77.0651H9.6443L9.74722 75.9124H11.7077V75.1598H9.04103L8.84707 77.6359H9.62029C9.67043 77.5507 9.73799 77.4712 9.82349 77.409C9.96732 77.2981 10.1526 77.2356 10.3703 77.2356C10.8289 77.2356 11.1554 77.5393 11.1583 77.9711V77.9766C11.1583 78.4139 10.8321 78.7208 10.3674 78.7208C9.95834 78.7208 9.66146 78.4822 9.5997 78.1727L9.5939 78.1526H8.77344L8.77634 78.1954C8.82912 78.8797 9.44084 79.3821 10.3645 79.3821ZM14.1754 79.3821C15.2521 79.3821 15.9048 78.5844 15.9048 77.281V77.2754C15.9048 75.9718 15.2519 75.1598 14.1757 75.1598C13.0993 75.1598 12.4464 75.972 12.4464 77.2754V77.281C12.4464 78.5846 13.0993 79.3821 14.1757 79.3821H14.1754ZM14.1754 78.7121C13.6463 78.7121 13.3434 78.1811 13.3434 77.281V77.2754C13.3434 76.375 13.6463 75.847 14.1757 75.847C14.7051 75.847 15.0078 76.3753 15.0078 77.2754V77.281C15.0078 78.1811 14.7051 78.7121 14.1757 78.7121H14.1754ZM18.1281 79.3821C19.2043 79.3821 19.8572 78.5844 19.8572 77.281V77.2754C19.8572 75.9715 19.2043 75.1598 18.1281 75.1598C17.0517 75.1598 16.3988 75.972 16.3988 77.2754V77.281C16.3988 78.5846 17.0517 79.3821 18.1281 79.3821ZM18.1281 78.7121C17.5987 78.7121 17.2958 78.1811 17.2958 77.281V77.2754C17.2958 76.375 17.5987 75.847 18.1281 75.847C18.6572 75.847 18.9602 76.3753 18.9602 77.2754V77.281C18.9602 78.1811 18.6572 78.7121 18.1281 78.7121Z" fill="white"/>
</g>
</g>
<path d="M66 4.46305C66 3.10275 67.1027 2 68.4631 2H137.429C138.789 2 139.892 3.10275 139.892 4.46305V99.5369C139.892 100.897 138.789 102 137.429 102H68.4631C67.1027 102 66 100.897 66 99.5369V4.46305Z" fill="white"/>
<g filter="url(#filter1_d_2002_404)">
<path d="M66 4.46305C66 3.10275 67.1027 2 68.4631 2H137.429C138.789 2 139.892 3.10275 139.892 4.46305V99.5369C139.892 100.897 138.789 102 137.429 102H68.4631C67.1027 102 66 100.897 66 99.5369V4.46305Z" fill="white"/>
</g>
<rect x="70.9258" y="85.2512" width="22.0499" height="7.47586" rx="3" fill="#292929"/>
<path d="M88.5938 90.4674C88.53 90.4674 88.4812 90.4523 88.4474 90.4223C88.4174 90.3885 88.4023 90.3416 88.4023 90.2815V87.877C88.4023 87.8169 88.4174 87.7719 88.4474 87.7418C88.4774 87.7118 88.5206 87.6968 88.5769 87.6968C88.6295 87.6968 88.6708 87.7118 88.7008 87.7418C88.7308 87.7719 88.7458 87.8169 88.7458 87.877V88.7442H89.6187C89.9603 88.7442 90.2194 88.8193 90.3958 88.9694C90.576 89.1196 90.6661 89.3298 90.6661 89.6001C90.6661 89.7803 90.6248 89.9361 90.5422 90.0675C90.4634 90.1989 90.347 90.2984 90.1931 90.366C90.0392 90.4336 89.8477 90.4674 89.6187 90.4674H88.5938ZM88.7458 90.2027H89.6074C89.8327 90.2027 90.0072 90.1539 90.1311 90.0563C90.2588 89.9587 90.3226 89.8085 90.3226 89.6058C90.3226 89.3993 90.2588 89.2472 90.1311 89.1496C90.0072 89.052 89.8327 89.0032 89.6074 89.0032H88.7458V90.2027Z" fill="white"/>
<path d="M86.7149 90.5012C86.6624 90.5012 86.6211 90.4861 86.591 90.4561C86.561 90.4261 86.546 90.3829 86.546 90.3266V88.0234H85.6562C85.5436 88.0234 85.4873 87.9746 85.4873 87.877C85.4873 87.8357 85.5023 87.8019 85.5324 87.7756C85.5624 87.7493 85.6037 87.7362 85.6562 87.7362H87.7792C87.8881 87.7362 87.9425 87.7831 87.9425 87.877C87.9425 87.922 87.9275 87.9577 87.8975 87.984C87.8712 88.0103 87.8318 88.0234 87.7792 88.0234H86.8895V90.3266C86.8895 90.3829 86.8745 90.4261 86.8444 90.4561C86.8182 90.4861 86.775 90.5012 86.7149 90.5012Z" fill="white"/>
<path d="M82.896 90.5011C82.8659 90.5011 82.8378 90.4955 82.8115 90.4842C82.789 90.473 82.7702 90.4542 82.7552 90.4279C82.7439 90.3979 82.7383 90.3604 82.7383 90.3153V87.8713C82.7383 87.815 82.7514 87.7719 82.7777 87.7418C82.8077 87.7118 82.849 87.6968 82.9016 87.6968C82.9504 87.6968 82.9879 87.7118 83.0142 87.7418C83.0405 87.7719 83.0536 87.815 83.0536 87.8713V90.1633H82.9185L84.6698 87.8094C84.6961 87.7756 84.7242 87.7493 84.7543 87.7306C84.7843 87.708 84.8237 87.6968 84.8725 87.6968C84.9063 87.6968 84.9345 87.7043 84.957 87.7193C84.9795 87.7306 84.9964 87.7493 85.0077 87.7756C85.0227 87.8019 85.0302 87.8376 85.0302 87.8826V90.3322C85.0302 90.3848 85.0152 90.4261 84.9852 90.4561C84.9589 90.4861 84.9213 90.5011 84.8725 90.5011C84.82 90.5011 84.7805 90.4861 84.7543 90.4561C84.728 90.4261 84.7148 90.3848 84.7148 90.3322V88.0403H84.85L83.093 90.3941C83.0705 90.4242 83.0442 90.4486 83.0142 90.4674C82.9842 90.4899 82.9448 90.5011 82.896 90.5011Z" fill="white"/>
<path d="M79.6795 90.5012C79.6231 90.5012 79.58 90.4861 79.5499 90.4561C79.5199 90.4261 79.5049 90.3829 79.5049 90.3266V87.9333C79.5049 87.8695 79.5218 87.8207 79.5556 87.7869C79.5894 87.7531 79.6382 87.7362 79.702 87.7362H81.5941C81.6579 87.7362 81.7067 87.7531 81.7405 87.7869C81.7743 87.8207 81.7912 87.8695 81.7912 87.9333V90.3266C81.7912 90.3829 81.7762 90.4261 81.7461 90.4561C81.7161 90.4861 81.6729 90.5012 81.6166 90.5012C81.564 90.5012 81.5227 90.4861 81.4927 90.4561C81.4627 90.4261 81.4477 90.3829 81.4477 90.3266V88.0178H79.8484V90.3266C79.8484 90.3829 79.8334 90.4261 79.8033 90.4561C79.7771 90.4861 79.7358 90.5012 79.6795 90.5012Z" fill="white"/>
<path d="M77.1699 91.5148C77.1249 91.5148 77.0892 91.5016 77.0629 91.4753C77.0366 91.4528 77.0216 91.4209 77.0179 91.3796C77.0179 91.3421 77.0254 91.3027 77.0404 91.2614L77.4289 90.3773V90.5349L76.3252 87.9558C76.3065 87.9108 76.2989 87.8695 76.3027 87.8319C76.3102 87.7906 76.3271 87.7587 76.3534 87.7362C76.3834 87.7099 76.4247 87.6968 76.4773 87.6968C76.5261 87.6968 76.5617 87.708 76.5843 87.7306C76.6105 87.7531 76.6331 87.7888 76.6518 87.8376L77.6542 90.2646H77.5134L78.5158 87.8376C78.5383 87.785 78.5627 87.7493 78.589 87.7306C78.6153 87.708 78.6528 87.6968 78.7016 87.6968C78.7504 87.6968 78.7861 87.7099 78.8086 87.7362C78.8349 87.7587 78.8499 87.7888 78.8537 87.8263C78.8574 87.8638 78.8499 87.9051 78.8311 87.9502L77.3614 91.3796C77.3388 91.4322 77.3126 91.4678 77.2825 91.4866C77.2563 91.5054 77.2187 91.5148 77.1699 91.5148Z" fill="white"/>
<path d="M73.4053 90.5012C73.3527 90.5012 73.3114 90.4862 73.2814 90.4561C73.2513 90.4223 73.2363 90.3773 73.2363 90.321V86.6381C73.2363 86.5818 73.2513 86.5386 73.2814 86.5086C73.3114 86.4786 73.3527 86.4636 73.4053 86.4636C73.4616 86.4636 73.5048 86.4786 73.5348 86.5086C73.5648 86.5386 73.5798 86.5818 73.5798 86.6381V88.305H74.4133L74.2837 88.3894L75.517 86.5537C75.5433 86.5161 75.5733 86.4917 75.6071 86.4805C75.6409 86.4654 75.6747 86.4617 75.7084 86.4692C75.7422 86.4767 75.7704 86.4936 75.7929 86.5199C75.8154 86.5424 75.8286 86.5706 75.8323 86.6043C75.8398 86.6381 75.8305 86.6757 75.8042 86.717L74.6329 88.4401L74.5146 88.3162C74.7324 88.3388 74.9201 88.4176 75.0777 88.5528C75.2392 88.6842 75.3781 88.8681 75.4945 89.1046L76.0688 90.2647C76.0914 90.306 76.097 90.3454 76.0857 90.3829C76.0782 90.4167 76.0595 90.443 76.0294 90.4617C76.0031 90.4805 75.9712 90.4918 75.9337 90.4955C75.8999 90.4993 75.8661 90.4918 75.8323 90.473C75.7985 90.458 75.7723 90.4298 75.7535 90.3885L75.2242 89.2961C75.104 89.0483 74.9689 88.8719 74.8187 88.7667C74.6723 88.6616 74.4921 88.6091 74.2781 88.6091H73.5798V90.321C73.5798 90.3773 73.5648 90.4223 73.5348 90.4561C73.5085 90.4862 73.4653 90.5012 73.4053 90.5012Z" fill="white"/>
<path fill-rule="evenodd" clip-rule="evenodd" d="M97.4076 63.1861L94.5662 76.9267L94.0798 76.9012L92.802 64.0103C92.7965 64.0179 92.7909 64.0257 92.7852 64.0337C92.5382 64.3793 92.2056 64.9143 91.8671 65.4663C91.8122 65.5557 91.7572 65.6456 91.7025 65.7351C91.4224 66.1927 91.1491 66.6395 90.9349 66.9635C90.809 67.1539 90.6943 67.3165 90.6063 67.4137C90.5835 67.4388 90.5579 67.4648 90.5304 67.4873C90.5085 67.5051 90.461 67.5418 90.3954 67.5574C90.3584 67.5663 90.3046 67.5711 90.2453 67.5508C90.183 67.5295 90.1384 67.4887 90.1102 67.4462C90.0631 67.3752 90.0615 67.2999 90.0615 67.271C90.0615 67.0077 89.9865 66.6019 89.8845 66.1841C89.8148 65.8987 89.7353 65.6188 89.6665 65.3937L86.9971 66.6118L85.5159 63.3898L84.4461 63.7609L83.4352 70.0253L82.4526 74.7107L81.9739 74.7247C81.7276 73.8182 81.19 71.8725 80.9964 71.2895C80.9181 71.0534 80.7298 70.8214 80.5027 70.6205C80.4187 70.5461 80.3324 70.4788 80.2498 70.4198V74.9065H78.7452L78.2846 78.1431L77.8092 78.1923L75.343 71.3836V78.9701L73.7332 76.3843H72.5558L71.1497 79.4428L70.7021 79.2371L72.2401 75.8917H74.0068L74.8504 77.2468V69.9804L75.3283 69.8965L77.9361 77.0961L78.2852 74.6426C78.2859 74.2276 78.3108 73.6312 78.3867 73.1786C78.4235 72.9589 78.4781 72.7326 78.5715 72.5845C78.6178 72.5112 78.7056 72.4061 78.8515 72.384C79.0045 72.3609 79.1234 72.4424 79.1966 72.5159C79.3426 72.6624 79.4166 72.8576 79.4528 73.0488C79.4893 73.2419 79.4915 73.453 79.4763 73.6564C79.4565 73.9204 79.406 74.1876 79.3493 74.4139H79.7572V69.5811L80.114 69.7602C80.2951 69.8511 80.5707 70.0229 80.8291 70.2516C81.0846 70.4776 81.3461 70.7792 81.464 71.1343C81.6057 71.5611 81.9213 72.6793 82.1796 73.6126L82.9507 69.9354L84.0067 63.3919L85.7767 62.7779L87.2395 65.9597L89.9644 64.7163L90.0508 64.9766C90.1344 65.2284 90.259 65.6412 90.363 66.0673C90.4162 66.2849 90.4656 66.5124 90.5008 66.7267C90.5084 66.7153 90.5161 66.7037 90.524 66.6918C90.7329 66.3757 91.0006 65.9383 91.2808 65.4803C91.3359 65.3903 91.3915 65.2996 91.4472 65.2087C91.7834 64.6605 92.1254 64.1097 92.3844 63.7473C92.5088 63.5733 92.6319 63.4164 92.7353 63.3325C92.7627 63.3102 92.8005 63.2832 92.8462 63.2644C92.89 63.2464 92.9736 63.2231 93.067 63.2602C93.1659 63.2994 93.2118 63.3801 93.231 63.4343C93.2473 63.4804 93.2518 63.5261 93.2526 63.5627L94.4108 75.2456L96.9509 62.962L96.9933 62.9194C96.9951 62.9166 96.9976 62.9124 97.001 62.9064C97.0122 62.8864 97.0272 62.8567 97.0463 62.8158C97.0841 62.7345 97.1323 62.6212 97.1899 62.4785C97.3047 62.1937 97.4523 61.804 97.6226 61.3461C97.735 61.044 97.8572 60.7125 97.9859 60.3632C98.2463 59.6565 98.5337 58.8768 98.8215 58.1194C99.2511 56.9887 99.6862 55.8961 100.04 55.1586C100.214 54.7958 100.379 54.4956 100.524 54.3227C100.561 54.278 100.603 54.2342 100.65 54.1988C100.694 54.1652 100.761 54.1252 100.846 54.1164C100.945 54.1063 101.035 54.1414 101.102 54.2056C101.159 54.2613 101.191 54.33 101.209 54.3855C101.244 54.4914 101.262 54.6319 101.271 54.7845C101.28 54.9423 101.282 55.133 101.277 55.3497C101.267 55.7833 101.232 56.3343 101.18 56.9604C101.076 58.2131 100.903 59.7807 100.726 61.3382C100.691 61.6399 100.657 61.9412 100.623 62.2398C100.48 63.4848 100.343 64.683 100.245 65.6683C100.184 66.2792 100.138 66.805 100.115 67.2074C100.11 67.2878 100.107 67.3627 100.104 67.4321L101.871 65.658L103.043 62.4237L103.291 62.9841C103.33 63.0741 103.346 63.2 103.354 63.3149C103.364 63.4419 103.368 63.599 103.367 63.7765C103.367 64.1322 103.35 64.5862 103.327 65.0773C103.312 65.3978 103.294 65.734 103.276 66.0709C103.24 66.7726 103.203 67.477 103.189 68.0467C103.187 68.1366 103.185 68.2225 103.184 68.3038C103.195 68.2663 103.206 68.2274 103.217 68.1871C103.368 67.6424 103.561 66.8468 103.806 65.7399C103.809 65.7287 103.813 65.7108 103.822 65.6905C103.829 65.6738 103.847 65.6335 103.888 65.5972C103.94 65.552 104.019 65.5205 104.108 65.5405C104.18 65.5564 104.222 65.5982 104.238 65.6152C104.271 65.6503 104.287 65.688 104.292 65.6983C104.299 65.7155 104.305 65.7328 104.31 65.7475C104.328 65.8034 104.348 65.8886 104.369 65.9887C104.413 66.1944 104.472 66.5077 104.542 66.891C104.563 67.0054 104.585 67.1263 104.608 67.2527C104.741 67.9774 104.907 68.8869 105.095 69.8181C105.316 70.9128 105.567 72.0307 105.827 72.9082C105.957 73.3476 106.087 73.7192 106.215 73.9951C106.242 74.0546 106.269 74.1085 106.295 74.1568L109.446 64.2342L111.913 72.134L113.291 54.4439L113.78 54.4218L115.324 63.4995L122.817 78.6252L125.12 69.183L125.12 69.1824L128.096 57.1135L128.581 57.1561L129.262 67.4305L131.269 65.3058L132.617 70.2071L135.271 67.1107L135.645 67.4313L132.388 71.2314L131.026 66.2804L128.846 68.5893L128.195 58.7721L125.599 69.2998L125.599 69.3004L122.976 80.0547L114.85 63.6534L113.628 56.4664L112.305 73.4477L111.824 73.502L109.442 65.8743L106.539 75.0184L106.277 74.8768C106.162 74.8149 106.069 74.7122 105.992 74.6039C105.913 74.4923 105.839 74.3552 105.768 74.2017C105.626 73.8945 105.487 73.4969 105.354 73.0481C105.088 72.149 104.834 71.0139 104.612 69.9157C104.423 68.9796 104.256 68.0652 104.124 67.3407C104.101 67.2144 104.079 67.0938 104.058 66.9799C104.053 66.957 104.049 66.9342 104.045 66.9118C103.909 67.4947 103.792 67.9586 103.692 68.3187C103.615 68.5969 103.547 68.8165 103.487 68.9825C103.43 69.1412 103.373 69.2732 103.311 69.3587C103.285 69.3943 103.225 69.4711 103.123 69.4992C103.062 69.516 102.995 69.5126 102.933 69.4844C102.876 69.4586 102.839 69.4192 102.817 69.3891C102.776 69.333 102.756 69.2682 102.744 69.2233C102.731 69.1725 102.722 69.1153 102.715 69.0557C102.688 68.8215 102.686 68.4572 102.697 68.0348C102.71 67.4581 102.748 66.741 102.785 66.0351C102.803 65.7003 102.82 65.3679 102.835 65.0543C102.846 64.8115 102.856 64.5799 102.863 64.3662L102.297 65.9283L99.7425 68.4929L99.637 68.0694C99.6139 67.9766 99.6068 67.8483 99.6059 67.7099C99.605 67.5648 99.6112 67.3857 99.623 67.1794C99.6465 66.7663 99.6932 66.2323 99.7544 65.6193C99.8531 64.6303 99.9908 63.4275 100.133 62.1824C100.167 61.8841 100.202 61.5833 100.236 61.2825C100.413 59.7243 100.586 58.1638 100.689 56.9196C100.741 56.2972 100.775 55.7576 100.784 55.3387C100.789 55.1297 100.787 54.9541 100.779 54.8151C100.696 54.9504 100.597 55.137 100.484 55.3717C100.14 56.0884 99.7118 57.1633 99.2819 58.2944C98.995 59.0496 98.7094 59.8247 98.4495 60.53C98.3204 60.8801 98.1977 61.2131 98.0843 61.5179C97.9139 61.976 97.7643 62.3711 97.6467 62.6627C97.588 62.8082 97.5361 62.9309 97.4928 63.0239C97.4712 63.0702 97.4503 63.1122 97.4307 63.1473C97.4245 63.1583 97.4168 63.1717 97.4076 63.1861ZM78.7779 74.6142L78.7884 74.5826C78.8655 74.3502 78.9583 73.9764 78.9851 73.6196C78.9984 73.4413 78.9945 73.2767 78.9687 73.1404C78.9583 73.0851 78.9449 73.0379 78.9293 72.9978C78.9099 73.0657 78.8904 73.1531 78.8725 73.26C78.8049 73.6638 78.7797 74.2122 78.7779 74.6142ZM92.7601 63.5726C92.76 63.5717 92.76 63.5712 92.76 63.5711L92.7601 63.5726Z" fill="#CF0000"/>
<path d="M103.867 20.2799C103.79 20.2799 103.728 20.2621 103.68 20.2267C103.639 20.1853 103.615 20.138 103.61 20.0848C103.604 20.0257 103.621 19.9666 103.663 19.9075L105.862 16.937V17.1144L103.805 14.3213C103.757 14.2503 103.734 14.1853 103.734 14.1262C103.74 14.0671 103.766 14.0198 103.813 13.9843C103.861 13.9429 103.917 13.9222 103.982 13.9222C104.047 13.9222 104.1 13.937 104.142 13.9666C104.189 13.9902 104.236 14.0346 104.283 14.0996L106.208 16.7242H106.039L107.945 14.0996C107.987 14.0346 108.031 13.9902 108.078 13.9666C108.126 13.937 108.182 13.9222 108.247 13.9222C108.318 13.9222 108.374 13.94 108.415 13.9754C108.463 14.0109 108.486 14.0612 108.486 14.1262C108.492 14.1853 108.472 14.2503 108.424 14.3213L106.358 17.1144V16.937L108.557 19.9075C108.605 19.9666 108.625 20.0257 108.619 20.0848C108.613 20.138 108.587 20.1853 108.54 20.2267C108.492 20.2621 108.43 20.2799 108.353 20.2799C108.3 20.2799 108.247 20.2651 108.194 20.2355C108.146 20.206 108.099 20.1616 108.052 20.1025L105.995 17.2917H106.225L104.168 20.1025C104.127 20.1616 104.079 20.206 104.026 20.2355C103.973 20.2651 103.92 20.2799 103.867 20.2799Z" fill="black"/>
<path d="M97.6321 20.2799C97.5553 20.2799 97.4932 20.2621 97.4459 20.2267C97.4046 20.1971 97.3809 20.1528 97.375 20.0937C97.375 20.0346 97.3898 19.9695 97.4193 19.8986L99.911 14.1705C99.9523 14.0818 100.003 14.0198 100.062 13.9843C100.121 13.9429 100.18 13.9222 100.239 13.9222C100.31 13.9222 100.372 13.9429 100.425 13.9843C100.484 14.0198 100.532 14.0818 100.567 14.1705L103.059 19.8986C103.094 19.9695 103.109 20.0346 103.103 20.0937C103.103 20.1528 103.082 20.1971 103.041 20.2267C103.006 20.2621 102.949 20.2799 102.873 20.2799C102.79 20.2799 102.722 20.2592 102.669 20.2178C102.621 20.1705 102.58 20.1084 102.544 20.0316L101.862 18.4267L102.154 18.5597H98.3149L98.6164 18.4267L97.9336 20.0316C97.8982 20.1203 97.8538 20.1853 97.8006 20.2267C97.7533 20.2621 97.6972 20.2799 97.6321 20.2799ZM100.23 14.6493L98.7228 18.1961L98.5188 18.0897H101.95L101.764 18.1961L100.248 14.6493H100.23Z" fill="black"/>
<path d="M91.7478 20.2267C91.6532 20.2267 91.5793 20.2001 91.5261 20.1469C91.4729 20.0937 91.4463 20.0168 91.4463 19.9164V14.2858C91.4463 14.1853 91.4729 14.1085 91.5261 14.0553C91.5793 14.0021 91.6532 13.9755 91.7478 13.9755H93.4591C94.4522 13.9755 95.2177 14.2415 95.7556 14.7735C96.2995 15.3055 96.5714 16.0799 96.5714 17.0966C96.5714 17.605 96.5005 18.0543 96.3586 18.4444C96.2226 18.8346 96.0217 19.1627 95.7556 19.4287C95.4896 19.6888 95.1645 19.8868 94.7803 20.0228C94.396 20.1587 93.9556 20.2267 93.4591 20.2267H91.7478ZM91.9872 19.7479H93.4148C93.8463 19.7479 94.2217 19.6917 94.5409 19.5794C94.866 19.4671 95.135 19.3016 95.3478 19.0829C95.5606 18.8641 95.7202 18.5893 95.8266 18.2582C95.933 17.9213 95.9862 17.5341 95.9862 17.0966C95.9862 16.2159 95.7704 15.5567 95.3389 15.1193C94.9133 14.676 94.2719 14.4543 93.4148 14.4543H91.9872V19.7479Z" fill="black"/>
<path d="M112.056 40.9576C111.991 40.9576 111.941 40.9392 111.904 40.9024C111.867 40.861 111.849 40.8058 111.849 40.7369V36.2748C111.849 36.2012 111.867 36.1461 111.904 36.1093C111.945 36.0725 111.998 36.0541 112.062 36.0541H113.683C114.198 36.0541 114.593 36.1736 114.869 36.4127C115.145 36.6518 115.283 36.992 115.283 37.4334C115.283 37.7185 115.221 37.9645 115.097 38.1713C114.973 38.3736 114.789 38.5277 114.545 38.6334C114.306 38.7392 114.019 38.792 113.683 38.792L113.759 38.7024H113.856C114.03 38.7024 114.182 38.7484 114.311 38.8403C114.444 38.9323 114.564 39.0817 114.669 39.2886L115.4 40.6472C115.433 40.6978 115.446 40.7484 115.442 40.7989C115.442 40.8449 115.426 40.884 115.393 40.9162C115.361 40.9438 115.32 40.9576 115.269 40.9576C115.21 40.9576 115.159 40.9438 115.118 40.9162C115.081 40.8886 115.049 40.8495 115.021 40.7989L114.249 39.3576C114.129 39.1369 113.996 38.992 113.849 38.9231C113.702 38.8495 113.504 38.8127 113.256 38.8127H112.269V40.7369C112.269 40.8058 112.251 40.861 112.214 40.9024C112.182 40.9392 112.129 40.9576 112.056 40.9576ZM112.269 38.4541H113.628C114.037 38.4541 114.343 38.3691 114.545 38.1989C114.752 38.0242 114.856 37.7691 114.856 37.4334C114.856 37.1024 114.752 36.8518 114.545 36.6817C114.343 36.507 114.037 36.4196 113.628 36.4196H112.269V38.4541Z" fill="black"/>
<path d="M108.72 40.9713C108.412 40.9713 108.138 40.93 107.899 40.8472C107.66 40.7644 107.46 40.6403 107.299 40.4748C107.143 40.3093 107.023 40.1047 106.94 39.861C106.862 39.6173 106.823 39.3369 106.823 39.0196V36.2265C106.823 36.153 106.842 36.1001 106.878 36.0679C106.915 36.0311 106.966 36.0127 107.03 36.0127C107.099 36.0127 107.152 36.0311 107.189 36.0679C107.226 36.1001 107.244 36.153 107.244 36.2265V38.9851C107.244 39.5231 107.368 39.9254 107.616 40.192C107.869 40.4541 108.237 40.5851 108.72 40.5851C109.207 40.5851 109.575 40.4541 109.823 40.192C110.072 39.9254 110.196 39.5231 110.196 38.9851V36.2265C110.196 36.153 110.214 36.1001 110.251 36.0679C110.288 36.0311 110.34 36.0127 110.409 36.0127C110.474 36.0127 110.524 36.0311 110.561 36.0679C110.598 36.1001 110.616 36.153 110.616 36.2265V39.0196C110.616 39.4426 110.545 39.8012 110.403 40.0955C110.26 40.3851 110.046 40.6035 109.761 40.7507C109.481 40.8978 109.134 40.9713 108.72 40.9713Z" fill="black"/>
<path d="M103.119 40.9162C103.046 40.9162 102.988 40.8955 102.947 40.8541C102.905 40.8127 102.885 40.753 102.885 40.6748V36.2955C102.885 36.2173 102.905 36.1576 102.947 36.1162C102.988 36.0748 103.046 36.0541 103.119 36.0541H105.726C105.791 36.0541 105.839 36.0702 105.871 36.1024C105.903 36.1346 105.919 36.1782 105.919 36.2334C105.919 36.2978 105.903 36.3461 105.871 36.3782C105.839 36.4058 105.791 36.4196 105.726 36.4196H103.299V38.2679H105.588C105.653 38.2679 105.701 38.284 105.733 38.3162C105.765 38.3438 105.781 38.3874 105.781 38.4472C105.781 38.507 105.765 38.553 105.733 38.5851C105.701 38.6173 105.653 38.6334 105.588 38.6334H103.299V40.5507H105.726C105.791 40.5507 105.839 40.5668 105.871 40.5989C105.903 40.6265 105.919 40.6702 105.919 40.73C105.919 40.7897 105.903 40.8357 105.871 40.8679C105.839 40.9001 105.791 40.9162 105.726 40.9162H103.119Z" fill="black"/>
<path d="M100.184 40.9714C99.6365 40.9714 99.2204 40.7599 98.9353 40.3369C98.6549 39.9093 98.5146 39.2932 98.5146 38.4886C98.5146 37.9415 98.5767 37.484 98.7009 37.1162C98.8296 36.7484 99.0181 36.4702 99.2664 36.2817C99.5146 36.0932 99.8204 35.999 100.184 35.999C100.735 35.999 101.151 36.2082 101.432 36.6265C101.712 37.0449 101.853 37.6633 101.853 38.4817C101.853 39.0197 101.788 39.4748 101.659 39.8472C101.535 40.2197 101.349 40.5001 101.101 40.6886C100.853 40.8771 100.547 40.9714 100.184 40.9714ZM100.184 40.5921C100.602 40.5921 100.912 40.4197 101.115 40.0748C101.317 39.73 101.418 39.199 101.418 38.4817C101.418 37.7553 101.317 37.2242 101.115 36.8886C100.917 36.5484 100.607 36.3783 100.184 36.3783C99.7652 36.3783 99.4549 36.5484 99.2526 36.8886C99.0503 37.2288 98.9491 37.7599 98.9491 38.4817C98.9491 39.199 99.0503 39.73 99.2526 40.0748C99.4549 40.4197 99.7652 40.5921 100.184 40.5921Z" fill="black"/>
<path d="M96.0073 40.9714C95.7314 40.9714 95.4602 40.93 95.1935 40.8472C94.9268 40.7645 94.6946 40.6403 94.4969 40.4748C94.451 40.4426 94.4211 40.4059 94.4073 40.3645C94.3981 40.3231 94.3981 40.284 94.4073 40.2472C94.4165 40.2105 94.4349 40.1783 94.4625 40.1507C94.49 40.1231 94.5245 40.1093 94.5659 40.1093C94.6073 40.1047 94.6533 40.1208 94.7038 40.1576C94.9107 40.3047 95.1199 40.4128 95.3314 40.4817C95.5475 40.5507 95.7728 40.5852 96.0073 40.5852C96.2556 40.5852 96.4648 40.5484 96.6349 40.4748C96.805 40.3967 96.9337 40.284 97.0211 40.1369C97.113 39.9898 97.159 39.8082 97.159 39.5921C97.159 39.2794 97.0556 39.0426 96.8487 38.8817C96.6464 38.7162 96.3521 38.6334 95.9659 38.6334H95.4487C95.3843 38.6334 95.3337 38.6174 95.2969 38.5852C95.2602 38.5484 95.2418 38.5024 95.2418 38.4472C95.2418 38.3875 95.2602 38.3415 95.2969 38.3093C95.3337 38.2771 95.3843 38.261 95.4487 38.261H95.9314C96.1567 38.261 96.3498 38.2197 96.5107 38.1369C96.6717 38.0541 96.7958 37.9392 96.8831 37.7921C96.9751 37.6403 97.0211 37.4587 97.0211 37.2472C97.0211 36.9714 96.9314 36.7599 96.7521 36.6128C96.5774 36.461 96.3222 36.3852 95.9866 36.3852C95.7613 36.3852 95.5498 36.422 95.3521 36.4955C95.1544 36.5645 94.9659 36.6771 94.7866 36.8334C94.7452 36.8702 94.7038 36.8909 94.6625 36.8955C94.6211 36.8955 94.5843 36.884 94.5521 36.861C94.5245 36.838 94.5038 36.8082 94.49 36.7714C94.4763 36.73 94.4763 36.6886 94.49 36.6472C94.5038 36.6013 94.5337 36.5599 94.5797 36.5231C94.759 36.353 94.9728 36.2243 95.2211 36.1369C95.474 36.0449 95.7337 35.999 96.0004 35.999C96.3038 35.999 96.5636 36.0472 96.7797 36.1438C96.9958 36.2403 97.1613 36.3806 97.2763 36.5645C97.3958 36.7484 97.4556 36.9691 97.4556 37.2265C97.4556 37.4288 97.4165 37.6128 97.3383 37.7783C97.2648 37.9438 97.159 38.084 97.0211 38.199C96.8831 38.3139 96.7176 38.3967 96.5245 38.4472V38.3714C96.8602 38.4311 97.1199 38.5714 97.3038 38.7921C97.4923 39.0082 97.5866 39.2817 97.5866 39.6128C97.5866 39.8886 97.5222 40.13 97.3935 40.3369C97.2694 40.5392 97.09 40.6955 96.8556 40.8059C96.6211 40.9162 96.3383 40.9714 96.0073 40.9714Z" fill="black"/>
<path d="M93.2707 41.5369C93.2294 41.5875 93.188 41.615 93.1466 41.6196C93.1052 41.6288 93.0684 41.6219 93.0362 41.599C93.0087 41.576 92.9926 41.5438 92.988 41.5024C92.988 41.461 93.0087 41.4127 93.05 41.3576C93.1098 41.2748 93.1535 41.1875 93.1811 41.0955C93.2087 41.0035 93.2225 40.9185 93.2225 40.8403L93.25 40.9369C93.1489 40.9369 93.0661 40.907 93.0018 40.8472C92.942 40.7875 92.9121 40.7116 92.9121 40.6196C92.9121 40.5277 92.9397 40.4518 92.9949 40.3921C93.05 40.3323 93.1259 40.3024 93.2225 40.3024C93.319 40.3024 93.3949 40.3369 93.45 40.4058C93.5098 40.4702 93.5397 40.5691 93.5397 40.7024C93.5397 40.7852 93.5305 40.8748 93.5121 40.9714C93.4983 41.0725 93.4707 41.1714 93.4294 41.2679C93.388 41.3645 93.3351 41.4541 93.2707 41.5369Z" fill="black"/>
<path d="M89.4807 40.9576C89.4347 40.9576 89.3933 40.9461 89.3565 40.9231C89.3243 40.9001 89.3014 40.8679 89.2876 40.8265C89.2784 40.7805 89.2876 40.73 89.3152 40.6748L91.591 36.2127V36.4334H88.9979C88.9335 36.4334 88.883 36.4173 88.8462 36.3851C88.8094 36.3484 88.791 36.3001 88.791 36.2403C88.791 36.1805 88.8094 36.1346 88.8462 36.1024C88.883 36.0702 88.9335 36.0541 88.9979 36.0541H91.7634C91.8324 36.0541 91.8853 36.0702 91.922 36.1024C91.9588 36.1346 91.9772 36.1805 91.9772 36.2403C91.9772 36.2863 91.9726 36.3277 91.9634 36.3645C91.9542 36.4012 91.9358 36.4426 91.9083 36.4886L89.7152 40.8127C89.6922 40.8633 89.6623 40.9001 89.6255 40.9231C89.5887 40.9461 89.5404 40.9576 89.4807 40.9576Z" fill="black"/>
<path d="M86.228 40.9714C85.9521 40.9714 85.6809 40.93 85.4142 40.8472C85.1475 40.7645 84.9153 40.6403 84.7176 40.4748C84.6717 40.4426 84.6418 40.4059 84.628 40.3645C84.6188 40.3231 84.6188 40.284 84.628 40.2472C84.6372 40.2105 84.6556 40.1783 84.6832 40.1507C84.7107 40.1231 84.7452 40.1093 84.7866 40.1093C84.828 40.1047 84.874 40.1208 84.9245 40.1576C85.1314 40.3047 85.3406 40.4128 85.5521 40.4817C85.7682 40.5507 85.9935 40.5852 86.228 40.5852C86.4763 40.5852 86.6855 40.5484 86.8556 40.4748C87.0257 40.3967 87.1544 40.284 87.2418 40.1369C87.3337 39.9898 87.3797 39.8082 87.3797 39.5921C87.3797 39.2794 87.2763 39.0426 87.0694 38.8817C86.8671 38.7162 86.5728 38.6334 86.1866 38.6334H85.6694C85.605 38.6334 85.5544 38.6174 85.5176 38.5852C85.4809 38.5484 85.4625 38.5024 85.4625 38.4472C85.4625 38.3875 85.4809 38.3415 85.5176 38.3093C85.5544 38.2771 85.605 38.261 85.6694 38.261H86.1521C86.3774 38.261 86.5705 38.2197 86.7314 38.1369C86.8924 38.0541 87.0165 37.9392 87.1039 37.7921C87.1958 37.6403 87.2418 37.4587 87.2418 37.2472C87.2418 36.9714 87.1521 36.7599 86.9728 36.6128C86.7981 36.461 86.5429 36.3852 86.2073 36.3852C85.982 36.3852 85.7705 36.422 85.5728 36.4955C85.3751 36.5645 85.1866 36.6771 85.0073 36.8334C84.9659 36.8702 84.9245 36.8909 84.8832 36.8955C84.8418 36.8955 84.805 36.884 84.7728 36.861C84.7452 36.838 84.7245 36.8082 84.7107 36.7714C84.697 36.73 84.697 36.6886 84.7107 36.6472C84.7245 36.6013 84.7544 36.5599 84.8004 36.5231C84.9797 36.353 85.1935 36.2243 85.4418 36.1369C85.6947 36.0449 85.9544 35.999 86.2211 35.999C86.5245 35.999 86.7843 36.0472 87.0004 36.1438C87.2165 36.2403 87.382 36.3806 87.497 36.5645C87.6165 36.7484 87.6763 36.9691 87.6763 37.2265C87.6763 37.4288 87.6372 37.6128 87.559 37.7783C87.4855 37.9438 87.3797 38.084 87.2418 38.199C87.1039 38.3139 86.9383 38.3967 86.7452 38.4472V38.3714C87.0809 38.4311 87.3406 38.5714 87.5245 38.7921C87.713 39.0082 87.8073 39.2817 87.8073 39.6128C87.8073 39.8886 87.7429 40.13 87.6142 40.3369C87.4901 40.5392 87.3107 40.6955 87.0763 40.8059C86.8418 40.9162 86.559 40.9714 86.228 40.9714Z" fill="black"/>
<path d="M82.9686 40.9576C82.8996 40.9576 82.8468 40.9392 82.81 40.9024C82.7732 40.8656 82.7548 40.8127 82.7548 40.7438V39.8196H80.6514C80.5824 39.8196 80.5272 39.8035 80.4858 39.7713C80.4491 39.7346 80.4307 39.684 80.4307 39.6196C80.4307 39.5828 80.4376 39.5461 80.4514 39.5093C80.4697 39.4679 80.4973 39.4196 80.5341 39.3644L82.7341 36.1507C82.7663 36.1047 82.8008 36.0702 82.8376 36.0472C82.8789 36.0242 82.9249 36.0127 82.9755 36.0127C83.0353 36.0127 83.0835 36.0311 83.1203 36.0679C83.1617 36.1001 83.1824 36.153 83.1824 36.2265V39.4472H83.7617C83.8307 39.4472 83.8812 39.4633 83.9134 39.4955C83.9502 39.5277 83.9686 39.5736 83.9686 39.6334C83.9686 39.6932 83.9502 39.7392 83.9134 39.7713C83.8812 39.8035 83.8307 39.8196 83.7617 39.8196H83.1824V40.7438C83.1824 40.8127 83.164 40.8656 83.1272 40.9024C83.0904 40.9392 83.0376 40.9576 82.9686 40.9576ZM82.7548 39.4472V36.5369H82.9065L80.8307 39.5645V39.4472H82.7548Z" fill="black"/>
<path d="M77.1302 40.9714C76.7762 40.9714 76.4704 40.9208 76.213 40.8197C75.9601 40.7139 75.7647 40.5622 75.6268 40.3645C75.4934 40.1622 75.4268 39.9208 75.4268 39.6403C75.4268 39.4105 75.4727 39.2082 75.5647 39.0334C75.6612 38.8587 75.7923 38.7162 75.9578 38.6059C76.1233 38.4955 76.3141 38.4265 76.5302 38.399V38.4817C76.2268 38.4174 75.9854 38.2771 75.8061 38.061C75.6314 37.8403 75.544 37.5806 75.544 37.2817C75.544 37.0105 75.6084 36.7806 75.7371 36.5921C75.8704 36.399 76.0566 36.2518 76.2957 36.1507C76.5348 36.0495 76.813 35.999 77.1302 35.999C77.452 35.999 77.7302 36.0495 77.9647 36.1507C78.2038 36.2518 78.3877 36.399 78.5164 36.5921C78.6497 36.7806 78.7164 37.0105 78.7164 37.2817C78.7164 37.4794 78.675 37.661 78.5923 37.8265C78.5141 37.9921 78.4015 38.1323 78.2543 38.2472C78.1118 38.3576 77.9371 38.4357 77.7302 38.4817V38.399C78.0612 38.4449 78.3279 38.5783 78.5302 38.799C78.7325 39.0197 78.8337 39.3001 78.8337 39.6403C78.8337 39.9208 78.7647 40.1622 78.6268 40.3645C78.4934 40.5622 78.3003 40.7139 78.0474 40.8197C77.7946 40.9208 77.4888 40.9714 77.1302 40.9714ZM77.1302 40.6059C77.5532 40.6059 77.8704 40.5254 78.0819 40.3645C78.298 40.199 78.4061 39.9507 78.4061 39.6197C78.4061 39.2886 78.298 39.0426 78.0819 38.8817C77.8704 38.7208 77.5532 38.6403 77.1302 38.6403C76.7118 38.6403 76.3946 38.7208 76.1785 38.8817C75.9624 39.0426 75.8543 39.2886 75.8543 39.6197C75.8543 39.9507 75.9624 40.199 76.1785 40.3645C76.3946 40.5254 76.7118 40.6059 77.1302 40.6059ZM77.1302 38.2679C77.3739 38.2679 77.5808 38.2311 77.7509 38.1576C77.9256 38.0794 78.0589 37.9691 78.1509 37.8265C78.2474 37.6794 78.2957 37.507 78.2957 37.3093C78.2957 37.0105 78.1923 36.7783 77.9854 36.6128C77.7831 36.4472 77.498 36.3645 77.1302 36.3645C76.767 36.3645 76.4819 36.4472 76.275 36.6128C76.0681 36.7783 75.9647 37.0105 75.9647 37.3093C75.9647 37.6082 76.0681 37.8426 76.275 38.0128C76.4819 38.1829 76.767 38.2679 77.1302 38.2679Z" fill="black"/>
<path d="M71.9881 40.9162C71.9283 40.9162 71.88 40.9001 71.8433 40.8679C71.8065 40.8311 71.7881 40.7828 71.7881 40.7231C71.7881 40.6633 71.8065 40.6196 71.8433 40.592C71.88 40.5599 71.9283 40.5438 71.9881 40.5438H72.9467V36.392H73.1881L72.1881 37.0748C72.1421 37.107 72.0984 37.1231 72.0571 37.1231C72.0157 37.1185 71.9812 37.1024 71.9536 37.0748C71.926 37.0472 71.9053 37.015 71.8915 36.9782C71.8823 36.9415 71.8846 36.9024 71.8984 36.861C71.9122 36.8196 71.9421 36.7851 71.9881 36.7576L72.9398 36.0955C72.9858 36.0679 73.0272 36.0472 73.0639 36.0334C73.1007 36.0196 73.1421 36.0127 73.1881 36.0127C73.2387 36.0127 73.28 36.0288 73.3122 36.061C73.349 36.0886 73.3674 36.1369 73.3674 36.2058V40.5438H74.2571C74.3214 40.5438 74.3697 40.5599 74.4019 40.592C74.4387 40.6196 74.4571 40.6633 74.4571 40.7231C74.4571 40.7874 74.4387 40.8357 74.4019 40.8679C74.3697 40.9001 74.3214 40.9162 74.2571 40.9162H71.9881Z" fill="black"/>
<path d="M90.9541 50.8029C90.9265 50.8535 90.8944 50.8857 90.8576 50.8995C90.8208 50.9179 90.784 50.9225 90.7472 50.9133C90.7105 50.9041 90.6783 50.8857 90.6507 50.8581C90.6277 50.8305 90.6139 50.796 90.6093 50.7547C90.6047 50.7133 90.6162 50.6696 90.6438 50.6236L93.3541 45.8857C93.3817 45.8351 93.4139 45.8029 93.4507 45.7891C93.4875 45.7708 93.5242 45.7662 93.561 45.7753C93.5978 45.7845 93.6277 45.8052 93.6507 45.8374C93.6783 45.865 93.6944 45.8995 93.699 45.9409C93.7036 45.9822 93.6921 46.0259 93.6645 46.0719L90.9541 50.8029ZM90.5403 48.8236C90.1863 48.8236 89.9059 48.6949 89.699 48.4374C89.4967 48.1753 89.3955 47.8075 89.3955 47.334C89.3955 47.0213 89.4415 46.7547 89.5334 46.534C89.6254 46.3133 89.7564 46.1455 89.9265 46.0305C90.1013 45.911 90.3059 45.8512 90.5403 45.8512C90.8944 45.8512 91.1748 45.9822 91.3817 46.2443C91.5886 46.5018 91.6921 46.865 91.6921 47.334C91.6921 47.6512 91.6461 47.9202 91.5541 48.1409C91.4622 48.3616 91.3311 48.5317 91.161 48.6512C90.9909 48.7662 90.784 48.8236 90.5403 48.8236ZM90.5403 48.4995C90.7013 48.4995 90.8392 48.4558 90.9541 48.3685C91.0691 48.2765 91.1564 48.1455 91.2162 47.9753C91.276 47.8006 91.3059 47.5868 91.3059 47.334C91.3059 46.957 91.2369 46.6719 91.099 46.4788C90.9656 46.2811 90.7794 46.1822 90.5403 46.1822C90.384 46.1822 90.2484 46.2259 90.1334 46.3133C90.0185 46.4006 89.9311 46.5294 89.8714 46.6995C89.8116 46.8696 89.7817 47.0811 89.7817 47.334C89.7817 47.7202 89.8484 48.0121 89.9817 48.2098C90.1196 48.4029 90.3059 48.4995 90.5403 48.4995ZM93.7679 50.8236C93.4139 50.8236 93.1334 50.6949 92.9265 50.4374C92.7242 50.1799 92.6231 49.8121 92.6231 49.334C92.6231 49.0213 92.6691 48.7547 92.761 48.534C92.853 48.3133 92.984 48.1455 93.1541 48.0305C93.3288 47.911 93.5334 47.8512 93.7679 47.8512C94.1265 47.8512 94.407 47.9822 94.6093 48.2443C94.8162 48.5018 94.9196 48.865 94.9196 49.334C94.9196 49.6512 94.8737 49.9225 94.7817 50.1478C94.6898 50.3685 94.5587 50.5363 94.3886 50.6512C94.2185 50.7662 94.0116 50.8236 93.7679 50.8236ZM93.7679 50.4995C93.9288 50.4995 94.0668 50.4558 94.1817 50.3685C94.2967 50.2811 94.384 50.1501 94.4438 49.9753C94.5036 49.8006 94.5334 49.5868 94.5334 49.334C94.5334 48.957 94.4645 48.6719 94.3265 48.4788C94.1932 48.2811 94.007 48.1822 93.7679 48.1822C93.6116 48.1822 93.476 48.2259 93.361 48.3133C93.2461 48.4006 93.1587 48.5294 93.099 48.6995C93.0392 48.8696 93.0093 49.0811 93.0093 49.334C93.0093 49.7202 93.076 50.0121 93.2093 50.2098C93.3472 50.4029 93.5334 50.4995 93.7679 50.4995Z" fill="#A6A6A6"/>
<path d="M87.743 50.8098C87.674 50.8098 87.6212 50.7914 87.5844 50.7546C87.5476 50.7178 87.5292 50.665 87.5292 50.596V49.6719H85.4258C85.3568 49.6719 85.3016 49.6558 85.2603 49.6236C85.2235 49.5868 85.2051 49.5362 85.2051 49.4719C85.2051 49.4351 85.212 49.3983 85.2258 49.3615C85.2442 49.3201 85.2717 49.2719 85.3085 49.2167L87.5085 46.0029C87.5407 45.9569 87.5752 45.9224 87.612 45.8994C87.6534 45.8765 87.6993 45.865 87.7499 45.865C87.8097 45.865 87.858 45.8834 87.8947 45.9201C87.9361 45.9523 87.9568 46.0052 87.9568 46.0788V49.2994H88.5361C88.6051 49.2994 88.6557 49.3155 88.6878 49.3477C88.7246 49.3799 88.743 49.4259 88.743 49.4856C88.743 49.5454 88.7246 49.5914 88.6878 49.6236C88.6557 49.6558 88.6051 49.6719 88.5361 49.6719H87.9568V50.596C87.9568 50.665 87.9384 50.7178 87.9016 50.7546C87.8648 50.7914 87.812 50.8098 87.743 50.8098ZM87.5292 49.2994V46.3891H87.6809L85.6051 49.4167V49.2994H87.5292Z" fill="#A6A6A6"/>
<path d="M83.6082 50.8098C83.5393 50.8098 83.4864 50.7914 83.4496 50.7546C83.4128 50.7178 83.3945 50.665 83.3945 50.596V49.6719H81.291C81.222 49.6719 81.1669 49.6558 81.1255 49.6236C81.0887 49.5868 81.0703 49.5362 81.0703 49.4719C81.0703 49.4351 81.0772 49.3983 81.091 49.3615C81.1094 49.3201 81.137 49.2719 81.1738 49.2167L83.3738 46.0029C83.4059 45.9569 83.4404 45.9224 83.4772 45.8994C83.5186 45.8765 83.5646 45.865 83.6151 45.865C83.6749 45.865 83.7232 45.8834 83.76 45.9201C83.8013 45.9523 83.822 46.0052 83.822 46.0788V49.2994H84.4013C84.4703 49.2994 84.5209 49.3155 84.5531 49.3477C84.5899 49.3799 84.6082 49.4259 84.6082 49.4856C84.6082 49.5454 84.5899 49.5914 84.5531 49.6236C84.5209 49.6558 84.4703 49.6719 84.4013 49.6719H83.822V50.596C83.822 50.665 83.8036 50.7178 83.7669 50.7546C83.7301 50.7914 83.6772 50.8098 83.6082 50.8098ZM83.3945 49.2994V46.3891H83.5462L81.4703 49.4167V49.2994H83.3945Z" fill="#A6A6A6"/>
<path d="M79.9963 51.3891C79.9549 51.4397 79.9136 51.4673 79.8722 51.4719C79.8308 51.4811 79.794 51.4742 79.7618 51.4512C79.7342 51.4282 79.7182 51.396 79.7136 51.3546C79.7136 51.3133 79.7342 51.265 79.7756 51.2098C79.8354 51.127 79.8791 51.0397 79.9067 50.9477C79.9342 50.8558 79.948 50.7707 79.948 50.6926L79.9756 50.7891C79.8745 50.7891 79.7917 50.7592 79.7274 50.6995C79.6676 50.6397 79.6377 50.5638 79.6377 50.4719C79.6377 50.3799 79.6653 50.3041 79.7205 50.2443C79.7756 50.1845 79.8515 50.1546 79.948 50.1546C80.0446 50.1546 80.1205 50.1891 80.1756 50.2581C80.2354 50.3224 80.2653 50.4213 80.2653 50.5546C80.2653 50.6374 80.2561 50.727 80.2377 50.8236C80.2239 50.9247 80.1963 51.0236 80.1549 51.1201C80.1136 51.2167 80.0607 51.3064 79.9963 51.3891Z" fill="#A6A6A6"/>
<path d="M77.1299 50.8236C76.5828 50.8236 76.1667 50.6121 75.8816 50.1891C75.6012 49.7615 75.4609 49.1454 75.4609 48.3409C75.4609 47.7937 75.523 47.3363 75.6471 46.9684C75.7759 46.6006 75.9644 46.3225 76.2127 46.134C76.4609 45.9454 76.7667 45.8512 77.1299 45.8512C77.6816 45.8512 78.0977 46.0604 78.3782 46.4788C78.6586 46.8972 78.7989 47.5156 78.7989 48.334C78.7989 48.8719 78.7345 49.3271 78.6058 49.6995C78.4816 50.0719 78.2954 50.3523 78.0471 50.5409C77.7989 50.7294 77.4931 50.8236 77.1299 50.8236ZM77.1299 50.4443C77.5483 50.4443 77.8586 50.2719 78.0609 49.9271C78.2632 49.5822 78.3644 49.0512 78.3644 48.334C78.3644 47.6075 78.2632 47.0765 78.0609 46.7409C77.8632 46.4006 77.5529 46.2305 77.1299 46.2305C76.7115 46.2305 76.4012 46.4006 76.1989 46.7409C75.9966 47.0811 75.8954 47.6121 75.8954 48.334C75.8954 49.0512 75.9966 49.5822 76.1989 49.9271C76.4012 50.2719 76.7115 50.4443 77.1299 50.4443Z" fill="#A6A6A6"/>
<path d="M71.4499 48.9616C71.3901 48.9616 71.3441 48.9478 71.3119 48.9202C71.2798 48.888 71.2637 48.8443 71.2637 48.7891C71.2637 48.734 71.2798 48.6926 71.3119 48.665C71.3441 48.6328 71.3901 48.6167 71.4499 48.6167H74.5395C74.5993 48.6167 74.6453 48.6328 74.6775 48.665C74.7096 48.6926 74.7257 48.734 74.7257 48.7891C74.7257 48.8489 74.7096 48.8926 74.6775 48.9202C74.6453 48.9478 74.5993 48.9616 74.5395 48.9616H71.4499Z" fill="#A6A6A6"/>
<path fill-rule="evenodd" clip-rule="evenodd" d="M134.965 29.5862H70.9258V29.0936H134.965V29.5862Z" fill="black"/>
<g clip-path="url(#clip1_2002_404)">
<path d="M70.9258 9.88177H85.7041V24.6601H70.9258V9.88177Z" fill="#2F68AE"/>
<path fill-rule="evenodd" clip-rule="evenodd" d="M75.8724 13.2386C75.8231 13.1828 75.7631 13.1374 75.6961 13.1049C75.6291 13.0725 75.5563 13.0536 75.482 13.0494C75.4076 13.0453 75.3332 13.0559 75.263 13.0806C75.1927 13.1054 75.1281 13.1438 75.0728 13.1937C74.9607 13.295 74.8931 13.4364 74.8847 13.5872C74.8763 13.738 74.9278 13.886 75.028 13.9991L77.9651 17.3063L75.0322 20.5383C74.8211 20.7708 74.8372 21.1315 75.0681 21.3439C75.1228 21.3944 75.187 21.4336 75.257 21.4591C75.3269 21.4846 75.4013 21.4961 75.4757 21.4927C75.5501 21.4893 75.6231 21.4713 75.6904 21.4395C75.7578 21.4078 75.8182 21.363 75.8682 21.3078L79.1469 17.6953L79.4923 17.3147L79.1511 16.9305L75.8724 13.2386ZM81.5806 14.0474C81.6865 13.9398 81.7457 13.7948 81.7453 13.6437C81.7449 13.4927 81.685 13.348 81.5784 13.2409C81.5259 13.1881 81.4634 13.1463 81.3946 13.1178C81.3258 13.0893 81.252 13.0747 81.1775 13.0749C81.1031 13.0751 81.0294 13.0901 80.9607 13.1189C80.892 13.1478 80.8298 13.19 80.7775 13.2431L79.068 14.9729L78.6684 15.3772L79.4715 16.1816L79.871 15.7773L81.5806 14.0474ZM79.8565 18.8153L79.443 18.4258L78.669 19.2586L79.0825 19.6481L80.792 21.2587C81.0203 21.474 81.3787 21.4619 81.5924 21.2321C81.6951 21.1213 81.7499 20.9746 81.7449 20.8237C81.74 20.6728 81.6757 20.5299 81.566 20.4261L79.8565 18.8153Z" fill="white"/>
</g>
<defs>
<filter id="filter0_d_2002_404" x="0" y="60" width="81.8916" height="108" filterUnits="userSpaceOnUse" color-interpolation-filters="sRGB">
<feFlood flood-opacity="0" result="BackgroundImageFix"/>
<feColorMatrix in="SourceAlpha" type="matrix" values="0 0 0 0 0 0 0 0 0 0 0 0 0 0 0 0 0 0 127 0" result="hardAlpha"/>
<feOffset dx="2" dy="2"/>
<feGaussianBlur stdDeviation="2"/>
<feComposite in2="hardAlpha" operator="out"/>
<feColorMatrix type="matrix" values="0 0 0 0 0 0 0 0 0 0 0 0 0 0 0 0 0 0 0.25 0"/>
<feBlend mode="normal" in2="BackgroundImageFix" result="effect1_dropShadow_2002_404"/>
<feBlend mode="normal" in="SourceGraphic" in2="effect1_dropShadow_2002_404" result="shape"/>
</filter>
<filter id="filter1_d_2002_404" x="64" y="0" width="81.8916" height="108" filterUnits="userSpaceOnUse" color-interpolation-filters="sRGB">
<feFlood flood-opacity="0" result="BackgroundImageFix"/>
<feColorMatrix in="SourceAlpha" type="matrix" values="0 0 0 0 0 0 0 0 0 0 0 0 0 0 0 0 0 0 127 0" result="hardAlpha"/>
<feOffset dx="2" dy="2"/>
<feGaussianBlur stdDeviation="2"/>
<feComposite in2="hardAlpha" operator="out"/>
<feColorMatrix type="matrix" values="0 0 0 0 0 0 0 0 0 0 0 0 0 0 0 0 0 0 0.25 0"/>
<feBlend mode="normal" in2="BackgroundImageFix" result="effect1_dropShadow_2002_404"/>
<feBlend mode="normal" in="SourceGraphic" in2="effect1_dropShadow_2002_404" result="shape"/>
</filter>
<clipPath id="clip0_2002_404">
<rect x="6.92578" y="69.8818" width="14.7783" height="14.7783" rx="7.38916" fill="white"/>
</clipPath>
<clipPath id="clip1_2002_404">
<rect x="70.9258" y="9.88177" width="14.7783" height="14.7783" rx="7.38916" fill="white"/>
</clipPath>
</defs>
</svg>
