<svg width="150" height="185" viewBox="0 0 150 185" fill="none" xmlns="http://www.w3.org/2000/svg">
<path d="M2 81.4631C2 80.1027 3.10275 79 4.46305 79H73.4286C74.7889 79 75.8916 80.1027 75.8916 81.4631V176.537C75.8916 177.897 74.7889 179 73.4286 179H4.46306C3.10275 179 2 177.897 2 176.537V81.4631Z" fill="white"/>
<g filter="url(#filter0_d_2002_402)">
<path d="M2 81.4631C2 80.1027 3.10275 79 4.46305 79H73.4286C74.7889 79 75.8916 80.1027 75.8916 81.4631V176.537C75.8916 177.897 74.7889 179 73.4286 179H4.46306C3.10275 179 2 177.897 2 176.537V81.4631Z" fill="white"/>
</g>
<rect x="6.92627" y="162.251" width="22.0499" height="7.47586" rx="3" fill="#292929"/>
<path d="M24.2127 167.383C24.1525 167.383 24.1065 167.368 24.0747 167.34C24.0464 167.308 24.0322 167.264 24.0322 167.207V164.941C24.0322 164.884 24.0464 164.842 24.0747 164.813C24.103 164.785 24.1437 164.771 24.1968 164.771C24.2463 164.771 24.2852 164.785 24.3136 164.813C24.3419 164.842 24.356 164.884 24.356 164.941V165.758H25.1788C25.5008 165.758 25.745 165.829 25.9113 165.971C26.0812 166.112 26.1661 166.31 26.1661 166.565C26.1661 166.735 26.1272 166.882 26.0493 167.006C25.975 167.13 25.8653 167.223 25.7202 167.287C25.5751 167.351 25.3947 167.383 25.1788 167.383H24.2127ZM24.356 167.133H25.1682C25.3805 167.133 25.5451 167.087 25.6618 166.995C25.7822 166.903 25.8423 166.761 25.8423 166.57C25.8423 166.376 25.7822 166.232 25.6618 166.14C25.5451 166.048 25.3805 166.002 25.1682 166.002H24.356V167.133Z" fill="white"/>
<path d="M22.4418 167.414C22.3923 167.414 22.3534 167.4 22.3251 167.372C22.2968 167.344 22.2826 167.303 22.2826 167.25V165.079H21.4439C21.3377 165.079 21.2847 165.033 21.2847 164.941C21.2847 164.902 21.2988 164.87 21.3271 164.845C21.3554 164.82 21.3944 164.808 21.4439 164.808H23.4451C23.5477 164.808 23.599 164.852 23.599 164.941C23.599 164.983 23.5849 165.017 23.5566 165.042C23.5318 165.066 23.4946 165.079 23.4451 165.079H22.6064V167.25C22.6064 167.303 22.5922 167.344 22.5639 167.372C22.5392 167.4 22.4985 167.414 22.4418 167.414Z" fill="white"/>
<path d="M18.8415 167.414C18.8132 167.414 18.7866 167.409 18.7619 167.398C18.7406 167.388 18.723 167.37 18.7088 167.345C18.6982 167.317 18.6929 167.282 18.6929 167.239V164.935C18.6929 164.882 18.7053 164.842 18.73 164.813C18.7583 164.785 18.7973 164.771 18.8468 164.771C18.8928 164.771 18.9282 164.785 18.953 164.813C18.9777 164.842 18.9901 164.882 18.9901 164.935V167.096H18.8627L20.5136 164.877C20.5383 164.845 20.5649 164.82 20.5932 164.803C20.6215 164.782 20.6587 164.771 20.7047 164.771C20.7365 164.771 20.7631 164.778 20.7843 164.792C20.8055 164.803 20.8214 164.82 20.8321 164.845C20.8462 164.87 20.8533 164.904 20.8533 164.946V167.255C20.8533 167.305 20.8391 167.344 20.8108 167.372C20.7861 167.4 20.7507 167.414 20.7047 167.414C20.6551 167.414 20.618 167.4 20.5932 167.372C20.5684 167.344 20.556 167.305 20.556 167.255V165.095H20.6834L19.0273 167.314C19.0061 167.342 18.9813 167.365 18.953 167.383C18.9247 167.404 18.8875 167.414 18.8415 167.414Z" fill="white"/>
<path d="M15.8096 167.414C15.7565 167.414 15.7158 167.4 15.6875 167.372C15.6592 167.344 15.645 167.303 15.645 167.25V164.994C15.645 164.934 15.6609 164.888 15.6928 164.856C15.7246 164.824 15.7706 164.808 15.8308 164.808H17.6143C17.6745 164.808 17.7205 164.824 17.7524 164.856C17.7842 164.888 17.8001 164.934 17.8001 164.994V167.25C17.8001 167.303 17.786 167.344 17.7577 167.372C17.7294 167.4 17.6887 167.414 17.6356 167.414C17.586 167.414 17.5471 167.4 17.5188 167.372C17.4905 167.344 17.4763 167.303 17.4763 167.25V165.073H15.9688V167.25C15.9688 167.303 15.9547 167.344 15.9264 167.372C15.9016 167.4 15.8627 167.414 15.8096 167.414Z" fill="white"/>
<path d="M13.4438 168.37C13.4014 168.37 13.3677 168.357 13.343 168.333C13.3182 168.311 13.304 168.281 13.3005 168.242C13.3005 168.207 13.3076 168.17 13.3217 168.131L13.688 167.298V167.446L12.6476 165.015C12.6299 164.973 12.6228 164.934 12.6264 164.898C12.6335 164.859 12.6494 164.829 12.6741 164.808C12.7025 164.783 12.7414 164.771 12.7909 164.771C12.8369 164.771 12.8705 164.782 12.8918 164.803C12.9166 164.824 12.9378 164.858 12.9555 164.904L13.9003 167.191H13.7676L14.7125 164.904C14.7337 164.854 14.7567 164.82 14.7815 164.803C14.8063 164.782 14.8416 164.771 14.8877 164.771C14.9337 164.771 14.9673 164.783 14.9885 164.808C15.0133 164.829 15.0274 164.858 15.031 164.893C15.0345 164.928 15.0274 164.967 15.0097 165.01L13.6243 168.242C13.6031 168.292 13.5783 168.326 13.55 168.343C13.5252 168.361 13.4898 168.37 13.4438 168.37Z" fill="white"/>
<path d="M9.89557 167.414C9.84603 167.414 9.8071 167.4 9.77879 167.372C9.75048 167.34 9.73633 167.298 9.73633 167.245V163.773C9.73633 163.72 9.75048 163.679 9.77879 163.651C9.8071 163.623 9.84603 163.608 9.89557 163.608C9.94865 163.608 9.98935 163.623 10.0177 163.651C10.046 163.679 10.0601 163.72 10.0601 163.773V165.344H10.8457L10.7236 165.424L11.8861 163.693C11.9109 163.658 11.9392 163.635 11.9711 163.624C12.0029 163.61 12.0348 163.607 12.0666 163.614C12.0985 163.621 12.125 163.637 12.1462 163.662C12.1675 163.683 12.1799 163.709 12.1834 163.741C12.1905 163.773 12.1816 163.808 12.1569 163.847L11.0528 165.472L10.9413 165.355C11.1465 165.376 11.3235 165.45 11.4721 165.578C11.6243 165.702 11.7552 165.875 11.8649 166.098L12.4063 167.191C12.4276 167.23 12.4329 167.268 12.4223 167.303C12.4152 167.335 12.3975 167.36 12.3692 167.377C12.3444 167.395 12.3143 167.406 12.2789 167.409C12.2471 167.413 12.2152 167.406 12.1834 167.388C12.1515 167.374 12.1268 167.347 12.1091 167.308L11.6101 166.278C11.4969 166.045 11.3695 165.879 11.2279 165.779C11.0899 165.68 10.92 165.631 10.7183 165.631H10.0601V167.245C10.0601 167.298 10.046 167.34 10.0177 167.372C9.99289 167.4 9.95219 167.414 9.89557 167.414Z" fill="white"/>
<path fill-rule="evenodd" clip-rule="evenodd" d="M57.4199 128.035L57.9037 127.953L62.8314 146.925L64.9956 156.231L66.9042 142.759L67.3856 142.728L68.6174 147.207L71.2714 144.111L71.6454 144.431L68.3882 148.231L67.2254 144.003L65.2984 157.606L64.8146 157.627L62.3522 147.039L58.1495 130.858L59.9506 152.472L50.855 140.678L49.6282 133.466L48.305 150.448L47.8243 150.502L45.4427 142.874L42.5391 152.018L42.2773 151.877C42.1671 151.817 42.0745 151.722 41.9965 151.619C41.9167 151.514 41.8408 151.385 41.7683 151.241C41.6235 150.953 41.4816 150.583 41.345 150.164C41.0713 149.325 40.809 148.262 40.5814 147.211C40.3535 146.159 40.1591 145.113 40.0217 144.305C39.9529 143.902 39.8983 143.556 39.8608 143.299C39.8249 143.054 39.801 142.865 39.801 142.793C39.801 142.737 39.7724 142.599 39.7046 142.38C39.6404 142.173 39.5505 141.921 39.4491 141.656C39.3338 141.353 39.2051 141.037 39.0857 140.752L38.2975 142.928L35.743 145.493L35.6375 145.069C35.3919 144.083 34.8052 141.826 34.416 140.654C34.2357 140.111 34.0099 140.017 33.8747 140.009C33.7074 140 33.5133 140.104 33.3723 140.238L28.7607 147.864V141.069C28.5165 141.415 28.1948 141.933 27.8676 142.466C27.8127 142.556 27.7577 142.646 27.703 142.735C27.4229 143.193 27.1496 143.639 26.9354 143.963C26.8095 144.154 26.6947 144.316 26.6067 144.414C26.584 144.439 26.5584 144.465 26.5309 144.487C26.509 144.505 26.4615 144.542 26.3959 144.557C26.3589 144.566 26.3051 144.571 26.2457 144.551C26.1835 144.53 26.1389 144.489 26.1107 144.446C26.0636 144.375 26.0619 144.3 26.0619 144.271C26.0619 144.038 26.003 143.692 25.9186 143.326L24.4125 156.368L23.9244 156.378L21.4066 140.142L19.9235 135.749L19.4386 147.011L18.4531 151.711L17.9744 151.725C17.7281 150.818 17.1905 148.872 16.9969 148.289C16.9185 148.053 16.7303 147.821 16.5032 147.62C16.4192 147.546 16.3329 147.479 16.2503 147.42V151.906H14.7457L14.2851 155.143L13.8097 155.192L11.3435 148.384V155.97L9.7337 153.384H8.55632L7.15022 156.443L6.70264 156.237L8.24061 152.892H10.0073L10.8509 154.247V146.98L11.3288 146.896L13.9365 154.096L14.2857 151.643C14.2863 151.228 14.3113 150.631 14.3872 150.179C14.424 149.959 14.4786 149.733 14.572 149.584C14.6183 149.511 14.7061 149.406 14.852 149.384C15.005 149.361 15.1239 149.442 15.1971 149.516C15.3431 149.662 15.417 149.858 15.4532 150.049C15.4898 150.242 15.492 150.453 15.4768 150.656C15.457 150.92 15.4064 151.188 15.3498 151.414H15.7577V146.581L16.1145 146.76C16.2956 146.851 16.5712 147.023 16.8296 147.252C17.085 147.478 17.3466 147.779 17.4644 148.134C17.6062 148.561 17.9218 149.679 18.1801 150.613L18.9482 146.95L19.4882 134.408L19.9677 134.34L21.8869 140.025L24.1321 154.502L25.5729 142.026L26.0513 141.977C26.1349 142.228 26.2595 142.641 26.3635 143.067C26.4167 143.285 26.4661 143.512 26.5013 143.727C26.5089 143.715 26.5166 143.704 26.5244 143.692C26.7334 143.376 27.001 142.938 27.2813 142.48C27.3364 142.39 27.392 142.3 27.4476 142.209C27.7839 141.66 28.1259 141.11 28.3849 140.747C28.5092 140.573 28.6324 140.416 28.7358 140.332C28.7632 140.31 28.801 140.283 28.8467 140.264C28.8905 140.246 28.9741 140.223 29.0675 140.26C29.1664 140.299 29.2123 140.38 29.2314 140.434C29.2499 140.486 29.2533 140.538 29.2533 140.576V146.097L32.9823 139.931L33.0032 139.91C33.1881 139.724 33.5231 139.495 33.9038 139.518C34.3246 139.543 34.6713 139.86 34.8835 140.499C35.2302 141.543 35.7264 143.417 36.009 144.528L37.8715 142.658L39.043 139.424L39.2911 139.984C39.4559 140.356 39.703 140.939 39.9094 141.48C40.0125 141.75 40.1065 142.013 40.1752 142.235C40.2403 142.445 40.2936 142.652 40.2936 142.793C40.2936 142.792 40.2936 142.793 40.2937 142.795C40.2937 142.797 40.2938 142.799 40.294 142.801C40.2944 142.808 40.2951 142.817 40.2962 142.829C40.2984 142.852 40.3018 142.883 40.3064 142.922C40.3158 142.999 40.3298 143.102 40.3482 143.228C40.3851 143.481 40.4391 143.822 40.5073 144.223C40.6438 145.025 40.8369 146.063 41.0629 147.107C41.2892 148.152 41.5473 149.196 41.8133 150.011C41.9465 150.42 42.0795 150.764 42.2083 151.02C42.2366 151.076 42.2642 151.127 42.2909 151.172L45.4467 141.234L47.9133 149.134L49.2917 131.444L49.7801 131.422L51.3201 140.475L59.321 150.849L57.4199 128.035ZM14.7784 151.614L14.7889 151.583C14.866 151.35 14.9588 150.976 14.9856 150.62C14.9989 150.441 14.995 150.277 14.9692 150.14C14.9588 150.085 14.9453 150.038 14.9298 149.998C14.9104 150.066 14.8909 150.153 14.873 150.26C14.8053 150.664 14.7801 151.212 14.7784 151.614ZM29.051 140.711C29.0511 140.711 29.0509 140.711 29.0503 140.712L29.051 140.711Z" fill="#CF000C"/>
<path d="M47.1713 97.2799C47.0827 97.2799 47.0147 97.2562 46.9674 97.2089C46.9201 97.1557 46.8965 97.0848 46.8965 96.9961V91.4631H44.7772C44.6945 91.4631 44.6295 91.4395 44.5822 91.3922C44.5349 91.3449 44.5112 91.2858 44.5112 91.2148C44.5112 91.138 44.5349 91.0789 44.5822 91.0375C44.6295 90.9961 44.6945 90.9754 44.7772 90.9754H49.5743C49.657 90.9754 49.7191 90.9961 49.7605 91.0375C49.8078 91.0789 49.8314 91.138 49.8314 91.2148C49.8314 91.2917 49.8078 91.3538 49.7605 91.401C49.7191 91.4424 49.657 91.4631 49.5743 91.4631H47.4462V96.9961C47.4462 97.0848 47.4226 97.1557 47.3753 97.2089C47.3339 97.2562 47.2659 97.2799 47.1713 97.2799Z" fill="black"/>
<path d="M39.55 97.2267C39.4554 97.2267 39.3815 97.2001 39.3283 97.1469C39.2751 97.0937 39.2485 97.0168 39.2485 96.9163V91.2858C39.2485 91.1853 39.2751 91.1084 39.3283 91.0552C39.3815 91.002 39.4554 90.9754 39.55 90.9754H41.2613C42.2544 90.9754 43.02 91.2414 43.5579 91.7735C44.1017 92.3055 44.3737 93.0799 44.3737 94.0966C44.3737 94.605 44.3027 95.0543 44.1609 95.4444C44.0249 95.8345 43.8239 96.1626 43.5579 96.4286C43.2919 96.6887 42.9668 96.8868 42.5825 97.0227C42.1983 97.1587 41.7579 97.2267 41.2613 97.2267H39.55ZM39.7894 96.7478H41.217C41.6485 96.7478 42.0239 96.6917 42.3431 96.5794C42.6682 96.4671 42.9372 96.3015 43.15 96.0828C43.3628 95.8641 43.5224 95.5892 43.6288 95.2582C43.7352 94.9212 43.7884 94.5341 43.7884 94.0966C43.7884 93.2158 43.5727 92.5567 43.1411 92.1193C42.7155 91.6759 42.0742 91.4543 41.217 91.4543H39.7894V96.7478Z" fill="black"/>
<path d="M35.8136 97.2976C35.5298 97.2976 35.2549 97.2739 34.9889 97.2266C34.7229 97.1794 34.4747 97.1084 34.2441 97.0138C34.0195 96.9133 33.8155 96.7922 33.6323 96.6503C33.5732 96.6089 33.5318 96.5616 33.5081 96.5084C33.4904 96.4493 33.4875 96.3961 33.4993 96.3488C33.517 96.2956 33.5436 96.2513 33.5791 96.2158C33.6205 96.1803 33.6678 96.1626 33.721 96.1626C33.7742 96.1567 33.8303 96.1744 33.8894 96.2158C34.1614 96.4168 34.448 96.5646 34.7495 96.6592C35.0569 96.7537 35.4116 96.801 35.8136 96.801C36.3751 96.801 36.7948 96.6917 37.0727 96.473C37.3564 96.2542 37.4983 95.9675 37.4983 95.6129C37.4983 95.3173 37.3948 95.0867 37.188 94.9212C36.987 94.7557 36.653 94.6257 36.186 94.5311L35.2904 94.3449C34.7288 94.2326 34.3121 94.0434 34.0402 93.7774C33.7682 93.5114 33.6323 93.1567 33.6323 92.7133C33.6323 92.4414 33.6855 92.1961 33.7919 91.9774C33.8983 91.7528 34.049 91.5606 34.2441 91.401C34.4392 91.2414 34.6697 91.1202 34.9357 91.0375C35.2077 90.9488 35.5062 90.9045 35.8313 90.9045C36.2155 90.9045 36.5673 90.9577 36.8865 91.0641C37.2116 91.1705 37.5072 91.339 37.7732 91.5695C37.8264 91.6109 37.8618 91.6611 37.8796 91.7202C37.8973 91.7734 37.8973 91.8266 37.8796 91.8798C37.8618 91.9271 37.8352 91.9656 37.7998 91.9951C37.7643 92.0247 37.72 92.0424 37.6668 92.0483C37.6136 92.0483 37.5574 92.0247 37.4983 91.9774C37.25 91.7764 36.9899 91.6316 36.718 91.5429C36.452 91.4483 36.1564 91.401 35.8313 91.401C35.5003 91.401 35.2106 91.4542 34.9623 91.5606C34.72 91.667 34.5308 91.8178 34.3948 92.0129C34.2589 92.2079 34.1909 92.4385 34.1909 92.7045C34.1909 93.0119 34.2855 93.2572 34.4747 93.4404C34.6638 93.6237 34.9682 93.7567 35.388 93.8395L36.2924 94.0257C36.8894 94.1498 37.3328 94.336 37.6224 94.5843C37.9121 94.8266 38.0569 95.1606 38.0569 95.5863C38.0569 95.8404 38.0037 96.0739 37.8973 96.2867C37.7968 96.4936 37.649 96.6739 37.454 96.8276C37.2589 96.9813 37.0224 97.0996 36.7446 97.1823C36.4727 97.2592 36.1623 97.2976 35.8136 97.2976Z" fill="black"/>
<path d="M29.8403 97.2976C29.4442 97.2976 29.0925 97.2444 28.7851 97.138C28.4777 97.0316 28.2206 96.872 28.0137 96.6592C27.8127 96.4463 27.659 96.1833 27.5526 95.87C27.4521 95.5567 27.4019 95.1961 27.4019 94.7882V91.1971C27.4019 91.1025 27.4255 91.0345 27.4728 90.9931C27.5201 90.9459 27.5851 90.9222 27.6679 90.9222C27.7565 90.9222 27.8245 90.9459 27.8718 90.9931C27.9191 91.0345 27.9427 91.1025 27.9427 91.1971V94.7439C27.9427 95.4355 28.1023 95.9528 28.4216 96.2956C28.7467 96.6326 29.2196 96.801 29.8403 96.801C30.4669 96.801 30.9398 96.6326 31.259 96.2956C31.5782 95.9528 31.7378 95.4355 31.7378 94.7439V91.1971C31.7378 91.1025 31.7615 91.0345 31.8088 90.9931C31.856 90.9459 31.924 90.9222 32.0127 90.9222C32.0955 90.9222 32.1605 90.9459 32.2078 90.9931C32.2551 91.0345 32.2787 91.1025 32.2787 91.1971V94.7882C32.2787 95.3321 32.1871 95.7931 32.0038 96.1715C31.8206 96.5439 31.5457 96.8247 31.1792 97.0138C30.8186 97.203 30.3723 97.2976 29.8403 97.2976Z" fill="black"/>
<path d="M22.8199 117.951C22.7923 118.001 22.7601 118.033 22.7233 118.047C22.6865 118.066 22.6497 118.07 22.613 118.061C22.5762 118.052 22.544 118.033 22.5164 118.006C22.4934 117.978 22.4796 117.944 22.475 117.902C22.4704 117.861 22.4819 117.817 22.5095 117.771L25.2199 113.033C25.2474 112.983 25.2796 112.951 25.3164 112.937C25.3532 112.918 25.39 112.914 25.4267 112.923C25.4635 112.932 25.4934 112.953 25.5164 112.985C25.544 113.013 25.5601 113.047 25.5647 113.089C25.5693 113.13 25.5578 113.174 25.5302 113.22L22.8199 117.951ZM22.4061 115.971C22.052 115.971 21.7716 115.843 21.5647 115.585C21.3624 115.323 21.2612 114.955 21.2612 114.482C21.2612 114.169 21.3072 113.902 21.3992 113.682C21.4911 113.461 21.6221 113.293 21.7923 113.178C21.967 113.059 22.1716 112.999 22.4061 112.999C22.7601 112.999 23.0405 113.13 23.2474 113.392C23.4543 113.649 23.5578 114.013 23.5578 114.482C23.5578 114.799 23.5118 115.068 23.4199 115.289C23.3279 115.509 23.1969 115.679 23.0267 115.799C22.8566 115.914 22.6497 115.971 22.4061 115.971ZM22.4061 115.647C22.567 115.647 22.7049 115.604 22.8199 115.516C22.9348 115.424 23.0221 115.293 23.0819 115.123C23.1417 114.948 23.1716 114.735 23.1716 114.482C23.1716 114.105 23.1026 113.82 22.9647 113.627C22.8313 113.429 22.6451 113.33 22.4061 113.33C22.2497 113.33 22.1141 113.374 21.9992 113.461C21.8842 113.548 21.7969 113.677 21.7371 113.847C21.6773 114.017 21.6474 114.229 21.6474 114.482C21.6474 114.868 21.7141 115.16 21.8474 115.358C21.9854 115.551 22.1716 115.647 22.4061 115.647ZM25.6336 117.971C25.2796 117.971 24.9992 117.843 24.7923 117.585C24.59 117.328 24.4888 116.96 24.4888 116.482C24.4888 116.169 24.5348 115.902 24.6267 115.682C24.7187 115.461 24.8497 115.293 25.0199 115.178C25.1946 115.059 25.3992 114.999 25.6336 114.999C25.9923 114.999 26.2727 115.13 26.475 115.392C26.6819 115.649 26.7854 116.013 26.7854 116.482C26.7854 116.799 26.7394 117.07 26.6474 117.295C26.5555 117.516 26.4244 117.684 26.2543 117.799C26.0842 117.914 25.8773 117.971 25.6336 117.971ZM25.6336 117.647C25.7946 117.647 25.9325 117.604 26.0474 117.516C26.1624 117.429 26.2497 117.298 26.3095 117.123C26.3693 116.948 26.3992 116.735 26.3992 116.482C26.3992 116.105 26.3302 115.82 26.1923 115.627C26.0589 115.429 25.8727 115.33 25.6336 115.33C25.4773 115.33 25.3417 115.374 25.2267 115.461C25.1118 115.548 25.0244 115.677 24.9647 115.847C24.9049 116.017 24.875 116.229 24.875 116.482C24.875 116.868 24.9417 117.16 25.075 117.358C25.213 117.551 25.3992 117.647 25.6336 117.647Z" fill="black"/>
<path d="M18.4568 117.971C18.2407 117.971 18.0177 117.925 17.7879 117.833C17.558 117.741 17.3603 117.61 17.1948 117.44C17.158 117.408 17.135 117.371 17.1258 117.33C17.1166 117.289 17.1189 117.25 17.1327 117.213C17.1465 117.176 17.1672 117.146 17.1948 117.123C17.2223 117.095 17.2568 117.084 17.2982 117.089C17.3396 117.089 17.381 117.107 17.4223 117.144C17.5787 117.295 17.7465 117.408 17.9258 117.482C18.1051 117.551 18.2844 117.585 18.4637 117.585C18.781 117.585 19.0499 117.507 19.2706 117.351C19.4913 117.19 19.6591 116.951 19.7741 116.633C19.889 116.312 19.9465 115.912 19.9465 115.433V114.737H19.9948C19.9718 115.008 19.8959 115.245 19.7672 115.447C19.6384 115.65 19.4706 115.806 19.2637 115.916C19.0614 116.022 18.8315 116.075 18.5741 116.075C18.2844 116.075 18.0269 116.01 17.8017 115.882C17.581 115.753 17.4063 115.574 17.2775 115.344C17.1534 115.109 17.0913 114.845 17.0913 114.551C17.0913 114.247 17.1557 113.978 17.2844 113.744C17.4177 113.509 17.5971 113.328 17.8223 113.199C18.0522 113.066 18.3143 112.999 18.6085 112.999C18.9856 112.999 19.3051 113.091 19.5672 113.275C19.8292 113.459 20.0269 113.728 20.1603 114.082C20.2982 114.431 20.3672 114.854 20.3672 115.351C20.3672 115.774 20.3235 116.148 20.2361 116.475C20.1534 116.801 20.0292 117.075 19.8637 117.295C19.6982 117.516 19.4959 117.684 19.2568 117.799C19.0223 117.914 18.7557 117.971 18.4568 117.971ZM18.643 115.695C18.8683 115.695 19.0637 115.647 19.2292 115.551C19.3994 115.45 19.5327 115.312 19.6292 115.137C19.7258 114.962 19.7741 114.762 19.7741 114.537C19.7741 114.307 19.7258 114.105 19.6292 113.93C19.5327 113.755 19.3994 113.62 19.2292 113.523C19.0637 113.422 18.8683 113.371 18.643 113.371C18.4223 113.371 18.2269 113.422 18.0568 113.523C17.8913 113.62 17.7603 113.755 17.6637 113.93C17.5672 114.105 17.5189 114.307 17.5189 114.537C17.5189 114.762 17.5672 114.962 17.6637 115.137C17.7603 115.312 17.8913 115.45 18.0568 115.551C18.2269 115.647 18.4223 115.695 18.643 115.695Z" fill="black"/>
<path d="M14.639 117.971C14.285 117.971 13.9792 117.921 13.7218 117.82C13.4689 117.714 13.2735 117.562 13.1355 117.364C13.0022 117.162 12.9355 116.921 12.9355 116.64C12.9355 116.41 12.9815 116.208 13.0735 116.033C13.17 115.859 13.3011 115.716 13.4666 115.606C13.6321 115.495 13.8229 115.427 14.039 115.399V115.482C13.7355 115.417 13.4942 115.277 13.3149 115.061C13.1401 114.84 13.0528 114.581 13.0528 114.282C13.0528 114.01 13.1172 113.781 13.2459 113.592C13.3792 113.399 13.5654 113.252 13.8045 113.151C14.0436 113.05 14.3218 112.999 14.639 112.999C14.9608 112.999 15.239 113.05 15.4735 113.151C15.7126 113.252 15.8965 113.399 16.0252 113.592C16.1585 113.781 16.2252 114.01 16.2252 114.282C16.2252 114.479 16.1838 114.661 16.1011 114.827C16.0229 114.992 15.9103 115.132 15.7631 115.247C15.6206 115.358 15.4459 115.436 15.239 115.482V115.399C15.57 115.445 15.8367 115.578 16.039 115.799C16.2413 116.02 16.3424 116.3 16.3424 116.64C16.3424 116.921 16.2735 117.162 16.1355 117.364C16.0022 117.562 15.8091 117.714 15.5562 117.82C15.3034 117.921 14.9976 117.971 14.639 117.971ZM14.639 117.606C15.062 117.606 15.3792 117.525 15.5907 117.364C15.8068 117.199 15.9149 116.951 15.9149 116.62C15.9149 116.289 15.8068 116.043 15.5907 115.882C15.3792 115.721 15.062 115.64 14.639 115.64C14.2206 115.64 13.9034 115.721 13.6873 115.882C13.4712 116.043 13.3631 116.289 13.3631 116.62C13.3631 116.951 13.4712 117.199 13.6873 117.364C13.9034 117.525 14.2206 117.606 14.639 117.606ZM14.639 115.268C14.8827 115.268 15.0896 115.231 15.2597 115.158C15.4344 115.079 15.5677 114.969 15.6597 114.827C15.7562 114.679 15.8045 114.507 15.8045 114.309C15.8045 114.01 15.7011 113.778 15.4942 113.613C15.2919 113.447 15.0068 113.364 14.639 113.364C14.2758 113.364 13.9907 113.447 13.7838 113.613C13.5769 113.778 13.4735 114.01 13.4735 114.309C13.4735 114.608 13.5769 114.843 13.7838 115.013C13.9907 115.183 14.2758 115.268 14.639 115.268Z" fill="black"/>
<path d="M11.8616 118.537C11.8202 118.587 11.7788 118.615 11.7374 118.62C11.696 118.629 11.6593 118.622 11.6271 118.599C11.5995 118.576 11.5834 118.544 11.5788 118.502C11.5788 118.461 11.5995 118.413 11.6409 118.358C11.7006 118.275 11.7443 118.187 11.7719 118.095C11.7995 118.004 11.8133 117.918 11.8133 117.84L11.8409 117.937C11.7397 117.937 11.657 117.907 11.5926 117.847C11.5328 117.787 11.5029 117.712 11.5029 117.62C11.5029 117.528 11.5305 117.452 11.5857 117.392C11.6409 117.332 11.7167 117.302 11.8133 117.302C11.9098 117.302 11.9857 117.337 12.0409 117.406C12.1006 117.47 12.1305 117.569 12.1305 117.702C12.1305 117.785 12.1213 117.875 12.1029 117.971C12.0891 118.072 12.0616 118.171 12.0202 118.268C11.9788 118.364 11.9259 118.454 11.8616 118.537Z" fill="black"/>
<path d="M9.82944 117.958C9.76047 117.958 9.7076 117.939 9.67081 117.902C9.63403 117.866 9.61564 117.813 9.61564 117.744V116.82H7.51219C7.44323 116.82 7.38806 116.803 7.34668 116.771C7.30989 116.735 7.2915 116.684 7.2915 116.62C7.2915 116.583 7.2984 116.546 7.31219 116.509C7.33058 116.468 7.35817 116.42 7.39495 116.364L9.59495 113.151C9.62714 113.105 9.66162 113.07 9.6984 113.047C9.73978 113.024 9.78576 113.013 9.83633 113.013C9.8961 113.013 9.94438 113.031 9.98116 113.068C10.0225 113.1 10.0432 113.153 10.0432 113.226V116.447H10.6225C10.6915 116.447 10.7421 116.463 10.7743 116.495C10.811 116.528 10.8294 116.574 10.8294 116.633C10.8294 116.693 10.811 116.739 10.7743 116.771C10.7421 116.803 10.6915 116.82 10.6225 116.82H10.0432V117.744C10.0432 117.813 10.0248 117.866 9.98806 117.902C9.95127 117.939 9.8984 117.958 9.82944 117.958ZM9.61564 116.447V113.537H9.76737L7.6915 116.564V116.447H9.61564Z" fill="black"/>
<path d="M26.9551 127.803C26.9275 127.854 26.8953 127.886 26.8586 127.899C26.8218 127.918 26.785 127.922 26.7482 127.913C26.7114 127.904 26.6792 127.886 26.6517 127.858C26.6287 127.831 26.6149 127.796 26.6103 127.755C26.6057 127.713 26.6172 127.67 26.6448 127.624L29.3551 122.886C29.3827 122.835 29.4149 122.803 29.4517 122.789C29.4884 122.771 29.5252 122.766 29.562 122.775C29.5988 122.785 29.6287 122.805 29.6517 122.837C29.6792 122.865 29.6953 122.899 29.6999 122.941C29.7045 122.982 29.693 123.026 29.6654 123.072L26.9551 127.803ZM26.5413 125.824C26.1873 125.824 25.9068 125.695 25.6999 125.437C25.4976 125.175 25.3965 124.808 25.3965 124.334C25.3965 124.021 25.4425 123.755 25.5344 123.534C25.6264 123.313 25.7574 123.145 25.9275 123.031C26.1022 122.911 26.3068 122.851 26.5413 122.851C26.8953 122.851 27.1758 122.982 27.3827 123.244C27.5896 123.502 27.693 123.865 27.693 124.334C27.693 124.651 27.6471 124.92 27.5551 125.141C27.4632 125.362 27.3321 125.532 27.162 125.651C26.9919 125.766 26.785 125.824 26.5413 125.824ZM26.5413 125.499C26.7022 125.499 26.8402 125.456 26.9551 125.368C27.07 125.276 27.1574 125.145 27.2172 124.975C27.2769 124.801 27.3068 124.587 27.3068 124.334C27.3068 123.957 27.2379 123.672 27.0999 123.479C26.9666 123.281 26.7804 123.182 26.5413 123.182C26.385 123.182 26.2494 123.226 26.1344 123.313C26.0195 123.401 25.9321 123.529 25.8723 123.699C25.8126 123.87 25.7827 124.081 25.7827 124.334C25.7827 124.72 25.8494 125.012 25.9827 125.21C26.1206 125.403 26.3068 125.499 26.5413 125.499ZM29.7689 127.824C29.4149 127.824 29.1344 127.695 28.9275 127.437C28.7252 127.18 28.6241 126.812 28.6241 126.334C28.6241 126.021 28.67 125.755 28.762 125.534C28.854 125.313 28.985 125.145 29.1551 125.031C29.3298 124.911 29.5344 124.851 29.7689 124.851C30.1275 124.851 30.408 124.982 30.6103 125.244C30.8172 125.502 30.9206 125.865 30.9206 126.334C30.9206 126.651 30.8746 126.922 30.7827 127.148C30.6907 127.368 30.5597 127.536 30.3896 127.651C30.2195 127.766 30.0126 127.824 29.7689 127.824ZM29.7689 127.499C29.9298 127.499 30.0677 127.456 30.1827 127.368C30.2976 127.281 30.385 127.15 30.4448 126.975C30.5045 126.801 30.5344 126.587 30.5344 126.334C30.5344 125.957 30.4654 125.672 30.3275 125.479C30.1942 125.281 30.008 125.182 29.7689 125.182C29.6126 125.182 29.4769 125.226 29.362 125.313C29.2471 125.401 29.1597 125.529 29.0999 125.699C29.0402 125.87 29.0103 126.081 29.0103 126.334C29.0103 126.72 29.0769 127.012 29.2103 127.21C29.3482 127.403 29.5344 127.499 29.7689 127.499Z" fill="#A6A6A6"/>
<path d="M22.9092 127.824C22.3621 127.824 21.946 127.612 21.6609 127.189C21.3805 126.762 21.2402 126.145 21.2402 125.341C21.2402 124.794 21.3023 124.336 21.4264 123.968C21.5552 123.601 21.7437 123.322 21.992 123.134C22.2402 122.945 22.546 122.851 22.9092 122.851C23.4609 122.851 23.877 123.06 24.1575 123.479C24.4379 123.897 24.5782 124.516 24.5782 125.334C24.5782 125.872 24.5138 126.327 24.3851 126.699C24.2609 127.072 24.0747 127.352 23.8264 127.541C23.5782 127.729 23.2724 127.824 22.9092 127.824ZM22.9092 127.444C23.3276 127.444 23.6379 127.272 23.8402 126.927C24.0425 126.582 24.1437 126.051 24.1437 125.334C24.1437 124.608 24.0425 124.076 23.8402 123.741C23.6425 123.401 23.3322 123.231 22.9092 123.231C22.4908 123.231 22.1805 123.401 21.9782 123.741C21.7759 124.081 21.6747 124.612 21.6747 125.334C21.6747 126.051 21.7759 126.582 21.9782 126.927C22.1805 127.272 22.4908 127.444 22.9092 127.444Z" fill="#A6A6A6"/>
<path d="M18.7742 127.824C18.4202 127.824 18.1145 127.773 17.857 127.672C17.6041 127.566 17.4087 127.414 17.2708 127.217C17.1375 127.014 17.0708 126.773 17.0708 126.493C17.0708 126.263 17.1168 126.06 17.2087 125.886C17.3053 125.711 17.4363 125.568 17.6018 125.458C17.7674 125.348 17.9582 125.279 18.1742 125.251V125.334C17.8708 125.27 17.6294 125.129 17.4501 124.913C17.2754 124.693 17.188 124.433 17.188 124.134C17.188 123.863 17.2524 123.633 17.3811 123.444C17.5145 123.251 17.7007 123.104 17.9398 123.003C18.1788 122.902 18.457 122.851 18.7742 122.851C19.0961 122.851 19.3742 122.902 19.6087 123.003C19.8478 123.104 20.0317 123.251 20.1605 123.444C20.2938 123.633 20.3605 123.863 20.3605 124.134C20.3605 124.332 20.3191 124.513 20.2363 124.679C20.1582 124.844 20.0455 124.985 19.8984 125.099C19.7559 125.21 19.5811 125.288 19.3742 125.334V125.251C19.7053 125.297 19.9719 125.431 20.1742 125.651C20.3765 125.872 20.4777 126.152 20.4777 126.493C20.4777 126.773 20.4087 127.014 20.2708 127.217C20.1375 127.414 19.9444 127.566 19.6915 127.672C19.4386 127.773 19.1329 127.824 18.7742 127.824ZM18.7742 127.458C19.1972 127.458 19.5145 127.378 19.726 127.217C19.9421 127.051 20.0501 126.803 20.0501 126.472C20.0501 126.141 19.9421 125.895 19.726 125.734C19.5145 125.573 19.1972 125.493 18.7742 125.493C18.3559 125.493 18.0386 125.573 17.8225 125.734C17.6064 125.895 17.4984 126.141 17.4984 126.472C17.4984 126.803 17.6064 127.051 17.8225 127.217C18.0386 127.378 18.3559 127.458 18.7742 127.458ZM18.7742 125.12C19.0179 125.12 19.2248 125.083 19.3949 125.01C19.5697 124.932 19.703 124.821 19.7949 124.679C19.8915 124.532 19.9398 124.359 19.9398 124.162C19.9398 123.863 19.8363 123.631 19.6294 123.465C19.4271 123.299 19.1421 123.217 18.7742 123.217C18.411 123.217 18.126 123.299 17.9191 123.465C17.7122 123.631 17.6087 123.863 17.6087 124.162C17.6087 124.46 17.7122 124.695 17.9191 124.865C18.126 125.035 18.411 125.12 18.7742 125.12Z" fill="#A6A6A6"/>
<path d="M15.9968 128.389C15.9554 128.44 15.914 128.467 15.8727 128.472C15.8313 128.481 15.7945 128.474 15.7623 128.451C15.7347 128.428 15.7186 128.396 15.714 128.355C15.714 128.313 15.7347 128.265 15.7761 128.21C15.8359 128.127 15.8796 128.04 15.9071 127.948C15.9347 127.856 15.9485 127.771 15.9485 127.693L15.9761 127.789C15.875 127.789 15.7922 127.759 15.7278 127.699C15.6681 127.64 15.6382 127.564 15.6382 127.472C15.6382 127.38 15.6658 127.304 15.7209 127.244C15.7761 127.185 15.852 127.155 15.9485 127.155C16.0451 127.155 16.1209 127.189 16.1761 127.258C16.2359 127.322 16.2658 127.421 16.2658 127.555C16.2658 127.637 16.2566 127.727 16.2382 127.824C16.2244 127.925 16.1968 128.024 16.1554 128.12C16.114 128.217 16.0612 128.306 15.9968 128.389Z" fill="#A6A6A6"/>
<path d="M13.1304 127.824C12.5833 127.824 12.1672 127.612 11.8821 127.189C11.6017 126.762 11.4614 126.145 11.4614 125.341C11.4614 124.794 11.5235 124.336 11.6476 123.968C11.7764 123.601 11.9649 123.322 12.2131 123.134C12.4614 122.945 12.7672 122.851 13.1304 122.851C13.6821 122.851 14.0982 123.06 14.3787 123.479C14.6591 123.897 14.7994 124.516 14.7994 125.334C14.7994 125.872 14.735 126.327 14.6063 126.699C14.4821 127.072 14.2959 127.352 14.0476 127.541C13.7994 127.729 13.4936 127.824 13.1304 127.824ZM13.1304 127.444C13.5488 127.444 13.8591 127.272 14.0614 126.927C14.2637 126.582 14.3649 126.051 14.3649 125.334C14.3649 124.608 14.2637 124.076 14.0614 123.741C13.8637 123.401 13.5534 123.231 13.1304 123.231C12.712 123.231 12.4017 123.401 12.1994 123.741C11.9971 124.081 11.8959 124.612 11.8959 125.334C11.8959 126.051 11.9971 126.582 12.1994 126.927C12.4017 127.272 12.712 127.444 13.1304 127.444Z" fill="#A6A6A6"/>
<path d="M7.45037 125.962C7.3906 125.962 7.34462 125.948 7.31244 125.92C7.28025 125.888 7.26416 125.844 7.26416 125.789C7.26416 125.734 7.28025 125.693 7.31244 125.665C7.34462 125.633 7.3906 125.617 7.45037 125.617H10.54C10.5998 125.617 10.6458 125.633 10.678 125.665C10.7101 125.693 10.7262 125.734 10.7262 125.789C10.7262 125.849 10.7101 125.893 10.678 125.92C10.6458 125.948 10.5998 125.962 10.54 125.962H7.45037Z" fill="#A6A6A6"/>
<path fill-rule="evenodd" clip-rule="evenodd" d="M70.9657 106.586H6.92627V106.094H70.9657V106.586Z" fill="black"/>
<g clip-path="url(#clip0_2002_402)">
<path d="M6.92627 86.8818H21.7046V101.66H6.92627V86.8818Z" fill="#009393"/>
<path d="M14.3156 99.285L9.0376 94.0783L11.0511 90.8402H17.58L19.5935 94.0783L14.3156 99.285ZM14.8434 94.5348V93.8909C15.7934 93.9384 16.6801 94.1231 16.9546 94.3633C16.6352 94.643 15.4926 94.8462 14.3156 94.8462C13.1386 94.8462 11.9959 94.643 11.6766 94.3633C11.9484 94.1231 12.8377 93.941 13.7878 93.8883V94.5348H14.8434ZM11.6766 94.3606V94.7486C11.9484 94.9887 12.8351 95.1708 13.7878 95.2236V96.646H14.8434V95.221C15.7934 95.1735 16.6827 94.9887 16.9546 94.7486V93.9754C16.6827 93.7352 15.7934 93.5505 14.8434 93.5003V92.9514H16.4268V92.1597H12.2044V92.9514H13.7878V93.5003C12.8351 93.5505 11.9484 93.7352 11.6766 93.9754V94.3606Z" fill="white"/>
</g>
<path d="M70 4.46305C70 3.10275 71.1027 2 72.4631 2H141.429C142.789 2 143.892 3.10275 143.892 4.46305V99.5369C143.892 100.897 142.789 102 141.429 102H72.4631C71.1027 102 70 100.897 70 99.5369V4.46305Z" fill="white"/>
<g filter="url(#filter1_d_2002_402)">
<path d="M70 4.46305C70 3.10275 71.1027 2 72.4631 2H141.429C142.789 2 143.892 3.10275 143.892 4.46305V99.5369C143.892 100.897 142.789 102 141.429 102H72.4631C71.1027 102 70 100.897 70 99.5369V4.46305Z" fill="white"/>
</g>
<rect x="74.9263" y="85.2512" width="22.0499" height="7.47586" rx="3" fill="#292929"/>
<path d="M91.4505 90.213C91.3977 90.213 91.3573 90.2005 91.3293 90.1757C91.3044 90.1477 91.292 90.1088 91.292 90.0591V88.0684C91.292 88.0187 91.3044 87.9814 91.3293 87.9565C91.3542 87.9317 91.3899 87.9193 91.4365 87.9193C91.48 87.9193 91.5142 87.9317 91.5391 87.9565C91.5639 87.9814 91.5764 88.0187 91.5764 88.0684V88.7864H92.299C92.5818 88.7864 92.7963 88.8485 92.9423 88.9729C93.0915 89.0972 93.1661 89.2712 93.1661 89.495C93.1661 89.6442 93.1319 89.7732 93.0636 89.882C92.9983 89.9907 92.9019 90.0731 92.7745 90.129C92.6471 90.185 92.4886 90.213 92.299 90.213H91.4505ZM91.5764 89.9938H92.2897C92.4761 89.9938 92.6207 89.9534 92.7232 89.8726C92.8289 89.7918 92.8817 89.6675 92.8817 89.4997C92.8817 89.3287 92.8289 89.2029 92.7232 89.122C92.6207 89.0412 92.4761 89.0008 92.2897 89.0008H91.5764V89.9938Z" fill="white"/>
<path d="M89.8952 90.2409C89.8517 90.2409 89.8175 90.2285 89.7927 90.2036C89.7678 90.1787 89.7554 90.143 89.7554 90.0964V88.1896H89.0188C88.9255 88.1896 88.8789 88.1492 88.8789 88.0684C88.8789 88.0342 88.8913 88.0062 88.9162 87.9845C88.9411 87.9627 88.9753 87.9518 89.0188 87.9518H90.7763C90.8665 87.9518 90.9115 87.9907 90.9115 88.0684C90.9115 88.1057 90.8991 88.1352 90.8742 88.157C90.8525 88.1787 90.8199 88.1896 90.7763 88.1896H90.0397V90.0964C90.0397 90.143 90.0273 90.1787 90.0024 90.2036C89.9807 90.2285 89.9449 90.2409 89.8952 90.2409Z" fill="white"/>
<path d="M86.7331 90.2409C86.7082 90.2409 86.6849 90.2363 86.6631 90.2269C86.6445 90.2176 86.629 90.2021 86.6165 90.1803C86.6072 90.1555 86.6025 90.1244 86.6025 90.0871V88.0638C86.6025 88.0172 86.6134 87.9814 86.6352 87.9565C86.66 87.9317 86.6942 87.9193 86.7377 87.9193C86.7781 87.9193 86.8092 87.9317 86.831 87.9565C86.8527 87.9814 86.8636 88.0172 86.8636 88.0638V89.9612H86.7517L88.2016 88.0125C88.2234 87.9845 88.2467 87.9628 88.2715 87.9472C88.2964 87.9286 88.329 87.9193 88.3694 87.9193C88.3974 87.9193 88.4207 87.9255 88.4394 87.9379C88.458 87.9472 88.472 87.9628 88.4813 87.9845C88.4938 88.0063 88.5 88.0358 88.5 88.0731V90.1011C88.5 90.1446 88.4875 90.1788 88.4627 90.2036C88.4409 90.2285 88.4098 90.2409 88.3694 90.2409C88.3259 90.2409 88.2933 90.2285 88.2715 90.2036C88.2498 90.1788 88.2389 90.1446 88.2389 90.1011V88.2036H88.3508L86.8962 90.1523C86.8776 90.1772 86.8558 90.1974 86.831 90.213C86.8061 90.2316 86.7735 90.2409 86.7331 90.2409Z" fill="white"/>
<path d="M84.0703 90.2409C84.0237 90.2409 83.9879 90.2285 83.9631 90.2036C83.9382 90.1787 83.9258 90.143 83.9258 90.0964V88.115C83.9258 88.0622 83.9398 88.0218 83.9677 87.9938C83.9957 87.9658 84.0361 87.9518 84.089 87.9518H85.6554C85.7082 87.9518 85.7486 87.9658 85.7766 87.9938C85.8046 88.0218 85.8186 88.0622 85.8186 88.115V90.0964C85.8186 90.143 85.8061 90.1787 85.7813 90.2036C85.7564 90.2285 85.7207 90.2409 85.674 90.2409C85.6305 90.2409 85.5963 90.2285 85.5715 90.2036C85.5466 90.1787 85.5342 90.143 85.5342 90.0964V88.1849H84.2102V90.0964C84.2102 90.143 84.1977 90.1787 84.1729 90.2036C84.1511 90.2285 84.1169 90.2409 84.0703 90.2409Z" fill="white"/>
<path d="M81.9927 91.0801C81.9554 91.0801 81.9258 91.0692 81.9041 91.0475C81.8823 91.0288 81.8699 91.0024 81.8668 90.9682C81.8668 90.9371 81.873 90.9045 81.8854 90.8703L82.2071 90.1384V90.2689L81.2934 88.1337C81.2778 88.0964 81.2716 88.0622 81.2747 88.0311C81.2809 87.997 81.2949 87.9705 81.3167 87.9519C81.3415 87.9301 81.3757 87.9193 81.4192 87.9193C81.4596 87.9193 81.4892 87.9286 81.5078 87.9472C81.5296 87.9659 81.5482 87.9954 81.5637 88.0358L82.3936 90.0451H82.277L83.1069 88.0358C83.1255 87.9923 83.1457 87.9628 83.1675 87.9472C83.1892 87.9286 83.2203 87.9193 83.2607 87.9193C83.3011 87.9193 83.3306 87.9301 83.3493 87.9519C83.371 87.9705 83.3835 87.9954 83.3866 88.0265C83.3897 88.0576 83.3835 88.0917 83.3679 88.129L82.1512 90.9682C82.1325 91.0117 82.1108 91.0412 82.0859 91.0568C82.0641 91.0723 82.0331 91.0801 81.9927 91.0801Z" fill="white"/>
<path d="M78.8762 90.2409C78.8327 90.2409 78.7985 90.2285 78.7736 90.2036C78.7488 90.1756 78.7363 90.1383 78.7363 90.0917V87.0428C78.7363 86.9962 78.7488 86.9604 78.7736 86.9356C78.7985 86.9107 78.8327 86.8983 78.8762 86.8983C78.9228 86.8983 78.9586 86.9107 78.9834 86.9356C79.0083 86.9604 79.0207 86.9962 79.0207 87.0428V88.4227H79.7107L79.6035 88.4927L80.6244 86.9728C80.6462 86.9418 80.6711 86.9216 80.699 86.9122C80.727 86.8998 80.755 86.8967 80.7829 86.9029C80.8109 86.9091 80.8342 86.9231 80.8529 86.9449C80.8715 86.9635 80.8824 86.9868 80.8855 87.0148C80.8917 87.0428 80.884 87.0739 80.8622 87.108L79.8925 88.5346L79.7946 88.4321C79.9749 88.4507 80.1303 88.516 80.2608 88.6279C80.3944 88.7366 80.5094 88.8889 80.6058 89.0847L81.0813 90.0451C81.1 90.0793 81.1046 90.1119 81.0953 90.143C81.0891 90.171 81.0735 90.1927 81.0487 90.2083C81.0269 90.2238 81.0005 90.2331 80.9694 90.2362C80.9415 90.2394 80.9135 90.2331 80.8855 90.2176C80.8575 90.2052 80.8358 90.1819 80.8202 90.1477L80.382 89.2432C80.2826 89.0381 80.1707 88.892 80.0463 88.805C79.9251 88.718 79.776 88.6745 79.5988 88.6745H79.0207V90.0917C79.0207 90.1383 79.0083 90.1756 78.9834 90.2036C78.9617 90.2285 78.9259 90.2409 78.8762 90.2409Z" fill="white"/>
<path fill-rule="evenodd" clip-rule="evenodd" d="M125.42 51.0352L125.904 50.9529L130.831 69.9245L133.001 79.2558L136.259 57.3824L136.749 57.4187V70.6547L138.934 74.5394L138.505 74.7809L136.256 70.7837V60.7445L133.298 80.6077L132.815 80.6272L130.352 70.0391L126.149 53.8584L127.951 75.4716L118.855 63.6782L117.628 56.4664L116.305 73.4477L115.824 73.502L113.443 65.8743L110.539 75.0183L110.277 74.8768C110.167 74.8172 110.075 74.7219 109.997 74.6189C109.917 74.5135 109.841 74.3849 109.768 74.2411C109.623 73.9534 109.482 73.583 109.345 73.164C109.071 72.3248 108.809 71.2619 108.581 70.2111C108.354 69.1589 108.159 68.1131 108.022 67.3054C107.953 66.9015 107.898 66.5565 107.861 66.2993C107.825 66.0537 107.801 65.8649 107.801 65.7931C107.801 65.7374 107.772 65.5995 107.705 65.3803C107.64 65.1727 107.55 64.9212 107.449 64.6556C107.334 64.3533 107.205 64.0367 107.086 63.7524L106.298 65.9283L103.743 68.4929L103.637 68.0694C103.392 67.0833 102.805 64.8261 102.416 63.654C102.236 63.1108 102.01 63.0175 101.875 63.0095C101.707 62.9996 101.513 63.1044 101.372 63.2381L96.7607 70.8636V64.0689C96.5165 64.415 96.1948 64.9328 95.8676 65.4662C95.8127 65.5557 95.7577 65.6456 95.703 65.7351C95.4229 66.1927 95.1496 66.6394 94.9354 66.9634C94.8095 67.1539 94.6947 67.3165 94.6067 67.4136C94.584 67.4387 94.5584 67.4648 94.5309 67.4872C94.509 67.5051 94.4615 67.5417 94.3959 67.5574C94.3589 67.5663 94.3051 67.5711 94.2457 67.5508C94.1835 67.5295 94.1389 67.4887 94.1107 67.4462C94.0636 67.3751 94.0619 67.2999 94.0619 67.271C94.0619 67.0376 94.003 66.6923 93.9186 66.326L92.4125 79.3682L91.9244 79.3777L89.4066 63.1425L87.9235 58.7493L87.4386 70.0111L86.4531 74.7107L85.9744 74.7247C85.7281 73.8182 85.1905 71.8725 84.9969 71.2895C84.9185 71.0534 84.7303 70.8214 84.5032 70.6205C84.4192 70.5461 84.3329 70.4788 84.2503 70.4198V74.9064H82.7457L82.2851 78.1431L81.8097 78.1923L79.3435 71.3836V78.9701L77.7337 76.3843H76.5563L75.1502 79.4428L74.7026 79.2371L76.2406 75.8917H78.0073L78.8509 77.2467V69.9803L79.3288 69.8965L81.9365 77.096L82.2857 74.6426C82.2863 74.2276 82.3113 73.6312 82.3872 73.1785C82.424 72.9589 82.4786 72.7326 82.572 72.5845C82.6183 72.5111 82.7061 72.4061 82.852 72.384C83.005 72.3608 83.1239 72.4424 83.1971 72.5159C83.3431 72.6624 83.417 72.8575 83.4532 73.0488C83.4898 73.2419 83.492 73.4529 83.4768 73.6564C83.457 73.9204 83.4064 74.1876 83.3498 74.4138H83.7577V69.5811L84.1145 69.7602C84.2956 69.8511 84.5712 70.0229 84.8296 70.2515C85.085 70.4776 85.3466 70.7792 85.4644 71.1343C85.6062 71.5611 85.9218 72.6793 86.1801 73.6126L86.9482 69.9496L87.4882 57.4081L87.9677 57.3399L89.8869 63.0251L92.1321 77.5023L93.5729 65.026L94.0513 64.9766C94.1349 65.2284 94.2595 65.6412 94.3635 66.0672C94.4167 66.2849 94.4661 66.5124 94.5013 66.7267C94.5089 66.7153 94.5166 66.7037 94.5244 66.6918C94.7334 66.3757 95.001 65.9383 95.2813 65.4803C95.3364 65.3903 95.392 65.2995 95.4476 65.2087C95.7839 64.6605 96.1259 64.1097 96.3849 63.7472C96.5092 63.5732 96.6324 63.4164 96.7358 63.3325C96.7632 63.3102 96.801 63.2831 96.8467 63.2644C96.8905 63.2464 96.9741 63.2231 97.0675 63.2601C97.1664 63.2994 97.2123 63.3801 97.2314 63.4343C97.2499 63.4864 97.2533 63.5379 97.2533 63.5764V69.0971L100.982 62.931L101.003 62.91C101.188 62.7244 101.523 62.4952 101.904 62.5177C102.325 62.5426 102.671 62.8597 102.884 63.4988C103.23 64.543 103.726 66.4169 104.009 67.5278L105.872 65.658L107.043 62.4237L107.291 62.9841C107.456 63.3562 107.703 63.9392 107.909 64.48C108.012 64.7501 108.107 65.0127 108.175 65.2347C108.24 65.445 108.294 65.6518 108.294 65.7931C108.294 65.7924 108.294 65.793 108.294 65.7953C108.294 65.7967 108.294 65.7987 108.294 65.8014C108.294 65.8081 108.295 65.8172 108.296 65.8289C108.298 65.8522 108.302 65.8832 108.306 65.9217C108.316 65.9986 108.33 66.1018 108.348 66.2282C108.385 66.4806 108.439 66.8217 108.507 67.2227C108.644 68.0248 108.837 69.0633 109.063 70.1068C109.289 71.1516 109.547 72.1956 109.813 73.0113C109.947 73.4197 110.079 73.7637 110.208 74.0195C110.237 74.0757 110.264 74.1266 110.291 74.1722L113.447 64.2342L115.913 72.134L117.292 54.4439L117.78 54.4217L119.32 63.4746L127.321 73.8487L125.42 51.0352ZM82.7784 74.6142L82.7889 74.5825C82.866 74.3502 82.9588 73.9764 82.9856 73.6196C82.9989 73.4412 82.995 73.2767 82.9692 73.1404C82.9588 73.0851 82.9453 73.0378 82.9298 72.9978C82.9104 73.0657 82.8909 73.153 82.873 73.26C82.8053 73.6638 82.7801 74.2122 82.7784 74.6142ZM97.051 63.7113C97.0511 63.7112 97.0509 63.7114 97.0503 63.7118L97.051 63.7113Z" fill="#CF000C"/>
<path d="M107.246 20.2799C107.163 20.2799 107.098 20.2563 107.051 20.209C107.004 20.1558 106.98 20.0848 106.98 19.9962V14.2592C106.98 14.1646 107.004 14.0937 107.051 14.0464C107.104 13.9991 107.172 13.9755 107.255 13.9755H109.339C110.001 13.9755 110.509 14.1351 110.864 14.4543C111.218 14.7735 111.396 15.2287 111.396 15.8198C111.396 16.405 111.218 16.8602 110.864 17.1853C110.509 17.5045 110.001 17.6641 109.339 17.6641H107.521V19.9962C107.521 20.0848 107.497 20.1558 107.45 20.209C107.409 20.2563 107.341 20.2799 107.246 20.2799ZM107.521 17.1853H109.294C109.809 17.1853 110.196 17.07 110.456 16.8395C110.716 16.609 110.846 16.2691 110.846 15.8198C110.846 15.3705 110.716 15.0306 110.456 14.8001C110.196 14.5636 109.809 14.4454 109.294 14.4454H107.521V17.1853Z" fill="black"/>
<path d="M101.384 20.2799C101.301 20.2799 101.236 20.2563 101.189 20.209C101.142 20.1558 101.118 20.0848 101.118 19.9962V14.2592C101.118 14.1646 101.142 14.0937 101.189 14.0464C101.242 13.9991 101.31 13.9755 101.393 13.9755H103.477C104.139 13.9755 104.647 14.1292 105.002 14.4365C105.357 14.7439 105.534 15.1814 105.534 15.7489C105.534 16.1154 105.454 16.4316 105.295 16.6976C105.135 16.9577 104.898 17.1558 104.585 17.2917C104.278 17.4277 103.908 17.4957 103.477 17.4957L103.574 17.3804H103.698C103.923 17.3804 104.118 17.4395 104.284 17.5577C104.455 17.676 104.609 17.8681 104.745 18.1341L105.685 19.8809C105.726 19.9459 105.744 20.0109 105.738 20.076C105.738 20.1351 105.717 20.1853 105.676 20.2267C105.634 20.2622 105.581 20.2799 105.516 20.2799C105.439 20.2799 105.374 20.2622 105.321 20.2267C105.274 20.1912 105.232 20.141 105.197 20.076L104.204 18.2228C104.05 17.939 103.879 17.7528 103.69 17.6641C103.5 17.5696 103.246 17.5223 102.927 17.5223H101.659V19.9962C101.659 20.0848 101.635 20.1558 101.588 20.209C101.547 20.2563 101.479 20.2799 101.384 20.2799ZM101.659 17.0612H103.406C103.932 17.0612 104.325 16.9518 104.585 16.7331C104.851 16.5085 104.984 16.1804 104.984 15.7489C104.984 15.3232 104.851 15.0011 104.585 14.7824C104.325 14.5577 103.932 14.4454 103.406 14.4454H101.659V17.0612Z" fill="black"/>
<path d="M95.2246 20.2798C95.1477 20.2798 95.0856 20.2621 95.0384 20.2266C94.997 20.1852 94.9733 20.1379 94.9674 20.0847C94.9615 20.0256 94.9792 19.9665 95.0206 19.9074L97.2196 16.937V17.1143L95.1625 14.3212C95.1152 14.2503 95.0916 14.1852 95.0916 14.1261C95.0975 14.067 95.1241 14.0197 95.1714 13.9842C95.2186 13.9429 95.2748 13.9222 95.3398 13.9222C95.4049 13.9222 95.4581 13.937 95.4994 13.9665C95.5467 13.9902 95.594 14.0345 95.6413 14.0995L97.5654 16.7242H97.397L99.3034 14.0995C99.3448 14.0345 99.3891 13.9902 99.4364 13.9665C99.4837 13.937 99.5398 13.9222 99.6049 13.9222C99.6758 13.9222 99.7319 13.9399 99.7733 13.9754C99.8206 14.0108 99.8443 14.0611 99.8443 14.1261C99.8502 14.1852 99.8295 14.2503 99.7822 14.3212L97.7162 17.1143V16.937L99.9152 19.9074C99.9625 19.9665 99.9832 20.0256 99.9773 20.0847C99.9714 20.1379 99.9448 20.1852 99.8975 20.2266C99.8502 20.2621 99.7881 20.2798 99.7113 20.2798C99.6581 20.2798 99.6049 20.265 99.5517 20.2355C99.5044 20.2059 99.4571 20.1616 99.4098 20.1025L97.3526 17.2916H97.5832L95.526 20.1025C95.4847 20.1616 95.4374 20.2059 95.3842 20.2355C95.331 20.265 95.2778 20.2798 95.2246 20.2798Z" fill="black"/>
<g clip-path="url(#clip1_2002_402)">
<path d="M74.9263 9.88177H89.7046V24.6601H74.9263V9.88177Z" fill="url(#paint0_linear_2002_402)"/>
<path d="M85.2995 13.5764H86.5217L83.9793 16.2887C83.7651 16.515 83.5072 16.6956 83.2213 16.8195C82.9353 16.9435 82.6273 17.0081 82.3156 17.0097C82.004 17.0081 81.6959 16.9435 81.41 16.8195C81.1241 16.6956 80.8662 16.515 80.652 16.2887L78.1054 13.5764H79.3317L81.2611 15.654C81.8261 16.2533 82.8052 16.2533 83.3702 15.654L85.2995 13.5764ZM79.3151 20.9613H78.0933L80.6518 18.2571C80.8663 18.0307 81.1246 17.8501 81.4109 17.7262C81.6971 17.6023 82.0055 17.5376 82.3175 17.5362C82.6294 17.5377 82.9379 17.6024 83.2242 17.7263C83.5104 17.8503 83.7686 18.0309 83.9832 18.2574L86.538 20.9655H85.3159L83.3744 18.896C82.8091 18.297 81.8303 18.297 81.2653 18.896L79.3154 20.9613H79.3151Z" fill="white"/>
</g>
<path d="M111.295 40.9162C111.221 40.9162 111.164 40.8955 111.123 40.8541C111.081 40.8127 111.061 40.753 111.061 40.6748V36.2955C111.061 36.2173 111.081 36.1576 111.123 36.1162C111.164 36.0748 111.221 36.0541 111.295 36.0541H112.626C113.398 36.0541 113.994 36.261 114.412 36.6748C114.835 37.0886 115.047 37.6909 115.047 38.4817C115.047 38.8771 114.992 39.2265 114.881 39.53C114.775 39.8334 114.619 40.0886 114.412 40.2955C114.205 40.4978 113.953 40.6518 113.654 40.7576C113.355 40.8633 113.012 40.9162 112.626 40.9162H111.295ZM111.481 40.5438H112.592C112.927 40.5438 113.219 40.5001 113.467 40.4127C113.72 40.3254 113.93 40.1966 114.095 40.0265C114.261 39.8564 114.385 39.6426 114.467 39.3851C114.55 39.1231 114.592 38.8219 114.592 38.4817C114.592 37.7966 114.424 37.284 114.088 36.9438C113.757 36.5989 113.258 36.4265 112.592 36.4265H111.481V40.5438Z" fill="black"/>
<path d="M108.389 40.9714C108.168 40.9714 107.954 40.953 107.747 40.9162C107.54 40.8794 107.347 40.8242 107.168 40.7507C106.993 40.6725 106.835 40.5783 106.692 40.4679C106.646 40.4357 106.614 40.399 106.595 40.3576C106.582 40.3116 106.579 40.2702 106.589 40.2334C106.602 40.1921 106.623 40.1576 106.651 40.13C106.683 40.1024 106.72 40.0886 106.761 40.0886C106.802 40.084 106.846 40.0978 106.892 40.13C107.103 40.2863 107.326 40.4013 107.561 40.4748C107.8 40.5484 108.076 40.5852 108.389 40.5852C108.825 40.5852 109.152 40.5001 109.368 40.33C109.589 40.1599 109.699 39.9369 109.699 39.661C109.699 39.4311 109.618 39.2518 109.457 39.1231C109.301 38.9944 109.041 38.8932 108.678 38.8197L107.982 38.6748C107.545 38.5875 107.221 38.4403 107.009 38.2334C106.798 38.0265 106.692 37.7507 106.692 37.4059C106.692 37.1944 106.733 37.0036 106.816 36.8334C106.899 36.6587 107.016 36.5093 107.168 36.3852C107.32 36.261 107.499 36.1668 107.706 36.1024C107.917 36.0334 108.149 35.999 108.402 35.999C108.701 35.999 108.975 36.0403 109.223 36.1231C109.476 36.2059 109.706 36.3369 109.913 36.5162C109.954 36.5484 109.982 36.5875 109.995 36.6334C110.009 36.6748 110.009 36.7162 109.995 36.7576C109.982 36.7944 109.961 36.8243 109.933 36.8472C109.906 36.8702 109.871 36.884 109.83 36.8886C109.789 36.8886 109.745 36.8702 109.699 36.8334C109.506 36.6771 109.303 36.5645 109.092 36.4955C108.885 36.422 108.655 36.3852 108.402 36.3852C108.145 36.3852 107.92 36.4265 107.726 36.5093C107.538 36.5921 107.391 36.7093 107.285 36.861C107.179 37.0128 107.126 37.1921 107.126 37.399C107.126 37.638 107.2 37.8288 107.347 37.9714C107.494 38.1139 107.731 38.2174 108.057 38.2817L108.761 38.4265C109.225 38.5231 109.57 38.6679 109.795 38.861C110.021 39.0495 110.133 39.3093 110.133 39.6403C110.133 39.838 110.092 40.0197 110.009 40.1852C109.931 40.3461 109.816 40.4863 109.664 40.6059C109.513 40.7254 109.329 40.8174 109.113 40.8817C108.901 40.9415 108.66 40.9714 108.389 40.9714Z" fill="black"/>
<path d="M103.743 40.9713C103.435 40.9713 103.161 40.93 102.922 40.8472C102.683 40.7644 102.483 40.6403 102.322 40.4748C102.166 40.3093 102.046 40.1047 101.963 39.861C101.885 39.6173 101.846 39.3369 101.846 39.0196V36.2265C101.846 36.153 101.865 36.1001 101.901 36.0679C101.938 36.0311 101.989 36.0127 102.053 36.0127C102.122 36.0127 102.175 36.0311 102.212 36.0679C102.248 36.1001 102.267 36.153 102.267 36.2265V38.9851C102.267 39.5231 102.391 39.9254 102.639 40.192C102.892 40.4541 103.26 40.5851 103.743 40.5851C104.23 40.5851 104.598 40.4541 104.846 40.192C105.094 39.9254 105.219 39.5231 105.219 38.9851V36.2265C105.219 36.153 105.237 36.1001 105.274 36.0679C105.311 36.0311 105.363 36.0127 105.432 36.0127C105.497 36.0127 105.547 36.0311 105.584 36.0679C105.621 36.1001 105.639 36.153 105.639 36.2265V39.0196C105.639 39.4426 105.568 39.8012 105.426 40.0955C105.283 40.3851 105.069 40.6035 104.784 40.7507C104.504 40.8978 104.157 40.9713 103.743 40.9713Z" fill="black"/>
<path d="M100.014 40.9576C99.9455 40.9576 99.8927 40.9392 99.8559 40.9024C99.8191 40.8656 99.8007 40.8127 99.8007 40.7438V39.8196H97.6973C97.6283 39.8196 97.5731 39.8035 97.5317 39.7713C97.495 39.7346 97.4766 39.684 97.4766 39.6196C97.4766 39.5828 97.4835 39.5461 97.4973 39.5093C97.5156 39.4679 97.5432 39.4196 97.58 39.3644L99.78 36.1507C99.8122 36.1047 99.8467 36.0702 99.8835 36.0472C99.9248 36.0242 99.9708 36.0127 100.021 36.0127C100.081 36.0127 100.129 36.0311 100.166 36.0679C100.208 36.1001 100.228 36.153 100.228 36.2265V39.4472H100.808C100.877 39.4472 100.927 39.4633 100.959 39.4955C100.996 39.5277 101.014 39.5736 101.014 39.6334C101.014 39.6932 100.996 39.7392 100.959 39.7713C100.927 39.8035 100.877 39.8196 100.808 39.8196H100.228V40.7438C100.228 40.8127 100.21 40.8656 100.173 40.9024C100.136 40.9392 100.083 40.9576 100.014 40.9576ZM99.8007 39.4472V36.5369H99.9524L97.8766 39.5645V39.4472H99.8007Z" fill="black"/>
<path d="M95.8792 40.9576C95.8103 40.9576 95.7574 40.9392 95.7206 40.9024C95.6838 40.8656 95.6654 40.8127 95.6654 40.7438V39.8196H93.562C93.493 39.8196 93.4379 39.8035 93.3965 39.7713C93.3597 39.7346 93.3413 39.684 93.3413 39.6196C93.3413 39.5828 93.3482 39.5461 93.362 39.5093C93.3804 39.4679 93.408 39.4196 93.4448 39.3644L95.6448 36.1507C95.6769 36.1047 95.7114 36.0702 95.7482 36.0472C95.7896 36.0242 95.8356 36.0127 95.8861 36.0127C95.9459 36.0127 95.9942 36.0311 96.031 36.0679C96.0723 36.1001 96.093 36.153 96.093 36.2265V39.4472H96.6723C96.7413 39.4472 96.7919 39.4633 96.8241 39.4955C96.8608 39.5277 96.8792 39.5736 96.8792 39.6334C96.8792 39.6932 96.8608 39.7392 96.8241 39.7713C96.7919 39.8035 96.7413 39.8196 96.6723 39.8196H96.093V40.7438C96.093 40.8127 96.0746 40.8656 96.0379 40.9024C96.0011 40.9392 95.9482 40.9576 95.8792 40.9576ZM95.6654 39.4472V36.5369H95.8172L93.7413 39.5645V39.4472H95.6654Z" fill="black"/>
<path d="M89.9026 40.9162C89.8429 40.9162 89.7946 40.9001 89.7578 40.8679C89.721 40.8311 89.7026 40.7828 89.7026 40.7231C89.7026 40.6633 89.721 40.6196 89.7578 40.592C89.7946 40.5599 89.8429 40.5438 89.9026 40.5438H90.8613V36.392H91.1026L90.1026 37.0748C90.0567 37.107 90.013 37.1231 89.9716 37.1231C89.9302 37.1185 89.8957 37.1024 89.8682 37.0748C89.8406 37.0472 89.8199 37.015 89.8061 36.9782C89.7969 36.9415 89.7992 36.9024 89.813 36.861C89.8268 36.8196 89.8567 36.7851 89.9026 36.7576L90.8544 36.0955C90.9003 36.0679 90.9417 36.0472 90.9785 36.0334C91.0153 36.0196 91.0567 36.0127 91.1026 36.0127C91.1532 36.0127 91.1946 36.0288 91.2268 36.061C91.2636 36.0886 91.2819 36.1369 91.2819 36.2058V40.5438H92.1716C92.236 40.5438 92.2842 40.5599 92.3164 40.592C92.3532 40.6196 92.3716 40.6633 92.3716 40.7231C92.3716 40.7874 92.3532 40.8357 92.3164 40.8679C92.2842 40.9001 92.236 40.9162 92.1716 40.9162H89.9026Z" fill="black"/>
<path d="M85.7674 40.9162C85.7076 40.9162 85.6593 40.9001 85.6226 40.8679C85.5858 40.8311 85.5674 40.7828 85.5674 40.7231C85.5674 40.6633 85.5858 40.6196 85.6226 40.592C85.6593 40.5599 85.7076 40.5438 85.7674 40.5438H86.726V36.392H86.9674L85.9674 37.0748C85.9214 37.107 85.8777 37.1231 85.8363 37.1231C85.795 37.1185 85.7605 37.1024 85.7329 37.0748C85.7053 37.0472 85.6846 37.015 85.6708 36.9782C85.6616 36.9415 85.6639 36.9024 85.6777 36.861C85.6915 36.8196 85.7214 36.7851 85.7674 36.7576L86.7191 36.0955C86.7651 36.0679 86.8065 36.0472 86.8432 36.0334C86.88 36.0196 86.9214 36.0127 86.9674 36.0127C87.018 36.0127 87.0593 36.0288 87.0915 36.061C87.1283 36.0886 87.1467 36.1369 87.1467 36.2058V40.5438H88.0363C88.1007 40.5438 88.149 40.5599 88.1812 40.592C88.218 40.6196 88.2363 40.6633 88.2363 40.7231C88.2363 40.7874 88.218 40.8357 88.1812 40.8679C88.149 40.9001 88.1007 40.9162 88.0363 40.9162H85.7674Z" fill="black"/>
<path d="M82.8045 40.9714C82.4275 40.9714 82.108 40.8794 81.8459 40.6955C81.5838 40.5116 81.3838 40.2449 81.2459 39.8955C81.1126 39.5415 81.0459 39.1162 81.0459 38.6197C81.0459 38.1967 81.0873 37.822 81.17 37.4955C81.2574 37.1691 81.3838 36.8955 81.5493 36.6748C81.7149 36.4541 81.9149 36.2863 82.1493 36.1714C82.3884 36.0564 82.6574 35.999 82.9562 35.999C83.1723 35.999 83.3953 36.0449 83.6252 36.1369C83.8551 36.2243 84.0528 36.353 84.2183 36.5231C84.2551 36.5553 84.2781 36.5921 84.2873 36.6334C84.2965 36.6748 84.2942 36.7139 84.2804 36.7507C84.2666 36.7875 84.2459 36.8197 84.2183 36.8472C84.1907 36.8702 84.1562 36.8817 84.1149 36.8817C84.0735 36.8771 84.0321 36.8564 83.9907 36.8197C83.8344 36.6679 83.6666 36.5576 83.4873 36.4886C83.308 36.4197 83.1287 36.3852 82.9493 36.3852C82.6321 36.3852 82.3631 36.4656 82.1425 36.6265C81.9218 36.7829 81.7539 37.022 81.639 37.3438C81.5241 37.661 81.4666 38.0587 81.4666 38.5369V39.2334H81.4183C81.4413 38.9576 81.5172 38.7208 81.6459 38.5231C81.7746 38.3208 81.9425 38.1668 82.1493 38.061C82.3562 37.9507 82.5861 37.8955 82.839 37.8955C83.1287 37.8955 83.3838 37.9599 83.6045 38.0886C83.8298 38.2174 84.0045 38.3967 84.1287 38.6265C84.2574 38.8564 84.3218 39.1208 84.3218 39.4197C84.3218 39.7185 84.2574 39.9875 84.1287 40.2265C83.9999 40.461 83.8206 40.6449 83.5907 40.7783C83.3608 40.907 83.0988 40.9714 82.8045 40.9714ZM82.77 40.5921C82.9907 40.5921 83.1861 40.5438 83.3562 40.4472C83.5264 40.3507 83.6574 40.2151 83.7493 40.0403C83.8459 39.8656 83.8942 39.6633 83.8942 39.4334C83.8942 39.2036 83.8459 39.0036 83.7493 38.8334C83.6574 38.6587 83.5264 38.5231 83.3562 38.4265C83.1861 38.3254 82.9907 38.2748 82.77 38.2748C82.5493 38.2748 82.3539 38.3254 82.1838 38.4265C82.0137 38.5231 81.8804 38.6587 81.7838 38.8334C81.6919 39.0036 81.6459 39.2036 81.6459 39.4334C81.6459 39.6633 81.6919 39.8656 81.7838 40.0403C81.8804 40.2151 82.0137 40.3507 82.1838 40.4472C82.3539 40.5438 82.5493 40.5921 82.77 40.5921Z" fill="black"/>
<path d="M79.8616 41.5369C79.8202 41.5875 79.7788 41.615 79.7374 41.6196C79.696 41.6288 79.6593 41.6219 79.6271 41.599C79.5995 41.576 79.5834 41.5438 79.5788 41.5024C79.5788 41.461 79.5995 41.4127 79.6409 41.3576C79.7006 41.2748 79.7443 41.1875 79.7719 41.0955C79.7995 41.0035 79.8133 40.9185 79.8133 40.8403L79.8409 40.9369C79.7397 40.9369 79.657 40.907 79.5926 40.8472C79.5328 40.7875 79.5029 40.7116 79.5029 40.6196C79.5029 40.5277 79.5305 40.4518 79.5857 40.3921C79.6409 40.3323 79.7167 40.3024 79.8133 40.3024C79.9098 40.3024 79.9857 40.3369 80.0409 40.4058C80.1006 40.4702 80.1305 40.5691 80.1305 40.7024C80.1305 40.7852 80.1213 40.8748 80.1029 40.9714C80.0891 41.0725 80.0616 41.1714 80.0202 41.2679C79.9788 41.3645 79.9259 41.4541 79.8616 41.5369Z" fill="black"/>
<path d="M76.9951 40.9714C76.448 40.9714 76.0319 40.7599 75.7469 40.3369C75.4664 39.9093 75.3262 39.2932 75.3262 38.4886C75.3262 37.9415 75.3882 37.4841 75.5124 37.1162C75.6411 36.7484 75.8296 36.4703 76.0779 36.2818C76.3262 36.0932 76.6319 35.999 76.9951 35.999C77.5469 35.999 77.963 36.2082 78.2434 36.6266C78.5239 37.045 78.6641 37.6634 78.6641 38.4818C78.6641 39.0197 78.5997 39.4749 78.471 39.8473C78.3469 40.2197 78.1607 40.5001 77.9124 40.6886C77.6641 40.8772 77.3584 40.9714 76.9951 40.9714ZM76.9951 40.5921C77.4135 40.5921 77.7239 40.4197 77.9262 40.0749C78.1285 39.73 78.2296 39.199 78.2296 38.4818C78.2296 37.7553 78.1285 37.2243 77.9262 36.8886C77.7285 36.5484 77.4181 36.3783 76.9951 36.3783C76.5767 36.3783 76.2664 36.5484 76.0641 36.8886C75.8618 37.2289 75.7607 37.7599 75.7607 38.4818C75.7607 39.199 75.8618 39.73 76.0641 40.0749C76.2664 40.4197 76.5767 40.5921 76.9951 40.5921Z" fill="black"/>
<path d="M94.9551 50.8029C94.9275 50.8535 94.8953 50.8857 94.8586 50.8995C94.8218 50.9179 94.785 50.9225 94.7482 50.9133C94.7114 50.9041 94.6792 50.8857 94.6517 50.8581C94.6287 50.8305 94.6149 50.796 94.6103 50.7547C94.6057 50.7133 94.6172 50.6696 94.6448 50.6236L97.3551 45.8857C97.3827 45.8351 97.4149 45.8029 97.4517 45.7891C97.4884 45.7708 97.5252 45.7662 97.562 45.7753C97.5988 45.7845 97.6287 45.8052 97.6517 45.8374C97.6792 45.865 97.6953 45.8995 97.6999 45.9409C97.7045 45.9822 97.693 46.0259 97.6654 46.0719L94.9551 50.8029ZM94.5413 48.8236C94.1873 48.8236 93.9068 48.6949 93.6999 48.4374C93.4976 48.1753 93.3965 47.8075 93.3965 47.334C93.3965 47.0213 93.4425 46.7547 93.5344 46.534C93.6264 46.3133 93.7574 46.1455 93.9275 46.0305C94.1022 45.911 94.3068 45.8512 94.5413 45.8512C94.8953 45.8512 95.1758 45.9822 95.3827 46.2443C95.5896 46.5018 95.693 46.865 95.693 47.334C95.693 47.6512 95.6471 47.9202 95.5551 48.1409C95.4632 48.3616 95.3321 48.5317 95.162 48.6512C94.9919 48.7662 94.785 48.8236 94.5413 48.8236ZM94.5413 48.4995C94.7022 48.4995 94.8402 48.4558 94.9551 48.3685C95.07 48.2765 95.1574 48.1455 95.2172 47.9753C95.2769 47.8006 95.3068 47.5868 95.3068 47.334C95.3068 46.957 95.2379 46.6719 95.0999 46.4788C94.9666 46.2811 94.7804 46.1822 94.5413 46.1822C94.385 46.1822 94.2494 46.2259 94.1344 46.3133C94.0195 46.4006 93.9321 46.5294 93.8723 46.6995C93.8126 46.8696 93.7827 47.0811 93.7827 47.334C93.7827 47.7202 93.8494 48.0121 93.9827 48.2098C94.1206 48.4029 94.3068 48.4995 94.5413 48.4995ZM97.7689 50.8236C97.4149 50.8236 97.1344 50.6949 96.9275 50.4374C96.7252 50.1799 96.6241 49.8121 96.6241 49.334C96.6241 49.0213 96.67 48.7547 96.762 48.534C96.854 48.3133 96.985 48.1455 97.1551 48.0305C97.3298 47.911 97.5344 47.8512 97.7689 47.8512C98.1275 47.8512 98.408 47.9822 98.6103 48.2443C98.8172 48.5018 98.9206 48.865 98.9206 49.334C98.9206 49.6512 98.8746 49.9225 98.7827 50.1478C98.6907 50.3685 98.5597 50.5363 98.3896 50.6512C98.2195 50.7662 98.0126 50.8236 97.7689 50.8236ZM97.7689 50.4995C97.9298 50.4995 98.0677 50.4558 98.1827 50.3685C98.2976 50.2811 98.385 50.1501 98.4448 49.9753C98.5045 49.8006 98.5344 49.5868 98.5344 49.334C98.5344 48.957 98.4654 48.6719 98.3275 48.4788C98.1942 48.2811 98.008 48.1822 97.7689 48.1822C97.6126 48.1822 97.4769 48.2259 97.362 48.3133C97.2471 48.4006 97.1597 48.5294 97.0999 48.6995C97.0402 48.8696 97.0103 49.0811 97.0103 49.334C97.0103 49.7202 97.0769 50.0121 97.2103 50.2098C97.3482 50.4029 97.5344 50.4995 97.7689 50.4995Z" fill="#A6A6A6"/>
<path d="M91.744 50.8098C91.675 50.8098 91.6221 50.7914 91.5854 50.7546C91.5486 50.7178 91.5302 50.665 91.5302 50.596V49.6719H89.4267C89.3578 49.6719 89.3026 49.6558 89.2612 49.6236C89.2244 49.5868 89.2061 49.5362 89.2061 49.4719C89.2061 49.4351 89.213 49.3983 89.2267 49.3615C89.2451 49.3201 89.2727 49.2719 89.3095 49.2167L91.5095 46.0029C91.5417 45.9569 91.5762 45.9224 91.613 45.8994C91.6543 45.8765 91.7003 45.865 91.7509 45.865C91.8107 45.865 91.8589 45.8834 91.8957 45.9201C91.9371 45.9523 91.9578 46.0052 91.9578 46.0788V49.2994H92.5371C92.6061 49.2994 92.6566 49.3155 92.6888 49.3477C92.7256 49.3799 92.744 49.4259 92.744 49.4856C92.744 49.5454 92.7256 49.5914 92.6888 49.6236C92.6566 49.6558 92.6061 49.6719 92.5371 49.6719H91.9578V50.596C91.9578 50.665 91.9394 50.7178 91.9026 50.7546C91.8658 50.7914 91.813 50.8098 91.744 50.8098ZM91.5302 49.2994V46.3891H91.6819L89.6061 49.4167V49.2994H91.5302Z" fill="#A6A6A6"/>
<path d="M85.5809 50.7684C85.4982 50.7684 85.4361 50.75 85.3947 50.7133C85.3579 50.6719 85.3395 50.619 85.3395 50.5546C85.3395 50.5179 85.3487 50.4811 85.3671 50.4443C85.3855 50.4075 85.4108 50.373 85.443 50.3409L87.0568 48.596C87.305 48.3294 87.4844 48.0834 87.5947 47.8581C87.705 47.6282 87.7602 47.3937 87.7602 47.1546C87.7602 46.8558 87.6706 46.6282 87.4913 46.4719C87.3119 46.3156 87.0499 46.2374 86.705 46.2374C86.4752 46.2374 86.2614 46.2765 86.0637 46.3546C85.8706 46.4282 85.6844 46.5386 85.505 46.6857C85.4591 46.7225 85.4154 46.7409 85.374 46.7409C85.3372 46.7409 85.305 46.7294 85.2775 46.7064C85.2499 46.6788 85.2292 46.6466 85.2154 46.6098C85.2062 46.5684 85.2062 46.5271 85.2154 46.4857C85.2292 46.4443 85.2545 46.4075 85.2913 46.3753C85.4706 46.219 85.6867 46.0926 85.9395 45.996C86.1924 45.8995 86.4545 45.8512 86.7257 45.8512C87.0384 45.8512 87.3027 45.9018 87.5188 46.0029C87.7395 46.0995 87.9073 46.2443 88.0223 46.4374C88.1372 46.6305 88.1947 46.8627 88.1947 47.134C88.1947 47.3271 88.1625 47.5179 88.0982 47.7064C88.0338 47.8949 87.9372 48.0857 87.8085 48.2788C87.6844 48.4719 87.5234 48.6742 87.3257 48.8857L85.774 50.5271V50.396H88.2361C88.3005 50.396 88.3487 50.4121 88.3809 50.4443C88.4177 50.4719 88.4361 50.5156 88.4361 50.5753C88.4361 50.6397 88.4177 50.688 88.3809 50.7202C88.3487 50.7523 88.3005 50.7684 88.2361 50.7684H85.5809Z" fill="#A6A6A6"/>
<path d="M83.9968 51.3891C83.9554 51.4397 83.914 51.4673 83.8727 51.4719C83.8313 51.4811 83.7945 51.4742 83.7623 51.4512C83.7347 51.4282 83.7186 51.396 83.714 51.3546C83.714 51.3133 83.7347 51.265 83.7761 51.2098C83.8359 51.127 83.8796 51.0397 83.9071 50.9477C83.9347 50.8558 83.9485 50.7707 83.9485 50.6926L83.9761 50.7891C83.875 50.7891 83.7922 50.7592 83.7278 50.6995C83.6681 50.6397 83.6382 50.5638 83.6382 50.4719C83.6382 50.3799 83.6658 50.3041 83.7209 50.2443C83.7761 50.1845 83.852 50.1546 83.9485 50.1546C84.0451 50.1546 84.1209 50.1891 84.1761 50.2581C84.2359 50.3224 84.2658 50.4213 84.2658 50.5546C84.2658 50.6374 84.2566 50.727 84.2382 50.8236C84.2244 50.9247 84.1968 51.0236 84.1554 51.1201C84.114 51.2167 84.0612 51.3064 83.9968 51.3891Z" fill="#A6A6A6"/>
<path d="M79.9374 50.7684C79.8546 50.7684 79.7925 50.75 79.7511 50.7133C79.7144 50.6719 79.696 50.619 79.696 50.5546C79.696 50.5179 79.7052 50.4811 79.7236 50.4443C79.742 50.4075 79.7672 50.373 79.7994 50.3409L81.4132 48.596C81.6615 48.3294 81.8408 48.0834 81.9511 47.8581C82.0615 47.6282 82.1167 47.3937 82.1167 47.1546C82.1167 46.8558 82.027 46.6282 81.8477 46.4719C81.6684 46.3156 81.4063 46.2374 81.0615 46.2374C80.8316 46.2374 80.6178 46.2765 80.4201 46.3546C80.227 46.4282 80.0408 46.5386 79.8615 46.6857C79.8155 46.7225 79.7718 46.7409 79.7305 46.7409C79.6937 46.7409 79.6615 46.7294 79.6339 46.7064C79.6063 46.6788 79.5856 46.6466 79.5718 46.6098C79.5626 46.5684 79.5626 46.5271 79.5718 46.4857C79.5856 46.4443 79.6109 46.4075 79.6477 46.3753C79.827 46.219 80.0431 46.0926 80.296 45.996C80.5488 45.8995 80.8109 45.8512 81.0822 45.8512C81.3948 45.8512 81.6592 45.9018 81.8753 46.0029C82.096 46.0995 82.2638 46.2443 82.3787 46.4374C82.4937 46.6305 82.5511 46.8627 82.5511 47.134C82.5511 47.3271 82.519 47.5179 82.4546 47.7064C82.3902 47.8949 82.2937 48.0857 82.1649 48.2788C82.0408 48.4719 81.8799 48.6742 81.6822 48.8857L80.1305 50.5271V50.396H82.5925C82.6569 50.396 82.7052 50.4121 82.7374 50.4443C82.7741 50.4719 82.7925 50.5156 82.7925 50.5753C82.7925 50.6397 82.7741 50.688 82.7374 50.7202C82.7052 50.7523 82.6569 50.7684 82.5925 50.7684H79.9374Z" fill="#A6A6A6"/>
<path d="M75.4504 48.9616C75.3906 48.9616 75.3446 48.9478 75.3124 48.9202C75.2803 48.888 75.2642 48.8443 75.2642 48.7891C75.2642 48.734 75.2803 48.6926 75.3124 48.665C75.3446 48.6328 75.3906 48.6167 75.4504 48.6167H78.54C78.5998 48.6167 78.6458 48.6328 78.678 48.665C78.7101 48.6926 78.7262 48.734 78.7262 48.7891C78.7262 48.8489 78.7101 48.8926 78.678 48.9202C78.6458 48.9478 78.5998 48.9616 78.54 48.9616H75.4504Z" fill="#A6A6A6"/>
<path fill-rule="evenodd" clip-rule="evenodd" d="M138.966 29.5862H74.9263V29.0936H138.966V29.5862Z" fill="black"/>
<defs>
<filter id="filter0_d_2002_402" x="0" y="77" width="81.8916" height="108" filterUnits="userSpaceOnUse" color-interpolation-filters="sRGB">
<feFlood flood-opacity="0" result="BackgroundImageFix"/>
<feColorMatrix in="SourceAlpha" type="matrix" values="0 0 0 0 0 0 0 0 0 0 0 0 0 0 0 0 0 0 127 0" result="hardAlpha"/>
<feOffset dx="2" dy="2"/>
<feGaussianBlur stdDeviation="2"/>
<feComposite in2="hardAlpha" operator="out"/>
<feColorMatrix type="matrix" values="0 0 0 0 0 0 0 0 0 0 0 0 0 0 0 0 0 0 0.25 0"/>
<feBlend mode="normal" in2="BackgroundImageFix" result="effect1_dropShadow_2002_402"/>
<feBlend mode="normal" in="SourceGraphic" in2="effect1_dropShadow_2002_402" result="shape"/>
</filter>
<filter id="filter1_d_2002_402" x="68" y="0" width="81.8916" height="108" filterUnits="userSpaceOnUse" color-interpolation-filters="sRGB">
<feFlood flood-opacity="0" result="BackgroundImageFix"/>
<feColorMatrix in="SourceAlpha" type="matrix" values="0 0 0 0 0 0 0 0 0 0 0 0 0 0 0 0 0 0 127 0" result="hardAlpha"/>
<feOffset dx="2" dy="2"/>
<feGaussianBlur stdDeviation="2"/>
<feComposite in2="hardAlpha" operator="out"/>
<feColorMatrix type="matrix" values="0 0 0 0 0 0 0 0 0 0 0 0 0 0 0 0 0 0 0.25 0"/>
<feBlend mode="normal" in2="BackgroundImageFix" result="effect1_dropShadow_2002_402"/>
<feBlend mode="normal" in="SourceGraphic" in2="effect1_dropShadow_2002_402" result="shape"/>
</filter>
<linearGradient id="paint0_linear_2002_402" x1="77.6756" y1="12.4448" x2="92.9102" y2="29.9426" gradientUnits="userSpaceOnUse">
<stop stop-color="#1A1E21"/>
<stop offset="1" stop-color="#06060A"/>
</linearGradient>
<clipPath id="clip0_2002_402">
<rect x="6.92627" y="86.8818" width="14.7783" height="14.7783" rx="7.38916" fill="white"/>
</clipPath>
<clipPath id="clip1_2002_402">
<rect x="74.9263" y="9.88177" width="14.7783" height="14.7783" rx="7.38916" fill="white"/>
</clipPath>
</defs>
</svg>
