<svg width="51" height="50" viewBox="0 0 51 50" fill="none" xmlns="http://www.w3.org/2000/svg">
<g clip-path="url(#clip0_116_370)">
<path fill-rule="evenodd" clip-rule="evenodd" d="M7.12531 46.9549V41.9098C7.12531 41.7018 7.20795 41.5023 7.35504 41.3552C7.50213 41.2081 7.70162 41.1255 7.90964 41.1255H43.0915C43.2996 41.1255 43.4991 41.2081 43.6461 41.3552C43.7932 41.5023 43.8759 41.7018 43.8759 41.9098V46.9549H7.12531ZM45.1769 50.0911H5.82309C5.61507 50.0911 5.41557 50.0084 5.26848 49.8613C5.12139 49.7142 5.03876 49.5147 5.03876 49.3067C5.03876 49.0987 5.12139 48.8992 5.26848 48.7521C5.41557 48.605 5.61507 48.5224 5.82309 48.5224H45.1781C45.3861 48.5224 45.5856 48.605 45.7327 48.7521C45.8798 48.8992 45.9624 49.0987 45.9624 49.3067C45.9624 49.5147 45.8798 49.7142 45.7327 49.8613C45.5856 50.0084 45.385 50.0911 45.1769 50.0911ZM11.9616 39.5579V34.5128C11.9616 34.3048 12.0443 34.1053 12.1914 33.9582C12.3385 33.8112 12.538 33.7285 12.746 33.7285H38.2552C38.4632 33.7285 38.6627 33.8112 38.8098 33.9582C38.9569 34.1053 39.0395 34.3048 39.0395 34.5128V39.5579H11.9616Z" fill="#666666"/>
<path fill-rule="evenodd" clip-rule="evenodd" d="M12.2465 0.991893L19.5316 32.1599H23.3771L19.0079 10.9252L12.2454 0.991893H12.2465ZM20.8027 11.8618L24.9273 31.9084L31.7268 16.0684L20.8027 11.8618ZM33.3704 16.2148L26.5248 32.161H30.8537L38.622 13.7984L33.3704 16.2148ZM20.256 9.97134L32.7418 14.7777L38.0338 12.3428L13.5303 0.0910645L20.256 9.97134Z" fill="#666666"/>
</g>
<defs>
<clipPath id="clip0_116_370">
<rect width="50" height="50" fill="white" transform="translate(0.5)"/>
</clipPath>
</defs>
</svg>
