<svg width="760" height="701" viewBox="0 0 760 701" fill="none" xmlns="http://www.w3.org/2000/svg">
<path fill-rule="evenodd" clip-rule="evenodd" d="M527.096 0.518066C513.385 69.2253 452.739 121 380 121C307.261 121 246.615 69.2253 232.904 0.518071C184.175 20.9938 140.614 51.3353 104.72 89.0426C113.879 108.443 119 130.124 119 153C119 223.96 69.7264 283.412 3.52744 299.007C1.20161 316.006 0 333.363 0 351C0 368.069 1.12541 384.875 3.30609 401.349C81.3416 406.644 143 471.621 143 551C143 579.624 134.982 606.375 121.071 629.131C152.863 658.742 189.739 682.967 230.245 700.353C234.725 621.534 300.06 559 380 559C459.94 559 525.275 621.534 529.755 700.353C568.394 683.768 603.73 660.96 634.502 633.19C619.01 609.584 610 581.344 610 551C610 469.248 675.4 402.772 756.735 401.035C758.889 384.662 760 367.961 760 351C760 335.362 759.055 319.945 757.22 304.802C677.993 300.754 615 235.233 615 155C615 124.813 623.917 96.7092 639.261 73.1781C606.7 42.7795 568.79 18.0375 527.096 0.518066Z" fill="#E1DAF5"/>
</svg>
