<svg width="19" height="20" viewBox="0 0 19 20" fill="none" xmlns="http://www.w3.org/2000/svg">
<path fill-rule="evenodd" clip-rule="evenodd" d="M10.8547 9.97492L0.758747 0.0231323C0.341743 0.114801 0 0.470482 0 1.18541V18.7991C0 19.4724 0.268838 19.9459 0.765975 19.9931L10.8547 9.97492Z" fill="white"/>
<path fill-rule="evenodd" clip-rule="evenodd" d="M11.311 9.50134L14.0089 6.84254C14.0089 6.84254 2.28505 0.538921 1.58318 0.161561C1.3134 0.0164706 1.01926 -0.034164 0.758911 0.0229742L11.311 9.50134Z" fill="white"/>
<path fill-rule="evenodd" clip-rule="evenodd" d="M11.775 9.95847L14.8194 12.6524C14.8194 12.6524 18.2676 10.7923 18.4152 10.7126C18.913 10.4441 19.4345 9.75892 18.4152 9.21123C18.1563 9.07182 14.8353 7.28668 14.8353 7.28668L11.775 9.95847Z" fill="white"/>
<path fill-rule="evenodd" clip-rule="evenodd" d="M0.766113 19.9932C0.993942 20.0217 1.26796 19.9622 1.58315 19.7922C2.23569 19.4402 9.24337 15.66 14.0119 13.0877L11.3111 10.3729L0.766113 19.9932Z" fill="white"/>
</svg>
