<svg width="20" height="18" viewBox="0 0 20 18" fill="none" xmlns="http://www.w3.org/2000/svg">
<path d="M9.96392 1.62281L10.5205 0.642683C10.8641 0.0301051 11.6303 -0.176422 12.2316 0.173623C12.8328 0.523668 13.0356 1.30427 12.692 1.91685L7.32864 11.3751H11.2077C12.4652 11.3751 13.1696 12.8802 12.6233 13.9234H1.25064C0.556605 13.9234 0 13.3563 0 12.6492C0 11.9421 0.556605 11.3751 1.25064 11.3751H4.4391L8.52087 4.16763L7.24618 1.91335C6.90259 1.30077 7.10531 0.527169 7.70658 0.170123C8.30785 -0.179922 9.06717 0.0266044 9.41763 0.639183L9.96392 1.62281ZM5.14001 15.236L3.93747 17.3608C3.59388 17.9734 2.82769 18.1799 2.22642 17.8299C1.62515 17.4798 1.42244 16.6992 1.76602 16.0867L2.65934 14.5115C3.66947 14.1929 4.49064 14.4379 5.14001 15.236ZM15.4956 11.3821H18.7494C19.4434 11.3821 20 11.9491 20 12.6562C20 13.3633 19.4434 13.9304 18.7494 13.9304H16.9421L18.1618 16.0867C18.5054 16.6992 18.3027 17.4728 17.7014 17.8299C17.1002 18.1799 16.3408 17.9734 15.9904 17.3608C13.9357 13.7309 12.3931 11.0145 11.3692 9.20478C10.3212 7.36354 11.0703 5.51531 11.809 4.88872C12.6301 6.32391 13.8567 8.49068 15.4956 11.3821Z" fill="white"/>
</svg>
