<svg width="18" height="20" viewBox="0 0 18 20" fill="none" xmlns="http://www.w3.org/2000/svg">
<path fill-rule="evenodd" clip-rule="evenodd" d="M12.5122 0C12.6943 1.21478 12.1909 2.40487 11.5269 3.24686C10.8165 4.15001 9.59194 4.84854 8.4055 4.81208C8.18892 3.64905 8.74346 2.45073 9.4182 1.64519C10.1584 0.756151 11.4269 0.0740863 12.5122 0ZM16.0763 17.0987C16.688 16.1779 16.9165 15.7134 17.3913 14.6739C13.9379 13.3838 13.3845 8.56116 16.8022 6.71018C15.7598 5.42601 14.2949 4.68162 12.9121 4.68162C11.9157 4.68162 11.2331 4.93703 10.6125 5.16922C10.0953 5.36271 9.62118 5.54008 9.04457 5.54008C8.42145 5.54008 7.86965 5.34574 7.29187 5.14224C6.65697 4.91863 5.9907 4.68397 5.16394 4.68397C3.61216 4.68397 1.96043 5.61535 0.913219 7.20761C-0.558825 9.45019 -0.307733 13.6661 2.07943 17.2575C2.93267 18.5428 4.0727 19.9869 5.56378 19.9999C6.18249 20.0059 6.5942 19.8245 7.03973 19.6282C7.54968 19.4035 8.10394 19.1593 9.06361 19.1543C10.0289 19.1486 10.5744 19.3958 11.0776 19.6238C11.5117 19.8205 11.9143 20.0029 12.5277 19.9963C14.02 19.9846 15.2231 18.3841 16.0763 17.0987Z" fill="white"/>
</svg>
