<svg width="30" height="30" viewBox="0 0 30 30" fill="none" xmlns="http://www.w3.org/2000/svg">
<circle cx="15" cy="15" r="15" fill="white"/>
<path d="M10 9.16667C10 8.24619 10.7462 7.5 11.6667 7.5H18.3333C19.2538 7.5 20 8.24619 20 9.16667V20.8333C20 21.7538 19.2538 22.5 18.3333 22.5H11.6667C10.7462 22.5 10 21.7538 10 20.8333V9.16667ZM18.3333 9.16667H11.6667V20.8333H18.3333V9.16667Z" fill="url(#paint0_linear_141_2026)"/>
<path d="M15.8333 19.1667C15.8333 19.6269 15.4602 20 15 20C14.5398 20 14.1667 19.6269 14.1667 19.1667C14.1667 18.7064 14.5398 18.3333 15 18.3333C15.4602 18.3333 15.8333 18.7064 15.8333 19.1667Z" fill="url(#paint1_linear_141_2026)"/>
<defs>
<linearGradient id="paint0_linear_141_2026" x1="15" y1="7.5" x2="15" y2="16.6964" gradientUnits="userSpaceOnUse">
<stop stop-color="#72E175"/>
<stop offset="1" stop-color="#83E09E"/>
</linearGradient>
<linearGradient id="paint1_linear_141_2026" x1="15" y1="7.5" x2="15" y2="16.6964" gradientUnits="userSpaceOnUse">
<stop stop-color="#72E175"/>
<stop offset="1" stop-color="#83E09E"/>
</linearGradient>
</defs>
</svg>
