<svg width="30" height="30" viewBox="0 0 30 30" fill="none" xmlns="http://www.w3.org/2000/svg">
<circle cx="15" cy="15" r="15" fill="white"/>
<path d="M15 6.66667C11.3333 6.66667 8.33333 9.66667 8.33333 13.3333C8.33333 17.8333 14.1667 22.9167 14.4167 23.1667C14.5833 23.25 14.8333 23.3333 15 23.3333C15.1667 23.3333 15.4167 23.25 15.5833 23.1667C15.8333 22.9167 21.6667 17.8333 21.6667 13.3333C21.6667 9.66667 18.6667 6.66667 15 6.66667ZM15 21.4167C13.25 19.75 10 16.1667 10 13.3333C10 10.5833 12.25 8.33334 15 8.33334C17.75 8.33334 20 10.5833 20 13.3333C20 16.0833 16.75 19.75 15 21.4167ZM15 10C13.1667 10 11.6667 11.5 11.6667 13.3333C11.6667 15.1667 13.1667 16.6667 15 16.6667C16.8333 16.6667 18.3333 15.1667 18.3333 13.3333C18.3333 11.5 16.8333 10 15 10ZM15 15C14.0833 15 13.3333 14.25 13.3333 13.3333C13.3333 12.4167 14.0833 11.6667 15 11.6667C15.9167 11.6667 16.6667 12.4167 16.6667 13.3333C16.6667 14.25 15.9167 15 15 15Z" fill="url(#paint0_linear_141_2032)"/>
<defs>
<linearGradient id="paint0_linear_141_2032" x1="15" y1="6.66667" x2="15" y2="16.9636" gradientUnits="userSpaceOnUse">
<stop stop-color="#E5ADFF"/>
<stop offset="1" stop-color="#FCB8E1"/>
</linearGradient>
</defs>
</svg>
