<svg width="30" height="30" viewBox="0 0 30 30" fill="none" xmlns="http://www.w3.org/2000/svg">
<circle cx="15" cy="15" r="15" fill="white"/>
<g clip-path="url(#clip0_142_2039)">
<path d="M8.33334 16.6667V14.1667C8.33334 12.3986 9.03572 10.7029 10.286 9.45262C11.5362 8.20238 13.2319 7.5 15 7.5C16.7681 7.5 18.4638 8.20238 19.7141 9.45262C20.9643 10.7029 21.6667 12.3986 21.6667 14.1667V16.6667" stroke="url(#paint0_linear_142_2039)" stroke-width="1.5" stroke-linecap="round" stroke-linejoin="round"/>
<path d="M20 20.8333C20 22.2142 17.7617 23.3333 15 23.3333" stroke="url(#paint1_linear_142_2039)" stroke-width="1.5" stroke-linecap="round" stroke-linejoin="round"/>
<path d="M8.33334 16.6667C8.33334 16.2246 8.50894 15.8007 8.8215 15.4882C9.13406 15.1756 9.55798 15 10 15H10.8333C11.2754 15 11.6993 15.1756 12.0119 15.4882C12.3244 15.8007 12.5 16.2246 12.5 16.6667V19.1667C12.5 19.6087 12.3244 20.0326 12.0119 20.3452C11.6993 20.6577 11.2754 20.8333 10.8333 20.8333H10C9.55798 20.8333 9.13406 20.6577 8.8215 20.3452C8.50894 20.0326 8.33334 19.6087 8.33334 19.1667V16.6667Z" stroke="url(#paint2_linear_142_2039)" stroke-width="1.5" stroke-linecap="round" stroke-linejoin="round"/>
<path d="M17.5 16.6667C17.5 16.2246 17.6756 15.8007 17.9882 15.4882C18.3007 15.1756 18.7246 15 19.1667 15H20C20.442 15 20.8659 15.1756 21.1785 15.4882C21.4911 15.8007 21.6667 16.2246 21.6667 16.6667V19.1667C21.6667 19.6087 21.4911 20.0326 21.1785 20.3452C20.8659 20.6577 20.442 20.8333 20 20.8333H19.1667C18.7246 20.8333 18.3007 20.6577 17.9882 20.3452C17.6756 20.0326 17.5 19.6087 17.5 19.1667V16.6667Z" stroke="url(#paint3_linear_142_2039)" stroke-width="1.5" stroke-linecap="round" stroke-linejoin="round"/>
</g>
<defs>
<linearGradient id="paint0_linear_142_2039" x1="15" y1="7.5" x2="15" y2="16.6667" gradientUnits="userSpaceOnUse">
<stop stop-color="#75D1FF"/>
<stop offset="1" stop-color="#3BAAE1"/>
</linearGradient>
<linearGradient id="paint1_linear_142_2039" x1="17.5" y1="20.8333" x2="17.5" y2="23.3333" gradientUnits="userSpaceOnUse">
<stop stop-color="#75D1FF"/>
<stop offset="1" stop-color="#3BAAE1"/>
</linearGradient>
<linearGradient id="paint2_linear_142_2039" x1="10.4167" y1="15" x2="10.4167" y2="20.8333" gradientUnits="userSpaceOnUse">
<stop stop-color="#75D1FF"/>
<stop offset="1" stop-color="#3BAAE1"/>
</linearGradient>
<linearGradient id="paint3_linear_142_2039" x1="19.5833" y1="15" x2="19.5833" y2="20.8333" gradientUnits="userSpaceOnUse">
<stop stop-color="#75D1FF"/>
<stop offset="1" stop-color="#3BAAE1"/>
</linearGradient>
<clipPath id="clip0_142_2039">
<rect width="20" height="20" fill="white" transform="translate(5 5)"/>
</clipPath>
</defs>
</svg>
