<svg width="410" height="53" viewBox="0 0 410 53" fill="none" xmlns="http://www.w3.org/2000/svg">
<path d="M370.414 52.8526C369.523 52.8526 368.781 52.6321 368.187 52.191C367.593 51.701 367.246 51.0884 367.147 50.3533C367.098 49.6182 367.345 48.8831 367.89 48.1481L385.712 24.5518V27.1981L368.929 4.85156C368.335 4.01846 368.063 3.23437 368.113 2.49929C368.212 1.7642 368.533 1.17614 369.078 0.735084C369.672 0.245028 370.39 0 371.231 0C371.974 0 372.617 0.171519 373.162 0.514557C373.756 0.80859 374.325 1.37216 374.87 2.20525L389.721 22.2731H387.568L402.271 2.20525C402.816 1.37216 403.36 0.80859 403.905 0.514557C404.499 0.171519 405.192 0 405.984 0C406.875 0 407.593 0.245028 408.137 0.735084C408.731 1.17614 409.053 1.7642 409.103 2.49929C409.202 3.23437 408.929 4.01846 408.286 4.85156L391.504 27.1981V24.5518L409.251 48.1481C409.796 48.8831 410.043 49.6182 409.994 50.3533C409.944 51.0884 409.623 51.701 409.028 52.191C408.434 52.6321 407.667 52.8526 406.726 52.8526C406.083 52.8526 405.464 52.6811 404.87 52.338C404.276 51.995 403.682 51.4314 403.088 50.6473L387.271 29.2564H389.87L374.127 50.6473C373.533 51.4314 372.939 51.995 372.345 52.338C371.751 52.6811 371.108 52.8526 370.414 52.8526Z" fill="#292929"/>
<path d="M334.462 52.8524C333.324 52.8524 332.433 52.5339 331.789 51.8968C331.145 51.2598 330.824 50.3532 330.824 49.177V4.18983C330.824 3.01369 331.145 2.10709 331.789 1.47002C332.433 0.832941 333.348 0.514404 334.537 0.514404H361.195C362.185 0.514404 362.928 0.759432 363.423 1.24949C363.918 1.69054 364.165 2.35212 364.165 3.23422C364.165 4.16533 363.918 4.87591 363.423 5.36596C362.928 5.85602 362.185 6.10105 361.195 6.10105H337.73V23.4491H359.71C360.65 23.4491 361.368 23.6941 361.863 24.1841C362.358 24.6742 362.606 25.3358 362.606 26.1689C362.606 27.1 362.358 27.8106 361.863 28.3006C361.368 28.7907 360.65 29.0357 359.71 29.0357H337.73V49.177C337.73 51.6273 336.64 52.8524 334.462 52.8524Z" fill="#292929"/>
<path d="M306.301 52.8527C305.163 52.8527 304.296 52.5587 303.702 51.9706C303.108 51.3826 302.811 50.525 302.811 49.3978V19.4064C302.811 18.2793 303.108 17.4462 303.702 16.9071C304.296 16.319 305.113 16.025 306.153 16.025C307.192 16.025 307.984 16.319 308.529 16.9071C309.123 17.4462 309.42 18.2793 309.42 19.4064V25.0665H308.677C309.47 22.1262 310.955 19.8964 313.133 18.3773C315.311 16.8581 318.059 16.0005 321.375 15.8045C322.168 15.7555 322.811 15.9515 323.306 16.3925C323.801 16.7846 324.074 17.4707 324.123 18.4508C324.173 19.3819 323.95 20.1415 323.455 20.7295C322.96 21.2686 322.192 21.5871 321.153 21.6851L319.816 21.7587C316.549 22.1017 314.024 23.1553 312.242 24.9195C310.509 26.6837 309.643 29.1095 309.643 32.1969V49.3978C309.643 50.525 309.346 51.3826 308.752 51.9706C308.207 52.5587 307.39 52.8527 306.301 52.8527Z" fill="#292929"/>
<path d="M279.852 53.0002C275.941 53.0002 272.575 52.2651 269.753 50.7949C266.981 49.2758 264.827 47.144 263.293 44.3997C261.758 41.6064 260.991 38.323 260.991 34.5496C260.991 30.8251 261.733 27.5663 263.218 24.7729C264.753 21.9796 266.832 19.7989 269.456 18.2307C272.129 16.6625 275.174 15.8784 278.59 15.8784C281.015 15.8784 283.194 16.295 285.124 17.1281C287.105 17.9122 288.788 19.0638 290.174 20.583C291.56 22.1021 292.6 23.9643 293.293 26.1696C294.035 28.3259 294.407 30.7761 294.407 33.5205C294.407 34.3045 294.159 34.9171 293.664 35.3582C293.218 35.7502 292.55 35.9462 291.659 35.9462H266.263V31.6827H289.951L288.689 32.7119C288.689 30.1636 288.293 28.0073 287.501 26.2431C286.758 24.4299 285.644 23.0577 284.159 22.1266C282.723 21.1955 280.916 20.73 278.738 20.73C276.362 20.73 274.332 21.2935 272.649 22.4207C270.966 23.4988 269.679 25.0425 268.788 27.0517C267.897 29.0119 267.451 31.2907 267.451 33.888V34.329C267.451 38.7396 268.515 42.0719 270.644 44.3262C272.773 46.5805 275.842 47.7076 279.852 47.7076C281.436 47.7076 283.045 47.5116 284.679 47.1195C286.362 46.7275 287.971 46.0169 289.506 44.9878C290.248 44.5467 290.916 44.3507 291.511 44.3997C292.154 44.3997 292.674 44.5957 293.07 44.9878C293.466 45.3308 293.714 45.7719 293.813 46.3109C293.912 46.801 293.837 47.34 293.59 47.9281C293.342 48.5162 292.872 49.0307 292.179 49.4718C290.545 50.5989 288.59 51.481 286.312 52.1181C284.085 52.7062 281.931 53.0002 279.852 53.0002Z" fill="#292929"/>
<path d="M233.373 52.9996C230.205 52.9996 227.408 52.2645 224.982 50.7944C222.606 49.2752 220.749 47.1189 219.413 44.3256C218.076 41.4833 217.408 38.1754 217.408 34.402C217.408 30.5795 218.051 27.2962 219.339 24.5518C220.675 21.7585 222.532 19.6268 224.908 18.1566C227.334 16.6374 230.155 15.8778 233.373 15.8778C236.591 15.8778 239.363 16.6864 241.69 18.3036C244.017 19.8718 245.576 21.979 246.368 24.6253H245.551V3.38139C245.551 2.25426 245.824 1.42116 246.368 0.882099C246.962 0.294033 247.804 0 248.893 0C249.982 0 250.824 0.294033 251.418 0.882099C252.012 1.42116 252.309 2.25426 252.309 3.38139V49.3977C252.309 50.5248 252.012 51.3824 251.418 51.9705C250.824 52.5586 249.982 52.8526 248.893 52.8526C247.853 52.8526 247.037 52.5586 246.443 51.9705C245.849 51.3824 245.551 50.5248 245.551 49.3977V42.7084L246.368 44.0316C245.626 46.7759 244.066 48.9567 241.69 50.5738C239.363 52.191 236.591 52.9996 233.373 52.9996ZM234.933 47.707C237.111 47.707 238.992 47.1924 240.576 46.1633C242.21 45.1342 243.448 43.6395 244.289 41.6793C245.18 39.7191 245.626 37.2933 245.626 34.402C245.626 30.0895 244.66 26.8061 242.73 24.5518C240.799 22.2976 238.2 21.1704 234.933 21.1704C232.804 21.1704 230.923 21.685 229.289 22.7141C227.705 23.6942 226.467 25.1644 225.576 27.1246C224.685 29.0849 224.24 31.5106 224.24 34.402C224.24 38.7145 225.205 42.0224 227.136 44.3256C229.116 46.5799 231.715 47.707 234.933 47.707Z" fill="#292929"/>
<path d="M191.477 53.0002C189.002 53.0002 186.749 52.5101 184.719 51.53C182.739 50.5499 181.18 49.2268 180.041 47.5606C178.952 45.8944 178.407 44.0322 178.407 41.9739C178.407 39.3276 179.076 37.2449 180.412 35.7257C181.749 34.2065 184.002 33.1284 187.17 32.4913C190.338 31.8053 194.596 31.4622 199.942 31.4622H203.432V35.7257H200.091C196.279 35.7257 193.259 35.8972 191.031 36.2403C188.853 36.5833 187.318 37.1959 186.427 38.078C185.536 38.9111 185.091 40.0872 185.091 41.6064C185.091 43.5176 185.759 45.0858 187.096 46.3109C188.482 47.5361 190.363 48.1486 192.739 48.1486C194.62 48.1486 196.279 47.7076 197.714 46.8255C199.15 45.8944 200.289 44.6692 201.13 43.1501C201.972 41.5819 202.393 39.7932 202.393 37.7839V29.3305C202.393 26.4391 201.799 24.3564 200.611 23.0822C199.422 21.7591 197.417 21.0975 194.596 21.0975C192.962 21.0975 191.279 21.318 189.546 21.7591C187.813 22.2001 186.007 22.8862 184.125 23.8173C183.383 24.1604 182.739 24.2829 182.195 24.1849C181.65 24.0379 181.205 23.7438 180.858 23.3028C180.561 22.8127 180.388 22.2982 180.338 21.7591C180.338 21.171 180.462 20.6075 180.709 20.0684C181.006 19.5293 181.502 19.1373 182.195 18.8923C184.373 17.8141 186.526 17.0546 188.655 16.6135C190.833 16.1234 192.863 15.8784 194.744 15.8784C197.962 15.8784 200.611 16.393 202.69 17.4221C204.769 18.4022 206.328 19.9459 207.368 22.0531C208.408 24.1114 208.927 26.7577 208.927 29.992V49.3983C208.927 50.5254 208.655 51.383 208.111 51.9711C207.566 52.5592 206.774 52.8532 205.734 52.8532C204.744 52.8532 203.952 52.5592 203.358 51.9711C202.813 51.383 202.541 50.5254 202.541 49.3983V44.1792H203.21C202.813 45.9924 202.071 47.5606 200.982 48.8837C199.893 50.2069 198.531 51.236 196.898 51.9711C195.313 52.6572 193.507 53.0002 191.477 53.0002Z" fill="#292929"/>
<path d="M156.698 52.8527C155.56 52.8527 154.693 52.5587 154.099 51.9706C153.505 51.3826 153.208 50.525 153.208 49.3978V19.4064C153.208 18.2793 153.505 17.4462 154.099 16.9071C154.693 16.319 155.51 16.025 156.55 16.025C157.589 16.025 158.381 16.319 158.926 16.9071C159.52 17.4462 159.817 18.2793 159.817 19.4064V25.0665H159.074C159.866 22.1262 161.352 19.8964 163.53 18.3773C165.708 16.8581 168.456 16.0005 171.772 15.8045C172.565 15.7555 173.208 15.9515 173.703 16.3925C174.198 16.7846 174.47 17.4707 174.52 18.4508C174.569 19.3819 174.347 20.1415 173.852 20.7295C173.357 21.2686 172.589 21.5871 171.55 21.6851L170.213 21.7587C166.946 22.1017 164.421 23.1553 162.639 24.9195C160.906 26.6837 160.04 29.1095 160.04 32.1969V49.3978C160.04 50.525 159.743 51.3826 159.149 51.9706C158.604 52.5587 157.787 52.8527 156.698 52.8527Z" fill="#292929"/>
<path d="M130.985 52.8524C129.846 52.8524 128.98 52.5584 128.386 51.9703C127.792 51.3333 127.495 50.4512 127.495 49.324V6.32157H111.232C110.292 6.32157 109.549 6.07655 109.004 5.58649C108.46 5.04743 108.188 4.31234 108.188 3.38124C108.188 2.45013 108.46 1.73954 109.004 1.24949C109.549 0.759432 110.292 0.514404 111.232 0.514404H150.663C151.653 0.514404 152.396 0.759432 152.891 1.24949C153.435 1.73954 153.708 2.45013 153.708 3.38124C153.708 4.31234 153.435 5.04743 152.891 5.58649C152.396 6.07655 151.653 6.32157 150.663 6.32157H134.401V49.324C134.401 50.4512 134.104 51.3333 133.509 51.9703C132.965 52.5584 132.123 52.8524 130.985 52.8524Z" fill="#292929"/>
<path d="M87.6502 53.0002C84.0858 53.0002 80.9917 52.2406 78.368 50.7214C75.7442 49.2023 73.7145 47.046 72.2788 44.2527C70.8432 41.4594 70.1254 38.176 70.1254 34.4026C70.1254 31.5602 70.5214 29.0119 71.3135 26.7577C72.1551 24.4544 73.3432 22.4942 74.8779 20.877C76.4125 19.2598 78.2442 18.0347 80.3729 17.2016C82.5511 16.3195 84.9769 15.8784 87.6502 15.8784C91.2145 15.8784 94.3086 16.638 96.9324 18.1572C99.5561 19.6764 101.586 21.8326 103.021 24.6259C104.457 27.3702 105.175 30.6291 105.175 34.4026C105.175 37.2449 104.754 39.8177 103.913 42.1209C103.121 44.4242 101.957 46.3844 100.422 48.0016C98.8878 49.6188 97.0314 50.8685 94.8532 51.7506C92.7244 52.5837 90.3234 53.0002 87.6502 53.0002ZM87.6502 47.7076C89.8284 47.7076 91.7096 47.193 93.2937 46.1639C94.9274 45.1348 96.165 43.6401 97.0066 41.6799C97.8977 39.7197 98.3433 37.2939 98.3433 34.4026C98.3433 30.0901 97.3779 26.8067 95.4472 24.5524C93.5165 22.2982 90.9175 21.171 87.6502 21.171C85.5214 21.171 83.6403 21.6856 82.0066 22.7147C80.4224 23.6948 79.1848 25.165 78.2937 27.1252C77.4026 29.0854 76.9571 31.5112 76.9571 34.4026C76.9571 38.7151 77.9224 42.0229 79.8531 44.3262C81.8333 46.5805 84.4323 47.7076 87.6502 47.7076Z" fill="#292929"/>
<path d="M49.1551 52.8527C48.0165 52.8527 47.1501 52.5587 46.5561 51.9706C45.962 51.3826 45.665 50.525 45.665 49.3978V19.4064C45.665 18.2793 45.962 17.4462 46.5561 16.9071C47.1501 16.319 47.967 16.025 49.0066 16.025C50.0462 16.025 50.8383 16.319 51.3828 16.9071C51.9769 17.4462 52.2739 18.2793 52.2739 19.4064V25.0665H51.5313C52.3234 22.1262 53.8086 19.8964 55.9868 18.3773C58.165 16.8581 60.9125 16.0005 64.2294 15.8045C65.0215 15.7555 65.665 15.9515 66.1601 16.3925C66.6551 16.7846 66.9274 17.4707 66.9769 18.4508C67.0264 19.3819 66.8036 20.1415 66.3086 20.7295C65.8135 21.2686 65.0462 21.5871 64.0066 21.6851L62.67 21.7587C59.4026 22.1017 56.8779 23.1553 55.0957 24.9195C53.363 26.6837 52.4967 29.1095 52.4967 32.1969V49.3978C52.4967 50.525 52.1997 51.3826 51.6056 51.9706C51.061 52.5587 50.2442 52.8527 49.1551 52.8527Z" fill="#292929"/>
<path d="M3.41585 52.8524C2.32674 52.8524 1.48515 52.5584 0.891092 51.9703C0.297031 51.3333 0 50.4512 0 49.324V3.9693C0 2.84217 0.297031 1.98457 0.891092 1.39651C1.53466 0.808439 2.401 0.514404 3.49011 0.514404H21.1634C26.807 0.514404 31.1387 1.88656 34.1585 4.63088C37.2278 7.3752 38.7625 11.2221 38.7625 16.1717C38.7625 21.1703 37.2278 25.0417 34.1585 27.7861C31.1387 30.5304 26.807 31.9025 21.1634 31.9025H6.90596V49.324C6.90596 50.4512 6.60893 51.3333 6.01487 51.9703C5.47031 52.5584 4.60397 52.8524 3.41585 52.8524ZM6.90596 26.3894H20.2723C24.1337 26.3894 27.0298 25.5318 28.9605 23.8166C30.9407 22.0524 31.9308 19.5041 31.9308 16.1717C31.9308 12.8393 30.9407 10.34 28.9605 8.67385C27.0298 6.95865 24.1337 6.10105 20.2723 6.10105H6.90596V26.3894Z" fill="#292929"/>
</svg>
