<svg width="51" height="50" viewBox="0 0 51 50" fill="none" xmlns="http://www.w3.org/2000/svg">
<circle cx="32.8571" cy="17.8571" r="17.8571" fill="#83E09E"/>
<g clip-path="url(#clip0_43_17131)">
<path d="M18.9999 4H47.5699V32.57H18.9999V4Z" fill="#F8F9FD"/>
<path d="M36.4594 10.3489H47.5699V4H36.4594V10.3489ZM18.9999 32.57H47.5699V26.2211H18.9999V32.57ZM36.4594 21.4594H47.5699V15.1106H36.4594V21.4594Z" fill="#EF5350"/>
<path d="M18.9999 4H36.4594V21.4594H18.9999V4Z" fill="#1E88E9"/>
<path d="M22.841 5.93642C22.853 5.9131 22.8712 5.89354 22.8936 5.87989C22.916 5.86623 22.9418 5.85901 22.968 5.85901C22.9942 5.85901 23.0199 5.86623 23.0423 5.87989C23.0647 5.89354 23.0829 5.9131 23.095 5.93642L23.5235 7.06334C23.5394 7.12683 23.6029 7.15858 23.6505 7.15858L24.8568 7.22207C24.9838 7.22207 25.0314 7.38079 24.9361 7.47602L23.9838 8.22202C23.9631 8.24216 23.949 8.26811 23.9433 8.29645C23.9376 8.32479 23.9407 8.35418 23.9521 8.38074L24.2695 9.52354C24.2792 9.55252 24.2793 9.58384 24.2698 9.6129C24.2604 9.64195 24.2419 9.66721 24.217 9.68497C24.1922 9.70273 24.1623 9.71205 24.1317 9.71156C24.1012 9.71107 24.0716 9.7008 24.0473 9.68226L23.0473 9.0315C23.0239 9.0158 22.9962 9.00743 22.968 9.00743C22.9397 9.00743 22.9121 9.0158 22.8886 9.0315L21.8887 9.68226C21.8644 9.7008 21.8348 9.71107 21.8043 9.71156C21.7737 9.71205 21.7438 9.70273 21.719 9.68497C21.6941 9.66721 21.6756 9.64195 21.6661 9.6129C21.6567 9.58384 21.6568 9.55252 21.6665 9.52354L21.9839 8.36487C21.9935 8.33674 21.994 8.30634 21.9855 8.27789C21.9769 8.24945 21.9597 8.22437 21.9363 8.20614L20.9998 7.47602C20.9774 7.45805 20.9609 7.43373 20.9526 7.40624C20.9442 7.37876 20.9443 7.34938 20.9528 7.32196C20.9614 7.29453 20.9781 7.27033 21.0006 7.2525C21.0231 7.23468 21.0505 7.22408 21.0792 7.22207L22.2855 7.15858C22.3331 7.15858 22.3966 7.12683 22.4125 7.06334L22.841 5.95229V5.93642ZM22.841 10.6981C22.853 10.6748 22.8712 10.6552 22.8936 10.6416C22.916 10.6279 22.9418 10.6207 22.968 10.6207C22.9942 10.6207 23.0199 10.6279 23.0423 10.6416C23.0647 10.6552 23.0829 10.6748 23.095 10.6981L23.5235 11.825C23.5394 11.8885 23.6029 11.9202 23.6505 11.9202L24.8568 11.9837C24.9838 11.9837 25.0314 12.1425 24.9361 12.2377L23.9838 12.9837C23.9631 13.0038 23.949 13.0298 23.9433 13.0581C23.9376 13.0865 23.9407 13.1158 23.9521 13.1424L24.2695 14.2852C24.2792 14.3142 24.2793 14.3455 24.2698 14.3746C24.2604 14.4036 24.2419 14.4289 24.217 14.4466C24.1922 14.4644 24.1623 14.4737 24.1317 14.4732C24.1012 14.4727 24.0716 14.4625 24.0473 14.4439L23.0473 13.7932C23.0239 13.7775 22.9962 13.7691 22.968 13.7691C22.9397 13.7691 22.9121 13.7775 22.8886 13.7932L21.8887 14.4439C21.8644 14.4625 21.8348 14.4727 21.8043 14.4732C21.7737 14.4737 21.7438 14.4644 21.719 14.4466C21.6941 14.4289 21.6756 14.4036 21.6661 14.3746C21.6567 14.3455 21.6568 14.3142 21.6665 14.2852L21.9839 13.1265C21.9935 13.0984 21.994 13.068 21.9855 13.0396C21.9769 13.0111 21.9597 12.986 21.9363 12.9678L20.9998 12.2377C20.9774 12.2197 20.9609 12.1954 20.9526 12.1679C20.9442 12.1404 20.9443 12.1111 20.9528 12.0836C20.9614 12.0562 20.9781 12.032 21.0006 12.0142C21.0231 11.9964 21.0505 11.9857 21.0792 11.9837L22.2855 11.9202C22.3331 11.9202 22.3966 11.8885 22.4125 11.825L22.841 10.714V10.6981ZM22.841 15.4597C22.853 15.4364 22.8712 15.4169 22.8936 15.4032C22.916 15.3896 22.9418 15.3823 22.968 15.3823C22.9942 15.3823 23.0199 15.3896 23.0423 15.4032C23.0647 15.4169 23.0829 15.4364 23.095 15.4597L23.5235 16.5867C23.5394 16.6502 23.6029 16.6819 23.6505 16.6819L24.8568 16.7454C24.9838 16.7454 25.0314 16.9041 24.9361 16.9994L23.9838 17.7453C23.9631 17.7655 23.949 17.7914 23.9433 17.8198C23.9376 17.8481 23.9407 17.8775 23.9521 17.9041L24.2695 19.0469C24.2792 19.0759 24.2793 19.1072 24.2698 19.1362C24.2604 19.1653 24.2419 19.1905 24.217 19.2083C24.1922 19.2261 24.1623 19.2354 24.1317 19.2349C24.1012 19.2344 24.0716 19.2241 24.0473 19.2056L23.0473 18.5548C23.0239 18.5391 22.9962 18.5308 22.968 18.5308C22.9397 18.5308 22.9121 18.5391 22.8886 18.5548L21.8887 19.2056C21.8644 19.2241 21.8348 19.2344 21.8043 19.2349C21.7737 19.2354 21.7438 19.2261 21.719 19.2083C21.6941 19.1905 21.6756 19.1653 21.6661 19.1362C21.6567 19.1072 21.6568 19.0759 21.6665 19.0469L21.9839 17.8882C21.9935 17.8601 21.994 17.8297 21.9855 17.8012C21.9769 17.7728 21.9597 17.7477 21.9363 17.7295L20.9998 16.9994C20.9774 16.9814 20.9609 16.9571 20.9526 16.9296C20.9442 16.9021 20.9443 16.8727 20.9528 16.8453C20.9614 16.8179 20.9781 16.7937 21.0006 16.7758C21.0231 16.758 21.0505 16.7474 21.0792 16.7454L22.2855 16.6819C22.3331 16.6819 22.3966 16.6502 22.4125 16.5867L22.841 15.4756V15.4597ZM27.6027 5.93642C27.6147 5.9131 27.6329 5.89354 27.6553 5.87989C27.6777 5.86623 27.7034 5.85901 27.7297 5.85901C27.7559 5.85901 27.7816 5.86623 27.804 5.87989C27.8264 5.89354 27.8446 5.9131 27.8566 5.93642L28.2852 7.06334C28.3011 7.12683 28.3645 7.15858 28.4122 7.15858L29.6184 7.22207C29.7454 7.22207 29.793 7.38079 29.6978 7.47602L28.7455 8.22202C28.7248 8.24216 28.7106 8.26811 28.705 8.29645C28.6993 8.32479 28.7023 8.35418 28.7137 8.38074L29.0312 9.52354C29.0408 9.55252 29.041 9.58384 29.0315 9.6129C29.0221 9.64195 29.0036 9.66721 28.9787 9.68497C28.9538 9.70273 28.9239 9.71205 28.8934 9.71156C28.8628 9.71107 28.8332 9.7008 28.809 9.68226L27.809 9.0315C27.7855 9.0158 27.7579 9.00743 27.7297 9.00743C27.7014 9.00743 27.6738 9.0158 27.6503 9.0315L26.6503 9.68226C26.6261 9.7008 26.5965 9.71107 26.5659 9.71156C26.5354 9.71205 26.5055 9.70273 26.4806 9.68497C26.4558 9.66721 26.4372 9.64195 26.4278 9.6129C26.4183 9.58384 26.4185 9.55252 26.4281 9.52354L26.7456 8.36487C26.7551 8.33674 26.7557 8.30634 26.7471 8.27789C26.7386 8.24945 26.7214 8.22437 26.698 8.20614L25.7615 7.47602C25.7391 7.45805 25.7226 7.43373 25.7142 7.40624C25.7058 7.37876 25.7059 7.34938 25.7145 7.32196C25.7231 7.29453 25.7397 7.27033 25.7623 7.2525C25.7848 7.23468 25.8122 7.22408 25.8409 7.22207L27.0471 7.15858C27.0948 7.15858 27.1583 7.12683 27.1741 7.06334L27.6027 5.95229V5.93642ZM27.6027 10.6981C27.6147 10.6748 27.6329 10.6552 27.6553 10.6416C27.6777 10.6279 27.7034 10.6207 27.7297 10.6207C27.7559 10.6207 27.7816 10.6279 27.804 10.6416C27.8264 10.6552 27.8446 10.6748 27.8566 10.6981L28.2852 11.825C28.3011 11.8885 28.3645 11.9202 28.4122 11.9202L29.6184 11.9837C29.7454 11.9837 29.793 12.1425 29.6978 12.2377L28.7455 12.9837C28.7248 13.0038 28.7106 13.0298 28.705 13.0581C28.6993 13.0865 28.7023 13.1158 28.7137 13.1424L29.0312 14.2852C29.0408 14.3142 29.041 14.3455 29.0315 14.3746C29.0221 14.4036 29.0036 14.4289 28.9787 14.4466C28.9538 14.4644 28.9239 14.4737 28.8934 14.4732C28.8628 14.4727 28.8332 14.4625 28.809 14.4439L27.809 13.7932C27.7855 13.7775 27.7579 13.7691 27.7297 13.7691C27.7014 13.7691 27.6738 13.7775 27.6503 13.7932L26.6503 14.4439C26.6261 14.4625 26.5965 14.4727 26.5659 14.4732C26.5354 14.4737 26.5055 14.4644 26.4806 14.4466C26.4558 14.4289 26.4372 14.4036 26.4278 14.3746C26.4183 14.3455 26.4185 14.3142 26.4281 14.2852L26.7456 13.1265C26.7551 13.0984 26.7557 13.068 26.7471 13.0396C26.7386 13.0111 26.7214 12.986 26.698 12.9678L25.7615 12.2377C25.7391 12.2197 25.7226 12.1954 25.7142 12.1679C25.7058 12.1404 25.7059 12.1111 25.7145 12.0836C25.7231 12.0562 25.7397 12.032 25.7623 12.0142C25.7848 11.9964 25.8122 11.9857 25.8409 11.9837L27.0471 11.9202C27.0948 11.9202 27.1583 11.8885 27.1741 11.825L27.6027 10.714V10.6981ZM27.6027 15.4597C27.6147 15.4364 27.6329 15.4169 27.6553 15.4032C27.6777 15.3896 27.7034 15.3823 27.7297 15.3823C27.7559 15.3823 27.7816 15.3896 27.804 15.4032C27.8264 15.4169 27.8446 15.4364 27.8566 15.4597L28.2852 16.5867C28.3011 16.6502 28.3645 16.6819 28.4122 16.6819L29.6184 16.7454C29.7454 16.7454 29.793 16.9041 29.6978 16.9994L28.7455 17.7453C28.7248 17.7655 28.7106 17.7914 28.705 17.8198C28.6993 17.8481 28.7023 17.8775 28.7137 17.9041L29.0312 19.0469C29.0408 19.0759 29.041 19.1072 29.0315 19.1362C29.0221 19.1653 29.0036 19.1905 28.9787 19.2083C28.9538 19.2261 28.9239 19.2354 28.8934 19.2349C28.8628 19.2344 28.8332 19.2241 28.809 19.2056L27.809 18.5548C27.7855 18.5391 27.7579 18.5308 27.7297 18.5308C27.7014 18.5308 27.6738 18.5391 27.6503 18.5548L26.6503 19.2056C26.6261 19.2241 26.5965 19.2344 26.5659 19.2349C26.5354 19.2354 26.5055 19.2261 26.4806 19.2083C26.4558 19.1905 26.4372 19.1653 26.4278 19.1362C26.4183 19.1072 26.4185 19.0759 26.4281 19.0469L26.7456 17.8882C26.7551 17.8601 26.7557 17.8297 26.7471 17.8012C26.7386 17.7728 26.7214 17.7477 26.698 17.7295L25.7615 16.9994C25.7391 16.9814 25.7226 16.9571 25.7142 16.9296C25.7058 16.9021 25.7059 16.8727 25.7145 16.8453C25.7231 16.8179 25.7397 16.7937 25.7623 16.7758C25.7848 16.758 25.8122 16.7474 25.8409 16.7454L27.0471 16.6819C27.0948 16.6819 27.1583 16.6502 27.1741 16.5867L27.6027 15.4756V15.4597ZM32.3643 5.93642C32.3764 5.9131 32.3946 5.89354 32.417 5.87989C32.4394 5.86623 32.4651 5.85901 32.4913 5.85901C32.5176 5.85901 32.5433 5.86623 32.5657 5.87989C32.5881 5.89354 32.6063 5.9131 32.6183 5.93642L33.0469 7.06334C33.0627 7.12683 33.1262 7.15858 33.1738 7.15858L34.3801 7.22207C34.5071 7.22207 34.5547 7.38079 34.4595 7.47602L33.5071 8.22202C33.4864 8.24216 33.4723 8.26811 33.4666 8.29645C33.461 8.32479 33.464 8.35418 33.4754 8.38074L33.7928 9.52354C33.8025 9.55252 33.8026 9.58384 33.7932 9.6129C33.7837 9.64195 33.7652 9.66721 33.7404 9.68497C33.7155 9.70273 33.6856 9.71205 33.6551 9.71156C33.6245 9.71107 33.5949 9.7008 33.5706 9.68226L32.5707 9.0315C32.5472 9.0158 32.5196 9.00743 32.4913 9.00743C32.4631 9.00743 32.4355 9.0158 32.412 9.0315L31.412 9.68226C31.3877 9.7008 31.3581 9.71107 31.3276 9.71156C31.297 9.71205 31.2671 9.70273 31.2423 9.68497C31.2174 9.66721 31.1989 9.64195 31.1895 9.6129C31.18 9.58384 31.1801 9.55252 31.1898 9.52354L31.5072 8.36487C31.5168 8.33674 31.5173 8.30634 31.5088 8.27789C31.5003 8.24945 31.4831 8.22437 31.4596 8.20614L30.5232 7.47602C30.5007 7.45805 30.4843 7.43373 30.4759 7.40624C30.4675 7.37876 30.4676 7.34938 30.4762 7.32196C30.4847 7.29453 30.5014 7.27033 30.5239 7.2525C30.5465 7.23468 30.5739 7.22408 30.6025 7.22207L31.8088 7.15858C31.8564 7.15858 31.9199 7.12683 31.9358 7.06334L32.3643 5.95229V5.93642ZM32.3643 10.6981C32.3764 10.6748 32.3946 10.6552 32.417 10.6416C32.4394 10.6279 32.4651 10.6207 32.4913 10.6207C32.5176 10.6207 32.5433 10.6279 32.5657 10.6416C32.5881 10.6552 32.6063 10.6748 32.6183 10.6981L33.0469 11.825C33.0627 11.8885 33.1262 11.9202 33.1738 11.9202L34.3801 11.9837C34.5071 11.9837 34.5547 12.1425 34.4595 12.2377L33.5071 12.9837C33.4864 13.0038 33.4723 13.0298 33.4666 13.0581C33.461 13.0865 33.464 13.1158 33.4754 13.1424L33.7928 14.2852C33.8025 14.3142 33.8026 14.3455 33.7932 14.3746C33.7837 14.4036 33.7652 14.4289 33.7404 14.4466C33.7155 14.4644 33.6856 14.4737 33.6551 14.4732C33.6245 14.4727 33.5949 14.4625 33.5706 14.4439L32.5707 13.7932C32.5472 13.7775 32.5196 13.7691 32.4913 13.7691C32.4631 13.7691 32.4355 13.7775 32.412 13.7932L31.412 14.4439C31.3877 14.4625 31.3581 14.4727 31.3276 14.4732C31.297 14.4737 31.2671 14.4644 31.2423 14.4466C31.2174 14.4289 31.1989 14.4036 31.1895 14.3746C31.18 14.3455 31.1801 14.3142 31.1898 14.2852L31.5072 13.1265C31.5168 13.0984 31.5173 13.068 31.5088 13.0396C31.5003 13.0111 31.4831 12.986 31.4596 12.9678L30.5232 12.2377C30.5007 12.2197 30.4843 12.1954 30.4759 12.1679C30.4675 12.1404 30.4676 12.1111 30.4762 12.0836C30.4847 12.0562 30.5014 12.032 30.5239 12.0142C30.5465 11.9964 30.5739 11.9857 30.6025 11.9837L31.8088 11.9202C31.8564 11.9202 31.9199 11.8885 31.9358 11.825L32.3643 10.714V10.6981ZM32.3643 15.4597C32.3764 15.4364 32.3946 15.4169 32.417 15.4032C32.4394 15.3896 32.4651 15.3823 32.4913 15.3823C32.5176 15.3823 32.5433 15.3896 32.5657 15.4032C32.5881 15.4169 32.6063 15.4364 32.6183 15.4597L33.0469 16.5867C33.0627 16.6502 33.1262 16.6819 33.1738 16.6819L34.3801 16.7454C34.5071 16.7454 34.5547 16.9041 34.4595 16.9994L33.5071 17.7453C33.4864 17.7655 33.4723 17.7914 33.4666 17.8198C33.461 17.8481 33.464 17.8775 33.4754 17.9041L33.7928 19.0469C33.8025 19.0759 33.8026 19.1072 33.7932 19.1362C33.7837 19.1653 33.7652 19.1905 33.7404 19.2083C33.7155 19.2261 33.6856 19.2354 33.6551 19.2349C33.6245 19.2344 33.5949 19.2241 33.5706 19.2056L32.5707 18.5548C32.5472 18.5391 32.5196 18.5308 32.4913 18.5308C32.4631 18.5308 32.4355 18.5391 32.412 18.5548L31.412 19.2056C31.3877 19.2241 31.3581 19.2344 31.3276 19.2349C31.297 19.2354 31.2671 19.2261 31.2423 19.2083C31.2174 19.1905 31.1989 19.1653 31.1895 19.1362C31.18 19.1072 31.1801 19.0759 31.1898 19.0469L31.5072 17.8882C31.5168 17.8601 31.5173 17.8297 31.5088 17.8012C31.5003 17.7728 31.4831 17.7477 31.4596 17.7295L30.5232 16.9994C30.5007 16.9814 30.4843 16.9571 30.4759 16.9296C30.4675 16.9021 30.4676 16.8727 30.4762 16.8453C30.4847 16.8179 30.5014 16.7937 30.5239 16.7758C30.5465 16.758 30.5739 16.7474 30.6025 16.7454L31.8088 16.6819C31.8564 16.6819 31.9199 16.6502 31.9358 16.5867L32.3643 15.4756V15.4597Z" fill="#F8F9FD"/>
</g>
<circle cx="17.8571" cy="32.1428" r="17.8571" fill="#83E09E"/>
<g clip-path="url(#clip1_43_17131)">
<path d="M3.5715 17.8571H32.1429V46.4285H3.5715V17.8571Z" fill="white"/>
<path d="M14.6826 17.8571H5.1588L14.6826 26.5872V17.8571ZM21.0318 17.8571V27.3809L31.3493 17.8571H21.0318ZM32.1429 24.9999L27.381 28.9682H32.1429V24.9999ZM32.1429 35.3174H25.7937L32.1429 40.8729V35.3174ZM30.5556 46.4285L21.0318 37.6983V46.4285H30.5556ZM14.6826 46.4285V36.9047L4.36515 46.4285H14.6826ZM3.5715 39.2856L8.33341 35.3174H3.5715V39.2856ZM3.5715 28.9682H9.92071L3.5715 23.4126V28.9682Z" fill="#0D47A1"/>
<path d="M14.6826 28.9682L-6.74596 9.92053V13.5713L11.508 28.9682H14.6826ZM16.2699 30.5555V17.857H19.4445V30.5555H32.1429V33.7301H19.4445V46.4285H16.2699V33.7301H3.5715V30.5555H16.2699ZM-10.7142 54.365L11.508 35.3174H14.6826L-6.74596 54.365H-10.7142ZM21.0318 28.9682L40.0794 11.5078H43.5715L24.2064 28.9682H21.0318ZM24.2064 35.3174H21.0318L39.2858 51.1904V48.0158L24.2064 35.3174Z" fill="#EF5350"/>
</g>
<defs>
<clipPath id="clip0_43_17131">
<rect x="18.9999" y="4" width="28.57" height="28.57" rx="14.285" fill="white"/>
</clipPath>
<clipPath id="clip1_43_17131">
<rect x="3.5715" y="17.8571" width="28.5714" height="28.5714" rx="14.2857" fill="white"/>
</clipPath>
</defs>
</svg>
