<svg width="16" height="17" viewBox="0 0 16 17" fill="none" xmlns="http://www.w3.org/2000/svg">
<circle cx="8" cy="8.5" r="8" fill="white"/>
<path d="M8.33333 11.5V9.16667L6.66667 7.5L5 9.16667V11.5H6.66667M8.33333 11.5H6.66667M8.33333 11.5H11V5.83333C11 5.74493 10.9649 5.66014 10.9024 5.59763C10.8399 5.53512 10.7551 5.5 10.6667 5.5H7.33333C7.24493 5.5 7.16014 5.53512 7.09763 5.59763C7.03512 5.66014 7 5.74493 7 5.83333V7.83333M6.66667 11.5V10.1667" stroke="url(#paint0_linear_247_479)" stroke-width="0.5" stroke-linecap="round" stroke-linejoin="round"/>
<path d="M8.33337 6.8335V6.83683" stroke="url(#paint1_linear_247_479)" stroke-width="0.5" stroke-linecap="round" stroke-linejoin="round"/>
<path d="M9.66663 6.8335V6.83683" stroke="url(#paint2_linear_247_479)" stroke-width="0.5" stroke-linecap="round" stroke-linejoin="round"/>
<path d="M9.66663 8.1665V8.16984" stroke="url(#paint3_linear_247_479)" stroke-width="0.5" stroke-linecap="round" stroke-linejoin="round"/>
<path d="M9.66663 9.5V9.50333" stroke="url(#paint4_linear_247_479)" stroke-width="0.5" stroke-linecap="round" stroke-linejoin="round"/>
<defs>
<linearGradient id="paint0_linear_247_479" x1="8" y1="5.5" x2="8" y2="9.17857" gradientUnits="userSpaceOnUse">
<stop stop-color="#72E175"/>
<stop offset="1" stop-color="#83E09E"/>
</linearGradient>
<linearGradient id="paint1_linear_247_479" x1="8.83337" y1="6.8335" x2="8.83337" y2="6.83554" gradientUnits="userSpaceOnUse">
<stop stop-color="#72E175"/>
<stop offset="1" stop-color="#83E09E"/>
</linearGradient>
<linearGradient id="paint2_linear_247_479" x1="10.1666" y1="6.8335" x2="10.1666" y2="6.83554" gradientUnits="userSpaceOnUse">
<stop stop-color="#72E175"/>
<stop offset="1" stop-color="#83E09E"/>
</linearGradient>
<linearGradient id="paint3_linear_247_479" x1="10.1666" y1="8.1665" x2="10.1666" y2="8.16855" gradientUnits="userSpaceOnUse">
<stop stop-color="#72E175"/>
<stop offset="1" stop-color="#83E09E"/>
</linearGradient>
<linearGradient id="paint4_linear_247_479" x1="10.1666" y1="9.5" x2="10.1666" y2="9.50204" gradientUnits="userSpaceOnUse">
<stop stop-color="#72E175"/>
<stop offset="1" stop-color="#83E09E"/>
</linearGradient>
</defs>
</svg>
