<svg width="16" height="17" viewBox="0 0 16 17" fill="none" xmlns="http://www.w3.org/2000/svg">
<circle cx="8" cy="8.5" r="8" fill="white"/>
<path d="M7.00513 5.5154C7.06671 5.49487 7.13329 5.49487 7.19487 5.5154L8.9 6.08377L10.2103 5.64702C10.5988 5.51751 11 5.80669 11 6.21623V9.78377C11 10.042 10.8347 10.2713 10.5897 10.353L8.99487 10.8846C8.93329 10.9051 8.86671 10.9051 8.80513 10.8846L7.1 10.3162L5.78974 10.753C5.40122 10.8825 5 10.5933 5 10.1838V6.61623C5 6.35797 5.16526 6.12869 5.41026 6.04702L7.00513 5.5154ZM7.4 9.78377L8.6 10.1838V6.61623L7.4 6.21623V9.78377ZM6.8 6.21623L5.6 6.61623V10.1838L6.8 9.78377V6.21623ZM9.2 6.61623V10.1838L10.4 9.78377V6.21623L9.2 6.61623Z" fill="url(#paint0_linear_247_553)"/>
<defs>
<linearGradient id="paint0_linear_247_553" x1="7.35937" y1="5.5" x2="7.20559" y2="8.44228" gradientUnits="userSpaceOnUse">
<stop stop-color="#E26853"/>
<stop offset="1" stop-color="#FB8B6D"/>
</linearGradient>
</defs>
</svg>
