<svg width="201" height="26" viewBox="0 0 201 26" fill="none" xmlns="http://www.w3.org/2000/svg">
<path d="M181.311 25.9279C180.875 25.9279 180.511 25.8197 180.221 25.6033C179.93 25.3629 179.76 25.0624 179.712 24.7018C179.688 24.3412 179.809 23.9806 180.075 23.62L188.799 12.0444V13.3426L180.584 2.38003C180.293 1.97133 180.16 1.58668 180.184 1.22607C180.233 0.865464 180.39 0.576976 180.657 0.36061C180.948 0.120203 181.299 0 181.711 0C182.074 0 182.389 0.084142 182.656 0.252426C182.947 0.39667 183.225 0.673137 183.492 1.08183L190.762 10.9265H189.707L196.904 1.08183C197.171 0.673137 197.437 0.39667 197.704 0.252426C197.995 0.084142 198.334 0 198.722 0C199.158 0 199.509 0.120203 199.776 0.36061C200.067 0.576976 200.224 0.865464 200.248 1.22607C200.297 1.58668 200.163 1.97133 199.848 2.38003L191.634 13.3426V12.0444L200.321 23.62C200.588 23.9806 200.709 24.3412 200.684 24.7018C200.66 25.0624 200.503 25.3629 200.212 25.6033C199.921 25.8197 199.546 25.9279 199.085 25.9279C198.77 25.9279 198.467 25.8437 198.177 25.6754C197.886 25.5072 197.595 25.2307 197.304 24.846L189.562 14.3523H190.834L183.129 24.846C182.838 25.2307 182.547 25.5072 182.256 25.6754C181.965 25.8437 181.65 25.9279 181.311 25.9279Z" fill="#292929"/>
<path d="M163.713 25.9279C163.156 25.9279 162.72 25.7716 162.405 25.4591C162.09 25.1466 161.932 24.7018 161.932 24.1248V2.05549C161.932 1.47852 162.09 1.03376 162.405 0.721235C162.72 0.408706 163.168 0.252441 163.75 0.252441H176.798C177.283 0.252441 177.646 0.372645 177.889 0.613051C178.131 0.829417 178.252 1.15397 178.252 1.5867C178.252 2.04347 178.131 2.39206 177.889 2.63247C177.646 2.87288 177.283 2.99308 176.798 2.99308H165.312V11.5035H176.071C176.532 11.5035 176.883 11.6237 177.125 11.8641C177.368 12.1045 177.489 12.429 177.489 12.8377C177.489 13.2945 177.368 13.6431 177.125 13.8835C176.883 14.1239 176.532 14.2441 176.071 14.2441H165.312V24.1248C165.312 25.3269 164.779 25.9279 163.713 25.9279Z" fill="#292929"/>
<path d="M149.929 25.9279C149.372 25.9279 148.947 25.7836 148.657 25.4951C148.366 25.2066 148.221 24.7859 148.221 24.233V9.52011C148.221 8.96717 148.366 8.55848 148.657 8.29403C148.947 8.00554 149.347 7.8613 149.856 7.8613C150.365 7.8613 150.753 8.00554 151.019 8.29403C151.31 8.55848 151.455 8.96717 151.455 9.52011V12.2968H151.092C151.48 10.8544 152.207 9.76051 153.273 9.01525C154.339 8.26999 155.684 7.84928 157.307 7.75312C157.695 7.72908 158.01 7.82524 158.253 8.04161C158.495 8.23393 158.628 8.5705 158.652 9.05131C158.677 9.50809 158.568 9.88072 158.325 10.1692C158.083 10.4337 157.707 10.5899 157.198 10.638L156.544 10.6741C154.945 10.8423 153.709 11.3592 152.837 12.2247C151.989 13.0901 151.565 14.2802 151.565 15.7947V24.233C151.565 24.7859 151.419 25.2066 151.128 25.4951C150.862 25.7836 150.462 25.9279 149.929 25.9279Z" fill="#292929"/>
<path d="M136.982 25.9999C135.068 25.9999 133.42 25.6393 132.039 24.918C130.682 24.1728 129.628 23.127 128.877 21.7807C128.126 20.4104 127.75 18.7997 127.75 16.9486C127.75 15.1215 128.114 13.5228 128.841 12.1524C129.592 10.7821 130.61 9.71232 131.894 8.94301C133.202 8.17371 134.693 7.78906 136.365 7.78906C137.552 7.78906 138.618 7.99341 139.563 8.4021C140.532 8.78675 141.356 9.35171 142.035 10.097C142.713 10.8422 143.222 11.7558 143.561 12.8376C143.925 13.8954 144.107 15.0974 144.107 16.4437C144.107 16.8284 143.985 17.1289 143.743 17.3452C143.525 17.5376 143.198 17.6337 142.762 17.6337H130.331V15.5422H141.926L141.308 16.047C141.308 14.7969 141.114 13.7391 140.726 12.8737C140.363 11.9842 139.818 11.311 139.091 10.8542C138.388 10.3975 137.503 10.1691 136.437 10.1691C135.274 10.1691 134.281 10.4456 133.457 10.9985C132.633 11.5274 132.003 12.2847 131.567 13.2703C131.13 14.232 130.912 15.3499 130.912 16.624V16.8404C130.912 19.004 131.433 20.6388 132.475 21.7447C133.517 22.8505 135.02 23.4035 136.982 23.4035C137.758 23.4035 138.545 23.3073 139.345 23.115C140.169 22.9227 140.957 22.5741 141.708 22.0692C142.071 21.8529 142.398 21.7567 142.689 21.7807C143.004 21.7807 143.259 21.8769 143.452 22.0692C143.646 22.2375 143.767 22.4539 143.816 22.7183C143.864 22.9587 143.828 23.2232 143.707 23.5117C143.586 23.8002 143.355 24.0526 143.016 24.2689C142.217 24.8219 141.259 25.2546 140.145 25.5671C139.054 25.8556 138 25.9999 136.982 25.9999Z" fill="#292929"/>
<path d="M114.232 26C112.681 26 111.312 25.6394 110.125 24.9182C108.962 24.1729 108.053 23.1151 107.399 21.7448C106.744 20.3504 106.417 18.7277 106.417 16.8766C106.417 15.0014 106.732 13.3907 107.362 12.0444C108.016 10.6741 108.925 9.62829 110.088 8.90707C111.276 8.16181 112.657 7.78918 114.232 7.78918C115.807 7.78918 117.164 8.18585 118.303 8.97919C119.442 9.7485 120.205 10.7822 120.593 12.0804H120.193V1.65881C120.193 1.10587 120.326 0.697179 120.593 0.432731C120.884 0.144244 121.296 0 121.829 0C122.362 0 122.774 0.144244 123.064 0.432731C123.355 0.697179 123.501 1.10587 123.501 1.65881V24.233C123.501 24.7859 123.355 25.2066 123.064 25.4951C122.774 25.7836 122.362 25.9279 121.829 25.9279C121.32 25.9279 120.92 25.7836 120.629 25.4951C120.338 25.2066 120.193 24.7859 120.193 24.233V20.9515L120.593 21.6005C120.229 22.9468 119.466 24.0166 118.303 24.81C117.164 25.6033 115.807 26 114.232 26ZM114.995 23.4036C116.061 23.4036 116.982 23.1512 117.758 22.6463C118.557 22.1415 119.163 21.4082 119.575 20.4466C120.011 19.485 120.229 18.295 120.229 16.8766C120.229 14.761 119.757 13.1503 118.812 12.0444C117.867 10.9385 116.595 10.3856 114.995 10.3856C113.953 10.3856 113.032 10.638 112.233 11.1429C111.457 11.6237 110.852 12.3449 110.415 13.3065C109.979 14.2681 109.761 15.4582 109.761 16.8766C109.761 18.9921 110.234 20.6149 111.179 21.7448C112.148 22.8507 113.42 23.4036 114.995 23.4036Z" fill="#292929"/>
<path d="M93.7244 25.9999C92.5128 25.9999 91.4102 25.7595 90.4167 25.2787C89.4475 24.7978 88.6842 24.1487 88.1268 23.3314C87.5937 22.514 87.3272 21.6004 87.3272 20.5907C87.3272 19.2925 87.6543 18.2708 88.3086 17.5255C88.9628 16.7803 90.0654 16.2514 91.6162 15.9389C93.1671 15.6023 95.251 15.434 97.868 15.434H99.5764V17.5255H97.9407C96.0749 17.5255 94.5967 17.6097 93.5063 17.778C92.4401 17.9462 91.6889 18.2468 91.2527 18.6795C90.8166 19.0882 90.5985 19.6652 90.5985 20.4104C90.5985 21.348 90.9256 22.1173 91.5799 22.7183C92.2584 23.3193 93.1792 23.6198 94.3423 23.6198C95.2631 23.6198 96.0749 23.4035 96.7776 22.9708C97.4803 22.514 98.0377 21.913 98.4496 21.1677C98.8615 20.3984 99.0675 19.5209 99.0675 18.5352V14.3882C99.0675 12.9698 98.7767 11.9481 98.1952 11.323C97.6136 10.6739 96.6322 10.3494 95.251 10.3494C94.4513 10.3494 93.6275 10.4576 92.7793 10.6739C91.9312 10.8903 91.0468 11.2269 90.126 11.6837C89.7625 11.8519 89.4475 11.912 89.1809 11.864C88.9144 11.7918 88.6963 11.6476 88.5267 11.4312C88.3813 11.1908 88.2965 10.9384 88.2722 10.6739C88.2722 10.3855 88.3328 10.109 88.454 9.84454C88.5993 9.58009 88.8417 9.38777 89.1809 9.26756C90.2471 8.73867 91.3012 8.36604 92.3432 8.14967C93.4094 7.90927 94.4029 7.78906 95.3237 7.78906C96.8988 7.78906 98.1952 8.04149 99.2129 8.54634C100.231 9.02716 100.994 9.78444 101.503 10.8182C102.012 11.8279 102.266 13.1261 102.266 14.7128V24.2329C102.266 24.7858 102.133 25.2065 101.866 25.495C101.6 25.7835 101.212 25.9278 100.703 25.9278C100.219 25.9278 99.8308 25.7835 99.54 25.495C99.2735 25.2065 99.1402 24.7858 99.1402 24.2329V21.6726H99.4673C99.2735 22.5621 98.91 23.3314 98.3769 23.9805C97.8438 24.6296 97.1774 25.1344 96.3778 25.495C95.6023 25.8316 94.7179 25.9999 93.7244 25.9999Z" fill="#292929"/>
<path d="M76.7009 25.9279C76.1436 25.9279 75.7195 25.7836 75.4287 25.4951C75.1379 25.2066 74.9926 24.7859 74.9926 24.233V9.52011C74.9926 8.96717 75.1379 8.55848 75.4287 8.29403C75.7195 8.00554 76.1193 7.8613 76.6282 7.8613C77.1371 7.8613 77.5248 8.00554 77.7913 8.29403C78.0821 8.55848 78.2275 8.96717 78.2275 9.52011V12.2968H77.864C78.2517 10.8544 78.9787 9.76051 80.0449 9.01525C81.1111 8.26999 82.456 7.84928 84.0795 7.75312C84.4672 7.72908 84.7822 7.82524 85.0245 8.04161C85.2669 8.23393 85.4001 8.5705 85.4244 9.05131C85.4486 9.50809 85.3396 9.88072 85.0972 10.1692C84.8549 10.4337 84.4793 10.5899 83.9705 10.638L83.3162 10.6741C81.7169 10.8423 80.4811 11.3592 79.6087 12.2247C78.7606 13.0901 78.3365 14.2802 78.3365 15.7947V24.233C78.3365 24.7859 78.1912 25.2066 77.9004 25.4951C77.6338 25.7836 77.234 25.9279 76.7009 25.9279Z" fill="#292929"/>
<path d="M64.1146 25.9279C63.5573 25.9279 63.1332 25.7836 62.8425 25.4951C62.5517 25.1826 62.4063 24.7499 62.4063 24.197V3.10126H54.4461C53.9857 3.10126 53.6222 2.98106 53.3557 2.74065C53.0891 2.4762 52.9559 2.11559 52.9559 1.65882C52.9559 1.20205 53.0891 0.853458 53.3557 0.613051C53.6222 0.372645 53.9857 0.252441 54.4461 0.252441H73.7468C74.2314 0.252441 74.5949 0.372645 74.8372 0.613051C75.1038 0.853458 75.237 1.20205 75.237 1.65882C75.237 2.11559 75.1038 2.4762 74.8372 2.74065C74.5949 2.98106 74.2314 3.10126 73.7468 3.10126H65.7866V24.197C65.7866 24.7499 65.6412 25.1826 65.3505 25.4951C65.0839 25.7836 64.672 25.9279 64.1146 25.9279Z" fill="#292929"/>
<path d="M42.9031 25.9999C41.1585 25.9999 39.644 25.6272 38.3597 24.882C37.0754 24.1367 36.0819 23.0789 35.3792 21.7086C34.6764 20.3383 34.3251 18.7276 34.3251 16.8764C34.3251 15.4821 34.5189 14.232 34.9066 13.1261C35.3186 11.9962 35.9001 11.0346 36.6513 10.2412C37.4025 9.44787 38.2991 8.84685 39.3411 8.43816C40.4073 8.00543 41.5946 7.78906 42.9031 7.78906C44.6478 7.78906 46.1623 8.16169 47.4466 8.90695C48.7309 9.65221 49.7244 10.71 50.4271 12.0803C51.1299 13.4266 51.4812 15.0253 51.4812 16.8764C51.4812 18.2708 51.2752 19.5329 50.8633 20.6628C50.4756 21.7928 49.9061 22.7544 49.155 23.5477C48.4038 24.3411 47.4951 24.9541 46.4289 25.3868C45.3869 25.7955 44.2117 25.9999 42.9031 25.9999ZM42.9031 23.4035C43.9693 23.4035 44.8902 23.1511 45.6656 22.6462C46.4652 22.1413 47.071 21.4081 47.483 20.4465C47.9191 19.4849 48.1372 18.2948 48.1372 16.8764C48.1372 14.7609 47.6647 13.1501 46.7197 12.0443C45.7746 10.9384 44.5024 10.3855 42.9031 10.3855C41.8612 10.3855 40.9404 10.6379 40.1407 11.1427C39.3653 11.6235 38.7595 12.3448 38.3233 13.3064C37.8872 14.268 37.6691 15.458 37.6691 16.8764C37.6691 18.992 38.1416 20.6148 39.0866 21.7447C40.0559 22.8505 41.3281 23.4035 42.9031 23.4035Z" fill="#292929"/>
<path d="M24.0605 25.9279C23.5032 25.9279 23.0791 25.7836 22.7883 25.4951C22.4976 25.2066 22.3522 24.7859 22.3522 24.233V9.52011C22.3522 8.96717 22.4976 8.55848 22.7883 8.29403C23.0791 8.00554 23.479 7.8613 23.9878 7.8613C24.4967 7.8613 24.8844 8.00554 25.1509 8.29403C25.4417 8.55848 25.5871 8.96717 25.5871 9.52011V12.2968H25.2236C25.6114 10.8544 26.3383 9.76051 27.4045 9.01525C28.4707 8.26999 29.8156 7.84928 31.4391 7.75312C31.8268 7.72908 32.1418 7.82524 32.3842 8.04161C32.6265 8.23393 32.7597 8.5705 32.784 9.05131C32.8082 9.50809 32.6992 9.88072 32.4568 10.1692C32.2145 10.4337 31.8389 10.5899 31.3301 10.638L30.6758 10.6741C29.0765 10.8423 27.8407 11.3592 26.9683 12.2247C26.1202 13.0901 25.6962 14.2802 25.6962 15.7947V24.233C25.6962 24.7859 25.5508 25.2066 25.26 25.4951C24.9934 25.7836 24.5936 25.9279 24.0605 25.9279Z" fill="#292929"/>
<path d="M1.672 25.9279C1.1389 25.9279 0.726955 25.7836 0.436173 25.4951C0.145391 25.1826 0 24.7499 0 24.197V1.94731C0 1.39437 0.145391 0.973662 0.436173 0.685174C0.751187 0.396686 1.17524 0.252441 1.70834 0.252441H10.3591C13.1215 0.252441 15.2418 0.92558 16.72 2.27186C18.2223 3.61814 18.9735 5.50533 18.9735 7.93344C18.9735 10.3856 18.2223 12.2848 16.72 13.6311C15.2418 14.9774 13.1215 15.6505 10.3591 15.6505H3.38034V24.197C3.38034 24.7499 3.23495 25.1826 2.94417 25.4951C2.67762 25.7836 2.25356 25.9279 1.672 25.9279ZM3.38034 12.9459H9.92294C11.813 12.9459 13.2306 12.5252 14.1756 11.6838C15.1449 10.8183 15.6295 9.5682 15.6295 7.93344C15.6295 6.29867 15.1449 5.0726 14.1756 4.25521C13.2306 3.41379 11.813 2.99308 9.92294 2.99308H3.38034V12.9459Z" fill="#292929"/>
</svg>
