<svg width="16" height="17" viewBox="0 0 16 17" fill="none" xmlns="http://www.w3.org/2000/svg">
<circle cx="8" cy="8.5" r="8" fill="white"/>
<path d="M6.89474 5.5C7.06914 5.5 7.21053 5.64138 7.21053 5.81579V6.13158H8.47368V5.81579C8.47368 5.64138 8.61507 5.5 8.78947 5.5C8.96388 5.5 9.10526 5.64138 9.10526 5.81579V6.13158H10.0526C10.4014 6.13158 10.6842 6.41435 10.6842 6.76316V10.8684C10.6842 11.2172 10.4014 11.5 10.0526 11.5H5.63158C5.28277 11.5 5 11.2172 5 10.8684V6.76316C5 6.41435 5.28277 6.13158 5.63158 6.13158H6.57895V5.81579C6.57895 5.64138 6.72033 5.5 6.89474 5.5ZM6.57895 6.76316H5.63158V7.71053H10.0526V6.76316H9.10526V7.07895C9.10526 7.25335 8.96388 7.39474 8.78947 7.39474C8.61507 7.39474 8.47368 7.25335 8.47368 7.07895V6.76316H7.21053V7.07895C7.21053 7.25335 7.06914 7.39474 6.89474 7.39474C6.72033 7.39474 6.57895 7.25335 6.57895 7.07895V6.76316ZM10.0526 8.34211H5.63158V10.8684H10.0526V8.34211Z" fill="url(#paint0_linear_247_559)"/>
<defs>
<linearGradient id="paint0_linear_247_559" x1="7.84211" y1="5.5" x2="7.84211" y2="11.5" gradientUnits="userSpaceOnUse">
<stop stop-color="#75D1FF"/>
<stop offset="1" stop-color="#3BAAE1"/>
</linearGradient>
</defs>
</svg>
