<svg width="16" height="16" viewBox="0 0 16 16" fill="none" xmlns="http://www.w3.org/2000/svg">
<circle cx="8" cy="8" r="8" fill="white"/>
<path d="M6.62305 7.59682C6.62305 7.85508 6.72564 8.10277 6.90826 8.28538C7.09088 8.468 7.33856 8.57059 7.59682 8.57059C7.85508 8.57059 8.10277 8.468 8.28538 8.28538C8.468 8.10277 8.5706 7.85508 8.5706 7.59682C8.5706 7.33856 8.468 7.09088 8.28538 6.90826C8.10277 6.72564 7.85508 6.62305 7.59682 6.62305C7.33856 6.62305 7.09088 6.72564 6.90826 6.90826C6.72564 7.09088 6.62305 7.33856 6.62305 7.59682Z" stroke="url(#paint0_linear_247_415)" stroke-width="0.5" stroke-linecap="round" stroke-linejoin="round"/>
<path d="M9.43295 9.43285L8.0557 10.8101C7.93398 10.9317 7.76895 11 7.59689 11C7.42483 11 7.25981 10.9317 7.13808 10.8101L5.76052 9.43285C5.39737 9.06968 5.15007 8.60699 5.04989 8.10328C4.9497 7.59957 5.00113 7.07746 5.19768 6.60297C5.39422 6.12849 5.72705 5.72295 6.15408 5.43762C6.58111 5.15229 7.08315 5 7.59673 5C8.11031 5 8.61236 5.15229 9.03938 5.43762C9.46641 5.72295 9.79924 6.12849 9.99579 6.60297C10.1923 7.07746 10.2438 7.59957 10.1436 8.10328C10.0434 8.60699 9.79609 9.06968 9.43295 9.43285Z" stroke="url(#paint1_linear_247_415)" stroke-width="0.5" stroke-linecap="round" stroke-linejoin="round"/>
<defs>
<linearGradient id="paint0_linear_247_415" x1="7.59682" y1="6.62305" x2="7.59682" y2="8.57059" gradientUnits="userSpaceOnUse">
<stop stop-color="#75D1FF"/>
<stop offset="1" stop-color="#3BAAE1"/>
</linearGradient>
<linearGradient id="paint1_linear_247_415" x1="7.59673" y1="5" x2="7.59673" y2="11" gradientUnits="userSpaceOnUse">
<stop stop-color="#75D1FF"/>
<stop offset="1" stop-color="#3BAAE1"/>
</linearGradient>
</defs>
</svg>
