<svg width="16" height="17" viewBox="0 0 16 17" fill="none" xmlns="http://www.w3.org/2000/svg">
<circle cx="8" cy="8.5" r="8" fill="white"/>
<path d="M5 6.1C5 5.76863 5.26863 5.5 5.6 5.5H10.4C10.7314 5.5 11 5.76863 11 6.1V10C11 10.3314 10.7314 10.6 10.4 10.6H5.6C5.26863 10.6 5 10.3314 5 10V6.1ZM7.7 6.1H5.6V7H7.7V6.1ZM8.3 6.1V7H10.4V6.1H8.3ZM10.4 7.6H8.3V8.5H10.4V7.6ZM10.4 9.1H8.3V10H10.4V9.1ZM7.7 10V9.1H5.6V10H7.7ZM5.6 8.5H7.7V7.6H5.6V8.5Z" fill="url(#paint0_linear_247_490)"/>
<defs>
<linearGradient id="paint0_linear_247_490" x1="8" y1="5.5" x2="8" y2="10.6" gradientUnits="userSpaceOnUse">
<stop stop-color="#75D1FF"/>
<stop offset="1" stop-color="#3BAAE1"/>
</linearGradient>
</defs>
</svg>
