<svg width="30" height="30" viewBox="0 0 30 30" fill="none" xmlns="http://www.w3.org/2000/svg">
<circle cx="15" cy="15" r="15" fill="white"/>
<path d="M9.16675 20.8321C9.16675 21.0531 9.25454 21.265 9.41082 21.4213C9.5671 21.5776 9.77907 21.6654 10.0001 21.6654H20.0001C20.2211 21.6654 20.4331 21.5776 20.5893 21.4213C20.7456 21.265 20.8334 21.0531 20.8334 20.8321C20.8334 20.6571 20.7751 20.4904 20.6834 20.3571L15.8334 11.9571V8.33207H14.1667V11.9571L9.31675 20.3571C9.22508 20.4904 9.16675 20.6571 9.16675 20.8321ZM10.0001 23.3321C9.33704 23.3321 8.70115 23.0687 8.23231 22.5998C7.76347 22.131 7.50008 21.4951 7.50008 20.8321C7.50008 20.3321 7.65008 19.8654 7.91675 19.4737L12.5001 11.5071V9.99874C12.2791 9.99874 12.0671 9.91094 11.9108 9.75466C11.7545 9.59838 11.6667 9.38642 11.6667 9.16541V8.33207C11.6667 7.89004 11.8423 7.46612 12.1549 7.15356C12.4675 6.841 12.8914 6.66541 13.3334 6.66541H16.6667C17.1088 6.66541 17.5327 6.841 17.8453 7.15356C18.1578 7.46612 18.3334 7.89004 18.3334 8.33207V9.16541C18.3334 9.38642 18.2456 9.59838 18.0893 9.75466C17.9331 9.91094 17.7211 9.99874 17.5001 9.99874V11.5071L22.0834 19.4737C22.3501 19.8654 22.5001 20.3321 22.5001 20.8321C22.5001 21.4951 22.2367 22.131 21.7678 22.5998C21.299 23.0687 20.6631 23.3321 20.0001 23.3321H10.0001ZM15.8334 18.3321L16.9501 17.2154L18.5584 19.9987H11.4417L13.6584 16.1571L15.8334 18.3321ZM15.4167 14.9987C15.5273 14.9987 15.6332 15.0426 15.7114 15.1208C15.7895 15.1989 15.8334 15.3049 15.8334 15.4154C15.8334 15.5259 15.7895 15.6319 15.7114 15.71C15.6332 15.7882 15.5273 15.8321 15.4167 15.8321C15.3062 15.8321 15.2003 15.7882 15.1221 15.71C15.044 15.6319 15.0001 15.5259 15.0001 15.4154C15.0001 15.3049 15.044 15.1989 15.1221 15.1208C15.2003 15.0426 15.3062 14.9987 15.4167 14.9987Z" fill="url(#paint0_linear_206_1168)"/>
<defs>
<linearGradient id="paint0_linear_206_1168" x1="15.0001" y1="6.66541" x2="15.0001" y2="16.9623" gradientUnits="userSpaceOnUse">
<stop stop-color="#E5ADFF"/>
<stop offset="1" stop-color="#FCB8E1"/>
</linearGradient>
</defs>
</svg>
