<svg width="31" height="30" viewBox="0 0 31 30" fill="none" xmlns="http://www.w3.org/2000/svg">
<circle cx="15.5" cy="15" r="15" fill="white"/>
<path d="M7.16711 9.1676H23.8338V21.6676H7.16711V9.1676ZM22.1671 20.0009V10.8343H8.83378V20.0009H22.1671ZM19.6671 11.6676C19.6671 12.1096 19.8427 12.5336 20.1553 12.8461C20.4678 13.1587 20.8918 13.3343 21.3338 13.3343V17.5009C20.8918 17.5009 20.4678 17.6765 20.1553 17.9891C19.8427 18.3017 19.6671 18.7256 19.6671 19.1676H11.3338C11.3338 18.7256 11.1582 18.3017 10.8456 17.9891C10.5331 17.6765 10.1091 17.5009 9.66711 17.5009V13.3343C10.1091 13.3343 10.5331 13.1587 10.8456 12.8461C11.1582 12.5336 11.3338 12.1096 11.3338 11.6676H19.6671ZM19.6671 15.8343V15.0009C19.6671 14.0843 19.1088 13.3343 18.4171 13.3343C17.7254 13.3343 17.1671 14.0843 17.1671 15.0009V15.8343C17.1671 16.7509 17.7254 17.5009 18.4171 17.5009C19.1088 17.5009 19.6671 16.7509 19.6671 15.8343ZM18.4171 14.1676C18.5276 14.1676 18.6336 14.2115 18.7117 14.2896C18.7899 14.3678 18.8338 14.4738 18.8338 14.5843V16.2509C18.8338 16.3614 18.7899 16.4674 18.7117 16.5456C18.6336 16.6237 18.5276 16.6676 18.4171 16.6676C18.3066 16.6676 18.2006 16.6237 18.1225 16.5456C18.0443 16.4674 18.0004 16.3614 18.0004 16.2509V14.5843C18.0004 14.4738 18.0443 14.3678 18.1225 14.2896C18.2006 14.2115 18.3066 14.1676 18.4171 14.1676ZM16.3338 15.8343V15.0009C16.3338 14.0843 15.7754 13.3343 15.0838 13.3343C14.3921 13.3343 13.8338 14.0843 13.8338 15.0009V15.8343C13.8338 16.7509 14.3921 17.5009 15.0838 17.5009C15.7754 17.5009 16.3338 16.7509 16.3338 15.8343ZM15.0838 14.1676C15.1943 14.1676 15.3003 14.2115 15.3784 14.2896C15.4565 14.3678 15.5004 14.4738 15.5004 14.5843V16.2509C15.5004 16.3614 15.4565 16.4674 15.3784 16.5456C15.3003 16.6237 15.1943 16.6676 15.0838 16.6676C14.9733 16.6676 14.8673 16.6237 14.7892 16.5456C14.711 16.4674 14.6671 16.3614 14.6671 16.2509V14.5843C14.6671 14.4738 14.711 14.3678 14.7892 14.2896C14.8673 14.2115 14.9733 14.1676 15.0838 14.1676ZM12.1671 17.5009H13.0004V13.3343H12.1671L11.3338 13.7509V14.5843L12.1671 14.1676V17.5009Z" fill="url(#paint0_linear_206_1160)"/>
<defs>
<linearGradient id="paint0_linear_206_1160" x1="15.5004" y1="9.1676" x2="15.5004" y2="16.8313" gradientUnits="userSpaceOnUse">
<stop stop-color="#72E175"/>
<stop offset="1" stop-color="#83E09E"/>
</linearGradient>
</defs>
</svg>
