<svg width="31" height="30" viewBox="0 0 31 30" fill="none" xmlns="http://www.w3.org/2000/svg">
<circle cx="15.5" cy="15" r="15" fill="white"/>
<g clip-path="url(#clip0_206_1173)">
<path d="M13.8334 6.66663V8.54996L15.5 9.65829V8.33329H23.8334V20.8333H19.6667V22.5H25.5V6.66663H13.8334ZM11.75 9.16663L5.50003 13.3333V22.5H18V13.3333L11.75 9.16663ZM17.1667 9.99996V10.775L18.5084 11.6666H18.8334V9.99996H17.1667ZM20.5 9.99996V11.6666H22.1667V9.99996H20.5ZM11.75 11.25L16.3334 14.1666V20.8333H13.8334V15.8333H9.6667V20.8333H7.1667V14.1666L11.75 11.25ZM20.5 13.3333V15H22.1667V13.3333H20.5ZM20.5 16.6666V18.3333H22.1667V16.6666H20.5Z" fill="url(#paint0_linear_206_1173)"/>
</g>
<defs>
<linearGradient id="paint0_linear_206_1173" x1="15.5" y1="6.66663" x2="15.5" y2="22.5" gradientUnits="userSpaceOnUse">
<stop stop-color="#75D1FF"/>
<stop offset="1" stop-color="#3BAAE1"/>
</linearGradient>
<clipPath id="clip0_206_1173">
<rect width="20" height="20" fill="white" transform="translate(5.5 5)"/>
</clipPath>
</defs>
</svg>
