<svg width="30" height="30" viewBox="0 0 30 30" fill="none" xmlns="http://www.w3.org/2000/svg">
<circle cx="15" cy="15" r="15" fill="white"/>
<path d="M8.33375 10.8324V20.8324H20.8337V22.499H8.33375C6.66708 22.499 6.66708 20.8324 6.66708 20.8324V10.8324H8.33375ZM22.5004 9.16569V17.499H11.6671V9.16569H22.5004ZM22.7504 7.49902H11.4171C10.6338 7.49902 10.0004 8.08236 10.0004 8.79069V17.874C10.0004 18.5907 10.6338 19.1657 11.4171 19.1657H22.7504C23.5337 19.1657 24.1671 18.5907 24.1671 17.874V8.79069C24.1671 8.08236 23.5337 7.49902 22.7504 7.49902ZM12.5004 9.99902H15.0004V14.1657H12.5004V9.99902ZM21.6671 16.6657H12.5004V14.999H21.6671V16.6657ZM21.6671 11.6657H16.6671V9.99902H21.6671V11.6657ZM21.6671 14.1657H16.6671V12.499H21.6671V14.1657Z" fill="url(#paint0_linear_206_1181)"/>
<defs>
<linearGradient id="paint0_linear_206_1181" x1="13.5486" y1="7.49902" x2="13.1416" y2="15.6741" gradientUnits="userSpaceOnUse">
<stop stop-color="#E26853"/>
<stop offset="1" stop-color="#FB8B6D"/>
</linearGradient>
</defs>
</svg>
