<svg width="50" height="50" viewBox="0 0 50 50" fill="none" xmlns="http://www.w3.org/2000/svg">
<g clip-path="url(#clip0_104_1064)">
<path d="M0 0H50V50H0V0Z" fill="#FC1E1F"/>
<path d="M12.6055 29.375C12.6055 26.733 13.9135 23.5911 14.5671 22.35C13.5689 19.2125 11.9474 12.6473 13.4448 11.4875C14.9421 10.3268 18.5573 14.1821 20.1769 16.2545C20.8385 15.9045 22.7144 15.2054 24.9269 15.2054C27.1394 15.2054 29.2189 15.9045 29.9831 16.2545C34.3403 11.3777 36.1635 11.0446 36.5296 11.4875C38.0698 13.433 36.4644 19.5393 35.4689 22.35C36.1117 23.3795 37.3939 26.2268 37.3939 29.3759C37.3939 33.3116 31.7376 38.9536 24.9028 38.9536C18.068 38.9536 12.6064 32.6786 12.6064 29.375H12.6055Z" fill="#EB9A2E"/>
<path fill-rule="evenodd" clip-rule="evenodd" d="M14.9572 20.7107C14.3724 18.7348 13.3795 14.5098 14.0804 13.4188C14.7813 12.3277 17.592 15.0589 18.9099 16.5616C18.151 17.167 16.2965 18.8455 14.9572 20.7107ZM35.1697 20.7107C35.7536 18.7348 36.7474 14.5098 36.0465 13.4188C35.3447 12.3277 32.5349 15.0589 31.217 16.5616C31.976 17.167 33.8304 18.8455 35.1697 20.7107Z" fill="#E58014"/>
<path d="M20.5026 23.4393C19.8481 23.5577 19.1821 23.6006 18.5178 23.567C18.3949 23.5638 18.2774 23.5157 18.1876 23.4318C18.0978 23.3479 18.0418 23.234 18.0303 23.1116C17.9678 22.3027 18.274 21.2232 19.191 21.2661C20.291 21.3179 20.7713 22.1321 20.9401 22.8018C21.0151 23.1027 20.8044 23.3839 20.5026 23.4384V23.4393ZM29.5294 23.4393C30.3115 23.5821 31.0338 23.5937 31.5142 23.567C31.6371 23.5638 31.7545 23.5157 31.8444 23.4318C31.9342 23.3479 31.9902 23.234 32.0017 23.1116C32.0642 22.3027 31.7579 21.2232 30.841 21.2661C29.741 21.3179 29.2606 22.1321 29.0919 22.8018C29.0169 23.1027 29.2276 23.3839 29.5294 23.4384V23.4393Z" fill="#FEFFF7"/>
<path d="M24.2337 38.7911C14.8293 37.358 12.5641 31.9054 12.606 29.358C17.4659 28.9991 19.1319 30.8795 19.3569 31.8643C19.4864 30.3643 20.7507 27.3625 24.7703 27.3625C28.79 27.3625 30.0543 30.3634 30.1837 31.8643C32.6712 28.8188 36.1337 29.1384 37.5543 29.6786C35.2543 37.3259 27.7159 38.9402 24.2337 38.7911Z" fill="#EAEAE8"/>
<path fill-rule="evenodd" clip-rule="evenodd" d="M26.2338 28.8071H23.6249C23.4501 28.8086 23.2829 28.8793 23.1602 29.0039C23.0375 29.1284 22.9693 29.2966 22.9704 29.4714V30.7589C23.0088 31.1759 23.3946 31.9732 24.6044 32.1071V33.3857C24.5241 33.4604 24.4613 33.5518 24.4204 33.6536H22.8606V33.6705C22.696 33.5183 22.5141 33.3858 22.3187 33.2759C22.2998 33.2656 22.279 33.2592 22.2576 33.257C22.2362 33.2548 22.2145 33.2569 22.1939 33.2631C22.1733 33.2693 22.1542 33.2796 22.1376 33.2933C22.121 33.307 22.1073 33.3238 22.0972 33.3429C22.0764 33.3814 22.0715 33.4266 22.0837 33.4687C22.0959 33.5108 22.1242 33.5464 22.1624 33.5679C22.2669 33.6259 22.4285 33.7286 22.566 33.8482C22.6356 33.908 22.6954 33.9688 22.7392 34.0268C22.7838 34.0857 22.8044 34.1312 22.8088 34.1607C22.8151 34.1946 22.8294 34.2232 22.8508 34.2464V34.9607C22.8508 35.0518 22.924 35.1268 23.0142 35.1268C23.0578 35.1263 23.0995 35.1086 23.1302 35.0775C23.1608 35.0463 23.1778 35.0044 23.1776 34.9607V33.9848H26.6847V34.9607C26.6847 35.0518 26.7579 35.1268 26.8481 35.1268C26.8698 35.1267 26.8913 35.1223 26.9113 35.1139C26.9313 35.1055 26.9494 35.0932 26.9647 35.0778C26.9799 35.0624 26.992 35.0441 27.0002 35.024C27.0084 35.0039 27.0125 34.9824 27.0124 34.9607V34.1634C27.0148 34.1537 27.0163 34.1439 27.0169 34.1339L27.0196 34.1277C27.0313 34.1076 27.045 34.0887 27.0606 34.0714C27.1026 34.0223 27.1651 33.9643 27.2419 33.9036C27.3937 33.7813 27.5767 33.6598 27.6999 33.5866C27.7375 33.5638 27.7646 33.5272 27.7754 33.4846C27.7863 33.4421 27.78 33.3969 27.7579 33.3589C27.7472 33.3402 27.7329 33.3238 27.7158 33.3107C27.6987 33.2976 27.6791 33.288 27.6582 33.2825C27.6374 33.277 27.6156 33.2757 27.5943 33.2787C27.5729 33.2817 27.5524 33.289 27.5338 33.3C27.361 33.4036 27.1952 33.5185 27.0374 33.6438L27.0258 33.6527H25.3883C25.355 33.5898 25.3112 33.533 25.2588 33.4848V32.1143C26.5151 32.0036 26.8713 31.183 26.8883 30.7589V29.4714C26.8895 29.2966 26.8212 29.1284 26.6985 29.0039C26.5758 28.8793 26.4087 28.8086 26.2338 28.8071ZM23.8356 34.4616L24.1821 34.8857L24.4463 34.6348L24.9258 35.0991L25.4213 34.6348L25.6526 34.8857L25.9722 34.4616H23.8356Z" fill="#000001"/>
<path d="M17.8127 24.5366C17.3314 24.3473 17.326 24.7902 17.3841 25.0348V25.4045C17.3843 25.7392 17.4856 26.0661 17.6747 26.3424C17.8638 26.6186 18.1319 26.8313 18.4439 26.9527C19.9028 27.5009 22.368 28.2598 22.0984 27.4652C21.7412 26.4179 18.4144 24.7732 17.8127 24.5366ZM32.0868 24.5366C32.5671 24.3473 32.5734 24.7902 32.5153 25.0348V25.4045C32.5151 25.7392 32.4138 26.0661 32.2247 26.3424C32.0356 26.6186 31.7675 26.8313 31.4555 26.9527C29.9966 27.5009 27.5305 28.2598 27.801 27.4652C28.1573 26.4179 31.485 24.7732 32.0868 24.5366Z" fill="black"/>
<path fill-rule="evenodd" clip-rule="evenodd" d="M20.1698 15.4911C18.7547 13.7393 17.0011 11.7759 14.8368 10.9161C9.78234 8.90715 13.3636 20.4732 13.8931 22.1411C13.2002 23.4866 11.8877 26.6366 11.8877 29.2973C11.8877 35.058 20.2091 39.2857 25.0002 39.2857C30.0047 39.2857 38.0984 35.1964 38.0984 29.2973C38.0984 26.175 36.9109 23.4205 36.2136 22.2455C37.2877 19.1848 39.2725 13.6116 37.1279 10.8607C35.6832 9.13304 30.5627 14.6875 29.9404 15.3714C29.0038 14.9884 27.0502 14.5304 24.9252 14.5304C22.8386 14.5304 21.0252 15.1018 20.1698 15.4911ZM13.4332 11.5268C13.3136 11.6179 13.202 11.7813 13.1154 12.0438C13.0297 12.3045 12.9761 12.6384 12.9547 13.0384C12.9127 13.8393 13.0038 14.8482 13.1779 15.9366C13.5225 18.1107 14.1841 20.5384 14.6886 22.1098L14.7332 22.2455L14.6654 22.3705C14.0091 23.6063 12.7082 26.7152 12.7082 29.2973C12.7082 30.0455 13.0243 31.0045 13.6395 32.0393C14.2502 33.0679 15.1395 34.1446 16.2466 35.1241C18.4627 37.083 21.6181 38.3929 25.0002 38.3929C28.3931 38.3929 31.402 37.2339 33.6627 35.3563C35.9377 33.467 37.2922 31.1375 37.2922 29.2973C37.2922 26.2018 36.0127 23.392 35.3832 22.392L35.2966 22.2536L35.352 22.1C35.8538 20.6964 36.5091 18.4696 36.8439 16.3571C37.0118 15.3009 37.0975 14.2857 37.0475 13.4205C36.9975 12.5527 36.8145 11.8875 36.4913 11.4786C36.4832 11.4723 36.4189 11.4295 36.2136 11.4607C35.9761 11.4973 35.6118 11.6286 35.0975 11.9393C34.0725 12.558 32.5243 13.8438 30.3145 16.292L30.1556 16.4688L29.9395 16.3705C29.1939 16.0321 27.1216 15.342 24.9252 15.342C23.2413 15.342 21.5002 15.7027 20.002 16.4875C18.9243 15.1223 17.7538 13.8089 16.4091 12.7C15.8172 12.2116 14.2841 10.8732 13.4332 11.5268Z" fill="black"/>
</g>
<defs>
<clipPath id="clip0_104_1064">
<rect width="50" height="50" rx="25" fill="white"/>
</clipPath>
</defs>
</svg>
