<svg width="50" height="50" viewBox="0 0 50 50" fill="none" xmlns="http://www.w3.org/2000/svg">
<g clip-path="url(#clip0_105_1744)">
<path d="M0 0H50V50H0V0Z" fill="#0091BA"/>
<path d="M11.6629 32.1429H14.6031V17.8571H11.6522L8.03613 20.575V23.1393L11.6049 20.7464H11.6629V32.1429ZM23.2308 32.1429C26.7799 32.1429 28.9326 29.3964 28.9326 25.0045V24.9857C28.9326 20.5938 26.7799 17.8571 23.2308 17.8571C19.6817 17.8571 17.529 20.5938 17.529 24.9857V25.0045C17.529 29.3973 19.6817 32.1429 23.2308 32.1429ZM23.2308 29.8277C21.4852 29.8277 20.487 28.0384 20.487 25.0045V24.9857C20.487 21.9527 21.4852 20.1732 23.2308 20.1732C24.9763 20.1732 25.9745 21.9527 25.9745 24.9857V25.0045C25.9745 28.0384 24.9763 29.8277 23.2308 29.8277ZM36.2629 32.1429C39.8129 32.1429 41.9647 29.3964 41.9647 25.0045V24.9857C41.9647 20.5938 39.812 17.8571 36.2629 17.8571C32.7138 17.8571 30.5611 20.5938 30.5611 24.9857V25.0045C30.5611 29.3973 32.7138 32.1429 36.2629 32.1429ZM36.2629 29.8277C34.5174 29.8277 33.5192 28.0384 33.5192 25.0045V24.9857C33.5192 21.9527 34.5174 20.1732 36.2629 20.1732C38.0085 20.1732 39.0076 21.9527 39.0076 24.9857V25.0045C39.0076 28.0384 38.0085 29.8277 36.2629 29.8277Z" fill="white"/>
</g>
<defs>
<clipPath id="clip0_105_1744">
<rect width="50" height="50" rx="25" fill="white"/>
</clipPath>
</defs>
</svg>
