<svg width="50" height="50" viewBox="0 0 50 50" fill="none" xmlns="http://www.w3.org/2000/svg">
<g clip-path="url(#clip0_44_179)">
<path d="M0 0H50V50H0V0Z" fill="url(#paint0_linear_44_179)"/>
<path d="M10.7919 23.5107C10.7919 23.5107 14.0884 19.2259 20.5357 18.7786V16.9982C13.3946 17.5179 7.14282 23.2143 7.14282 23.2143C7.14282 23.2143 10.7125 32.3616 20.5357 33.2027V31.5357C13.3276 30.7134 10.7919 23.5089 10.7919 23.5089V23.5107ZM20.5357 28.2232V29.7491C15.0875 28.8687 13.508 23.733 13.508 23.733C13.508 23.733 16.191 20.9616 20.5357 20.5357V22.3527C20.5321 22.3527 20.5384 22.3527 20.5357 22.3527C18.2553 22.1045 16.3982 24.0366 16.3982 24.0366C16.3982 24.0366 17.4643 27.2875 20.5357 28.2232ZM20.5357 14.2857V16.9982C20.7455 16.983 20.8875 16.9714 21.0982 16.9643C29.2169 16.7161 34.5071 23.1804 34.5071 23.1804C34.5071 23.1804 28.4312 29.8795 22.1018 29.8795C21.5214 29.8795 21.0455 29.8312 20.5357 29.7491V31.5357C20.9723 31.5857 21.3571 31.617 21.8285 31.617C27.7187 31.617 31.9785 28.8884 36.1035 25.6598C36.7875 26.1571 39.5875 27.3652 40.1625 27.8937C36.241 30.8714 27.1 33.2714 21.9187 33.2714C21.4187 33.2714 21.008 33.2437 20.5357 33.2027V35.7143H42.8571V14.2857H20.5357ZM20.5357 20.5357V18.7795C20.7428 18.7661 20.8848 18.7562 21.0982 18.75C26.9366 18.5839 30.7669 23.2634 30.7669 23.2634C30.7669 23.2634 26.758 28.5714 22.3214 28.5714C21.683 28.5714 21.0509 28.3804 20.5357 28.2232V22.3527C22.8089 22.6027 23.1982 23.5134 24.5651 25.5786L27.6035 23.2554C27.6035 23.2554 25.1696 20.5357 21.4285 20.5357C21.0223 20.5357 20.9178 20.4991 20.5357 20.5357Z" fill="#76B900"/>
</g>
<defs>
<linearGradient id="paint0_linear_44_179" x1="9.30178" y1="8.67143" x2="60.8455" y2="67.8723" gradientUnits="userSpaceOnUse">
<stop stop-color="#1A1E21"/>
<stop offset="1" stop-color="#06060A"/>
</linearGradient>
<clipPath id="clip0_44_179">
<rect width="50" height="50" rx="25" fill="white"/>
</clipPath>
</defs>
</svg>
