<svg width="50" height="50" viewBox="0 0 50 50" fill="none" xmlns="http://www.w3.org/2000/svg">
<g clip-path="url(#clip0_105_1421)">
<path d="M0 0H50V50H0V0Z" fill="#BABABA"/>
<path d="M18.9766 19.2455H31.2837L29.49 14.4304C29.4202 14.2328 29.2927 14.0608 29.1239 13.9366L18.9766 19.2455ZM18.9426 13.5304C19.3784 12.3589 20.3382 11.6071 21.3953 11.6071H28.6721C29.7301 11.6071 30.6891 12.3589 31.1248 13.5304L32.9194 18.3455C33.4569 19.7902 32.5882 21.4286 31.2837 21.4286H18.7837C17.4801 21.4286 16.6114 19.7902 17.1489 18.3455L18.9426 13.5304ZM9.14353 31.7455H21.4266L19.6328 26.9304C19.5631 26.7328 19.4355 26.5608 19.2667 26.4366L9.14264 31.7455H9.14353ZM9.1096 26.0304C9.54443 24.8589 10.5051 24.1071 11.5623 24.1071H18.8159C19.873 24.1071 20.8319 24.8589 21.2676 26.0304L23.0623 30.8455C23.5998 32.2902 22.731 33.9286 21.4266 33.9286H8.94978C7.64621 33.9286 6.77746 32.2902 7.31496 30.8455L9.1096 26.0304ZM41.1542 31.7455H28.7882L38.9935 26.4375C39.1525 26.55 39.2819 26.7196 39.3614 26.9312L41.1542 31.7455ZM31.2051 24.1071C30.148 24.1071 29.1891 24.8589 28.7525 26.0304L26.9587 30.8455C26.4203 32.2902 27.29 33.9286 28.5944 33.9286H41.1534C42.4569 33.9286 43.3257 32.2902 42.7882 30.8455L40.9935 26.0304C40.5605 24.8589 39.6007 24.1071 38.5444 24.1071H31.2051Z" fill="white"/>
</g>
<defs>
<clipPath id="clip0_105_1421">
<rect width="50" height="50" rx="25" fill="white"/>
</clipPath>
</defs>
</svg>
