<svg width="440" height="252" viewBox="0 0 440 252" fill="none" xmlns="http://www.w3.org/2000/svg">
<g filter="url(#filter0_d_207_2332)">
<rect x="122" y="96" width="90" height="64" rx="4" fill="white" shape-rendering="crispEdges"/>
<rect x="122.5" y="96.5" width="89" height="63" rx="3.5" stroke="white" shape-rendering="crispEdges"/>
<path fill-rule="evenodd" clip-rule="evenodd" d="M167.474 140.878C164.34 143.54 160.274 145.147 155.831 145.147C145.918 145.147 137.882 137.147 137.882 127.28C137.882 117.412 145.918 109.413 155.831 109.413C160.274 109.413 164.34 111.02 167.474 113.681C170.608 111.02 174.674 109.413 179.116 109.413C189.029 109.413 197.065 117.412 197.065 127.28C197.065 137.147 189.029 145.147 179.116 145.147C174.674 145.147 170.608 143.54 167.474 140.878Z" fill="#ED0006"/>
<path fill-rule="evenodd" clip-rule="evenodd" d="M167.474 140.878C171.333 137.601 173.78 132.725 173.78 127.28C173.78 121.835 171.333 116.958 167.474 113.681C170.608 111.02 174.674 109.413 179.116 109.413C189.029 109.413 197.065 117.412 197.065 127.28C197.065 137.147 189.029 145.147 179.116 145.147C174.674 145.147 170.608 143.54 167.474 140.878Z" fill="#F9A000"/>
<path fill-rule="evenodd" clip-rule="evenodd" d="M167.474 140.878C171.333 137.601 173.78 132.725 173.78 127.28C173.78 121.835 171.333 116.958 167.474 113.681C163.615 116.958 161.168 121.835 161.168 127.28C161.168 132.725 163.615 137.601 167.474 140.878Z" fill="#FF5E00"/>
</g>
<g filter="url(#filter1_d_207_2332)">
<rect x="232" y="96" width="90" height="64" rx="4" fill="white" shape-rendering="crispEdges"/>
<rect x="232.5" y="96.5" width="89" height="63" rx="3.5" stroke="white" shape-rendering="crispEdges"/>
<path fill-rule="evenodd" clip-rule="evenodd" d="M270.685 145.195L271.269 141.331L269.967 141.299H263.752L268.072 112.783C268.085 112.697 268.128 112.617 268.192 112.56C268.256 112.503 268.337 112.471 268.422 112.471H278.902C282.381 112.471 284.782 113.225 286.036 114.713C286.623 115.411 286.998 116.14 287.179 116.943C287.369 117.785 287.372 118.792 287.187 120.019L287.173 120.108V120.895L287.761 121.242C288.256 121.515 288.649 121.828 288.951 122.186C289.453 122.783 289.778 123.542 289.916 124.441C290.058 125.365 290.011 126.466 289.778 127.712C289.51 129.145 289.077 130.394 288.491 131.415C287.953 132.356 287.267 133.137 286.452 133.741C285.675 134.316 284.751 134.752 283.706 135.032C282.694 135.306 281.54 135.445 280.274 135.445H279.458C278.875 135.445 278.309 135.663 277.864 136.055C277.418 136.455 277.124 137.002 277.033 137.6L276.971 137.948L275.939 144.759L275.892 145.009C275.88 145.088 275.859 145.128 275.827 145.155C275.799 145.179 275.759 145.195 275.72 145.195H270.685Z" fill="#28356A"/>
<path fill-rule="evenodd" clip-rule="evenodd" d="M288.318 120.199C288.287 120.407 288.251 120.62 288.211 120.839C286.829 128.227 282.101 130.78 276.062 130.78H272.987C272.249 130.78 271.626 131.338 271.511 132.096L269.491 145.438C269.417 145.937 269.785 146.385 270.268 146.385H275.721C276.367 146.385 276.915 145.897 277.017 145.234L277.071 144.945L278.097 138.161L278.163 137.789C278.264 137.123 278.814 136.634 279.459 136.634H280.275C285.558 136.634 289.695 134.401 290.903 127.937C291.408 125.237 291.147 122.983 289.811 121.397C289.406 120.919 288.905 120.522 288.318 120.199Z" fill="#298FC2"/>
<path fill-rule="evenodd" clip-rule="evenodd" d="M286.872 119.599C286.66 119.535 286.442 119.477 286.219 119.424C285.994 119.373 285.764 119.328 285.527 119.288C284.698 119.149 283.79 119.083 282.817 119.083H274.603C274.401 119.083 274.208 119.13 274.037 119.216C273.658 119.406 273.376 119.779 273.308 120.236L271.561 131.76L271.511 132.096C271.625 131.338 272.248 130.78 272.986 130.78H276.061C282.1 130.78 286.828 128.226 288.21 120.839C288.251 120.62 288.286 120.407 288.317 120.199C287.967 120.006 287.589 119.841 287.181 119.7C287.08 119.665 286.976 119.632 286.872 119.599Z" fill="#22284F"/>
<path fill-rule="evenodd" clip-rule="evenodd" d="M273.309 120.236C273.377 119.779 273.658 119.406 274.037 119.217C274.21 119.131 274.401 119.084 274.604 119.084H282.817C283.79 119.084 284.699 119.15 285.528 119.289C285.765 119.329 285.995 119.375 286.22 119.426C286.443 119.478 286.661 119.536 286.872 119.6C286.977 119.633 287.081 119.666 287.182 119.7C287.59 119.841 287.969 120.007 288.319 120.199C288.73 117.469 288.315 115.61 286.898 113.927C285.334 112.073 282.514 111.28 278.904 111.28H268.424C267.686 111.28 267.057 111.838 266.944 112.598L262.579 141.408C262.492 141.978 262.915 142.492 263.467 142.492H269.937L273.309 120.236Z" fill="#28356A"/>
</g>
<g filter="url(#filter2_d_207_2332)">
<rect x="342" y="96" width="90" height="64" rx="4" fill="white" shape-rendering="crispEdges"/>
<rect x="342.5" y="96.5" width="89" height="63" rx="3.5" stroke="white" shape-rendering="crispEdges"/>
<path d="M405 124.744C404.815 123.59 403.794 122.82 402.402 122.82C401.938 122.82 401.567 122.82 401.103 122.82C400.268 122.724 400.082 123.012 400.082 123.686C400.082 127.054 400.082 130.325 400.082 133.693C400.082 135.425 398.412 137.254 396.463 137.639C390.339 139.082 384.215 140.429 378.091 141.872C377.442 142.065 376.699 142.065 375.957 142.065C375.679 142.065 375.215 141.872 375.122 141.584C375.029 141.391 375.308 141.006 375.493 140.814C375.771 140.622 376.143 140.429 376.514 140.237C377.627 139.852 378.834 139.467 379.947 139.082C384.494 137.542 389.04 136.003 393.587 134.367C395.628 133.693 396.742 132.25 396.742 130.422C396.835 124.648 396.742 118.778 396.742 113.005C396.742 112.042 396.278 111.273 395.257 110.888C394.051 110.407 392.937 110.791 391.917 111.273C385.422 114.448 379.019 117.624 372.524 120.799C370.668 121.761 369.555 123.108 369.555 125.033C369.555 130.518 369.555 136.003 369.555 141.488C369.555 141.776 369.555 142.065 369.647 142.257C370.297 144.086 371.967 145.24 374.194 145.24C378.741 145.24 383.287 145.24 387.834 145.24C392.381 145.24 396.835 145.24 401.381 145.24C402.402 145.24 403.237 145.048 403.979 144.374C404.907 143.605 404.907 142.546 404.907 141.584C404.907 136.85 405 124.744 405 124.744ZM386.071 123.012C386.535 121.761 387.556 120.991 389.04 120.799C390.061 120.703 390.896 121.28 391.082 122.242C391.267 123.686 389.597 125.418 387.834 125.418C386.442 125.418 385.607 124.359 386.071 123.012Z" fill="#FD6727"/>
</g>
<g filter="url(#filter3_d_207_2332)">
<rect x="67" y="12" width="90" height="64" rx="4" fill="white" shape-rendering="crispEdges"/>
<rect x="67.5" y="12.5" width="89" height="63" rx="3.5" stroke="white" shape-rendering="crispEdges"/>
<path d="M125.187 43.8781C126.594 43.9089 128.008 43.8156 129.408 43.9266C130.827 44.1932 131.169 46.3565 129.909 47.065C129.049 47.5317 128.027 47.2388 127.095 47.3212H125.187V43.8781ZM130.222 39.9811C130.534 41.0921 129.471 42.0896 128.409 41.9366H125.187C125.21 40.8889 125.143 39.7517 125.22 38.7592C126.511 38.7958 127.813 38.6845 129.096 38.8174C129.647 38.9569 130.109 39.4135 130.222 39.9811ZM137.975 23.5054C138.035 25.6272 137.983 27.861 138.001 30.0257C137.997 38.8268 138.009 47.6276 137.994 56.4292C137.937 59.7276 135.035 62.5937 131.784 62.6595C128.529 62.6728 125.274 62.6615 122.019 62.6652V49.3598C125.566 49.3414 129.114 49.3973 132.659 49.3319C134.304 49.2279 136.105 48.1347 136.182 46.3115C136.375 44.4804 134.662 43.2139 133.035 43.0138C132.409 42.9975 132.427 42.8302 133.035 42.7572C134.586 42.4193 135.805 40.8013 135.348 39.1809C134.959 37.4766 133.089 36.817 131.534 36.8203C128.363 36.7986 125.191 36.8172 122.02 36.8109C122.04 34.327 121.977 31.8404 122.054 29.3582C122.305 26.1194 125.28 23.4483 128.486 23.5063C131.649 23.5058 134.812 23.5058 137.975 23.5057V23.5054Z" fill="url(#paint0_linear_207_2332)"/>
<path d="M86.1819 29.6938C86.2629 26.4006 89.177 23.5581 92.4243 23.5099C95.6669 23.4999 98.91 23.5085 102.153 23.5056C102.144 34.5239 102.17 45.5434 102.139 56.5611C102.014 59.8143 99.132 62.6026 95.9201 62.6602C92.6714 62.6721 89.4222 62.6619 86.1734 62.6652V48.9112C89.3291 49.6623 92.6384 49.982 95.8578 49.4838C97.7822 49.1719 99.8877 48.2199 100.539 46.2086C101.019 44.4882 100.749 42.6775 100.82 40.9118V36.8111H95.2486C95.2236 39.5232 95.2999 42.24 95.2083 44.9489C95.0581 46.6139 93.4213 47.6718 91.8625 47.6153C89.9294 47.6359 86.0985 46.2039 86.0985 46.2039C86.0889 41.1225 86.1546 34.7588 86.1819 29.6943V29.6938Z" fill="url(#paint1_linear_207_2332)"/>
<path d="M104.23 38.4651C103.937 38.5278 104.171 37.4587 104.096 37.0532C104.116 34.4891 104.055 31.9222 104.131 29.36C104.381 26.1074 107.379 23.4297 110.597 23.5059H120.076C120.068 34.5242 120.094 45.5437 120.063 56.5614C119.938 59.8145 117.056 62.6028 113.843 62.6605C110.595 62.6729 107.345 62.6624 104.096 62.6656V47.5963C106.315 49.4304 109.331 49.7159 112.096 49.7209C114.18 49.7202 116.252 49.3965 118.276 48.9123V46.1515C115.995 47.2967 113.313 48.0241 110.785 47.3662C109.021 46.9239 107.741 45.2068 107.77 43.3731C107.565 41.4662 108.675 39.453 110.535 38.8861C112.844 38.1578 115.361 38.7148 117.526 39.6618C117.99 39.9064 118.461 40.2099 118.275 39.4289V37.2589C114.655 36.3912 110.802 36.0718 107.164 37.0159C106.111 37.3151 105.086 37.7688 104.23 38.4653V38.4651Z" fill="url(#paint2_linear_207_2332)"/>
</g>
<g filter="url(#filter4_d_207_2332)">
<rect x="177" y="12" width="90" height="64" rx="4" fill="white" shape-rendering="crispEdges"/>
<rect x="177.5" y="12.5" width="89" height="63" rx="3.5" stroke="white" shape-rendering="crispEdges"/>
<path fill-rule="evenodd" clip-rule="evenodd" d="M225.357 33.7118L220.785 34.7293V30.8854L225.357 29.8867V33.7118ZM234.864 35.841C233.079 35.841 231.932 36.7078 231.294 37.3108L231.058 36.1425H227.05V58.1132L231.604 57.1145L231.622 51.782C232.278 52.2719 233.243 52.9691 234.846 52.9691C238.107 52.9691 241.076 50.2557 241.076 44.2826C241.057 38.8182 238.052 35.841 234.864 35.841ZM233.772 48.8237C232.697 48.8237 232.059 48.428 231.622 47.938L231.604 40.9474C232.078 40.401 232.733 40.0241 233.772 40.0241C235.429 40.0241 236.577 41.9461 236.577 44.4145C236.577 46.9394 235.447 48.8237 233.772 48.8237ZM255.429 44.471C255.429 39.6473 253.17 35.841 248.853 35.841C244.518 35.841 241.895 39.6473 241.895 44.4333C241.895 50.105 244.992 52.9691 249.436 52.9691C251.604 52.9691 253.243 52.4603 254.481 51.7443V47.9758C253.243 48.6164 251.822 49.0121 250.019 49.0121C248.252 49.0121 246.686 48.3714 246.485 46.148H255.392C255.392 46.0442 255.399 45.8082 255.406 45.5364L255.406 45.5351L255.406 45.5341L255.406 45.5327L255.406 45.5315C255.417 45.1632 255.429 44.7304 255.429 44.471ZM246.431 42.6809C246.431 40.5517 247.687 39.6661 248.835 39.6661C249.946 39.6661 251.13 40.5517 251.13 42.6809H246.431ZM220.785 36.1614H225.357V52.6488H220.785V36.1614ZM215.594 36.1614L215.886 37.5557C216.96 35.5207 219.091 35.9352 219.674 36.1614V40.4952C219.109 40.2879 217.288 40.0241 216.213 41.475V52.6488H211.66V36.1614H215.594ZM206.778 32.0725L202.334 33.0523L202.316 48.1453C202.316 50.9341 204.337 52.9879 207.033 52.9879C208.527 52.9879 209.62 52.7053 210.221 52.3661V48.541C209.638 48.786 206.76 49.6527 206.76 46.864V40.1748H210.221V36.1613H206.76L206.778 32.0725ZM196.014 39.9299C195.048 39.9299 194.465 40.2126 194.465 40.9474C194.465 41.7498 195.468 42.1028 196.713 42.5406C198.742 43.2545 201.412 44.194 201.423 47.6743C201.423 51.0472 198.819 52.988 195.03 52.988C193.464 52.988 191.751 52.6677 190.058 51.9139V47.4294C191.588 48.2961 193.518 48.9368 195.03 48.9368C196.05 48.9368 196.779 48.6541 196.779 47.7874C196.779 46.8986 195.691 46.4924 194.378 46.0019C192.379 45.255 189.857 44.3128 189.857 41.1736C189.857 37.8384 192.316 35.8411 196.014 35.8411C197.525 35.8411 199.019 36.086 200.531 36.7078V41.1359C199.146 40.3633 197.398 39.9299 196.014 39.9299Z" fill="#6461FC"/>
</g>
<g filter="url(#filter5_d_207_2332)">
<rect x="67" y="180" width="90" height="64" rx="4" fill="white" shape-rendering="crispEdges"/>
<rect x="67.5" y="180.5" width="89" height="63" rx="3.5" stroke="white" shape-rendering="crispEdges"/>
<path fill-rule="evenodd" clip-rule="evenodd" d="M132.832 211.827C132.832 223.513 123.428 232.987 111.828 232.987C100.228 232.987 90.8235 223.513 90.8235 211.827C90.8235 200.14 100.228 190.667 111.828 190.667C123.428 190.667 132.832 200.14 132.832 211.827ZM116.874 203.965C119.796 204.976 121.933 206.489 121.514 209.306C121.209 211.368 120.07 212.366 118.557 212.715C120.633 213.8 121.341 215.859 120.683 218.349C119.435 221.931 116.467 222.233 112.519 221.484L111.561 225.335L109.247 224.756L110.192 220.956C109.592 220.807 108.979 220.647 108.347 220.476L107.398 224.294L105.087 223.715L106.044 219.855L101.383 218.675L102.533 216.016C102.533 216.016 104.239 216.47 104.215 216.437C104.871 216.6 105.162 216.171 105.277 215.886L107.874 205.433C107.903 204.94 107.733 204.318 106.796 204.083C106.831 204.058 105.115 203.663 105.115 203.663L105.73 201.183L110.398 202.343L111.347 198.527L113.66 199.107L112.73 202.847C113.352 202.989 113.977 203.133 114.585 203.285L115.508 199.569L117.822 200.148L116.874 203.965ZM111.337 210.33C112.914 210.751 116.344 211.667 116.941 209.265C117.551 206.807 114.219 206.065 112.587 205.702C112.403 205.661 112.24 205.624 112.107 205.591L110.954 210.229C111.064 210.257 111.193 210.291 111.337 210.33ZM109.552 217.798C111.439 218.299 115.568 219.394 116.225 216.748C116.898 214.042 112.895 213.14 110.941 212.7L110.941 212.7L110.941 212.7C110.723 212.651 110.53 212.608 110.373 212.568L109.102 217.68C109.231 217.713 109.382 217.753 109.551 217.798L109.552 217.798Z" fill="#F7931A"/>
</g>
<g filter="url(#filter6_d_207_2332)">
<rect x="287" y="12" width="90" height="64" rx="4" fill="white" shape-rendering="crispEdges"/>
<rect x="287.5" y="12.5" width="89" height="63" rx="3.5" stroke="white" shape-rendering="crispEdges"/>
<ellipse cx="331.828" cy="43.8266" rx="21.0044" ry="21.16" fill="#6481E7"/>
<path fill-rule="evenodd" clip-rule="evenodd" d="M322.652 44.6875L332.073 50.2986V28.9381L322.652 44.6875Z" fill="white"/>
<path fill-rule="evenodd" clip-rule="evenodd" d="M332.074 28.9381V50.2986L341.496 44.6875L332.074 28.9381Z" fill="#C1CCF5"/>
<path fill-rule="evenodd" clip-rule="evenodd" d="M332.074 40.3735L322.652 44.6873L332.074 50.2984L341.496 44.688L332.074 40.3735Z" fill="#8299EC"/>
<path fill-rule="evenodd" clip-rule="evenodd" d="M332.074 40.3735L322.652 44.6873L332.074 50.2984L332.074 40.3735Z" fill="#C1CCF5"/>
<path fill-rule="evenodd" clip-rule="evenodd" d="M322.652 46.4878L332.074 59.8637V52.0957L322.652 46.4878Z" fill="white"/>
<path fill-rule="evenodd" clip-rule="evenodd" d="M332.074 52.0957V59.8643L341.502 46.4878L332.074 52.0957Z" fill="#C1CCF5"/>
</g>
<g filter="url(#filter7_d_207_2332)">
<rect x="177" y="180" width="90" height="64" rx="4" fill="white" shape-rendering="crispEdges"/>
<rect x="177.5" y="180.5" width="89" height="63" rx="3.5" stroke="white" shape-rendering="crispEdges"/>
<ellipse cx="219.181" cy="211.827" rx="21.0044" ry="21.16" fill="#036CB5"/>
<path d="M219.11 196.712C221.451 196.712 223.678 197.261 225.676 198.242C225.99 198.387 226.305 198.56 226.618 198.733L225.247 199.975L223.193 197.81L219.653 200.986L217.568 198.704L211.058 204.623L215.226 209.272L213.599 210.715L217.711 215.364L216.084 216.807L221.966 223.419L225.447 220.185L228.475 223.651C227.875 224.113 227.218 224.575 226.505 224.979C224.335 226.22 221.822 226.941 219.138 226.941C210.886 226.941 204.178 220.157 204.178 211.814C204.149 203.526 210.858 196.712 219.11 196.712ZM216.368 210.889L219.937 207.655L223.136 211.264L219.566 214.498L216.368 210.889ZM218.91 217.126L222.45 213.863L225.676 217.472L222.107 220.706L218.91 217.126ZM213.829 204.739L217.397 201.505L220.594 205.114L217.025 208.348L213.829 204.739ZM220.366 203.006L223.021 200.581L225.42 203.267L222.764 205.72L220.366 203.006ZM225.106 214.122L227.76 211.697L230.159 214.41L227.503 216.837L225.106 214.122ZM227.446 219.58L230.102 217.154L232.499 219.839L229.844 222.293L227.446 219.58ZM228.532 207.106L230.301 205.489L231.9 207.28L230.13 208.897L228.532 207.106ZM226.247 201.765L228.017 200.12L229.617 201.938L227.846 203.555L226.247 201.765ZM230.787 212.448L232.557 210.831L234.184 212.622L232.386 214.238L230.787 212.448ZM222.821 208.435L225.477 206.01L227.875 208.694L225.22 211.12L222.821 208.435Z" fill="white"/>
</g>
<g filter="url(#filter8_d_207_2332)">
<rect x="287" y="180" width="90" height="64" rx="4" fill="white" shape-rendering="crispEdges"/>
<rect x="287.5" y="180.5" width="89" height="63" rx="3.5" stroke="white" shape-rendering="crispEdges"/>
<ellipse cx="331.828" cy="211.827" rx="21.0044" ry="21.16" fill="#FF8C00"/>
<path d="M340.753 218.024C340.719 217.725 340.549 217.04 340.105 216.864H340.106C339.884 216.776 339.697 216.846 339.612 217.004C339.475 217.251 339.577 217.725 339.833 218.148C340.089 218.57 340.327 218.781 340.498 218.781C340.669 218.781 340.822 218.57 340.753 218.024Z" fill="white"/>
<path d="M338.368 219.22C338.095 218.974 337.788 218.851 337.515 218.851C337.277 218.851 337.089 218.939 336.97 219.097C336.664 219.484 336.8 220.188 337.277 220.61C337.481 220.803 337.788 220.909 338.078 220.909C338.368 220.909 338.623 220.786 338.776 220.592C339.049 220.205 338.896 219.678 338.368 219.22Z" fill="white"/>
<path d="M319.825 211.834C319.825 218.517 325.074 223.934 331.551 223.934H331.55C333.272 223.934 334.976 223.6 337.481 223.581C339.714 223.581 342.168 224.39 344.861 226.853C345.133 227.099 345.491 226.782 345.253 226.483C342.611 223.019 340.157 222.369 337.703 221.806C334.704 221.12 333.17 219.396 332.096 217.479C331.891 217.092 331.789 217.163 331.772 217.655C331.752 218.38 331.804 219.105 331.925 219.819H331.568C327.29 219.819 323.813 216.231 323.813 211.817C323.813 207.402 327.29 203.814 331.567 203.814C335.845 203.814 339.322 207.402 339.322 211.817C339.322 212.133 339.305 212.45 339.271 212.749C338.691 212.643 337.584 212.626 336.8 212.696C336.51 212.731 336.544 212.872 336.766 212.907C339.322 213.399 341.077 215.035 341.486 218.007C341.503 218.077 341.589 218.095 341.623 218.042C342.662 216.231 343.276 214.102 343.276 211.834C343.276 205.152 338.026 199.735 331.55 199.735C325.075 199.735 319.825 205.151 319.825 211.834Z" fill="white"/>
</g>
<g filter="url(#filter9_d_207_2332)">
<rect x="12" y="96" width="90" height="64" rx="4" fill="white" shape-rendering="crispEdges"/>
<rect x="12.5" y="96.5" width="89" height="63" rx="3.5" stroke="white" shape-rendering="crispEdges"/>
<path fill-rule="evenodd" clip-rule="evenodd" d="M40.4566 138.289H35.0043L30.9158 122.113C30.7217 121.369 30.3097 120.711 29.7036 120.401C28.191 119.622 26.5242 119.002 24.7059 118.689V118.066H33.489C34.7012 118.066 35.6104 119.002 35.7619 120.088L37.8833 131.756L43.3329 118.066H48.6336L40.4566 138.289ZM51.6641 138.289H46.5149L50.755 118.066H55.9042L51.6641 138.289ZM62.566 123.669C62.7175 122.579 63.6267 121.957 64.6873 121.957C66.3541 121.8 68.1698 122.113 69.685 122.889L70.5942 118.535C69.0789 117.913 67.4121 117.6 65.8995 117.6C60.9019 117.6 57.2653 120.401 57.2653 124.289C57.2653 127.246 59.8412 128.799 61.6595 129.734C63.6267 130.667 64.3843 131.29 64.2328 132.223C64.2328 133.622 62.7175 134.245 61.2049 134.245C59.3866 134.245 57.5683 133.778 55.9042 132.999L54.995 137.356C56.8133 138.132 58.7805 138.445 60.5988 138.445C66.2026 138.599 69.685 135.8 69.685 131.6C69.685 126.311 62.566 126.001 62.566 123.669ZM87.7059 138.289L83.6174 118.066H79.2258C78.3166 118.066 77.4075 118.689 77.1044 119.622L69.5335 138.289H74.8342L75.8922 135.334H82.4052L83.0113 138.289H87.7059ZM79.9834 123.512L81.496 131.134H77.256L79.9834 123.512Z" fill="#172B85"/>
</g>
<defs>
<filter id="filter0_d_207_2332" x="110" y="84" width="110" height="84" filterUnits="userSpaceOnUse" color-interpolation-filters="sRGB">
<feFlood flood-opacity="0" result="BackgroundImageFix"/>
<feColorMatrix in="SourceAlpha" type="matrix" values="0 0 0 0 0 0 0 0 0 0 0 0 0 0 0 0 0 0 127 0" result="hardAlpha"/>
<feOffset dx="-2" dy="-2"/>
<feGaussianBlur stdDeviation="5"/>
<feComposite in2="hardAlpha" operator="out"/>
<feColorMatrix type="matrix" values="0 0 0 0 0 0 0 0 0 0 0 0 0 0 0 0 0 0 0.15 0"/>
<feBlend mode="normal" in2="BackgroundImageFix" result="effect1_dropShadow_207_2332"/>
<feBlend mode="normal" in="SourceGraphic" in2="effect1_dropShadow_207_2332" result="shape"/>
</filter>
<filter id="filter1_d_207_2332" x="220" y="84" width="110" height="84" filterUnits="userSpaceOnUse" color-interpolation-filters="sRGB">
<feFlood flood-opacity="0" result="BackgroundImageFix"/>
<feColorMatrix in="SourceAlpha" type="matrix" values="0 0 0 0 0 0 0 0 0 0 0 0 0 0 0 0 0 0 127 0" result="hardAlpha"/>
<feOffset dx="-2" dy="-2"/>
<feGaussianBlur stdDeviation="5"/>
<feComposite in2="hardAlpha" operator="out"/>
<feColorMatrix type="matrix" values="0 0 0 0 0 0 0 0 0 0 0 0 0 0 0 0 0 0 0.15 0"/>
<feBlend mode="normal" in2="BackgroundImageFix" result="effect1_dropShadow_207_2332"/>
<feBlend mode="normal" in="SourceGraphic" in2="effect1_dropShadow_207_2332" result="shape"/>
</filter>
<filter id="filter2_d_207_2332" x="330" y="84" width="110" height="84" filterUnits="userSpaceOnUse" color-interpolation-filters="sRGB">
<feFlood flood-opacity="0" result="BackgroundImageFix"/>
<feColorMatrix in="SourceAlpha" type="matrix" values="0 0 0 0 0 0 0 0 0 0 0 0 0 0 0 0 0 0 127 0" result="hardAlpha"/>
<feOffset dx="-2" dy="-2"/>
<feGaussianBlur stdDeviation="5"/>
<feComposite in2="hardAlpha" operator="out"/>
<feColorMatrix type="matrix" values="0 0 0 0 0 0 0 0 0 0 0 0 0 0 0 0 0 0 0.15 0"/>
<feBlend mode="normal" in2="BackgroundImageFix" result="effect1_dropShadow_207_2332"/>
<feBlend mode="normal" in="SourceGraphic" in2="effect1_dropShadow_207_2332" result="shape"/>
</filter>
<filter id="filter3_d_207_2332" x="55" y="0" width="110" height="84" filterUnits="userSpaceOnUse" color-interpolation-filters="sRGB">
<feFlood flood-opacity="0" result="BackgroundImageFix"/>
<feColorMatrix in="SourceAlpha" type="matrix" values="0 0 0 0 0 0 0 0 0 0 0 0 0 0 0 0 0 0 127 0" result="hardAlpha"/>
<feOffset dx="-2" dy="-2"/>
<feGaussianBlur stdDeviation="5"/>
<feComposite in2="hardAlpha" operator="out"/>
<feColorMatrix type="matrix" values="0 0 0 0 0 0 0 0 0 0 0 0 0 0 0 0 0 0 0.15 0"/>
<feBlend mode="normal" in2="BackgroundImageFix" result="effect1_dropShadow_207_2332"/>
<feBlend mode="normal" in="SourceGraphic" in2="effect1_dropShadow_207_2332" result="shape"/>
</filter>
<filter id="filter4_d_207_2332" x="165" y="0" width="110" height="84" filterUnits="userSpaceOnUse" color-interpolation-filters="sRGB">
<feFlood flood-opacity="0" result="BackgroundImageFix"/>
<feColorMatrix in="SourceAlpha" type="matrix" values="0 0 0 0 0 0 0 0 0 0 0 0 0 0 0 0 0 0 127 0" result="hardAlpha"/>
<feOffset dx="-2" dy="-2"/>
<feGaussianBlur stdDeviation="5"/>
<feComposite in2="hardAlpha" operator="out"/>
<feColorMatrix type="matrix" values="0 0 0 0 0 0 0 0 0 0 0 0 0 0 0 0 0 0 0.15 0"/>
<feBlend mode="normal" in2="BackgroundImageFix" result="effect1_dropShadow_207_2332"/>
<feBlend mode="normal" in="SourceGraphic" in2="effect1_dropShadow_207_2332" result="shape"/>
</filter>
<filter id="filter5_d_207_2332" x="55" y="168" width="110" height="84" filterUnits="userSpaceOnUse" color-interpolation-filters="sRGB">
<feFlood flood-opacity="0" result="BackgroundImageFix"/>
<feColorMatrix in="SourceAlpha" type="matrix" values="0 0 0 0 0 0 0 0 0 0 0 0 0 0 0 0 0 0 127 0" result="hardAlpha"/>
<feOffset dx="-2" dy="-2"/>
<feGaussianBlur stdDeviation="5"/>
<feComposite in2="hardAlpha" operator="out"/>
<feColorMatrix type="matrix" values="0 0 0 0 0 0 0 0 0 0 0 0 0 0 0 0 0 0 0.15 0"/>
<feBlend mode="normal" in2="BackgroundImageFix" result="effect1_dropShadow_207_2332"/>
<feBlend mode="normal" in="SourceGraphic" in2="effect1_dropShadow_207_2332" result="shape"/>
</filter>
<filter id="filter6_d_207_2332" x="275" y="0" width="110" height="84" filterUnits="userSpaceOnUse" color-interpolation-filters="sRGB">
<feFlood flood-opacity="0" result="BackgroundImageFix"/>
<feColorMatrix in="SourceAlpha" type="matrix" values="0 0 0 0 0 0 0 0 0 0 0 0 0 0 0 0 0 0 127 0" result="hardAlpha"/>
<feOffset dx="-2" dy="-2"/>
<feGaussianBlur stdDeviation="5"/>
<feComposite in2="hardAlpha" operator="out"/>
<feColorMatrix type="matrix" values="0 0 0 0 0 0 0 0 0 0 0 0 0 0 0 0 0 0 0.15 0"/>
<feBlend mode="normal" in2="BackgroundImageFix" result="effect1_dropShadow_207_2332"/>
<feBlend mode="normal" in="SourceGraphic" in2="effect1_dropShadow_207_2332" result="shape"/>
</filter>
<filter id="filter7_d_207_2332" x="165" y="168" width="110" height="84" filterUnits="userSpaceOnUse" color-interpolation-filters="sRGB">
<feFlood flood-opacity="0" result="BackgroundImageFix"/>
<feColorMatrix in="SourceAlpha" type="matrix" values="0 0 0 0 0 0 0 0 0 0 0 0 0 0 0 0 0 0 127 0" result="hardAlpha"/>
<feOffset dx="-2" dy="-2"/>
<feGaussianBlur stdDeviation="5"/>
<feComposite in2="hardAlpha" operator="out"/>
<feColorMatrix type="matrix" values="0 0 0 0 0 0 0 0 0 0 0 0 0 0 0 0 0 0 0.15 0"/>
<feBlend mode="normal" in2="BackgroundImageFix" result="effect1_dropShadow_207_2332"/>
<feBlend mode="normal" in="SourceGraphic" in2="effect1_dropShadow_207_2332" result="shape"/>
</filter>
<filter id="filter8_d_207_2332" x="275" y="168" width="110" height="84" filterUnits="userSpaceOnUse" color-interpolation-filters="sRGB">
<feFlood flood-opacity="0" result="BackgroundImageFix"/>
<feColorMatrix in="SourceAlpha" type="matrix" values="0 0 0 0 0 0 0 0 0 0 0 0 0 0 0 0 0 0 127 0" result="hardAlpha"/>
<feOffset dx="-2" dy="-2"/>
<feGaussianBlur stdDeviation="5"/>
<feComposite in2="hardAlpha" operator="out"/>
<feColorMatrix type="matrix" values="0 0 0 0 0 0 0 0 0 0 0 0 0 0 0 0 0 0 0.15 0"/>
<feBlend mode="normal" in2="BackgroundImageFix" result="effect1_dropShadow_207_2332"/>
<feBlend mode="normal" in="SourceGraphic" in2="effect1_dropShadow_207_2332" result="shape"/>
</filter>
<filter id="filter9_d_207_2332" x="0" y="84" width="110" height="84" filterUnits="userSpaceOnUse" color-interpolation-filters="sRGB">
<feFlood flood-opacity="0" result="BackgroundImageFix"/>
<feColorMatrix in="SourceAlpha" type="matrix" values="0 0 0 0 0 0 0 0 0 0 0 0 0 0 0 0 0 0 127 0" result="hardAlpha"/>
<feOffset dx="-2" dy="-2"/>
<feGaussianBlur stdDeviation="5"/>
<feComposite in2="hardAlpha" operator="out"/>
<feColorMatrix type="matrix" values="0 0 0 0 0 0 0 0 0 0 0 0 0 0 0 0 0 0 0.15 0"/>
<feBlend mode="normal" in2="BackgroundImageFix" result="effect1_dropShadow_207_2332"/>
<feBlend mode="normal" in="SourceGraphic" in2="effect1_dropShadow_207_2332" result="shape"/>
</filter>
<linearGradient id="paint0_linear_207_2332" x1="121.91" y1="42.248" x2="137.9" y2="42.248" gradientUnits="userSpaceOnUse">
<stop stop-color="#58B03A"/>
<stop offset="1" stop-color="#55B330"/>
</linearGradient>
<linearGradient id="paint1_linear_207_2332" x1="85.8334" y1="43.4604" x2="101.891" y2="43.4604" gradientUnits="userSpaceOnUse">
<stop stop-color="#0F6EB6"/>
<stop offset="1" stop-color="#006DBA"/>
</linearGradient>
<linearGradient id="paint2_linear_207_2332" x1="104.073" y1="42.6278" x2="120.073" y2="42.6278" gradientUnits="userSpaceOnUse">
<stop stop-color="#DE0D3D"/>
<stop offset="1" stop-color="#E30138"/>
</linearGradient>
</defs>
</svg>
