<svg width="20" height="20" viewBox="0 0 20 20" fill="none" xmlns="http://www.w3.org/2000/svg">
<g clip-path="url(#clip0_43_17327)">
<path d="M10.8474 17.2392C10.5699 17.3383 10.2865 17.425 9.99905 17.5C8.70172 17.1635 7.48528 16.5696 6.422 15.7537C5.35872 14.9378 4.47031 13.9165 3.80954 12.7504C3.14878 11.5844 2.72916 10.2974 2.57561 8.96598C2.42206 7.63456 2.53772 6.28585 2.91571 5C5.51199 5.11881 8.05252 4.22215 9.99905 2.5C11.9456 4.22215 14.4861 5.11881 17.0824 5C17.4432 6.22667 17.5615 7.49833 17.4457 8.74583" stroke="url(#paint0_linear_43_17327)" stroke-width="1.5" stroke-linecap="round" stroke-linejoin="round"/>
<path d="M17.5 12.5H15.4167C15.0852 12.5 14.7672 12.6317 14.5328 12.8661C14.2984 13.1005 14.1667 13.4185 14.1667 13.75C14.1667 14.0815 14.2984 14.3995 14.5328 14.6339C14.7672 14.8683 15.0852 15 15.4167 15H16.25C16.5815 15 16.8995 15.1317 17.1339 15.3661C17.3683 15.6005 17.5 15.9185 17.5 16.25C17.5 16.5815 17.3683 16.8995 17.1339 17.1339C16.8995 17.3683 16.5815 17.5 16.25 17.5H14.1667" stroke="url(#paint1_linear_43_17327)" stroke-width="1.5" stroke-linecap="round" stroke-linejoin="round"/>
<path d="M15.8333 17.5V18.3333M15.8333 11.6666V12.5" stroke="url(#paint2_linear_43_17327)" stroke-width="1.5" stroke-linecap="round" stroke-linejoin="round"/>
</g>
<defs>
<linearGradient id="paint0_linear_43_17327" x1="9.99916" y1="2.5" x2="9.99916" y2="11.6964" gradientUnits="userSpaceOnUse">
<stop stop-color="#72E175"/>
<stop offset="1" stop-color="#83E09E"/>
</linearGradient>
<linearGradient id="paint1_linear_43_17327" x1="15.8334" y1="12.5" x2="15.8334" y2="15.5655" gradientUnits="userSpaceOnUse">
<stop stop-color="#72E175"/>
<stop offset="1" stop-color="#83E09E"/>
</linearGradient>
<linearGradient id="paint2_linear_43_17327" x1="16.3333" y1="11.6666" x2="16.3333" y2="15.7539" gradientUnits="userSpaceOnUse">
<stop stop-color="#72E175"/>
<stop offset="1" stop-color="#83E09E"/>
</linearGradient>
<clipPath id="clip0_43_17327">
<rect width="20" height="20" fill="white"/>
</clipPath>
</defs>
</svg>
