<svg width="50" height="50" viewBox="0 0 50 50" fill="none" xmlns="http://www.w3.org/2000/svg">
<g clip-path="url(#clip0_44_188)">
<path d="M0 0H50V50H0V0Z" fill="#00939A"/>
<path d="M38.6109 23.0384C34.1073 26.0982 29.9377 25.7679 26.1011 22.0491C33.877 19.3527 37.9734 15.1857 41.9645 18.7589L39.0038 22.592H38.9993V22.5973H38.9939V22.6045H38.9841V22.6063H38.9823C38.9796 22.6063 38.9805 22.6089 38.9779 22.6089V22.6125H38.9761V22.6161H38.9743L38.9734 22.6179C38.9734 22.6196 38.9707 22.6196 38.9707 22.6214L38.9698 22.6232C38.9645 22.6232 38.96 22.6313 38.9573 22.6313L38.9564 22.6348L38.9529 22.6384L38.9475 22.642V22.6438C38.9475 22.6473 38.9386 22.6554 38.9359 22.6571V22.6589H38.9341V22.6679H38.9323V22.6705H38.9305V22.6732L38.9279 22.6741L38.9234 22.6768C38.9216 22.6786 38.9207 22.6795 38.9207 22.683L38.9189 22.6848L38.9109 22.6875L38.9091 22.6902C38.8949 22.7044 38.8818 22.7196 38.8698 22.7357L38.868 22.7375C38.868 22.7411 38.8627 22.7455 38.8627 22.75V22.7527C38.8573 22.7545 38.8457 22.7652 38.8404 22.7652V22.7679C38.8288 22.7723 38.8198 22.7821 38.8064 22.7857V22.7875H38.8029V22.7893H38.8002L38.7984 22.7929L38.793 22.7946V22.7964L38.7841 22.8009V22.8045H38.7814C38.7759 22.8089 38.7699 22.8137 38.7636 22.817L38.7555 22.8259H38.7538V22.8277L38.7511 22.8321L38.7475 22.833C38.7475 22.9027 38.6386 22.9286 38.6386 22.9741H38.6368C38.6368 22.9786 38.6243 22.9893 38.6243 22.9955H38.6225C38.6207 22.9973 38.6145 23.0045 38.6145 23.0063H38.6127C38.6073 23.0107 38.6109 23.033 38.6109 23.0393V23.0384Z" fill="#ECB833"/>
<path d="M39.0115 22.5839C27.2642 32.2054 22.658 9.44553 8.03564 18.0589L24.5124 39.2857" fill="white"/>
</g>
<defs>
<clipPath id="clip0_44_188">
<rect width="50" height="50" rx="25" fill="white"/>
</clipPath>
</defs>
</svg>
