<svg width="50" height="50" viewBox="0 0 50 50" fill="none" xmlns="http://www.w3.org/2000/svg">
<g clip-path="url(#clip0_105_2060)">
<path d="M0 0H50V50H0V0Z" fill="#FFD600"/>
<path d="M18.7499 11.1804C18.7499 10.3875 18.1641 9.82143 17.4106 9.82143C16.657 9.82143 16.0713 10.3875 16.0713 11.1804V26.9411C16.1451 28.4418 16.6576 29.8878 17.5454 31.1C18.4427 32.3375 19.6918 33.3286 21.1606 33.9661L23.6606 34.9839V39.7125C23.6606 40.5054 24.2463 41.0714 24.9999 41.0714C25.7534 41.0714 26.3391 40.5054 26.3391 39.7125V34.9848L28.8391 33.9652C30.3293 33.3179 31.5936 32.3062 32.4927 31.042C33.3821 29.804 33.882 28.3289 33.9284 26.8054V11.1804C33.9284 10.3875 33.3427 9.82143 32.5891 9.82143C31.8356 9.82143 31.2499 10.3875 31.2499 11.1804V15.1786L26.3391 17.2946V14.7929C26.3391 14.0009 25.7534 13.3929 24.9999 13.3929C24.2463 13.3929 23.6606 14 23.6606 14.7929V17.2946L18.7499 15.1786V11.1804Z" fill="white"/>
</g>
<defs>
<clipPath id="clip0_105_2060">
<rect width="50" height="50" rx="25" fill="white"/>
</clipPath>
</defs>
</svg>
